<?xml version="1.0" encoding="utf-8" standalone="no"?>
<!DOCTYPE svg PUBLIC "-//W3C//DTD SVG 1.1//EN"
  "http://www.w3.org/Graphics/SVG/1.1/DTD/svg11.dtd">
<!-- Created with matplotlib (https://matplotlib.org/) -->
<svg height="313.36825pt" version="1.1" viewBox="0 0 401.1075 313.36825" width="401.1075pt" xmlns="http://www.w3.org/2000/svg" xmlns:xlink="http://www.w3.org/1999/xlink">
 <defs>
  <style type="text/css">
*{stroke-linecap:butt;stroke-linejoin:round;}
  </style>
 </defs>
 <g id="figure_1">
  <g id="patch_1">
   <path d="M 0 313.36825 
L 401.1075 313.36825 
L 401.1075 0 
L 0 0 
z
" style="fill:#ffffff;"/>
  </g>
  <g id="axes_1">
   <g id="patch_2">
    <path d="M 33.2875 276.812 
L 390.4075 276.812 
L 390.4075 10.7 
L 33.2875 10.7 
z
" style="fill:#ffffff;"/>
   </g>
   <g id="matplotlib.axis_1">
    <g id="xtick_1">
     <g id="line2d_1">
      <defs>
       <path d="M 0 0 
L 0 3.5 
" id="m08510a1269" style="stroke:#000000;stroke-width:0.8;"/>
      </defs>
      <g>
       <use style="stroke:#000000;stroke-width:0.8;" x="49.520227" xlink:href="#m08510a1269" y="276.812"/>
      </g>
     </g>
     <g id="text_1">
      <!-- 30 -->
      <defs>
       <path d="M 40.578125 39.3125 
Q 47.65625 37.796875 51.625 33 
Q 55.609375 28.21875 55.609375 21.1875 
Q 55.609375 10.40625 48.1875 4.484375 
Q 40.765625 -1.421875 27.09375 -1.421875 
Q 22.515625 -1.421875 17.65625 -0.515625 
Q 12.796875 0.390625 7.625 2.203125 
L 7.625 11.71875 
Q 11.71875 9.328125 16.59375 8.109375 
Q 21.484375 6.890625 26.8125 6.890625 
Q 36.078125 6.890625 40.9375 10.546875 
Q 45.796875 14.203125 45.796875 21.1875 
Q 45.796875 27.640625 41.28125 31.265625 
Q 36.765625 34.90625 28.71875 34.90625 
L 20.21875 34.90625 
L 20.21875 43.015625 
L 29.109375 43.015625 
Q 36.375 43.015625 40.234375 45.921875 
Q 44.09375 48.828125 44.09375 54.296875 
Q 44.09375 59.90625 40.109375 62.90625 
Q 36.140625 65.921875 28.71875 65.921875 
Q 24.65625 65.921875 20.015625 65.03125 
Q 15.375 64.15625 9.8125 62.3125 
L 9.8125 71.09375 
Q 15.4375 72.65625 20.34375 73.4375 
Q 25.25 74.21875 29.59375 74.21875 
Q 40.828125 74.21875 47.359375 69.109375 
Q 53.90625 64.015625 53.90625 55.328125 
Q 53.90625 49.265625 50.4375 45.09375 
Q 46.96875 40.921875 40.578125 39.3125 
z
" id="DejaVuSans-51"/>
       <path d="M 31.78125 66.40625 
Q 24.171875 66.40625 20.328125 58.90625 
Q 16.5 51.421875 16.5 36.375 
Q 16.5 21.390625 20.328125 13.890625 
Q 24.171875 6.390625 31.78125 6.390625 
Q 39.453125 6.390625 43.28125 13.890625 
Q 47.125 21.390625 47.125 36.375 
Q 47.125 51.421875 43.28125 58.90625 
Q 39.453125 66.40625 31.78125 66.40625 
z
M 31.78125 74.21875 
Q 44.046875 74.21875 50.515625 64.515625 
Q 56.984375 54.828125 56.984375 36.375 
Q 56.984375 17.96875 50.515625 8.265625 
Q 44.046875 -1.421875 31.78125 -1.421875 
Q 19.53125 -1.421875 13.0625 8.265625 
Q 6.59375 17.96875 6.59375 36.375 
Q 6.59375 54.828125 13.0625 64.515625 
Q 19.53125 74.21875 31.78125 74.21875 
z
" id="DejaVuSans-48"/>
      </defs>
      <g transform="translate(43.157727 291.410437)scale(0.1 -0.1)">
       <use xlink:href="#DejaVuSans-51"/>
       <use x="63.623047" xlink:href="#DejaVuSans-48"/>
      </g>
     </g>
    </g>
    <g id="xtick_2">
     <g id="line2d_2">
      <g>
       <use style="stroke:#000000;stroke-width:0.8;" x="121.675459" xlink:href="#m08510a1269" y="276.812"/>
      </g>
     </g>
     <g id="text_2">
      <!-- 40 -->
      <defs>
       <path d="M 37.796875 64.3125 
L 12.890625 25.390625 
L 37.796875 25.390625 
z
M 35.203125 72.90625 
L 47.609375 72.90625 
L 47.609375 25.390625 
L 58.015625 25.390625 
L 58.015625 17.1875 
L 47.609375 17.1875 
L 47.609375 0 
L 37.796875 0 
L 37.796875 17.1875 
L 4.890625 17.1875 
L 4.890625 26.703125 
z
" id="DejaVuSans-52"/>
      </defs>
      <g transform="translate(115.312959 291.410437)scale(0.1 -0.1)">
       <use xlink:href="#DejaVuSans-52"/>
       <use x="63.623047" xlink:href="#DejaVuSans-48"/>
      </g>
     </g>
    </g>
    <g id="xtick_3">
     <g id="line2d_3">
      <g>
       <use style="stroke:#000000;stroke-width:0.8;" x="193.83069" xlink:href="#m08510a1269" y="276.812"/>
      </g>
     </g>
     <g id="text_3">
      <!-- 50 -->
      <defs>
       <path d="M 10.796875 72.90625 
L 49.515625 72.90625 
L 49.515625 64.59375 
L 19.828125 64.59375 
L 19.828125 46.734375 
Q 21.96875 47.46875 24.109375 47.828125 
Q 26.265625 48.1875 28.421875 48.1875 
Q 40.625 48.1875 47.75 41.5 
Q 54.890625 34.8125 54.890625 23.390625 
Q 54.890625 11.625 47.5625 5.09375 
Q 40.234375 -1.421875 26.90625 -1.421875 
Q 22.3125 -1.421875 17.546875 -0.640625 
Q 12.796875 0.140625 7.71875 1.703125 
L 7.71875 11.625 
Q 12.109375 9.234375 16.796875 8.0625 
Q 21.484375 6.890625 26.703125 6.890625 
Q 35.15625 6.890625 40.078125 11.328125 
Q 45.015625 15.765625 45.015625 23.390625 
Q 45.015625 31 40.078125 35.4375 
Q 35.15625 39.890625 26.703125 39.890625 
Q 22.75 39.890625 18.8125 39.015625 
Q 14.890625 38.140625 10.796875 36.28125 
z
" id="DejaVuSans-53"/>
      </defs>
      <g transform="translate(187.46819 291.410437)scale(0.1 -0.1)">
       <use xlink:href="#DejaVuSans-53"/>
       <use x="63.623047" xlink:href="#DejaVuSans-48"/>
      </g>
     </g>
    </g>
    <g id="xtick_4">
     <g id="line2d_4">
      <g>
       <use style="stroke:#000000;stroke-width:0.8;" x="265.985922" xlink:href="#m08510a1269" y="276.812"/>
      </g>
     </g>
     <g id="text_4">
      <!-- 60 -->
      <defs>
       <path d="M 33.015625 40.375 
Q 26.375 40.375 22.484375 35.828125 
Q 18.609375 31.296875 18.609375 23.390625 
Q 18.609375 15.53125 22.484375 10.953125 
Q 26.375 6.390625 33.015625 6.390625 
Q 39.65625 6.390625 43.53125 10.953125 
Q 47.40625 15.53125 47.40625 23.390625 
Q 47.40625 31.296875 43.53125 35.828125 
Q 39.65625 40.375 33.015625 40.375 
z
M 52.59375 71.296875 
L 52.59375 62.3125 
Q 48.875 64.0625 45.09375 64.984375 
Q 41.3125 65.921875 37.59375 65.921875 
Q 27.828125 65.921875 22.671875 59.328125 
Q 17.53125 52.734375 16.796875 39.40625 
Q 19.671875 43.65625 24.015625 45.921875 
Q 28.375 48.1875 33.59375 48.1875 
Q 44.578125 48.1875 50.953125 41.515625 
Q 57.328125 34.859375 57.328125 23.390625 
Q 57.328125 12.15625 50.6875 5.359375 
Q 44.046875 -1.421875 33.015625 -1.421875 
Q 20.359375 -1.421875 13.671875 8.265625 
Q 6.984375 17.96875 6.984375 36.375 
Q 6.984375 53.65625 15.1875 63.9375 
Q 23.390625 74.21875 37.203125 74.21875 
Q 40.921875 74.21875 44.703125 73.484375 
Q 48.484375 72.75 52.59375 71.296875 
z
" id="DejaVuSans-54"/>
      </defs>
      <g transform="translate(259.623422 291.410437)scale(0.1 -0.1)">
       <use xlink:href="#DejaVuSans-54"/>
       <use x="63.623047" xlink:href="#DejaVuSans-48"/>
      </g>
     </g>
    </g>
    <g id="xtick_5">
     <g id="line2d_5">
      <g>
       <use style="stroke:#000000;stroke-width:0.8;" x="338.141153" xlink:href="#m08510a1269" y="276.812"/>
      </g>
     </g>
     <g id="text_5">
      <!-- 70 -->
      <defs>
       <path d="M 8.203125 72.90625 
L 55.078125 72.90625 
L 55.078125 68.703125 
L 28.609375 0 
L 18.3125 0 
L 43.21875 64.59375 
L 8.203125 64.59375 
z
" id="DejaVuSans-55"/>
      </defs>
      <g transform="translate(331.778653 291.410437)scale(0.1 -0.1)">
       <use xlink:href="#DejaVuSans-55"/>
       <use x="63.623047" xlink:href="#DejaVuSans-48"/>
      </g>
     </g>
    </g>
    <g id="text_6">
     <!-- +1.5961751e9 -->
     <defs>
      <path d="M 46 62.703125 
L 46 35.5 
L 73.1875 35.5 
L 73.1875 27.203125 
L 46 27.203125 
L 46 0 
L 37.796875 0 
L 37.796875 27.203125 
L 10.59375 27.203125 
L 10.59375 35.5 
L 37.796875 35.5 
L 37.796875 62.703125 
z
" id="DejaVuSans-43"/>
      <path d="M 12.40625 8.296875 
L 28.515625 8.296875 
L 28.515625 63.921875 
L 10.984375 60.40625 
L 10.984375 69.390625 
L 28.421875 72.90625 
L 38.28125 72.90625 
L 38.28125 8.296875 
L 54.390625 8.296875 
L 54.390625 0 
L 12.40625 0 
z
" id="DejaVuSans-49"/>
      <path d="M 10.6875 12.40625 
L 21 12.40625 
L 21 0 
L 10.6875 0 
z
" id="DejaVuSans-46"/>
      <path d="M 10.984375 1.515625 
L 10.984375 10.5 
Q 14.703125 8.734375 18.5 7.8125 
Q 22.3125 6.890625 25.984375 6.890625 
Q 35.75 6.890625 40.890625 13.453125 
Q 46.046875 20.015625 46.78125 33.40625 
Q 43.953125 29.203125 39.59375 26.953125 
Q 35.25 24.703125 29.984375 24.703125 
Q 19.046875 24.703125 12.671875 31.3125 
Q 6.296875 37.9375 6.296875 49.421875 
Q 6.296875 60.640625 12.9375 67.421875 
Q 19.578125 74.21875 30.609375 74.21875 
Q 43.265625 74.21875 49.921875 64.515625 
Q 56.59375 54.828125 56.59375 36.375 
Q 56.59375 19.140625 48.40625 8.859375 
Q 40.234375 -1.421875 26.421875 -1.421875 
Q 22.703125 -1.421875 18.890625 -0.6875 
Q 15.09375 0.046875 10.984375 1.515625 
z
M 30.609375 32.421875 
Q 37.25 32.421875 41.125 36.953125 
Q 45.015625 41.5 45.015625 49.421875 
Q 45.015625 57.28125 41.125 61.84375 
Q 37.25 66.40625 30.609375 66.40625 
Q 23.96875 66.40625 20.09375 61.84375 
Q 16.21875 57.28125 16.21875 49.421875 
Q 16.21875 41.5 20.09375 36.953125 
Q 23.96875 32.421875 30.609375 32.421875 
z
" id="DejaVuSans-57"/>
      <path d="M 56.203125 29.59375 
L 56.203125 25.203125 
L 14.890625 25.203125 
Q 15.484375 15.921875 20.484375 11.0625 
Q 25.484375 6.203125 34.421875 6.203125 
Q 39.59375 6.203125 44.453125 7.46875 
Q 49.3125 8.734375 54.109375 11.28125 
L 54.109375 2.78125 
Q 49.265625 0.734375 44.1875 -0.34375 
Q 39.109375 -1.421875 33.890625 -1.421875 
Q 20.796875 -1.421875 13.15625 6.1875 
Q 5.515625 13.8125 5.515625 26.8125 
Q 5.515625 40.234375 12.765625 48.109375 
Q 20.015625 56 32.328125 56 
Q 43.359375 56 49.78125 48.890625 
Q 56.203125 41.796875 56.203125 29.59375 
z
M 47.21875 32.234375 
Q 47.125 39.59375 43.09375 43.984375 
Q 39.0625 48.390625 32.421875 48.390625 
Q 24.90625 48.390625 20.390625 44.140625 
Q 15.875 39.890625 15.1875 32.171875 
z
" id="DejaVuSans-101"/>
     </defs>
     <g transform="translate(315.434063 304.088562)scale(0.1 -0.1)">
      <use xlink:href="#DejaVuSans-43"/>
      <use x="83.789062" xlink:href="#DejaVuSans-49"/>
      <use x="147.412109" xlink:href="#DejaVuSans-46"/>
      <use x="179.199219" xlink:href="#DejaVuSans-53"/>
      <use x="242.822266" xlink:href="#DejaVuSans-57"/>
      <use x="306.445312" xlink:href="#DejaVuSans-54"/>
      <use x="370.068359" xlink:href="#DejaVuSans-49"/>
      <use x="433.691406" xlink:href="#DejaVuSans-55"/>
      <use x="497.314453" xlink:href="#DejaVuSans-53"/>
      <use x="560.9375" xlink:href="#DejaVuSans-49"/>
      <use x="624.560547" xlink:href="#DejaVuSans-101"/>
      <use x="686.083984" xlink:href="#DejaVuSans-57"/>
     </g>
    </g>
   </g>
   <g id="matplotlib.axis_2">
    <g id="ytick_1">
     <g id="line2d_6">
      <defs>
       <path d="M 0 0 
L -3.5 0 
" id="me8c9966321" style="stroke:#000000;stroke-width:0.8;"/>
      </defs>
      <g>
       <use style="stroke:#000000;stroke-width:0.8;" x="33.2875" xlink:href="#me8c9966321" y="264.716"/>
      </g>
     </g>
     <g id="text_7">
      <!-- 0 -->
      <g transform="translate(19.925 268.515219)scale(0.1 -0.1)">
       <use xlink:href="#DejaVuSans-48"/>
      </g>
     </g>
    </g>
    <g id="ytick_2">
     <g id="line2d_7">
      <g>
       <use style="stroke:#000000;stroke-width:0.8;" x="33.2875" xlink:href="#me8c9966321" y="231.116"/>
      </g>
     </g>
     <g id="text_8">
      <!-- 50 -->
      <g transform="translate(13.5625 234.915219)scale(0.1 -0.1)">
       <use xlink:href="#DejaVuSans-53"/>
       <use x="63.623047" xlink:href="#DejaVuSans-48"/>
      </g>
     </g>
    </g>
    <g id="ytick_3">
     <g id="line2d_8">
      <g>
       <use style="stroke:#000000;stroke-width:0.8;" x="33.2875" xlink:href="#me8c9966321" y="197.516"/>
      </g>
     </g>
     <g id="text_9">
      <!-- 100 -->
      <g transform="translate(7.2 201.315219)scale(0.1 -0.1)">
       <use xlink:href="#DejaVuSans-49"/>
       <use x="63.623047" xlink:href="#DejaVuSans-48"/>
       <use x="127.246094" xlink:href="#DejaVuSans-48"/>
      </g>
     </g>
    </g>
    <g id="ytick_4">
     <g id="line2d_9">
      <g>
       <use style="stroke:#000000;stroke-width:0.8;" x="33.2875" xlink:href="#me8c9966321" y="163.916"/>
      </g>
     </g>
     <g id="text_10">
      <!-- 150 -->
      <g transform="translate(7.2 167.715219)scale(0.1 -0.1)">
       <use xlink:href="#DejaVuSans-49"/>
       <use x="63.623047" xlink:href="#DejaVuSans-53"/>
       <use x="127.246094" xlink:href="#DejaVuSans-48"/>
      </g>
     </g>
    </g>
    <g id="ytick_5">
     <g id="line2d_10">
      <g>
       <use style="stroke:#000000;stroke-width:0.8;" x="33.2875" xlink:href="#me8c9966321" y="130.316"/>
      </g>
     </g>
     <g id="text_11">
      <!-- 200 -->
      <defs>
       <path d="M 19.1875 8.296875 
L 53.609375 8.296875 
L 53.609375 0 
L 7.328125 0 
L 7.328125 8.296875 
Q 12.9375 14.109375 22.625 23.890625 
Q 32.328125 33.6875 34.8125 36.53125 
Q 39.546875 41.84375 41.421875 45.53125 
Q 43.3125 49.21875 43.3125 52.78125 
Q 43.3125 58.59375 39.234375 62.25 
Q 35.15625 65.921875 28.609375 65.921875 
Q 23.96875 65.921875 18.8125 64.3125 
Q 13.671875 62.703125 7.8125 59.421875 
L 7.8125 69.390625 
Q 13.765625 71.78125 18.9375 73 
Q 24.125 74.21875 28.421875 74.21875 
Q 39.75 74.21875 46.484375 68.546875 
Q 53.21875 62.890625 53.21875 53.421875 
Q 53.21875 48.921875 51.53125 44.890625 
Q 49.859375 40.875 45.40625 35.40625 
Q 44.1875 33.984375 37.640625 27.21875 
Q 31.109375 20.453125 19.1875 8.296875 
z
" id="DejaVuSans-50"/>
      </defs>
      <g transform="translate(7.2 134.115219)scale(0.1 -0.1)">
       <use xlink:href="#DejaVuSans-50"/>
       <use x="63.623047" xlink:href="#DejaVuSans-48"/>
       <use x="127.246094" xlink:href="#DejaVuSans-48"/>
      </g>
     </g>
    </g>
    <g id="ytick_6">
     <g id="line2d_11">
      <g>
       <use style="stroke:#000000;stroke-width:0.8;" x="33.2875" xlink:href="#me8c9966321" y="96.716"/>
      </g>
     </g>
     <g id="text_12">
      <!-- 250 -->
      <g transform="translate(7.2 100.515219)scale(0.1 -0.1)">
       <use xlink:href="#DejaVuSans-50"/>
       <use x="63.623047" xlink:href="#DejaVuSans-53"/>
       <use x="127.246094" xlink:href="#DejaVuSans-48"/>
      </g>
     </g>
    </g>
    <g id="ytick_7">
     <g id="line2d_12">
      <g>
       <use style="stroke:#000000;stroke-width:0.8;" x="33.2875" xlink:href="#me8c9966321" y="63.116"/>
      </g>
     </g>
     <g id="text_13">
      <!-- 300 -->
      <g transform="translate(7.2 66.915219)scale(0.1 -0.1)">
       <use xlink:href="#DejaVuSans-51"/>
       <use x="63.623047" xlink:href="#DejaVuSans-48"/>
       <use x="127.246094" xlink:href="#DejaVuSans-48"/>
      </g>
     </g>
    </g>
    <g id="ytick_8">
     <g id="line2d_13">
      <g>
       <use style="stroke:#000000;stroke-width:0.8;" x="33.2875" xlink:href="#me8c9966321" y="29.516"/>
      </g>
     </g>
     <g id="text_14">
      <!-- 350 -->
      <g transform="translate(7.2 33.315219)scale(0.1 -0.1)">
       <use xlink:href="#DejaVuSans-51"/>
       <use x="63.623047" xlink:href="#DejaVuSans-53"/>
       <use x="127.246094" xlink:href="#DejaVuSans-48"/>
      </g>
     </g>
    </g>
   </g>
   <g id="line2d_14">
    <path clip-path="url(#p8a2ee52dbc)" d="M 60.343693 22.796 
" style="fill:none;stroke:#1f77b4;stroke-linecap:square;stroke-width:1.5;"/>
    <defs>
     <path d="M 0 3 
C 0.795609 3 1.55874 2.683901 2.12132 2.12132 
C 2.683901 1.55874 3 0.795609 3 0 
C 3 -0.795609 2.683901 -1.55874 2.12132 -2.12132 
C 1.55874 -2.683901 0.795609 -3 0 -3 
C -0.795609 -3 -1.55874 -2.683901 -2.12132 -2.12132 
C -2.683901 -1.55874 -3 -0.795609 -3 0 
C -3 0.795609 -2.683901 1.55874 -2.12132 2.12132 
C -1.55874 2.683901 -0.795609 3 0 3 
z
" id="m5231783b31" style="stroke:#1f77b4;"/>
    </defs>
    <g clip-path="url(#p8a2ee52dbc)">
     <use style="fill:#1f77b4;stroke:#1f77b4;" x="60.343693" xlink:href="#m5231783b31" y="22.796"/>
    </g>
   </g>
   <g id="line2d_15">
    <path clip-path="url(#p8a2ee52dbc)" d="M 74.647493 22.796 
" style="fill:none;stroke:#ff7f0e;stroke-linecap:square;stroke-width:1.5;"/>
    <defs>
     <path d="M 0 3 
C 0.795609 3 1.55874 2.683901 2.12132 2.12132 
C 2.683901 1.55874 3 0.795609 3 0 
C 3 -0.795609 2.683901 -1.55874 2.12132 -2.12132 
C 1.55874 -2.683901 0.795609 -3 0 -3 
C -0.795609 -3 -1.55874 -2.683901 -2.12132 -2.12132 
C -2.683901 -1.55874 -3 -0.795609 -3 0 
C -3 0.795609 -2.683901 1.55874 -2.12132 2.12132 
C -1.55874 2.683901 -0.795609 3 0 3 
z
" id="mda48a715fb" style="stroke:#ff7f0e;"/>
    </defs>
    <g clip-path="url(#p8a2ee52dbc)">
     <use style="fill:#ff7f0e;stroke:#ff7f0e;" x="74.647493" xlink:href="#mda48a715fb" y="22.796"/>
    </g>
   </g>
   <g id="line2d_16">
    <path clip-path="url(#p8a2ee52dbc)" d="M 88.949966 22.796 
" style="fill:none;stroke:#2ca02c;stroke-linecap:square;stroke-width:1.5;"/>
    <defs>
     <path d="M 0 3 
C 0.795609 3 1.55874 2.683901 2.12132 2.12132 
C 2.683901 1.55874 3 0.795609 3 0 
C 3 -0.795609 2.683901 -1.55874 2.12132 -2.12132 
C 1.55874 -2.683901 0.795609 -3 0 -3 
C -0.795609 -3 -1.55874 -2.683901 -2.12132 -2.12132 
C -2.683901 -1.55874 -3 -0.795609 -3 0 
C -3 0.795609 -2.683901 1.55874 -2.12132 2.12132 
C -1.55874 2.683901 -0.795609 3 0 3 
z
" id="mdc13cae327" style="stroke:#2ca02c;"/>
    </defs>
    <g clip-path="url(#p8a2ee52dbc)">
     <use style="fill:#2ca02c;stroke:#2ca02c;" x="88.949966" xlink:href="#mdc13cae327" y="22.796"/>
    </g>
   </g>
   <g id="line2d_17">
    <path clip-path="url(#p8a2ee52dbc)" d="M 103.251629 22.796 
" style="fill:none;stroke:#d62728;stroke-linecap:square;stroke-width:1.5;"/>
    <defs>
     <path d="M 0 3 
C 0.795609 3 1.55874 2.683901 2.12132 2.12132 
C 2.683901 1.55874 3 0.795609 3 0 
C 3 -0.795609 2.683901 -1.55874 2.12132 -2.12132 
C 1.55874 -2.683901 0.795609 -3 0 -3 
C -0.795609 -3 -1.55874 -2.683901 -2.12132 -2.12132 
C -2.683901 -1.55874 -3 -0.795609 -3 0 
C -3 0.795609 -2.683901 1.55874 -2.12132 2.12132 
C -1.55874 2.683901 -0.795609 3 0 3 
z
" id="m2c38245481" style="stroke:#d62728;"/>
    </defs>
    <g clip-path="url(#p8a2ee52dbc)">
     <use style="fill:#d62728;stroke:#d62728;" x="103.251629" xlink:href="#m2c38245481" y="22.796"/>
    </g>
   </g>
   <g id="line2d_18">
    <path clip-path="url(#p8a2ee52dbc)" d="M 117.552313 22.796 
" style="fill:none;stroke:#9467bd;stroke-linecap:square;stroke-width:1.5;"/>
    <defs>
     <path d="M 0 3 
C 0.795609 3 1.55874 2.683901 2.12132 2.12132 
C 2.683901 1.55874 3 0.795609 3 0 
C 3 -0.795609 2.683901 -1.55874 2.12132 -2.12132 
C 1.55874 -2.683901 0.795609 -3 0 -3 
C -0.795609 -3 -1.55874 -2.683901 -2.12132 -2.12132 
C -2.683901 -1.55874 -3 -0.795609 -3 0 
C -3 0.795609 -2.683901 1.55874 -2.12132 2.12132 
C -1.55874 2.683901 -0.795609 3 0 3 
z
" id="m2504a59f86" style="stroke:#9467bd;"/>
    </defs>
    <g clip-path="url(#p8a2ee52dbc)">
     <use style="fill:#9467bd;stroke:#9467bd;" x="117.552313" xlink:href="#m2504a59f86" y="22.796"/>
    </g>
   </g>
   <g id="line2d_19">
    <path clip-path="url(#p8a2ee52dbc)" d="M 131.851982 22.796 
" style="fill:none;stroke:#8c564b;stroke-linecap:square;stroke-width:1.5;"/>
    <defs>
     <path d="M 0 3 
C 0.795609 3 1.55874 2.683901 2.12132 2.12132 
C 2.683901 1.55874 3 0.795609 3 0 
C 3 -0.795609 2.683901 -1.55874 2.12132 -2.12132 
C 1.55874 -2.683901 0.795609 -3 0 -3 
C -0.795609 -3 -1.55874 -2.683901 -2.12132 -2.12132 
C -2.683901 -1.55874 -3 -0.795609 -3 0 
C -3 0.795609 -2.683901 1.55874 -2.12132 2.12132 
C -1.55874 2.683901 -0.795609 3 0 3 
z
" id="m5486c2393f" style="stroke:#8c564b;"/>
    </defs>
    <g clip-path="url(#p8a2ee52dbc)">
     <use style="fill:#8c564b;stroke:#8c564b;" x="131.851982" xlink:href="#m5486c2393f" y="22.796"/>
    </g>
   </g>
   <g id="line2d_20">
    <path clip-path="url(#p8a2ee52dbc)" d="M 146.15069 22.796 
" style="fill:none;stroke:#e377c2;stroke-linecap:square;stroke-width:1.5;"/>
    <defs>
     <path d="M 0 3 
C 0.795609 3 1.55874 2.683901 2.12132 2.12132 
C 2.683901 1.55874 3 0.795609 3 0 
C 3 -0.795609 2.683901 -1.55874 2.12132 -2.12132 
C 1.55874 -2.683901 0.795609 -3 0 -3 
C -0.795609 -3 -1.55874 -2.683901 -2.12132 -2.12132 
C -2.683901 -1.55874 -3 -0.795609 -3 0 
C -3 0.795609 -2.683901 1.55874 -2.12132 2.12132 
C -1.55874 2.683901 -0.795609 3 0 3 
z
" id="m6af7f80410" style="stroke:#e377c2;"/>
    </defs>
    <g clip-path="url(#p8a2ee52dbc)">
     <use style="fill:#e377c2;stroke:#e377c2;" x="146.15069" xlink:href="#m6af7f80410" y="22.796"/>
    </g>
   </g>
   <g id="line2d_21">
    <path clip-path="url(#p8a2ee52dbc)" d="M 160.381153 22.796 
" style="fill:none;stroke:#7f7f7f;stroke-linecap:square;stroke-width:1.5;"/>
    <defs>
     <path d="M 0 3 
C 0.795609 3 1.55874 2.683901 2.12132 2.12132 
C 2.683901 1.55874 3 0.795609 3 0 
C 3 -0.795609 2.683901 -1.55874 2.12132 -2.12132 
C 1.55874 -2.683901 0.795609 -3 0 -3 
C -0.795609 -3 -1.55874 -2.683901 -2.12132 -2.12132 
C -2.683901 -1.55874 -3 -0.795609 -3 0 
C -3 0.795609 -2.683901 1.55874 -2.12132 2.12132 
C -1.55874 2.683901 -0.795609 3 0 3 
z
" id="m5e58c26a9e" style="stroke:#7f7f7f;"/>
    </defs>
    <g clip-path="url(#p8a2ee52dbc)">
     <use style="fill:#7f7f7f;stroke:#7f7f7f;" x="160.381153" xlink:href="#m5e58c26a9e" y="22.796"/>
    </g>
   </g>
   <g id="line2d_22">
    <path clip-path="url(#p8a2ee52dbc)" d="M 174.67646 22.796 
" style="fill:none;stroke:#bcbd22;stroke-linecap:square;stroke-width:1.5;"/>
    <defs>
     <path d="M 0 3 
C 0.795609 3 1.55874 2.683901 2.12132 2.12132 
C 2.683901 1.55874 3 0.795609 3 0 
C 3 -0.795609 2.683901 -1.55874 2.12132 -2.12132 
C 1.55874 -2.683901 0.795609 -3 0 -3 
C -0.795609 -3 -1.55874 -2.683901 -2.12132 -2.12132 
C -2.683901 -1.55874 -3 -0.795609 -3 0 
C -3 0.795609 -2.683901 1.55874 -2.12132 2.12132 
C -1.55874 2.683901 -0.795609 3 0 3 
z
" id="mca83fd75be" style="stroke:#bcbd22;"/>
    </defs>
    <g clip-path="url(#p8a2ee52dbc)">
     <use style="fill:#bcbd22;stroke:#bcbd22;" x="174.67646" xlink:href="#mca83fd75be" y="22.796"/>
    </g>
   </g>
   <g id="line2d_23">
    <path clip-path="url(#p8a2ee52dbc)" d="M 188.970621 22.796 
" style="fill:none;stroke:#17becf;stroke-linecap:square;stroke-width:1.5;"/>
    <defs>
     <path d="M 0 3 
C 0.795609 3 1.55874 2.683901 2.12132 2.12132 
C 2.683901 1.55874 3 0.795609 3 0 
C 3 -0.795609 2.683901 -1.55874 2.12132 -2.12132 
C 1.55874 -2.683901 0.795609 -3 0 -3 
C -0.795609 -3 -1.55874 -2.683901 -2.12132 -2.12132 
C -2.683901 -1.55874 -3 -0.795609 -3 0 
C -3 0.795609 -2.683901 1.55874 -2.12132 2.12132 
C -1.55874 2.683901 -0.795609 3 0 3 
z
" id="m98795fc75b" style="stroke:#17becf;"/>
    </defs>
    <g clip-path="url(#p8a2ee52dbc)">
     <use style="fill:#17becf;stroke:#17becf;" x="188.970621" xlink:href="#m98795fc75b" y="22.796"/>
    </g>
   </g>
   <g id="line2d_24">
    <path clip-path="url(#p8a2ee52dbc)" d="M 203.261669 22.796 
" style="fill:none;stroke:#1f77b4;stroke-linecap:square;stroke-width:1.5;"/>
    <g clip-path="url(#p8a2ee52dbc)">
     <use style="fill:#1f77b4;stroke:#1f77b4;" x="203.261669" xlink:href="#m5231783b31" y="22.796"/>
    </g>
   </g>
   <g id="line2d_25">
    <path clip-path="url(#p8a2ee52dbc)" d="M 217.553362 22.796 
" style="fill:none;stroke:#ff7f0e;stroke-linecap:square;stroke-width:1.5;"/>
    <g clip-path="url(#p8a2ee52dbc)">
     <use style="fill:#ff7f0e;stroke:#ff7f0e;" x="217.553362" xlink:href="#mda48a715fb" y="22.796"/>
    </g>
   </g>
   <g id="line2d_26">
    <path clip-path="url(#p8a2ee52dbc)" d="M 231.842863 22.796 
" style="fill:none;stroke:#2ca02c;stroke-linecap:square;stroke-width:1.5;"/>
    <g clip-path="url(#p8a2ee52dbc)">
     <use style="fill:#2ca02c;stroke:#2ca02c;" x="231.842863" xlink:href="#mdc13cae327" y="22.796"/>
    </g>
   </g>
   <g id="line2d_27">
    <path clip-path="url(#p8a2ee52dbc)" d="M 246.131987 22.796 
" style="fill:none;stroke:#d62728;stroke-linecap:square;stroke-width:1.5;"/>
    <g clip-path="url(#p8a2ee52dbc)">
     <use style="fill:#d62728;stroke:#d62728;" x="246.131987" xlink:href="#m2c38245481" y="22.796"/>
    </g>
   </g>
   <g id="line2d_28">
    <path clip-path="url(#p8a2ee52dbc)" d="M 260.41972 22.796 
" style="fill:none;stroke:#9467bd;stroke-linecap:square;stroke-width:1.5;"/>
    <g clip-path="url(#p8a2ee52dbc)">
     <use style="fill:#9467bd;stroke:#9467bd;" x="260.41972" xlink:href="#m2504a59f86" y="22.796"/>
    </g>
   </g>
   <g id="line2d_29">
    <path clip-path="url(#p8a2ee52dbc)" d="M 274.633696 22.796 
" style="fill:none;stroke:#8c564b;stroke-linecap:square;stroke-width:1.5;"/>
    <g clip-path="url(#p8a2ee52dbc)">
     <use style="fill:#8c564b;stroke:#8c564b;" x="274.633696" xlink:href="#m5486c2393f" y="22.796"/>
    </g>
   </g>
   <g id="line2d_30">
    <path clip-path="url(#p8a2ee52dbc)" d="M 288.917261 22.796 
" style="fill:none;stroke:#e377c2;stroke-linecap:square;stroke-width:1.5;"/>
    <g clip-path="url(#p8a2ee52dbc)">
     <use style="fill:#e377c2;stroke:#e377c2;" x="288.917261" xlink:href="#m6af7f80410" y="22.796"/>
    </g>
   </g>
   <g id="line2d_31">
    <path clip-path="url(#p8a2ee52dbc)" d="M 303.124838 22.796 
" style="fill:none;stroke:#7f7f7f;stroke-linecap:square;stroke-width:1.5;"/>
    <g clip-path="url(#p8a2ee52dbc)">
     <use style="fill:#7f7f7f;stroke:#7f7f7f;" x="303.124838" xlink:href="#m5e58c26a9e" y="22.796"/>
    </g>
   </g>
   <g id="line2d_32">
    <path clip-path="url(#p8a2ee52dbc)" d="M 317.327866 22.796 
" style="fill:none;stroke:#bcbd22;stroke-linecap:square;stroke-width:1.5;"/>
    <g clip-path="url(#p8a2ee52dbc)">
     <use style="fill:#bcbd22;stroke:#bcbd22;" x="317.327866" xlink:href="#mca83fd75be" y="22.796"/>
    </g>
   </g>
   <g id="line2d_33">
    <path clip-path="url(#p8a2ee52dbc)" d="M 331.603949 22.796 
" style="fill:none;stroke:#17becf;stroke-linecap:square;stroke-width:1.5;"/>
    <g clip-path="url(#p8a2ee52dbc)">
     <use style="fill:#17becf;stroke:#17becf;" x="331.603949" xlink:href="#m98795fc75b" y="22.796"/>
    </g>
   </g>
   <g id="line2d_34">
    <path clip-path="url(#p8a2ee52dbc)" d="M 345.878391 22.796 
" style="fill:none;stroke:#1f77b4;stroke-linecap:square;stroke-width:1.5;"/>
    <g clip-path="url(#p8a2ee52dbc)">
     <use style="fill:#1f77b4;stroke:#1f77b4;" x="345.878391" xlink:href="#m5231783b31" y="22.796"/>
    </g>
   </g>
   <g id="line2d_35">
    <path clip-path="url(#p8a2ee52dbc)" d="M 360.150934 22.796 
" style="fill:none;stroke:#ff7f0e;stroke-linecap:square;stroke-width:1.5;"/>
    <g clip-path="url(#p8a2ee52dbc)">
     <use style="fill:#ff7f0e;stroke:#ff7f0e;" x="360.150934" xlink:href="#mda48a715fb" y="22.796"/>
    </g>
   </g>
   <g id="line2d_36">
    <path clip-path="url(#p8a2ee52dbc)" d="M 49.520227 204.236 
L 60.343693 22.796 
L 60.343693 264.716 
L 60.415848 261.370777 
L 74.647493 22.796 
L 74.647493 264.716 
L 74.719648 261.349252 
L 88.949966 22.796 
L 88.949966 264.716 
L 89.022121 261.335627 
L 103.251629 22.796 
L 103.251629 264.716 
L 103.323784 261.318993 
L 117.552313 22.796 
L 117.552313 264.716 
L 117.624468 261.301077 
L 131.851982 22.796 
L 131.851982 264.716 
L 131.924137 261.286948 
L 146.15069 22.796 
L 146.15069 264.716 
L 146.222845 260.140914 
L 160.381153 22.796 
L 160.381153 264.716 
L 160.453308 261.228187 
L 174.67646 22.796 
L 174.67646 264.716 
L 174.748615 261.208574 
L 188.970621 22.796 
L 188.970621 264.716 
L 189.042776 261.156093 
L 203.261669 22.796 
L 203.261669 264.716 
L 203.333824 261.169105 
L 217.553362 22.796 
L 217.553362 264.716 
L 217.625517 261.130208 
L 231.842863 22.796 
L 231.842863 264.716 
L 231.915018 261.125413 
L 246.131987 22.796 
L 246.131987 264.716 
L 246.204144 261.10212 
L 260.41972 22.796 
L 260.41972 264.716 
L 260.491875 259.864303 
L 274.633696 22.796 
L 274.633696 264.716 
L 274.705851 261.031625 
L 288.917261 22.796 
L 288.917261 264.716 
L 288.989416 259.757906 
L 303.124838 22.796 
L 303.124838 264.716 
L 303.196993 259.680564 
L 317.327866 22.796 
L 317.327866 264.716 
L 317.400023 260.906041 
L 331.603949 22.796 
L 331.603949 264.716 
L 331.676104 260.879534 
L 345.878391 22.796 
L 345.878391 264.716 
L 345.950546 260.847524 
L 360.150934 22.796 
L 360.150934 264.716 
L 360.223089 259.471206 
L 374.149036 26.01935 
L 374.149036 26.01935 
" style="fill:none;stroke:#ff0000;stroke-linecap:square;stroke-width:1.5;"/>
   </g>
   <g id="line2d_37">
    <path clip-path="url(#p8a2ee52dbc)" d="M 52.166233 22.796 
" style="fill:none;stroke:#2ca02c;stroke-linecap:square;stroke-width:1.5;"/>
    <g clip-path="url(#p8a2ee52dbc)">
     <use style="fill:#2ca02c;stroke:#2ca02c;" x="52.166233" xlink:href="#mdc13cae327" y="22.796"/>
    </g>
   </g>
   <g id="line2d_38">
    <path clip-path="url(#p8a2ee52dbc)" d="M 66.453217 22.796 
" style="fill:none;stroke:#d62728;stroke-linecap:square;stroke-width:1.5;"/>
    <g clip-path="url(#p8a2ee52dbc)">
     <use style="fill:#d62728;stroke:#d62728;" x="66.453217" xlink:href="#m2c38245481" y="22.796"/>
    </g>
   </g>
   <g id="line2d_39">
    <path clip-path="url(#p8a2ee52dbc)" d="M 80.801195 22.796 
" style="fill:none;stroke:#9467bd;stroke-linecap:square;stroke-width:1.5;"/>
    <g clip-path="url(#p8a2ee52dbc)">
     <use style="fill:#9467bd;stroke:#9467bd;" x="80.801195" xlink:href="#m2504a59f86" y="22.796"/>
    </g>
   </g>
   <g id="line2d_40">
    <path clip-path="url(#p8a2ee52dbc)" d="M 95.149609 22.796 
" style="fill:none;stroke:#8c564b;stroke-linecap:square;stroke-width:1.5;"/>
    <g clip-path="url(#p8a2ee52dbc)">
     <use style="fill:#8c564b;stroke:#8c564b;" x="95.149609" xlink:href="#m5486c2393f" y="22.796"/>
    </g>
   </g>
   <g id="line2d_41">
    <path clip-path="url(#p8a2ee52dbc)" d="M 109.498516 22.796 
" style="fill:none;stroke:#e377c2;stroke-linecap:square;stroke-width:1.5;"/>
    <g clip-path="url(#p8a2ee52dbc)">
     <use style="fill:#e377c2;stroke:#e377c2;" x="109.498516" xlink:href="#m6af7f80410" y="22.796"/>
    </g>
   </g>
   <g id="line2d_42">
    <path clip-path="url(#p8a2ee52dbc)" d="M 123.847857 22.796 
" style="fill:none;stroke:#7f7f7f;stroke-linecap:square;stroke-width:1.5;"/>
    <g clip-path="url(#p8a2ee52dbc)">
     <use style="fill:#7f7f7f;stroke:#7f7f7f;" x="123.847857" xlink:href="#m5e58c26a9e" y="22.796"/>
    </g>
   </g>
   <g id="line2d_43">
    <path clip-path="url(#p8a2ee52dbc)" d="M 138.197613 22.796 
" style="fill:none;stroke:#bcbd22;stroke-linecap:square;stroke-width:1.5;"/>
    <g clip-path="url(#p8a2ee52dbc)">
     <use style="fill:#bcbd22;stroke:#bcbd22;" x="138.197613" xlink:href="#mca83fd75be" y="22.796"/>
    </g>
   </g>
   <g id="line2d_44">
    <path clip-path="url(#p8a2ee52dbc)" d="M 152.547911 22.796 
" style="fill:none;stroke:#17becf;stroke-linecap:square;stroke-width:1.5;"/>
    <g clip-path="url(#p8a2ee52dbc)">
     <use style="fill:#17becf;stroke:#17becf;" x="152.547911" xlink:href="#m98795fc75b" y="22.796"/>
    </g>
   </g>
   <g id="line2d_45">
    <path clip-path="url(#p8a2ee52dbc)" d="M 166.898773 22.796 
" style="fill:none;stroke:#1f77b4;stroke-linecap:square;stroke-width:1.5;"/>
    <g clip-path="url(#p8a2ee52dbc)">
     <use style="fill:#1f77b4;stroke:#1f77b4;" x="166.898773" xlink:href="#m5231783b31" y="22.796"/>
    </g>
   </g>
   <g id="line2d_46">
    <path clip-path="url(#p8a2ee52dbc)" d="M 181.250824 22.796 
" style="fill:none;stroke:#ff7f0e;stroke-linecap:square;stroke-width:1.5;"/>
    <g clip-path="url(#p8a2ee52dbc)">
     <use style="fill:#ff7f0e;stroke:#ff7f0e;" x="181.250824" xlink:href="#mda48a715fb" y="22.796"/>
    </g>
   </g>
   <g id="line2d_47">
    <path clip-path="url(#p8a2ee52dbc)" d="M 195.603493 22.796 
" style="fill:none;stroke:#2ca02c;stroke-linecap:square;stroke-width:1.5;"/>
    <g clip-path="url(#p8a2ee52dbc)">
     <use style="fill:#2ca02c;stroke:#2ca02c;" x="195.603493" xlink:href="#mdc13cae327" y="22.796"/>
    </g>
   </g>
   <g id="line2d_48">
    <path clip-path="url(#p8a2ee52dbc)" d="M 209.956711 22.796 
" style="fill:none;stroke:#d62728;stroke-linecap:square;stroke-width:1.5;"/>
    <g clip-path="url(#p8a2ee52dbc)">
     <use style="fill:#d62728;stroke:#d62728;" x="209.956711" xlink:href="#m2c38245481" y="22.796"/>
    </g>
   </g>
   <g id="line2d_49">
    <path clip-path="url(#p8a2ee52dbc)" d="M 224.310551 22.796 
" style="fill:none;stroke:#9467bd;stroke-linecap:square;stroke-width:1.5;"/>
    <g clip-path="url(#p8a2ee52dbc)">
     <use style="fill:#9467bd;stroke:#9467bd;" x="224.310551" xlink:href="#m2504a59f86" y="22.796"/>
    </g>
   </g>
   <g id="line2d_50">
    <path clip-path="url(#p8a2ee52dbc)" d="M 238.664986 22.796 
" style="fill:none;stroke:#8c564b;stroke-linecap:square;stroke-width:1.5;"/>
    <g clip-path="url(#p8a2ee52dbc)">
     <use style="fill:#8c564b;stroke:#8c564b;" x="238.664986" xlink:href="#m5486c2393f" y="22.796"/>
    </g>
   </g>
   <g id="line2d_51">
    <path clip-path="url(#p8a2ee52dbc)" d="M 253.020086 22.796 
" style="fill:none;stroke:#e377c2;stroke-linecap:square;stroke-width:1.5;"/>
    <g clip-path="url(#p8a2ee52dbc)">
     <use style="fill:#e377c2;stroke:#e377c2;" x="253.020086" xlink:href="#m6af7f80410" y="22.796"/>
    </g>
   </g>
   <g id="line2d_52">
    <path clip-path="url(#p8a2ee52dbc)" d="M 267.375872 22.796 
" style="fill:none;stroke:#7f7f7f;stroke-linecap:square;stroke-width:1.5;"/>
    <g clip-path="url(#p8a2ee52dbc)">
     <use style="fill:#7f7f7f;stroke:#7f7f7f;" x="267.375872" xlink:href="#m5e58c26a9e" y="22.796"/>
    </g>
   </g>
   <g id="line2d_53">
    <path clip-path="url(#p8a2ee52dbc)" d="M 281.732367 22.796 
" style="fill:none;stroke:#bcbd22;stroke-linecap:square;stroke-width:1.5;"/>
    <g clip-path="url(#p8a2ee52dbc)">
     <use style="fill:#bcbd22;stroke:#bcbd22;" x="281.732367" xlink:href="#mca83fd75be" y="22.796"/>
    </g>
   </g>
   <g id="line2d_54">
    <path clip-path="url(#p8a2ee52dbc)" d="M 296.09034 22.796 
" style="fill:none;stroke:#17becf;stroke-linecap:square;stroke-width:1.5;"/>
    <g clip-path="url(#p8a2ee52dbc)">
     <use style="fill:#17becf;stroke:#17becf;" x="296.09034" xlink:href="#m98795fc75b" y="22.796"/>
    </g>
   </g>
   <g id="line2d_55">
    <path clip-path="url(#p8a2ee52dbc)" d="M 310.449049 22.796 
" style="fill:none;stroke:#1f77b4;stroke-linecap:square;stroke-width:1.5;"/>
    <g clip-path="url(#p8a2ee52dbc)">
     <use style="fill:#1f77b4;stroke:#1f77b4;" x="310.449049" xlink:href="#m5231783b31" y="22.796"/>
    </g>
   </g>
   <g id="line2d_56">
    <path clip-path="url(#p8a2ee52dbc)" d="M 324.809296 22.796 
" style="fill:none;stroke:#ff7f0e;stroke-linecap:square;stroke-width:1.5;"/>
    <g clip-path="url(#p8a2ee52dbc)">
     <use style="fill:#ff7f0e;stroke:#ff7f0e;" x="324.809296" xlink:href="#mda48a715fb" y="22.796"/>
    </g>
   </g>
   <g id="line2d_57">
    <path clip-path="url(#p8a2ee52dbc)" d="M 339.171061 22.796 
" style="fill:none;stroke:#2ca02c;stroke-linecap:square;stroke-width:1.5;"/>
    <g clip-path="url(#p8a2ee52dbc)">
     <use style="fill:#2ca02c;stroke:#2ca02c;" x="339.171061" xlink:href="#mdc13cae327" y="22.796"/>
    </g>
   </g>
   <g id="line2d_58">
    <path clip-path="url(#p8a2ee52dbc)" d="M 353.533758 22.796 
" style="fill:none;stroke:#d62728;stroke-linecap:square;stroke-width:1.5;"/>
    <g clip-path="url(#p8a2ee52dbc)">
     <use style="fill:#d62728;stroke:#d62728;" x="353.533758" xlink:href="#m2c38245481" y="22.796"/>
    </g>
   </g>
   <g id="line2d_59">
    <path clip-path="url(#p8a2ee52dbc)" d="M 367.897274 22.796 
" style="fill:none;stroke:#9467bd;stroke-linecap:square;stroke-width:1.5;"/>
    <g clip-path="url(#p8a2ee52dbc)">
     <use style="fill:#9467bd;stroke:#9467bd;" x="367.897274" xlink:href="#m2504a59f86" y="22.796"/>
    </g>
   </g>
   <g id="line2d_60">
    <path clip-path="url(#p8a2ee52dbc)" d="M 49.520227 67.148 
L 52.166233 22.796 
L 52.166233 264.716 
L 52.238388 261.087773 
L 66.453217 22.796 
L 66.453217 264.716 
L 66.525372 262.111433 
L 80.801195 22.796 
L 80.801195 264.716 
L 80.87335 262.119022 
L 95.149609 22.796 
L 95.149609 264.716 
L 95.221764 262.126985 
L 109.498516 22.796 
L 109.498516 264.716 
L 109.570671 262.133533 
L 123.847857 22.796 
L 123.847857 264.716 
L 123.920012 262.140781 
L 138.197613 22.796 
L 138.197613 264.716 
L 138.269768 262.150703 
L 152.547911 22.796 
L 152.547911 264.716 
L 152.620066 262.159875 
L 166.898773 22.796 
L 166.898773 264.716 
L 166.970928 262.179732 
L 181.250824 22.796 
L 181.250824 264.716 
L 181.322979 262.190073 
L 195.603493 22.796 
L 195.603493 264.716 
L 195.67565 262.200168 
L 209.956711 22.796 
L 209.956711 264.716 
L 210.028866 262.209852 
L 224.310551 22.796 
L 224.310551 264.716 
L 224.382706 262.218955 
L 238.664986 22.796 
L 238.664986 264.716 
L 238.737141 262.230609 
L 253.020086 22.796 
L 253.020086 264.716 
L 253.092241 262.243653 
L 267.375872 22.796 
L 267.375872 264.716 
L 267.448029 262.252928 
L 281.732367 22.796 
L 281.732367 264.716 
L 281.804522 262.278336 
L 296.09034 22.796 
L 296.09034 264.716 
L 296.162495 262.291091 
L 310.449049 22.796 
L 310.449049 264.716 
L 310.521204 262.316241 
L 324.809296 22.796 
L 324.809296 264.716 
L 324.881451 262.341144 
L 339.171061 22.796 
L 339.171061 264.716 
L 339.243216 262.358295 
L 353.533758 22.796 
L 353.533758 264.716 
L 353.605913 262.372119 
L 367.897274 22.796 
L 367.897274 264.716 
L 367.969429 262.387299 
L 374.174774 158.361943 
L 374.174774 158.361943 
" style="fill:none;stroke:#0000ff;stroke-linecap:square;stroke-width:1.5;"/>
   </g>
   <g id="line2d_61">
    <path clip-path="url(#p8a2ee52dbc)" d="M 51.925701 22.796 
" style="fill:none;stroke:#8c564b;stroke-linecap:square;stroke-width:1.5;"/>
    <g clip-path="url(#p8a2ee52dbc)">
     <use style="fill:#8c564b;stroke:#8c564b;" x="51.925701" xlink:href="#m5486c2393f" y="22.796"/>
    </g>
   </g>
   <g id="line2d_62">
    <path clip-path="url(#p8a2ee52dbc)" d="M 66.356855 22.796 
" style="fill:none;stroke:#e377c2;stroke-linecap:square;stroke-width:1.5;"/>
    <g clip-path="url(#p8a2ee52dbc)">
     <use style="fill:#e377c2;stroke:#e377c2;" x="66.356855" xlink:href="#m6af7f80410" y="22.796"/>
    </g>
   </g>
   <g id="line2d_63">
    <path clip-path="url(#p8a2ee52dbc)" d="M 80.70488 22.796 
" style="fill:none;stroke:#7f7f7f;stroke-linecap:square;stroke-width:1.5;"/>
    <g clip-path="url(#p8a2ee52dbc)">
     <use style="fill:#7f7f7f;stroke:#7f7f7f;" x="80.70488" xlink:href="#m5e58c26a9e" y="22.796"/>
    </g>
   </g>
   <g id="line2d_64">
    <path clip-path="url(#p8a2ee52dbc)" d="M 95.053446 22.796 
" style="fill:none;stroke:#bcbd22;stroke-linecap:square;stroke-width:1.5;"/>
    <g clip-path="url(#p8a2ee52dbc)">
     <use style="fill:#bcbd22;stroke:#bcbd22;" x="95.053446" xlink:href="#mca83fd75be" y="22.796"/>
    </g>
   </g>
   <g id="line2d_65">
    <path clip-path="url(#p8a2ee52dbc)" d="M 109.40247 22.796 
" style="fill:none;stroke:#17becf;stroke-linecap:square;stroke-width:1.5;"/>
    <g clip-path="url(#p8a2ee52dbc)">
     <use style="fill:#17becf;stroke:#17becf;" x="109.40247" xlink:href="#m98795fc75b" y="22.796"/>
    </g>
   </g>
   <g id="line2d_66">
    <path clip-path="url(#p8a2ee52dbc)" d="M 123.751955 22.796 
" style="fill:none;stroke:#1f77b4;stroke-linecap:square;stroke-width:1.5;"/>
    <g clip-path="url(#p8a2ee52dbc)">
     <use style="fill:#1f77b4;stroke:#1f77b4;" x="123.751955" xlink:href="#m5231783b31" y="22.796"/>
    </g>
   </g>
   <g id="line2d_67">
    <path clip-path="url(#p8a2ee52dbc)" d="M 138.101933 22.796 
" style="fill:none;stroke:#ff7f0e;stroke-linecap:square;stroke-width:1.5;"/>
    <g clip-path="url(#p8a2ee52dbc)">
     <use style="fill:#ff7f0e;stroke:#ff7f0e;" x="138.101933" xlink:href="#mda48a715fb" y="22.796"/>
    </g>
   </g>
   <g id="line2d_68">
    <path clip-path="url(#p8a2ee52dbc)" d="M 152.452435 22.796 
" style="fill:none;stroke:#2ca02c;stroke-linecap:square;stroke-width:1.5;"/>
    <g clip-path="url(#p8a2ee52dbc)">
     <use style="fill:#2ca02c;stroke:#2ca02c;" x="152.452435" xlink:href="#mdc13cae327" y="22.796"/>
    </g>
   </g>
   <g id="line2d_69">
    <path clip-path="url(#p8a2ee52dbc)" d="M 166.803406 22.796 
" style="fill:none;stroke:#d62728;stroke-linecap:square;stroke-width:1.5;"/>
    <g clip-path="url(#p8a2ee52dbc)">
     <use style="fill:#d62728;stroke:#d62728;" x="166.803406" xlink:href="#m2c38245481" y="22.796"/>
    </g>
   </g>
   <g id="line2d_70">
    <path clip-path="url(#p8a2ee52dbc)" d="M 181.155649 22.796 
" style="fill:none;stroke:#9467bd;stroke-linecap:square;stroke-width:1.5;"/>
    <g clip-path="url(#p8a2ee52dbc)">
     <use style="fill:#9467bd;stroke:#9467bd;" x="181.155649" xlink:href="#m2504a59f86" y="22.796"/>
    </g>
   </g>
   <g id="line2d_71">
    <path clip-path="url(#p8a2ee52dbc)" d="M 195.508423 22.796 
" style="fill:none;stroke:#8c564b;stroke-linecap:square;stroke-width:1.5;"/>
    <g clip-path="url(#p8a2ee52dbc)">
     <use style="fill:#8c564b;stroke:#8c564b;" x="195.508423" xlink:href="#m5486c2393f" y="22.796"/>
    </g>
   </g>
   <g id="line2d_72">
    <path clip-path="url(#p8a2ee52dbc)" d="M 209.861845 22.796 
" style="fill:none;stroke:#e377c2;stroke-linecap:square;stroke-width:1.5;"/>
    <g clip-path="url(#p8a2ee52dbc)">
     <use style="fill:#e377c2;stroke:#e377c2;" x="209.861845" xlink:href="#m6af7f80410" y="22.796"/>
    </g>
   </g>
   <g id="line2d_73">
    <path clip-path="url(#p8a2ee52dbc)" d="M 224.21591 22.796 
" style="fill:none;stroke:#7f7f7f;stroke-linecap:square;stroke-width:1.5;"/>
    <g clip-path="url(#p8a2ee52dbc)">
     <use style="fill:#7f7f7f;stroke:#7f7f7f;" x="224.21591" xlink:href="#m5e58c26a9e" y="22.796"/>
    </g>
   </g>
   <g id="line2d_74">
    <path clip-path="url(#p8a2ee52dbc)" d="M 238.570473 22.796 
" style="fill:none;stroke:#bcbd22;stroke-linecap:square;stroke-width:1.5;"/>
    <g clip-path="url(#p8a2ee52dbc)">
     <use style="fill:#bcbd22;stroke:#bcbd22;" x="238.570473" xlink:href="#mca83fd75be" y="22.796"/>
    </g>
   </g>
   <g id="line2d_75">
    <path clip-path="url(#p8a2ee52dbc)" d="M 252.925755 22.796 
" style="fill:none;stroke:#17becf;stroke-linecap:square;stroke-width:1.5;"/>
    <g clip-path="url(#p8a2ee52dbc)">
     <use style="fill:#17becf;stroke:#17becf;" x="252.925755" xlink:href="#m98795fc75b" y="22.796"/>
    </g>
   </g>
   <g id="line2d_76">
    <path clip-path="url(#p8a2ee52dbc)" d="M 267.281803 22.796 
" style="fill:none;stroke:#1f77b4;stroke-linecap:square;stroke-width:1.5;"/>
    <g clip-path="url(#p8a2ee52dbc)">
     <use style="fill:#1f77b4;stroke:#1f77b4;" x="267.281803" xlink:href="#m5231783b31" y="22.796"/>
    </g>
   </g>
   <g id="line2d_77">
    <path clip-path="url(#p8a2ee52dbc)" d="M 281.638384 22.796 
" style="fill:none;stroke:#ff7f0e;stroke-linecap:square;stroke-width:1.5;"/>
    <g clip-path="url(#p8a2ee52dbc)">
     <use style="fill:#ff7f0e;stroke:#ff7f0e;" x="281.638384" xlink:href="#mda48a715fb" y="22.796"/>
    </g>
   </g>
   <g id="line2d_78">
    <path clip-path="url(#p8a2ee52dbc)" d="M 295.996454 22.796 
" style="fill:none;stroke:#2ca02c;stroke-linecap:square;stroke-width:1.5;"/>
    <g clip-path="url(#p8a2ee52dbc)">
     <use style="fill:#2ca02c;stroke:#2ca02c;" x="295.996454" xlink:href="#mdc13cae327" y="22.796"/>
    </g>
   </g>
   <g id="line2d_79">
    <path clip-path="url(#p8a2ee52dbc)" d="M 310.355207 22.796 
" style="fill:none;stroke:#d62728;stroke-linecap:square;stroke-width:1.5;"/>
    <g clip-path="url(#p8a2ee52dbc)">
     <use style="fill:#d62728;stroke:#d62728;" x="310.355207" xlink:href="#m2c38245481" y="22.796"/>
    </g>
   </g>
   <g id="line2d_80">
    <path clip-path="url(#p8a2ee52dbc)" d="M 324.715565 22.796 
" style="fill:none;stroke:#9467bd;stroke-linecap:square;stroke-width:1.5;"/>
    <g clip-path="url(#p8a2ee52dbc)">
     <use style="fill:#9467bd;stroke:#9467bd;" x="324.715565" xlink:href="#m2504a59f86" y="22.796"/>
    </g>
   </g>
   <g id="line2d_81">
    <path clip-path="url(#p8a2ee52dbc)" d="M 339.077417 22.796 
" style="fill:none;stroke:#8c564b;stroke-linecap:square;stroke-width:1.5;"/>
    <g clip-path="url(#p8a2ee52dbc)">
     <use style="fill:#8c564b;stroke:#8c564b;" x="339.077417" xlink:href="#m5486c2393f" y="22.796"/>
    </g>
   </g>
   <g id="line2d_82">
    <path clip-path="url(#p8a2ee52dbc)" d="M 353.440216 22.796 
" style="fill:none;stroke:#e377c2;stroke-linecap:square;stroke-width:1.5;"/>
    <g clip-path="url(#p8a2ee52dbc)">
     <use style="fill:#e377c2;stroke:#e377c2;" x="353.440216" xlink:href="#m6af7f80410" y="22.796"/>
    </g>
   </g>
   <g id="line2d_83">
    <path clip-path="url(#p8a2ee52dbc)" d="M 367.803938 22.796 
" style="fill:none;stroke:#7f7f7f;stroke-linecap:square;stroke-width:1.5;"/>
    <g clip-path="url(#p8a2ee52dbc)">
     <use style="fill:#7f7f7f;stroke:#7f7f7f;" x="367.803938" xlink:href="#m5e58c26a9e" y="22.796"/>
    </g>
   </g>
   <g id="line2d_84">
    <path clip-path="url(#p8a2ee52dbc)" d="M 49.520227 63.116 
L 51.925701 22.796 
L 51.925701 264.716 
L 51.997856 263.504382 
L 66.356855 22.796 
L 66.356855 264.716 
L 66.42901 262.114122 
L 80.70488 22.796 
L 80.70488 264.716 
L 80.777035 262.120507 
L 95.053446 22.796 
L 95.053446 264.716 
L 95.125601 262.129951 
L 109.40247 22.796 
L 109.40247 264.716 
L 109.474625 262.135596 
L 123.751955 22.796 
L 123.751955 264.716 
L 123.82411 262.143963 
L 138.101933 22.796 
L 138.101933 264.716 
L 138.174088 262.153856 
L 152.452435 22.796 
L 152.452435 264.716 
L 152.52459 262.161558 
L 166.803406 22.796 
L 166.803406 264.716 
L 166.875561 262.181685 
L 181.155649 22.796 
L 181.155649 264.716 
L 181.227804 262.193939 
L 195.508423 22.796 
L 195.508423 264.716 
L 195.580578 262.20282 
L 209.861845 22.796 
L 209.861845 264.716 
L 209.934 262.213543 
L 224.21591 22.796 
L 224.21591 264.716 
L 224.288065 262.222374 
L 238.570473 22.796 
L 238.570473 264.716 
L 238.642628 262.234987 
L 252.925755 22.796 
L 252.925755 264.716 
L 252.99791 262.247242 
L 267.281803 22.796 
L 267.281803 264.716 
L 267.353958 262.256231 
L 281.638384 22.796 
L 281.638384 264.716 
L 281.710541 262.280505 
L 295.996454 22.796 
L 295.996454 264.716 
L 296.068609 262.29182 
L 310.355207 22.796 
L 310.355207 264.716 
L 310.427362 262.318641 
L 324.715565 22.796 
L 324.715565 264.716 
L 324.787722 262.34391 
L 339.077417 22.796 
L 339.077417 264.716 
L 339.149572 262.360728 
L 353.440216 22.796 
L 353.440216 264.716 
L 353.512371 262.374643 
L 367.803938 22.796 
L 367.803938 264.716 
L 367.876093 262.389068 
L 374.153591 157.154084 
L 374.153591 157.154084 
" style="fill:none;stroke:#008000;stroke-linecap:square;stroke-width:1.5;"/>
   </g>
   <g id="patch_3">
    <path d="M 33.2875 276.812 
L 33.2875 10.7 
" style="fill:none;stroke:#000000;stroke-linecap:square;stroke-linejoin:miter;stroke-width:0.8;"/>
   </g>
   <g id="patch_4">
    <path d="M 390.4075 276.812 
L 390.4075 10.7 
" style="fill:none;stroke:#000000;stroke-linecap:square;stroke-linejoin:miter;stroke-width:0.8;"/>
   </g>
   <g id="patch_5">
    <path d="M 33.2875 276.812 
L 390.407501 276.812 
" style="fill:none;stroke:#000000;stroke-linecap:square;stroke-linejoin:miter;stroke-width:0.8;"/>
   </g>
   <g id="patch_6">
    <path d="M 33.2875 10.7 
L 390.407501 10.7 
" style="fill:none;stroke:#000000;stroke-linecap:square;stroke-linejoin:miter;stroke-width:0.8;"/>
   </g>
  </g>
 </g>
 <defs>
  <clipPath id="p8a2ee52dbc">
   <rect height="266.112" width="357.12" x="33.2875" y="10.7"/>
  </clipPath>
 </defs>
</svg>
