<?xml version="1.0" encoding="utf-8" standalone="no"?>
<!DOCTYPE svg PUBLIC "-//W3C//DTD SVG 1.1//EN"
  "http://www.w3.org/Graphics/SVG/1.1/DTD/svg11.dtd">
<!-- Created with matplotlib (https://matplotlib.org/) -->
<svg height="313.36825pt" version="1.1" viewBox="0 0 401.1075 313.36825" width="401.1075pt" xmlns="http://www.w3.org/2000/svg" xmlns:xlink="http://www.w3.org/1999/xlink">
 <defs>
  <style type="text/css">
*{stroke-linecap:butt;stroke-linejoin:round;}
  </style>
 </defs>
 <g id="figure_1">
  <g id="patch_1">
   <path d="M 0 313.36825 
L 401.1075 313.36825 
L 401.1075 0 
L 0 0 
z
" style="fill:#ffffff;"/>
  </g>
  <g id="axes_1">
   <g id="patch_2">
    <path d="M 33.2875 276.812 
L 390.4075 276.812 
L 390.4075 10.7 
L 33.2875 10.7 
z
" style="fill:#ffffff;"/>
   </g>
   <g id="matplotlib.axis_1">
    <g id="xtick_1">
     <g id="line2d_1">
      <defs>
       <path d="M 0 0 
L 0 3.5 
" id="m2032937a93" style="stroke:#000000;stroke-width:0.8;"/>
      </defs>
      <g>
       <use style="stroke:#000000;stroke-width:0.8;" x="49.447809" xlink:href="#m2032937a93" y="276.812"/>
      </g>
     </g>
     <g id="text_1">
      <!-- 30 -->
      <defs>
       <path d="M 40.578125 39.3125 
Q 47.65625 37.796875 51.625 33 
Q 55.609375 28.21875 55.609375 21.1875 
Q 55.609375 10.40625 48.1875 4.484375 
Q 40.765625 -1.421875 27.09375 -1.421875 
Q 22.515625 -1.421875 17.65625 -0.515625 
Q 12.796875 0.390625 7.625 2.203125 
L 7.625 11.71875 
Q 11.71875 9.328125 16.59375 8.109375 
Q 21.484375 6.890625 26.8125 6.890625 
Q 36.078125 6.890625 40.9375 10.546875 
Q 45.796875 14.203125 45.796875 21.1875 
Q 45.796875 27.640625 41.28125 31.265625 
Q 36.765625 34.90625 28.71875 34.90625 
L 20.21875 34.90625 
L 20.21875 43.015625 
L 29.109375 43.015625 
Q 36.375 43.015625 40.234375 45.921875 
Q 44.09375 48.828125 44.09375 54.296875 
Q 44.09375 59.90625 40.109375 62.90625 
Q 36.140625 65.921875 28.71875 65.921875 
Q 24.65625 65.921875 20.015625 65.03125 
Q 15.375 64.15625 9.8125 62.3125 
L 9.8125 71.09375 
Q 15.4375 72.65625 20.34375 73.4375 
Q 25.25 74.21875 29.59375 74.21875 
Q 40.828125 74.21875 47.359375 69.109375 
Q 53.90625 64.015625 53.90625 55.328125 
Q 53.90625 49.265625 50.4375 45.09375 
Q 46.96875 40.921875 40.578125 39.3125 
z
" id="DejaVuSans-51"/>
       <path d="M 31.78125 66.40625 
Q 24.171875 66.40625 20.328125 58.90625 
Q 16.5 51.421875 16.5 36.375 
Q 16.5 21.390625 20.328125 13.890625 
Q 24.171875 6.390625 31.78125 6.390625 
Q 39.453125 6.390625 43.28125 13.890625 
Q 47.125 21.390625 47.125 36.375 
Q 47.125 51.421875 43.28125 58.90625 
Q 39.453125 66.40625 31.78125 66.40625 
z
M 31.78125 74.21875 
Q 44.046875 74.21875 50.515625 64.515625 
Q 56.984375 54.828125 56.984375 36.375 
Q 56.984375 17.96875 50.515625 8.265625 
Q 44.046875 -1.421875 31.78125 -1.421875 
Q 19.53125 -1.421875 13.0625 8.265625 
Q 6.59375 17.96875 6.59375 36.375 
Q 6.59375 54.828125 13.0625 64.515625 
Q 19.53125 74.21875 31.78125 74.21875 
z
" id="DejaVuSans-48"/>
      </defs>
      <g transform="translate(43.085309 291.410437)scale(0.1 -0.1)">
       <use xlink:href="#DejaVuSans-51"/>
       <use x="63.623047" xlink:href="#DejaVuSans-48"/>
      </g>
     </g>
    </g>
    <g id="xtick_2">
     <g id="line2d_2">
      <g>
       <use style="stroke:#000000;stroke-width:0.8;" x="121.866304" xlink:href="#m2032937a93" y="276.812"/>
      </g>
     </g>
     <g id="text_2">
      <!-- 40 -->
      <defs>
       <path d="M 37.796875 64.3125 
L 12.890625 25.390625 
L 37.796875 25.390625 
z
M 35.203125 72.90625 
L 47.609375 72.90625 
L 47.609375 25.390625 
L 58.015625 25.390625 
L 58.015625 17.1875 
L 47.609375 17.1875 
L 47.609375 0 
L 37.796875 0 
L 37.796875 17.1875 
L 4.890625 17.1875 
L 4.890625 26.703125 
z
" id="DejaVuSans-52"/>
      </defs>
      <g transform="translate(115.503804 291.410437)scale(0.1 -0.1)">
       <use xlink:href="#DejaVuSans-52"/>
       <use x="63.623047" xlink:href="#DejaVuSans-48"/>
      </g>
     </g>
    </g>
    <g id="xtick_3">
     <g id="line2d_3">
      <g>
       <use style="stroke:#000000;stroke-width:0.8;" x="194.2848" xlink:href="#m2032937a93" y="276.812"/>
      </g>
     </g>
     <g id="text_3">
      <!-- 50 -->
      <defs>
       <path d="M 10.796875 72.90625 
L 49.515625 72.90625 
L 49.515625 64.59375 
L 19.828125 64.59375 
L 19.828125 46.734375 
Q 21.96875 47.46875 24.109375 47.828125 
Q 26.265625 48.1875 28.421875 48.1875 
Q 40.625 48.1875 47.75 41.5 
Q 54.890625 34.8125 54.890625 23.390625 
Q 54.890625 11.625 47.5625 5.09375 
Q 40.234375 -1.421875 26.90625 -1.421875 
Q 22.3125 -1.421875 17.546875 -0.640625 
Q 12.796875 0.140625 7.71875 1.703125 
L 7.71875 11.625 
Q 12.109375 9.234375 16.796875 8.0625 
Q 21.484375 6.890625 26.703125 6.890625 
Q 35.15625 6.890625 40.078125 11.328125 
Q 45.015625 15.765625 45.015625 23.390625 
Q 45.015625 31 40.078125 35.4375 
Q 35.15625 39.890625 26.703125 39.890625 
Q 22.75 39.890625 18.8125 39.015625 
Q 14.890625 38.140625 10.796875 36.28125 
z
" id="DejaVuSans-53"/>
      </defs>
      <g transform="translate(187.9223 291.410437)scale(0.1 -0.1)">
       <use xlink:href="#DejaVuSans-53"/>
       <use x="63.623047" xlink:href="#DejaVuSans-48"/>
      </g>
     </g>
    </g>
    <g id="xtick_4">
     <g id="line2d_4">
      <g>
       <use style="stroke:#000000;stroke-width:0.8;" x="266.703293" xlink:href="#m2032937a93" y="276.812"/>
      </g>
     </g>
     <g id="text_4">
      <!-- 60 -->
      <defs>
       <path d="M 33.015625 40.375 
Q 26.375 40.375 22.484375 35.828125 
Q 18.609375 31.296875 18.609375 23.390625 
Q 18.609375 15.53125 22.484375 10.953125 
Q 26.375 6.390625 33.015625 6.390625 
Q 39.65625 6.390625 43.53125 10.953125 
Q 47.40625 15.53125 47.40625 23.390625 
Q 47.40625 31.296875 43.53125 35.828125 
Q 39.65625 40.375 33.015625 40.375 
z
M 52.59375 71.296875 
L 52.59375 62.3125 
Q 48.875 64.0625 45.09375 64.984375 
Q 41.3125 65.921875 37.59375 65.921875 
Q 27.828125 65.921875 22.671875 59.328125 
Q 17.53125 52.734375 16.796875 39.40625 
Q 19.671875 43.65625 24.015625 45.921875 
Q 28.375 48.1875 33.59375 48.1875 
Q 44.578125 48.1875 50.953125 41.515625 
Q 57.328125 34.859375 57.328125 23.390625 
Q 57.328125 12.15625 50.6875 5.359375 
Q 44.046875 -1.421875 33.015625 -1.421875 
Q 20.359375 -1.421875 13.671875 8.265625 
Q 6.984375 17.96875 6.984375 36.375 
Q 6.984375 53.65625 15.1875 63.9375 
Q 23.390625 74.21875 37.203125 74.21875 
Q 40.921875 74.21875 44.703125 73.484375 
Q 48.484375 72.75 52.59375 71.296875 
z
" id="DejaVuSans-54"/>
      </defs>
      <g transform="translate(260.340793 291.410437)scale(0.1 -0.1)">
       <use xlink:href="#DejaVuSans-54"/>
       <use x="63.623047" xlink:href="#DejaVuSans-48"/>
      </g>
     </g>
    </g>
    <g id="xtick_5">
     <g id="line2d_5">
      <g>
       <use style="stroke:#000000;stroke-width:0.8;" x="339.121788" xlink:href="#m2032937a93" y="276.812"/>
      </g>
     </g>
     <g id="text_5">
      <!-- 70 -->
      <defs>
       <path d="M 8.203125 72.90625 
L 55.078125 72.90625 
L 55.078125 68.703125 
L 28.609375 0 
L 18.3125 0 
L 43.21875 64.59375 
L 8.203125 64.59375 
z
" id="DejaVuSans-55"/>
      </defs>
      <g transform="translate(332.759288 291.410437)scale(0.1 -0.1)">
       <use xlink:href="#DejaVuSans-55"/>
       <use x="63.623047" xlink:href="#DejaVuSans-48"/>
      </g>
     </g>
    </g>
    <g id="text_6">
     <!-- +1.5961751e9 -->
     <defs>
      <path d="M 46 62.703125 
L 46 35.5 
L 73.1875 35.5 
L 73.1875 27.203125 
L 46 27.203125 
L 46 0 
L 37.796875 0 
L 37.796875 27.203125 
L 10.59375 27.203125 
L 10.59375 35.5 
L 37.796875 35.5 
L 37.796875 62.703125 
z
" id="DejaVuSans-43"/>
      <path d="M 12.40625 8.296875 
L 28.515625 8.296875 
L 28.515625 63.921875 
L 10.984375 60.40625 
L 10.984375 69.390625 
L 28.421875 72.90625 
L 38.28125 72.90625 
L 38.28125 8.296875 
L 54.390625 8.296875 
L 54.390625 0 
L 12.40625 0 
z
" id="DejaVuSans-49"/>
      <path d="M 10.6875 12.40625 
L 21 12.40625 
L 21 0 
L 10.6875 0 
z
" id="DejaVuSans-46"/>
      <path d="M 10.984375 1.515625 
L 10.984375 10.5 
Q 14.703125 8.734375 18.5 7.8125 
Q 22.3125 6.890625 25.984375 6.890625 
Q 35.75 6.890625 40.890625 13.453125 
Q 46.046875 20.015625 46.78125 33.40625 
Q 43.953125 29.203125 39.59375 26.953125 
Q 35.25 24.703125 29.984375 24.703125 
Q 19.046875 24.703125 12.671875 31.3125 
Q 6.296875 37.9375 6.296875 49.421875 
Q 6.296875 60.640625 12.9375 67.421875 
Q 19.578125 74.21875 30.609375 74.21875 
Q 43.265625 74.21875 49.921875 64.515625 
Q 56.59375 54.828125 56.59375 36.375 
Q 56.59375 19.140625 48.40625 8.859375 
Q 40.234375 -1.421875 26.421875 -1.421875 
Q 22.703125 -1.421875 18.890625 -0.6875 
Q 15.09375 0.046875 10.984375 1.515625 
z
M 30.609375 32.421875 
Q 37.25 32.421875 41.125 36.953125 
Q 45.015625 41.5 45.015625 49.421875 
Q 45.015625 57.28125 41.125 61.84375 
Q 37.25 66.40625 30.609375 66.40625 
Q 23.96875 66.40625 20.09375 61.84375 
Q 16.21875 57.28125 16.21875 49.421875 
Q 16.21875 41.5 20.09375 36.953125 
Q 23.96875 32.421875 30.609375 32.421875 
z
" id="DejaVuSans-57"/>
      <path d="M 56.203125 29.59375 
L 56.203125 25.203125 
L 14.890625 25.203125 
Q 15.484375 15.921875 20.484375 11.0625 
Q 25.484375 6.203125 34.421875 6.203125 
Q 39.59375 6.203125 44.453125 7.46875 
Q 49.3125 8.734375 54.109375 11.28125 
L 54.109375 2.78125 
Q 49.265625 0.734375 44.1875 -0.34375 
Q 39.109375 -1.421875 33.890625 -1.421875 
Q 20.796875 -1.421875 13.15625 6.1875 
Q 5.515625 13.8125 5.515625 26.8125 
Q 5.515625 40.234375 12.765625 48.109375 
Q 20.015625 56 32.328125 56 
Q 43.359375 56 49.78125 48.890625 
Q 56.203125 41.796875 56.203125 29.59375 
z
M 47.21875 32.234375 
Q 47.125 39.59375 43.09375 43.984375 
Q 39.0625 48.390625 32.421875 48.390625 
Q 24.90625 48.390625 20.390625 44.140625 
Q 15.875 39.890625 15.1875 32.171875 
z
" id="DejaVuSans-101"/>
     </defs>
     <g transform="translate(315.434063 304.088562)scale(0.1 -0.1)">
      <use xlink:href="#DejaVuSans-43"/>
      <use x="83.789062" xlink:href="#DejaVuSans-49"/>
      <use x="147.412109" xlink:href="#DejaVuSans-46"/>
      <use x="179.199219" xlink:href="#DejaVuSans-53"/>
      <use x="242.822266" xlink:href="#DejaVuSans-57"/>
      <use x="306.445312" xlink:href="#DejaVuSans-54"/>
      <use x="370.068359" xlink:href="#DejaVuSans-49"/>
      <use x="433.691406" xlink:href="#DejaVuSans-55"/>
      <use x="497.314453" xlink:href="#DejaVuSans-53"/>
      <use x="560.9375" xlink:href="#DejaVuSans-49"/>
      <use x="624.560547" xlink:href="#DejaVuSans-101"/>
      <use x="686.083984" xlink:href="#DejaVuSans-57"/>
     </g>
    </g>
   </g>
   <g id="matplotlib.axis_2">
    <g id="ytick_1">
     <g id="line2d_6">
      <defs>
       <path d="M 0 0 
L -3.5 0 
" id="me93169b6f8" style="stroke:#000000;stroke-width:0.8;"/>
      </defs>
      <g>
       <use style="stroke:#000000;stroke-width:0.8;" x="33.2875" xlink:href="#me93169b6f8" y="274.401564"/>
      </g>
     </g>
     <g id="text_7">
      <!-- 150 -->
      <g transform="translate(7.2 278.200782)scale(0.1 -0.1)">
       <use xlink:href="#DejaVuSans-49"/>
       <use x="63.623047" xlink:href="#DejaVuSans-53"/>
       <use x="127.246094" xlink:href="#DejaVuSans-48"/>
      </g>
     </g>
    </g>
    <g id="ytick_2">
     <g id="line2d_7">
      <g>
       <use style="stroke:#000000;stroke-width:0.8;" x="33.2875" xlink:href="#me93169b6f8" y="233.897852"/>
      </g>
     </g>
     <g id="text_8">
      <!-- 155 -->
      <g transform="translate(7.2 237.697071)scale(0.1 -0.1)">
       <use xlink:href="#DejaVuSans-49"/>
       <use x="63.623047" xlink:href="#DejaVuSans-53"/>
       <use x="127.246094" xlink:href="#DejaVuSans-53"/>
      </g>
     </g>
    </g>
    <g id="ytick_3">
     <g id="line2d_8">
      <g>
       <use style="stroke:#000000;stroke-width:0.8;" x="33.2875" xlink:href="#me93169b6f8" y="193.394141"/>
      </g>
     </g>
     <g id="text_9">
      <!-- 160 -->
      <g transform="translate(7.2 197.19336)scale(0.1 -0.1)">
       <use xlink:href="#DejaVuSans-49"/>
       <use x="63.623047" xlink:href="#DejaVuSans-54"/>
       <use x="127.246094" xlink:href="#DejaVuSans-48"/>
      </g>
     </g>
    </g>
    <g id="ytick_4">
     <g id="line2d_9">
      <g>
       <use style="stroke:#000000;stroke-width:0.8;" x="33.2875" xlink:href="#me93169b6f8" y="152.89043"/>
      </g>
     </g>
     <g id="text_10">
      <!-- 165 -->
      <g transform="translate(7.2 156.689648)scale(0.1 -0.1)">
       <use xlink:href="#DejaVuSans-49"/>
       <use x="63.623047" xlink:href="#DejaVuSans-54"/>
       <use x="127.246094" xlink:href="#DejaVuSans-53"/>
      </g>
     </g>
    </g>
    <g id="ytick_5">
     <g id="line2d_10">
      <g>
       <use style="stroke:#000000;stroke-width:0.8;" x="33.2875" xlink:href="#me93169b6f8" y="112.386718"/>
      </g>
     </g>
     <g id="text_11">
      <!-- 170 -->
      <g transform="translate(7.2 116.185937)scale(0.1 -0.1)">
       <use xlink:href="#DejaVuSans-49"/>
       <use x="63.623047" xlink:href="#DejaVuSans-55"/>
       <use x="127.246094" xlink:href="#DejaVuSans-48"/>
      </g>
     </g>
    </g>
    <g id="ytick_6">
     <g id="line2d_11">
      <g>
       <use style="stroke:#000000;stroke-width:0.8;" x="33.2875" xlink:href="#me93169b6f8" y="71.883007"/>
      </g>
     </g>
     <g id="text_12">
      <!-- 175 -->
      <g transform="translate(7.2 75.682226)scale(0.1 -0.1)">
       <use xlink:href="#DejaVuSans-49"/>
       <use x="63.623047" xlink:href="#DejaVuSans-55"/>
       <use x="127.246094" xlink:href="#DejaVuSans-53"/>
      </g>
     </g>
    </g>
    <g id="ytick_7">
     <g id="line2d_12">
      <g>
       <use style="stroke:#000000;stroke-width:0.8;" x="33.2875" xlink:href="#me93169b6f8" y="31.379296"/>
      </g>
     </g>
     <g id="text_13">
      <!-- 180 -->
      <defs>
       <path d="M 31.78125 34.625 
Q 24.75 34.625 20.71875 30.859375 
Q 16.703125 27.09375 16.703125 20.515625 
Q 16.703125 13.921875 20.71875 10.15625 
Q 24.75 6.390625 31.78125 6.390625 
Q 38.8125 6.390625 42.859375 10.171875 
Q 46.921875 13.96875 46.921875 20.515625 
Q 46.921875 27.09375 42.890625 30.859375 
Q 38.875 34.625 31.78125 34.625 
z
M 21.921875 38.8125 
Q 15.578125 40.375 12.03125 44.71875 
Q 8.5 49.078125 8.5 55.328125 
Q 8.5 64.0625 14.71875 69.140625 
Q 20.953125 74.21875 31.78125 74.21875 
Q 42.671875 74.21875 48.875 69.140625 
Q 55.078125 64.0625 55.078125 55.328125 
Q 55.078125 49.078125 51.53125 44.71875 
Q 48 40.375 41.703125 38.8125 
Q 48.828125 37.15625 52.796875 32.3125 
Q 56.78125 27.484375 56.78125 20.515625 
Q 56.78125 9.90625 50.3125 4.234375 
Q 43.84375 -1.421875 31.78125 -1.421875 
Q 19.734375 -1.421875 13.25 4.234375 
Q 6.78125 9.90625 6.78125 20.515625 
Q 6.78125 27.484375 10.78125 32.3125 
Q 14.796875 37.15625 21.921875 38.8125 
z
M 18.3125 54.390625 
Q 18.3125 48.734375 21.84375 45.5625 
Q 25.390625 42.390625 31.78125 42.390625 
Q 38.140625 42.390625 41.71875 45.5625 
Q 45.3125 48.734375 45.3125 54.390625 
Q 45.3125 60.0625 41.71875 63.234375 
Q 38.140625 66.40625 31.78125 66.40625 
Q 25.390625 66.40625 21.84375 63.234375 
Q 18.3125 60.0625 18.3125 54.390625 
z
" id="DejaVuSans-56"/>
      </defs>
      <g transform="translate(7.2 35.178514)scale(0.1 -0.1)">
       <use xlink:href="#DejaVuSans-49"/>
       <use x="63.623047" xlink:href="#DejaVuSans-56"/>
       <use x="127.246094" xlink:href="#DejaVuSans-48"/>
      </g>
     </g>
    </g>
   </g>
   <g id="line2d_13">
    <path clip-path="url(#p62bb6e10c8)" d="M 49.520227 225.782161 
L 50.244411 225.782509 
L 50.534086 225.784595 
L 51.547943 225.78529 
L 51.982454 225.759564 
L 52.054873 225.7912 
L 52.199709 264.699313 
L 52.561802 264.670806 
L 53.503241 264.713219 
L 54.155006 264.681931 
L 60.165735 264.694098 
L 60.310574 264.685059 
L 60.383183 238.932811 
L 60.455601 238.942545 
L 61.976389 238.920295 
L 62.33848 238.921338 
L 63.71443 238.910214 
L 64.148941 238.938025 
L 64.65587 238.923424 
L 65.1628 238.939763 
L 65.524891 238.909171 
L 65.814566 238.941502 
L 66.393911 238.915428 
L 66.466331 255.752781 
L 66.53875 255.742352 
L 67.190516 255.764949 
L 68.204372 255.776073 
L 68.711302 255.737832 
L 70.087252 255.765991 
L 70.811436 255.764601 
L 71.318365 255.744785 
L 72.187386 255.75139 
L 73.201244 255.754171 
L 73.780592 255.759039 
L 74.504776 255.773987 
L 74.649612 255.768425 
L 74.739172 226.351868 
L 74.81159 226.364383 
L 75.608192 226.324056 
L 76.259958 226.36925 
L 76.766888 226.348392 
L 77.635908 226.333095 
L 77.925581 226.343177 
L 79.446369 226.342482 
L 79.80846 226.349087 
L 80.31539 226.354997 
L 80.749901 226.321623 
L 80.894737 255.407034 
L 81.329248 255.392086 
L 81.763758 255.414335 
L 82.198269 255.404253 
L 82.705198 255.398343 
L 84.443241 255.405296 
L 84.732914 255.391738 
L 86.398539 255.407382 
L 86.76063 255.410859 
L 87.267559 255.419897 
L 89.005602 255.421636 
L 89.166246 226.058936 
L 89.673176 226.04955 
L 89.962849 226.053026 
L 91.77331 226.05685 
L 92.569912 226.065889 
L 93.656189 226.072147 
L 94.307955 226.055808 
L 94.597628 226.066585 
L 94.959721 226.045378 
L 95.104557 226.050941 
L 95.249393 255.13776 
L 98.290968 255.144713 
L 101.767054 255.144365 
L 102.273981 255.134979 
L 102.998165 255.144713 
L 103.360258 255.146799 
L 103.447672 225.801364 
L 103.52009 225.814227 
L 103.954601 225.800321 
L 104.533949 225.802407 
L 109.458401 225.775986 
L 109.530819 254.856225 
L 109.603237 254.830151 
L 109.748075 254.858658 
L 109.820494 254.743935 
L 109.96533 254.856225 
L 110.399841 254.853096 
L 111.413698 254.849619 
L 111.848209 254.862135 
L 112.137882 254.850662 
L 114.382854 254.862482 
L 117.714102 254.852748 
L 117.800533 225.460577 
L 117.872952 225.481435 
L 118.235044 225.478307 
L 120.407597 225.467877 
L 120.76969 225.492908 
L 121.204199 225.466139 
L 121.63871 225.488388 
L 122.000801 225.477264 
L 123.376753 225.484912 
L 123.811262 225.482131 
L 123.88368 254.568176 
L 123.956099 254.560528 
L 126.273489 254.559833 
L 126.780418 254.55879 
L 128.156368 254.573739 
L 128.663298 254.552185 
L 129.315063 254.554271 
L 129.749573 254.566438 
L 130.184084 254.55879 
L 132.066963 254.557747 
L 132.224794 225.201139 
L 134.542185 225.202529 
L 134.976694 225.225126 
L 135.266369 225.204963 
L 136.497482 225.195229 
L 137.00441 225.178542 
L 137.294085 225.216435 
L 137.801014 225.186885 
L 138.163105 225.197315 
L 138.307941 254.280675 
L 138.887289 254.252863 
L 139.901148 254.268855 
L 140.263239 254.237219 
L 140.625332 254.274765 
L 142.508211 254.26503 
L 142.870302 254.281022 
L 143.159977 254.275112 
L 143.594486 254.251125 
L 144.463509 254.258425 
L 144.8256 254.270245 
L 145.549786 254.268507 
L 146.27397 254.247648 
L 146.418806 254.271636 
L 146.503254 211.275845 
L 146.575672 211.306786 
L 146.792927 211.294618 
L 147.879204 211.290794 
L 148.313713 211.282798 
L 148.965479 211.299138 
L 149.255154 211.26333 
L 149.979338 211.31061 
L 150.486267 211.288013 
L 152.513983 211.290446 
L 152.658819 240.353997 
L 153.383003 240.331052 
L 153.745096 240.36095 
L 154.034769 240.324794 
L 154.46928 240.351911 
L 154.831373 240.3314 
L 155.338301 240.336267 
L 160.335173 240.345653 
L 160.697266 240.335919 
L 160.785637 209.693807 
L 160.858055 209.712232 
L 161.292566 209.736567 
L 161.582239 209.711884 
L 166.868784 209.709451 
L 166.941204 238.650804 
L 167.013622 238.62925 
L 167.230877 238.620558 
L 167.810225 238.622297 
L 168.317154 238.609434 
L 169.113756 238.64698 
L 169.548267 238.61743 
L 170.634542 238.62334 
L 175.052067 238.637246 
L 175.205519 209.20515 
L 181.216249 209.214189 
L 181.361086 238.268517 
L 182.374943 238.266083 
L 182.737036 238.276513 
L 184.112986 238.250439 
L 184.764751 238.266083 
L 185.561354 238.272341 
L 187.878744 238.266083 
L 188.240835 238.273732 
L 188.602928 238.258087 
L 189.39953 238.257392 
L 189.479416 208.464185 
L 189.551834 208.470443 
L 189.986343 208.497559 
L 190.276018 208.471486 
L 190.638109 208.492345 
L 192.086479 208.487825 
L 192.593407 208.485739 
L 194.041777 208.491649 
L 195.562563 208.484001 
L 195.707399 237.53156 
L 196.069492 237.536774 
L 196.359165 237.539555 
L 196.938513 237.54477 
L 197.662697 237.54929 
L 198.386881 237.530864 
L 198.748974 237.53156 
L 200.26976 237.543032 
L 201.066362 237.545813 
L 201.573292 237.535731 
L 202.152639 237.55068 
L 202.514732 237.543032 
L 203.02166 237.554157 
L 203.238916 237.534688 
L 203.528589 237.557285 
L 203.745846 237.542684 
L 203.895023 208.518824 
L 204.184698 208.515348 
L 209.905754 208.506309 
L 209.978172 237.549439 
L 210.050591 237.54631 
L 212.223143 237.548049 
L 212.657654 237.547353 
L 213.237001 237.547701 
L 214.323278 237.56265 
L 214.612951 237.537967 
L 215.916483 237.548396 
L 218.089035 237.532057 
L 218.166443 207.923812 
L 218.238861 207.924855 
L 218.67337 207.922422 
L 219.614811 207.923465 
L 219.976902 207.918945 
L 224.104753 207.923812 
L 224.24959 207.905735 
L 224.394426 236.977069 
L 225.046192 236.943347 
L 225.335867 236.983674 
L 226.856653 236.964553 
L 232.432873 236.948909 
L 232.5805 207.736461 
L 233.304684 207.758363 
L 233.95645 207.762187 
L 235.332399 207.736461 
L 235.984165 207.739242 
L 236.346258 207.767402 
L 236.635931 207.734723 
L 237.504951 207.744109 
L 238.591228 207.736461 
L 238.663647 236.790256 
L 238.736065 236.782956 
L 239.315413 236.759663 
L 239.532667 236.780174 
L 241.053455 236.779479 
L 241.487965 236.766616 
L 242.212151 236.781217 
L 246.774511 236.785041 
L 246.921759 207.322835 
L 247.356268 207.344041 
L 249.963331 207.323878 
L 250.759933 207.329093 
L 251.122026 207.343694 
L 251.773792 207.314144 
L 252.063465 207.32353 
L 252.932487 207.329788 
L 253.004906 236.340407 
L 253.077324 236.337626 
L 253.656672 236.364047 
L 254.018763 236.319548 
L 255.10504 236.350836 
L 257.132755 236.338669 
L 257.712103 236.355703 
L 258.363869 236.350836 
L 259.884657 236.34145 
L 260.319166 236.341798 
L 261.115768 236.349793 
L 261.189201 192.241327 
L 261.26162 192.257666 
L 262.565151 192.262185 
L 262.782406 192.254537 
L 263.434172 192.264619 
L 266.910257 192.228811 
L 267.272348 192.257318 
L 267.344767 221.316848 
L 267.417187 221.309547 
L 267.70686 221.283474 
L 267.996532 221.319977 
L 268.648298 221.285212 
L 271.979548 221.292513 
L 272.414057 221.307809 
L 273.138241 221.306071 
L 273.427916 221.290427 
L 275.310795 221.29286 
L 275.527456 177.018753 
L 278.279356 177.046217 
L 278.496611 177.022925 
L 279.220795 177.051432 
L 279.438051 177.031268 
L 279.944979 177.054561 
L 280.37949 177.021534 
L 280.886419 177.039959 
L 281.683022 177.054908 
L 281.75544 205.903962 
L 281.827858 205.890056 
L 282.479624 205.919954 
L 282.769299 205.913001 
L 283.348646 205.892142 
L 285.086687 205.896662 
L 285.521198 205.885537 
L 285.955709 205.901876 
L 286.82473 205.892142 
L 287.259241 205.891099 
L 287.69375 205.883799 
L 287.983425 205.89979 
L 288.562773 205.889709 
L 289.649048 205.920302 
L 289.790718 146.790084 
L 289.863138 146.790431 
L 290.297647 146.81129 
L 290.804577 146.795646 
L 291.383924 146.813376 
L 292.108109 146.79947 
L 293.339222 146.805728 
L 294.063406 146.798427 
L 294.860008 146.824153 
L 295.077265 146.808161 
L 296.091122 146.808509 
L 296.235958 175.829908 
L 297.467072 175.841033 
L 297.684328 175.818784 
L 298.191256 175.829213 
L 298.625767 175.811483 
L 299.205114 175.812874 
L 303.332964 175.839643 
L 303.839893 175.807311 
L 303.912312 175.834428 
L 304.122551 116.559419 
L 304.339806 116.582016 
L 304.629478 116.543428 
L 305.715755 116.556986 
L 306.150267 116.561853 
L 310.495373 116.550728 
L 310.640209 145.427588 
L 311.219557 145.441842 
L 311.50923 145.431412 
L 312.016159 145.399081 
L 314.188711 145.435584 
L 314.478386 145.412987 
L 315.20257 145.424807 
L 315.781918 145.424807 
L 316.795774 145.416116 
L 318.171724 145.420635 
L 318.304981 101.870167 
L 318.377399 101.889983 
L 318.884329 101.863562 
L 320.115442 101.879901 
L 322.432833 101.878511 
L 323.084599 101.880249 
L 324.098455 101.893807 
L 324.31571 101.878163 
L 324.967476 101.873644 
L 325.039896 116.174925 
L 325.112314 116.152675 
L 325.619242 116.169015 
L 332.498993 116.153023 
L 332.63315 72.060659 
L 332.70557 72.068307 
L 334.516029 72.062745 
L 335.167795 72.053359 
L 336.32649 72.059269 
L 336.978256 72.042929 
L 337.557604 72.065874 
L 339.295647 72.06344 
L 339.440483 72.070393 
L 339.512901 86.455393 
L 339.58532 86.43801 
L 340.309504 86.46026 
L 342.047546 86.468951 
L 342.626894 86.464779 
L 345.813305 86.453655 
L 346.465071 86.473123 
L 346.827162 86.47347 
L 347.032093 42.318953 
L 348.770136 42.352327 
L 349.059809 42.324516 
L 351.449617 42.331816 
L 351.884129 42.313739 
L 352.318638 42.328687 
L 353.332497 42.321039 
L 353.911844 42.321735 
L 353.984262 56.74615 
L 354.056681 56.743021 
L 355.215376 56.735025 
L 355.577467 56.759708 
L 356.518908 56.75797 
L 361.153687 56.739197 
L 361.284292 37.207952 
L 361.35671 37.213167 
L 361.718803 37.20239 
L 362.153315 37.207604 
L 363.456846 37.200304 
L 365.267305 37.218729 
L 365.701817 37.238545 
L 366.281164 37.230201 
L 367.946787 37.215948 
L 368.236462 37.216295 
L 368.30888 22.823116 
L 368.381298 22.841542 
L 368.598553 22.801215 
L 368.960646 22.820335 
L 370.119341 22.796 
L 370.409014 22.827288 
L 370.915943 22.820335 
L 371.929802 22.841194 
L 372.291893 22.803648 
L 372.726404 22.835284 
L 374.174772 22.818249 
L 374.174772 22.818249 
" style="fill:none;stroke:#ff0000;stroke-linecap:square;stroke-width:1.5;"/>
   </g>
   <g id="patch_3">
    <path d="M 33.2875 276.812 
L 33.2875 10.7 
" style="fill:none;stroke:#000000;stroke-linecap:square;stroke-linejoin:miter;stroke-width:0.8;"/>
   </g>
   <g id="patch_4">
    <path d="M 390.4075 276.812 
L 390.4075 10.7 
" style="fill:none;stroke:#000000;stroke-linecap:square;stroke-linejoin:miter;stroke-width:0.8;"/>
   </g>
   <g id="patch_5">
    <path d="M 33.2875 276.812 
L 390.407499 276.812 
" style="fill:none;stroke:#000000;stroke-linecap:square;stroke-linejoin:miter;stroke-width:0.8;"/>
   </g>
   <g id="patch_6">
    <path d="M 33.2875 10.7 
L 390.407499 10.7 
" style="fill:none;stroke:#000000;stroke-linecap:square;stroke-linejoin:miter;stroke-width:0.8;"/>
   </g>
  </g>
 </g>
 <defs>
  <clipPath id="p62bb6e10c8">
   <rect height="266.112" width="357.12" x="33.2875" y="10.7"/>
  </clipPath>
 </defs>
</svg>
