<?xml version="1.0" encoding="utf-8" standalone="no"?>
<!DOCTYPE svg PUBLIC "-//W3C//DTD SVG 1.1//EN"
  "http://www.w3.org/Graphics/SVG/1.1/DTD/svg11.dtd">
<!-- Created with matplotlib (https://matplotlib.org/) -->
<svg height="313.36825pt" version="1.1" viewBox="0 0 401.1075 313.36825" width="401.1075pt" xmlns="http://www.w3.org/2000/svg" xmlns:xlink="http://www.w3.org/1999/xlink">
 <defs>
  <style type="text/css">
*{stroke-linecap:butt;stroke-linejoin:round;}
  </style>
 </defs>
 <g id="figure_1">
  <g id="patch_1">
   <path d="M 0 313.36825 
L 401.1075 313.36825 
L 401.1075 0 
L 0 0 
z
" style="fill:#ffffff;"/>
  </g>
  <g id="axes_1">
   <g id="patch_2">
    <path d="M 33.2875 276.812 
L 390.4075 276.812 
L 390.4075 10.7 
L 33.2875 10.7 
z
" style="fill:#ffffff;"/>
   </g>
   <g id="matplotlib.axis_1">
    <g id="xtick_1">
     <g id="line2d_1">
      <defs>
       <path d="M 0 0 
L 0 3.5 
" id="m8912bd7b84" style="stroke:#000000;stroke-width:0.8;"/>
      </defs>
      <g>
       <use style="stroke:#000000;stroke-width:0.8;" x="85.656244" xlink:href="#m8912bd7b84" y="276.812"/>
      </g>
     </g>
     <g id="text_1">
      <!-- 190 -->
      <defs>
       <path d="M 12.40625 8.296875 
L 28.515625 8.296875 
L 28.515625 63.921875 
L 10.984375 60.40625 
L 10.984375 69.390625 
L 28.421875 72.90625 
L 38.28125 72.90625 
L 38.28125 8.296875 
L 54.390625 8.296875 
L 54.390625 0 
L 12.40625 0 
z
" id="DejaVuSans-49"/>
       <path d="M 10.984375 1.515625 
L 10.984375 10.5 
Q 14.703125 8.734375 18.5 7.8125 
Q 22.3125 6.890625 25.984375 6.890625 
Q 35.75 6.890625 40.890625 13.453125 
Q 46.046875 20.015625 46.78125 33.40625 
Q 43.953125 29.203125 39.59375 26.953125 
Q 35.25 24.703125 29.984375 24.703125 
Q 19.046875 24.703125 12.671875 31.3125 
Q 6.296875 37.9375 6.296875 49.421875 
Q 6.296875 60.640625 12.9375 67.421875 
Q 19.578125 74.21875 30.609375 74.21875 
Q 43.265625 74.21875 49.921875 64.515625 
Q 56.59375 54.828125 56.59375 36.375 
Q 56.59375 19.140625 48.40625 8.859375 
Q 40.234375 -1.421875 26.421875 -1.421875 
Q 22.703125 -1.421875 18.890625 -0.6875 
Q 15.09375 0.046875 10.984375 1.515625 
z
M 30.609375 32.421875 
Q 37.25 32.421875 41.125 36.953125 
Q 45.015625 41.5 45.015625 49.421875 
Q 45.015625 57.28125 41.125 61.84375 
Q 37.25 66.40625 30.609375 66.40625 
Q 23.96875 66.40625 20.09375 61.84375 
Q 16.21875 57.28125 16.21875 49.421875 
Q 16.21875 41.5 20.09375 36.953125 
Q 23.96875 32.421875 30.609375 32.421875 
z
" id="DejaVuSans-57"/>
       <path d="M 31.78125 66.40625 
Q 24.171875 66.40625 20.328125 58.90625 
Q 16.5 51.421875 16.5 36.375 
Q 16.5 21.390625 20.328125 13.890625 
Q 24.171875 6.390625 31.78125 6.390625 
Q 39.453125 6.390625 43.28125 13.890625 
Q 47.125 21.390625 47.125 36.375 
Q 47.125 51.421875 43.28125 58.90625 
Q 39.453125 66.40625 31.78125 66.40625 
z
M 31.78125 74.21875 
Q 44.046875 74.21875 50.515625 64.515625 
Q 56.984375 54.828125 56.984375 36.375 
Q 56.984375 17.96875 50.515625 8.265625 
Q 44.046875 -1.421875 31.78125 -1.421875 
Q 19.53125 -1.421875 13.0625 8.265625 
Q 6.59375 17.96875 6.59375 36.375 
Q 6.59375 54.828125 13.0625 64.515625 
Q 19.53125 74.21875 31.78125 74.21875 
z
" id="DejaVuSans-48"/>
      </defs>
      <g transform="translate(76.112494 291.410437)scale(0.1 -0.1)">
       <use xlink:href="#DejaVuSans-49"/>
       <use x="63.623047" xlink:href="#DejaVuSans-57"/>
       <use x="127.246094" xlink:href="#DejaVuSans-48"/>
      </g>
     </g>
    </g>
    <g id="xtick_2">
     <g id="line2d_2">
      <g>
       <use style="stroke:#000000;stroke-width:0.8;" x="158.073109" xlink:href="#m8912bd7b84" y="276.812"/>
      </g>
     </g>
     <g id="text_2">
      <!-- 200 -->
      <defs>
       <path d="M 19.1875 8.296875 
L 53.609375 8.296875 
L 53.609375 0 
L 7.328125 0 
L 7.328125 8.296875 
Q 12.9375 14.109375 22.625 23.890625 
Q 32.328125 33.6875 34.8125 36.53125 
Q 39.546875 41.84375 41.421875 45.53125 
Q 43.3125 49.21875 43.3125 52.78125 
Q 43.3125 58.59375 39.234375 62.25 
Q 35.15625 65.921875 28.609375 65.921875 
Q 23.96875 65.921875 18.8125 64.3125 
Q 13.671875 62.703125 7.8125 59.421875 
L 7.8125 69.390625 
Q 13.765625 71.78125 18.9375 73 
Q 24.125 74.21875 28.421875 74.21875 
Q 39.75 74.21875 46.484375 68.546875 
Q 53.21875 62.890625 53.21875 53.421875 
Q 53.21875 48.921875 51.53125 44.890625 
Q 49.859375 40.875 45.40625 35.40625 
Q 44.1875 33.984375 37.640625 27.21875 
Q 31.109375 20.453125 19.1875 8.296875 
z
" id="DejaVuSans-50"/>
      </defs>
      <g transform="translate(148.529359 291.410437)scale(0.1 -0.1)">
       <use xlink:href="#DejaVuSans-50"/>
       <use x="63.623047" xlink:href="#DejaVuSans-48"/>
       <use x="127.246094" xlink:href="#DejaVuSans-48"/>
      </g>
     </g>
    </g>
    <g id="xtick_3">
     <g id="line2d_3">
      <g>
       <use style="stroke:#000000;stroke-width:0.8;" x="230.489973" xlink:href="#m8912bd7b84" y="276.812"/>
      </g>
     </g>
     <g id="text_3">
      <!-- 210 -->
      <g transform="translate(220.946223 291.410437)scale(0.1 -0.1)">
       <use xlink:href="#DejaVuSans-50"/>
       <use x="63.623047" xlink:href="#DejaVuSans-49"/>
       <use x="127.246094" xlink:href="#DejaVuSans-48"/>
      </g>
     </g>
    </g>
    <g id="xtick_4">
     <g id="line2d_4">
      <g>
       <use style="stroke:#000000;stroke-width:0.8;" x="302.906837" xlink:href="#m8912bd7b84" y="276.812"/>
      </g>
     </g>
     <g id="text_4">
      <!-- 220 -->
      <g transform="translate(293.363087 291.410437)scale(0.1 -0.1)">
       <use xlink:href="#DejaVuSans-50"/>
       <use x="63.623047" xlink:href="#DejaVuSans-50"/>
       <use x="127.246094" xlink:href="#DejaVuSans-48"/>
      </g>
     </g>
    </g>
    <g id="xtick_5">
     <g id="line2d_5">
      <g>
       <use style="stroke:#000000;stroke-width:0.8;" x="375.323702" xlink:href="#m8912bd7b84" y="276.812"/>
      </g>
     </g>
     <g id="text_5">
      <!-- 230 -->
      <defs>
       <path d="M 40.578125 39.3125 
Q 47.65625 37.796875 51.625 33 
Q 55.609375 28.21875 55.609375 21.1875 
Q 55.609375 10.40625 48.1875 4.484375 
Q 40.765625 -1.421875 27.09375 -1.421875 
Q 22.515625 -1.421875 17.65625 -0.515625 
Q 12.796875 0.390625 7.625 2.203125 
L 7.625 11.71875 
Q 11.71875 9.328125 16.59375 8.109375 
Q 21.484375 6.890625 26.8125 6.890625 
Q 36.078125 6.890625 40.9375 10.546875 
Q 45.796875 14.203125 45.796875 21.1875 
Q 45.796875 27.640625 41.28125 31.265625 
Q 36.765625 34.90625 28.71875 34.90625 
L 20.21875 34.90625 
L 20.21875 43.015625 
L 29.109375 43.015625 
Q 36.375 43.015625 40.234375 45.921875 
Q 44.09375 48.828125 44.09375 54.296875 
Q 44.09375 59.90625 40.109375 62.90625 
Q 36.140625 65.921875 28.71875 65.921875 
Q 24.65625 65.921875 20.015625 65.03125 
Q 15.375 64.15625 9.8125 62.3125 
L 9.8125 71.09375 
Q 15.4375 72.65625 20.34375 73.4375 
Q 25.25 74.21875 29.59375 74.21875 
Q 40.828125 74.21875 47.359375 69.109375 
Q 53.90625 64.015625 53.90625 55.328125 
Q 53.90625 49.265625 50.4375 45.09375 
Q 46.96875 40.921875 40.578125 39.3125 
z
" id="DejaVuSans-51"/>
      </defs>
      <g transform="translate(365.779952 291.410437)scale(0.1 -0.1)">
       <use xlink:href="#DejaVuSans-50"/>
       <use x="63.623047" xlink:href="#DejaVuSans-51"/>
       <use x="127.246094" xlink:href="#DejaVuSans-48"/>
      </g>
     </g>
    </g>
    <g id="text_6">
     <!-- +1.596175e9 -->
     <defs>
      <path d="M 46 62.703125 
L 46 35.5 
L 73.1875 35.5 
L 73.1875 27.203125 
L 46 27.203125 
L 46 0 
L 37.796875 0 
L 37.796875 27.203125 
L 10.59375 27.203125 
L 10.59375 35.5 
L 37.796875 35.5 
L 37.796875 62.703125 
z
" id="DejaVuSans-43"/>
      <path d="M 10.6875 12.40625 
L 21 12.40625 
L 21 0 
L 10.6875 0 
z
" id="DejaVuSans-46"/>
      <path d="M 10.796875 72.90625 
L 49.515625 72.90625 
L 49.515625 64.59375 
L 19.828125 64.59375 
L 19.828125 46.734375 
Q 21.96875 47.46875 24.109375 47.828125 
Q 26.265625 48.1875 28.421875 48.1875 
Q 40.625 48.1875 47.75 41.5 
Q 54.890625 34.8125 54.890625 23.390625 
Q 54.890625 11.625 47.5625 5.09375 
Q 40.234375 -1.421875 26.90625 -1.421875 
Q 22.3125 -1.421875 17.546875 -0.640625 
Q 12.796875 0.140625 7.71875 1.703125 
L 7.71875 11.625 
Q 12.109375 9.234375 16.796875 8.0625 
Q 21.484375 6.890625 26.703125 6.890625 
Q 35.15625 6.890625 40.078125 11.328125 
Q 45.015625 15.765625 45.015625 23.390625 
Q 45.015625 31 40.078125 35.4375 
Q 35.15625 39.890625 26.703125 39.890625 
Q 22.75 39.890625 18.8125 39.015625 
Q 14.890625 38.140625 10.796875 36.28125 
z
" id="DejaVuSans-53"/>
      <path d="M 33.015625 40.375 
Q 26.375 40.375 22.484375 35.828125 
Q 18.609375 31.296875 18.609375 23.390625 
Q 18.609375 15.53125 22.484375 10.953125 
Q 26.375 6.390625 33.015625 6.390625 
Q 39.65625 6.390625 43.53125 10.953125 
Q 47.40625 15.53125 47.40625 23.390625 
Q 47.40625 31.296875 43.53125 35.828125 
Q 39.65625 40.375 33.015625 40.375 
z
M 52.59375 71.296875 
L 52.59375 62.3125 
Q 48.875 64.0625 45.09375 64.984375 
Q 41.3125 65.921875 37.59375 65.921875 
Q 27.828125 65.921875 22.671875 59.328125 
Q 17.53125 52.734375 16.796875 39.40625 
Q 19.671875 43.65625 24.015625 45.921875 
Q 28.375 48.1875 33.59375 48.1875 
Q 44.578125 48.1875 50.953125 41.515625 
Q 57.328125 34.859375 57.328125 23.390625 
Q 57.328125 12.15625 50.6875 5.359375 
Q 44.046875 -1.421875 33.015625 -1.421875 
Q 20.359375 -1.421875 13.671875 8.265625 
Q 6.984375 17.96875 6.984375 36.375 
Q 6.984375 53.65625 15.1875 63.9375 
Q 23.390625 74.21875 37.203125 74.21875 
Q 40.921875 74.21875 44.703125 73.484375 
Q 48.484375 72.75 52.59375 71.296875 
z
" id="DejaVuSans-54"/>
      <path d="M 8.203125 72.90625 
L 55.078125 72.90625 
L 55.078125 68.703125 
L 28.609375 0 
L 18.3125 0 
L 43.21875 64.59375 
L 8.203125 64.59375 
z
" id="DejaVuSans-55"/>
      <path d="M 56.203125 29.59375 
L 56.203125 25.203125 
L 14.890625 25.203125 
Q 15.484375 15.921875 20.484375 11.0625 
Q 25.484375 6.203125 34.421875 6.203125 
Q 39.59375 6.203125 44.453125 7.46875 
Q 49.3125 8.734375 54.109375 11.28125 
L 54.109375 2.78125 
Q 49.265625 0.734375 44.1875 -0.34375 
Q 39.109375 -1.421875 33.890625 -1.421875 
Q 20.796875 -1.421875 13.15625 6.1875 
Q 5.515625 13.8125 5.515625 26.8125 
Q 5.515625 40.234375 12.765625 48.109375 
Q 20.015625 56 32.328125 56 
Q 43.359375 56 49.78125 48.890625 
Q 56.203125 41.796875 56.203125 29.59375 
z
M 47.21875 32.234375 
Q 47.125 39.59375 43.09375 43.984375 
Q 39.0625 48.390625 32.421875 48.390625 
Q 24.90625 48.390625 20.390625 44.140625 
Q 15.875 39.890625 15.1875 32.171875 
z
" id="DejaVuSans-101"/>
     </defs>
     <g transform="translate(321.796563 304.088562)scale(0.1 -0.1)">
      <use xlink:href="#DejaVuSans-43"/>
      <use x="83.789062" xlink:href="#DejaVuSans-49"/>
      <use x="147.412109" xlink:href="#DejaVuSans-46"/>
      <use x="179.199219" xlink:href="#DejaVuSans-53"/>
      <use x="242.822266" xlink:href="#DejaVuSans-57"/>
      <use x="306.445312" xlink:href="#DejaVuSans-54"/>
      <use x="370.068359" xlink:href="#DejaVuSans-49"/>
      <use x="433.691406" xlink:href="#DejaVuSans-55"/>
      <use x="497.314453" xlink:href="#DejaVuSans-53"/>
      <use x="560.9375" xlink:href="#DejaVuSans-101"/>
      <use x="622.460938" xlink:href="#DejaVuSans-57"/>
     </g>
    </g>
   </g>
   <g id="matplotlib.axis_2">
    <g id="ytick_1">
     <g id="line2d_6">
      <defs>
       <path d="M 0 0 
L -3.5 0 
" id="m5129dafa08" style="stroke:#000000;stroke-width:0.8;"/>
      </defs>
      <g>
       <use style="stroke:#000000;stroke-width:0.8;" x="33.2875" xlink:href="#m5129dafa08" y="226.634261"/>
      </g>
     </g>
     <g id="text_7">
      <!-- 130 -->
      <g transform="translate(7.2 230.43348)scale(0.1 -0.1)">
       <use xlink:href="#DejaVuSans-49"/>
       <use x="63.623047" xlink:href="#DejaVuSans-51"/>
       <use x="127.246094" xlink:href="#DejaVuSans-48"/>
      </g>
     </g>
    </g>
    <g id="ytick_2">
     <g id="line2d_7">
      <g>
       <use style="stroke:#000000;stroke-width:0.8;" x="33.2875" xlink:href="#m5129dafa08" y="170.025006"/>
      </g>
     </g>
     <g id="text_8">
      <!-- 140 -->
      <defs>
       <path d="M 37.796875 64.3125 
L 12.890625 25.390625 
L 37.796875 25.390625 
z
M 35.203125 72.90625 
L 47.609375 72.90625 
L 47.609375 25.390625 
L 58.015625 25.390625 
L 58.015625 17.1875 
L 47.609375 17.1875 
L 47.609375 0 
L 37.796875 0 
L 37.796875 17.1875 
L 4.890625 17.1875 
L 4.890625 26.703125 
z
" id="DejaVuSans-52"/>
      </defs>
      <g transform="translate(7.2 173.824225)scale(0.1 -0.1)">
       <use xlink:href="#DejaVuSans-49"/>
       <use x="63.623047" xlink:href="#DejaVuSans-52"/>
       <use x="127.246094" xlink:href="#DejaVuSans-48"/>
      </g>
     </g>
    </g>
    <g id="ytick_3">
     <g id="line2d_8">
      <g>
       <use style="stroke:#000000;stroke-width:0.8;" x="33.2875" xlink:href="#m5129dafa08" y="113.415752"/>
      </g>
     </g>
     <g id="text_9">
      <!-- 150 -->
      <g transform="translate(7.2 117.21497)scale(0.1 -0.1)">
       <use xlink:href="#DejaVuSans-49"/>
       <use x="63.623047" xlink:href="#DejaVuSans-53"/>
       <use x="127.246094" xlink:href="#DejaVuSans-48"/>
      </g>
     </g>
    </g>
    <g id="ytick_4">
     <g id="line2d_9">
      <g>
       <use style="stroke:#000000;stroke-width:0.8;" x="33.2875" xlink:href="#m5129dafa08" y="56.806497"/>
      </g>
     </g>
     <g id="text_10">
      <!-- 160 -->
      <g transform="translate(7.2 60.605716)scale(0.1 -0.1)">
       <use xlink:href="#DejaVuSans-49"/>
       <use x="63.623047" xlink:href="#DejaVuSans-54"/>
       <use x="127.246094" xlink:href="#DejaVuSans-48"/>
      </g>
     </g>
    </g>
   </g>
   <g id="line2d_10">
    <path clip-path="url(#pe796e06e7f)" d="M 49.520227 22.855035 
L 50.678896 22.831469 
L 52.19965 22.84726 
L 56.48052 22.807661 
L 57.711605 22.822481 
L 58.073689 22.799644 
L 59.015106 22.814706 
L 60.897943 22.801102 
L 61.549694 22.811791 
L 61.622112 47.505992 
L 61.694529 47.502591 
L 63.577366 47.500162 
L 64.446367 47.512309 
L 65.242952 47.488744 
L 65.677452 47.486314 
L 68.791374 47.501619 
L 69.298292 47.50332 
L 69.370708 47.508908 
L 69.515543 37.263668 
L 73.283463 37.271443 
L 73.645546 37.254194 
L 74.007629 37.26707 
L 75.81805 37.284318 
L 75.890467 68.079737 
L 75.962883 68.077065 
L 76.831884 68.07828 
L 79.22164 68.080466 
L 79.87339 68.07828 
L 83.711481 68.089941 
L 83.856314 48.373247 
L 85.166279 48.391225 
L 86.904282 48.397055 
L 89.873371 48.365473 
L 90.090622 48.395112 
L 90.163038 79.007893 
L 90.235455 79.006678 
L 94.942547 78.997446 
L 95.377047 79.020282 
L 95.666714 78.993559 
L 96.608133 79.012023 
L 97.115049 78.999875 
L 98.128885 78.990158 
L 98.201302 48.509098 
L 98.278294 48.513957 
L 99.871464 48.5142 
L 104.361305 48.52416 
L 104.506138 79.144104 
L 112.399569 79.11981 
L 112.471987 68.92674 
L 112.544403 68.927468 
L 113.780201 68.917265 
L 114.142284 68.92844 
L 115.300953 68.919694 
L 115.880287 68.925768 
L 118.632126 68.920423 
L 118.776958 99.558462 
L 120.732212 99.575468 
L 121.094297 99.555547 
L 121.673632 99.567694 
L 124.280636 99.544615 
L 124.642719 99.561377 
L 125.222054 99.549959 
L 126.163473 99.576197 
L 126.45314 99.5434 
L 126.525557 99.647864 
L 126.670389 99.568909 
L 126.815224 99.567451 
L 126.965057 69.050537 
L 132.903234 69.058554 
L 132.975651 99.718655 
L 133.048067 99.714039 
L 135.365406 99.729587 
L 135.94474 99.70335 
L 136.668907 99.709909 
L 137.899994 99.723514 
L 141.086332 99.707966 
L 141.158749 89.514492 
L 141.231165 89.523966 
L 147.174414 89.518379 
L 147.24683 120.138276 
L 147.319248 120.110824 
L 148.260666 120.138519 
L 148.622749 120.120298 
L 150.795254 120.121513 
L 151.664255 120.123942 
L 152.316006 120.106451 
L 152.678091 120.133903 
L 153.474674 120.104507 
L 154.48851 120.130745 
L 154.850594 120.134146 
L 155.502346 120.113982 
L 155.652739 89.619879 
L 156.811407 89.634942 
L 157.318325 89.620608 
L 157.825243 89.641744 
L 158.839077 89.621094 
L 161.446083 89.612834 
L 161.518499 120.284569 
L 161.590916 120.274851 
L 162.387501 120.285784 
L 165.718674 120.285298 
L 166.442841 120.285298 
L 168.325678 120.281897 
L 169.774014 120.286512 
L 169.84643 110.059532 
L 169.918848 110.07751 
L 172.169373 110.056131 
L 172.676291 110.08577 
L 173.255625 110.074837 
L 175.717794 110.082611 
L 175.790213 140.707769 
L 175.862629 140.685662 
L 176.297129 140.703153 
L 179.193802 140.702182 
L 184.190559 140.693922 
L 184.341337 110.204921 
L 184.775837 110.208808 
L 185.644838 110.223142 
L 189.772596 110.221684 
L 189.989847 110.205893 
L 190.062263 140.865544 
L 190.13468 140.851939 
L 191.72785 140.876719 
L 192.089933 140.856798 
L 192.669268 140.861414 
L 197.955694 140.861171 
L 198.462612 140.85777 
L 198.535028 130.650949 
L 198.607445 130.669656 
L 202.451582 130.658966 
L 203.248167 130.66091 
L 203.899918 130.653865 
L 204.262001 130.667226 
L 204.406836 161.318865 
L 206.57934 161.323481 
L 206.941423 161.308661 
L 207.520758 161.319594 
L 212.879601 161.317893 
L 213.030825 130.821333 
L 213.682575 130.835424 
L 214.986078 130.836396 
L 218.5345 130.829593 
L 218.606916 161.469753 
L 218.679335 161.452504 
L 219.041418 161.46708 
L 219.693169 161.454933 
L 220.417337 161.468052 
L 221.50359 161.439628 
L 221.720839 161.461007 
L 222.517424 161.444973 
L 222.879509 161.458335 
L 227.1521 161.445216 
L 227.296932 151.246058 
L 228.462271 151.247273 
L 229.548523 151.252132 
L 231.358942 151.268409 
L 231.938276 151.246544 
L 232.80728 151.240957 
L 232.879696 181.918371 
L 232.952112 181.911326 
L 233.676281 181.909868 
L 235.197033 181.921529 
L 235.921202 181.920315 
L 237.152287 181.909382 
L 239.831707 181.903066 
L 240.483459 181.912783 
L 241.13521 181.895049 
L 241.569712 181.896749 
L 241.642128 151.433226 
L 241.721514 151.440271 
L 242.300848 151.437113 
L 242.952599 151.439542 
L 244.038851 151.436141 
L 245.921686 151.441486 
L 246.356188 151.427881 
L 247.080357 151.436141 
L 247.225189 182.11292 
L 247.804523 182.091541 
L 248.528692 182.085225 
L 250.266695 182.106361 
L 251.642614 182.101988 
L 255.842789 182.084496 
L 255.987621 171.876559 
L 259.181129 171.905469 
L 259.543213 171.898666 
L 260.484632 171.896966 
L 261.063967 171.887977 
L 261.353634 171.887491 
L 261.498466 202.558933 
L 264.105471 202.549459 
L 266.133142 202.560634 
L 267.002144 202.548487 
L 267.50906 202.555046 
L 269.826399 202.551645 
L 270.260899 202.570594 
L 270.333315 172.056117 
L 270.413189 172.058304 
L 271.716692 172.056846 
L 273.889196 172.063891 
L 274.758198 172.063163 
L 275.627199 172.056846 
L 275.699615 202.703131 
L 275.772032 202.687826 
L 277.437618 202.695114 
L 278.668705 202.690013 
L 279.320456 202.6956 
L 280.696375 202.696086 
L 284.534464 202.711634 
L 284.679298 192.499238 
L 284.976633 192.522804 
L 285.483551 192.500696 
L 286.135302 192.514058 
L 289.900974 192.525962 
L 289.973392 223.17911 
L 290.045809 223.170607 
L 291.638979 223.187856 
L 291.928646 223.17741 
L 292.725229 223.18324 
L 294.028732 223.179596 
L 298.953075 223.191014 
L 299.105976 192.671212 
L 300.409479 192.690161 
L 304.175152 192.6802 
L 304.319986 223.34428 
L 304.971737 223.33602 
L 305.33382 223.349139 
L 308.158075 223.358128 
L 308.592577 223.344523 
L 309.389162 223.346952 
L 309.896078 223.335777 
L 310.258163 223.33602 
L 311.706499 223.32776 
L 312.213417 223.339421 
L 312.865168 223.351568 
L 313.227251 223.353755 
L 313.372086 213.151946 
L 314.321854 213.162879 
L 314.901188 213.148545 
L 316.132273 213.161178 
L 316.856441 213.158992 
L 318.44961 213.166523 
L 318.594444 243.833144 
L 319.680696 243.826099 
L 320.404863 243.825127 
L 320.839365 243.815895 
L 321.273865 243.835088 
L 322.432533 243.836545 
L 323.446369 243.820511 
L 324.315371 243.820754 
L 327.139626 243.831443 
L 327.646544 243.822455 
L 327.71896 213.327628 
L 327.800064 213.342448 
L 329.175983 213.356052 
L 330.262236 213.330786 
L 330.551903 213.34682 
L 332.217489 213.349979 
L 332.724407 213.361154 
L 332.86924 244.003264 
L 333.376158 244.003021 
L 341.921341 244.003021 
L 341.993757 233.818758 
L 342.066174 233.824588 
L 343.088985 233.829933 
L 343.595903 233.8156 
L 344.102819 233.827018 
L 344.754572 233.82969 
L 345.623573 233.816571 
L 346.999493 233.813656 
L 347.071909 264.49366 
L 347.144325 264.482728 
L 350.692749 264.495846 
L 351.779001 264.481027 
L 352.213501 264.494389 
L 353.879087 264.476168 
L 354.241171 264.49779 
L 355.18259 264.481513 
L 355.61709 264.507022 
L 356.341259 264.505321 
L 356.495468 234.022431 
L 356.929968 234.039193 
L 357.943804 234.025832 
L 359.247305 234.033849 
L 361.130142 234.026803 
L 361.274977 234.027289 
L 361.419809 264.69122 
L 362.795729 264.691706 
L 364.606148 264.682717 
L 364.895815 264.695836 
L 365.909651 264.691463 
L 370.616743 264.68709 
L 370.689159 254.485469 
L 370.761576 254.4913 
L 371.350517 254.486927 
L 371.929852 254.506362 
L 372.798853 254.48717 
L 373.08852 254.50369 
L 373.740271 254.479639 
L 374.174772 254.49713 
L 374.174772 254.49713 
" style="fill:none;stroke:#ff0000;stroke-linecap:square;stroke-width:1.5;"/>
   </g>
   <g id="patch_3">
    <path d="M 33.2875 276.812 
L 33.2875 10.7 
" style="fill:none;stroke:#000000;stroke-linecap:square;stroke-linejoin:miter;stroke-width:0.8;"/>
   </g>
   <g id="patch_4">
    <path d="M 390.4075 276.812 
L 390.4075 10.7 
" style="fill:none;stroke:#000000;stroke-linecap:square;stroke-linejoin:miter;stroke-width:0.8;"/>
   </g>
   <g id="patch_5">
    <path d="M 33.2875 276.812 
L 390.407499 276.812 
" style="fill:none;stroke:#000000;stroke-linecap:square;stroke-linejoin:miter;stroke-width:0.8;"/>
   </g>
   <g id="patch_6">
    <path d="M 33.2875 10.7 
L 390.407499 10.7 
" style="fill:none;stroke:#000000;stroke-linecap:square;stroke-linejoin:miter;stroke-width:0.8;"/>
   </g>
  </g>
 </g>
 <defs>
  <clipPath id="pe796e06e7f">
   <rect height="266.112" width="357.12" x="33.2875" y="10.7"/>
  </clipPath>
 </defs>
</svg>
