<?xml version="1.0" encoding="utf-8" standalone="no"?>
<!DOCTYPE svg PUBLIC "-//W3C//DTD SVG 1.1//EN"
  "http://www.w3.org/Graphics/SVG/1.1/DTD/svg11.dtd">
<!-- Created with matplotlib (https://matplotlib.org/) -->
<svg height="313.36825pt" version="1.1" viewBox="0 0 401.1075 313.36825" width="401.1075pt" xmlns="http://www.w3.org/2000/svg" xmlns:xlink="http://www.w3.org/1999/xlink">
 <defs>
  <style type="text/css">
*{stroke-linecap:butt;stroke-linejoin:round;}
  </style>
 </defs>
 <g id="figure_1">
  <g id="patch_1">
   <path d="M 0 313.36825 
L 401.1075 313.36825 
L 401.1075 0 
L 0 0 
z
" style="fill:#ffffff;"/>
  </g>
  <g id="axes_1">
   <g id="patch_2">
    <path d="M 33.2875 276.812 
L 390.4075 276.812 
L 390.4075 10.7 
L 33.2875 10.7 
z
" style="fill:#ffffff;"/>
   </g>
   <g id="matplotlib.axis_1">
    <g id="xtick_1">
     <g id="line2d_1">
      <defs>
       <path d="M 0 0 
L 0 3.5 
" id="m1f802577fe" style="stroke:#000000;stroke-width:0.8;"/>
      </defs>
      <g>
       <use style="stroke:#000000;stroke-width:0.8;" x="49.520227" xlink:href="#m1f802577fe" y="276.812"/>
      </g>
     </g>
     <g id="text_1">
      <!-- 40 -->
      <defs>
       <path d="M 37.796875 64.3125 
L 12.890625 25.390625 
L 37.796875 25.390625 
z
M 35.203125 72.90625 
L 47.609375 72.90625 
L 47.609375 25.390625 
L 58.015625 25.390625 
L 58.015625 17.1875 
L 47.609375 17.1875 
L 47.609375 0 
L 37.796875 0 
L 37.796875 17.1875 
L 4.890625 17.1875 
L 4.890625 26.703125 
z
" id="DejaVuSans-52"/>
       <path d="M 31.78125 66.40625 
Q 24.171875 66.40625 20.328125 58.90625 
Q 16.5 51.421875 16.5 36.375 
Q 16.5 21.390625 20.328125 13.890625 
Q 24.171875 6.390625 31.78125 6.390625 
Q 39.453125 6.390625 43.28125 13.890625 
Q 47.125 21.390625 47.125 36.375 
Q 47.125 51.421875 43.28125 58.90625 
Q 39.453125 66.40625 31.78125 66.40625 
z
M 31.78125 74.21875 
Q 44.046875 74.21875 50.515625 64.515625 
Q 56.984375 54.828125 56.984375 36.375 
Q 56.984375 17.96875 50.515625 8.265625 
Q 44.046875 -1.421875 31.78125 -1.421875 
Q 19.53125 -1.421875 13.0625 8.265625 
Q 6.59375 17.96875 6.59375 36.375 
Q 6.59375 54.828125 13.0625 64.515625 
Q 19.53125 74.21875 31.78125 74.21875 
z
" id="DejaVuSans-48"/>
      </defs>
      <g transform="translate(43.157727 291.410437)scale(0.1 -0.1)">
       <use xlink:href="#DejaVuSans-52"/>
       <use x="63.623047" xlink:href="#DejaVuSans-48"/>
      </g>
     </g>
    </g>
    <g id="xtick_2">
     <g id="line2d_2">
      <g>
       <use style="stroke:#000000;stroke-width:0.8;" x="121.671925" xlink:href="#m1f802577fe" y="276.812"/>
      </g>
     </g>
     <g id="text_2">
      <!-- 50 -->
      <defs>
       <path d="M 10.796875 72.90625 
L 49.515625 72.90625 
L 49.515625 64.59375 
L 19.828125 64.59375 
L 19.828125 46.734375 
Q 21.96875 47.46875 24.109375 47.828125 
Q 26.265625 48.1875 28.421875 48.1875 
Q 40.625 48.1875 47.75 41.5 
Q 54.890625 34.8125 54.890625 23.390625 
Q 54.890625 11.625 47.5625 5.09375 
Q 40.234375 -1.421875 26.90625 -1.421875 
Q 22.3125 -1.421875 17.546875 -0.640625 
Q 12.796875 0.140625 7.71875 1.703125 
L 7.71875 11.625 
Q 12.109375 9.234375 16.796875 8.0625 
Q 21.484375 6.890625 26.703125 6.890625 
Q 35.15625 6.890625 40.078125 11.328125 
Q 45.015625 15.765625 45.015625 23.390625 
Q 45.015625 31 40.078125 35.4375 
Q 35.15625 39.890625 26.703125 39.890625 
Q 22.75 39.890625 18.8125 39.015625 
Q 14.890625 38.140625 10.796875 36.28125 
z
" id="DejaVuSans-53"/>
      </defs>
      <g transform="translate(115.309425 291.410437)scale(0.1 -0.1)">
       <use xlink:href="#DejaVuSans-53"/>
       <use x="63.623047" xlink:href="#DejaVuSans-48"/>
      </g>
     </g>
    </g>
    <g id="xtick_3">
     <g id="line2d_3">
      <g>
       <use style="stroke:#000000;stroke-width:0.8;" x="193.82362" xlink:href="#m1f802577fe" y="276.812"/>
      </g>
     </g>
     <g id="text_3">
      <!-- 60 -->
      <defs>
       <path d="M 33.015625 40.375 
Q 26.375 40.375 22.484375 35.828125 
Q 18.609375 31.296875 18.609375 23.390625 
Q 18.609375 15.53125 22.484375 10.953125 
Q 26.375 6.390625 33.015625 6.390625 
Q 39.65625 6.390625 43.53125 10.953125 
Q 47.40625 15.53125 47.40625 23.390625 
Q 47.40625 31.296875 43.53125 35.828125 
Q 39.65625 40.375 33.015625 40.375 
z
M 52.59375 71.296875 
L 52.59375 62.3125 
Q 48.875 64.0625 45.09375 64.984375 
Q 41.3125 65.921875 37.59375 65.921875 
Q 27.828125 65.921875 22.671875 59.328125 
Q 17.53125 52.734375 16.796875 39.40625 
Q 19.671875 43.65625 24.015625 45.921875 
Q 28.375 48.1875 33.59375 48.1875 
Q 44.578125 48.1875 50.953125 41.515625 
Q 57.328125 34.859375 57.328125 23.390625 
Q 57.328125 12.15625 50.6875 5.359375 
Q 44.046875 -1.421875 33.015625 -1.421875 
Q 20.359375 -1.421875 13.671875 8.265625 
Q 6.984375 17.96875 6.984375 36.375 
Q 6.984375 53.65625 15.1875 63.9375 
Q 23.390625 74.21875 37.203125 74.21875 
Q 40.921875 74.21875 44.703125 73.484375 
Q 48.484375 72.75 52.59375 71.296875 
z
" id="DejaVuSans-54"/>
      </defs>
      <g transform="translate(187.46112 291.410437)scale(0.1 -0.1)">
       <use xlink:href="#DejaVuSans-54"/>
       <use x="63.623047" xlink:href="#DejaVuSans-48"/>
      </g>
     </g>
    </g>
    <g id="xtick_4">
     <g id="line2d_4">
      <g>
       <use style="stroke:#000000;stroke-width:0.8;" x="265.975317" xlink:href="#m1f802577fe" y="276.812"/>
      </g>
     </g>
     <g id="text_4">
      <!-- 70 -->
      <defs>
       <path d="M 8.203125 72.90625 
L 55.078125 72.90625 
L 55.078125 68.703125 
L 28.609375 0 
L 18.3125 0 
L 43.21875 64.59375 
L 8.203125 64.59375 
z
" id="DejaVuSans-55"/>
      </defs>
      <g transform="translate(259.612817 291.410437)scale(0.1 -0.1)">
       <use xlink:href="#DejaVuSans-55"/>
       <use x="63.623047" xlink:href="#DejaVuSans-48"/>
      </g>
     </g>
    </g>
    <g id="xtick_5">
     <g id="line2d_5">
      <g>
       <use style="stroke:#000000;stroke-width:0.8;" x="338.127012" xlink:href="#m1f802577fe" y="276.812"/>
      </g>
     </g>
     <g id="text_5">
      <!-- 80 -->
      <defs>
       <path d="M 31.78125 34.625 
Q 24.75 34.625 20.71875 30.859375 
Q 16.703125 27.09375 16.703125 20.515625 
Q 16.703125 13.921875 20.71875 10.15625 
Q 24.75 6.390625 31.78125 6.390625 
Q 38.8125 6.390625 42.859375 10.171875 
Q 46.921875 13.96875 46.921875 20.515625 
Q 46.921875 27.09375 42.890625 30.859375 
Q 38.875 34.625 31.78125 34.625 
z
M 21.921875 38.8125 
Q 15.578125 40.375 12.03125 44.71875 
Q 8.5 49.078125 8.5 55.328125 
Q 8.5 64.0625 14.71875 69.140625 
Q 20.953125 74.21875 31.78125 74.21875 
Q 42.671875 74.21875 48.875 69.140625 
Q 55.078125 64.0625 55.078125 55.328125 
Q 55.078125 49.078125 51.53125 44.71875 
Q 48 40.375 41.703125 38.8125 
Q 48.828125 37.15625 52.796875 32.3125 
Q 56.78125 27.484375 56.78125 20.515625 
Q 56.78125 9.90625 50.3125 4.234375 
Q 43.84375 -1.421875 31.78125 -1.421875 
Q 19.734375 -1.421875 13.25 4.234375 
Q 6.78125 9.90625 6.78125 20.515625 
Q 6.78125 27.484375 10.78125 32.3125 
Q 14.796875 37.15625 21.921875 38.8125 
z
M 18.3125 54.390625 
Q 18.3125 48.734375 21.84375 45.5625 
Q 25.390625 42.390625 31.78125 42.390625 
Q 38.140625 42.390625 41.71875 45.5625 
Q 45.3125 48.734375 45.3125 54.390625 
Q 45.3125 60.0625 41.71875 63.234375 
Q 38.140625 66.40625 31.78125 66.40625 
Q 25.390625 66.40625 21.84375 63.234375 
Q 18.3125 60.0625 18.3125 54.390625 
z
" id="DejaVuSans-56"/>
      </defs>
      <g transform="translate(331.764512 291.410437)scale(0.1 -0.1)">
       <use xlink:href="#DejaVuSans-56"/>
       <use x="63.623047" xlink:href="#DejaVuSans-48"/>
      </g>
     </g>
    </g>
    <g id="text_6">
     <!-- +1.5961752e9 -->
     <defs>
      <path d="M 46 62.703125 
L 46 35.5 
L 73.1875 35.5 
L 73.1875 27.203125 
L 46 27.203125 
L 46 0 
L 37.796875 0 
L 37.796875 27.203125 
L 10.59375 27.203125 
L 10.59375 35.5 
L 37.796875 35.5 
L 37.796875 62.703125 
z
" id="DejaVuSans-43"/>
      <path d="M 12.40625 8.296875 
L 28.515625 8.296875 
L 28.515625 63.921875 
L 10.984375 60.40625 
L 10.984375 69.390625 
L 28.421875 72.90625 
L 38.28125 72.90625 
L 38.28125 8.296875 
L 54.390625 8.296875 
L 54.390625 0 
L 12.40625 0 
z
" id="DejaVuSans-49"/>
      <path d="M 10.6875 12.40625 
L 21 12.40625 
L 21 0 
L 10.6875 0 
z
" id="DejaVuSans-46"/>
      <path d="M 10.984375 1.515625 
L 10.984375 10.5 
Q 14.703125 8.734375 18.5 7.8125 
Q 22.3125 6.890625 25.984375 6.890625 
Q 35.75 6.890625 40.890625 13.453125 
Q 46.046875 20.015625 46.78125 33.40625 
Q 43.953125 29.203125 39.59375 26.953125 
Q 35.25 24.703125 29.984375 24.703125 
Q 19.046875 24.703125 12.671875 31.3125 
Q 6.296875 37.9375 6.296875 49.421875 
Q 6.296875 60.640625 12.9375 67.421875 
Q 19.578125 74.21875 30.609375 74.21875 
Q 43.265625 74.21875 49.921875 64.515625 
Q 56.59375 54.828125 56.59375 36.375 
Q 56.59375 19.140625 48.40625 8.859375 
Q 40.234375 -1.421875 26.421875 -1.421875 
Q 22.703125 -1.421875 18.890625 -0.6875 
Q 15.09375 0.046875 10.984375 1.515625 
z
M 30.609375 32.421875 
Q 37.25 32.421875 41.125 36.953125 
Q 45.015625 41.5 45.015625 49.421875 
Q 45.015625 57.28125 41.125 61.84375 
Q 37.25 66.40625 30.609375 66.40625 
Q 23.96875 66.40625 20.09375 61.84375 
Q 16.21875 57.28125 16.21875 49.421875 
Q 16.21875 41.5 20.09375 36.953125 
Q 23.96875 32.421875 30.609375 32.421875 
z
" id="DejaVuSans-57"/>
      <path d="M 19.1875 8.296875 
L 53.609375 8.296875 
L 53.609375 0 
L 7.328125 0 
L 7.328125 8.296875 
Q 12.9375 14.109375 22.625 23.890625 
Q 32.328125 33.6875 34.8125 36.53125 
Q 39.546875 41.84375 41.421875 45.53125 
Q 43.3125 49.21875 43.3125 52.78125 
Q 43.3125 58.59375 39.234375 62.25 
Q 35.15625 65.921875 28.609375 65.921875 
Q 23.96875 65.921875 18.8125 64.3125 
Q 13.671875 62.703125 7.8125 59.421875 
L 7.8125 69.390625 
Q 13.765625 71.78125 18.9375 73 
Q 24.125 74.21875 28.421875 74.21875 
Q 39.75 74.21875 46.484375 68.546875 
Q 53.21875 62.890625 53.21875 53.421875 
Q 53.21875 48.921875 51.53125 44.890625 
Q 49.859375 40.875 45.40625 35.40625 
Q 44.1875 33.984375 37.640625 27.21875 
Q 31.109375 20.453125 19.1875 8.296875 
z
" id="DejaVuSans-50"/>
      <path d="M 56.203125 29.59375 
L 56.203125 25.203125 
L 14.890625 25.203125 
Q 15.484375 15.921875 20.484375 11.0625 
Q 25.484375 6.203125 34.421875 6.203125 
Q 39.59375 6.203125 44.453125 7.46875 
Q 49.3125 8.734375 54.109375 11.28125 
L 54.109375 2.78125 
Q 49.265625 0.734375 44.1875 -0.34375 
Q 39.109375 -1.421875 33.890625 -1.421875 
Q 20.796875 -1.421875 13.15625 6.1875 
Q 5.515625 13.8125 5.515625 26.8125 
Q 5.515625 40.234375 12.765625 48.109375 
Q 20.015625 56 32.328125 56 
Q 43.359375 56 49.78125 48.890625 
Q 56.203125 41.796875 56.203125 29.59375 
z
M 47.21875 32.234375 
Q 47.125 39.59375 43.09375 43.984375 
Q 39.0625 48.390625 32.421875 48.390625 
Q 24.90625 48.390625 20.390625 44.140625 
Q 15.875 39.890625 15.1875 32.171875 
z
" id="DejaVuSans-101"/>
     </defs>
     <g transform="translate(315.434063 304.088562)scale(0.1 -0.1)">
      <use xlink:href="#DejaVuSans-43"/>
      <use x="83.789062" xlink:href="#DejaVuSans-49"/>
      <use x="147.412109" xlink:href="#DejaVuSans-46"/>
      <use x="179.199219" xlink:href="#DejaVuSans-53"/>
      <use x="242.822266" xlink:href="#DejaVuSans-57"/>
      <use x="306.445312" xlink:href="#DejaVuSans-54"/>
      <use x="370.068359" xlink:href="#DejaVuSans-49"/>
      <use x="433.691406" xlink:href="#DejaVuSans-55"/>
      <use x="497.314453" xlink:href="#DejaVuSans-53"/>
      <use x="560.9375" xlink:href="#DejaVuSans-50"/>
      <use x="624.560547" xlink:href="#DejaVuSans-101"/>
      <use x="686.083984" xlink:href="#DejaVuSans-57"/>
     </g>
    </g>
   </g>
   <g id="matplotlib.axis_2">
    <g id="ytick_1">
     <g id="line2d_6">
      <defs>
       <path d="M 0 0 
L -3.5 0 
" id="m8d73170fab" style="stroke:#000000;stroke-width:0.8;"/>
      </defs>
      <g>
       <use style="stroke:#000000;stroke-width:0.8;" x="33.2875" xlink:href="#m8d73170fab" y="264.716"/>
      </g>
     </g>
     <g id="text_7">
      <!-- 0 -->
      <g transform="translate(19.925 268.515219)scale(0.1 -0.1)">
       <use xlink:href="#DejaVuSans-48"/>
      </g>
     </g>
    </g>
    <g id="ytick_2">
     <g id="line2d_7">
      <g>
       <use style="stroke:#000000;stroke-width:0.8;" x="33.2875" xlink:href="#m8d73170fab" y="231.116"/>
      </g>
     </g>
     <g id="text_8">
      <!-- 50 -->
      <g transform="translate(13.5625 234.915219)scale(0.1 -0.1)">
       <use xlink:href="#DejaVuSans-53"/>
       <use x="63.623047" xlink:href="#DejaVuSans-48"/>
      </g>
     </g>
    </g>
    <g id="ytick_3">
     <g id="line2d_8">
      <g>
       <use style="stroke:#000000;stroke-width:0.8;" x="33.2875" xlink:href="#m8d73170fab" y="197.516"/>
      </g>
     </g>
     <g id="text_9">
      <!-- 100 -->
      <g transform="translate(7.2 201.315219)scale(0.1 -0.1)">
       <use xlink:href="#DejaVuSans-49"/>
       <use x="63.623047" xlink:href="#DejaVuSans-48"/>
       <use x="127.246094" xlink:href="#DejaVuSans-48"/>
      </g>
     </g>
    </g>
    <g id="ytick_4">
     <g id="line2d_9">
      <g>
       <use style="stroke:#000000;stroke-width:0.8;" x="33.2875" xlink:href="#m8d73170fab" y="163.916"/>
      </g>
     </g>
     <g id="text_10">
      <!-- 150 -->
      <g transform="translate(7.2 167.715219)scale(0.1 -0.1)">
       <use xlink:href="#DejaVuSans-49"/>
       <use x="63.623047" xlink:href="#DejaVuSans-53"/>
       <use x="127.246094" xlink:href="#DejaVuSans-48"/>
      </g>
     </g>
    </g>
    <g id="ytick_5">
     <g id="line2d_10">
      <g>
       <use style="stroke:#000000;stroke-width:0.8;" x="33.2875" xlink:href="#m8d73170fab" y="130.316"/>
      </g>
     </g>
     <g id="text_11">
      <!-- 200 -->
      <g transform="translate(7.2 134.115219)scale(0.1 -0.1)">
       <use xlink:href="#DejaVuSans-50"/>
       <use x="63.623047" xlink:href="#DejaVuSans-48"/>
       <use x="127.246094" xlink:href="#DejaVuSans-48"/>
      </g>
     </g>
    </g>
    <g id="ytick_6">
     <g id="line2d_11">
      <g>
       <use style="stroke:#000000;stroke-width:0.8;" x="33.2875" xlink:href="#m8d73170fab" y="96.716"/>
      </g>
     </g>
     <g id="text_12">
      <!-- 250 -->
      <g transform="translate(7.2 100.515219)scale(0.1 -0.1)">
       <use xlink:href="#DejaVuSans-50"/>
       <use x="63.623047" xlink:href="#DejaVuSans-53"/>
       <use x="127.246094" xlink:href="#DejaVuSans-48"/>
      </g>
     </g>
    </g>
    <g id="ytick_7">
     <g id="line2d_12">
      <g>
       <use style="stroke:#000000;stroke-width:0.8;" x="33.2875" xlink:href="#m8d73170fab" y="63.116"/>
      </g>
     </g>
     <g id="text_13">
      <!-- 300 -->
      <defs>
       <path d="M 40.578125 39.3125 
Q 47.65625 37.796875 51.625 33 
Q 55.609375 28.21875 55.609375 21.1875 
Q 55.609375 10.40625 48.1875 4.484375 
Q 40.765625 -1.421875 27.09375 -1.421875 
Q 22.515625 -1.421875 17.65625 -0.515625 
Q 12.796875 0.390625 7.625 2.203125 
L 7.625 11.71875 
Q 11.71875 9.328125 16.59375 8.109375 
Q 21.484375 6.890625 26.8125 6.890625 
Q 36.078125 6.890625 40.9375 10.546875 
Q 45.796875 14.203125 45.796875 21.1875 
Q 45.796875 27.640625 41.28125 31.265625 
Q 36.765625 34.90625 28.71875 34.90625 
L 20.21875 34.90625 
L 20.21875 43.015625 
L 29.109375 43.015625 
Q 36.375 43.015625 40.234375 45.921875 
Q 44.09375 48.828125 44.09375 54.296875 
Q 44.09375 59.90625 40.109375 62.90625 
Q 36.140625 65.921875 28.71875 65.921875 
Q 24.65625 65.921875 20.015625 65.03125 
Q 15.375 64.15625 9.8125 62.3125 
L 9.8125 71.09375 
Q 15.4375 72.65625 20.34375 73.4375 
Q 25.25 74.21875 29.59375 74.21875 
Q 40.828125 74.21875 47.359375 69.109375 
Q 53.90625 64.015625 53.90625 55.328125 
Q 53.90625 49.265625 50.4375 45.09375 
Q 46.96875 40.921875 40.578125 39.3125 
z
" id="DejaVuSans-51"/>
      </defs>
      <g transform="translate(7.2 66.915219)scale(0.1 -0.1)">
       <use xlink:href="#DejaVuSans-51"/>
       <use x="63.623047" xlink:href="#DejaVuSans-48"/>
       <use x="127.246094" xlink:href="#DejaVuSans-48"/>
      </g>
     </g>
    </g>
    <g id="ytick_8">
     <g id="line2d_13">
      <g>
       <use style="stroke:#000000;stroke-width:0.8;" x="33.2875" xlink:href="#m8d73170fab" y="29.516"/>
      </g>
     </g>
     <g id="text_14">
      <!-- 350 -->
      <g transform="translate(7.2 33.315219)scale(0.1 -0.1)">
       <use xlink:href="#DejaVuSans-51"/>
       <use x="63.623047" xlink:href="#DejaVuSans-53"/>
       <use x="127.246094" xlink:href="#DejaVuSans-48"/>
      </g>
     </g>
    </g>
   </g>
   <g id="line2d_14">
    <path clip-path="url(#p91c4d97c9e)" d="M 61.465677 22.796 
" style="fill:none;stroke:#1f77b4;stroke-linecap:square;stroke-width:1.5;"/>
    <defs>
     <path d="M 0 3 
C 0.795609 3 1.55874 2.683901 2.12132 2.12132 
C 2.683901 1.55874 3 0.795609 3 0 
C 3 -0.795609 2.683901 -1.55874 2.12132 -2.12132 
C 1.55874 -2.683901 0.795609 -3 0 -3 
C -0.795609 -3 -1.55874 -2.683901 -2.12132 -2.12132 
C -2.683901 -1.55874 -3 -0.795609 -3 0 
C -3 0.795609 -2.683901 1.55874 -2.12132 2.12132 
C -1.55874 2.683901 -0.795609 3 0 3 
z
" id="m5214c81b99" style="stroke:#1f77b4;"/>
    </defs>
    <g clip-path="url(#p91c4d97c9e)">
     <use style="fill:#1f77b4;stroke:#1f77b4;" x="61.465677" xlink:href="#m5214c81b99" y="22.796"/>
    </g>
   </g>
   <g id="line2d_15">
    <path clip-path="url(#p91c4d97c9e)" d="M 75.774979 22.796 
" style="fill:none;stroke:#ff7f0e;stroke-linecap:square;stroke-width:1.5;"/>
    <defs>
     <path d="M 0 3 
C 0.795609 3 1.55874 2.683901 2.12132 2.12132 
C 2.683901 1.55874 3 0.795609 3 0 
C 3 -0.795609 2.683901 -1.55874 2.12132 -2.12132 
C 1.55874 -2.683901 0.795609 -3 0 -3 
C -0.795609 -3 -1.55874 -2.683901 -2.12132 -2.12132 
C -2.683901 -1.55874 -3 -0.795609 -3 0 
C -3 0.795609 -2.683901 1.55874 -2.12132 2.12132 
C -1.55874 2.683901 -0.795609 3 0 3 
z
" id="m41d8938218" style="stroke:#ff7f0e;"/>
    </defs>
    <g clip-path="url(#p91c4d97c9e)">
     <use style="fill:#ff7f0e;stroke:#ff7f0e;" x="75.774979" xlink:href="#m41d8938218" y="22.796"/>
    </g>
   </g>
   <g id="line2d_16">
    <path clip-path="url(#p91c4d97c9e)" d="M 90.072651 22.796 
" style="fill:none;stroke:#2ca02c;stroke-linecap:square;stroke-width:1.5;"/>
    <defs>
     <path d="M 0 3 
C 0.795609 3 1.55874 2.683901 2.12132 2.12132 
C 2.683901 1.55874 3 0.795609 3 0 
C 3 -0.795609 2.683901 -1.55874 2.12132 -2.12132 
C 1.55874 -2.683901 0.795609 -3 0 -3 
C -0.795609 -3 -1.55874 -2.683901 -2.12132 -2.12132 
C -2.683901 -1.55874 -3 -0.795609 -3 0 
C -3 0.795609 -2.683901 1.55874 -2.12132 2.12132 
C -1.55874 2.683901 -0.795609 3 0 3 
z
" id="m6f500041a9" style="stroke:#2ca02c;"/>
    </defs>
    <g clip-path="url(#p91c4d97c9e)">
     <use style="fill:#2ca02c;stroke:#2ca02c;" x="90.072651" xlink:href="#m6f500041a9" y="22.796"/>
    </g>
   </g>
   <g id="line2d_17">
    <path clip-path="url(#p91c4d97c9e)" d="M 104.370783 22.796 
" style="fill:none;stroke:#d62728;stroke-linecap:square;stroke-width:1.5;"/>
    <defs>
     <path d="M 0 3 
C 0.795609 3 1.55874 2.683901 2.12132 2.12132 
C 2.683901 1.55874 3 0.795609 3 0 
C 3 -0.795609 2.683901 -1.55874 2.12132 -2.12132 
C 1.55874 -2.683901 0.795609 -3 0 -3 
C -0.795609 -3 -1.55874 -2.683901 -2.12132 -2.12132 
C -2.683901 -1.55874 -3 -0.795609 -3 0 
C -3 0.795609 -2.683901 1.55874 -2.12132 2.12132 
C -1.55874 2.683901 -0.795609 3 0 3 
z
" id="md5a5acafc4" style="stroke:#d62728;"/>
    </defs>
    <g clip-path="url(#p91c4d97c9e)">
     <use style="fill:#d62728;stroke:#d62728;" x="104.370783" xlink:href="#md5a5acafc4" y="22.796"/>
    </g>
   </g>
   <g id="line2d_18">
    <path clip-path="url(#p91c4d97c9e)" d="M 118.669348 22.796 
" style="fill:none;stroke:#9467bd;stroke-linecap:square;stroke-width:1.5;"/>
    <defs>
     <path d="M 0 3 
C 0.795609 3 1.55874 2.683901 2.12132 2.12132 
C 2.683901 1.55874 3 0.795609 3 0 
C 3 -0.795609 2.683901 -1.55874 2.12132 -2.12132 
C 1.55874 -2.683901 0.795609 -3 0 -3 
C -0.795609 -3 -1.55874 -2.683901 -2.12132 -2.12132 
C -2.683901 -1.55874 -3 -0.795609 -3 0 
C -3 0.795609 -2.683901 1.55874 -2.12132 2.12132 
C -1.55874 2.683901 -0.795609 3 0 3 
z
" id="m4a5d03759a" style="stroke:#9467bd;"/>
    </defs>
    <g clip-path="url(#p91c4d97c9e)">
     <use style="fill:#9467bd;stroke:#9467bd;" x="118.669348" xlink:href="#m4a5d03759a" y="22.796"/>
    </g>
   </g>
   <g id="line2d_19">
    <path clip-path="url(#p91c4d97c9e)" d="M 132.968288 22.796 
" style="fill:none;stroke:#8c564b;stroke-linecap:square;stroke-width:1.5;"/>
    <defs>
     <path d="M 0 3 
C 0.795609 3 1.55874 2.683901 2.12132 2.12132 
C 2.683901 1.55874 3 0.795609 3 0 
C 3 -0.795609 2.683901 -1.55874 2.12132 -2.12132 
C 1.55874 -2.683901 0.795609 -3 0 -3 
C -0.795609 -3 -1.55874 -2.683901 -2.12132 -2.12132 
C -2.683901 -1.55874 -3 -0.795609 -3 0 
C -3 0.795609 -2.683901 1.55874 -2.12132 2.12132 
C -1.55874 2.683901 -0.795609 3 0 3 
z
" id="m39c9a3507d" style="stroke:#8c564b;"/>
    </defs>
    <g clip-path="url(#p91c4d97c9e)">
     <use style="fill:#8c564b;stroke:#8c564b;" x="132.968288" xlink:href="#m39c9a3507d" y="22.796"/>
    </g>
   </g>
   <g id="line2d_20">
    <path clip-path="url(#p91c4d97c9e)" d="M 147.267818 22.796 
" style="fill:none;stroke:#e377c2;stroke-linecap:square;stroke-width:1.5;"/>
    <defs>
     <path d="M 0 3 
C 0.795609 3 1.55874 2.683901 2.12132 2.12132 
C 2.683901 1.55874 3 0.795609 3 0 
C 3 -0.795609 2.683901 -1.55874 2.12132 -2.12132 
C 1.55874 -2.683901 0.795609 -3 0 -3 
C -0.795609 -3 -1.55874 -2.683901 -2.12132 -2.12132 
C -2.683901 -1.55874 -3 -0.795609 -3 0 
C -3 0.795609 -2.683901 1.55874 -2.12132 2.12132 
C -1.55874 2.683901 -0.795609 3 0 3 
z
" id="m843eebe961" style="stroke:#e377c2;"/>
    </defs>
    <g clip-path="url(#p91c4d97c9e)">
     <use style="fill:#e377c2;stroke:#e377c2;" x="147.267818" xlink:href="#m843eebe961" y="22.796"/>
    </g>
   </g>
   <g id="line2d_21">
    <path clip-path="url(#p91c4d97c9e)" d="M 161.56786 22.796 
" style="fill:none;stroke:#7f7f7f;stroke-linecap:square;stroke-width:1.5;"/>
    <defs>
     <path d="M 0 3 
C 0.795609 3 1.55874 2.683901 2.12132 2.12132 
C 2.683901 1.55874 3 0.795609 3 0 
C 3 -0.795609 2.683901 -1.55874 2.12132 -2.12132 
C 1.55874 -2.683901 0.795609 -3 0 -3 
C -0.795609 -3 -1.55874 -2.683901 -2.12132 -2.12132 
C -2.683901 -1.55874 -3 -0.795609 -3 0 
C -3 0.795609 -2.683901 1.55874 -2.12132 2.12132 
C -1.55874 2.683901 -0.795609 3 0 3 
z
" id="m3ef8dd8b7e" style="stroke:#7f7f7f;"/>
    </defs>
    <g clip-path="url(#p91c4d97c9e)">
     <use style="fill:#7f7f7f;stroke:#7f7f7f;" x="161.56786" xlink:href="#m3ef8dd8b7e" y="22.796"/>
    </g>
   </g>
   <g id="line2d_22">
    <path clip-path="url(#p91c4d97c9e)" d="M 175.7262 22.796 
" style="fill:none;stroke:#bcbd22;stroke-linecap:square;stroke-width:1.5;"/>
    <defs>
     <path d="M 0 3 
C 0.795609 3 1.55874 2.683901 2.12132 2.12132 
C 2.683901 1.55874 3 0.795609 3 0 
C 3 -0.795609 2.683901 -1.55874 2.12132 -2.12132 
C 1.55874 -2.683901 0.795609 -3 0 -3 
C -0.795609 -3 -1.55874 -2.683901 -2.12132 -2.12132 
C -2.683901 -1.55874 -3 -0.795609 -3 0 
C -3 0.795609 -2.683901 1.55874 -2.12132 2.12132 
C -1.55874 2.683901 -0.795609 3 0 3 
z
" id="m3987ee5e9d" style="stroke:#bcbd22;"/>
    </defs>
    <g clip-path="url(#p91c4d97c9e)">
     <use style="fill:#bcbd22;stroke:#bcbd22;" x="175.7262" xlink:href="#m3987ee5e9d" y="22.796"/>
    </g>
   </g>
   <g id="line2d_23">
    <path clip-path="url(#p91c4d97c9e)" d="M 190.02702 22.796 
" style="fill:none;stroke:#17becf;stroke-linecap:square;stroke-width:1.5;"/>
    <defs>
     <path d="M 0 3 
C 0.795609 3 1.55874 2.683901 2.12132 2.12132 
C 2.683901 1.55874 3 0.795609 3 0 
C 3 -0.795609 2.683901 -1.55874 2.12132 -2.12132 
C 1.55874 -2.683901 0.795609 -3 0 -3 
C -0.795609 -3 -1.55874 -2.683901 -2.12132 -2.12132 
C -2.683901 -1.55874 -3 -0.795609 -3 0 
C -3 0.795609 -2.683901 1.55874 -2.12132 2.12132 
C -1.55874 2.683901 -0.795609 3 0 3 
z
" id="mc2c0e9cace" style="stroke:#17becf;"/>
    </defs>
    <g clip-path="url(#p91c4d97c9e)">
     <use style="fill:#17becf;stroke:#17becf;" x="190.02702" xlink:href="#mc2c0e9cace" y="22.796"/>
    </g>
   </g>
   <g id="line2d_24">
    <path clip-path="url(#p91c4d97c9e)" d="M 204.327053 22.796 
" style="fill:none;stroke:#1f77b4;stroke-linecap:square;stroke-width:1.5;"/>
    <g clip-path="url(#p91c4d97c9e)">
     <use style="fill:#1f77b4;stroke:#1f77b4;" x="204.327053" xlink:href="#m5214c81b99" y="22.796"/>
    </g>
   </g>
   <g id="line2d_25">
    <path clip-path="url(#p91c4d97c9e)" d="M 218.480917 22.796 
" style="fill:none;stroke:#ff7f0e;stroke-linecap:square;stroke-width:1.5;"/>
    <g clip-path="url(#p91c4d97c9e)">
     <use style="fill:#ff7f0e;stroke:#ff7f0e;" x="218.480917" xlink:href="#m41d8938218" y="22.796"/>
    </g>
   </g>
   <g id="line2d_26">
    <path clip-path="url(#p91c4d97c9e)" d="M 232.777374 22.796 
" style="fill:none;stroke:#2ca02c;stroke-linecap:square;stroke-width:1.5;"/>
    <g clip-path="url(#p91c4d97c9e)">
     <use style="fill:#2ca02c;stroke:#2ca02c;" x="232.777374" xlink:href="#m6f500041a9" y="22.796"/>
    </g>
   </g>
   <g id="line2d_27">
    <path clip-path="url(#p91c4d97c9e)" d="M 246.927837 22.796 
" style="fill:none;stroke:#d62728;stroke-linecap:square;stroke-width:1.5;"/>
    <g clip-path="url(#p91c4d97c9e)">
     <use style="fill:#d62728;stroke:#d62728;" x="246.927837" xlink:href="#md5a5acafc4" y="22.796"/>
    </g>
   </g>
   <g id="line2d_28">
    <path clip-path="url(#p91c4d97c9e)" d="M 261.22077 22.796 
" style="fill:none;stroke:#9467bd;stroke-linecap:square;stroke-width:1.5;"/>
    <g clip-path="url(#p91c4d97c9e)">
     <use style="fill:#9467bd;stroke:#9467bd;" x="261.22077" xlink:href="#m4a5d03759a" y="22.796"/>
    </g>
   </g>
   <g id="line2d_29">
    <path clip-path="url(#p91c4d97c9e)" d="M 275.367565 22.796 
" style="fill:none;stroke:#8c564b;stroke-linecap:square;stroke-width:1.5;"/>
    <g clip-path="url(#p91c4d97c9e)">
     <use style="fill:#8c564b;stroke:#8c564b;" x="275.367565" xlink:href="#m39c9a3507d" y="22.796"/>
    </g>
   </g>
   <g id="line2d_30">
    <path clip-path="url(#p91c4d97c9e)" d="M 289.656712 22.796 
" style="fill:none;stroke:#e377c2;stroke-linecap:square;stroke-width:1.5;"/>
    <g clip-path="url(#p91c4d97c9e)">
     <use style="fill:#e377c2;stroke:#e377c2;" x="289.656712" xlink:href="#m843eebe961" y="22.796"/>
    </g>
   </g>
   <g id="line2d_31">
    <path clip-path="url(#p91c4d97c9e)" d="M 303.944485 22.796 
" style="fill:none;stroke:#7f7f7f;stroke-linecap:square;stroke-width:1.5;"/>
    <g clip-path="url(#p91c4d97c9e)">
     <use style="fill:#7f7f7f;stroke:#7f7f7f;" x="303.944485" xlink:href="#m3ef8dd8b7e" y="22.796"/>
    </g>
   </g>
   <g id="line2d_32">
    <path clip-path="url(#p91c4d97c9e)" d="M 318.085905 22.796 
" style="fill:none;stroke:#bcbd22;stroke-linecap:square;stroke-width:1.5;"/>
    <g clip-path="url(#p91c4d97c9e)">
     <use style="fill:#bcbd22;stroke:#bcbd22;" x="318.085905" xlink:href="#m3987ee5e9d" y="22.796"/>
    </g>
   </g>
   <g id="line2d_33">
    <path clip-path="url(#p91c4d97c9e)" d="M 332.516769 22.796 
" style="fill:none;stroke:#17becf;stroke-linecap:square;stroke-width:1.5;"/>
    <g clip-path="url(#p91c4d97c9e)">
     <use style="fill:#17becf;stroke:#17becf;" x="332.516769" xlink:href="#mc2c0e9cace" y="22.796"/>
    </g>
   </g>
   <g id="line2d_34">
    <path clip-path="url(#p91c4d97c9e)" d="M 346.802113 22.796 
" style="fill:none;stroke:#1f77b4;stroke-linecap:square;stroke-width:1.5;"/>
    <g clip-path="url(#p91c4d97c9e)">
     <use style="fill:#1f77b4;stroke:#1f77b4;" x="346.802113" xlink:href="#m5214c81b99" y="22.796"/>
    </g>
   </g>
   <g id="line2d_35">
    <path clip-path="url(#p91c4d97c9e)" d="M 361.232534 22.796 
" style="fill:none;stroke:#ff7f0e;stroke-linecap:square;stroke-width:1.5;"/>
    <g clip-path="url(#p91c4d97c9e)">
     <use style="fill:#ff7f0e;stroke:#ff7f0e;" x="361.232534" xlink:href="#m41d8938218" y="22.796"/>
    </g>
   </g>
   <g id="line2d_36">
    <path clip-path="url(#p91c4d97c9e)" d="M 49.520227 223.052 
L 61.465677 22.796 
L 61.465677 264.716 
L 61.537828 261.473094 
L 75.774979 22.796 
L 75.774979 264.716 
L 75.847132 261.280802 
L 90.072651 22.796 
L 90.072651 264.716 
L 90.144802 261.286109 
L 104.370783 22.796 
L 104.370783 264.716 
L 104.442936 261.294647 
L 118.669348 22.796 
L 118.669348 264.716 
L 118.741499 261.302907 
L 132.968288 22.796 
L 132.968288 264.716 
L 133.040442 261.311678 
L 147.267818 22.796 
L 147.267818 264.716 
L 147.33997 261.318643 
L 161.56786 22.796 
L 161.56786 264.716 
L 161.640011 258.943248 
L 175.7262 22.796 
L 175.7262 264.716 
L 175.798351 261.333139 
L 190.02702 22.796 
L 190.02702 264.716 
L 190.099171 261.31821 
L 204.327053 22.796 
L 204.327053 264.716 
L 204.399204 258.87017 
L 218.480917 22.796 
L 218.480917 264.716 
L 218.553068 261.260469 
L 232.777374 22.796 
L 232.777374 264.716 
L 232.849525 258.813 
L 246.927837 22.796 
L 246.927837 264.716 
L 246.999989 261.200683 
L 261.22077 22.796 
L 261.22077 264.716 
L 261.292921 258.74953 
L 275.367565 22.796 
L 275.367565 264.716 
L 275.439716 261.136552 
L 289.656712 22.796 
L 289.656712 264.716 
L 289.728863 261.115124 
L 303.944485 22.796 
L 303.944485 264.716 
L 304.016636 258.660974 
L 318.085905 22.796 
L 318.085905 264.716 
L 318.158058 263.505622 
L 332.516769 22.796 
L 332.516769 264.716 
L 332.588921 261.073571 
L 346.802113 22.796 
L 346.802113 264.716 
L 346.874264 263.506228 
L 361.232534 22.796 
L 361.232534 264.716 
L 361.304686 261.074024 
L 374.147675 45.766063 
L 374.147675 45.766063 
" style="fill:none;stroke:#ff0000;stroke-linecap:square;stroke-width:1.5;"/>
   </g>
   <g id="line2d_37">
    <path clip-path="url(#p91c4d97c9e)" d="M 58.940428 22.796 
" style="fill:none;stroke:#2ca02c;stroke-linecap:square;stroke-width:1.5;"/>
    <g clip-path="url(#p91c4d97c9e)">
     <use style="fill:#2ca02c;stroke:#2ca02c;" x="58.940428" xlink:href="#m6f500041a9" y="22.796"/>
    </g>
   </g>
   <g id="line2d_38">
    <path clip-path="url(#p91c4d97c9e)" d="M 73.370775 22.796 
" style="fill:none;stroke:#d62728;stroke-linecap:square;stroke-width:1.5;"/>
    <g clip-path="url(#p91c4d97c9e)">
     <use style="fill:#d62728;stroke:#d62728;" x="73.370775" xlink:href="#md5a5acafc4" y="22.796"/>
    </g>
   </g>
   <g id="line2d_39">
    <path clip-path="url(#p91c4d97c9e)" d="M 87.742821 22.796 
" style="fill:none;stroke:#9467bd;stroke-linecap:square;stroke-width:1.5;"/>
    <g clip-path="url(#p91c4d97c9e)">
     <use style="fill:#9467bd;stroke:#9467bd;" x="87.742821" xlink:href="#m4a5d03759a" y="22.796"/>
    </g>
   </g>
   <g id="line2d_40">
    <path clip-path="url(#p91c4d97c9e)" d="M 102.117384 22.796 
" style="fill:none;stroke:#8c564b;stroke-linecap:square;stroke-width:1.5;"/>
    <g clip-path="url(#p91c4d97c9e)">
     <use style="fill:#8c564b;stroke:#8c564b;" x="102.117384" xlink:href="#m39c9a3507d" y="22.796"/>
    </g>
   </g>
   <g id="line2d_41">
    <path clip-path="url(#p91c4d97c9e)" d="M 116.494873 22.796 
" style="fill:none;stroke:#e377c2;stroke-linecap:square;stroke-width:1.5;"/>
    <g clip-path="url(#p91c4d97c9e)">
     <use style="fill:#e377c2;stroke:#e377c2;" x="116.494873" xlink:href="#m843eebe961" y="22.796"/>
    </g>
   </g>
   <g id="line2d_42">
    <path clip-path="url(#p91c4d97c9e)" d="M 130.874998 22.796 
" style="fill:none;stroke:#7f7f7f;stroke-linecap:square;stroke-width:1.5;"/>
    <g clip-path="url(#p91c4d97c9e)">
     <use style="fill:#7f7f7f;stroke:#7f7f7f;" x="130.874998" xlink:href="#m3ef8dd8b7e" y="22.796"/>
    </g>
   </g>
   <g id="line2d_43">
    <path clip-path="url(#p91c4d97c9e)" d="M 145.258207 22.796 
" style="fill:none;stroke:#bcbd22;stroke-linecap:square;stroke-width:1.5;"/>
    <g clip-path="url(#p91c4d97c9e)">
     <use style="fill:#bcbd22;stroke:#bcbd22;" x="145.258207" xlink:href="#m3987ee5e9d" y="22.796"/>
    </g>
   </g>
   <g id="line2d_44">
    <path clip-path="url(#p91c4d97c9e)" d="M 159.644402 22.796 
" style="fill:none;stroke:#17becf;stroke-linecap:square;stroke-width:1.5;"/>
    <g clip-path="url(#p91c4d97c9e)">
     <use style="fill:#17becf;stroke:#17becf;" x="159.644402" xlink:href="#mc2c0e9cace" y="22.796"/>
    </g>
   </g>
   <g id="line2d_45">
    <path clip-path="url(#p91c4d97c9e)" d="M 174.033646 22.796 
" style="fill:none;stroke:#1f77b4;stroke-linecap:square;stroke-width:1.5;"/>
    <g clip-path="url(#p91c4d97c9e)">
     <use style="fill:#1f77b4;stroke:#1f77b4;" x="174.033646" xlink:href="#m5214c81b99" y="22.796"/>
    </g>
   </g>
   <g id="line2d_46">
    <path clip-path="url(#p91c4d97c9e)" d="M 188.426107 22.796 
" style="fill:none;stroke:#ff7f0e;stroke-linecap:square;stroke-width:1.5;"/>
    <g clip-path="url(#p91c4d97c9e)">
     <use style="fill:#ff7f0e;stroke:#ff7f0e;" x="188.426107" xlink:href="#m41d8938218" y="22.796"/>
    </g>
   </g>
   <g id="line2d_47">
    <path clip-path="url(#p91c4d97c9e)" d="M 202.821922 22.796 
" style="fill:none;stroke:#2ca02c;stroke-linecap:square;stroke-width:1.5;"/>
    <g clip-path="url(#p91c4d97c9e)">
     <use style="fill:#2ca02c;stroke:#2ca02c;" x="202.821922" xlink:href="#m6f500041a9" y="22.796"/>
    </g>
   </g>
   <g id="line2d_48">
    <path clip-path="url(#p91c4d97c9e)" d="M 217.220976 22.796 
" style="fill:none;stroke:#d62728;stroke-linecap:square;stroke-width:1.5;"/>
    <g clip-path="url(#p91c4d97c9e)">
     <use style="fill:#d62728;stroke:#d62728;" x="217.220976" xlink:href="#md5a5acafc4" y="22.796"/>
    </g>
   </g>
   <g id="line2d_49">
    <path clip-path="url(#p91c4d97c9e)" d="M 231.622015 22.796 
" style="fill:none;stroke:#9467bd;stroke-linecap:square;stroke-width:1.5;"/>
    <g clip-path="url(#p91c4d97c9e)">
     <use style="fill:#9467bd;stroke:#9467bd;" x="231.622015" xlink:href="#m4a5d03759a" y="22.796"/>
    </g>
   </g>
   <g id="line2d_50">
    <path clip-path="url(#p91c4d97c9e)" d="M 246.0266 22.796 
" style="fill:none;stroke:#8c564b;stroke-linecap:square;stroke-width:1.5;"/>
    <g clip-path="url(#p91c4d97c9e)">
     <use style="fill:#8c564b;stroke:#8c564b;" x="246.0266" xlink:href="#m39c9a3507d" y="22.796"/>
    </g>
   </g>
   <g id="line2d_51">
    <path clip-path="url(#p91c4d97c9e)" d="M 260.434906 22.796 
" style="fill:none;stroke:#e377c2;stroke-linecap:square;stroke-width:1.5;"/>
    <g clip-path="url(#p91c4d97c9e)">
     <use style="fill:#e377c2;stroke:#e377c2;" x="260.434906" xlink:href="#m843eebe961" y="22.796"/>
    </g>
   </g>
   <g id="line2d_52">
    <path clip-path="url(#p91c4d97c9e)" d="M 274.846819 22.796 
" style="fill:none;stroke:#7f7f7f;stroke-linecap:square;stroke-width:1.5;"/>
    <g clip-path="url(#p91c4d97c9e)">
     <use style="fill:#7f7f7f;stroke:#7f7f7f;" x="274.846819" xlink:href="#m3ef8dd8b7e" y="22.796"/>
    </g>
   </g>
   <g id="line2d_53">
    <path clip-path="url(#p91c4d97c9e)" d="M 289.262478 22.796 
" style="fill:none;stroke:#bcbd22;stroke-linecap:square;stroke-width:1.5;"/>
    <g clip-path="url(#p91c4d97c9e)">
     <use style="fill:#bcbd22;stroke:#bcbd22;" x="289.262478" xlink:href="#m3987ee5e9d" y="22.796"/>
    </g>
   </g>
   <g id="line2d_54">
    <path clip-path="url(#p91c4d97c9e)" d="M 303.682194 22.796 
" style="fill:none;stroke:#17becf;stroke-linecap:square;stroke-width:1.5;"/>
    <g clip-path="url(#p91c4d97c9e)">
     <use style="fill:#17becf;stroke:#17becf;" x="303.682194" xlink:href="#mc2c0e9cace" y="22.796"/>
    </g>
   </g>
   <g id="line2d_55">
    <path clip-path="url(#p91c4d97c9e)" d="M 318.112587 22.796 
" style="fill:none;stroke:#1f77b4;stroke-linecap:square;stroke-width:1.5;"/>
    <g clip-path="url(#p91c4d97c9e)">
     <use style="fill:#1f77b4;stroke:#1f77b4;" x="318.112587" xlink:href="#m5214c81b99" y="22.796"/>
    </g>
   </g>
   <g id="line2d_56">
    <path clip-path="url(#p91c4d97c9e)" d="M 332.398771 22.796 
" style="fill:none;stroke:#ff7f0e;stroke-linecap:square;stroke-width:1.5;"/>
    <g clip-path="url(#p91c4d97c9e)">
     <use style="fill:#ff7f0e;stroke:#ff7f0e;" x="332.398771" xlink:href="#m41d8938218" y="22.796"/>
    </g>
   </g>
   <g id="line2d_57">
    <path clip-path="url(#p91c4d97c9e)" d="M 346.829132 22.796 
" style="fill:none;stroke:#2ca02c;stroke-linecap:square;stroke-width:1.5;"/>
    <g clip-path="url(#p91c4d97c9e)">
     <use style="fill:#2ca02c;stroke:#2ca02c;" x="346.829132" xlink:href="#m6f500041a9" y="22.796"/>
    </g>
   </g>
   <g id="line2d_58">
    <path clip-path="url(#p91c4d97c9e)" d="M 361.115328 22.796 
" style="fill:none;stroke:#d62728;stroke-linecap:square;stroke-width:1.5;"/>
    <g clip-path="url(#p91c4d97c9e)">
     <use style="fill:#d62728;stroke:#d62728;" x="361.115328" xlink:href="#md5a5acafc4" y="22.796"/>
    </g>
   </g>
   <g id="line2d_59">
    <path clip-path="url(#p91c4d97c9e)" d="M 49.520227 180.716 
L 58.940428 22.796 
L 58.940428 264.716 
L 59.012579 263.50444 
L 73.370775 22.796 
L 73.370775 264.716 
L 73.442926 262.528071 
L 87.742821 22.796 
L 87.742821 264.716 
L 87.814972 262.567478 
L 102.117384 22.796 
L 102.117384 264.716 
L 102.189537 262.618038 
L 116.494873 22.796 
L 116.494873 264.716 
L 116.567024 262.661501 
L 130.874998 22.796 
L 130.874998 264.716 
L 130.947151 262.713679 
L 145.258207 22.796 
L 145.258207 264.716 
L 145.330359 262.763525 
L 159.644402 22.796 
L 159.644402 264.716 
L 159.716553 262.814208 
L 174.033646 22.796 
L 174.033646 264.716 
L 174.105799 262.869308 
L 188.426107 22.796 
L 188.426107 264.716 
L 188.49826 262.923787 
L 202.821922 22.796 
L 202.821922 264.716 
L 202.894073 262.97924 
L 217.220976 22.796 
L 217.220976 264.716 
L 217.293127 263.012777 
L 231.622015 22.796 
L 231.622015 264.716 
L 231.694168 263.071275 
L 246.0266 22.796 
L 246.0266 264.716 
L 246.098751 263.133773 
L 260.434906 22.796 
L 260.434906 264.716 
L 260.507057 263.19337 
L 274.846819 22.796 
L 274.846819 264.716 
L 274.91897 263.259687 
L 289.262478 22.796 
L 289.262478 264.716 
L 289.334629 263.326158 
L 303.682194 22.796 
L 303.682194 264.716 
L 303.754345 263.505882 
L 318.112587 22.796 
L 318.112587 264.716 
L 318.184738 261.086615 
L 332.398771 22.796 
L 332.398771 264.716 
L 332.470924 263.506286 
L 346.829132 22.796 
L 346.829132 264.716 
L 346.901283 261.086228 
L 361.115328 22.796 
L 361.115328 264.716 
L 361.187479 263.506228 
L 374.174772 45.778349 
L 374.174772 45.778349 
" style="fill:none;stroke:#0000ff;stroke-linecap:square;stroke-width:1.5;"/>
   </g>
   <g id="line2d_60">
    <path clip-path="url(#p91c4d97c9e)" d="M 62.106855 22.796 
" style="fill:none;stroke:#9467bd;stroke-linecap:square;stroke-width:1.5;"/>
    <g clip-path="url(#p91c4d97c9e)">
     <use style="fill:#9467bd;stroke:#9467bd;" x="62.106855" xlink:href="#m4a5d03759a" y="22.796"/>
    </g>
   </g>
   <g id="line2d_61">
    <path clip-path="url(#p91c4d97c9e)" d="M 76.287743 22.796 
" style="fill:none;stroke:#8c564b;stroke-linecap:square;stroke-width:1.5;"/>
    <g clip-path="url(#p91c4d97c9e)">
     <use style="fill:#8c564b;stroke:#8c564b;" x="76.287743" xlink:href="#m39c9a3507d" y="22.796"/>
    </g>
   </g>
   <g id="line2d_62">
    <path clip-path="url(#p91c4d97c9e)" d="M 90.464811 22.796 
" style="fill:none;stroke:#e377c2;stroke-linecap:square;stroke-width:1.5;"/>
    <g clip-path="url(#p91c4d97c9e)">
     <use style="fill:#e377c2;stroke:#e377c2;" x="90.464811" xlink:href="#m843eebe961" y="22.796"/>
    </g>
   </g>
   <g id="line2d_63">
    <path clip-path="url(#p91c4d97c9e)" d="M 104.638659 22.796 
" style="fill:none;stroke:#7f7f7f;stroke-linecap:square;stroke-width:1.5;"/>
    <g clip-path="url(#p91c4d97c9e)">
     <use style="fill:#7f7f7f;stroke:#7f7f7f;" x="104.638659" xlink:href="#m3ef8dd8b7e" y="22.796"/>
    </g>
   </g>
   <g id="line2d_64">
    <path clip-path="url(#p91c4d97c9e)" d="M 118.809231 22.796 
" style="fill:none;stroke:#bcbd22;stroke-linecap:square;stroke-width:1.5;"/>
    <g clip-path="url(#p91c4d97c9e)">
     <use style="fill:#bcbd22;stroke:#bcbd22;" x="118.809231" xlink:href="#m3987ee5e9d" y="22.796"/>
    </g>
   </g>
   <g id="line2d_65">
    <path clip-path="url(#p91c4d97c9e)" d="M 132.976458 22.796 
" style="fill:none;stroke:#17becf;stroke-linecap:square;stroke-width:1.5;"/>
    <g clip-path="url(#p91c4d97c9e)">
     <use style="fill:#17becf;stroke:#17becf;" x="132.976458" xlink:href="#mc2c0e9cace" y="22.796"/>
    </g>
   </g>
   <g id="line2d_66">
    <path clip-path="url(#p91c4d97c9e)" d="M 147.140259 22.796 
" style="fill:none;stroke:#1f77b4;stroke-linecap:square;stroke-width:1.5;"/>
    <g clip-path="url(#p91c4d97c9e)">
     <use style="fill:#1f77b4;stroke:#1f77b4;" x="147.140259" xlink:href="#m5214c81b99" y="22.796"/>
    </g>
   </g>
   <g id="line2d_67">
    <path clip-path="url(#p91c4d97c9e)" d="M 161.300497 22.796 
" style="fill:none;stroke:#ff7f0e;stroke-linecap:square;stroke-width:1.5;"/>
    <g clip-path="url(#p91c4d97c9e)">
     <use style="fill:#ff7f0e;stroke:#ff7f0e;" x="161.300497" xlink:href="#m41d8938218" y="22.796"/>
    </g>
   </g>
   <g id="line2d_68">
    <path clip-path="url(#p91c4d97c9e)" d="M 175.603243 22.796 
" style="fill:none;stroke:#2ca02c;stroke-linecap:square;stroke-width:1.5;"/>
    <g clip-path="url(#p91c4d97c9e)">
     <use style="fill:#2ca02c;stroke:#2ca02c;" x="175.603243" xlink:href="#m6f500041a9" y="22.796"/>
    </g>
   </g>
   <g id="line2d_69">
    <path clip-path="url(#p91c4d97c9e)" d="M 189.76029 22.796 
" style="fill:none;stroke:#d62728;stroke-linecap:square;stroke-width:1.5;"/>
    <g clip-path="url(#p91c4d97c9e)">
     <use style="fill:#d62728;stroke:#d62728;" x="189.76029" xlink:href="#md5a5acafc4" y="22.796"/>
    </g>
   </g>
   <g id="line2d_70">
    <path clip-path="url(#p91c4d97c9e)" d="M 204.059681 22.796 
" style="fill:none;stroke:#9467bd;stroke-linecap:square;stroke-width:1.5;"/>
    <g clip-path="url(#p91c4d97c9e)">
     <use style="fill:#9467bd;stroke:#9467bd;" x="204.059681" xlink:href="#m4a5d03759a" y="22.796"/>
    </g>
   </g>
   <g id="line2d_71">
    <path clip-path="url(#p91c4d97c9e)" d="M 218.358065 22.796 
" style="fill:none;stroke:#8c564b;stroke-linecap:square;stroke-width:1.5;"/>
    <g clip-path="url(#p91c4d97c9e)">
     <use style="fill:#8c564b;stroke:#8c564b;" x="218.358065" xlink:href="#m39c9a3507d" y="22.796"/>
    </g>
   </g>
   <g id="line2d_72">
    <path clip-path="url(#p91c4d97c9e)" d="M 232.510818 22.796 
" style="fill:none;stroke:#e377c2;stroke-linecap:square;stroke-width:1.5;"/>
    <g clip-path="url(#p91c4d97c9e)">
     <use style="fill:#e377c2;stroke:#e377c2;" x="232.510818" xlink:href="#m843eebe961" y="22.796"/>
    </g>
   </g>
   <g id="line2d_73">
    <path clip-path="url(#p91c4d97c9e)" d="M 246.805748 22.796 
" style="fill:none;stroke:#7f7f7f;stroke-linecap:square;stroke-width:1.5;"/>
    <g clip-path="url(#p91c4d97c9e)">
     <use style="fill:#7f7f7f;stroke:#7f7f7f;" x="246.805748" xlink:href="#m3ef8dd8b7e" y="22.796"/>
    </g>
   </g>
   <g id="line2d_74">
    <path clip-path="url(#p91c4d97c9e)" d="M 260.954897 22.796 
" style="fill:none;stroke:#bcbd22;stroke-linecap:square;stroke-width:1.5;"/>
    <g clip-path="url(#p91c4d97c9e)">
     <use style="fill:#bcbd22;stroke:#bcbd22;" x="260.954897" xlink:href="#m3987ee5e9d" y="22.796"/>
    </g>
   </g>
   <g id="line2d_75">
    <path clip-path="url(#p91c4d97c9e)" d="M 275.246166 22.796 
" style="fill:none;stroke:#17becf;stroke-linecap:square;stroke-width:1.5;"/>
    <g clip-path="url(#p91c4d97c9e)">
     <use style="fill:#17becf;stroke:#17becf;" x="275.246166" xlink:href="#mc2c0e9cace" y="22.796"/>
    </g>
   </g>
   <g id="line2d_76">
    <path clip-path="url(#p91c4d97c9e)" d="M 289.391478 22.796 
" style="fill:none;stroke:#1f77b4;stroke-linecap:square;stroke-width:1.5;"/>
    <g clip-path="url(#p91c4d97c9e)">
     <use style="fill:#1f77b4;stroke:#1f77b4;" x="289.391478" xlink:href="#m5214c81b99" y="22.796"/>
    </g>
   </g>
   <g id="line2d_77">
    <path clip-path="url(#p91c4d97c9e)" d="M 303.678757 22.796 
" style="fill:none;stroke:#ff7f0e;stroke-linecap:square;stroke-width:1.5;"/>
    <g clip-path="url(#p91c4d97c9e)">
     <use style="fill:#ff7f0e;stroke:#ff7f0e;" x="303.678757" xlink:href="#m41d8938218" y="22.796"/>
    </g>
   </g>
   <g id="line2d_78">
    <path clip-path="url(#p91c4d97c9e)" d="M 317.964651 22.796 
" style="fill:none;stroke:#2ca02c;stroke-linecap:square;stroke-width:1.5;"/>
    <g clip-path="url(#p91c4d97c9e)">
     <use style="fill:#2ca02c;stroke:#2ca02c;" x="317.964651" xlink:href="#m6f500041a9" y="22.796"/>
    </g>
   </g>
   <g id="line2d_79">
    <path clip-path="url(#p91c4d97c9e)" d="M 332.250513 22.796 
" style="fill:none;stroke:#d62728;stroke-linecap:square;stroke-width:1.5;"/>
    <g clip-path="url(#p91c4d97c9e)">
     <use style="fill:#d62728;stroke:#d62728;" x="332.250513" xlink:href="#md5a5acafc4" y="22.796"/>
    </g>
   </g>
   <g id="line2d_80">
    <path clip-path="url(#p91c4d97c9e)" d="M 346.681004 22.796 
" style="fill:none;stroke:#9467bd;stroke-linecap:square;stroke-width:1.5;"/>
    <g clip-path="url(#p91c4d97c9e)">
     <use style="fill:#9467bd;stroke:#9467bd;" x="346.681004" xlink:href="#m4a5d03759a" y="22.796"/>
    </g>
   </g>
   <g id="line2d_81">
    <path clip-path="url(#p91c4d97c9e)" d="M 360.966763 22.796 
" style="fill:none;stroke:#8c564b;stroke-linecap:square;stroke-width:1.5;"/>
    <g clip-path="url(#p91c4d97c9e)">
     <use style="fill:#8c564b;stroke:#8c564b;" x="360.966763" xlink:href="#m39c9a3507d" y="22.796"/>
    </g>
   </g>
   <g id="line2d_82">
    <path clip-path="url(#p91c4d97c9e)" d="M 49.520227 233.804 
L 62.106855 22.796 
L 62.106855 264.716 
L 62.179007 259.321261 
L 76.287743 22.796 
L 76.287743 264.716 
L 76.359894 259.256982 
L 90.464811 22.796 
L 90.464811 264.716 
L 90.536963 259.203227 
L 104.638659 22.796 
L 104.638659 264.716 
L 104.710812 259.14855 
L 118.809231 22.796 
L 118.809231 264.716 
L 118.881382 259.091919 
L 132.976458 22.796 
L 132.976458 264.716 
L 133.048611 259.035272 
L 147.140259 22.796 
L 147.140259 264.716 
L 147.21241 258.974574 
L 161.300497 22.796 
L 161.300497 264.716 
L 161.372648 261.365012 
L 175.603243 22.796 
L 175.603243 264.716 
L 175.675394 258.922745 
L 189.76029 22.796 
L 189.76029 264.716 
L 189.832441 261.307849 
L 204.059681 22.796 
L 204.059681 264.716 
L 204.131832 261.292585 
L 218.358065 22.796 
L 218.358065 264.716 
L 218.430216 258.851067 
L 232.510818 22.796 
L 232.510818 264.716 
L 232.58297 261.233929 
L 246.805748 22.796 
L 246.805748 264.716 
L 246.877901 258.789724 
L 260.954897 22.796 
L 260.954897 264.716 
L 261.02705 261.171278 
L 275.246166 22.796 
L 275.246166 264.716 
L 275.318317 258.726176 
L 289.391478 22.796 
L 289.391478 264.716 
L 289.463629 261.106639 
L 303.678757 22.796 
L 303.678757 264.716 
L 303.750908 261.083982 
L 317.964651 22.796 
L 317.964651 264.716 
L 318.036804 261.080455 
L 332.250513 22.796 
L 332.250513 264.716 
L 332.322664 263.504815 
L 346.681004 22.796 
L 346.681004 264.716 
L 346.753155 261.079407 
L 360.966763 22.796 
L 360.966763 264.716 
L 361.038914 263.506113 
L 374.170509 43.356931 
L 374.170509 43.356931 
" style="fill:none;stroke:#008000;stroke-linecap:square;stroke-width:1.5;"/>
   </g>
   <g id="patch_3">
    <path d="M 33.2875 276.812 
L 33.2875 10.7 
" style="fill:none;stroke:#000000;stroke-linecap:square;stroke-linejoin:miter;stroke-width:0.8;"/>
   </g>
   <g id="patch_4">
    <path d="M 390.4075 276.812 
L 390.4075 10.7 
" style="fill:none;stroke:#000000;stroke-linecap:square;stroke-linejoin:miter;stroke-width:0.8;"/>
   </g>
   <g id="patch_5">
    <path d="M 33.2875 276.812 
L 390.407499 276.812 
" style="fill:none;stroke:#000000;stroke-linecap:square;stroke-linejoin:miter;stroke-width:0.8;"/>
   </g>
   <g id="patch_6">
    <path d="M 33.2875 10.7 
L 390.407499 10.7 
" style="fill:none;stroke:#000000;stroke-linecap:square;stroke-linejoin:miter;stroke-width:0.8;"/>
   </g>
  </g>
 </g>
 <defs>
  <clipPath id="p91c4d97c9e">
   <rect height="266.112" width="357.12" x="33.2875" y="10.7"/>
  </clipPath>
 </defs>
</svg>
