<?xml version="1.0" encoding="utf-8" standalone="no"?>
<!DOCTYPE svg PUBLIC "-//W3C//DTD SVG 1.1//EN"
  "http://www.w3.org/Graphics/SVG/1.1/DTD/svg11.dtd">
<!-- Created with matplotlib (https://matplotlib.org/) -->
<svg height="313.36825pt" version="1.1" viewBox="0 0 401.1075 313.36825" width="401.1075pt" xmlns="http://www.w3.org/2000/svg" xmlns:xlink="http://www.w3.org/1999/xlink">
 <defs>
  <style type="text/css">
*{stroke-linecap:butt;stroke-linejoin:round;}
  </style>
 </defs>
 <g id="figure_1">
  <g id="patch_1">
   <path d="M 0 313.36825 
L 401.1075 313.36825 
L 401.1075 0 
L 0 0 
z
" style="fill:#ffffff;"/>
  </g>
  <g id="axes_1">
   <g id="patch_2">
    <path d="M 33.2875 276.812 
L 390.4075 276.812 
L 390.4075 10.7 
L 33.2875 10.7 
z
" style="fill:#ffffff;"/>
   </g>
   <g id="matplotlib.axis_1">
    <g id="xtick_1">
     <g id="line2d_1">
      <defs>
       <path d="M 0 0 
L 0 3.5 
" id="m69e3363e0a" style="stroke:#000000;stroke-width:0.8;"/>
      </defs>
      <g>
       <use style="stroke:#000000;stroke-width:0.8;" x="85.654612" xlink:href="#m69e3363e0a" y="276.812"/>
      </g>
     </g>
     <g id="text_1">
      <!-- 0 -->
      <defs>
       <path d="M 31.78125 66.40625 
Q 24.171875 66.40625 20.328125 58.90625 
Q 16.5 51.421875 16.5 36.375 
Q 16.5 21.390625 20.328125 13.890625 
Q 24.171875 6.390625 31.78125 6.390625 
Q 39.453125 6.390625 43.28125 13.890625 
Q 47.125 21.390625 47.125 36.375 
Q 47.125 51.421875 43.28125 58.90625 
Q 39.453125 66.40625 31.78125 66.40625 
z
M 31.78125 74.21875 
Q 44.046875 74.21875 50.515625 64.515625 
Q 56.984375 54.828125 56.984375 36.375 
Q 56.984375 17.96875 50.515625 8.265625 
Q 44.046875 -1.421875 31.78125 -1.421875 
Q 19.53125 -1.421875 13.0625 8.265625 
Q 6.59375 17.96875 6.59375 36.375 
Q 6.59375 54.828125 13.0625 64.515625 
Q 19.53125 74.21875 31.78125 74.21875 
z
" id="DejaVuSans-48"/>
      </defs>
      <g transform="translate(82.473362 291.410437)scale(0.1 -0.1)">
       <use xlink:href="#DejaVuSans-48"/>
      </g>
     </g>
    </g>
    <g id="xtick_2">
     <g id="line2d_2">
      <g>
       <use style="stroke:#000000;stroke-width:0.8;" x="158.068209" xlink:href="#m69e3363e0a" y="276.812"/>
      </g>
     </g>
     <g id="text_2">
      <!-- 10 -->
      <defs>
       <path d="M 12.40625 8.296875 
L 28.515625 8.296875 
L 28.515625 63.921875 
L 10.984375 60.40625 
L 10.984375 69.390625 
L 28.421875 72.90625 
L 38.28125 72.90625 
L 38.28125 8.296875 
L 54.390625 8.296875 
L 54.390625 0 
L 12.40625 0 
z
" id="DejaVuSans-49"/>
      </defs>
      <g transform="translate(151.705709 291.410437)scale(0.1 -0.1)">
       <use xlink:href="#DejaVuSans-49"/>
       <use x="63.623047" xlink:href="#DejaVuSans-48"/>
      </g>
     </g>
    </g>
    <g id="xtick_3">
     <g id="line2d_3">
      <g>
       <use style="stroke:#000000;stroke-width:0.8;" x="230.481806" xlink:href="#m69e3363e0a" y="276.812"/>
      </g>
     </g>
     <g id="text_3">
      <!-- 20 -->
      <defs>
       <path d="M 19.1875 8.296875 
L 53.609375 8.296875 
L 53.609375 0 
L 7.328125 0 
L 7.328125 8.296875 
Q 12.9375 14.109375 22.625 23.890625 
Q 32.328125 33.6875 34.8125 36.53125 
Q 39.546875 41.84375 41.421875 45.53125 
Q 43.3125 49.21875 43.3125 52.78125 
Q 43.3125 58.59375 39.234375 62.25 
Q 35.15625 65.921875 28.609375 65.921875 
Q 23.96875 65.921875 18.8125 64.3125 
Q 13.671875 62.703125 7.8125 59.421875 
L 7.8125 69.390625 
Q 13.765625 71.78125 18.9375 73 
Q 24.125 74.21875 28.421875 74.21875 
Q 39.75 74.21875 46.484375 68.546875 
Q 53.21875 62.890625 53.21875 53.421875 
Q 53.21875 48.921875 51.53125 44.890625 
Q 49.859375 40.875 45.40625 35.40625 
Q 44.1875 33.984375 37.640625 27.21875 
Q 31.109375 20.453125 19.1875 8.296875 
z
" id="DejaVuSans-50"/>
      </defs>
      <g transform="translate(224.119306 291.410437)scale(0.1 -0.1)">
       <use xlink:href="#DejaVuSans-50"/>
       <use x="63.623047" xlink:href="#DejaVuSans-48"/>
      </g>
     </g>
    </g>
    <g id="xtick_4">
     <g id="line2d_4">
      <g>
       <use style="stroke:#000000;stroke-width:0.8;" x="302.895401" xlink:href="#m69e3363e0a" y="276.812"/>
      </g>
     </g>
     <g id="text_4">
      <!-- 30 -->
      <defs>
       <path d="M 40.578125 39.3125 
Q 47.65625 37.796875 51.625 33 
Q 55.609375 28.21875 55.609375 21.1875 
Q 55.609375 10.40625 48.1875 4.484375 
Q 40.765625 -1.421875 27.09375 -1.421875 
Q 22.515625 -1.421875 17.65625 -0.515625 
Q 12.796875 0.390625 7.625 2.203125 
L 7.625 11.71875 
Q 11.71875 9.328125 16.59375 8.109375 
Q 21.484375 6.890625 26.8125 6.890625 
Q 36.078125 6.890625 40.9375 10.546875 
Q 45.796875 14.203125 45.796875 21.1875 
Q 45.796875 27.640625 41.28125 31.265625 
Q 36.765625 34.90625 28.71875 34.90625 
L 20.21875 34.90625 
L 20.21875 43.015625 
L 29.109375 43.015625 
Q 36.375 43.015625 40.234375 45.921875 
Q 44.09375 48.828125 44.09375 54.296875 
Q 44.09375 59.90625 40.109375 62.90625 
Q 36.140625 65.921875 28.71875 65.921875 
Q 24.65625 65.921875 20.015625 65.03125 
Q 15.375 64.15625 9.8125 62.3125 
L 9.8125 71.09375 
Q 15.4375 72.65625 20.34375 73.4375 
Q 25.25 74.21875 29.59375 74.21875 
Q 40.828125 74.21875 47.359375 69.109375 
Q 53.90625 64.015625 53.90625 55.328125 
Q 53.90625 49.265625 50.4375 45.09375 
Q 46.96875 40.921875 40.578125 39.3125 
z
" id="DejaVuSans-51"/>
      </defs>
      <g transform="translate(296.532901 291.410437)scale(0.1 -0.1)">
       <use xlink:href="#DejaVuSans-51"/>
       <use x="63.623047" xlink:href="#DejaVuSans-48"/>
      </g>
     </g>
    </g>
    <g id="xtick_5">
     <g id="line2d_5">
      <g>
       <use style="stroke:#000000;stroke-width:0.8;" x="375.308998" xlink:href="#m69e3363e0a" y="276.812"/>
      </g>
     </g>
     <g id="text_5">
      <!-- 40 -->
      <defs>
       <path d="M 37.796875 64.3125 
L 12.890625 25.390625 
L 37.796875 25.390625 
z
M 35.203125 72.90625 
L 47.609375 72.90625 
L 47.609375 25.390625 
L 58.015625 25.390625 
L 58.015625 17.1875 
L 47.609375 17.1875 
L 47.609375 0 
L 37.796875 0 
L 37.796875 17.1875 
L 4.890625 17.1875 
L 4.890625 26.703125 
z
" id="DejaVuSans-52"/>
      </defs>
      <g transform="translate(368.946498 291.410437)scale(0.1 -0.1)">
       <use xlink:href="#DejaVuSans-52"/>
       <use x="63.623047" xlink:href="#DejaVuSans-48"/>
      </g>
     </g>
    </g>
    <g id="text_6">
     <!-- +1.5961753e9 -->
     <defs>
      <path d="M 46 62.703125 
L 46 35.5 
L 73.1875 35.5 
L 73.1875 27.203125 
L 46 27.203125 
L 46 0 
L 37.796875 0 
L 37.796875 27.203125 
L 10.59375 27.203125 
L 10.59375 35.5 
L 37.796875 35.5 
L 37.796875 62.703125 
z
" id="DejaVuSans-43"/>
      <path d="M 10.6875 12.40625 
L 21 12.40625 
L 21 0 
L 10.6875 0 
z
" id="DejaVuSans-46"/>
      <path d="M 10.796875 72.90625 
L 49.515625 72.90625 
L 49.515625 64.59375 
L 19.828125 64.59375 
L 19.828125 46.734375 
Q 21.96875 47.46875 24.109375 47.828125 
Q 26.265625 48.1875 28.421875 48.1875 
Q 40.625 48.1875 47.75 41.5 
Q 54.890625 34.8125 54.890625 23.390625 
Q 54.890625 11.625 47.5625 5.09375 
Q 40.234375 -1.421875 26.90625 -1.421875 
Q 22.3125 -1.421875 17.546875 -0.640625 
Q 12.796875 0.140625 7.71875 1.703125 
L 7.71875 11.625 
Q 12.109375 9.234375 16.796875 8.0625 
Q 21.484375 6.890625 26.703125 6.890625 
Q 35.15625 6.890625 40.078125 11.328125 
Q 45.015625 15.765625 45.015625 23.390625 
Q 45.015625 31 40.078125 35.4375 
Q 35.15625 39.890625 26.703125 39.890625 
Q 22.75 39.890625 18.8125 39.015625 
Q 14.890625 38.140625 10.796875 36.28125 
z
" id="DejaVuSans-53"/>
      <path d="M 10.984375 1.515625 
L 10.984375 10.5 
Q 14.703125 8.734375 18.5 7.8125 
Q 22.3125 6.890625 25.984375 6.890625 
Q 35.75 6.890625 40.890625 13.453125 
Q 46.046875 20.015625 46.78125 33.40625 
Q 43.953125 29.203125 39.59375 26.953125 
Q 35.25 24.703125 29.984375 24.703125 
Q 19.046875 24.703125 12.671875 31.3125 
Q 6.296875 37.9375 6.296875 49.421875 
Q 6.296875 60.640625 12.9375 67.421875 
Q 19.578125 74.21875 30.609375 74.21875 
Q 43.265625 74.21875 49.921875 64.515625 
Q 56.59375 54.828125 56.59375 36.375 
Q 56.59375 19.140625 48.40625 8.859375 
Q 40.234375 -1.421875 26.421875 -1.421875 
Q 22.703125 -1.421875 18.890625 -0.6875 
Q 15.09375 0.046875 10.984375 1.515625 
z
M 30.609375 32.421875 
Q 37.25 32.421875 41.125 36.953125 
Q 45.015625 41.5 45.015625 49.421875 
Q 45.015625 57.28125 41.125 61.84375 
Q 37.25 66.40625 30.609375 66.40625 
Q 23.96875 66.40625 20.09375 61.84375 
Q 16.21875 57.28125 16.21875 49.421875 
Q 16.21875 41.5 20.09375 36.953125 
Q 23.96875 32.421875 30.609375 32.421875 
z
" id="DejaVuSans-57"/>
      <path d="M 33.015625 40.375 
Q 26.375 40.375 22.484375 35.828125 
Q 18.609375 31.296875 18.609375 23.390625 
Q 18.609375 15.53125 22.484375 10.953125 
Q 26.375 6.390625 33.015625 6.390625 
Q 39.65625 6.390625 43.53125 10.953125 
Q 47.40625 15.53125 47.40625 23.390625 
Q 47.40625 31.296875 43.53125 35.828125 
Q 39.65625 40.375 33.015625 40.375 
z
M 52.59375 71.296875 
L 52.59375 62.3125 
Q 48.875 64.0625 45.09375 64.984375 
Q 41.3125 65.921875 37.59375 65.921875 
Q 27.828125 65.921875 22.671875 59.328125 
Q 17.53125 52.734375 16.796875 39.40625 
Q 19.671875 43.65625 24.015625 45.921875 
Q 28.375 48.1875 33.59375 48.1875 
Q 44.578125 48.1875 50.953125 41.515625 
Q 57.328125 34.859375 57.328125 23.390625 
Q 57.328125 12.15625 50.6875 5.359375 
Q 44.046875 -1.421875 33.015625 -1.421875 
Q 20.359375 -1.421875 13.671875 8.265625 
Q 6.984375 17.96875 6.984375 36.375 
Q 6.984375 53.65625 15.1875 63.9375 
Q 23.390625 74.21875 37.203125 74.21875 
Q 40.921875 74.21875 44.703125 73.484375 
Q 48.484375 72.75 52.59375 71.296875 
z
" id="DejaVuSans-54"/>
      <path d="M 8.203125 72.90625 
L 55.078125 72.90625 
L 55.078125 68.703125 
L 28.609375 0 
L 18.3125 0 
L 43.21875 64.59375 
L 8.203125 64.59375 
z
" id="DejaVuSans-55"/>
      <path d="M 56.203125 29.59375 
L 56.203125 25.203125 
L 14.890625 25.203125 
Q 15.484375 15.921875 20.484375 11.0625 
Q 25.484375 6.203125 34.421875 6.203125 
Q 39.59375 6.203125 44.453125 7.46875 
Q 49.3125 8.734375 54.109375 11.28125 
L 54.109375 2.78125 
Q 49.265625 0.734375 44.1875 -0.34375 
Q 39.109375 -1.421875 33.890625 -1.421875 
Q 20.796875 -1.421875 13.15625 6.1875 
Q 5.515625 13.8125 5.515625 26.8125 
Q 5.515625 40.234375 12.765625 48.109375 
Q 20.015625 56 32.328125 56 
Q 43.359375 56 49.78125 48.890625 
Q 56.203125 41.796875 56.203125 29.59375 
z
M 47.21875 32.234375 
Q 47.125 39.59375 43.09375 43.984375 
Q 39.0625 48.390625 32.421875 48.390625 
Q 24.90625 48.390625 20.390625 44.140625 
Q 15.875 39.890625 15.1875 32.171875 
z
" id="DejaVuSans-101"/>
     </defs>
     <g transform="translate(315.434063 304.088562)scale(0.1 -0.1)">
      <use xlink:href="#DejaVuSans-43"/>
      <use x="83.789062" xlink:href="#DejaVuSans-49"/>
      <use x="147.412109" xlink:href="#DejaVuSans-46"/>
      <use x="179.199219" xlink:href="#DejaVuSans-53"/>
      <use x="242.822266" xlink:href="#DejaVuSans-57"/>
      <use x="306.445312" xlink:href="#DejaVuSans-54"/>
      <use x="370.068359" xlink:href="#DejaVuSans-49"/>
      <use x="433.691406" xlink:href="#DejaVuSans-55"/>
      <use x="497.314453" xlink:href="#DejaVuSans-53"/>
      <use x="560.9375" xlink:href="#DejaVuSans-51"/>
      <use x="624.560547" xlink:href="#DejaVuSans-101"/>
      <use x="686.083984" xlink:href="#DejaVuSans-57"/>
     </g>
    </g>
   </g>
   <g id="matplotlib.axis_2">
    <g id="ytick_1">
     <g id="line2d_6">
      <defs>
       <path d="M 0 0 
L -3.5 0 
" id="md3ec062675" style="stroke:#000000;stroke-width:0.8;"/>
      </defs>
      <g>
       <use style="stroke:#000000;stroke-width:0.8;" x="33.2875" xlink:href="#md3ec062675" y="273.845882"/>
      </g>
     </g>
     <g id="text_7">
      <!-- 114 -->
      <g transform="translate(7.2 277.6451)scale(0.1 -0.1)">
       <use xlink:href="#DejaVuSans-49"/>
       <use x="63.623047" xlink:href="#DejaVuSans-49"/>
       <use x="127.246094" xlink:href="#DejaVuSans-52"/>
      </g>
     </g>
    </g>
    <g id="ytick_2">
     <g id="line2d_7">
      <g>
       <use style="stroke:#000000;stroke-width:0.8;" x="33.2875" xlink:href="#md3ec062675" y="229.610947"/>
      </g>
     </g>
     <g id="text_8">
      <!-- 115 -->
      <g transform="translate(7.2 233.410166)scale(0.1 -0.1)">
       <use xlink:href="#DejaVuSans-49"/>
       <use x="63.623047" xlink:href="#DejaVuSans-49"/>
       <use x="127.246094" xlink:href="#DejaVuSans-53"/>
      </g>
     </g>
    </g>
    <g id="ytick_3">
     <g id="line2d_8">
      <g>
       <use style="stroke:#000000;stroke-width:0.8;" x="33.2875" xlink:href="#md3ec062675" y="185.376013"/>
      </g>
     </g>
     <g id="text_9">
      <!-- 116 -->
      <g transform="translate(7.2 189.175232)scale(0.1 -0.1)">
       <use xlink:href="#DejaVuSans-49"/>
       <use x="63.623047" xlink:href="#DejaVuSans-49"/>
       <use x="127.246094" xlink:href="#DejaVuSans-54"/>
      </g>
     </g>
    </g>
    <g id="ytick_4">
     <g id="line2d_9">
      <g>
       <use style="stroke:#000000;stroke-width:0.8;" x="33.2875" xlink:href="#md3ec062675" y="141.141078"/>
      </g>
     </g>
     <g id="text_10">
      <!-- 117 -->
      <g transform="translate(7.2 144.940297)scale(0.1 -0.1)">
       <use xlink:href="#DejaVuSans-49"/>
       <use x="63.623047" xlink:href="#DejaVuSans-49"/>
       <use x="127.246094" xlink:href="#DejaVuSans-55"/>
      </g>
     </g>
    </g>
    <g id="ytick_5">
     <g id="line2d_10">
      <g>
       <use style="stroke:#000000;stroke-width:0.8;" x="33.2875" xlink:href="#md3ec062675" y="96.906144"/>
      </g>
     </g>
     <g id="text_11">
      <!-- 118 -->
      <defs>
       <path d="M 31.78125 34.625 
Q 24.75 34.625 20.71875 30.859375 
Q 16.703125 27.09375 16.703125 20.515625 
Q 16.703125 13.921875 20.71875 10.15625 
Q 24.75 6.390625 31.78125 6.390625 
Q 38.8125 6.390625 42.859375 10.171875 
Q 46.921875 13.96875 46.921875 20.515625 
Q 46.921875 27.09375 42.890625 30.859375 
Q 38.875 34.625 31.78125 34.625 
z
M 21.921875 38.8125 
Q 15.578125 40.375 12.03125 44.71875 
Q 8.5 49.078125 8.5 55.328125 
Q 8.5 64.0625 14.71875 69.140625 
Q 20.953125 74.21875 31.78125 74.21875 
Q 42.671875 74.21875 48.875 69.140625 
Q 55.078125 64.0625 55.078125 55.328125 
Q 55.078125 49.078125 51.53125 44.71875 
Q 48 40.375 41.703125 38.8125 
Q 48.828125 37.15625 52.796875 32.3125 
Q 56.78125 27.484375 56.78125 20.515625 
Q 56.78125 9.90625 50.3125 4.234375 
Q 43.84375 -1.421875 31.78125 -1.421875 
Q 19.734375 -1.421875 13.25 4.234375 
Q 6.78125 9.90625 6.78125 20.515625 
Q 6.78125 27.484375 10.78125 32.3125 
Q 14.796875 37.15625 21.921875 38.8125 
z
M 18.3125 54.390625 
Q 18.3125 48.734375 21.84375 45.5625 
Q 25.390625 42.390625 31.78125 42.390625 
Q 38.140625 42.390625 41.71875 45.5625 
Q 45.3125 48.734375 45.3125 54.390625 
Q 45.3125 60.0625 41.71875 63.234375 
Q 38.140625 66.40625 31.78125 66.40625 
Q 25.390625 66.40625 21.84375 63.234375 
Q 18.3125 60.0625 18.3125 54.390625 
z
" id="DejaVuSans-56"/>
      </defs>
      <g transform="translate(7.2 100.705363)scale(0.1 -0.1)">
       <use xlink:href="#DejaVuSans-49"/>
       <use x="63.623047" xlink:href="#DejaVuSans-49"/>
       <use x="127.246094" xlink:href="#DejaVuSans-56"/>
      </g>
     </g>
    </g>
    <g id="ytick_6">
     <g id="line2d_11">
      <g>
       <use style="stroke:#000000;stroke-width:0.8;" x="33.2875" xlink:href="#md3ec062675" y="52.67121"/>
      </g>
     </g>
     <g id="text_12">
      <!-- 119 -->
      <g transform="translate(7.2 56.470428)scale(0.1 -0.1)">
       <use xlink:href="#DejaVuSans-49"/>
       <use x="63.623047" xlink:href="#DejaVuSans-49"/>
       <use x="127.246094" xlink:href="#DejaVuSans-57"/>
      </g>
     </g>
    </g>
   </g>
   <g id="line2d_12">
    <path clip-path="url(#pf582f34ced)" d="M 49.520227 96.88716 
L 49.737469 97.006757 
L 49.809881 96.904246 
L 49.882296 96.98018 
L 50.099537 96.940314 
L 50.316776 96.947908 
L 50.389191 96.816921 
L 50.461603 96.868177 
L 50.823671 97.044724 
L 50.968498 96.849193 
L 51.258152 97.025741 
L 51.402979 96.782751 
L 51.62022 97.029537 
L 51.765047 97.004859 
L 52.054701 96.983977 
L 52.207905 264.58881 
L 52.352732 264.556538 
L 52.497559 264.514774 
L 52.642385 264.590708 
L 52.787214 264.590708 
L 53.076868 264.640066 
L 53.221695 264.564131 
L 53.294107 264.482502 
L 53.366522 264.670439 
L 53.438934 264.501486 
L 53.511349 264.564131 
L 53.656176 264.467315 
L 53.72859 264.657151 
L 53.801003 264.510977 
L 53.873417 264.679931 
L 54.018244 264.509079 
L 54.090656 264.649557 
L 54.163071 264.594505 
L 54.452724 264.594505 
L 54.742378 264.454027 
L 54.814793 264.659049 
L 54.887205 264.448332 
L 55.032032 264.632472 
L 55.104446 264.562233 
L 55.249273 264.653354 
L 55.3941 264.533758 
L 55.466515 264.651456 
L 55.538927 264.543249 
L 55.611341 264.68183 
L 55.683754 264.602099 
L 55.900995 264.558436 
L 55.973408 264.478705 
L 56.045822 264.647659 
L 56.190649 264.46162 
L 56.335476 264.592607 
L 56.552717 264.490095 
L 56.62513 264.706508 
L 56.697544 264.581217 
L 57.059612 264.531859 
L 57.132025 264.643862 
L 57.276852 264.499587 
L 57.494093 264.651456 
L 57.566505 264.647659 
L 57.63892 264.480604 
L 57.711332 264.716 
L 57.783747 264.641964 
L 57.928574 264.528063 
L 58.000988 264.659049 
L 58.0734 264.567928 
L 58.290642 264.56603 
L 58.435469 264.6002 
L 58.507881 264.465417 
L 58.65271 264.651456 
L 58.942364 264.547046 
L 59.014776 264.630574 
L 59.087191 264.501486 
L 59.159603 264.655253 
L 59.232018 264.556538 
L 59.449259 264.636269 
L 59.738913 264.503384 
L 59.811325 264.607794 
L 59.883739 264.433145 
L 59.956152 264.569826 
L 60.028566 264.493892 
L 60.100979 264.518571 
L 60.173393 264.662846 
L 60.245806 264.61159 
L 60.31822 264.482502 
L 60.390635 264.573623 
L 60.680288 264.573623 
L 60.752701 264.490095 
L 60.897528 264.583115 
L 61.694077 264.581217 
L 61.766491 264.569826 
L 61.838903 120.870672 
L 61.911318 120.963692 
L 62.056145 120.800433 
L 62.418213 120.847892 
L 62.56304 120.675142 
L 62.707867 120.864977 
L 62.925108 120.768161 
L 63.142347 120.929522 
L 63.359589 120.741584 
L 63.432001 120.678938 
L 63.504416 120.863079 
L 63.576828 120.726397 
L 63.649242 120.969387 
L 63.794069 120.821315 
L 64.011311 120.747279 
L 64.22855 120.940912 
L 64.373377 120.663752 
L 64.518206 120.80423 
L 64.590618 120.809925 
L 64.663033 120.667548 
L 64.735445 120.752974 
L 64.880272 120.845994 
L 65.025099 120.671345 
L 65.24234 120.866876 
L 65.387167 120.904843 
L 65.531994 120.733991 
L 65.604408 120.821315 
L 65.676821 120.722601 
L 65.821648 120.836502 
L 65.966475 120.798535 
L 66.111303 120.868774 
L 66.183716 120.811823 
L 66.328543 120.882063 
L 66.400957 120.878266 
L 66.474085 233.64866 
L 66.546499 233.511978 
L 67.198219 233.508181 
L 67.270634 233.481604 
L 67.343046 233.584115 
L 67.415461 233.530961 
L 67.560287 233.604997 
L 67.632702 233.477807 
L 67.705114 233.699915 
L 67.777529 233.633473 
L 67.922356 233.519571 
L 68.067183 233.622083 
L 68.284424 233.601201 
L 68.356836 233.690424 
L 68.574078 233.570827 
L 68.936144 233.631574 
L 69.370626 233.616388 
L 69.515453 233.586014 
L 69.587866 233.492994 
L 69.66028 233.63727 
L 69.732693 233.561335 
L 69.877522 233.64866 
L 70.022348 233.538555 
L 70.094761 233.642965 
L 70.312002 233.477807 
L 70.456829 233.639168 
L 70.746483 233.641066 
L 70.89131 233.586014 
L 71.036137 233.650558 
L 71.108551 233.523368 
L 71.180964 233.618286 
L 71.832685 233.559437 
L 71.977512 233.460722 
L 72.556822 233.64866 
L 72.629234 233.515775 
L 72.701649 233.606896 
L 72.774061 233.542352 
L 72.846476 233.642965 
L 72.991302 233.55564 
L 73.136129 233.546148 
L 73.208542 233.466417 
L 73.280956 233.551843 
L 73.353371 233.675237 
L 73.425783 233.52147 
L 73.498198 233.654355 
L 73.57061 233.487299 
L 73.643024 233.625879 
L 73.715437 233.487299 
L 73.787851 233.633473 
L 73.860264 233.513876 
L 73.932678 233.587912 
L 74.077505 233.536657 
L 74.222332 233.720797 
L 74.294746 233.536657 
L 74.367159 233.641066 
L 74.439573 233.500588 
L 74.511986 233.586014 
L 74.729227 233.525266 
L 74.80164 233.699915 
L 74.946468 233.595506 
L 75.670603 233.568929 
L 75.743017 233.690424 
L 75.81543 233.513876 
L 75.887844 233.610692 
L 75.960257 233.646761 
L 76.032671 233.506283 
L 76.105083 233.698017 
L 76.177498 73.765173 
L 76.24991 73.875277 
L 76.322325 73.905651 
L 76.394737 73.753782 
L 76.467152 73.79175 
L 76.611979 73.776563 
L 76.756805 73.827818 
L 76.82922 73.685442 
L 76.901632 73.822123 
L 76.974047 73.660763 
L 77.046459 73.725307 
L 77.336113 73.844904 
L 77.553354 73.734799 
L 77.843008 73.901854 
L 77.915422 73.702527 
L 78.060249 73.843005 
L 78.132662 73.685442 
L 78.205076 73.894261 
L 78.277491 73.79175 
L 78.422318 73.854395 
L 78.639557 73.69873 
L 78.929211 73.932228 
L 79.074039 73.727205 
L 79.291279 73.812631 
L 79.363693 73.715815 
L 79.436106 73.770868 
L 79.870586 73.7329 
L 79.943001 73.685442 
L 80.087828 73.808835 
L 80.160242 73.759477 
L 80.232655 73.901854 
L 80.377481 73.715815 
L 80.449896 73.884769 
L 80.522308 73.744291 
L 80.594723 73.789851 
L 80.73955 73.81453 
L 80.927317 233.250543 
L 81.072144 233.286612 
L 81.579037 233.132845 
L 81.651451 233.330274 
L 81.796278 233.119556 
L 81.868692 233.235356 
L 81.941105 233.187897 
L 82.013519 233.229661 
L 82.085932 233.102471 
L 82.158346 233.267628 
L 82.230759 233.170812 
L 82.810068 233.203084 
L 82.954895 233.252441 
L 83.099722 233.098674 
L 83.389376 233.233458 
L 83.534203 233.14993 
L 83.751444 233.204982 
L 83.896271 233.140438 
L 84.041098 233.203084 
L 84.765232 233.284713 
L 84.910059 233.144235 
L 85.199715 233.197389 
L 85.344542 233.123353 
L 85.416954 233.246746 
L 85.489368 233.182202 
L 85.561781 233.117658 
L 85.706608 233.244848 
L 85.851437 233.191694 
L 85.923849 233.282815 
L 85.996264 233.222068 
L 86.213503 233.157523 
L 86.285917 233.246746 
L 86.35833 233.182202 
L 86.575571 233.25434 
L 86.720398 233.144235 
L 86.865225 233.313189 
L 87.010052 233.189795 
L 87.37212 233.148032 
L 87.444532 233.256238 
L 87.516947 233.176507 
L 87.661774 233.212576 
L 87.951427 233.185999 
L 88.168669 233.167015 
L 88.530737 233.269526 
L 88.603149 233.157523 
L 88.675564 233.28851 
L 88.892803 233.140438 
L 88.965218 233.148032 
L 89.110044 233.330274 
L 89.254871 233.13854 
L 89.472113 233.235356 
L 89.544525 233.12715 
L 89.61694 233.1841 
L 89.979006 233.305595 
L 90.196247 233.195491 
L 90.268661 233.294205 
L 90.341074 233.092979 
L 90.413488 233.174609 
L 90.485901 233.233458 
L 90.630728 22.854849 
L 90.703142 22.814984 
L 90.847969 22.989632 
L 91.06521 22.959259 
L 91.210037 22.866239 
L 91.28245 22.972547 
L 91.354864 22.845357 
L 91.427277 22.93458 
L 91.861759 22.915597 
L 91.934172 22.964954 
L 92.006586 22.843459 
L 92.223825 23.0276 
L 92.513481 22.849154 
L 92.658308 22.980141 
L 92.730721 22.826374 
L 92.803135 22.926987 
L 92.947962 22.832069 
L 93.382442 22.877629 
L 93.454857 23.042786 
L 93.599684 22.868138 
L 93.744511 22.894715 
L 93.889338 22.88902 
L 93.96175 23.065567 
L 94.034164 22.904206 
L 94.106577 22.983937 
L 94.251406 22.980141 
L 94.323818 23.001023 
L 94.396233 22.875731 
L 94.468645 22.993429 
L 94.613472 22.843459 
L 94.685886 22.982039 
L 94.758299 22.9118 
L 94.903126 23.048482 
L 94.97554 22.875731 
L 95.047955 22.976344 
L 95.120367 22.908003 
L 95.235598 182.36945 
L 95.30801 182.282126 
L 95.959732 182.441588 
L 96.104559 182.274533 
L 96.394215 182.378942 
L 96.828695 182.435893 
L 96.901108 182.48525 
L 96.973522 182.306805 
L 97.118349 182.388434 
L 97.33559 182.33528 
L 97.408003 182.415011 
L 97.480417 182.200497 
L 97.55283 182.249854 
L 97.625244 182.236565 
L 97.697657 182.392231 
L 97.770071 182.274533 
L 97.842484 182.361857 
L 98.059725 182.396027 
L 98.204552 182.426401 
L 98.349379 182.270736 
L 98.56662 182.437791 
L 98.783859 182.293516 
L 98.928688 182.390332 
L 99.073515 182.299211 
L 99.145927 182.443486 
L 99.218342 182.251752 
L 99.290754 182.280228 
L 99.507996 182.399824 
L 99.725237 182.255549 
L 99.942476 182.363755 
L 100.159718 182.320093 
L 100.23213 182.471962 
L 100.304544 182.337178 
L 100.376957 182.426401 
L 100.449371 182.352365 
L 100.521784 182.477657 
L 100.594198 182.255549 
L 100.739025 182.471962 
L 100.81144 182.445385 
L 100.883852 182.291618 
L 100.956266 182.359959 
L 101.028679 182.454877 
L 101.101093 182.272634 
L 101.173506 182.377044 
L 101.24592 182.270736 
L 101.318333 182.321991 
L 101.535574 182.287821 
L 101.607988 182.481454 
L 101.752815 182.299211 
L 103.056259 182.456775 
L 103.201086 182.331483 
L 103.345913 182.396027 
L 103.635567 182.282126 
L 103.780394 182.321991 
L 103.997635 182.371349 
L 104.070047 182.191005 
L 104.287289 182.384637 
L 104.721769 182.320093 
L 104.866596 182.354264 
L 104.939011 73.626827 
L 105.011423 73.63442 
L 106.17004 73.556588 
L 106.676935 73.61164 
L 106.749348 73.421804 
L 106.894175 73.545198 
L 107.111416 73.585063 
L 107.183828 73.503434 
L 107.256243 73.668591 
L 107.40107 73.528112 
L 107.618311 73.624929 
L 107.83555 73.478755 
L 107.980377 73.621132 
L 108.052792 73.476857 
L 108.197618 73.653404 
L 108.342445 73.459771 
L 108.41486 73.693269 
L 108.487272 73.552791 
L 108.632099 73.499637 
L 108.776926 73.647709 
L 108.84934 73.509129 
L 108.921755 73.583165 
L 108.994167 73.516722 
L 109.066582 73.651506 
L 109.211409 73.48445 
L 109.283821 72.711819 
L 109.428648 73.596453 
L 109.501062 73.488247 
L 109.616222 232.488777 
L 109.688637 232.376774 
L 109.761051 232.572305 
L 109.833464 232.401453 
L 109.905878 232.460302 
L 110.050705 232.350197 
L 110.123117 232.598882 
L 110.195532 232.572305 
L 110.847254 232.336908 
L 110.919666 232.530541 
L 110.992081 232.407148 
L 111.281734 232.441318 
L 111.426561 232.48498 
L 112.150696 232.496371 
L 112.295525 232.401453 
L 112.367937 232.492574 
L 112.512764 232.363485 
L 112.657591 232.481184 
L 112.874832 232.458403 
L 113.019659 232.486879 
L 113.092073 232.391961 
L 113.2369 232.469794 
L 113.45414 232.3464 
L 113.526554 232.528643 
L 113.598967 232.416639 
L 113.671381 232.570406 
L 113.743793 232.361587 
L 113.816208 232.410944 
L 113.88862 232.545728 
L 113.961035 232.483082 
L 114.033449 232.551423 
L 114.250689 232.403351 
L 114.46793 232.583695 
L 114.540342 232.420436 
L 114.685169 232.549525 
L 114.757584 232.371079 
L 114.829998 232.521049 
L 114.902411 232.422335 
L 115.119652 232.570406 
L 115.409306 232.365384 
L 115.554132 232.538134 
L 115.626547 232.391961 
L 115.698959 232.505862 
L 115.843786 232.361587 
L 115.988613 232.513456 
L 116.205854 232.431826 
L 116.278267 232.540033 
L 116.350681 232.469794 
L 116.495508 232.416639 
L 116.640335 232.397656 
L 117.002403 232.437521 
L 117.074816 232.416639 
L 117.219643 232.486879 
L 117.436884 232.551423 
L 117.654125 232.353994 
L 117.726538 232.43942 
L 117.798952 232.367282 
L 118.450674 232.458403 
L 118.523087 232.331213 
L 118.595501 232.401453 
L 118.667913 232.412843 
L 118.740328 232.570406 
L 118.81274 232.534338 
L 118.957569 232.477387 
L 119.029982 232.576102 
L 119.247223 232.3464 
L 119.319635 73.356788 
L 119.39205 73.438418 
L 119.609289 73.396654 
L 119.681704 73.548523 
L 119.754116 73.461198 
L 119.898945 73.472588 
L 120.550665 73.455503 
L 120.912733 73.573201 
L 121.709282 73.411841 
L 121.781696 73.544726 
L 121.854109 73.387162 
L 121.926523 73.4593 
L 121.998936 73.341602 
L 122.07135 73.408044 
L 122.216177 73.438418 
L 122.288591 73.531437 
L 122.361004 73.373874 
L 122.433418 73.529539 
L 122.578245 73.4593 
L 122.867899 73.552319 
L 123.012726 73.389061 
L 123.157553 73.573201 
L 123.229967 73.489673 
L 123.30238 73.402349 
L 123.374794 73.565608 
L 123.447206 73.455503 
L 123.881687 73.499165 
L 124.069624 232.855175 
L 124.142036 232.800122 
L 124.214451 232.915922 
L 124.286863 232.773545 
L 124.359278 232.855175 
L 124.43169 232.967178 
L 124.576519 232.843784 
L 124.721346 232.925414 
L 125.011 232.794427 
L 125.083412 232.948194 
L 125.155827 232.893142 
L 125.373068 232.959584 
L 125.44548 232.858971 
L 125.517895 232.912125 
L 125.662722 232.934906 
L 125.807549 232.864666 
L 125.952375 232.864666 
L 126.097202 232.798224 
L 126.45927 232.902634 
L 126.531683 232.843784 
L 126.604097 232.931109 
L 126.67651 232.773545 
L 126.748924 232.877955 
L 126.966164 232.800122 
L 127.183405 232.948194 
L 127.255819 232.760257 
L 127.328232 232.908329 
L 127.400646 232.826699 
L 128.848917 232.826699 
L 128.921329 232.978568 
L 128.993744 232.803919 
L 129.066156 232.950092 
L 129.210983 232.765952 
L 129.283398 232.967178 
L 129.35581 232.764053 
L 129.428225 232.868463 
L 129.573051 232.858971 
L 129.717878 232.805817 
L 129.790293 232.961483 
L 129.862705 232.870361 
L 129.93512 232.746968 
L 130.152359 232.953889 
L 130.297186 232.857073 
L 130.876495 232.862768 
L 130.948908 232.750765 
L 131.021322 232.824801 
L 131.093735 232.834293 
L 131.166149 232.997551 
L 131.238564 232.758358 
L 131.310976 232.868463 
L 131.962698 232.817207 
L 132.035112 232.931109 
L 132.107525 232.843784 
L 132.324766 232.978568 
L 132.469593 232.815309 
L 132.542006 232.931109 
L 132.61442 232.874158 
L 132.686832 232.741273 
L 132.904074 232.963381 
L 133.121315 232.781139 
L 133.266142 232.910227 
L 133.410969 232.889345 
L 133.483381 232.76785 
L 133.555796 232.921617 
L 133.628208 232.803919 
L 133.700623 73.714414 
L 133.773037 73.744787 
L 133.845449 73.820722 
L 134.062691 73.636581 
L 134.27993 73.805535 
L 134.352345 73.640378 
L 134.424757 73.722007 
L 134.497171 73.674548 
L 134.641998 73.712515 
L 134.786825 73.746686 
L 134.85924 73.64987 
L 135.004066 73.892859 
L 135.29372 73.666955 
L 135.366135 73.769466 
L 135.438547 73.628988 
L 135.510962 73.703024 
L 135.583374 73.733397 
L 135.655788 73.889063 
L 135.728201 73.849197 
L 136.017855 73.704922 
L 136.090269 73.862486 
L 136.30751 73.674548 
L 136.379923 73.655565 
L 136.452337 73.792246 
L 136.597164 73.659361 
L 136.741991 73.873876 
L 136.814404 73.765669 
L 136.886818 73.828315 
L 137.176472 73.780856 
L 137.321299 73.691633 
L 138.190262 73.782755 
L 138.262674 73.640378 
L 138.450472 233.192105 
L 138.595299 233.038338 
L 138.740126 233.063017 
L 138.957367 233.028846 
L 139.174608 233.121866 
L 139.319435 232.971895 
L 139.391848 233.082 
L 139.464262 233.015558 
L 139.681501 233.017456 
L 140.188396 233.085797 
L 140.405638 233.089594 
L 141.129772 233.030745 
L 141.202187 233.110476 
L 141.274599 233.017456 
L 141.347013 233.184511 
L 141.49184 233.019354 
L 141.636667 233.16363 
L 141.781494 232.975692 
L 141.853909 233.066813 
L 141.998735 233.159833 
L 142.143562 233.061118 
L 142.215975 233.110476 
L 142.360802 232.992777 
L 142.578043 233.07061 
L 142.650457 233.138951 
L 142.72287 233.019354 
L 142.867697 233.146544 
L 143.157351 232.971895 
L 143.229765 233.095289 
L 143.374592 233.030745 
L 143.591833 232.975692 
L 143.73666 233.165528 
L 144.388382 232.962404 
L 144.533209 233.121866 
L 144.605621 232.918741 
L 144.678036 232.981387 
L 145.112516 233.131357 
L 145.257343 233.182613 
L 145.40217 233.000371 
L 145.474585 233.171223 
L 145.546997 233.032643 
L 145.619411 233.080102 
L 145.764238 233.154138 
L 145.909065 233.089594 
L 146.053892 233.154138 
L 146.271133 232.998472 
L 146.488373 233.123764 
L 146.633202 233.042135 
L 146.705614 233.131357 
L 146.778028 233.072508 
L 146.850441 233.076305 
L 146.922855 232.945318 
L 146.995268 233.102882 
L 147.067682 233.061118 
L 147.140095 232.973794 
L 147.212509 233.051626 
L 147.284922 233.138951 
L 147.357336 232.930132 
L 147.429749 233.015558 
L 147.791817 233.144646 
L 147.936644 233.076305 
L 148.009058 233.165528 
L 148.08147 74.01279 
L 148.153885 74.027976 
L 148.298712 73.965331 
L 148.371126 74.090622 
L 148.443539 74.029875 
L 148.805607 74.043163 
L 149.022846 74.033671 
L 149.240088 74.083029 
L 149.384914 74.092521 
L 149.529741 74.026078 
L 149.602156 74.010891 
L 149.674568 74.145675 
L 149.819395 73.93116 
L 149.964224 74.043163 
L 150.036636 73.929262 
L 150.253878 74.113402 
L 150.32629 74.001399 
L 150.398705 74.111504 
L 150.471117 74.048858 
L 150.615944 73.925465 
L 150.760771 74.060248 
L 150.833185 74.153268 
L 150.978012 74.02418 
L 151.122839 74.109606 
L 151.34008 74.022281 
L 151.412493 74.016586 
L 151.55732 74.160861 
L 151.629734 73.971026 
L 151.702148 74.029875 
L 151.774561 74.141878 
L 151.919388 73.952042 
L 152.209042 74.107707 
L 152.426283 74.027976 
L 152.498697 74.05835 
L 152.643524 73.961534 
L 152.758833 233.503169 
L 152.831247 233.446219 
L 152.976074 233.440523 
L 153.048487 233.569612 
L 153.120901 233.506966 
L 153.265728 233.453812 
L 153.410555 233.459507 
L 153.627796 233.514559 
L 153.845036 233.415845 
L 153.91745 233.465202 
L 153.989862 233.379776 
L 154.134689 233.506966 
L 154.207104 233.487982 
L 154.279516 233.351301 
L 154.351931 233.431032 
L 154.424345 233.565815 
L 154.569172 233.404455 
L 154.786411 233.54873 
L 155.003653 233.448117 
L 155.076065 233.562018 
L 155.293306 233.389268 
L 155.438133 233.541136 
L 155.655375 233.381674 
L 156.017441 233.520254 
L 156.089855 233.487982 
L 156.16227 233.605681 
L 156.234682 233.358894 
L 156.307096 233.406353 
L 156.451923 233.351301 
L 156.524336 233.588595 
L 156.59675 233.431032 
L 156.669163 233.516458 
L 156.741577 233.550628 
L 156.886404 233.448117 
L 157.176058 233.468999 
L 157.320885 233.419642 
L 157.393299 233.489881 
L 157.465712 233.355097 
L 157.610538 233.472796 
L 157.682953 233.372183 
L 157.755365 233.43293 
L 157.900194 233.330419 
L 157.972607 233.56012 
L 158.045021 233.423438 
L 158.117434 233.347504 
L 158.26226 233.556323 
L 158.334675 233.364589 
L 158.407087 233.56012 
L 158.479502 233.472796 
L 158.696743 233.319029 
L 158.769156 233.501271 
L 158.84157 233.400658 
L 158.986397 233.423438 
L 159.131224 233.322825 
L 159.276051 233.423438 
L 159.348463 233.446219 
L 159.420877 233.319029 
L 159.565704 233.497474 
L 159.710531 233.345606 
L 159.855358 233.468999 
L 160.072599 233.379776 
L 160.145012 233.489881 
L 160.217426 233.389268 
L 160.289841 233.489881 
L 160.50708 233.347504 
L 160.651907 233.577205 
L 160.724321 233.470897 
L 161.013975 233.43293 
L 161.086388 233.562018 
L 161.158802 233.360792 
L 161.231216 233.429133 
L 161.376043 233.598087 
L 161.448456 233.374081 
L 161.52087 233.39876 
L 161.593283 233.573408 
L 161.665697 233.389268 
L 161.73811 233.429133 
L 161.882936 233.375979 
L 161.955351 233.503169 
L 162.027765 233.347504 
L 162.100178 233.412048 
L 162.317419 233.45571 
L 162.389832 233.558222 
L 162.534658 74.47385 
L 162.607073 74.523208 
L 162.7519 74.363746 
L 162.824314 74.606735 
L 163.041553 74.358051 
L 163.258795 74.585853 
L 163.331207 74.454867 
L 163.403622 74.498529 
L 163.548449 74.489037 
L 163.838102 74.534598 
L 163.910517 74.382729 
L 163.982929 74.430188 
L 164.127756 74.43968 
L 164.200171 74.348559 
L 164.344997 74.479545 
L 164.41741 74.549785 
L 164.489824 74.4169 
L 164.634651 74.515614 
L 164.779478 74.4169 
L 164.851892 74.557378 
L 164.924305 74.496631 
L 165.213959 74.454867 
L 165.358788 74.430188 
L 165.4312 74.373237 
L 165.576027 74.47385 
L 165.720854 74.33527 
L 165.793268 74.54409 
L 165.865681 74.356152 
L 165.938095 74.4169 
L 166.010508 74.494732 
L 166.155336 74.388424 
L 166.300163 74.56687 
L 166.372576 74.390323 
L 166.44499 74.477647 
L 166.589817 74.430188 
L 166.66223 74.388424 
L 166.734644 74.58965 
L 166.879471 74.369441 
L 166.951885 74.361847 
L 167.024298 74.479545 
L 167.21187 233.89118 
L 167.79118 233.760194 
L 167.863592 233.90257 
L 168.008419 233.701344 
L 168.370487 233.887384 
L 168.4429 233.792466 
L 168.515314 233.889282 
L 168.587729 233.832331 
L 169.673931 233.832331 
L 169.746344 233.974708 
L 169.818758 233.87979 
L 169.963585 233.881688 
L 170.180826 233.726023 
L 170.325653 233.851315 
L 170.398066 233.813348 
L 170.47048 233.917757 
L 170.542892 233.786771 
L 170.615307 233.8684 
L 170.977373 233.936741 
L 171.049788 233.963318 
L 171.267029 233.72982 
L 171.629095 233.938639 
L 171.846336 233.811449 
L 172.063578 233.782974 
L 172.208405 233.847518 
L 172.353231 233.8684 
L 172.425644 233.9842 
L 172.498058 233.836128 
L 172.570471 233.915859 
L 172.7153 233.731718 
L 172.787712 233.957623 
L 172.860126 233.782974 
L 173.077366 233.987996 
L 173.294607 233.913961 
L 173.946329 233.927249 
L 174.018742 233.782974 
L 174.091156 233.875993 
L 174.308395 233.801957 
L 174.38081 233.913961 
L 174.453224 233.733617 
L 174.525637 233.894977 
L 174.598051 233.836128 
L 174.81529 233.839925 
L 174.960117 233.849416 
L 175.467012 233.934842 
L 175.539427 233.801957 
L 175.611839 233.877892 
L 175.829081 233.940538 
L 175.973907 233.877892 
L 176.770456 233.847518 
L 176.915283 74.906554 
L 177.132524 74.972996 
L 177.349764 74.957809 
L 177.422178 75.062219 
L 177.567005 74.874281 
L 177.639418 75.007166 
L 177.711832 74.879977 
L 177.784246 74.965403 
L 177.929073 74.933131 
L 178.001486 75.096389 
L 178.146313 74.906554 
L 178.29114 74.963504 
L 178.435966 74.891367 
L 178.508381 75.081202 
L 178.580795 74.984386 
L 178.942862 74.995776 
L 179.015276 75.022353 
L 179.160103 74.885672 
L 179.30493 75.054625 
L 179.522171 74.925537 
L 179.594584 75.022353 
L 179.73941 74.950216 
L 180.029064 75.007166 
L 180.101479 74.891367 
L 180.173891 75.009065 
L 180.246305 74.931232 
L 180.31872 74.897062 
L 180.391132 75.075507 
L 180.463547 74.999573 
L 180.535959 75.033743 
L 180.680786 74.883773 
L 180.753201 74.99198 
L 180.825613 74.935029 
L 180.97044 74.925537 
L 181.042854 74.919842 
L 181.260096 75.083101 
L 181.332508 74.954012 
L 181.404922 75.01476 
L 181.519966 234.409815 
L 181.592379 234.263642 
L 181.737206 234.373747 
L 181.80962 234.295914 
L 182.026861 234.489546 
L 182.099274 234.349068 
L 182.171688 234.409815 
L 182.388927 234.464868 
L 182.606169 234.280727 
L 182.678581 234.430697 
L 182.750996 234.379442 
L 182.82341 234.278829 
L 182.968237 234.41551 
L 183.257891 234.341475 
L 183.402718 234.407917 
L 183.47513 234.352865 
L 183.547544 234.49714 
L 183.619957 234.387035 
L 183.692371 234.468664 
L 183.982025 234.337678 
L 184.199266 234.495241 
L 184.344093 234.326288 
L 184.48892 234.36995 
L 184.633747 234.402222 
L 184.706161 234.476258 
L 184.778574 234.394629 
L 184.923401 234.301609 
L 185.140642 234.514225 
L 185.213055 234.333881 
L 185.285469 234.398425 
L 185.50271 234.379442 
L 185.575123 234.491445 
L 185.647537 234.409815 
L 185.71995 234.299711 
L 185.792364 234.360458 
L 186.444086 234.352865 
L 186.588913 234.290219 
L 186.661325 234.453478 
L 186.73374 234.409815 
L 187.023394 234.396527 
L 187.095808 234.49714 
L 187.240635 234.314898 
L 187.675116 234.354763 
L 187.892357 234.459173 
L 188.471664 234.438291 
L 188.544077 234.292117 
L 188.616491 234.432596 
L 188.688906 234.356661 
L 188.833733 234.261744 
L 188.906145 234.462969 
L 188.978559 234.366153 
L 189.195799 234.49714 
L 189.340626 234.328186 
L 189.485455 234.373747 
L 189.557867 234.288321 
L 189.630281 234.438291 
L 189.702694 234.316796 
L 189.775108 234.406019 
L 189.919935 234.421206 
L 190.064762 234.375645 
L 190.137175 234.491445 
L 190.209589 234.436392 
L 190.282001 234.307304 
L 190.354416 234.377543 
L 190.499243 234.350966 
L 191.006138 234.330084 
L 191.07855 234.47436 
L 191.150965 234.350966 
L 191.295792 75.334757 
L 191.368206 75.249331 
L 191.440619 75.425878 
L 191.585445 75.31957 
L 191.65786 75.399301 
L 191.802687 75.300586 
L 192.019928 75.374622 
L 192.454409 75.412589 
L 192.599236 75.336655 
L 192.671648 75.298688 
L 192.816477 75.454353 
L 193.033716 75.289196 
L 193.468197 75.327163 
L 193.613024 75.357537 
L 193.757853 75.306281 
L 193.902679 75.306281 
L 193.975092 75.488524 
L 194.047506 75.281603 
L 194.119919 75.340452 
L 194.264746 75.376521 
L 194.481987 75.277806 
L 194.554401 75.465743 
L 194.626814 75.268314 
L 194.699228 75.45815 
L 194.771641 75.363232 
L 194.844055 75.444861 
L 195.061295 75.30818 
L 195.206121 75.359435 
L 195.278536 75.272111 
L 195.35095 75.332858 
L 195.423363 75.442963 
L 195.495777 75.374622 
L 195.640604 75.35374 
L 195.785431 75.433471 
L 195.972775 234.684391 
L 196.045189 234.673001 
L 196.117603 234.815378 
L 196.190016 234.659712 
L 196.26243 234.764122 
L 196.334843 234.648322 
L 196.407257 234.714765 
L 196.914152 234.710968 
L 197.058979 234.76602 
L 197.131392 234.785004 
L 197.203806 234.665408 
L 197.276218 234.718562 
L 197.710701 234.572388 
L 197.855528 234.811581 
L 198.362421 234.728053 
L 198.50725 234.773614 
L 198.724489 234.695781 
L 198.796904 234.796394 
L 198.94173 234.650221 
L 199.014143 234.834361 
L 199.086557 234.566693 
L 199.15897 234.642627 
L 199.231384 234.612254 
L 199.303797 234.729952 
L 199.376211 234.595168 
L 199.448626 234.841955 
L 199.521038 234.76602 
L 199.593452 234.568591 
L 199.738279 234.75463 
L 199.883106 234.669204 
L 199.955519 234.75463 
L 200.027933 234.650221 
L 200.100346 234.758427 
L 200.17276 234.650221 
L 200.245174 234.840056 
L 200.317587 234.729952 
L 200.390001 234.805886 
L 200.462414 234.678696 
L 200.534828 234.726155 
L 200.679655 234.652119 
L 200.824482 234.688188 
L 200.896894 234.640729 
L 201.041723 234.673001 
L 201.40379 234.636932 
L 201.476204 234.600863 
L 201.548616 234.807784 
L 201.693443 234.70907 
L 201.765858 234.764122 
L 201.83827 234.606558 
L 201.910685 234.674899 
L 202.055511 234.676798 
L 202.200338 234.710968 
L 202.272753 234.663509 
L 202.345165 234.752732 
L 202.41758 234.59327 
L 202.489992 234.75463 
L 202.562407 234.695781 
L 202.707233 234.701476 
L 202.924475 234.739443 
L 203.141714 234.739443 
L 203.358955 234.832463 
L 203.431368 234.635034 
L 203.503782 234.667306 
L 203.648609 234.705273 
L 203.793436 234.745139 
L 204.300331 234.691985 
L 204.372746 234.771716 
L 204.445158 234.703375 
L 204.517572 234.667306 
L 204.589985 234.800191 
L 204.662399 234.726155 
L 204.879639 234.617949 
L 204.952053 234.769817 
L 205.024466 234.614152 
L 205.09688 234.752732 
L 205.169292 234.70907 
L 205.241707 234.59327 
L 205.314121 234.762224 
L 205.386534 234.726155 
L 205.531361 234.688188 
L 205.676188 75.580928 
L 205.893429 75.827715 
L 205.965841 75.696728 
L 206.038256 75.738492 
L 206.617563 75.698626 
L 206.689978 75.757475 
L 206.76239 75.622692 
L 206.834805 75.738492 
L 206.907219 75.651167 
L 207.052046 75.75178 
L 207.124458 75.672049 
L 207.196873 75.850495 
L 207.414112 75.634082 
L 207.631353 75.76317 
L 207.703768 75.662558 
L 207.77618 75.791646 
L 207.921007 75.605607 
L 208.138248 75.757475 
L 208.427902 75.727102 
L 208.78997 75.816324 
L 208.862383 75.596115 
L 208.934797 75.734695 
L 209.00721 75.692931 
L 209.441692 75.713813 
L 209.586519 75.755577 
L 209.803759 75.696728 
L 209.948586 75.672049 
L 210.021 75.829613 
L 210.165827 75.742289 
L 210.353086 235.315204 
L 210.425501 235.163335 
L 210.497913 235.203201 
L 210.642742 235.271542 
L 210.787569 235.220286 
L 210.859982 235.319001 
L 210.932396 235.26205 
L 211.077223 235.174725 
L 211.294462 235.315204 
L 211.366877 235.102588 
L 211.439289 235.14625 
L 211.511703 235.267745 
L 211.584118 235.208896 
L 211.65653 235.197506 
L 211.728945 235.317102 
L 211.873772 235.155742 
L 212.091011 235.205099 
L 212.163425 235.129165 
L 212.308252 235.292424 
L 212.88756 235.151945 
L 213.032387 235.208896 
L 213.177216 235.263948 
L 213.466869 235.220286 
L 213.539282 235.290525 
L 213.684109 235.13486 
L 213.828936 235.220286 
L 214.191004 235.140555 
L 214.263418 235.355069 
L 214.408245 235.117775 
L 214.770311 235.26205 
L 214.91514 235.142453 
L 214.987553 235.117775 
L 215.13238 235.277237 
L 215.277206 235.254456 
L 215.494448 235.332289 
L 215.784101 235.165234 
L 216.001343 235.263948 
L 216.218582 235.208896 
L 216.363409 235.298119 
L 216.435823 235.113978 
L 216.58065 235.319001 
L 216.725477 235.182319 
L 216.942719 235.203201 
L 217.232372 235.100689 
L 217.304787 235.271542 
L 217.377199 235.199404 
L 217.522026 235.294322 
L 217.59444 235.208896 
L 217.666853 235.271542 
L 217.81168 235.309509 
L 217.956507 235.203201 
L 218.101334 235.205099 
L 218.173748 235.13486 
L 218.246162 235.341781 
L 218.318575 235.265847 
L 218.463402 235.208896 
L 219.115124 235.210794 
L 219.187538 235.339882 
L 219.259951 235.281033 
L 219.549604 235.260151 
L 219.622019 235.140555 
L 219.694431 235.225981 
L 219.83926 235.317102 
L 219.911673 235.246863 
L 220.056499 76.209081 
L 220.128914 76.205284 
L 220.201326 76.345762 
L 220.346153 76.171114 
L 220.49098 76.262235 
L 220.708221 76.332474 
L 220.853048 76.17491 
L 220.925463 76.38373 
L 220.997875 76.210979 
L 221.142702 76.362848 
L 221.287529 76.252743 
L 221.577185 76.359051 
L 221.649597 76.231861 
L 221.722012 76.324881 
L 221.939251 76.254641 
L 222.011665 76.328677 
L 222.084078 76.252743 
L 222.228905 76.288812 
L 222.373734 76.254641 
L 223.025454 76.303999 
L 223.170282 76.269828 
L 223.242695 76.303999 
L 223.387522 76.235658 
L 223.532349 76.250845 
L 223.677176 76.157825 
L 223.822002 76.321084 
L 223.894417 76.250845 
L 223.966829 76.38373 
L 224.111658 76.262235 
L 224.256485 76.298304 
L 224.401312 76.303999 
L 224.473724 76.191995 
L 224.546139 76.317287 
L 224.733103 235.594091 
L 224.805515 235.540937 
L 225.022757 235.633957 
L 225.384823 235.51436 
L 225.457237 235.658635 
L 225.52965 235.510563 
L 225.602064 235.614973 
L 225.819305 235.592193 
L 225.964132 235.559921 
L 226.181372 235.65294 
L 226.253786 235.499173 
L 226.326199 235.624465 
L 226.398613 235.546632 
L 226.615854 235.679517 
L 226.977921 235.65294 
L 227.050335 235.687111 
L 227.122747 235.49158 
L 227.195162 235.52575 
L 227.339989 235.440324 
L 227.412403 235.61877 
L 227.484816 235.550429 
L 227.55723 235.658635 
L 227.629642 235.601685 
L 227.774469 235.577006 
L 227.846884 235.597888 
L 227.919296 235.446019 
L 227.991711 235.485885 
L 228.426191 235.692806 
L 228.498606 235.520055 
L 228.571018 235.565616 
L 229.295155 235.590294 
L 229.439981 235.531445 
L 229.584808 235.53714 
L 229.729635 235.495377 
L 229.80205 235.707993 
L 229.874462 235.582701 
L 230.019289 235.554226 
L 230.526184 235.675721 
L 230.671011 235.527649 
L 230.743425 235.651042 
L 230.815838 235.590294 
L 230.888252 235.649144 
L 231.033079 235.535242 
L 231.177906 235.569413 
L 231.250319 235.518157 
L 231.322733 235.713688 
L 231.395145 235.63016 
L 231.539974 235.436527 
L 231.757214 235.601685 
L 232.046867 235.470698 
L 232.119282 235.61877 
L 232.191694 235.542835 
L 232.264109 235.440324 
L 232.336523 235.649144 
L 232.408936 235.451714 
L 232.48135 235.508665 
L 232.915831 235.624465 
L 232.988243 235.472596 
L 233.205484 235.647245 
L 233.422726 235.548531 
L 233.567553 235.584599 
L 233.712379 235.626363 
L 234.291687 235.59599 
L 234.364101 76.584693 
L 234.436514 76.673915 
L 234.581341 76.544827 
L 234.798582 76.637847 
L 234.870996 76.459401 
L 234.943409 76.649237 
L 235.015823 76.482181 
L 235.16065 76.63405 
L 235.522717 76.609371 
L 235.667545 76.620761 
L 235.884785 76.628355 
L 235.957199 76.504962 
L 236.029612 76.594184 
L 236.39168 76.516352 
L 236.464094 76.632152 
L 236.536507 76.571404 
L 236.608921 76.503063 
L 236.681334 76.704289 
L 236.753748 76.601778 
L 236.970987 76.590388 
L 237.043402 76.516352 
L 237.115814 76.673915 
L 237.188229 76.599879 
L 237.260643 76.52964 
L 237.333055 76.635948 
L 237.40547 76.548624 
L 237.622709 76.666322 
L 237.695124 76.466994 
L 237.767536 76.618863 
L 237.839951 76.575201 
L 237.984777 76.558116 
L 238.05719 76.457503 
L 238.202019 76.613168 
L 238.274431 76.571404 
L 238.491673 76.704289 
L 238.636499 76.624558 
L 238.781326 76.588489 
L 238.853739 76.730866 
L 238.926153 76.51825 
L 239.113167 236.023534 
L 239.185579 236.044416 
L 239.257994 235.938108 
L 239.330408 236.095671 
L 239.402821 235.903937 
L 239.475235 236.048212 
L 239.547647 235.943803 
L 239.620062 236.008347 
L 240.489023 236.002652 
L 240.561438 235.921023 
L 240.706264 236.010245 
L 240.778677 235.943803 
L 240.851091 236.129842 
L 240.923506 236.080485 
L 241.357986 236.044416 
L 241.502813 235.968481 
L 241.575226 236.137435 
L 241.64764 236.053908 
L 241.792467 236.010245 
L 241.864882 235.9476 
L 242.009708 236.063399 
L 242.082121 235.97038 
L 242.154535 236.093773 
L 242.299362 235.97038 
L 242.444189 236.027331 
L 242.66143 235.987465 
L 242.87867 236.040619 
L 243.023497 236.088078 
L 243.095911 235.968481 
L 243.168324 236.034924 
L 243.31315 235.998855 
L 243.747633 236.09757 
L 243.820045 235.930514 
L 243.89246 236.13174 
L 243.964872 236.072891 
L 244.471767 235.955193 
L 244.544182 236.031127 
L 244.689009 235.991262 
L 244.978662 235.974177 
L 245.051075 236.112757 
L 245.123489 236.061501 
L 245.340731 235.989363 
L 245.702797 236.141232 
L 245.775211 235.894446 
L 245.847624 235.955193 
L 245.992453 236.053908 
L 246.13728 236.006449 
L 246.354519 236.145029 
L 246.426933 235.985567 
L 246.499346 236.021635 
L 246.933828 235.964685 
L 247.006241 236.055806 
L 247.078655 235.873564 
L 247.295895 236.048212 
L 247.730377 235.905836 
L 247.875204 236.021635 
L 248.020031 236.148825 
L 248.164858 235.945701 
L 248.23727 236.118452 
L 248.382097 235.989363 
L 248.671753 235.941904 
L 248.81658 77.098109 
L 248.961407 77.208213 
L 249.106234 77.145568 
L 249.178646 77.037361 
L 249.25106 77.267062 
L 249.323475 77.130381 
L 249.395887 77.221502 
L 249.540714 77.060141 
L 249.685541 77.206315 
L 249.830368 77.07343 
L 249.902782 77.183535 
L 249.975195 77.069633 
L 250.047609 77.120889 
L 250.264851 77.179738 
L 250.409678 77.043056 
L 250.554504 77.202518 
L 250.626917 77.124686 
L 250.699331 77.2234 
L 250.771744 77.010784 
L 250.844158 77.151263 
L 250.916571 77.111397 
L 250.988985 77.003191 
L 251.206226 77.227197 
L 251.423466 77.118991 
L 252.002775 77.172145 
L 252.147602 77.103804 
L 252.292429 77.183535 
L 252.437256 77.151263 
L 252.509668 77.268961 
L 252.654497 77.060141 
L 252.72691 77.230994 
L 252.799324 77.126584 
L 252.871737 77.284148 
L 252.944151 77.094312 
L 253.016563 77.18923 
L 253.233805 77.067735 
L 253.306217 77.117092 
L 253.493008 236.580953 
L 253.56542 236.677769 
L 253.637835 236.434779 
L 253.710247 236.679667 
L 253.782661 236.537291 
L 253.855074 236.427186 
L 254.072315 236.675871 
L 254.14473 236.542986 
L 254.217142 236.590445 
L 254.724037 236.541087 
L 254.79645 236.48034 
L 255.013691 236.588546 
L 255.086105 236.632208 
L 255.158518 236.51451 
L 255.230932 236.580953 
L 255.520586 236.541087 
L 255.592999 236.632208 
L 255.665413 236.571461 
L 256.606789 236.598038 
L 256.751616 236.463255 
L 256.82403 236.453763 
L 256.896442 236.598038 
L 256.968857 236.495527 
L 257.113684 236.582851 
L 257.186096 236.474645 
L 257.258511 236.565766 
L 257.548164 236.637903 
L 257.620579 236.493628 
L 257.692991 236.615123 
L 257.765406 236.432881 
L 257.837818 236.533494 
L 257.982645 236.579054 
L 258.055059 236.654989 
L 258.272301 236.49173 
L 258.561954 236.637903 
L 258.851608 236.584749 
L 258.924021 236.601835 
L 258.996435 236.465153 
L 259.068848 236.5259 
L 259.213676 236.59614 
L 259.358503 236.446169 
L 259.50333 236.662582 
L 259.648157 236.486035 
L 259.792984 236.560071 
L 259.865396 236.702448 
L 260.010225 236.432881 
L 260.082638 236.499323 
L 260.372292 236.573359 
L 260.879187 236.546782 
L 261.313667 236.577156 
L 261.386082 236.453763 
L 261.458494 236.548681 
L 261.530909 236.60753 
L 261.603323 236.459458 
L 261.675735 236.584749 
L 261.74815 236.533494 
L 261.820562 236.512612 
L 261.892977 236.662582 
L 261.965389 236.582851 
L 262.037804 236.442373 
L 262.110216 236.537291 
L 262.182631 236.459458 
L 262.255043 236.599936 
L 262.327457 236.560071 
L 262.617111 236.586648 
L 262.689526 236.438576 
L 262.906765 236.662582 
L 262.979179 236.529697 
L 263.051592 236.617022 
L 263.124006 77.510757 
L 263.196419 77.544928 
L 263.268833 77.43862 
L 263.341248 77.514554 
L 263.486074 77.486079 
L 263.558487 77.609472 
L 263.630901 77.546826 
L 263.775728 77.527843 
L 263.920555 77.512656 
L 263.992968 77.651236 
L 264.065382 77.556318 
L 264.210209 77.560115 
L 264.282623 77.468993 
L 264.42745 77.539233 
L 264.572277 77.535436 
L 265.079172 77.518351 
L 265.151585 77.636049 
L 265.223999 77.563911 
L 265.296412 77.375974 
L 265.441238 77.636049 
L 265.730892 77.516452 
L 265.803307 77.620862 
L 265.948133 77.391161 
L 266.020548 77.601879 
L 266.165375 77.389262 
L 266.382614 77.556318 
L 266.599855 77.467095 
L 266.889509 77.402551 
L 267.034336 77.562013 
L 267.32399 77.440518 
L 267.396404 77.592387 
L 267.468819 77.453807 
L 267.613646 77.522148 
L 267.686058 77.491774 
L 267.872795 237.133157 
L 267.94521 237.136954 
L 268.017622 236.924338 
L 268.090036 237.002171 
L 268.162449 236.914846 
L 268.234863 237.066715 
L 268.37969 236.950915 
L 268.741758 237.110377 
L 268.814171 236.954712 
L 268.886585 237.042036 
L 268.958998 237.119869 
L 269.176239 237.023052 
L 269.61072 237.002171 
L 269.683134 237.068613 
L 269.900373 236.920541 
L 269.972788 237.09519 
L 270.045202 236.94522 
L 270.117615 237.002171 
L 270.262442 237.047731 
L 270.334856 237.028748 
L 270.407269 237.152141 
L 270.552095 237.076206 
L 270.62451 237.087597 
L 270.696922 236.930033 
L 270.914164 237.076206 
L 270.986578 236.960407 
L 271.05899 237.024951 
L 271.203817 237.011662 
L 271.276232 237.000272 
L 271.348644 237.116072 
L 271.493471 237.036341 
L 271.710712 237.076206 
L 271.855539 237.024951 
L 271.927954 237.133157 
L 272.000366 236.968 
L 272.072781 237.023052 
L 272.145193 236.985085 
L 272.217607 237.138852 
L 272.362434 237.000272 
L 272.507261 237.026849 
L 272.724503 237.002171 
L 272.796915 236.943321 
L 272.941742 237.019256 
L 273.014156 236.909151 
L 273.158983 237.057223 
L 273.376225 237.004069 
L 273.593464 237.150242 
L 273.810705 236.950915 
L 273.883118 236.986984 
L 274.027945 236.920541 
L 274.100359 237.009764 
L 274.172773 236.893964 
L 274.245186 236.973695 
L 274.390013 237.076206 
L 274.607254 236.975594 
L 274.679667 237.078105 
L 274.752081 236.92244 
L 274.824493 237.024951 
L 274.896908 236.920541 
L 274.96932 236.977492 
L 275.258976 237.059121 
L 275.403803 236.966102 
L 275.765869 237.0838 
L 275.910698 236.985085 
L 275.98311 237.078105 
L 276.055525 236.968 
L 276.127937 237.047731 
L 276.490005 237.102783 
L 276.562418 237.152141 
L 276.779659 237.047731 
L 276.924486 236.93383 
L 276.996901 237.146446 
L 277.141727 236.931931 
L 277.21414 237.102783 
L 277.286554 237.045833 
L 277.358967 236.907253 
L 277.431381 237.019256 
L 277.503796 78.149044 
L 277.576208 78.249657 
L 277.721035 78.156637 
L 277.793449 78.243962 
L 277.865862 78.177519 
L 277.938276 78.071211 
L 278.010689 78.242063 
L 278.083103 78.205995 
L 278.300343 78.168028 
L 278.445171 78.067415 
L 278.662411 78.236368 
L 278.807238 78.213588 
L 278.879652 78.0845 
L 279.024479 78.293319 
L 279.314133 78.114874 
L 279.748613 78.209791 
L 279.821028 78.105382 
L 279.89344 78.236368 
L 279.965855 78.126264 
L 280.038269 78.259149 
L 280.110682 78.177519 
L 280.400335 78.300913 
L 280.47275 78.131959 
L 280.545162 78.196503 
L 280.834818 78.164231 
L 280.90723 78.160434 
L 280.979645 78.272437 
L 281.052057 78.224978 
L 281.269299 78.133857 
L 281.776194 78.217385 
L 281.993433 78.192706 
L 282.065847 78.261047 
L 282.179886 237.499818 
L 282.252298 237.47514 
L 282.397127 237.459953 
L 282.46954 237.573854 
L 282.541954 237.511209 
L 282.686781 237.384019 
L 282.759193 237.554871 
L 282.831608 237.522599 
L 282.90402 237.587143 
L 283.048847 237.384019 
L 283.266088 237.541582 
L 283.338503 237.387815 
L 283.410915 237.456156 
L 283.628157 237.552972 
L 283.772984 237.412494 
L 283.91781 237.488428 
L 283.990225 237.376425 
L 284.062637 237.627008 
L 284.135052 237.484632 
L 284.207464 237.566261 
L 284.352291 237.465648 
L 284.931601 237.442868 
L 285.004013 237.583346 
L 285.221254 237.38212 
L 285.438494 237.575753 
L 285.510908 237.403002 
L 285.583321 237.501717 
L 285.655735 237.416291 
L 285.872976 237.528294 
L 286.090216 237.37073 
L 286.307457 237.589041 
L 286.452284 237.545379 
L 286.814352 237.429579 
L 287.031591 237.528294 
L 287.104006 237.408697 
L 287.248833 237.503615 
L 287.82814 237.366933 
L 287.972967 237.585244 
L 288.335035 237.404901 
L 288.479862 237.459953 
L 288.552277 237.611822 
L 288.697104 237.549176 
L 289.348825 237.458055 
L 289.421238 237.611822 
L 289.566065 237.465648 
L 290.290201 237.53209 
L 290.507441 237.444766 
L 290.579855 237.50931 
L 290.652269 237.421986 
L 290.724682 237.59094 
L 290.797096 237.505513 
L 290.941923 237.34795 
L 291.08675 237.608025 
L 291.231577 237.446664 
L 291.376404 237.533989 
L 291.810884 237.444766 
L 291.883299 78.550233 
L 291.955711 78.622371 
L 292.390194 78.569217 
L 292.462606 78.603387 
L 292.607433 78.462909 
L 292.824675 78.521758 
L 292.897087 78.523656 
L 292.969501 78.667931 
L 293.041914 78.56542 
L 293.403982 78.474299 
L 293.476397 78.645151 
L 293.548809 78.497079 
L 293.621223 78.559725 
L 294.417772 78.512266 
L 294.562599 78.508469 
L 295.286734 78.633761 
L 295.359148 78.44962 
L 295.431561 78.61098 
L 295.503975 78.574912 
L 295.576387 78.4724 
L 295.648802 78.595794 
L 295.721216 78.523656 
L 296.445351 78.569217 
L 296.631781 238.065198 
L 296.704193 237.977873 
L 296.776608 238.139234 
L 296.849022 238.055706 
L 296.921434 238.167709 
L 297.066261 237.985467 
L 297.211088 238.076588 
L 297.355915 238.087978 
L 297.500742 237.974077 
L 297.645571 238.027231 
L 297.717983 237.953195 
L 297.790398 238.13164 
L 297.86281 238.027231 
L 297.935225 238.063299 
L 298.007637 237.939906 
L 298.080051 238.095572 
L 298.152464 238.002552 
L 299.021427 238.099368 
L 299.238668 238.127844 
L 299.311081 238.040519 
L 299.383495 238.118352 
L 299.817976 238.029129 
L 300.614525 238.084181 
L 300.759352 238.017739 
L 301.12142 237.960788 
L 301.193832 238.103165 
L 301.338659 237.994959 
L 301.411074 238.177201 
L 301.483486 238.10886 
L 301.628313 238.055706 
L 301.845554 238.162014 
L 302.280035 238.125945 
L 302.424862 238.133539 
L 302.497276 238.046214 
L 302.569691 238.171506 
L 302.642103 238.106962 
L 303.221411 238.029129 
L 303.293825 238.12025 
L 303.438652 238.019637 
L 303.655893 237.98167 
L 303.728306 238.220863 
L 303.80072 238.034824 
L 303.873133 238.067096 
L 304.162786 238.091775 
L 304.235201 238.127844 
L 304.307615 237.966483 
L 304.380028 238.053808 
L 304.524855 238.038621 
L 305.321404 238.169607 
L 305.538645 237.985467 
L 305.611057 238.190489 
L 305.683472 237.983568 
L 305.755884 238.053808 
L 305.973125 238.207575 
L 306.190367 238.046214 
L 306.335194 79.129576 
L 306.407606 79.121982 
L 306.480021 79.237782 
L 306.552433 79.177035 
L 306.986916 79.144763 
L 307.131742 79.235884 
L 307.421396 79.091609 
L 307.566223 79.127677 
L 307.638638 79.034658 
L 307.71105 79.106796 
L 307.855877 79.163746 
L 307.928291 79.05554 
L 308.000704 79.184628 
L 308.145531 79.03276 
L 308.217945 79.235884 
L 308.362772 79.080219 
L 308.580013 79.243477 
L 308.869667 79.140966 
L 309.014494 79.110592 
L 309.086906 79.017573 
L 309.159321 79.080219 
L 309.521389 79.190323 
L 309.811043 79.131474 
L 309.883455 79.051743 
L 310.028282 79.209307 
L 310.245523 79.121982 
L 310.39035 79.197917 
L 310.535177 79.080219 
L 310.824831 79.137169 
L 311.011007 238.573443 
L 311.228249 238.499407 
L 311.44549 238.539273 
L 311.590317 238.586732 
L 311.662729 238.622801 
L 311.735144 238.440558 
L 311.807556 238.550663 
L 311.952383 238.55446 
L 312.097212 238.563952 
L 312.314451 238.432965 
L 312.459278 238.619004 
L 313.111 238.455745 
L 313.183414 238.698735 
L 313.255827 238.493712 
L 313.328241 238.607614 
L 313.545481 238.569647 
L 313.617895 238.679751 
L 313.762722 238.529781 
L 313.907549 238.552561 
L 314.052376 238.463339 
L 314.12479 238.628496 
L 314.197203 238.524086 
L 314.486856 238.67026 
L 314.631685 238.592427 
L 314.704098 238.619004 
L 314.776512 238.510798 
L 314.848925 238.57724 
L 315.428234 238.495611 
L 315.573061 238.53168 
L 315.7903 238.624699 
L 315.935127 238.510798 
L 316.007542 238.620902 
L 316.079954 238.448152 
L 316.152369 238.571545 
L 316.224781 238.442457 
L 316.297195 238.626597 
L 316.36961 238.57724 
L 316.442022 238.54307 
L 316.514437 238.636089 
L 316.586849 238.556358 
L 316.659264 238.636089 
L 316.731676 238.552561 
L 316.80409 238.436762 
L 316.876503 238.529781 
L 317.166159 238.495611 
L 317.238571 238.455745 
L 317.383398 238.575342 
L 317.817879 238.60002 
L 317.890293 238.455745 
L 318.03512 238.601919 
L 318.107534 238.514594 
L 318.179947 238.632293 
L 318.252361 238.491814 
L 318.324774 238.541171 
L 318.614428 238.507001 
L 318.686842 238.615207 
L 318.759254 238.562053 
L 319.04891 238.505103 
L 319.193737 238.611411 
L 319.26615 238.448152 
L 319.410976 238.603817 
L 319.483391 238.465237 
L 319.555803 238.53168 
L 319.845459 238.630394 
L 319.917871 238.535476 
L 319.990286 238.607614 
L 320.352352 238.596224 
L 320.569593 238.482322 
L 320.71442 79.58594 
L 320.931662 79.612517 
L 321.004074 79.623907 
L 321.076488 79.477734 
L 321.148901 79.680858 
L 321.221315 79.55177 
L 321.29373 79.60872 
L 322.017864 79.680858 
L 322.162691 79.603025 
L 322.95924 79.707435 
L 323.104067 79.584042 
L 323.176481 79.684655 
L 323.321308 79.623907 
L 323.466135 79.566957 
L 323.538548 79.705537 
L 323.610962 79.473937 
L 323.683374 79.511904 
L 323.755789 79.726419 
L 323.828203 79.576448 
L 323.900616 79.692248 
L 323.97303 79.603025 
L 324.045443 79.692248 
L 324.117857 79.530888 
L 324.190269 79.616314 
L 324.262684 79.722622 
L 324.407511 79.580245 
L 324.552338 79.587839 
L 324.769579 79.561262 
L 324.914406 79.629602 
L 325.059233 79.640993 
L 325.20406 79.637196 
L 325.390059 239.140152 
L 325.462471 238.948418 
L 325.534885 239.128762 
L 325.607298 239.039539 
L 325.752125 239.187611 
L 325.969366 238.956011 
L 326.114193 238.990182 
L 326.25902 239.00347 
L 326.403847 239.005369 
L 326.548674 239.081303 
L 326.621088 238.921841 
L 326.693501 238.997775 
L 326.765915 239.073709 
L 326.983154 238.937028 
L 327.127983 239.047132 
L 327.562464 239.028149 
L 327.707291 239.045234 
L 327.924532 238.984487 
L 328.069359 239.028149 
L 328.431425 239.020555 
L 328.648666 239.140152 
L 328.793493 238.950316 
L 329.227974 239.117372 
L 329.445215 238.914247 
L 329.662457 239.181916 
L 329.807283 239.058523 
L 330.893486 238.984487 
L 331.110725 239.094591 
L 331.327967 239.011064 
L 331.61762 239.149644 
L 331.690035 238.967401 
L 331.762447 239.058523 
L 332.414169 239.128762 
L 332.486584 238.944621 
L 332.558996 239.170526 
L 332.631411 238.984487 
L 332.776237 239.079404 
L 332.993479 239.001572 
L 333.138306 239.066116 
L 333.645199 239.039539 
L 333.790028 239.162932 
L 333.934855 238.982588 
L 334.296921 239.005369 
L 334.441748 239.073709 
L 334.514162 238.933231 
L 334.586576 239.012962 
L 334.731403 239.151542 
L 334.803816 238.912349 
L 334.87623 238.967401 
L 334.948643 238.921841 
L 335.09347 80.135894 
L 335.310711 80.204235 
L 335.527952 80.077045 
L 335.600365 80.206133 
L 335.745192 80.084639 
L 336.179672 80.170065 
L 336.324501 80.040976 
L 336.396914 80.204235 
L 336.469328 80.141589 
L 336.903809 80.154878 
L 336.976221 80.196642 
L 337.048635 80.075147 
L 337.193462 80.202337 
L 337.555531 80.133996 
L 337.700357 80.270678 
L 337.77277 80.010603 
L 337.845184 80.132097 
L 337.990011 80.170065 
L 338.134838 80.097927 
L 338.207253 80.261186 
L 338.279665 80.196642 
L 339.221041 80.101724 
L 339.293455 80.171963 
L 339.510695 80.077045 
L 339.583109 80.141589 
L 339.769003 239.573507 
L 339.91383 239.565914 
L 340.058659 239.607678 
L 340.203485 239.461504 
L 340.420725 239.584897 
L 340.493139 239.488081 
L 340.637966 239.626661 
L 340.710379 239.423537 
L 340.855207 239.586796 
L 341.000034 239.518455 
L 341.072447 239.63995 
L 341.289688 239.444419 
L 341.434515 239.615271 
L 341.579342 239.50137 
L 341.724169 239.590592 
L 341.94141 239.495675 
L 342.086237 239.584897 
L 342.231064 239.522252 
L 342.303476 239.660832 
L 342.375891 239.469098 
L 342.448303 239.529845 
L 342.665545 239.482386 
L 342.810371 239.52415 
L 343.17244 239.590592 
L 343.317266 239.548829 
L 343.462093 239.495675 
L 343.751747 239.567812 
L 343.896574 239.592491 
L 344.041401 239.55832 
L 344.18623 239.545032 
L 344.258642 239.497573 
L 344.403469 239.670323 
L 344.548296 239.472894 
L 344.765537 239.571609 
L 344.982779 239.552625 
L 345.272432 239.556422 
L 345.344845 239.518455 
L 345.417259 239.641848 
L 345.489672 239.550727 
L 345.562086 239.641848 
L 345.634499 239.505166 
L 345.706913 239.600084 
L 346.213808 239.518455 
L 346.286221 239.564015 
L 346.358635 239.452012 
L 346.431047 239.527947 
L 346.720703 239.503268 
L 346.793116 239.478589 
L 346.86553 239.66273 
L 346.937943 239.480488 
L 347.010357 239.545032 
L 347.155184 239.605779 
L 347.372423 239.541235 
L 347.444838 239.638051 
L 347.589664 239.446317 
L 347.662079 239.615271 
L 347.734491 239.514658 
L 347.879318 239.548829 
L 348.313801 239.617169 
L 348.386213 239.434927 
L 348.458628 239.573507 
L 348.53104 239.508963 
L 348.748281 239.620966 
L 348.820694 239.470996 
L 348.893108 239.539337 
L 349.037935 239.55832 
L 349.110348 239.611474 
L 349.182762 239.446317 
L 349.255177 239.493776 
L 349.327589 239.624763 
L 349.400003 80.742034 
L 349.472416 80.836952 
L 349.689657 80.658507 
L 349.834484 80.698372 
L 350.196552 80.871123 
L 350.268965 80.605353 
L 350.341379 80.749628 
L 350.77586 80.68888 
L 350.920687 80.768611 
L 351.137928 80.652812 
L 351.21034 80.614844 
L 351.427582 80.821765 
L 351.499994 80.62054 
L 351.572409 80.874919 
L 351.644823 80.766713 
L 351.862062 80.633828 
L 352.006889 80.876818 
L 352.151716 80.686982 
L 352.368958 80.831257 
L 352.44137 80.618641 
L 352.513784 80.795188 
L 352.586199 80.738238 
L 352.658611 80.776205 
L 352.731026 80.637625 
L 352.803438 80.848342 
L 352.875853 80.728746 
L 352.948265 80.673694 
L 353.020679 80.802782 
L 353.093092 80.656608 
L 353.165506 80.717356 
L 353.310333 80.721152 
L 353.382748 80.626235 
L 353.45516 80.751526 
L 353.527575 80.700271 
L 353.962055 80.743933 
L 354.147814 240.23515 
L 354.582294 240.018737 
L 354.727121 240.15352 
L 354.871948 240.290202 
L 355.08919 240.117452 
L 355.306429 240.136435 
L 355.740911 240.115553 
L 355.813324 240.282609 
L 355.885738 240.197183 
L 356.682287 240.111756 
L 356.7547 240.058602 
L 356.899527 240.09657 
L 357.044353 240.168707 
L 357.261595 240.259828 
L 357.696075 240.115553 
L 357.76849 240.303491 
L 357.913317 240.161114 
L 358.492624 240.104163 
L 358.565039 240.256032 
L 358.637451 240.15352 
L 358.709866 240.225658 
L 358.78228 240.049111 
L 358.854692 240.079484 
L 358.927107 240.054806 
L 359.071934 240.202878 
L 359.289173 240.121248 
L 359.434 240.199081 
L 359.506414 240.035822 
L 359.578829 240.200979 
L 359.651241 240.140232 
L 359.723656 240.227556 
L 359.796068 240.166809 
L 360.013309 240.081383 
L 360.158136 240.210471 
L 360.230549 240.098468 
L 360.302963 240.221861 
L 360.375376 240.170606 
L 360.665031 240.166809 
L 360.882271 240.193386 
L 361.46158 240.138333 
L 361.533993 240.199081 
L 361.751234 240.047212 
L 362.040888 240.254133 
L 362.113302 240.047212 
L 362.258129 240.219963 
L 362.402956 240.170606 
L 362.69261 240.250337 
L 362.837437 240.174402 
L 362.982264 240.068094 
L 363.054678 240.252235 
L 363.12709 240.199081 
L 363.199505 240.22376 
L 363.344332 240.079484 
L 363.633986 240.221861 
L 363.706398 240.151622 
L 363.851227 81.27375 
L 363.996054 81.23958 
L 364.720188 81.275649 
L 364.865015 81.20541 
L 365.009842 81.20541 
L 365.082256 81.157951 
L 365.154669 81.277547 
L 365.227083 81.180731 
L 365.299496 81.252869 
L 365.37191 81.182629 
L 365.516737 81.288937 
L 365.878805 81.330701 
L 365.951218 81.197816 
L 366.023632 81.326904 
L 366.096045 81.26236 
L 366.168459 81.222495 
L 366.240871 81.321209 
L 366.313286 81.268055 
L 366.530527 81.159849 
L 366.675354 81.3326 
L 366.747766 81.148459 
L 366.820181 81.241478 
L 366.892593 81.25097 
L 366.965008 81.140865 
L 367.109835 81.336396 
L 367.182249 81.321209 
L 367.254662 81.188324 
L 367.399488 81.370567 
L 367.544315 81.311718 
L 367.761557 81.129475 
L 367.906384 81.342091 
L 367.978798 81.140865 
L 368.05121 81.256665 
L 368.196037 81.148459 
L 368.340864 81.288937 
L 368.454103 240.839064 
L 368.526518 240.823877 
L 368.59893 240.842861 
L 368.671345 240.713773 
L 368.743759 240.818182 
L 368.816172 240.656822 
L 368.960999 240.831471 
L 369.17824 240.713773 
L 369.250652 240.882726 
L 369.323067 240.850454 
L 369.829962 240.65872 
L 369.902374 240.848556 
L 369.974789 240.816284 
L 370.192028 240.681501 
L 370.264442 240.76313 
L 370.336855 240.685297 
L 370.626511 240.825776 
L 370.84375 240.829572 
L 370.988577 240.831471 
L 371.278233 240.719468 
L 371.350645 240.873235 
L 371.423059 240.668212 
L 371.495472 240.770723 
L 371.567886 240.840963 
L 371.712713 240.666314 
L 371.785126 240.818182 
L 371.85754 240.747943 
L 372.147194 240.715671 
L 372.292021 240.759333 
L 372.581675 240.886523 
L 372.798916 240.799199 
L 373.016157 240.835268 
L 373.08857 240.717569 
L 373.160984 240.842861 
L 373.233397 240.639737 
L 373.450638 240.861845 
L 373.740292 240.738451 
L 374.174772 240.749841 
L 374.174772 240.749841 
" style="fill:none;stroke:#ff0000;stroke-linecap:square;stroke-width:1.5;"/>
   </g>
   <g id="patch_3">
    <path d="M 33.2875 276.812 
L 33.2875 10.7 
" style="fill:none;stroke:#000000;stroke-linecap:square;stroke-linejoin:miter;stroke-width:0.8;"/>
   </g>
   <g id="patch_4">
    <path d="M 390.4075 276.812 
L 390.4075 10.7 
" style="fill:none;stroke:#000000;stroke-linecap:square;stroke-linejoin:miter;stroke-width:0.8;"/>
   </g>
   <g id="patch_5">
    <path d="M 33.2875 276.812 
L 390.407501 276.812 
" style="fill:none;stroke:#000000;stroke-linecap:square;stroke-linejoin:miter;stroke-width:0.8;"/>
   </g>
   <g id="patch_6">
    <path d="M 33.2875 10.7 
L 390.407501 10.7 
" style="fill:none;stroke:#000000;stroke-linecap:square;stroke-linejoin:miter;stroke-width:0.8;"/>
   </g>
  </g>
 </g>
 <defs>
  <clipPath id="pf582f34ced">
   <rect height="266.112" width="357.12" x="33.2875" y="10.7"/>
  </clipPath>
 </defs>
</svg>
