<?xml version="1.0" encoding="utf-8" standalone="no"?>
<!DOCTYPE svg PUBLIC "-//W3C//DTD SVG 1.1//EN"
  "http://www.w3.org/Graphics/SVG/1.1/DTD/svg11.dtd">
<!-- Created with matplotlib (https://matplotlib.org/) -->
<svg height="314.154043pt" version="1.1" viewBox="0 0 401.1075 314.154043" width="401.1075pt" xmlns="http://www.w3.org/2000/svg" xmlns:xlink="http://www.w3.org/1999/xlink">
 <defs>
  <style type="text/css">
*{stroke-linecap:butt;stroke-linejoin:round;}
  </style>
 </defs>
 <g id="figure_1">
  <g id="patch_1">
   <path d="M 0 314.154043 
L 401.1075 314.154043 
L 401.1075 0 
L 0 0 
z
" style="fill:#ffffff;"/>
  </g>
  <g id="axes_1">
   <g id="patch_2">
    <path d="M 33.2875 277.597793 
L 390.4075 277.597793 
L 390.4075 11.485793 
L 33.2875 11.485793 
z
" style="fill:#ffffff;"/>
   </g>
   <g id="matplotlib.axis_1">
    <g id="xtick_1">
     <g id="line2d_1">
      <defs>
       <path d="M 0 0 
L 0 3.5 
" id="m48d218a782" style="stroke:#000000;stroke-width:0.8;"/>
      </defs>
      <g>
       <use style="stroke:#000000;stroke-width:0.8;" x="49.447819" xlink:href="#m48d218a782" y="277.597793"/>
      </g>
     </g>
     <g id="text_1">
      <!-- 50 -->
      <defs>
       <path d="M 10.796875 72.90625 
L 49.515625 72.90625 
L 49.515625 64.59375 
L 19.828125 64.59375 
L 19.828125 46.734375 
Q 21.96875 47.46875 24.109375 47.828125 
Q 26.265625 48.1875 28.421875 48.1875 
Q 40.625 48.1875 47.75 41.5 
Q 54.890625 34.8125 54.890625 23.390625 
Q 54.890625 11.625 47.5625 5.09375 
Q 40.234375 -1.421875 26.90625 -1.421875 
Q 22.3125 -1.421875 17.546875 -0.640625 
Q 12.796875 0.140625 7.71875 1.703125 
L 7.71875 11.625 
Q 12.109375 9.234375 16.796875 8.0625 
Q 21.484375 6.890625 26.703125 6.890625 
Q 35.15625 6.890625 40.078125 11.328125 
Q 45.015625 15.765625 45.015625 23.390625 
Q 45.015625 31 40.078125 35.4375 
Q 35.15625 39.890625 26.703125 39.890625 
Q 22.75 39.890625 18.8125 39.015625 
Q 14.890625 38.140625 10.796875 36.28125 
z
" id="DejaVuSans-53"/>
       <path d="M 31.78125 66.40625 
Q 24.171875 66.40625 20.328125 58.90625 
Q 16.5 51.421875 16.5 36.375 
Q 16.5 21.390625 20.328125 13.890625 
Q 24.171875 6.390625 31.78125 6.390625 
Q 39.453125 6.390625 43.28125 13.890625 
Q 47.125 21.390625 47.125 36.375 
Q 47.125 51.421875 43.28125 58.90625 
Q 39.453125 66.40625 31.78125 66.40625 
z
M 31.78125 74.21875 
Q 44.046875 74.21875 50.515625 64.515625 
Q 56.984375 54.828125 56.984375 36.375 
Q 56.984375 17.96875 50.515625 8.265625 
Q 44.046875 -1.421875 31.78125 -1.421875 
Q 19.53125 -1.421875 13.0625 8.265625 
Q 6.59375 17.96875 6.59375 36.375 
Q 6.59375 54.828125 13.0625 64.515625 
Q 19.53125 74.21875 31.78125 74.21875 
z
" id="DejaVuSans-48"/>
      </defs>
      <g transform="translate(43.085319 292.19623)scale(0.1 -0.1)">
       <use xlink:href="#DejaVuSans-53"/>
       <use x="63.623047" xlink:href="#DejaVuSans-48"/>
      </g>
     </g>
    </g>
    <g id="xtick_2">
     <g id="line2d_2">
      <g>
       <use style="stroke:#000000;stroke-width:0.8;" x="121.855061" xlink:href="#m48d218a782" y="277.597793"/>
      </g>
     </g>
     <g id="text_2">
      <!-- 60 -->
      <defs>
       <path d="M 33.015625 40.375 
Q 26.375 40.375 22.484375 35.828125 
Q 18.609375 31.296875 18.609375 23.390625 
Q 18.609375 15.53125 22.484375 10.953125 
Q 26.375 6.390625 33.015625 6.390625 
Q 39.65625 6.390625 43.53125 10.953125 
Q 47.40625 15.53125 47.40625 23.390625 
Q 47.40625 31.296875 43.53125 35.828125 
Q 39.65625 40.375 33.015625 40.375 
z
M 52.59375 71.296875 
L 52.59375 62.3125 
Q 48.875 64.0625 45.09375 64.984375 
Q 41.3125 65.921875 37.59375 65.921875 
Q 27.828125 65.921875 22.671875 59.328125 
Q 17.53125 52.734375 16.796875 39.40625 
Q 19.671875 43.65625 24.015625 45.921875 
Q 28.375 48.1875 33.59375 48.1875 
Q 44.578125 48.1875 50.953125 41.515625 
Q 57.328125 34.859375 57.328125 23.390625 
Q 57.328125 12.15625 50.6875 5.359375 
Q 44.046875 -1.421875 33.015625 -1.421875 
Q 20.359375 -1.421875 13.671875 8.265625 
Q 6.984375 17.96875 6.984375 36.375 
Q 6.984375 53.65625 15.1875 63.9375 
Q 23.390625 74.21875 37.203125 74.21875 
Q 40.921875 74.21875 44.703125 73.484375 
Q 48.484375 72.75 52.59375 71.296875 
z
" id="DejaVuSans-54"/>
      </defs>
      <g transform="translate(115.492561 292.19623)scale(0.1 -0.1)">
       <use xlink:href="#DejaVuSans-54"/>
       <use x="63.623047" xlink:href="#DejaVuSans-48"/>
      </g>
     </g>
    </g>
    <g id="xtick_3">
     <g id="line2d_3">
      <g>
       <use style="stroke:#000000;stroke-width:0.8;" x="194.2623" xlink:href="#m48d218a782" y="277.597793"/>
      </g>
     </g>
     <g id="text_3">
      <!-- 70 -->
      <defs>
       <path d="M 8.203125 72.90625 
L 55.078125 72.90625 
L 55.078125 68.703125 
L 28.609375 0 
L 18.3125 0 
L 43.21875 64.59375 
L 8.203125 64.59375 
z
" id="DejaVuSans-55"/>
      </defs>
      <g transform="translate(187.8998 292.19623)scale(0.1 -0.1)">
       <use xlink:href="#DejaVuSans-55"/>
       <use x="63.623047" xlink:href="#DejaVuSans-48"/>
      </g>
     </g>
    </g>
    <g id="xtick_4">
     <g id="line2d_4">
      <g>
       <use style="stroke:#000000;stroke-width:0.8;" x="266.669542" xlink:href="#m48d218a782" y="277.597793"/>
      </g>
     </g>
     <g id="text_4">
      <!-- 80 -->
      <defs>
       <path d="M 31.78125 34.625 
Q 24.75 34.625 20.71875 30.859375 
Q 16.703125 27.09375 16.703125 20.515625 
Q 16.703125 13.921875 20.71875 10.15625 
Q 24.75 6.390625 31.78125 6.390625 
Q 38.8125 6.390625 42.859375 10.171875 
Q 46.921875 13.96875 46.921875 20.515625 
Q 46.921875 27.09375 42.890625 30.859375 
Q 38.875 34.625 31.78125 34.625 
z
M 21.921875 38.8125 
Q 15.578125 40.375 12.03125 44.71875 
Q 8.5 49.078125 8.5 55.328125 
Q 8.5 64.0625 14.71875 69.140625 
Q 20.953125 74.21875 31.78125 74.21875 
Q 42.671875 74.21875 48.875 69.140625 
Q 55.078125 64.0625 55.078125 55.328125 
Q 55.078125 49.078125 51.53125 44.71875 
Q 48 40.375 41.703125 38.8125 
Q 48.828125 37.15625 52.796875 32.3125 
Q 56.78125 27.484375 56.78125 20.515625 
Q 56.78125 9.90625 50.3125 4.234375 
Q 43.84375 -1.421875 31.78125 -1.421875 
Q 19.734375 -1.421875 13.25 4.234375 
Q 6.78125 9.90625 6.78125 20.515625 
Q 6.78125 27.484375 10.78125 32.3125 
Q 14.796875 37.15625 21.921875 38.8125 
z
M 18.3125 54.390625 
Q 18.3125 48.734375 21.84375 45.5625 
Q 25.390625 42.390625 31.78125 42.390625 
Q 38.140625 42.390625 41.71875 45.5625 
Q 45.3125 48.734375 45.3125 54.390625 
Q 45.3125 60.0625 41.71875 63.234375 
Q 38.140625 66.40625 31.78125 66.40625 
Q 25.390625 66.40625 21.84375 63.234375 
Q 18.3125 60.0625 18.3125 54.390625 
z
" id="DejaVuSans-56"/>
      </defs>
      <g transform="translate(260.307042 292.19623)scale(0.1 -0.1)">
       <use xlink:href="#DejaVuSans-56"/>
       <use x="63.623047" xlink:href="#DejaVuSans-48"/>
      </g>
     </g>
    </g>
    <g id="xtick_5">
     <g id="line2d_5">
      <g>
       <use style="stroke:#000000;stroke-width:0.8;" x="339.076782" xlink:href="#m48d218a782" y="277.597793"/>
      </g>
     </g>
     <g id="text_5">
      <!-- 90 -->
      <defs>
       <path d="M 10.984375 1.515625 
L 10.984375 10.5 
Q 14.703125 8.734375 18.5 7.8125 
Q 22.3125 6.890625 25.984375 6.890625 
Q 35.75 6.890625 40.890625 13.453125 
Q 46.046875 20.015625 46.78125 33.40625 
Q 43.953125 29.203125 39.59375 26.953125 
Q 35.25 24.703125 29.984375 24.703125 
Q 19.046875 24.703125 12.671875 31.3125 
Q 6.296875 37.9375 6.296875 49.421875 
Q 6.296875 60.640625 12.9375 67.421875 
Q 19.578125 74.21875 30.609375 74.21875 
Q 43.265625 74.21875 49.921875 64.515625 
Q 56.59375 54.828125 56.59375 36.375 
Q 56.59375 19.140625 48.40625 8.859375 
Q 40.234375 -1.421875 26.421875 -1.421875 
Q 22.703125 -1.421875 18.890625 -0.6875 
Q 15.09375 0.046875 10.984375 1.515625 
z
M 30.609375 32.421875 
Q 37.25 32.421875 41.125 36.953125 
Q 45.015625 41.5 45.015625 49.421875 
Q 45.015625 57.28125 41.125 61.84375 
Q 37.25 66.40625 30.609375 66.40625 
Q 23.96875 66.40625 20.09375 61.84375 
Q 16.21875 57.28125 16.21875 49.421875 
Q 16.21875 41.5 20.09375 36.953125 
Q 23.96875 32.421875 30.609375 32.421875 
z
" id="DejaVuSans-57"/>
      </defs>
      <g transform="translate(332.714282 292.19623)scale(0.1 -0.1)">
       <use xlink:href="#DejaVuSans-57"/>
       <use x="63.623047" xlink:href="#DejaVuSans-48"/>
      </g>
     </g>
    </g>
    <g id="text_6">
     <!-- +1.5961753e9 -->
     <defs>
      <path d="M 46 62.703125 
L 46 35.5 
L 73.1875 35.5 
L 73.1875 27.203125 
L 46 27.203125 
L 46 0 
L 37.796875 0 
L 37.796875 27.203125 
L 10.59375 27.203125 
L 10.59375 35.5 
L 37.796875 35.5 
L 37.796875 62.703125 
z
" id="DejaVuSans-43"/>
      <path d="M 12.40625 8.296875 
L 28.515625 8.296875 
L 28.515625 63.921875 
L 10.984375 60.40625 
L 10.984375 69.390625 
L 28.421875 72.90625 
L 38.28125 72.90625 
L 38.28125 8.296875 
L 54.390625 8.296875 
L 54.390625 0 
L 12.40625 0 
z
" id="DejaVuSans-49"/>
      <path d="M 10.6875 12.40625 
L 21 12.40625 
L 21 0 
L 10.6875 0 
z
" id="DejaVuSans-46"/>
      <path d="M 40.578125 39.3125 
Q 47.65625 37.796875 51.625 33 
Q 55.609375 28.21875 55.609375 21.1875 
Q 55.609375 10.40625 48.1875 4.484375 
Q 40.765625 -1.421875 27.09375 -1.421875 
Q 22.515625 -1.421875 17.65625 -0.515625 
Q 12.796875 0.390625 7.625 2.203125 
L 7.625 11.71875 
Q 11.71875 9.328125 16.59375 8.109375 
Q 21.484375 6.890625 26.8125 6.890625 
Q 36.078125 6.890625 40.9375 10.546875 
Q 45.796875 14.203125 45.796875 21.1875 
Q 45.796875 27.640625 41.28125 31.265625 
Q 36.765625 34.90625 28.71875 34.90625 
L 20.21875 34.90625 
L 20.21875 43.015625 
L 29.109375 43.015625 
Q 36.375 43.015625 40.234375 45.921875 
Q 44.09375 48.828125 44.09375 54.296875 
Q 44.09375 59.90625 40.109375 62.90625 
Q 36.140625 65.921875 28.71875 65.921875 
Q 24.65625 65.921875 20.015625 65.03125 
Q 15.375 64.15625 9.8125 62.3125 
L 9.8125 71.09375 
Q 15.4375 72.65625 20.34375 73.4375 
Q 25.25 74.21875 29.59375 74.21875 
Q 40.828125 74.21875 47.359375 69.109375 
Q 53.90625 64.015625 53.90625 55.328125 
Q 53.90625 49.265625 50.4375 45.09375 
Q 46.96875 40.921875 40.578125 39.3125 
z
" id="DejaVuSans-51"/>
      <path d="M 56.203125 29.59375 
L 56.203125 25.203125 
L 14.890625 25.203125 
Q 15.484375 15.921875 20.484375 11.0625 
Q 25.484375 6.203125 34.421875 6.203125 
Q 39.59375 6.203125 44.453125 7.46875 
Q 49.3125 8.734375 54.109375 11.28125 
L 54.109375 2.78125 
Q 49.265625 0.734375 44.1875 -0.34375 
Q 39.109375 -1.421875 33.890625 -1.421875 
Q 20.796875 -1.421875 13.15625 6.1875 
Q 5.515625 13.8125 5.515625 26.8125 
Q 5.515625 40.234375 12.765625 48.109375 
Q 20.015625 56 32.328125 56 
Q 43.359375 56 49.78125 48.890625 
Q 56.203125 41.796875 56.203125 29.59375 
z
M 47.21875 32.234375 
Q 47.125 39.59375 43.09375 43.984375 
Q 39.0625 48.390625 32.421875 48.390625 
Q 24.90625 48.390625 20.390625 44.140625 
Q 15.875 39.890625 15.1875 32.171875 
z
" id="DejaVuSans-101"/>
     </defs>
     <g transform="translate(315.434063 304.874355)scale(0.1 -0.1)">
      <use xlink:href="#DejaVuSans-43"/>
      <use x="83.789062" xlink:href="#DejaVuSans-49"/>
      <use x="147.412109" xlink:href="#DejaVuSans-46"/>
      <use x="179.199219" xlink:href="#DejaVuSans-53"/>
      <use x="242.822266" xlink:href="#DejaVuSans-57"/>
      <use x="306.445312" xlink:href="#DejaVuSans-54"/>
      <use x="370.068359" xlink:href="#DejaVuSans-49"/>
      <use x="433.691406" xlink:href="#DejaVuSans-55"/>
      <use x="497.314453" xlink:href="#DejaVuSans-53"/>
      <use x="560.9375" xlink:href="#DejaVuSans-51"/>
      <use x="624.560547" xlink:href="#DejaVuSans-101"/>
      <use x="686.083984" xlink:href="#DejaVuSans-57"/>
     </g>
    </g>
   </g>
   <g id="matplotlib.axis_2">
    <g id="ytick_1">
     <g id="line2d_6">
      <defs>
       <path d="M 0 0 
L -3.5 0 
" id="m8b64eea88a" style="stroke:#000000;stroke-width:0.8;"/>
      </defs>
      <g>
       <use style="stroke:#000000;stroke-width:0.8;" x="33.2875" xlink:href="#m8b64eea88a" y="246.667717"/>
      </g>
     </g>
     <g id="text_7">
      <!-- 140 -->
      <defs>
       <path d="M 37.796875 64.3125 
L 12.890625 25.390625 
L 37.796875 25.390625 
z
M 35.203125 72.90625 
L 47.609375 72.90625 
L 47.609375 25.390625 
L 58.015625 25.390625 
L 58.015625 17.1875 
L 47.609375 17.1875 
L 47.609375 0 
L 37.796875 0 
L 37.796875 17.1875 
L 4.890625 17.1875 
L 4.890625 26.703125 
z
" id="DejaVuSans-52"/>
      </defs>
      <g transform="translate(7.2 250.466936)scale(0.1 -0.1)">
       <use xlink:href="#DejaVuSans-49"/>
       <use x="63.623047" xlink:href="#DejaVuSans-52"/>
       <use x="127.246094" xlink:href="#DejaVuSans-48"/>
      </g>
     </g>
    </g>
    <g id="ytick_2">
     <g id="line2d_7">
      <g>
       <use style="stroke:#000000;stroke-width:0.8;" x="33.2875" xlink:href="#m8b64eea88a" y="199.534017"/>
      </g>
     </g>
     <g id="text_8">
      <!-- 150 -->
      <g transform="translate(7.2 203.333236)scale(0.1 -0.1)">
       <use xlink:href="#DejaVuSans-49"/>
       <use x="63.623047" xlink:href="#DejaVuSans-53"/>
       <use x="127.246094" xlink:href="#DejaVuSans-48"/>
      </g>
     </g>
    </g>
    <g id="ytick_3">
     <g id="line2d_8">
      <g>
       <use style="stroke:#000000;stroke-width:0.8;" x="33.2875" xlink:href="#m8b64eea88a" y="152.400318"/>
      </g>
     </g>
     <g id="text_9">
      <!-- 160 -->
      <g transform="translate(7.2 156.199536)scale(0.1 -0.1)">
       <use xlink:href="#DejaVuSans-49"/>
       <use x="63.623047" xlink:href="#DejaVuSans-54"/>
       <use x="127.246094" xlink:href="#DejaVuSans-48"/>
      </g>
     </g>
    </g>
    <g id="ytick_4">
     <g id="line2d_9">
      <g>
       <use style="stroke:#000000;stroke-width:0.8;" x="33.2875" xlink:href="#m8b64eea88a" y="105.266618"/>
      </g>
     </g>
     <g id="text_10">
      <!-- 170 -->
      <g transform="translate(7.2 109.065837)scale(0.1 -0.1)">
       <use xlink:href="#DejaVuSans-49"/>
       <use x="63.623047" xlink:href="#DejaVuSans-55"/>
       <use x="127.246094" xlink:href="#DejaVuSans-48"/>
      </g>
     </g>
    </g>
    <g id="ytick_5">
     <g id="line2d_10">
      <g>
       <use style="stroke:#000000;stroke-width:0.8;" x="33.2875" xlink:href="#m8b64eea88a" y="58.132918"/>
      </g>
     </g>
     <g id="text_11">
      <!-- 180 -->
      <g transform="translate(7.2 61.932137)scale(0.1 -0.1)">
       <use xlink:href="#DejaVuSans-49"/>
       <use x="63.623047" xlink:href="#DejaVuSans-56"/>
       <use x="127.246094" xlink:href="#DejaVuSans-48"/>
      </g>
     </g>
    </g>
    <g id="ytick_6">
     <g id="line2d_11">
      <g>
       <use style="stroke:#000000;stroke-width:0.8;" x="33.2875" xlink:href="#m8b64eea88a" y="10.999219"/>
      </g>
     </g>
     <g id="text_12">
      <!-- 190 -->
      <g transform="translate(7.2 14.798437)scale(0.1 -0.1)">
       <use xlink:href="#DejaVuSans-49"/>
       <use x="63.623047" xlink:href="#DejaVuSans-57"/>
       <use x="127.246094" xlink:href="#DejaVuSans-48"/>
      </g>
     </g>
    </g>
   </g>
   <g id="line2d_12">
    <path clip-path="url(#p878ec6dcb2)" d="M 49.520227 34.5689 
L 49.665041 40.258733 
L 50.244299 40.242955 
L 50.678741 40.264194 
L 51.330406 40.249226 
L 52.706142 40.257519 
L 53.864656 40.24336 
L 54.299101 40.246596 
L 54.950764 40.251046 
L 56.543722 40.257721 
L 56.680763 23.591704 
L 56.75317 23.596963 
L 63.993887 23.587457 
L 64.066294 56.119442 
L 64.138702 56.118633 
L 65.731659 56.142299 
L 66.383324 56.122678 
L 67.903875 56.139872 
L 70.944977 56.128544 
L 71.15715 31.081021 
L 75.863615 31.078189 
L 76.804909 31.07293 
L 77.746202 31.069693 
L 78.253052 31.076773 
L 78.32546 31.069896 
L 78.397867 56.805168 
L 78.470274 56.796672 
L 79.483974 56.808809 
L 79.990824 56.79465 
L 80.642488 56.808 
L 81.14934 56.799706 
L 84.118032 56.810832 
L 84.552477 56.814877 
L 85.276548 56.810022 
L 85.492205 31.351893 
L 86.578312 31.359175 
L 87.229977 31.3525 
L 92.660513 31.356748 
L 92.732922 57.033148 
L 92.805328 57.029912 
L 93.601807 57.026473 
L 94.398287 57.027687 
L 99.321974 57.021821 
L 99.611603 57.022226 
L 99.75478 31.573375 
L 99.827187 31.578027 
L 100.985703 31.565891 
L 101.782181 31.570948 
L 105.909389 31.571352 
L 106.633461 31.567914 
L 106.995497 31.573982 
L 107.140312 57.254905 
L 108.878084 57.252883 
L 113.946587 57.240746 
L 114.089846 31.790179 
L 114.162252 31.803125 
L 116.551689 31.799079 
L 116.913725 31.803732 
L 118.072239 31.810811 
L 121.330563 31.792 
L 121.402969 57.478222 
L 121.475376 57.470334 
L 122.923519 57.472963 
L 123.575184 57.47539 
L 124.371664 57.474177 
L 125.023327 57.484695 
L 125.674992 57.479234 
L 128.281651 57.460422 
L 128.42506 39.820131 
L 128.497469 39.822761 
L 129.22154 39.807185 
L 130.018019 39.804556 
L 130.886906 39.805365 
L 131.683384 39.803342 
L 135.231335 39.811029 
L 135.303743 32.030438 
L 135.37615 32.032865 
L 135.665779 32.028819 
L 135.810593 57.721873 
L 136.607071 57.721266 
L 137.9104 57.716816 
L 138.344843 57.726728 
L 142.616867 57.731583 
L 142.832735 48.512723 
L 143.4844 48.516971 
L 144.642914 48.524253 
L 149.639009 48.518994 
L 149.783823 32.264646 
L 150.001045 32.266062 
L 150.145859 57.975389 
L 151.087152 57.953341 
L 151.66641 57.956982 
L 154.273067 57.966287 
L 154.997139 57.96123 
L 156.228062 57.972962 
L 156.662504 57.968916 
L 156.952133 57.959005 
L 157.168049 57.209004 
L 158.688599 57.199497 
L 159.847113 57.201924 
L 162.598585 57.211229 
L 163.177843 57.196058 
L 163.539879 57.210825 
L 164.04673 57.206779 
L 164.191544 40.463575 
L 164.26395 40.48178 
L 164.408766 66.69977 
L 165.277651 66.713525 
L 166.291351 66.700377 
L 166.943016 66.708064 
L 169.477268 66.712918 
L 169.984118 66.69532 
L 170.563375 66.717773 
L 170.708189 66.713121 
L 171.287447 66.719796 
L 171.503443 65.919768 
L 172.517143 65.924825 
L 173.096399 65.909452 
L 173.603251 65.920375 
L 175.992687 65.933119 
L 176.282316 65.921993 
L 178.454531 65.915925 
L 178.526937 49.496881 
L 178.599346 58.302644 
L 178.671753 58.302037 
L 182.654146 58.300621 
L 183.305811 58.313769 
L 183.885069 58.306285 
L 184.536734 58.310937 
L 185.260805 58.297182 
L 185.622841 58.301632 
L 185.838892 74.957109 
L 186.63537 74.951445 
L 187.359442 74.960548 
L 187.793886 74.939916 
L 188.735178 74.959132 
L 190.328136 74.951445 
L 192.283131 74.961761 
L 192.645166 74.957514 
L 192.862389 74.957514 
L 193.007202 58.056243 
L 193.58646 58.072425 
L 195.686268 58.05685 
L 196.482746 58.075257 
L 197.42404 58.0702 
L 199.95829 58.061704 
L 200.10191 83.687365 
L 200.174318 83.677656 
L 202.636162 83.692827 
L 203.505047 83.681702 
L 204.518747 83.692625 
L 206.111706 83.685343 
L 207.27022 83.680488 
L 207.342627 66.787203 
L 207.415035 66.798935 
L 214.293716 66.802576 
L 214.435875 92.403657 
L 214.508282 92.403252 
L 215.811611 92.413568 
L 216.318462 92.403455 
L 217.187347 92.41903 
L 217.839012 92.399005 
L 221.676592 92.40568 
L 221.821407 75.537468 
L 228.627682 75.542929 
L 228.768465 101.193637 
L 228.840872 101.180692 
L 229.926979 101.195256 
L 230.361422 101.175635 
L 230.94068 101.178467 
L 234.995481 101.183726 
L 236.081589 101.174421 
L 236.153996 84.282478 
L 236.226402 84.302908 
L 238.977875 84.290772 
L 242.96027 84.287737 
L 243.171953 109.938918 
L 247.733604 109.942155 
L 248.312862 109.926175 
L 248.819714 109.946807 
L 250.123041 109.942559 
L 250.557486 109.949639 
L 250.629892 101.545265 
L 250.702299 101.547085 
L 252.150442 101.554165 
L 252.584887 101.543445 
L 253.236549 101.543242 
L 257.291351 101.535556 
L 257.501432 127.181749 
L 258.732355 127.180131 
L 260.252905 127.178918 
L 261.049385 127.18802 
L 262.280306 127.183165 
L 265.031778 127.183368 
L 265.176594 118.772229 
L 266.479923 118.768183 
L 267.276402 118.788209 
L 268.579731 118.776274 
L 271.620832 118.782747 
L 271.829308 144.426625 
L 275.232445 144.42622 
L 276.970217 144.433097 
L 277.477068 144.420556 
L 278.707989 144.435929 
L 279.43206 144.420152 
L 279.504467 144.434311 
L 279.649282 136.047602 
L 280.952612 136.046995 
L 283.05242 136.050231 
L 284.790192 136.03587 
L 285.36945 136.053063 
L 285.876299 136.041736 
L 285.948706 136.049827 
L 286.155582 161.718257 
L 287.386503 161.710166 
L 289.703533 161.719066 
L 290.717234 161.708345 
L 293.975557 161.714009 
L 294.120371 153.3313 
L 294.772036 153.312084 
L 297.161472 153.326446 
L 297.74073 153.318759 
L 300.274981 153.333323 
L 300.407656 178.993221 
L 300.480062 178.984725 
L 301.493763 178.973398 
L 302.145428 178.98958 
L 303.448757 178.972993 
L 304.028013 178.985534 
L 307.575966 178.971779 
L 308.010408 178.981893 
L 308.444851 178.984725 
L 308.517258 170.583722 
L 308.589666 170.584733 
L 310.979103 170.58979 
L 313.078911 170.586756 
L 313.658167 170.597679 
L 314.527054 170.596263 
L 314.599461 170.592015 
L 314.73036 196.268515 
L 314.802767 196.256177 
L 315.454432 196.269527 
L 319.219604 196.262649 
L 321.10219 196.272965 
L 321.464226 196.253142 
L 321.971077 196.277618 
L 322.333113 196.264268 
L 322.912371 196.251929 
L 322.984777 187.878968 
L 323.057184 187.886453 
L 323.636442 187.885441 
L 328.922165 187.88625 
L 329.123585 213.55186 
L 337.378002 213.547814 
L 337.450411 205.172457 
L 337.522818 205.180549 
L 339.188183 205.189449 
L 340.853548 205.175087 
L 342.012062 205.178121 
L 343.242985 205.18601 
L 343.370222 230.869172 
L 343.442629 230.851777 
L 344.528738 230.866543 
L 345.107994 230.866138 
L 347.062988 230.851372 
L 347.497431 230.865127 
L 348.293911 230.863104 
L 350.321312 230.852181 
L 350.900568 230.858654 
L 351.841862 230.854811 
L 351.914268 222.477168 
L 351.986675 222.480404 
L 353.796856 222.494766 
L 354.303705 222.47555 
L 355.100185 222.487282 
L 356.910364 222.478382 
L 357.344807 222.485664 
L 357.562029 222.486675 
L 357.687357 248.174802 
L 357.759766 248.165699 
L 358.266615 248.18532 
L 358.701057 248.169745 
L 362.755859 248.178645 
L 363.190302 248.157406 
L 364.131596 248.183904 
L 364.566038 248.17905 
L 365.217703 248.167318 
L 365.579739 248.168733 
L 366.158997 248.159631 
L 366.30381 248.179859 
L 366.376219 239.813997 
L 366.448626 239.81602 
L 366.883068 239.823909 
L 369.779356 239.80712 
L 370.286205 239.811165 
L 371.879164 239.812379 
L 372.002558 265.481767 
L 372.074965 265.480149 
L 373.450701 265.483993 
L 374.174772 265.486622 
L 374.174772 265.486622 
" style="fill:none;stroke:#ff0000;stroke-linecap:square;stroke-width:1.5;"/>
   </g>
   <g id="patch_3">
    <path d="M 33.2875 277.597793 
L 33.2875 11.485793 
" style="fill:none;stroke:#000000;stroke-linecap:square;stroke-linejoin:miter;stroke-width:0.8;"/>
   </g>
   <g id="patch_4">
    <path d="M 390.4075 277.597793 
L 390.4075 11.485793 
" style="fill:none;stroke:#000000;stroke-linecap:square;stroke-linejoin:miter;stroke-width:0.8;"/>
   </g>
   <g id="patch_5">
    <path d="M 33.2875 277.597793 
L 390.407499 277.597793 
" style="fill:none;stroke:#000000;stroke-linecap:square;stroke-linejoin:miter;stroke-width:0.8;"/>
   </g>
   <g id="patch_6">
    <path d="M 33.2875 11.485793 
L 390.407499 11.485793 
" style="fill:none;stroke:#000000;stroke-linecap:square;stroke-linejoin:miter;stroke-width:0.8;"/>
   </g>
  </g>
 </g>
 <defs>
  <clipPath id="p878ec6dcb2">
   <rect height="266.112" width="357.12" x="33.2875" y="11.485793"/>
  </clipPath>
 </defs>
</svg>
