<?xml version="1.0" encoding="utf-8" standalone="no"?>
<!DOCTYPE svg PUBLIC "-//W3C//DTD SVG 1.1//EN"
  "http://www.w3.org/Graphics/SVG/1.1/DTD/svg11.dtd">
<!-- Created with matplotlib (https://matplotlib.org/) -->
<svg height="313.36825pt" version="1.1" viewBox="0 0 401.1075 313.36825" width="401.1075pt" xmlns="http://www.w3.org/2000/svg" xmlns:xlink="http://www.w3.org/1999/xlink">
 <defs>
  <style type="text/css">
*{stroke-linecap:butt;stroke-linejoin:round;}
  </style>
 </defs>
 <g id="figure_1">
  <g id="patch_1">
   <path d="M 0 313.36825 
L 401.1075 313.36825 
L 401.1075 0 
L 0 0 
z
" style="fill:#ffffff;"/>
  </g>
  <g id="axes_1">
   <g id="patch_2">
    <path d="M 33.2875 276.812 
L 390.4075 276.812 
L 390.4075 10.7 
L 33.2875 10.7 
z
" style="fill:#ffffff;"/>
   </g>
   <g id="matplotlib.axis_1">
    <g id="xtick_1">
     <g id="line2d_1">
      <defs>
       <path d="M 0 0 
L 0 3.5 
" id="m3554340304" style="stroke:#000000;stroke-width:0.8;"/>
      </defs>
      <g>
       <use style="stroke:#000000;stroke-width:0.8;" x="49.520227" xlink:href="#m3554340304" y="276.812"/>
      </g>
     </g>
     <g id="text_1">
      <!-- 460 -->
      <defs>
       <path d="M 37.796875 64.3125 
L 12.890625 25.390625 
L 37.796875 25.390625 
z
M 35.203125 72.90625 
L 47.609375 72.90625 
L 47.609375 25.390625 
L 58.015625 25.390625 
L 58.015625 17.1875 
L 47.609375 17.1875 
L 47.609375 0 
L 37.796875 0 
L 37.796875 17.1875 
L 4.890625 17.1875 
L 4.890625 26.703125 
z
" id="DejaVuSans-52"/>
       <path d="M 33.015625 40.375 
Q 26.375 40.375 22.484375 35.828125 
Q 18.609375 31.296875 18.609375 23.390625 
Q 18.609375 15.53125 22.484375 10.953125 
Q 26.375 6.390625 33.015625 6.390625 
Q 39.65625 6.390625 43.53125 10.953125 
Q 47.40625 15.53125 47.40625 23.390625 
Q 47.40625 31.296875 43.53125 35.828125 
Q 39.65625 40.375 33.015625 40.375 
z
M 52.59375 71.296875 
L 52.59375 62.3125 
Q 48.875 64.0625 45.09375 64.984375 
Q 41.3125 65.921875 37.59375 65.921875 
Q 27.828125 65.921875 22.671875 59.328125 
Q 17.53125 52.734375 16.796875 39.40625 
Q 19.671875 43.65625 24.015625 45.921875 
Q 28.375 48.1875 33.59375 48.1875 
Q 44.578125 48.1875 50.953125 41.515625 
Q 57.328125 34.859375 57.328125 23.390625 
Q 57.328125 12.15625 50.6875 5.359375 
Q 44.046875 -1.421875 33.015625 -1.421875 
Q 20.359375 -1.421875 13.671875 8.265625 
Q 6.984375 17.96875 6.984375 36.375 
Q 6.984375 53.65625 15.1875 63.9375 
Q 23.390625 74.21875 37.203125 74.21875 
Q 40.921875 74.21875 44.703125 73.484375 
Q 48.484375 72.75 52.59375 71.296875 
z
" id="DejaVuSans-54"/>
       <path d="M 31.78125 66.40625 
Q 24.171875 66.40625 20.328125 58.90625 
Q 16.5 51.421875 16.5 36.375 
Q 16.5 21.390625 20.328125 13.890625 
Q 24.171875 6.390625 31.78125 6.390625 
Q 39.453125 6.390625 43.28125 13.890625 
Q 47.125 21.390625 47.125 36.375 
Q 47.125 51.421875 43.28125 58.90625 
Q 39.453125 66.40625 31.78125 66.40625 
z
M 31.78125 74.21875 
Q 44.046875 74.21875 50.515625 64.515625 
Q 56.984375 54.828125 56.984375 36.375 
Q 56.984375 17.96875 50.515625 8.265625 
Q 44.046875 -1.421875 31.78125 -1.421875 
Q 19.53125 -1.421875 13.0625 8.265625 
Q 6.59375 17.96875 6.59375 36.375 
Q 6.59375 54.828125 13.0625 64.515625 
Q 19.53125 74.21875 31.78125 74.21875 
z
" id="DejaVuSans-48"/>
      </defs>
      <g transform="translate(39.976477 291.410437)scale(0.1 -0.1)">
       <use xlink:href="#DejaVuSans-52"/>
       <use x="63.623047" xlink:href="#DejaVuSans-54"/>
       <use x="127.246094" xlink:href="#DejaVuSans-48"/>
      </g>
     </g>
    </g>
    <g id="xtick_2">
     <g id="line2d_2">
      <g>
       <use style="stroke:#000000;stroke-width:0.8;" x="121.676933" xlink:href="#m3554340304" y="276.812"/>
      </g>
     </g>
     <g id="text_2">
      <!-- 470 -->
      <defs>
       <path d="M 8.203125 72.90625 
L 55.078125 72.90625 
L 55.078125 68.703125 
L 28.609375 0 
L 18.3125 0 
L 43.21875 64.59375 
L 8.203125 64.59375 
z
" id="DejaVuSans-55"/>
      </defs>
      <g transform="translate(112.133183 291.410437)scale(0.1 -0.1)">
       <use xlink:href="#DejaVuSans-52"/>
       <use x="63.623047" xlink:href="#DejaVuSans-55"/>
       <use x="127.246094" xlink:href="#DejaVuSans-48"/>
      </g>
     </g>
    </g>
    <g id="xtick_3">
     <g id="line2d_3">
      <g>
       <use style="stroke:#000000;stroke-width:0.8;" x="193.833637" xlink:href="#m3554340304" y="276.812"/>
      </g>
     </g>
     <g id="text_3">
      <!-- 480 -->
      <defs>
       <path d="M 31.78125 34.625 
Q 24.75 34.625 20.71875 30.859375 
Q 16.703125 27.09375 16.703125 20.515625 
Q 16.703125 13.921875 20.71875 10.15625 
Q 24.75 6.390625 31.78125 6.390625 
Q 38.8125 6.390625 42.859375 10.171875 
Q 46.921875 13.96875 46.921875 20.515625 
Q 46.921875 27.09375 42.890625 30.859375 
Q 38.875 34.625 31.78125 34.625 
z
M 21.921875 38.8125 
Q 15.578125 40.375 12.03125 44.71875 
Q 8.5 49.078125 8.5 55.328125 
Q 8.5 64.0625 14.71875 69.140625 
Q 20.953125 74.21875 31.78125 74.21875 
Q 42.671875 74.21875 48.875 69.140625 
Q 55.078125 64.0625 55.078125 55.328125 
Q 55.078125 49.078125 51.53125 44.71875 
Q 48 40.375 41.703125 38.8125 
Q 48.828125 37.15625 52.796875 32.3125 
Q 56.78125 27.484375 56.78125 20.515625 
Q 56.78125 9.90625 50.3125 4.234375 
Q 43.84375 -1.421875 31.78125 -1.421875 
Q 19.734375 -1.421875 13.25 4.234375 
Q 6.78125 9.90625 6.78125 20.515625 
Q 6.78125 27.484375 10.78125 32.3125 
Q 14.796875 37.15625 21.921875 38.8125 
z
M 18.3125 54.390625 
Q 18.3125 48.734375 21.84375 45.5625 
Q 25.390625 42.390625 31.78125 42.390625 
Q 38.140625 42.390625 41.71875 45.5625 
Q 45.3125 48.734375 45.3125 54.390625 
Q 45.3125 60.0625 41.71875 63.234375 
Q 38.140625 66.40625 31.78125 66.40625 
Q 25.390625 66.40625 21.84375 63.234375 
Q 18.3125 60.0625 18.3125 54.390625 
z
" id="DejaVuSans-56"/>
      </defs>
      <g transform="translate(184.289887 291.410437)scale(0.1 -0.1)">
       <use xlink:href="#DejaVuSans-52"/>
       <use x="63.623047" xlink:href="#DejaVuSans-56"/>
       <use x="127.246094" xlink:href="#DejaVuSans-48"/>
      </g>
     </g>
    </g>
    <g id="xtick_4">
     <g id="line2d_4">
      <g>
       <use style="stroke:#000000;stroke-width:0.8;" x="265.990341" xlink:href="#m3554340304" y="276.812"/>
      </g>
     </g>
     <g id="text_4">
      <!-- 490 -->
      <defs>
       <path d="M 10.984375 1.515625 
L 10.984375 10.5 
Q 14.703125 8.734375 18.5 7.8125 
Q 22.3125 6.890625 25.984375 6.890625 
Q 35.75 6.890625 40.890625 13.453125 
Q 46.046875 20.015625 46.78125 33.40625 
Q 43.953125 29.203125 39.59375 26.953125 
Q 35.25 24.703125 29.984375 24.703125 
Q 19.046875 24.703125 12.671875 31.3125 
Q 6.296875 37.9375 6.296875 49.421875 
Q 6.296875 60.640625 12.9375 67.421875 
Q 19.578125 74.21875 30.609375 74.21875 
Q 43.265625 74.21875 49.921875 64.515625 
Q 56.59375 54.828125 56.59375 36.375 
Q 56.59375 19.140625 48.40625 8.859375 
Q 40.234375 -1.421875 26.421875 -1.421875 
Q 22.703125 -1.421875 18.890625 -0.6875 
Q 15.09375 0.046875 10.984375 1.515625 
z
M 30.609375 32.421875 
Q 37.25 32.421875 41.125 36.953125 
Q 45.015625 41.5 45.015625 49.421875 
Q 45.015625 57.28125 41.125 61.84375 
Q 37.25 66.40625 30.609375 66.40625 
Q 23.96875 66.40625 20.09375 61.84375 
Q 16.21875 57.28125 16.21875 49.421875 
Q 16.21875 41.5 20.09375 36.953125 
Q 23.96875 32.421875 30.609375 32.421875 
z
" id="DejaVuSans-57"/>
      </defs>
      <g transform="translate(256.446591 291.410437)scale(0.1 -0.1)">
       <use xlink:href="#DejaVuSans-52"/>
       <use x="63.623047" xlink:href="#DejaVuSans-57"/>
       <use x="127.246094" xlink:href="#DejaVuSans-48"/>
      </g>
     </g>
    </g>
    <g id="xtick_5">
     <g id="line2d_5">
      <g>
       <use style="stroke:#000000;stroke-width:0.8;" x="338.147047" xlink:href="#m3554340304" y="276.812"/>
      </g>
     </g>
     <g id="text_5">
      <!-- 500 -->
      <defs>
       <path d="M 10.796875 72.90625 
L 49.515625 72.90625 
L 49.515625 64.59375 
L 19.828125 64.59375 
L 19.828125 46.734375 
Q 21.96875 47.46875 24.109375 47.828125 
Q 26.265625 48.1875 28.421875 48.1875 
Q 40.625 48.1875 47.75 41.5 
Q 54.890625 34.8125 54.890625 23.390625 
Q 54.890625 11.625 47.5625 5.09375 
Q 40.234375 -1.421875 26.90625 -1.421875 
Q 22.3125 -1.421875 17.546875 -0.640625 
Q 12.796875 0.140625 7.71875 1.703125 
L 7.71875 11.625 
Q 12.109375 9.234375 16.796875 8.0625 
Q 21.484375 6.890625 26.703125 6.890625 
Q 35.15625 6.890625 40.078125 11.328125 
Q 45.015625 15.765625 45.015625 23.390625 
Q 45.015625 31 40.078125 35.4375 
Q 35.15625 39.890625 26.703125 39.890625 
Q 22.75 39.890625 18.8125 39.015625 
Q 14.890625 38.140625 10.796875 36.28125 
z
" id="DejaVuSans-53"/>
      </defs>
      <g transform="translate(328.603297 291.410437)scale(0.1 -0.1)">
       <use xlink:href="#DejaVuSans-53"/>
       <use x="63.623047" xlink:href="#DejaVuSans-48"/>
       <use x="127.246094" xlink:href="#DejaVuSans-48"/>
      </g>
     </g>
    </g>
    <g id="text_6">
     <!-- +1.596175e9 -->
     <defs>
      <path d="M 46 62.703125 
L 46 35.5 
L 73.1875 35.5 
L 73.1875 27.203125 
L 46 27.203125 
L 46 0 
L 37.796875 0 
L 37.796875 27.203125 
L 10.59375 27.203125 
L 10.59375 35.5 
L 37.796875 35.5 
L 37.796875 62.703125 
z
" id="DejaVuSans-43"/>
      <path d="M 12.40625 8.296875 
L 28.515625 8.296875 
L 28.515625 63.921875 
L 10.984375 60.40625 
L 10.984375 69.390625 
L 28.421875 72.90625 
L 38.28125 72.90625 
L 38.28125 8.296875 
L 54.390625 8.296875 
L 54.390625 0 
L 12.40625 0 
z
" id="DejaVuSans-49"/>
      <path d="M 10.6875 12.40625 
L 21 12.40625 
L 21 0 
L 10.6875 0 
z
" id="DejaVuSans-46"/>
      <path d="M 56.203125 29.59375 
L 56.203125 25.203125 
L 14.890625 25.203125 
Q 15.484375 15.921875 20.484375 11.0625 
Q 25.484375 6.203125 34.421875 6.203125 
Q 39.59375 6.203125 44.453125 7.46875 
Q 49.3125 8.734375 54.109375 11.28125 
L 54.109375 2.78125 
Q 49.265625 0.734375 44.1875 -0.34375 
Q 39.109375 -1.421875 33.890625 -1.421875 
Q 20.796875 -1.421875 13.15625 6.1875 
Q 5.515625 13.8125 5.515625 26.8125 
Q 5.515625 40.234375 12.765625 48.109375 
Q 20.015625 56 32.328125 56 
Q 43.359375 56 49.78125 48.890625 
Q 56.203125 41.796875 56.203125 29.59375 
z
M 47.21875 32.234375 
Q 47.125 39.59375 43.09375 43.984375 
Q 39.0625 48.390625 32.421875 48.390625 
Q 24.90625 48.390625 20.390625 44.140625 
Q 15.875 39.890625 15.1875 32.171875 
z
" id="DejaVuSans-101"/>
     </defs>
     <g transform="translate(321.796563 304.088562)scale(0.1 -0.1)">
      <use xlink:href="#DejaVuSans-43"/>
      <use x="83.789062" xlink:href="#DejaVuSans-49"/>
      <use x="147.412109" xlink:href="#DejaVuSans-46"/>
      <use x="179.199219" xlink:href="#DejaVuSans-53"/>
      <use x="242.822266" xlink:href="#DejaVuSans-57"/>
      <use x="306.445312" xlink:href="#DejaVuSans-54"/>
      <use x="370.068359" xlink:href="#DejaVuSans-49"/>
      <use x="433.691406" xlink:href="#DejaVuSans-55"/>
      <use x="497.314453" xlink:href="#DejaVuSans-53"/>
      <use x="560.9375" xlink:href="#DejaVuSans-101"/>
      <use x="622.460938" xlink:href="#DejaVuSans-57"/>
     </g>
    </g>
   </g>
   <g id="matplotlib.axis_2">
    <g id="ytick_1">
     <g id="line2d_6">
      <defs>
       <path d="M 0 0 
L -3.5 0 
" id="m87cda53a4d" style="stroke:#000000;stroke-width:0.8;"/>
      </defs>
      <g>
       <use style="stroke:#000000;stroke-width:0.8;" x="33.2875" xlink:href="#m87cda53a4d" y="264.716"/>
      </g>
     </g>
     <g id="text_7">
      <!-- 0 -->
      <g transform="translate(19.925 268.515219)scale(0.1 -0.1)">
       <use xlink:href="#DejaVuSans-48"/>
      </g>
     </g>
    </g>
    <g id="ytick_2">
     <g id="line2d_7">
      <g>
       <use style="stroke:#000000;stroke-width:0.8;" x="33.2875" xlink:href="#m87cda53a4d" y="231.116"/>
      </g>
     </g>
     <g id="text_8">
      <!-- 50 -->
      <g transform="translate(13.5625 234.915219)scale(0.1 -0.1)">
       <use xlink:href="#DejaVuSans-53"/>
       <use x="63.623047" xlink:href="#DejaVuSans-48"/>
      </g>
     </g>
    </g>
    <g id="ytick_3">
     <g id="line2d_8">
      <g>
       <use style="stroke:#000000;stroke-width:0.8;" x="33.2875" xlink:href="#m87cda53a4d" y="197.516"/>
      </g>
     </g>
     <g id="text_9">
      <!-- 100 -->
      <g transform="translate(7.2 201.315219)scale(0.1 -0.1)">
       <use xlink:href="#DejaVuSans-49"/>
       <use x="63.623047" xlink:href="#DejaVuSans-48"/>
       <use x="127.246094" xlink:href="#DejaVuSans-48"/>
      </g>
     </g>
    </g>
    <g id="ytick_4">
     <g id="line2d_9">
      <g>
       <use style="stroke:#000000;stroke-width:0.8;" x="33.2875" xlink:href="#m87cda53a4d" y="163.916"/>
      </g>
     </g>
     <g id="text_10">
      <!-- 150 -->
      <g transform="translate(7.2 167.715219)scale(0.1 -0.1)">
       <use xlink:href="#DejaVuSans-49"/>
       <use x="63.623047" xlink:href="#DejaVuSans-53"/>
       <use x="127.246094" xlink:href="#DejaVuSans-48"/>
      </g>
     </g>
    </g>
    <g id="ytick_5">
     <g id="line2d_10">
      <g>
       <use style="stroke:#000000;stroke-width:0.8;" x="33.2875" xlink:href="#m87cda53a4d" y="130.316"/>
      </g>
     </g>
     <g id="text_11">
      <!-- 200 -->
      <defs>
       <path d="M 19.1875 8.296875 
L 53.609375 8.296875 
L 53.609375 0 
L 7.328125 0 
L 7.328125 8.296875 
Q 12.9375 14.109375 22.625 23.890625 
Q 32.328125 33.6875 34.8125 36.53125 
Q 39.546875 41.84375 41.421875 45.53125 
Q 43.3125 49.21875 43.3125 52.78125 
Q 43.3125 58.59375 39.234375 62.25 
Q 35.15625 65.921875 28.609375 65.921875 
Q 23.96875 65.921875 18.8125 64.3125 
Q 13.671875 62.703125 7.8125 59.421875 
L 7.8125 69.390625 
Q 13.765625 71.78125 18.9375 73 
Q 24.125 74.21875 28.421875 74.21875 
Q 39.75 74.21875 46.484375 68.546875 
Q 53.21875 62.890625 53.21875 53.421875 
Q 53.21875 48.921875 51.53125 44.890625 
Q 49.859375 40.875 45.40625 35.40625 
Q 44.1875 33.984375 37.640625 27.21875 
Q 31.109375 20.453125 19.1875 8.296875 
z
" id="DejaVuSans-50"/>
      </defs>
      <g transform="translate(7.2 134.115219)scale(0.1 -0.1)">
       <use xlink:href="#DejaVuSans-50"/>
       <use x="63.623047" xlink:href="#DejaVuSans-48"/>
       <use x="127.246094" xlink:href="#DejaVuSans-48"/>
      </g>
     </g>
    </g>
    <g id="ytick_6">
     <g id="line2d_11">
      <g>
       <use style="stroke:#000000;stroke-width:0.8;" x="33.2875" xlink:href="#m87cda53a4d" y="96.716"/>
      </g>
     </g>
     <g id="text_12">
      <!-- 250 -->
      <g transform="translate(7.2 100.515219)scale(0.1 -0.1)">
       <use xlink:href="#DejaVuSans-50"/>
       <use x="63.623047" xlink:href="#DejaVuSans-53"/>
       <use x="127.246094" xlink:href="#DejaVuSans-48"/>
      </g>
     </g>
    </g>
    <g id="ytick_7">
     <g id="line2d_12">
      <g>
       <use style="stroke:#000000;stroke-width:0.8;" x="33.2875" xlink:href="#m87cda53a4d" y="63.116"/>
      </g>
     </g>
     <g id="text_13">
      <!-- 300 -->
      <defs>
       <path d="M 40.578125 39.3125 
Q 47.65625 37.796875 51.625 33 
Q 55.609375 28.21875 55.609375 21.1875 
Q 55.609375 10.40625 48.1875 4.484375 
Q 40.765625 -1.421875 27.09375 -1.421875 
Q 22.515625 -1.421875 17.65625 -0.515625 
Q 12.796875 0.390625 7.625 2.203125 
L 7.625 11.71875 
Q 11.71875 9.328125 16.59375 8.109375 
Q 21.484375 6.890625 26.8125 6.890625 
Q 36.078125 6.890625 40.9375 10.546875 
Q 45.796875 14.203125 45.796875 21.1875 
Q 45.796875 27.640625 41.28125 31.265625 
Q 36.765625 34.90625 28.71875 34.90625 
L 20.21875 34.90625 
L 20.21875 43.015625 
L 29.109375 43.015625 
Q 36.375 43.015625 40.234375 45.921875 
Q 44.09375 48.828125 44.09375 54.296875 
Q 44.09375 59.90625 40.109375 62.90625 
Q 36.140625 65.921875 28.71875 65.921875 
Q 24.65625 65.921875 20.015625 65.03125 
Q 15.375 64.15625 9.8125 62.3125 
L 9.8125 71.09375 
Q 15.4375 72.65625 20.34375 73.4375 
Q 25.25 74.21875 29.59375 74.21875 
Q 40.828125 74.21875 47.359375 69.109375 
Q 53.90625 64.015625 53.90625 55.328125 
Q 53.90625 49.265625 50.4375 45.09375 
Q 46.96875 40.921875 40.578125 39.3125 
z
" id="DejaVuSans-51"/>
      </defs>
      <g transform="translate(7.2 66.915219)scale(0.1 -0.1)">
       <use xlink:href="#DejaVuSans-51"/>
       <use x="63.623047" xlink:href="#DejaVuSans-48"/>
       <use x="127.246094" xlink:href="#DejaVuSans-48"/>
      </g>
     </g>
    </g>
    <g id="ytick_8">
     <g id="line2d_13">
      <g>
       <use style="stroke:#000000;stroke-width:0.8;" x="33.2875" xlink:href="#m87cda53a4d" y="29.516"/>
      </g>
     </g>
     <g id="text_14">
      <!-- 350 -->
      <g transform="translate(7.2 33.315219)scale(0.1 -0.1)">
       <use xlink:href="#DejaVuSans-51"/>
       <use x="63.623047" xlink:href="#DejaVuSans-53"/>
       <use x="127.246094" xlink:href="#DejaVuSans-48"/>
      </g>
     </g>
    </g>
   </g>
   <g id="line2d_14">
    <path clip-path="url(#pcdf8e71ac6)" d="M 57.016781 22.796 
" style="fill:none;stroke:#1f77b4;stroke-linecap:square;stroke-width:1.5;"/>
    <defs>
     <path d="M 0 3 
C 0.795609 3 1.55874 2.683901 2.12132 2.12132 
C 2.683901 1.55874 3 0.795609 3 0 
C 3 -0.795609 2.683901 -1.55874 2.12132 -2.12132 
C 1.55874 -2.683901 0.795609 -3 0 -3 
C -0.795609 -3 -1.55874 -2.683901 -2.12132 -2.12132 
C -2.683901 -1.55874 -3 -0.795609 -3 0 
C -3 0.795609 -2.683901 1.55874 -2.12132 2.12132 
C -1.55874 2.683901 -0.795609 3 0 3 
z
" id="m8ff2271ac4" style="stroke:#1f77b4;"/>
    </defs>
    <g clip-path="url(#pcdf8e71ac6)">
     <use style="fill:#1f77b4;stroke:#1f77b4;" x="57.016781" xlink:href="#m8ff2271ac4" y="22.796"/>
    </g>
   </g>
   <g id="line2d_15">
    <path clip-path="url(#pcdf8e71ac6)" d="M 71.260233 22.796 
" style="fill:none;stroke:#ff7f0e;stroke-linecap:square;stroke-width:1.5;"/>
    <defs>
     <path d="M 0 3 
C 0.795609 3 1.55874 2.683901 2.12132 2.12132 
C 2.683901 1.55874 3 0.795609 3 0 
C 3 -0.795609 2.683901 -1.55874 2.12132 -2.12132 
C 1.55874 -2.683901 0.795609 -3 0 -3 
C -0.795609 -3 -1.55874 -2.683901 -2.12132 -2.12132 
C -2.683901 -1.55874 -3 -0.795609 -3 0 
C -3 0.795609 -2.683901 1.55874 -2.12132 2.12132 
C -1.55874 2.683901 -0.795609 3 0 3 
z
" id="m3d5ec33954" style="stroke:#ff7f0e;"/>
    </defs>
    <g clip-path="url(#pcdf8e71ac6)">
     <use style="fill:#ff7f0e;stroke:#ff7f0e;" x="71.260233" xlink:href="#m3d5ec33954" y="22.796"/>
    </g>
   </g>
   <g id="line2d_16">
    <path clip-path="url(#pcdf8e71ac6)" d="M 85.501072 22.796 
" style="fill:none;stroke:#2ca02c;stroke-linecap:square;stroke-width:1.5;"/>
    <defs>
     <path d="M 0 3 
C 0.795609 3 1.55874 2.683901 2.12132 2.12132 
C 2.683901 1.55874 3 0.795609 3 0 
C 3 -0.795609 2.683901 -1.55874 2.12132 -2.12132 
C 1.55874 -2.683901 0.795609 -3 0 -3 
C -0.795609 -3 -1.55874 -2.683901 -2.12132 -2.12132 
C -2.683901 -1.55874 -3 -0.795609 -3 0 
C -3 0.795609 -2.683901 1.55874 -2.12132 2.12132 
C -1.55874 2.683901 -0.795609 3 0 3 
z
" id="mef70c560df" style="stroke:#2ca02c;"/>
    </defs>
    <g clip-path="url(#pcdf8e71ac6)">
     <use style="fill:#2ca02c;stroke:#2ca02c;" x="85.501072" xlink:href="#mef70c560df" y="22.796"/>
    </g>
   </g>
   <g id="line2d_17">
    <path clip-path="url(#pcdf8e71ac6)" d="M 99.740637 22.796 
" style="fill:none;stroke:#d62728;stroke-linecap:square;stroke-width:1.5;"/>
    <defs>
     <path d="M 0 3 
C 0.795609 3 1.55874 2.683901 2.12132 2.12132 
C 2.683901 1.55874 3 0.795609 3 0 
C 3 -0.795609 2.683901 -1.55874 2.12132 -2.12132 
C 1.55874 -2.683901 0.795609 -3 0 -3 
C -0.795609 -3 -1.55874 -2.683901 -2.12132 -2.12132 
C -2.683901 -1.55874 -3 -0.795609 -3 0 
C -3 0.795609 -2.683901 1.55874 -2.12132 2.12132 
C -1.55874 2.683901 -0.795609 3 0 3 
z
" id="m758d6fc081" style="stroke:#d62728;"/>
    </defs>
    <g clip-path="url(#pcdf8e71ac6)">
     <use style="fill:#d62728;stroke:#d62728;" x="99.740637" xlink:href="#m758d6fc081" y="22.796"/>
    </g>
   </g>
   <g id="line2d_18">
    <path clip-path="url(#pcdf8e71ac6)" d="M 113.978836 22.796 
" style="fill:none;stroke:#9467bd;stroke-linecap:square;stroke-width:1.5;"/>
    <defs>
     <path d="M 0 3 
C 0.795609 3 1.55874 2.683901 2.12132 2.12132 
C 2.683901 1.55874 3 0.795609 3 0 
C 3 -0.795609 2.683901 -1.55874 2.12132 -2.12132 
C 1.55874 -2.683901 0.795609 -3 0 -3 
C -0.795609 -3 -1.55874 -2.683901 -2.12132 -2.12132 
C -2.683901 -1.55874 -3 -0.795609 -3 0 
C -3 0.795609 -2.683901 1.55874 -2.12132 2.12132 
C -1.55874 2.683901 -0.795609 3 0 3 
z
" id="m285e3f2102" style="stroke:#9467bd;"/>
    </defs>
    <g clip-path="url(#pcdf8e71ac6)">
     <use style="fill:#9467bd;stroke:#9467bd;" x="113.978836" xlink:href="#m285e3f2102" y="22.796"/>
    </g>
   </g>
   <g id="line2d_19">
    <path clip-path="url(#pcdf8e71ac6)" d="M 128.215698 22.796 
" style="fill:none;stroke:#8c564b;stroke-linecap:square;stroke-width:1.5;"/>
    <defs>
     <path d="M 0 3 
C 0.795609 3 1.55874 2.683901 2.12132 2.12132 
C 2.683901 1.55874 3 0.795609 3 0 
C 3 -0.795609 2.683901 -1.55874 2.12132 -2.12132 
C 1.55874 -2.683901 0.795609 -3 0 -3 
C -0.795609 -3 -1.55874 -2.683901 -2.12132 -2.12132 
C -2.683901 -1.55874 -3 -0.795609 -3 0 
C -3 0.795609 -2.683901 1.55874 -2.12132 2.12132 
C -1.55874 2.683901 -0.795609 3 0 3 
z
" id="m923d63f9c7" style="stroke:#8c564b;"/>
    </defs>
    <g clip-path="url(#pcdf8e71ac6)">
     <use style="fill:#8c564b;stroke:#8c564b;" x="128.215698" xlink:href="#m923d63f9c7" y="22.796"/>
    </g>
   </g>
   <g id="line2d_20">
    <path clip-path="url(#pcdf8e71ac6)" d="M 142.451096 22.796 
" style="fill:none;stroke:#e377c2;stroke-linecap:square;stroke-width:1.5;"/>
    <defs>
     <path d="M 0 3 
C 0.795609 3 1.55874 2.683901 2.12132 2.12132 
C 2.683901 1.55874 3 0.795609 3 0 
C 3 -0.795609 2.683901 -1.55874 2.12132 -2.12132 
C 1.55874 -2.683901 0.795609 -3 0 -3 
C -0.795609 -3 -1.55874 -2.683901 -2.12132 -2.12132 
C -2.683901 -1.55874 -3 -0.795609 -3 0 
C -3 0.795609 -2.683901 1.55874 -2.12132 2.12132 
C -1.55874 2.683901 -0.795609 3 0 3 
z
" id="m8a45110e45" style="stroke:#e377c2;"/>
    </defs>
    <g clip-path="url(#pcdf8e71ac6)">
     <use style="fill:#e377c2;stroke:#e377c2;" x="142.451096" xlink:href="#m8a45110e45" y="22.796"/>
    </g>
   </g>
   <g id="line2d_21">
    <path clip-path="url(#pcdf8e71ac6)" d="M 156.685041 22.796 
" style="fill:none;stroke:#7f7f7f;stroke-linecap:square;stroke-width:1.5;"/>
    <defs>
     <path d="M 0 3 
C 0.795609 3 1.55874 2.683901 2.12132 2.12132 
C 2.683901 1.55874 3 0.795609 3 0 
C 3 -0.795609 2.683901 -1.55874 2.12132 -2.12132 
C 1.55874 -2.683901 0.795609 -3 0 -3 
C -0.795609 -3 -1.55874 -2.683901 -2.12132 -2.12132 
C -2.683901 -1.55874 -3 -0.795609 -3 0 
C -3 0.795609 -2.683901 1.55874 -2.12132 2.12132 
C -1.55874 2.683901 -0.795609 3 0 3 
z
" id="ma14e6d4593" style="stroke:#7f7f7f;"/>
    </defs>
    <g clip-path="url(#pcdf8e71ac6)">
     <use style="fill:#7f7f7f;stroke:#7f7f7f;" x="156.685041" xlink:href="#ma14e6d4593" y="22.796"/>
    </g>
   </g>
   <g id="line2d_22">
    <path clip-path="url(#pcdf8e71ac6)" d="M 170.917501 22.796 
" style="fill:none;stroke:#bcbd22;stroke-linecap:square;stroke-width:1.5;"/>
    <defs>
     <path d="M 0 3 
C 0.795609 3 1.55874 2.683901 2.12132 2.12132 
C 2.683901 1.55874 3 0.795609 3 0 
C 3 -0.795609 2.683901 -1.55874 2.12132 -2.12132 
C 1.55874 -2.683901 0.795609 -3 0 -3 
C -0.795609 -3 -1.55874 -2.683901 -2.12132 -2.12132 
C -2.683901 -1.55874 -3 -0.795609 -3 0 
C -3 0.795609 -2.683901 1.55874 -2.12132 2.12132 
C -1.55874 2.683901 -0.795609 3 0 3 
z
" id="mb55f54dd71" style="stroke:#bcbd22;"/>
    </defs>
    <g clip-path="url(#pcdf8e71ac6)">
     <use style="fill:#bcbd22;stroke:#bcbd22;" x="170.917501" xlink:href="#mb55f54dd71" y="22.796"/>
    </g>
   </g>
   <g id="line2d_23">
    <path clip-path="url(#pcdf8e71ac6)" d="M 185.148546 22.796 
" style="fill:none;stroke:#17becf;stroke-linecap:square;stroke-width:1.5;"/>
    <defs>
     <path d="M 0 3 
C 0.795609 3 1.55874 2.683901 2.12132 2.12132 
C 2.683901 1.55874 3 0.795609 3 0 
C 3 -0.795609 2.683901 -1.55874 2.12132 -2.12132 
C 1.55874 -2.683901 0.795609 -3 0 -3 
C -0.795609 -3 -1.55874 -2.683901 -2.12132 -2.12132 
C -2.683901 -1.55874 -3 -0.795609 -3 0 
C -3 0.795609 -2.683901 1.55874 -2.12132 2.12132 
C -1.55874 2.683901 -0.795609 3 0 3 
z
" id="mffa6b9aad5" style="stroke:#17becf;"/>
    </defs>
    <g clip-path="url(#pcdf8e71ac6)">
     <use style="fill:#17becf;stroke:#17becf;" x="185.148546" xlink:href="#mffa6b9aad5" y="22.796"/>
    </g>
   </g>
   <g id="line2d_24">
    <path clip-path="url(#pcdf8e71ac6)" d="M 199.377993 22.796 
" style="fill:none;stroke:#1f77b4;stroke-linecap:square;stroke-width:1.5;"/>
    <g clip-path="url(#pcdf8e71ac6)">
     <use style="fill:#1f77b4;stroke:#1f77b4;" x="199.377993" xlink:href="#m8ff2271ac4" y="22.796"/>
    </g>
   </g>
   <g id="line2d_25">
    <path clip-path="url(#pcdf8e71ac6)" d="M 213.605719 22.796 
" style="fill:none;stroke:#ff7f0e;stroke-linecap:square;stroke-width:1.5;"/>
    <g clip-path="url(#pcdf8e71ac6)">
     <use style="fill:#ff7f0e;stroke:#ff7f0e;" x="213.605719" xlink:href="#m3d5ec33954" y="22.796"/>
    </g>
   </g>
   <g id="line2d_26">
    <path clip-path="url(#pcdf8e71ac6)" d="M 227.831884 22.796 
" style="fill:none;stroke:#2ca02c;stroke-linecap:square;stroke-width:1.5;"/>
    <g clip-path="url(#pcdf8e71ac6)">
     <use style="fill:#2ca02c;stroke:#2ca02c;" x="227.831884" xlink:href="#mef70c560df" y="22.796"/>
    </g>
   </g>
   <g id="line2d_27">
    <path clip-path="url(#pcdf8e71ac6)" d="M 242.056158 22.796 
" style="fill:none;stroke:#d62728;stroke-linecap:square;stroke-width:1.5;"/>
    <g clip-path="url(#pcdf8e71ac6)">
     <use style="fill:#d62728;stroke:#d62728;" x="242.056158" xlink:href="#m758d6fc081" y="22.796"/>
    </g>
   </g>
   <g id="line2d_28">
    <path clip-path="url(#pcdf8e71ac6)" d="M 256.278584 22.796 
" style="fill:none;stroke:#9467bd;stroke-linecap:square;stroke-width:1.5;"/>
    <g clip-path="url(#pcdf8e71ac6)">
     <use style="fill:#9467bd;stroke:#9467bd;" x="256.278584" xlink:href="#m285e3f2102" y="22.796"/>
    </g>
   </g>
   <g id="line2d_29">
    <path clip-path="url(#pcdf8e71ac6)" d="M 270.499132 22.796 
" style="fill:none;stroke:#8c564b;stroke-linecap:square;stroke-width:1.5;"/>
    <g clip-path="url(#pcdf8e71ac6)">
     <use style="fill:#8c564b;stroke:#8c564b;" x="270.499132" xlink:href="#m923d63f9c7" y="22.796"/>
    </g>
   </g>
   <g id="line2d_30">
    <path clip-path="url(#pcdf8e71ac6)" d="M 284.717991 22.796 
" style="fill:none;stroke:#e377c2;stroke-linecap:square;stroke-width:1.5;"/>
    <g clip-path="url(#pcdf8e71ac6)">
     <use style="fill:#e377c2;stroke:#e377c2;" x="284.717991" xlink:href="#m8a45110e45" y="22.796"/>
    </g>
   </g>
   <g id="line2d_31">
    <path clip-path="url(#pcdf8e71ac6)" d="M 298.934958 22.796 
" style="fill:none;stroke:#7f7f7f;stroke-linecap:square;stroke-width:1.5;"/>
    <g clip-path="url(#pcdf8e71ac6)">
     <use style="fill:#7f7f7f;stroke:#7f7f7f;" x="298.934958" xlink:href="#ma14e6d4593" y="22.796"/>
    </g>
   </g>
   <g id="line2d_32">
    <path clip-path="url(#pcdf8e71ac6)" d="M 313.149826 22.796 
" style="fill:none;stroke:#bcbd22;stroke-linecap:square;stroke-width:1.5;"/>
    <g clip-path="url(#pcdf8e71ac6)">
     <use style="fill:#bcbd22;stroke:#bcbd22;" x="313.149826" xlink:href="#mb55f54dd71" y="22.796"/>
    </g>
   </g>
   <g id="line2d_33">
    <path clip-path="url(#pcdf8e71ac6)" d="M 327.362604 22.796 
" style="fill:none;stroke:#17becf;stroke-linecap:square;stroke-width:1.5;"/>
    <g clip-path="url(#pcdf8e71ac6)">
     <use style="fill:#17becf;stroke:#17becf;" x="327.362604" xlink:href="#mffa6b9aad5" y="22.796"/>
    </g>
   </g>
   <g id="line2d_34">
    <path clip-path="url(#pcdf8e71ac6)" d="M 341.573366 22.796 
" style="fill:none;stroke:#1f77b4;stroke-linecap:square;stroke-width:1.5;"/>
    <g clip-path="url(#pcdf8e71ac6)">
     <use style="fill:#1f77b4;stroke:#1f77b4;" x="341.573366" xlink:href="#m8ff2271ac4" y="22.796"/>
    </g>
   </g>
   <g id="line2d_35">
    <path clip-path="url(#pcdf8e71ac6)" d="M 355.781752 22.796 
" style="fill:none;stroke:#ff7f0e;stroke-linecap:square;stroke-width:1.5;"/>
    <g clip-path="url(#pcdf8e71ac6)">
     <use style="fill:#ff7f0e;stroke:#ff7f0e;" x="355.781752" xlink:href="#m3d5ec33954" y="22.796"/>
    </g>
   </g>
   <g id="line2d_36">
    <path clip-path="url(#pcdf8e71ac6)" d="M 369.988117 22.796 
" style="fill:none;stroke:#2ca02c;stroke-linecap:square;stroke-width:1.5;"/>
    <g clip-path="url(#pcdf8e71ac6)">
     <use style="fill:#2ca02c;stroke:#2ca02c;" x="369.988117" xlink:href="#mef70c560df" y="22.796"/>
    </g>
   </g>
   <g id="line2d_37">
    <path clip-path="url(#pcdf8e71ac6)" d="M 49.520227 148.46 
L 57.016781 22.796 
L 57.016781 264.716 
L 57.088936 260.354853 
L 71.260233 22.796 
L 71.260233 264.716 
L 71.33239 260.310128 
L 85.501072 22.796 
L 85.501072 264.716 
L 85.573227 260.288255 
L 99.740637 22.796 
L 99.740637 264.716 
L 99.812794 260.267122 
L 113.978836 22.796 
L 113.978836 264.716 
L 114.050993 260.244319 
L 128.215698 22.796 
L 128.215698 264.716 
L 128.287855 260.219016 
L 142.451096 22.796 
L 142.451096 264.716 
L 142.523252 260.195564 
L 156.685041 22.796 
L 156.685041 264.716 
L 156.757198 260.170466 
L 170.917501 22.796 
L 170.917501 264.716 
L 170.989658 260.146082 
L 185.148546 22.796 
L 185.148546 264.716 
L 185.220701 260.119673 
L 199.377993 22.796 
L 199.377993 264.716 
L 199.45015 260.091936 
L 213.605719 22.796 
L 213.605719 264.716 
L 213.677876 260.065427 
L 227.831884 22.796 
L 227.831884 264.716 
L 227.904039 260.034198 
L 242.056158 22.796 
L 242.056158 264.716 
L 242.128315 260.002149 
L 256.278584 22.796 
L 256.278584 264.716 
L 256.35074 259.971805 
L 270.499132 22.796 
L 270.499132 264.716 
L 270.571287 259.942017 
L 284.717991 22.796 
L 284.717991 264.716 
L 284.790148 259.90995 
L 298.934958 22.796 
L 298.934958 264.716 
L 299.007114 259.873781 
L 313.149826 22.796 
L 313.149826 264.716 
L 313.221983 259.838295 
L 327.362604 22.796 
L 327.362604 264.716 
L 327.434761 259.806193 
L 341.573366 22.796 
L 341.573366 264.716 
L 341.645523 259.767876 
L 355.781752 22.796 
L 355.781752 264.716 
L 355.853909 259.732828 
L 369.988117 22.796 
L 369.988117 264.716 
L 370.060274 259.692701 
L 374.173203 190.745365 
L 374.173203 190.745365 
" style="fill:none;stroke:#ff0000;stroke-linecap:square;stroke-width:1.5;"/>
   </g>
   <g id="line2d_38">
    <path clip-path="url(#pcdf8e71ac6)" d="M 50.322279 22.796 
" style="fill:none;stroke:#d62728;stroke-linecap:square;stroke-width:1.5;"/>
    <g clip-path="url(#pcdf8e71ac6)">
     <use style="fill:#d62728;stroke:#d62728;" x="50.322279" xlink:href="#m758d6fc081" y="22.796"/>
    </g>
   </g>
   <g id="line2d_39">
    <path clip-path="url(#pcdf8e71ac6)" d="M 64.753731 22.796 
" style="fill:none;stroke:#9467bd;stroke-linecap:square;stroke-width:1.5;"/>
    <g clip-path="url(#pcdf8e71ac6)">
     <use style="fill:#9467bd;stroke:#9467bd;" x="64.753731" xlink:href="#m285e3f2102" y="22.796"/>
    </g>
   </g>
   <g id="line2d_40">
    <path clip-path="url(#pcdf8e71ac6)" d="M 79.08857 22.796 
" style="fill:none;stroke:#8c564b;stroke-linecap:square;stroke-width:1.5;"/>
    <g clip-path="url(#pcdf8e71ac6)">
     <use style="fill:#8c564b;stroke:#8c564b;" x="79.08857" xlink:href="#m923d63f9c7" y="22.796"/>
    </g>
   </g>
   <g id="line2d_41">
    <path clip-path="url(#pcdf8e71ac6)" d="M 93.424416 22.796 
" style="fill:none;stroke:#e377c2;stroke-linecap:square;stroke-width:1.5;"/>
    <g clip-path="url(#pcdf8e71ac6)">
     <use style="fill:#e377c2;stroke:#e377c2;" x="93.424416" xlink:href="#m8a45110e45" y="22.796"/>
    </g>
   </g>
   <g id="line2d_42">
    <path clip-path="url(#pcdf8e71ac6)" d="M 107.76195 22.796 
" style="fill:none;stroke:#7f7f7f;stroke-linecap:square;stroke-width:1.5;"/>
    <g clip-path="url(#pcdf8e71ac6)">
     <use style="fill:#7f7f7f;stroke:#7f7f7f;" x="107.76195" xlink:href="#ma14e6d4593" y="22.796"/>
    </g>
   </g>
   <g id="line2d_43">
    <path clip-path="url(#pcdf8e71ac6)" d="M 122.101 22.796 
" style="fill:none;stroke:#bcbd22;stroke-linecap:square;stroke-width:1.5;"/>
    <g clip-path="url(#pcdf8e71ac6)">
     <use style="fill:#bcbd22;stroke:#bcbd22;" x="122.101" xlink:href="#mb55f54dd71" y="22.796"/>
    </g>
   </g>
   <g id="line2d_44">
    <path clip-path="url(#pcdf8e71ac6)" d="M 136.441769 22.796 
" style="fill:none;stroke:#17becf;stroke-linecap:square;stroke-width:1.5;"/>
    <g clip-path="url(#pcdf8e71ac6)">
     <use style="fill:#17becf;stroke:#17becf;" x="136.441769" xlink:href="#mffa6b9aad5" y="22.796"/>
    </g>
   </g>
   <g id="line2d_45">
    <path clip-path="url(#pcdf8e71ac6)" d="M 150.784222 22.796 
" style="fill:none;stroke:#1f77b4;stroke-linecap:square;stroke-width:1.5;"/>
    <g clip-path="url(#pcdf8e71ac6)">
     <use style="fill:#1f77b4;stroke:#1f77b4;" x="150.784222" xlink:href="#m8ff2271ac4" y="22.796"/>
    </g>
   </g>
   <g id="line2d_46">
    <path clip-path="url(#pcdf8e71ac6)" d="M 165.128464 22.796 
" style="fill:none;stroke:#ff7f0e;stroke-linecap:square;stroke-width:1.5;"/>
    <g clip-path="url(#pcdf8e71ac6)">
     <use style="fill:#ff7f0e;stroke:#ff7f0e;" x="165.128464" xlink:href="#m3d5ec33954" y="22.796"/>
    </g>
   </g>
   <g id="line2d_47">
    <path clip-path="url(#pcdf8e71ac6)" d="M 179.474457 22.796 
" style="fill:none;stroke:#2ca02c;stroke-linecap:square;stroke-width:1.5;"/>
    <g clip-path="url(#pcdf8e71ac6)">
     <use style="fill:#2ca02c;stroke:#2ca02c;" x="179.474457" xlink:href="#mef70c560df" y="22.796"/>
    </g>
   </g>
   <g id="line2d_48">
    <path clip-path="url(#pcdf8e71ac6)" d="M 193.82238 22.796 
" style="fill:none;stroke:#d62728;stroke-linecap:square;stroke-width:1.5;"/>
    <g clip-path="url(#pcdf8e71ac6)">
     <use style="fill:#d62728;stroke:#d62728;" x="193.82238" xlink:href="#m758d6fc081" y="22.796"/>
    </g>
   </g>
   <g id="line2d_49">
    <path clip-path="url(#pcdf8e71ac6)" d="M 208.172197 22.796 
" style="fill:none;stroke:#9467bd;stroke-linecap:square;stroke-width:1.5;"/>
    <g clip-path="url(#pcdf8e71ac6)">
     <use style="fill:#9467bd;stroke:#9467bd;" x="208.172197" xlink:href="#m285e3f2102" y="22.796"/>
    </g>
   </g>
   <g id="line2d_50">
    <path clip-path="url(#pcdf8e71ac6)" d="M 222.523989 22.796 
" style="fill:none;stroke:#8c564b;stroke-linecap:square;stroke-width:1.5;"/>
    <g clip-path="url(#pcdf8e71ac6)">
     <use style="fill:#8c564b;stroke:#8c564b;" x="222.523989" xlink:href="#m923d63f9c7" y="22.796"/>
    </g>
   </g>
   <g id="line2d_51">
    <path clip-path="url(#pcdf8e71ac6)" d="M 236.877975 22.796 
" style="fill:none;stroke:#e377c2;stroke-linecap:square;stroke-width:1.5;"/>
    <g clip-path="url(#pcdf8e71ac6)">
     <use style="fill:#e377c2;stroke:#e377c2;" x="236.877975" xlink:href="#m8a45110e45" y="22.796"/>
    </g>
   </g>
   <g id="line2d_52">
    <path clip-path="url(#pcdf8e71ac6)" d="M 251.233881 22.796 
" style="fill:none;stroke:#7f7f7f;stroke-linecap:square;stroke-width:1.5;"/>
    <g clip-path="url(#pcdf8e71ac6)">
     <use style="fill:#7f7f7f;stroke:#7f7f7f;" x="251.233881" xlink:href="#ma14e6d4593" y="22.796"/>
    </g>
   </g>
   <g id="line2d_53">
    <path clip-path="url(#pcdf8e71ac6)" d="M 265.591917 22.796 
" style="fill:none;stroke:#bcbd22;stroke-linecap:square;stroke-width:1.5;"/>
    <g clip-path="url(#pcdf8e71ac6)">
     <use style="fill:#bcbd22;stroke:#bcbd22;" x="265.591917" xlink:href="#mb55f54dd71" y="22.796"/>
    </g>
   </g>
   <g id="line2d_54">
    <path clip-path="url(#pcdf8e71ac6)" d="M 279.952183 22.796 
" style="fill:none;stroke:#17becf;stroke-linecap:square;stroke-width:1.5;"/>
    <g clip-path="url(#pcdf8e71ac6)">
     <use style="fill:#17becf;stroke:#17becf;" x="279.952183" xlink:href="#mffa6b9aad5" y="22.796"/>
    </g>
   </g>
   <g id="line2d_55">
    <path clip-path="url(#pcdf8e71ac6)" d="M 294.314852 22.796 
" style="fill:none;stroke:#1f77b4;stroke-linecap:square;stroke-width:1.5;"/>
    <g clip-path="url(#pcdf8e71ac6)">
     <use style="fill:#1f77b4;stroke:#1f77b4;" x="294.314852" xlink:href="#m8ff2271ac4" y="22.796"/>
    </g>
   </g>
   <g id="line2d_56">
    <path clip-path="url(#pcdf8e71ac6)" d="M 308.680029 22.796 
" style="fill:none;stroke:#ff7f0e;stroke-linecap:square;stroke-width:1.5;"/>
    <g clip-path="url(#pcdf8e71ac6)">
     <use style="fill:#ff7f0e;stroke:#ff7f0e;" x="308.680029" xlink:href="#m3d5ec33954" y="22.796"/>
    </g>
   </g>
   <g id="line2d_57">
    <path clip-path="url(#pcdf8e71ac6)" d="M 323.047503 22.796 
" style="fill:none;stroke:#2ca02c;stroke-linecap:square;stroke-width:1.5;"/>
    <g clip-path="url(#pcdf8e71ac6)">
     <use style="fill:#2ca02c;stroke:#2ca02c;" x="323.047503" xlink:href="#mef70c560df" y="22.796"/>
    </g>
   </g>
   <g id="line2d_58">
    <path clip-path="url(#pcdf8e71ac6)" d="M 337.417538 22.796 
" style="fill:none;stroke:#d62728;stroke-linecap:square;stroke-width:1.5;"/>
    <g clip-path="url(#pcdf8e71ac6)">
     <use style="fill:#d62728;stroke:#d62728;" x="337.417538" xlink:href="#m758d6fc081" y="22.796"/>
    </g>
   </g>
   <g id="line2d_59">
    <path clip-path="url(#pcdf8e71ac6)" d="M 351.790108 22.796 
" style="fill:none;stroke:#9467bd;stroke-linecap:square;stroke-width:1.5;"/>
    <g clip-path="url(#pcdf8e71ac6)">
     <use style="fill:#9467bd;stroke:#9467bd;" x="351.790108" xlink:href="#m285e3f2102" y="22.796"/>
    </g>
   </g>
   <g id="line2d_60">
    <path clip-path="url(#pcdf8e71ac6)" d="M 366.165386 22.796 
" style="fill:none;stroke:#8c564b;stroke-linecap:square;stroke-width:1.5;"/>
    <g clip-path="url(#pcdf8e71ac6)">
     <use style="fill:#8c564b;stroke:#8c564b;" x="366.165386" xlink:href="#m923d63f9c7" y="22.796"/>
    </g>
   </g>
   <g id="line2d_61">
    <path clip-path="url(#pcdf8e71ac6)" d="M 49.520227 36.236 
L 50.322279 22.796 
L 50.322279 264.716 
L 50.394436 263.506026 
L 64.753731 22.796 
L 64.753731 264.716 
L 64.825888 261.887224 
L 79.08857 22.796 
L 79.08857 264.716 
L 79.160727 261.903362 
L 93.424416 22.796 
L 93.424416 264.716 
L 93.496572 261.930132 
L 107.76195 22.796 
L 107.76195 264.716 
L 107.834106 261.955959 
L 122.101 22.796 
L 122.101 264.716 
L 122.173157 261.987038 
L 136.441769 22.796 
L 136.441769 264.716 
L 136.513926 262.015038 
L 150.784222 22.796 
L 150.784222 264.716 
L 150.856377 262.044215 
L 165.128464 22.796 
L 165.128464 264.716 
L 165.200621 262.073137 
L 179.474457 22.796 
L 179.474457 264.716 
L 179.546614 262.107259 
L 193.82238 22.796 
L 193.82238 264.716 
L 193.894535 262.1362 
L 208.172197 22.796 
L 208.172197 264.716 
L 208.244354 262.170448 
L 222.523989 22.796 
L 222.523989 264.716 
L 222.596146 262.206216 
L 236.877975 22.796 
L 236.877975 264.716 
L 236.950132 262.23823 
L 251.233881 22.796 
L 251.233881 264.716 
L 251.306038 262.2765 
L 265.591917 22.796 
L 265.591917 264.716 
L 265.664074 262.31243 
L 279.952183 22.796 
L 279.952183 264.716 
L 280.02434 262.352472 
L 294.314852 22.796 
L 294.314852 264.716 
L 294.387009 262.395091 
L 308.680029 22.796 
L 308.680029 264.716 
L 308.752186 262.43223 
L 323.047503 22.796 
L 323.047503 264.716 
L 323.119659 262.476851 
L 337.417538 22.796 
L 337.417538 264.716 
L 337.489695 262.51855 
L 351.790108 22.796 
L 351.790108 264.716 
L 351.862265 262.565719 
L 366.165386 22.796 
L 366.165386 264.716 
L 366.237543 262.612157 
L 374.174772 129.555217 
L 374.174772 129.555217 
" style="fill:none;stroke:#0000ff;stroke-linecap:square;stroke-width:1.5;"/>
   </g>
   <g id="line2d_62">
    <path clip-path="url(#pcdf8e71ac6)" d="M 53.128399 22.796 
" style="fill:none;stroke:#e377c2;stroke-linecap:square;stroke-width:1.5;"/>
    <g clip-path="url(#pcdf8e71ac6)">
     <use style="fill:#e377c2;stroke:#e377c2;" x="53.128399" xlink:href="#m8a45110e45" y="22.796"/>
    </g>
   </g>
   <g id="line2d_63">
    <path clip-path="url(#pcdf8e71ac6)" d="M 67.443552 22.796 
" style="fill:none;stroke:#7f7f7f;stroke-linecap:square;stroke-width:1.5;"/>
    <g clip-path="url(#pcdf8e71ac6)">
     <use style="fill:#7f7f7f;stroke:#7f7f7f;" x="67.443552" xlink:href="#ma14e6d4593" y="22.796"/>
    </g>
   </g>
   <g id="line2d_64">
    <path clip-path="url(#pcdf8e71ac6)" d="M 81.718998 22.796 
" style="fill:none;stroke:#bcbd22;stroke-linecap:square;stroke-width:1.5;"/>
    <g clip-path="url(#pcdf8e71ac6)">
     <use style="fill:#bcbd22;stroke:#bcbd22;" x="81.718998" xlink:href="#mb55f54dd71" y="22.796"/>
    </g>
   </g>
   <g id="line2d_65">
    <path clip-path="url(#pcdf8e71ac6)" d="M 95.994043 22.796 
" style="fill:none;stroke:#17becf;stroke-linecap:square;stroke-width:1.5;"/>
    <g clip-path="url(#pcdf8e71ac6)">
     <use style="fill:#17becf;stroke:#17becf;" x="95.994043" xlink:href="#mffa6b9aad5" y="22.796"/>
    </g>
   </g>
   <g id="line2d_66">
    <path clip-path="url(#pcdf8e71ac6)" d="M 110.268873 22.796 
" style="fill:none;stroke:#1f77b4;stroke-linecap:square;stroke-width:1.5;"/>
    <g clip-path="url(#pcdf8e71ac6)">
     <use style="fill:#1f77b4;stroke:#1f77b4;" x="110.268873" xlink:href="#m8ff2271ac4" y="22.796"/>
    </g>
   </g>
   <g id="line2d_67">
    <path clip-path="url(#pcdf8e71ac6)" d="M 124.543623 22.796 
" style="fill:none;stroke:#ff7f0e;stroke-linecap:square;stroke-width:1.5;"/>
    <g clip-path="url(#pcdf8e71ac6)">
     <use style="fill:#ff7f0e;stroke:#ff7f0e;" x="124.543623" xlink:href="#m3d5ec33954" y="22.796"/>
    </g>
   </g>
   <g id="line2d_68">
    <path clip-path="url(#pcdf8e71ac6)" d="M 138.817871 22.796 
" style="fill:none;stroke:#2ca02c;stroke-linecap:square;stroke-width:1.5;"/>
    <g clip-path="url(#pcdf8e71ac6)">
     <use style="fill:#2ca02c;stroke:#2ca02c;" x="138.817871" xlink:href="#mef70c560df" y="22.796"/>
    </g>
   </g>
   <g id="line2d_69">
    <path clip-path="url(#pcdf8e71ac6)" d="M 153.091942 22.796 
" style="fill:none;stroke:#d62728;stroke-linecap:square;stroke-width:1.5;"/>
    <g clip-path="url(#pcdf8e71ac6)">
     <use style="fill:#d62728;stroke:#d62728;" x="153.091942" xlink:href="#m758d6fc081" y="22.796"/>
    </g>
   </g>
   <g id="line2d_70">
    <path clip-path="url(#pcdf8e71ac6)" d="M 167.365715 22.796 
" style="fill:none;stroke:#9467bd;stroke-linecap:square;stroke-width:1.5;"/>
    <g clip-path="url(#pcdf8e71ac6)">
     <use style="fill:#9467bd;stroke:#9467bd;" x="167.365715" xlink:href="#m285e3f2102" y="22.796"/>
    </g>
   </g>
   <g id="line2d_71">
    <path clip-path="url(#pcdf8e71ac6)" d="M 181.639002 22.796 
" style="fill:none;stroke:#8c564b;stroke-linecap:square;stroke-width:1.5;"/>
    <g clip-path="url(#pcdf8e71ac6)">
     <use style="fill:#8c564b;stroke:#8c564b;" x="181.639002" xlink:href="#m923d63f9c7" y="22.796"/>
    </g>
   </g>
   <g id="line2d_72">
    <path clip-path="url(#pcdf8e71ac6)" d="M 195.912107 22.796 
" style="fill:none;stroke:#e377c2;stroke-linecap:square;stroke-width:1.5;"/>
    <g clip-path="url(#pcdf8e71ac6)">
     <use style="fill:#e377c2;stroke:#e377c2;" x="195.912107" xlink:href="#m8a45110e45" y="22.796"/>
    </g>
   </g>
   <g id="line2d_73">
    <path clip-path="url(#pcdf8e71ac6)" d="M 210.184929 22.796 
" style="fill:none;stroke:#7f7f7f;stroke-linecap:square;stroke-width:1.5;"/>
    <g clip-path="url(#pcdf8e71ac6)">
     <use style="fill:#7f7f7f;stroke:#7f7f7f;" x="210.184929" xlink:href="#ma14e6d4593" y="22.796"/>
    </g>
   </g>
   <g id="line2d_74">
    <path clip-path="url(#pcdf8e71ac6)" d="M 224.457424 22.796 
" style="fill:none;stroke:#bcbd22;stroke-linecap:square;stroke-width:1.5;"/>
    <g clip-path="url(#pcdf8e71ac6)">
     <use style="fill:#bcbd22;stroke:#bcbd22;" x="224.457424" xlink:href="#mb55f54dd71" y="22.796"/>
    </g>
   </g>
   <g id="line2d_75">
    <path clip-path="url(#pcdf8e71ac6)" d="M 238.72942 22.796 
" style="fill:none;stroke:#17becf;stroke-linecap:square;stroke-width:1.5;"/>
    <g clip-path="url(#pcdf8e71ac6)">
     <use style="fill:#17becf;stroke:#17becf;" x="238.72942" xlink:href="#mffa6b9aad5" y="22.796"/>
    </g>
   </g>
   <g id="line2d_76">
    <path clip-path="url(#pcdf8e71ac6)" d="M 253.001007 22.796 
" style="fill:none;stroke:#1f77b4;stroke-linecap:square;stroke-width:1.5;"/>
    <g clip-path="url(#pcdf8e71ac6)">
     <use style="fill:#1f77b4;stroke:#1f77b4;" x="253.001007" xlink:href="#m8ff2271ac4" y="22.796"/>
    </g>
   </g>
   <g id="line2d_77">
    <path clip-path="url(#pcdf8e71ac6)" d="M 267.272409 22.796 
" style="fill:none;stroke:#ff7f0e;stroke-linecap:square;stroke-width:1.5;"/>
    <g clip-path="url(#pcdf8e71ac6)">
     <use style="fill:#ff7f0e;stroke:#ff7f0e;" x="267.272409" xlink:href="#m3d5ec33954" y="22.796"/>
    </g>
   </g>
   <g id="line2d_78">
    <path clip-path="url(#pcdf8e71ac6)" d="M 281.543406 22.796 
" style="fill:none;stroke:#2ca02c;stroke-linecap:square;stroke-width:1.5;"/>
    <g clip-path="url(#pcdf8e71ac6)">
     <use style="fill:#2ca02c;stroke:#2ca02c;" x="281.543406" xlink:href="#mef70c560df" y="22.796"/>
    </g>
   </g>
   <g id="line2d_79">
    <path clip-path="url(#pcdf8e71ac6)" d="M 295.814028 22.796 
" style="fill:none;stroke:#d62728;stroke-linecap:square;stroke-width:1.5;"/>
    <g clip-path="url(#pcdf8e71ac6)">
     <use style="fill:#d62728;stroke:#d62728;" x="295.814028" xlink:href="#m758d6fc081" y="22.796"/>
    </g>
   </g>
   <g id="line2d_80">
    <path clip-path="url(#pcdf8e71ac6)" d="M 310.084229 22.796 
" style="fill:none;stroke:#9467bd;stroke-linecap:square;stroke-width:1.5;"/>
    <g clip-path="url(#pcdf8e71ac6)">
     <use style="fill:#9467bd;stroke:#9467bd;" x="310.084229" xlink:href="#m285e3f2102" y="22.796"/>
    </g>
   </g>
   <g id="line2d_81">
    <path clip-path="url(#pcdf8e71ac6)" d="M 324.353956 22.796 
" style="fill:none;stroke:#8c564b;stroke-linecap:square;stroke-width:1.5;"/>
    <g clip-path="url(#pcdf8e71ac6)">
     <use style="fill:#8c564b;stroke:#8c564b;" x="324.353956" xlink:href="#m923d63f9c7" y="22.796"/>
    </g>
   </g>
   <g id="line2d_82">
    <path clip-path="url(#pcdf8e71ac6)" d="M 338.623224 22.796 
" style="fill:none;stroke:#e377c2;stroke-linecap:square;stroke-width:1.5;"/>
    <g clip-path="url(#pcdf8e71ac6)">
     <use style="fill:#e377c2;stroke:#e377c2;" x="338.623224" xlink:href="#m8a45110e45" y="22.796"/>
    </g>
   </g>
   <g id="line2d_83">
    <path clip-path="url(#pcdf8e71ac6)" d="M 352.892153 22.796 
" style="fill:none;stroke:#7f7f7f;stroke-linecap:square;stroke-width:1.5;"/>
    <g clip-path="url(#pcdf8e71ac6)">
     <use style="fill:#7f7f7f;stroke:#7f7f7f;" x="352.892153" xlink:href="#ma14e6d4593" y="22.796"/>
    </g>
   </g>
   <g id="line2d_84">
    <path clip-path="url(#pcdf8e71ac6)" d="M 367.160601 22.796 
" style="fill:none;stroke:#bcbd22;stroke-linecap:square;stroke-width:1.5;"/>
    <g clip-path="url(#pcdf8e71ac6)">
     <use style="fill:#bcbd22;stroke:#bcbd22;" x="367.160601" xlink:href="#mb55f54dd71" y="22.796"/>
    </g>
   </g>
   <g id="line2d_85">
    <path clip-path="url(#pcdf8e71ac6)" d="M 49.520227 83.276 
L 53.128399 22.796 
L 53.128399 264.716 
L 53.200556 261.556796 
L 67.443552 22.796 
L 67.443552 264.716 
L 67.515709 260.889563 
L 81.718998 22.796 
L 81.718998 264.716 
L 81.791155 260.884313 
L 95.994043 22.796 
L 95.994043 264.716 
L 96.0662 260.881626 
L 110.268873 22.796 
L 110.268873 264.716 
L 110.34103 260.87731 
L 124.543623 22.796 
L 124.543623 264.716 
L 124.61578 260.872803 
L 138.817871 22.796 
L 138.817871 264.716 
L 138.890028 260.865815 
L 153.091942 22.796 
L 153.091942 264.716 
L 153.164099 260.860873 
L 167.365715 22.796 
L 167.365715 264.716 
L 167.437872 260.854312 
L 181.639002 22.796 
L 181.639002 264.716 
L 181.711159 260.849013 
L 195.912107 22.796 
L 195.912107 264.716 
L 195.984264 260.846116 
L 210.184929 22.796 
L 210.184929 264.716 
L 210.257086 260.840203 
L 224.457424 22.796 
L 224.457424 264.716 
L 224.529581 260.833778 
L 238.72942 22.796 
L 238.72942 264.716 
L 238.801577 260.827839 
L 253.001007 22.796 
L 253.001007 264.716 
L 253.073164 260.822683 
L 267.272409 22.796 
L 267.272409 264.716 
L 267.344564 260.816254 
L 281.543406 22.796 
L 281.543406 264.716 
L 281.615562 260.808832 
L 295.814028 22.796 
L 295.814028 264.716 
L 295.886185 260.801201 
L 310.084229 22.796 
L 310.084229 264.716 
L 310.156385 260.793158 
L 324.353956 22.796 
L 324.353956 264.716 
L 324.426113 260.788259 
L 338.623224 22.796 
L 338.623224 264.716 
L 338.695381 260.781113 
L 352.892153 22.796 
L 352.892153 264.716 
L 352.96431 260.775087 
L 367.160601 22.796 
L 367.160601 264.716 
L 367.232758 260.765756 
L 374.159796 144.644498 
L 374.159796 144.644498 
" style="fill:none;stroke:#008000;stroke-linecap:square;stroke-width:1.5;"/>
   </g>
   <g id="patch_3">
    <path d="M 33.2875 276.812 
L 33.2875 10.7 
" style="fill:none;stroke:#000000;stroke-linecap:square;stroke-linejoin:miter;stroke-width:0.8;"/>
   </g>
   <g id="patch_4">
    <path d="M 390.4075 276.812 
L 390.4075 10.7 
" style="fill:none;stroke:#000000;stroke-linecap:square;stroke-linejoin:miter;stroke-width:0.8;"/>
   </g>
   <g id="patch_5">
    <path d="M 33.2875 276.812 
L 390.407499 276.812 
" style="fill:none;stroke:#000000;stroke-linecap:square;stroke-linejoin:miter;stroke-width:0.8;"/>
   </g>
   <g id="patch_6">
    <path d="M 33.2875 10.7 
L 390.407499 10.7 
" style="fill:none;stroke:#000000;stroke-linecap:square;stroke-linejoin:miter;stroke-width:0.8;"/>
   </g>
  </g>
 </g>
 <defs>
  <clipPath id="pcdf8e71ac6">
   <rect height="266.112" width="357.12" x="33.2875" y="10.7"/>
  </clipPath>
 </defs>
</svg>
