<?xml version="1.0" encoding="utf-8" standalone="no"?>
<!DOCTYPE svg PUBLIC "-//W3C//DTD SVG 1.1//EN"
  "http://www.w3.org/Graphics/SVG/1.1/DTD/svg11.dtd">
<!-- Created with matplotlib (https://matplotlib.org/) -->
<svg height="313.36825pt" version="1.1" viewBox="0 0 401.1075 313.36825" width="401.1075pt" xmlns="http://www.w3.org/2000/svg" xmlns:xlink="http://www.w3.org/1999/xlink">
 <defs>
  <style type="text/css">
*{stroke-linecap:butt;stroke-linejoin:round;}
  </style>
 </defs>
 <g id="figure_1">
  <g id="patch_1">
   <path d="M 0 313.36825 
L 401.1075 313.36825 
L 401.1075 0 
L 0 0 
z
" style="fill:#ffffff;"/>
  </g>
  <g id="axes_1">
   <g id="patch_2">
    <path d="M 33.2875 276.812 
L 390.4075 276.812 
L 390.4075 10.7 
L 33.2875 10.7 
z
" style="fill:#ffffff;"/>
   </g>
   <g id="matplotlib.axis_1">
    <g id="xtick_1">
     <g id="line2d_1">
      <defs>
       <path d="M 0 0 
L 0 3.5 
" id="m31f6f4701a" style="stroke:#000000;stroke-width:0.8;"/>
      </defs>
      <g>
       <use style="stroke:#000000;stroke-width:0.8;" x="85.599829" xlink:href="#m31f6f4701a" y="276.812"/>
      </g>
     </g>
     <g id="text_1">
      <!-- 20 -->
      <defs>
       <path d="M 19.1875 8.296875 
L 53.609375 8.296875 
L 53.609375 0 
L 7.328125 0 
L 7.328125 8.296875 
Q 12.9375 14.109375 22.625 23.890625 
Q 32.328125 33.6875 34.8125 36.53125 
Q 39.546875 41.84375 41.421875 45.53125 
Q 43.3125 49.21875 43.3125 52.78125 
Q 43.3125 58.59375 39.234375 62.25 
Q 35.15625 65.921875 28.609375 65.921875 
Q 23.96875 65.921875 18.8125 64.3125 
Q 13.671875 62.703125 7.8125 59.421875 
L 7.8125 69.390625 
Q 13.765625 71.78125 18.9375 73 
Q 24.125 74.21875 28.421875 74.21875 
Q 39.75 74.21875 46.484375 68.546875 
Q 53.21875 62.890625 53.21875 53.421875 
Q 53.21875 48.921875 51.53125 44.890625 
Q 49.859375 40.875 45.40625 35.40625 
Q 44.1875 33.984375 37.640625 27.21875 
Q 31.109375 20.453125 19.1875 8.296875 
z
" id="DejaVuSans-50"/>
       <path d="M 31.78125 66.40625 
Q 24.171875 66.40625 20.328125 58.90625 
Q 16.5 51.421875 16.5 36.375 
Q 16.5 21.390625 20.328125 13.890625 
Q 24.171875 6.390625 31.78125 6.390625 
Q 39.453125 6.390625 43.28125 13.890625 
Q 47.125 21.390625 47.125 36.375 
Q 47.125 51.421875 43.28125 58.90625 
Q 39.453125 66.40625 31.78125 66.40625 
z
M 31.78125 74.21875 
Q 44.046875 74.21875 50.515625 64.515625 
Q 56.984375 54.828125 56.984375 36.375 
Q 56.984375 17.96875 50.515625 8.265625 
Q 44.046875 -1.421875 31.78125 -1.421875 
Q 19.53125 -1.421875 13.0625 8.265625 
Q 6.59375 17.96875 6.59375 36.375 
Q 6.59375 54.828125 13.0625 64.515625 
Q 19.53125 74.21875 31.78125 74.21875 
z
" id="DejaVuSans-48"/>
      </defs>
      <g transform="translate(79.237329 291.410437)scale(0.1 -0.1)">
       <use xlink:href="#DejaVuSans-50"/>
       <use x="63.623047" xlink:href="#DejaVuSans-48"/>
      </g>
     </g>
    </g>
    <g id="xtick_2">
     <g id="line2d_2">
      <g>
       <use style="stroke:#000000;stroke-width:0.8;" x="157.759035" xlink:href="#m31f6f4701a" y="276.812"/>
      </g>
     </g>
     <g id="text_2">
      <!-- 30 -->
      <defs>
       <path d="M 40.578125 39.3125 
Q 47.65625 37.796875 51.625 33 
Q 55.609375 28.21875 55.609375 21.1875 
Q 55.609375 10.40625 48.1875 4.484375 
Q 40.765625 -1.421875 27.09375 -1.421875 
Q 22.515625 -1.421875 17.65625 -0.515625 
Q 12.796875 0.390625 7.625 2.203125 
L 7.625 11.71875 
Q 11.71875 9.328125 16.59375 8.109375 
Q 21.484375 6.890625 26.8125 6.890625 
Q 36.078125 6.890625 40.9375 10.546875 
Q 45.796875 14.203125 45.796875 21.1875 
Q 45.796875 27.640625 41.28125 31.265625 
Q 36.765625 34.90625 28.71875 34.90625 
L 20.21875 34.90625 
L 20.21875 43.015625 
L 29.109375 43.015625 
Q 36.375 43.015625 40.234375 45.921875 
Q 44.09375 48.828125 44.09375 54.296875 
Q 44.09375 59.90625 40.109375 62.90625 
Q 36.140625 65.921875 28.71875 65.921875 
Q 24.65625 65.921875 20.015625 65.03125 
Q 15.375 64.15625 9.8125 62.3125 
L 9.8125 71.09375 
Q 15.4375 72.65625 20.34375 73.4375 
Q 25.25 74.21875 29.59375 74.21875 
Q 40.828125 74.21875 47.359375 69.109375 
Q 53.90625 64.015625 53.90625 55.328125 
Q 53.90625 49.265625 50.4375 45.09375 
Q 46.96875 40.921875 40.578125 39.3125 
z
" id="DejaVuSans-51"/>
      </defs>
      <g transform="translate(151.396535 291.410437)scale(0.1 -0.1)">
       <use xlink:href="#DejaVuSans-51"/>
       <use x="63.623047" xlink:href="#DejaVuSans-48"/>
      </g>
     </g>
    </g>
    <g id="xtick_3">
     <g id="line2d_3">
      <g>
       <use style="stroke:#000000;stroke-width:0.8;" x="229.91824" xlink:href="#m31f6f4701a" y="276.812"/>
      </g>
     </g>
     <g id="text_3">
      <!-- 40 -->
      <defs>
       <path d="M 37.796875 64.3125 
L 12.890625 25.390625 
L 37.796875 25.390625 
z
M 35.203125 72.90625 
L 47.609375 72.90625 
L 47.609375 25.390625 
L 58.015625 25.390625 
L 58.015625 17.1875 
L 47.609375 17.1875 
L 47.609375 0 
L 37.796875 0 
L 37.796875 17.1875 
L 4.890625 17.1875 
L 4.890625 26.703125 
z
" id="DejaVuSans-52"/>
      </defs>
      <g transform="translate(223.55574 291.410437)scale(0.1 -0.1)">
       <use xlink:href="#DejaVuSans-52"/>
       <use x="63.623047" xlink:href="#DejaVuSans-48"/>
      </g>
     </g>
    </g>
    <g id="xtick_4">
     <g id="line2d_4">
      <g>
       <use style="stroke:#000000;stroke-width:0.8;" x="302.077444" xlink:href="#m31f6f4701a" y="276.812"/>
      </g>
     </g>
     <g id="text_4">
      <!-- 50 -->
      <defs>
       <path d="M 10.796875 72.90625 
L 49.515625 72.90625 
L 49.515625 64.59375 
L 19.828125 64.59375 
L 19.828125 46.734375 
Q 21.96875 47.46875 24.109375 47.828125 
Q 26.265625 48.1875 28.421875 48.1875 
Q 40.625 48.1875 47.75 41.5 
Q 54.890625 34.8125 54.890625 23.390625 
Q 54.890625 11.625 47.5625 5.09375 
Q 40.234375 -1.421875 26.90625 -1.421875 
Q 22.3125 -1.421875 17.546875 -0.640625 
Q 12.796875 0.140625 7.71875 1.703125 
L 7.71875 11.625 
Q 12.109375 9.234375 16.796875 8.0625 
Q 21.484375 6.890625 26.703125 6.890625 
Q 35.15625 6.890625 40.078125 11.328125 
Q 45.015625 15.765625 45.015625 23.390625 
Q 45.015625 31 40.078125 35.4375 
Q 35.15625 39.890625 26.703125 39.890625 
Q 22.75 39.890625 18.8125 39.015625 
Q 14.890625 38.140625 10.796875 36.28125 
z
" id="DejaVuSans-53"/>
      </defs>
      <g transform="translate(295.714944 291.410437)scale(0.1 -0.1)">
       <use xlink:href="#DejaVuSans-53"/>
       <use x="63.623047" xlink:href="#DejaVuSans-48"/>
      </g>
     </g>
    </g>
    <g id="xtick_5">
     <g id="line2d_5">
      <g>
       <use style="stroke:#000000;stroke-width:0.8;" x="374.236649" xlink:href="#m31f6f4701a" y="276.812"/>
      </g>
     </g>
     <g id="text_5">
      <!-- 60 -->
      <defs>
       <path d="M 33.015625 40.375 
Q 26.375 40.375 22.484375 35.828125 
Q 18.609375 31.296875 18.609375 23.390625 
Q 18.609375 15.53125 22.484375 10.953125 
Q 26.375 6.390625 33.015625 6.390625 
Q 39.65625 6.390625 43.53125 10.953125 
Q 47.40625 15.53125 47.40625 23.390625 
Q 47.40625 31.296875 43.53125 35.828125 
Q 39.65625 40.375 33.015625 40.375 
z
M 52.59375 71.296875 
L 52.59375 62.3125 
Q 48.875 64.0625 45.09375 64.984375 
Q 41.3125 65.921875 37.59375 65.921875 
Q 27.828125 65.921875 22.671875 59.328125 
Q 17.53125 52.734375 16.796875 39.40625 
Q 19.671875 43.65625 24.015625 45.921875 
Q 28.375 48.1875 33.59375 48.1875 
Q 44.578125 48.1875 50.953125 41.515625 
Q 57.328125 34.859375 57.328125 23.390625 
Q 57.328125 12.15625 50.6875 5.359375 
Q 44.046875 -1.421875 33.015625 -1.421875 
Q 20.359375 -1.421875 13.671875 8.265625 
Q 6.984375 17.96875 6.984375 36.375 
Q 6.984375 53.65625 15.1875 63.9375 
Q 23.390625 74.21875 37.203125 74.21875 
Q 40.921875 74.21875 44.703125 73.484375 
Q 48.484375 72.75 52.59375 71.296875 
z
" id="DejaVuSans-54"/>
      </defs>
      <g transform="translate(367.874149 291.410437)scale(0.1 -0.1)">
       <use xlink:href="#DejaVuSans-54"/>
       <use x="63.623047" xlink:href="#DejaVuSans-48"/>
      </g>
     </g>
    </g>
    <g id="text_6">
     <!-- +1.5961755e9 -->
     <defs>
      <path d="M 46 62.703125 
L 46 35.5 
L 73.1875 35.5 
L 73.1875 27.203125 
L 46 27.203125 
L 46 0 
L 37.796875 0 
L 37.796875 27.203125 
L 10.59375 27.203125 
L 10.59375 35.5 
L 37.796875 35.5 
L 37.796875 62.703125 
z
" id="DejaVuSans-43"/>
      <path d="M 12.40625 8.296875 
L 28.515625 8.296875 
L 28.515625 63.921875 
L 10.984375 60.40625 
L 10.984375 69.390625 
L 28.421875 72.90625 
L 38.28125 72.90625 
L 38.28125 8.296875 
L 54.390625 8.296875 
L 54.390625 0 
L 12.40625 0 
z
" id="DejaVuSans-49"/>
      <path d="M 10.6875 12.40625 
L 21 12.40625 
L 21 0 
L 10.6875 0 
z
" id="DejaVuSans-46"/>
      <path d="M 10.984375 1.515625 
L 10.984375 10.5 
Q 14.703125 8.734375 18.5 7.8125 
Q 22.3125 6.890625 25.984375 6.890625 
Q 35.75 6.890625 40.890625 13.453125 
Q 46.046875 20.015625 46.78125 33.40625 
Q 43.953125 29.203125 39.59375 26.953125 
Q 35.25 24.703125 29.984375 24.703125 
Q 19.046875 24.703125 12.671875 31.3125 
Q 6.296875 37.9375 6.296875 49.421875 
Q 6.296875 60.640625 12.9375 67.421875 
Q 19.578125 74.21875 30.609375 74.21875 
Q 43.265625 74.21875 49.921875 64.515625 
Q 56.59375 54.828125 56.59375 36.375 
Q 56.59375 19.140625 48.40625 8.859375 
Q 40.234375 -1.421875 26.421875 -1.421875 
Q 22.703125 -1.421875 18.890625 -0.6875 
Q 15.09375 0.046875 10.984375 1.515625 
z
M 30.609375 32.421875 
Q 37.25 32.421875 41.125 36.953125 
Q 45.015625 41.5 45.015625 49.421875 
Q 45.015625 57.28125 41.125 61.84375 
Q 37.25 66.40625 30.609375 66.40625 
Q 23.96875 66.40625 20.09375 61.84375 
Q 16.21875 57.28125 16.21875 49.421875 
Q 16.21875 41.5 20.09375 36.953125 
Q 23.96875 32.421875 30.609375 32.421875 
z
" id="DejaVuSans-57"/>
      <path d="M 8.203125 72.90625 
L 55.078125 72.90625 
L 55.078125 68.703125 
L 28.609375 0 
L 18.3125 0 
L 43.21875 64.59375 
L 8.203125 64.59375 
z
" id="DejaVuSans-55"/>
      <path d="M 56.203125 29.59375 
L 56.203125 25.203125 
L 14.890625 25.203125 
Q 15.484375 15.921875 20.484375 11.0625 
Q 25.484375 6.203125 34.421875 6.203125 
Q 39.59375 6.203125 44.453125 7.46875 
Q 49.3125 8.734375 54.109375 11.28125 
L 54.109375 2.78125 
Q 49.265625 0.734375 44.1875 -0.34375 
Q 39.109375 -1.421875 33.890625 -1.421875 
Q 20.796875 -1.421875 13.15625 6.1875 
Q 5.515625 13.8125 5.515625 26.8125 
Q 5.515625 40.234375 12.765625 48.109375 
Q 20.015625 56 32.328125 56 
Q 43.359375 56 49.78125 48.890625 
Q 56.203125 41.796875 56.203125 29.59375 
z
M 47.21875 32.234375 
Q 47.125 39.59375 43.09375 43.984375 
Q 39.0625 48.390625 32.421875 48.390625 
Q 24.90625 48.390625 20.390625 44.140625 
Q 15.875 39.890625 15.1875 32.171875 
z
" id="DejaVuSans-101"/>
     </defs>
     <g transform="translate(315.434063 304.088562)scale(0.1 -0.1)">
      <use xlink:href="#DejaVuSans-43"/>
      <use x="83.789062" xlink:href="#DejaVuSans-49"/>
      <use x="147.412109" xlink:href="#DejaVuSans-46"/>
      <use x="179.199219" xlink:href="#DejaVuSans-53"/>
      <use x="242.822266" xlink:href="#DejaVuSans-57"/>
      <use x="306.445312" xlink:href="#DejaVuSans-54"/>
      <use x="370.068359" xlink:href="#DejaVuSans-49"/>
      <use x="433.691406" xlink:href="#DejaVuSans-55"/>
      <use x="497.314453" xlink:href="#DejaVuSans-53"/>
      <use x="560.9375" xlink:href="#DejaVuSans-53"/>
      <use x="624.560547" xlink:href="#DejaVuSans-101"/>
      <use x="686.083984" xlink:href="#DejaVuSans-57"/>
     </g>
    </g>
   </g>
   <g id="matplotlib.axis_2">
    <g id="ytick_1">
     <g id="line2d_6">
      <defs>
       <path d="M 0 0 
L -3.5 0 
" id="m1923dbe136" style="stroke:#000000;stroke-width:0.8;"/>
      </defs>
      <g>
       <use style="stroke:#000000;stroke-width:0.8;" x="33.2875" xlink:href="#m1923dbe136" y="264.716"/>
      </g>
     </g>
     <g id="text_7">
      <!-- 0 -->
      <g transform="translate(19.925 268.515219)scale(0.1 -0.1)">
       <use xlink:href="#DejaVuSans-48"/>
      </g>
     </g>
    </g>
    <g id="ytick_2">
     <g id="line2d_7">
      <g>
       <use style="stroke:#000000;stroke-width:0.8;" x="33.2875" xlink:href="#m1923dbe136" y="231.116"/>
      </g>
     </g>
     <g id="text_8">
      <!-- 50 -->
      <g transform="translate(13.5625 234.915219)scale(0.1 -0.1)">
       <use xlink:href="#DejaVuSans-53"/>
       <use x="63.623047" xlink:href="#DejaVuSans-48"/>
      </g>
     </g>
    </g>
    <g id="ytick_3">
     <g id="line2d_8">
      <g>
       <use style="stroke:#000000;stroke-width:0.8;" x="33.2875" xlink:href="#m1923dbe136" y="197.516"/>
      </g>
     </g>
     <g id="text_9">
      <!-- 100 -->
      <g transform="translate(7.2 201.315219)scale(0.1 -0.1)">
       <use xlink:href="#DejaVuSans-49"/>
       <use x="63.623047" xlink:href="#DejaVuSans-48"/>
       <use x="127.246094" xlink:href="#DejaVuSans-48"/>
      </g>
     </g>
    </g>
    <g id="ytick_4">
     <g id="line2d_9">
      <g>
       <use style="stroke:#000000;stroke-width:0.8;" x="33.2875" xlink:href="#m1923dbe136" y="163.916"/>
      </g>
     </g>
     <g id="text_10">
      <!-- 150 -->
      <g transform="translate(7.2 167.715219)scale(0.1 -0.1)">
       <use xlink:href="#DejaVuSans-49"/>
       <use x="63.623047" xlink:href="#DejaVuSans-53"/>
       <use x="127.246094" xlink:href="#DejaVuSans-48"/>
      </g>
     </g>
    </g>
    <g id="ytick_5">
     <g id="line2d_10">
      <g>
       <use style="stroke:#000000;stroke-width:0.8;" x="33.2875" xlink:href="#m1923dbe136" y="130.316"/>
      </g>
     </g>
     <g id="text_11">
      <!-- 200 -->
      <g transform="translate(7.2 134.115219)scale(0.1 -0.1)">
       <use xlink:href="#DejaVuSans-50"/>
       <use x="63.623047" xlink:href="#DejaVuSans-48"/>
       <use x="127.246094" xlink:href="#DejaVuSans-48"/>
      </g>
     </g>
    </g>
    <g id="ytick_6">
     <g id="line2d_11">
      <g>
       <use style="stroke:#000000;stroke-width:0.8;" x="33.2875" xlink:href="#m1923dbe136" y="96.716"/>
      </g>
     </g>
     <g id="text_12">
      <!-- 250 -->
      <g transform="translate(7.2 100.515219)scale(0.1 -0.1)">
       <use xlink:href="#DejaVuSans-50"/>
       <use x="63.623047" xlink:href="#DejaVuSans-53"/>
       <use x="127.246094" xlink:href="#DejaVuSans-48"/>
      </g>
     </g>
    </g>
    <g id="ytick_7">
     <g id="line2d_12">
      <g>
       <use style="stroke:#000000;stroke-width:0.8;" x="33.2875" xlink:href="#m1923dbe136" y="63.116"/>
      </g>
     </g>
     <g id="text_13">
      <!-- 300 -->
      <g transform="translate(7.2 66.915219)scale(0.1 -0.1)">
       <use xlink:href="#DejaVuSans-51"/>
       <use x="63.623047" xlink:href="#DejaVuSans-48"/>
       <use x="127.246094" xlink:href="#DejaVuSans-48"/>
      </g>
     </g>
    </g>
    <g id="ytick_8">
     <g id="line2d_13">
      <g>
       <use style="stroke:#000000;stroke-width:0.8;" x="33.2875" xlink:href="#m1923dbe136" y="29.516"/>
      </g>
     </g>
     <g id="text_14">
      <!-- 350 -->
      <g transform="translate(7.2 33.315219)scale(0.1 -0.1)">
       <use xlink:href="#DejaVuSans-51"/>
       <use x="63.623047" xlink:href="#DejaVuSans-53"/>
       <use x="127.246094" xlink:href="#DejaVuSans-48"/>
      </g>
     </g>
    </g>
   </g>
   <g id="line2d_14">
    <path clip-path="url(#p81980d4464)" d="M 59.662899 22.796 
" style="fill:none;stroke:#1f77b4;stroke-linecap:square;stroke-width:1.5;"/>
    <defs>
     <path d="M 0 3 
C 0.795609 3 1.55874 2.683901 2.12132 2.12132 
C 2.683901 1.55874 3 0.795609 3 0 
C 3 -0.795609 2.683901 -1.55874 2.12132 -2.12132 
C 1.55874 -2.683901 0.795609 -3 0 -3 
C -0.795609 -3 -1.55874 -2.683901 -2.12132 -2.12132 
C -2.683901 -1.55874 -3 -0.795609 -3 0 
C -3 0.795609 -2.683901 1.55874 -2.12132 2.12132 
C -1.55874 2.683901 -0.795609 3 0 3 
z
" id="m2ddaddc799" style="stroke:#1f77b4;"/>
    </defs>
    <g clip-path="url(#p81980d4464)">
     <use style="fill:#1f77b4;stroke:#1f77b4;" x="59.662899" xlink:href="#m2ddaddc799" y="22.796"/>
    </g>
   </g>
   <g id="line2d_15">
    <path clip-path="url(#p81980d4464)" d="M 73.951891 22.796 
" style="fill:none;stroke:#ff7f0e;stroke-linecap:square;stroke-width:1.5;"/>
    <defs>
     <path d="M 0 3 
C 0.795609 3 1.55874 2.683901 2.12132 2.12132 
C 2.683901 1.55874 3 0.795609 3 0 
C 3 -0.795609 2.683901 -1.55874 2.12132 -2.12132 
C 1.55874 -2.683901 0.795609 -3 0 -3 
C -0.795609 -3 -1.55874 -2.683901 -2.12132 -2.12132 
C -2.683901 -1.55874 -3 -0.795609 -3 0 
C -3 0.795609 -2.683901 1.55874 -2.12132 2.12132 
C -1.55874 2.683901 -0.795609 3 0 3 
z
" id="m67b1d8e108" style="stroke:#ff7f0e;"/>
    </defs>
    <g clip-path="url(#p81980d4464)">
     <use style="fill:#ff7f0e;stroke:#ff7f0e;" x="73.951891" xlink:href="#m67b1d8e108" y="22.796"/>
    </g>
   </g>
   <g id="line2d_16">
    <path clip-path="url(#p81980d4464)" d="M 88.22891 22.796 
" style="fill:none;stroke:#2ca02c;stroke-linecap:square;stroke-width:1.5;"/>
    <defs>
     <path d="M 0 3 
C 0.795609 3 1.55874 2.683901 2.12132 2.12132 
C 2.683901 1.55874 3 0.795609 3 0 
C 3 -0.795609 2.683901 -1.55874 2.12132 -2.12132 
C 1.55874 -2.683901 0.795609 -3 0 -3 
C -0.795609 -3 -1.55874 -2.683901 -2.12132 -2.12132 
C -2.683901 -1.55874 -3 -0.795609 -3 0 
C -3 0.795609 -2.683901 1.55874 -2.12132 2.12132 
C -1.55874 2.683901 -0.795609 3 0 3 
z
" id="mdcf03451ff" style="stroke:#2ca02c;"/>
    </defs>
    <g clip-path="url(#p81980d4464)">
     <use style="fill:#2ca02c;stroke:#2ca02c;" x="88.22891" xlink:href="#mdcf03451ff" y="22.796"/>
    </g>
   </g>
   <g id="line2d_17">
    <path clip-path="url(#p81980d4464)" d="M 102.651438 22.796 
" style="fill:none;stroke:#d62728;stroke-linecap:square;stroke-width:1.5;"/>
    <defs>
     <path d="M 0 3 
C 0.795609 3 1.55874 2.683901 2.12132 2.12132 
C 2.683901 1.55874 3 0.795609 3 0 
C 3 -0.795609 2.683901 -1.55874 2.12132 -2.12132 
C 1.55874 -2.683901 0.795609 -3 0 -3 
C -0.795609 -3 -1.55874 -2.683901 -2.12132 -2.12132 
C -2.683901 -1.55874 -3 -0.795609 -3 0 
C -3 0.795609 -2.683901 1.55874 -2.12132 2.12132 
C -1.55874 2.683901 -0.795609 3 0 3 
z
" id="ma11df3f8fb" style="stroke:#d62728;"/>
    </defs>
    <g clip-path="url(#p81980d4464)">
     <use style="fill:#d62728;stroke:#d62728;" x="102.651438" xlink:href="#ma11df3f8fb" y="22.796"/>
    </g>
   </g>
   <g id="line2d_18">
    <path clip-path="url(#p81980d4464)" d="M 117.076622 22.796 
" style="fill:none;stroke:#9467bd;stroke-linecap:square;stroke-width:1.5;"/>
    <defs>
     <path d="M 0 3 
C 0.795609 3 1.55874 2.683901 2.12132 2.12132 
C 2.683901 1.55874 3 0.795609 3 0 
C 3 -0.795609 2.683901 -1.55874 2.12132 -2.12132 
C 1.55874 -2.683901 0.795609 -3 0 -3 
C -0.795609 -3 -1.55874 -2.683901 -2.12132 -2.12132 
C -2.683901 -1.55874 -3 -0.795609 -3 0 
C -3 0.795609 -2.683901 1.55874 -2.12132 2.12132 
C -1.55874 2.683901 -0.795609 3 0 3 
z
" id="m6fcbd52510" style="stroke:#9467bd;"/>
    </defs>
    <g clip-path="url(#p81980d4464)">
     <use style="fill:#9467bd;stroke:#9467bd;" x="117.076622" xlink:href="#m6fcbd52510" y="22.796"/>
    </g>
   </g>
   <g id="line2d_19">
    <path clip-path="url(#p81980d4464)" d="M 131.504457 22.796 
" style="fill:none;stroke:#8c564b;stroke-linecap:square;stroke-width:1.5;"/>
    <defs>
     <path d="M 0 3 
C 0.795609 3 1.55874 2.683901 2.12132 2.12132 
C 2.683901 1.55874 3 0.795609 3 0 
C 3 -0.795609 2.683901 -1.55874 2.12132 -2.12132 
C 1.55874 -2.683901 0.795609 -3 0 -3 
C -0.795609 -3 -1.55874 -2.683901 -2.12132 -2.12132 
C -2.683901 -1.55874 -3 -0.795609 -3 0 
C -3 0.795609 -2.683901 1.55874 -2.12132 2.12132 
C -1.55874 2.683901 -0.795609 3 0 3 
z
" id="m7e0bc4d735" style="stroke:#8c564b;"/>
    </defs>
    <g clip-path="url(#p81980d4464)">
     <use style="fill:#8c564b;stroke:#8c564b;" x="131.504457" xlink:href="#m7e0bc4d735" y="22.796"/>
    </g>
   </g>
   <g id="line2d_20">
    <path clip-path="url(#p81980d4464)" d="M 145.79171 22.796 
" style="fill:none;stroke:#e377c2;stroke-linecap:square;stroke-width:1.5;"/>
    <defs>
     <path d="M 0 3 
C 0.795609 3 1.55874 2.683901 2.12132 2.12132 
C 2.683901 1.55874 3 0.795609 3 0 
C 3 -0.795609 2.683901 -1.55874 2.12132 -2.12132 
C 1.55874 -2.683901 0.795609 -3 0 -3 
C -0.795609 -3 -1.55874 -2.683901 -2.12132 -2.12132 
C -2.683901 -1.55874 -3 -0.795609 -3 0 
C -3 0.795609 -2.683901 1.55874 -2.12132 2.12132 
C -1.55874 2.683901 -0.795609 3 0 3 
z
" id="mfc36f1f968" style="stroke:#e377c2;"/>
    </defs>
    <g clip-path="url(#p81980d4464)">
     <use style="fill:#e377c2;stroke:#e377c2;" x="145.79171" xlink:href="#mfc36f1f968" y="22.796"/>
    </g>
   </g>
   <g id="line2d_21">
    <path clip-path="url(#p81980d4464)" d="M 160.223619 22.796 
" style="fill:none;stroke:#7f7f7f;stroke-linecap:square;stroke-width:1.5;"/>
    <defs>
     <path d="M 0 3 
C 0.795609 3 1.55874 2.683901 2.12132 2.12132 
C 2.683901 1.55874 3 0.795609 3 0 
C 3 -0.795609 2.683901 -1.55874 2.12132 -2.12132 
C 1.55874 -2.683901 0.795609 -3 0 -3 
C -0.795609 -3 -1.55874 -2.683901 -2.12132 -2.12132 
C -2.683901 -1.55874 -3 -0.795609 -3 0 
C -3 0.795609 -2.683901 1.55874 -2.12132 2.12132 
C -1.55874 2.683901 -0.795609 3 0 3 
z
" id="m42b2d51992" style="stroke:#7f7f7f;"/>
    </defs>
    <g clip-path="url(#p81980d4464)">
     <use style="fill:#7f7f7f;stroke:#7f7f7f;" x="160.223619" xlink:href="#m42b2d51992" y="22.796"/>
    </g>
   </g>
   <g id="line2d_22">
    <path clip-path="url(#p81980d4464)" d="M 174.510757 22.796 
" style="fill:none;stroke:#bcbd22;stroke-linecap:square;stroke-width:1.5;"/>
    <defs>
     <path d="M 0 3 
C 0.795609 3 1.55874 2.683901 2.12132 2.12132 
C 2.683901 1.55874 3 0.795609 3 0 
C 3 -0.795609 2.683901 -1.55874 2.12132 -2.12132 
C 1.55874 -2.683901 0.795609 -3 0 -3 
C -0.795609 -3 -1.55874 -2.683901 -2.12132 -2.12132 
C -2.683901 -1.55874 -3 -0.795609 -3 0 
C -3 0.795609 -2.683901 1.55874 -2.12132 2.12132 
C -1.55874 2.683901 -0.795609 3 0 3 
z
" id="m7d648a8dd3" style="stroke:#bcbd22;"/>
    </defs>
    <g clip-path="url(#p81980d4464)">
     <use style="fill:#bcbd22;stroke:#bcbd22;" x="174.510757" xlink:href="#m7d648a8dd3" y="22.796"/>
    </g>
   </g>
   <g id="line2d_23">
    <path clip-path="url(#p81980d4464)" d="M 188.942709 22.796 
" style="fill:none;stroke:#17becf;stroke-linecap:square;stroke-width:1.5;"/>
    <defs>
     <path d="M 0 3 
C 0.795609 3 1.55874 2.683901 2.12132 2.12132 
C 2.683901 1.55874 3 0.795609 3 0 
C 3 -0.795609 2.683901 -1.55874 2.12132 -2.12132 
C 1.55874 -2.683901 0.795609 -3 0 -3 
C -0.795609 -3 -1.55874 -2.683901 -2.12132 -2.12132 
C -2.683901 -1.55874 -3 -0.795609 -3 0 
C -3 0.795609 -2.683901 1.55874 -2.12132 2.12132 
C -1.55874 2.683901 -0.795609 3 0 3 
z
" id="m9b60414f2f" style="stroke:#17becf;"/>
    </defs>
    <g clip-path="url(#p81980d4464)">
     <use style="fill:#17becf;stroke:#17becf;" x="188.942709" xlink:href="#m9b60414f2f" y="22.796"/>
    </g>
   </g>
   <g id="line2d_24">
    <path clip-path="url(#p81980d4464)" d="M 203.229864 22.796 
" style="fill:none;stroke:#1f77b4;stroke-linecap:square;stroke-width:1.5;"/>
    <g clip-path="url(#p81980d4464)">
     <use style="fill:#1f77b4;stroke:#1f77b4;" x="203.229864" xlink:href="#m2ddaddc799" y="22.796"/>
    </g>
   </g>
   <g id="line2d_25">
    <path clip-path="url(#p81980d4464)" d="M 217.661854 22.796 
" style="fill:none;stroke:#ff7f0e;stroke-linecap:square;stroke-width:1.5;"/>
    <g clip-path="url(#p81980d4464)">
     <use style="fill:#ff7f0e;stroke:#ff7f0e;" x="217.661854" xlink:href="#m67b1d8e108" y="22.796"/>
    </g>
   </g>
   <g id="line2d_26">
    <path clip-path="url(#p81980d4464)" d="M 231.949032 22.796 
" style="fill:none;stroke:#2ca02c;stroke-linecap:square;stroke-width:1.5;"/>
    <g clip-path="url(#p81980d4464)">
     <use style="fill:#2ca02c;stroke:#2ca02c;" x="231.949032" xlink:href="#mdcf03451ff" y="22.796"/>
    </g>
   </g>
   <g id="line2d_27">
    <path clip-path="url(#p81980d4464)" d="M 246.38093 22.796 
" style="fill:none;stroke:#d62728;stroke-linecap:square;stroke-width:1.5;"/>
    <g clip-path="url(#p81980d4464)">
     <use style="fill:#d62728;stroke:#d62728;" x="246.38093" xlink:href="#ma11df3f8fb" y="22.796"/>
    </g>
   </g>
   <g id="line2d_28">
    <path clip-path="url(#p81980d4464)" d="M 260.66803 22.796 
" style="fill:none;stroke:#9467bd;stroke-linecap:square;stroke-width:1.5;"/>
    <g clip-path="url(#p81980d4464)">
     <use style="fill:#9467bd;stroke:#9467bd;" x="260.66803" xlink:href="#m6fcbd52510" y="22.796"/>
    </g>
   </g>
   <g id="line2d_29">
    <path clip-path="url(#p81980d4464)" d="M 275.099926 22.796 
" style="fill:none;stroke:#8c564b;stroke-linecap:square;stroke-width:1.5;"/>
    <g clip-path="url(#p81980d4464)">
     <use style="fill:#8c564b;stroke:#8c564b;" x="275.099926" xlink:href="#m7e0bc4d735" y="22.796"/>
    </g>
   </g>
   <g id="line2d_30">
    <path clip-path="url(#p81980d4464)" d="M 289.386982 22.796 
" style="fill:none;stroke:#e377c2;stroke-linecap:square;stroke-width:1.5;"/>
    <g clip-path="url(#p81980d4464)">
     <use style="fill:#e377c2;stroke:#e377c2;" x="289.386982" xlink:href="#mfc36f1f968" y="22.796"/>
    </g>
   </g>
   <g id="line2d_31">
    <path clip-path="url(#p81980d4464)" d="M 303.818901 22.796 
" style="fill:none;stroke:#7f7f7f;stroke-linecap:square;stroke-width:1.5;"/>
    <g clip-path="url(#p81980d4464)">
     <use style="fill:#7f7f7f;stroke:#7f7f7f;" x="303.818901" xlink:href="#m42b2d51992" y="22.796"/>
    </g>
   </g>
   <g id="line2d_32">
    <path clip-path="url(#p81980d4464)" d="M 318.106083 22.796 
" style="fill:none;stroke:#bcbd22;stroke-linecap:square;stroke-width:1.5;"/>
    <g clip-path="url(#p81980d4464)">
     <use style="fill:#bcbd22;stroke:#bcbd22;" x="318.106083" xlink:href="#m7d648a8dd3" y="22.796"/>
    </g>
   </g>
   <g id="line2d_33">
    <path clip-path="url(#p81980d4464)" d="M 332.537947 22.796 
" style="fill:none;stroke:#17becf;stroke-linecap:square;stroke-width:1.5;"/>
    <g clip-path="url(#p81980d4464)">
     <use style="fill:#17becf;stroke:#17becf;" x="332.537947" xlink:href="#m9b60414f2f" y="22.796"/>
    </g>
   </g>
   <g id="line2d_34">
    <path clip-path="url(#p81980d4464)" d="M 346.825033 22.796 
" style="fill:none;stroke:#1f77b4;stroke-linecap:square;stroke-width:1.5;"/>
    <g clip-path="url(#p81980d4464)">
     <use style="fill:#1f77b4;stroke:#1f77b4;" x="346.825033" xlink:href="#m2ddaddc799" y="22.796"/>
    </g>
   </g>
   <g id="line2d_35">
    <path clip-path="url(#p81980d4464)" d="M 361.256979 22.796 
" style="fill:none;stroke:#ff7f0e;stroke-linecap:square;stroke-width:1.5;"/>
    <g clip-path="url(#p81980d4464)">
     <use style="fill:#ff7f0e;stroke:#ff7f0e;" x="361.256979" xlink:href="#m67b1d8e108" y="22.796"/>
    </g>
   </g>
   <g id="line2d_36">
    <path clip-path="url(#p81980d4464)" d="M 49.520227 192.812 
L 59.662899 22.796 
L 59.662899 264.716 
L 59.73506 261.109715 
L 73.951891 22.796 
L 73.951891 264.716 
L 74.024052 260.907175 
L 88.22891 22.796 
L 88.22891 264.716 
L 88.301071 263.347444 
L 102.651438 22.796 
L 102.651438 264.716 
L 102.723597 263.391301 
L 117.076622 22.796 
L 117.076622 264.716 
L 117.148781 263.437017 
L 131.504457 22.796 
L 131.504457 264.716 
L 131.576616 261.078603 
L 145.79171 22.796 
L 145.79171 264.716 
L 145.863869 263.506113 
L 160.223619 22.796 
L 160.223619 264.716 
L 160.295778 261.079373 
L 174.510757 22.796 
L 174.510757 264.716 
L 174.582916 263.504527 
L 188.942709 22.796 
L 188.942709 264.716 
L 189.014868 261.077612 
L 203.229864 22.796 
L 203.229864 264.716 
L 203.302023 263.505075 
L 217.661854 22.796 
L 217.661854 264.716 
L 217.734013 261.078491 
L 231.949032 22.796 
L 231.949032 264.716 
L 232.021191 263.504325 
L 246.38093 22.796 
L 246.38093 264.716 
L 246.453089 261.07917 
L 260.66803 22.796 
L 260.66803 264.716 
L 260.740189 263.505046 
L 275.099926 22.796 
L 275.099926 264.716 
L 275.172085 261.078847 
L 289.386982 22.796 
L 289.386982 264.716 
L 289.459141 263.504844 
L 303.818901 22.796 
L 303.818901 264.716 
L 303.89106 261.078633 
L 318.106083 22.796 
L 318.106083 264.716 
L 318.178242 263.50493 
L 332.537947 22.796 
L 332.537947 264.716 
L 332.610106 261.078253 
L 346.825033 22.796 
L 346.825033 264.716 
L 346.897192 263.505565 
L 361.256979 22.796 
L 361.256979 264.716 
L 361.329138 261.077873 
L 374.173464 45.76801 
L 374.173464 45.76801 
" style="fill:none;stroke:#ff0000;stroke-linecap:square;stroke-width:1.5;"/>
   </g>
   <g id="line2d_37">
    <path clip-path="url(#p81980d4464)" d="M 59.302071 22.796 
" style="fill:none;stroke:#2ca02c;stroke-linecap:square;stroke-width:1.5;"/>
    <g clip-path="url(#p81980d4464)">
     <use style="fill:#2ca02c;stroke:#2ca02c;" x="59.302071" xlink:href="#mdcf03451ff" y="22.796"/>
    </g>
   </g>
   <g id="line2d_38">
    <path clip-path="url(#p81980d4464)" d="M 73.73398 22.796 
" style="fill:none;stroke:#d62728;stroke-linecap:square;stroke-width:1.5;"/>
    <g clip-path="url(#p81980d4464)">
     <use style="fill:#d62728;stroke:#d62728;" x="73.73398" xlink:href="#ma11df3f8fb" y="22.796"/>
    </g>
   </g>
   <g id="line2d_39">
    <path clip-path="url(#p81980d4464)" d="M 88.154179 22.796 
" style="fill:none;stroke:#9467bd;stroke-linecap:square;stroke-width:1.5;"/>
    <g clip-path="url(#p81980d4464)">
     <use style="fill:#9467bd;stroke:#9467bd;" x="88.154179" xlink:href="#m6fcbd52510" y="22.796"/>
    </g>
   </g>
   <g id="line2d_40">
    <path clip-path="url(#p81980d4464)" d="M 102.577042 22.796 
" style="fill:none;stroke:#8c564b;stroke-linecap:square;stroke-width:1.5;"/>
    <g clip-path="url(#p81980d4464)">
     <use style="fill:#8c564b;stroke:#8c564b;" x="102.577042" xlink:href="#m7e0bc4d735" y="22.796"/>
    </g>
   </g>
   <g id="line2d_41">
    <path clip-path="url(#p81980d4464)" d="M 117.002544 22.796 
" style="fill:none;stroke:#e377c2;stroke-linecap:square;stroke-width:1.5;"/>
    <g clip-path="url(#p81980d4464)">
     <use style="fill:#e377c2;stroke:#e377c2;" x="117.002544" xlink:href="#mfc36f1f968" y="22.796"/>
    </g>
   </g>
   <g id="line2d_42">
    <path clip-path="url(#p81980d4464)" d="M 131.430801 22.796 
" style="fill:none;stroke:#7f7f7f;stroke-linecap:square;stroke-width:1.5;"/>
    <g clip-path="url(#p81980d4464)">
     <use style="fill:#7f7f7f;stroke:#7f7f7f;" x="131.430801" xlink:href="#m42b2d51992" y="22.796"/>
    </g>
   </g>
   <g id="line2d_43">
    <path clip-path="url(#p81980d4464)" d="M 145.718248 22.796 
" style="fill:none;stroke:#bcbd22;stroke-linecap:square;stroke-width:1.5;"/>
    <g clip-path="url(#p81980d4464)">
     <use style="fill:#bcbd22;stroke:#bcbd22;" x="145.718248" xlink:href="#m7d648a8dd3" y="22.796"/>
    </g>
   </g>
   <g id="line2d_44">
    <path clip-path="url(#p81980d4464)" d="M 160.150208 22.796 
" style="fill:none;stroke:#17becf;stroke-linecap:square;stroke-width:1.5;"/>
    <g clip-path="url(#p81980d4464)">
     <use style="fill:#17becf;stroke:#17becf;" x="160.150208" xlink:href="#m9b60414f2f" y="22.796"/>
    </g>
   </g>
   <g id="line2d_45">
    <path clip-path="url(#p81980d4464)" d="M 174.437752 22.796 
" style="fill:none;stroke:#1f77b4;stroke-linecap:square;stroke-width:1.5;"/>
    <g clip-path="url(#p81980d4464)">
     <use style="fill:#1f77b4;stroke:#1f77b4;" x="174.437752" xlink:href="#m2ddaddc799" y="22.796"/>
    </g>
   </g>
   <g id="line2d_46">
    <path clip-path="url(#p81980d4464)" d="M 188.869677 22.796 
" style="fill:none;stroke:#ff7f0e;stroke-linecap:square;stroke-width:1.5;"/>
    <g clip-path="url(#p81980d4464)">
     <use style="fill:#ff7f0e;stroke:#ff7f0e;" x="188.869677" xlink:href="#m67b1d8e108" y="22.796"/>
    </g>
   </g>
   <g id="line2d_47">
    <path clip-path="url(#p81980d4464)" d="M 203.157072 22.796 
" style="fill:none;stroke:#2ca02c;stroke-linecap:square;stroke-width:1.5;"/>
    <g clip-path="url(#p81980d4464)">
     <use style="fill:#2ca02c;stroke:#2ca02c;" x="203.157072" xlink:href="#mdcf03451ff" y="22.796"/>
    </g>
   </g>
   <g id="line2d_48">
    <path clip-path="url(#p81980d4464)" d="M 217.589073 22.796 
" style="fill:none;stroke:#d62728;stroke-linecap:square;stroke-width:1.5;"/>
    <g clip-path="url(#p81980d4464)">
     <use style="fill:#d62728;stroke:#d62728;" x="217.589073" xlink:href="#ma11df3f8fb" y="22.796"/>
    </g>
   </g>
   <g id="line2d_49">
    <path clip-path="url(#p81980d4464)" d="M 231.8766 22.796 
" style="fill:none;stroke:#9467bd;stroke-linecap:square;stroke-width:1.5;"/>
    <g clip-path="url(#p81980d4464)">
     <use style="fill:#9467bd;stroke:#9467bd;" x="231.8766" xlink:href="#m6fcbd52510" y="22.796"/>
    </g>
   </g>
   <g id="line2d_50">
    <path clip-path="url(#p81980d4464)" d="M 246.308495 22.796 
" style="fill:none;stroke:#8c564b;stroke-linecap:square;stroke-width:1.5;"/>
    <g clip-path="url(#p81980d4464)">
     <use style="fill:#8c564b;stroke:#8c564b;" x="246.308495" xlink:href="#m7e0bc4d735" y="22.796"/>
    </g>
   </g>
   <g id="line2d_51">
    <path clip-path="url(#p81980d4464)" d="M 260.595985 22.796 
" style="fill:none;stroke:#e377c2;stroke-linecap:square;stroke-width:1.5;"/>
    <g clip-path="url(#p81980d4464)">
     <use style="fill:#e377c2;stroke:#e377c2;" x="260.595985" xlink:href="#mfc36f1f968" y="22.796"/>
    </g>
   </g>
   <g id="line2d_52">
    <path clip-path="url(#p81980d4464)" d="M 275.02792 22.796 
" style="fill:none;stroke:#7f7f7f;stroke-linecap:square;stroke-width:1.5;"/>
    <g clip-path="url(#p81980d4464)">
     <use style="fill:#7f7f7f;stroke:#7f7f7f;" x="275.02792" xlink:href="#m42b2d51992" y="22.796"/>
    </g>
   </g>
   <g id="line2d_53">
    <path clip-path="url(#p81980d4464)" d="M 289.315403 22.796 
" style="fill:none;stroke:#bcbd22;stroke-linecap:square;stroke-width:1.5;"/>
    <g clip-path="url(#p81980d4464)">
     <use style="fill:#bcbd22;stroke:#bcbd22;" x="289.315403" xlink:href="#m7d648a8dd3" y="22.796"/>
    </g>
   </g>
   <g id="line2d_54">
    <path clip-path="url(#p81980d4464)" d="M 303.747309 22.796 
" style="fill:none;stroke:#17becf;stroke-linecap:square;stroke-width:1.5;"/>
    <g clip-path="url(#p81980d4464)">
     <use style="fill:#17becf;stroke:#17becf;" x="303.747309" xlink:href="#m9b60414f2f" y="22.796"/>
    </g>
   </g>
   <g id="line2d_55">
    <path clip-path="url(#p81980d4464)" d="M 318.034885 22.796 
" style="fill:none;stroke:#1f77b4;stroke-linecap:square;stroke-width:1.5;"/>
    <g clip-path="url(#p81980d4464)">
     <use style="fill:#1f77b4;stroke:#1f77b4;" x="318.034885" xlink:href="#m2ddaddc799" y="22.796"/>
    </g>
   </g>
   <g id="line2d_56">
    <path clip-path="url(#p81980d4464)" d="M 332.466785 22.796 
" style="fill:none;stroke:#ff7f0e;stroke-linecap:square;stroke-width:1.5;"/>
    <g clip-path="url(#p81980d4464)">
     <use style="fill:#ff7f0e;stroke:#ff7f0e;" x="332.466785" xlink:href="#m67b1d8e108" y="22.796"/>
    </g>
   </g>
   <g id="line2d_57">
    <path clip-path="url(#p81980d4464)" d="M 346.754206 22.796 
" style="fill:none;stroke:#2ca02c;stroke-linecap:square;stroke-width:1.5;"/>
    <g clip-path="url(#p81980d4464)">
     <use style="fill:#2ca02c;stroke:#2ca02c;" x="346.754206" xlink:href="#mdcf03451ff" y="22.796"/>
    </g>
   </g>
   <g id="line2d_58">
    <path clip-path="url(#p81980d4464)" d="M 361.186127 22.796 
" style="fill:none;stroke:#d62728;stroke-linecap:square;stroke-width:1.5;"/>
    <g clip-path="url(#p81980d4464)">
     <use style="fill:#d62728;stroke:#d62728;" x="361.186127" xlink:href="#ma11df3f8fb" y="22.796"/>
    </g>
   </g>
   <g id="line2d_59">
    <path clip-path="url(#p81980d4464)" d="M 49.520227 186.764 
L 59.302071 22.796 
L 59.302071 264.716 
L 59.374229 263.506055 
L 73.73398 22.796 
L 73.73398 264.716 
L 73.806139 263.30804 
L 88.154179 22.796 
L 88.154179 264.716 
L 88.226337 263.354168 
L 102.577042 22.796 
L 102.577042 264.716 
L 102.6492 263.398235 
L 117.002544 22.796 
L 117.002544 264.716 
L 117.074703 263.444292 
L 131.430801 22.796 
L 131.430801 264.716 
L 131.50296 261.083781 
L 145.718248 22.796 
L 145.718248 264.716 
L 145.790407 263.50444 
L 160.150208 22.796 
L 160.150208 264.716 
L 160.222366 261.083312 
L 174.437752 22.796 
L 174.437752 264.716 
L 174.509911 263.504411 
L 188.869677 22.796 
L 188.869677 264.716 
L 188.941835 261.082929 
L 203.157072 22.796 
L 203.157072 264.716 
L 203.229231 263.504238 
L 217.589073 22.796 
L 217.589073 264.716 
L 217.661234 261.085102 
L 231.8766 22.796 
L 231.8766 264.716 
L 231.948759 263.506084 
L 246.308495 22.796 
L 246.308495 264.716 
L 246.380653 261.084536 
L 260.595985 22.796 
L 260.595985 264.716 
L 260.668144 263.506286 
L 275.02792 22.796 
L 275.02792 264.716 
L 275.100079 261.085125 
L 289.315403 22.796 
L 289.315403 264.716 
L 289.387562 263.504152 
L 303.747309 22.796 
L 303.747309 264.716 
L 303.819468 261.085639 
L 318.034885 22.796 
L 318.034885 264.716 
L 318.107044 263.506257 
L 332.466785 22.796 
L 332.466785 264.716 
L 332.538946 261.085038 
L 346.754206 22.796 
L 346.754206 264.716 
L 346.826365 263.504181 
L 361.186127 22.796 
L 361.186127 264.716 
L 361.258287 261.083187 
L 374.174772 44.565888 
L 374.174772 44.565888 
" style="fill:none;stroke:#0000ff;stroke-linecap:square;stroke-width:1.5;"/>
   </g>
   <g id="line2d_60">
    <path clip-path="url(#p81980d4464)" d="M 60.304363 22.796 
" style="fill:none;stroke:#9467bd;stroke-linecap:square;stroke-width:1.5;"/>
    <g clip-path="url(#p81980d4464)">
     <use style="fill:#9467bd;stroke:#9467bd;" x="60.304363" xlink:href="#m6fcbd52510" y="22.796"/>
    </g>
   </g>
   <g id="line2d_61">
    <path clip-path="url(#p81980d4464)" d="M 74.464905 22.796 
" style="fill:none;stroke:#8c564b;stroke-linecap:square;stroke-width:1.5;"/>
    <g clip-path="url(#p81980d4464)">
     <use style="fill:#8c564b;stroke:#8c564b;" x="74.464905" xlink:href="#m7e0bc4d735" y="22.796"/>
    </g>
   </g>
   <g id="line2d_62">
    <path clip-path="url(#p81980d4464)" d="M 88.621559 22.796 
" style="fill:none;stroke:#e377c2;stroke-linecap:square;stroke-width:1.5;"/>
    <g clip-path="url(#p81980d4464)">
     <use style="fill:#e377c2;stroke:#e377c2;" x="88.621559" xlink:href="#mfc36f1f968" y="22.796"/>
    </g>
   </g>
   <g id="line2d_63">
    <path clip-path="url(#p81980d4464)" d="M 102.774254 22.796 
" style="fill:none;stroke:#7f7f7f;stroke-linecap:square;stroke-width:1.5;"/>
    <g clip-path="url(#p81980d4464)">
     <use style="fill:#7f7f7f;stroke:#7f7f7f;" x="102.774254" xlink:href="#m42b2d51992" y="22.796"/>
    </g>
   </g>
   <g id="line2d_64">
    <path clip-path="url(#p81980d4464)" d="M 116.921509 22.796 
" style="fill:none;stroke:#bcbd22;stroke-linecap:square;stroke-width:1.5;"/>
    <g clip-path="url(#p81980d4464)">
     <use style="fill:#bcbd22;stroke:#bcbd22;" x="116.921509" xlink:href="#m7d648a8dd3" y="22.796"/>
    </g>
   </g>
   <g id="line2d_65">
    <path clip-path="url(#p81980d4464)" d="M 131.208464 22.796 
" style="fill:none;stroke:#17becf;stroke-linecap:square;stroke-width:1.5;"/>
    <g clip-path="url(#p81980d4464)">
     <use style="fill:#17becf;stroke:#17becf;" x="131.208464" xlink:href="#m9b60414f2f" y="22.796"/>
    </g>
   </g>
   <g id="line2d_66">
    <path clip-path="url(#p81980d4464)" d="M 145.640459 22.796 
" style="fill:none;stroke:#1f77b4;stroke-linecap:square;stroke-width:1.5;"/>
    <g clip-path="url(#p81980d4464)">
     <use style="fill:#1f77b4;stroke:#1f77b4;" x="145.640459" xlink:href="#m2ddaddc799" y="22.796"/>
    </g>
   </g>
   <g id="line2d_67">
    <path clip-path="url(#p81980d4464)" d="M 159.92753 22.796 
" style="fill:none;stroke:#ff7f0e;stroke-linecap:square;stroke-width:1.5;"/>
    <g clip-path="url(#p81980d4464)">
     <use style="fill:#ff7f0e;stroke:#ff7f0e;" x="159.92753" xlink:href="#m67b1d8e108" y="22.796"/>
    </g>
   </g>
   <g id="line2d_68">
    <path clip-path="url(#p81980d4464)" d="M 174.359455 22.796 
" style="fill:none;stroke:#2ca02c;stroke-linecap:square;stroke-width:1.5;"/>
    <g clip-path="url(#p81980d4464)">
     <use style="fill:#2ca02c;stroke:#2ca02c;" x="174.359455" xlink:href="#mdcf03451ff" y="22.796"/>
    </g>
   </g>
   <g id="line2d_69">
    <path clip-path="url(#p81980d4464)" d="M 188.646418 22.796 
" style="fill:none;stroke:#d62728;stroke-linecap:square;stroke-width:1.5;"/>
    <g clip-path="url(#p81980d4464)">
     <use style="fill:#d62728;stroke:#d62728;" x="188.646418" xlink:href="#ma11df3f8fb" y="22.796"/>
    </g>
   </g>
   <g id="line2d_70">
    <path clip-path="url(#p81980d4464)" d="M 203.078268 22.796 
" style="fill:none;stroke:#9467bd;stroke-linecap:square;stroke-width:1.5;"/>
    <g clip-path="url(#p81980d4464)">
     <use style="fill:#9467bd;stroke:#9467bd;" x="203.078268" xlink:href="#m6fcbd52510" y="22.796"/>
    </g>
   </g>
   <g id="line2d_71">
    <path clip-path="url(#p81980d4464)" d="M 217.365347 22.796 
" style="fill:none;stroke:#8c564b;stroke-linecap:square;stroke-width:1.5;"/>
    <g clip-path="url(#p81980d4464)">
     <use style="fill:#8c564b;stroke:#8c564b;" x="217.365347" xlink:href="#m7e0bc4d735" y="22.796"/>
    </g>
   </g>
   <g id="line2d_72">
    <path clip-path="url(#p81980d4464)" d="M 231.79723 22.796 
" style="fill:none;stroke:#e377c2;stroke-linecap:square;stroke-width:1.5;"/>
    <g clip-path="url(#p81980d4464)">
     <use style="fill:#e377c2;stroke:#e377c2;" x="231.79723" xlink:href="#mfc36f1f968" y="22.796"/>
    </g>
   </g>
   <g id="line2d_73">
    <path clip-path="url(#p81980d4464)" d="M 246.084198 22.796 
" style="fill:none;stroke:#7f7f7f;stroke-linecap:square;stroke-width:1.5;"/>
    <g clip-path="url(#p81980d4464)">
     <use style="fill:#7f7f7f;stroke:#7f7f7f;" x="246.084198" xlink:href="#m42b2d51992" y="22.796"/>
    </g>
   </g>
   <g id="line2d_74">
    <path clip-path="url(#p81980d4464)" d="M 260.516088 22.796 
" style="fill:none;stroke:#bcbd22;stroke-linecap:square;stroke-width:1.5;"/>
    <g clip-path="url(#p81980d4464)">
     <use style="fill:#bcbd22;stroke:#bcbd22;" x="260.516088" xlink:href="#m7d648a8dd3" y="22.796"/>
    </g>
   </g>
   <g id="line2d_75">
    <path clip-path="url(#p81980d4464)" d="M 274.803053 22.796 
" style="fill:none;stroke:#17becf;stroke-linecap:square;stroke-width:1.5;"/>
    <g clip-path="url(#p81980d4464)">
     <use style="fill:#17becf;stroke:#17becf;" x="274.803053" xlink:href="#m9b60414f2f" y="22.796"/>
    </g>
   </g>
   <g id="line2d_76">
    <path clip-path="url(#p81980d4464)" d="M 289.23494 22.796 
" style="fill:none;stroke:#1f77b4;stroke-linecap:square;stroke-width:1.5;"/>
    <g clip-path="url(#p81980d4464)">
     <use style="fill:#1f77b4;stroke:#1f77b4;" x="289.23494" xlink:href="#m2ddaddc799" y="22.796"/>
    </g>
   </g>
   <g id="line2d_77">
    <path clip-path="url(#p81980d4464)" d="M 303.521894 22.796 
" style="fill:none;stroke:#ff7f0e;stroke-linecap:square;stroke-width:1.5;"/>
    <g clip-path="url(#p81980d4464)">
     <use style="fill:#ff7f0e;stroke:#ff7f0e;" x="303.521894" xlink:href="#m67b1d8e108" y="22.796"/>
    </g>
   </g>
   <g id="line2d_78">
    <path clip-path="url(#p81980d4464)" d="M 317.953793 22.796 
" style="fill:none;stroke:#2ca02c;stroke-linecap:square;stroke-width:1.5;"/>
    <g clip-path="url(#p81980d4464)">
     <use style="fill:#2ca02c;stroke:#2ca02c;" x="317.953793" xlink:href="#mdcf03451ff" y="22.796"/>
    </g>
   </g>
   <g id="line2d_79">
    <path clip-path="url(#p81980d4464)" d="M 332.240881 22.796 
" style="fill:none;stroke:#d62728;stroke-linecap:square;stroke-width:1.5;"/>
    <g clip-path="url(#p81980d4464)">
     <use style="fill:#d62728;stroke:#d62728;" x="332.240881" xlink:href="#ma11df3f8fb" y="22.796"/>
    </g>
   </g>
   <g id="line2d_80">
    <path clip-path="url(#p81980d4464)" d="M 346.672819 22.796 
" style="fill:none;stroke:#9467bd;stroke-linecap:square;stroke-width:1.5;"/>
    <g clip-path="url(#p81980d4464)">
     <use style="fill:#9467bd;stroke:#9467bd;" x="346.672819" xlink:href="#m6fcbd52510" y="22.796"/>
    </g>
   </g>
   <g id="line2d_81">
    <path clip-path="url(#p81980d4464)" d="M 360.959789 22.796 
" style="fill:none;stroke:#8c564b;stroke-linecap:square;stroke-width:1.5;"/>
    <g clip-path="url(#p81980d4464)">
     <use style="fill:#8c564b;stroke:#8c564b;" x="360.959789" xlink:href="#m7e0bc4d735" y="22.796"/>
    </g>
   </g>
   <g id="line2d_82">
    <path clip-path="url(#p81980d4464)" d="M 49.520227 203.564 
L 60.304363 22.796 
L 60.304363 264.716 
L 60.376522 258.957136 
L 74.464905 22.796 
L 74.464905 264.716 
L 74.537064 258.889592 
L 88.621559 22.796 
L 88.621559 264.716 
L 88.693718 258.825455 
L 102.774254 22.796 
L 102.774254 264.716 
L 102.846415 258.73503 
L 116.921509 22.796 
L 116.921509 264.716 
L 116.993668 261.07465 
L 131.208464 22.796 
L 131.208464 264.716 
L 131.280622 263.505103 
L 145.640459 22.796 
L 145.640459 264.716 
L 145.712618 261.076473 
L 159.92753 22.796 
L 159.92753 264.716 
L 159.999689 263.504671 
L 174.359455 22.796 
L 174.359455 264.716 
L 174.431614 261.074264 
L 188.646418 22.796 
L 188.646418 264.716 
L 188.718578 263.506113 
L 203.078268 22.796 
L 203.078268 264.716 
L 203.150427 261.076263 
L 217.365347 22.796 
L 217.365347 264.716 
L 217.437506 263.504988 
L 231.79723 22.796 
L 231.79723 264.716 
L 231.86939 261.075827 
L 246.084198 22.796 
L 246.084198 264.716 
L 246.156357 263.505132 
L 260.516088 22.796 
L 260.516088 264.716 
L 260.588247 261.075332 
L 274.803053 22.796 
L 274.803053 264.716 
L 274.875214 263.504181 
L 289.23494 22.796 
L 289.23494 264.716 
L 289.307098 261.075897 
L 303.521894 22.796 
L 303.521894 264.716 
L 303.594053 263.505969 
L 317.953793 22.796 
L 317.953793 264.716 
L 318.025951 261.077342 
L 332.240881 22.796 
L 332.240881 264.716 
L 332.31304 263.505334 
L 346.672819 22.796 
L 346.672819 264.716 
L 346.744978 261.076208 
L 360.959789 22.796 
L 360.959789 264.716 
L 361.031948 263.505305 
L 374.164911 43.35869 
L 374.164911 43.35869 
" style="fill:none;stroke:#008000;stroke-linecap:square;stroke-width:1.5;"/>
   </g>
   <g id="patch_3">
    <path d="M 33.2875 276.812 
L 33.2875 10.7 
" style="fill:none;stroke:#000000;stroke-linecap:square;stroke-linejoin:miter;stroke-width:0.8;"/>
   </g>
   <g id="patch_4">
    <path d="M 390.4075 276.812 
L 390.4075 10.7 
" style="fill:none;stroke:#000000;stroke-linecap:square;stroke-linejoin:miter;stroke-width:0.8;"/>
   </g>
   <g id="patch_5">
    <path d="M 33.2875 276.812 
L 390.407499 276.812 
" style="fill:none;stroke:#000000;stroke-linecap:square;stroke-linejoin:miter;stroke-width:0.8;"/>
   </g>
   <g id="patch_6">
    <path d="M 33.2875 10.7 
L 390.407499 10.7 
" style="fill:none;stroke:#000000;stroke-linecap:square;stroke-linejoin:miter;stroke-width:0.8;"/>
   </g>
  </g>
 </g>
 <defs>
  <clipPath id="p81980d4464">
   <rect height="266.112" width="357.12" x="33.2875" y="10.7"/>
  </clipPath>
 </defs>
</svg>
