<?xml version="1.0" encoding="utf-8" standalone="no"?>
<!DOCTYPE svg PUBLIC "-//W3C//DTD SVG 1.1//EN"
  "http://www.w3.org/Graphics/SVG/1.1/DTD/svg11.dtd">
<!-- Created with matplotlib (https://matplotlib.org/) -->
<svg height="313.36825pt" version="1.1" viewBox="0 0 394.745 313.36825" width="394.745pt" xmlns="http://www.w3.org/2000/svg" xmlns:xlink="http://www.w3.org/1999/xlink">
 <defs>
  <style type="text/css">
*{stroke-linecap:butt;stroke-linejoin:round;}
  </style>
 </defs>
 <g id="figure_1">
  <g id="patch_1">
   <path d="M 0 313.36825 
L 394.745 313.36825 
L 394.745 0 
L 0 0 
z
" style="fill:#ffffff;"/>
  </g>
  <g id="axes_1">
   <g id="patch_2">
    <path d="M 26.925 276.812 
L 384.045 276.812 
L 384.045 10.7 
L 26.925 10.7 
z
" style="fill:#ffffff;"/>
   </g>
   <g id="matplotlib.axis_1">
    <g id="xtick_1">
     <g id="line2d_1">
      <defs>
       <path d="M 0 0 
L 0 3.5 
" id="m77f85fd945" style="stroke:#000000;stroke-width:0.8;"/>
      </defs>
      <g>
       <use style="stroke:#000000;stroke-width:0.8;" x="79.293823" xlink:href="#m77f85fd945" y="276.812"/>
      </g>
     </g>
     <g id="text_1">
      <!-- 20 -->
      <defs>
       <path d="M 19.1875 8.296875 
L 53.609375 8.296875 
L 53.609375 0 
L 7.328125 0 
L 7.328125 8.296875 
Q 12.9375 14.109375 22.625 23.890625 
Q 32.328125 33.6875 34.8125 36.53125 
Q 39.546875 41.84375 41.421875 45.53125 
Q 43.3125 49.21875 43.3125 52.78125 
Q 43.3125 58.59375 39.234375 62.25 
Q 35.15625 65.921875 28.609375 65.921875 
Q 23.96875 65.921875 18.8125 64.3125 
Q 13.671875 62.703125 7.8125 59.421875 
L 7.8125 69.390625 
Q 13.765625 71.78125 18.9375 73 
Q 24.125 74.21875 28.421875 74.21875 
Q 39.75 74.21875 46.484375 68.546875 
Q 53.21875 62.890625 53.21875 53.421875 
Q 53.21875 48.921875 51.53125 44.890625 
Q 49.859375 40.875 45.40625 35.40625 
Q 44.1875 33.984375 37.640625 27.21875 
Q 31.109375 20.453125 19.1875 8.296875 
z
" id="DejaVuSans-50"/>
       <path d="M 31.78125 66.40625 
Q 24.171875 66.40625 20.328125 58.90625 
Q 16.5 51.421875 16.5 36.375 
Q 16.5 21.390625 20.328125 13.890625 
Q 24.171875 6.390625 31.78125 6.390625 
Q 39.453125 6.390625 43.28125 13.890625 
Q 47.125 21.390625 47.125 36.375 
Q 47.125 51.421875 43.28125 58.90625 
Q 39.453125 66.40625 31.78125 66.40625 
z
M 31.78125 74.21875 
Q 44.046875 74.21875 50.515625 64.515625 
Q 56.984375 54.828125 56.984375 36.375 
Q 56.984375 17.96875 50.515625 8.265625 
Q 44.046875 -1.421875 31.78125 -1.421875 
Q 19.53125 -1.421875 13.0625 8.265625 
Q 6.59375 17.96875 6.59375 36.375 
Q 6.59375 54.828125 13.0625 64.515625 
Q 19.53125 74.21875 31.78125 74.21875 
z
" id="DejaVuSans-48"/>
      </defs>
      <g transform="translate(72.931323 291.410437)scale(0.1 -0.1)">
       <use xlink:href="#DejaVuSans-50"/>
       <use x="63.623047" xlink:href="#DejaVuSans-48"/>
      </g>
     </g>
    </g>
    <g id="xtick_2">
     <g id="line2d_2">
      <g>
       <use style="stroke:#000000;stroke-width:0.8;" x="151.710852" xlink:href="#m77f85fd945" y="276.812"/>
      </g>
     </g>
     <g id="text_2">
      <!-- 30 -->
      <defs>
       <path d="M 40.578125 39.3125 
Q 47.65625 37.796875 51.625 33 
Q 55.609375 28.21875 55.609375 21.1875 
Q 55.609375 10.40625 48.1875 4.484375 
Q 40.765625 -1.421875 27.09375 -1.421875 
Q 22.515625 -1.421875 17.65625 -0.515625 
Q 12.796875 0.390625 7.625 2.203125 
L 7.625 11.71875 
Q 11.71875 9.328125 16.59375 8.109375 
Q 21.484375 6.890625 26.8125 6.890625 
Q 36.078125 6.890625 40.9375 10.546875 
Q 45.796875 14.203125 45.796875 21.1875 
Q 45.796875 27.640625 41.28125 31.265625 
Q 36.765625 34.90625 28.71875 34.90625 
L 20.21875 34.90625 
L 20.21875 43.015625 
L 29.109375 43.015625 
Q 36.375 43.015625 40.234375 45.921875 
Q 44.09375 48.828125 44.09375 54.296875 
Q 44.09375 59.90625 40.109375 62.90625 
Q 36.140625 65.921875 28.71875 65.921875 
Q 24.65625 65.921875 20.015625 65.03125 
Q 15.375 64.15625 9.8125 62.3125 
L 9.8125 71.09375 
Q 15.4375 72.65625 20.34375 73.4375 
Q 25.25 74.21875 29.59375 74.21875 
Q 40.828125 74.21875 47.359375 69.109375 
Q 53.90625 64.015625 53.90625 55.328125 
Q 53.90625 49.265625 50.4375 45.09375 
Q 46.96875 40.921875 40.578125 39.3125 
z
" id="DejaVuSans-51"/>
      </defs>
      <g transform="translate(145.348352 291.410437)scale(0.1 -0.1)">
       <use xlink:href="#DejaVuSans-51"/>
       <use x="63.623047" xlink:href="#DejaVuSans-48"/>
      </g>
     </g>
    </g>
    <g id="xtick_3">
     <g id="line2d_3">
      <g>
       <use style="stroke:#000000;stroke-width:0.8;" x="224.127878" xlink:href="#m77f85fd945" y="276.812"/>
      </g>
     </g>
     <g id="text_3">
      <!-- 40 -->
      <defs>
       <path d="M 37.796875 64.3125 
L 12.890625 25.390625 
L 37.796875 25.390625 
z
M 35.203125 72.90625 
L 47.609375 72.90625 
L 47.609375 25.390625 
L 58.015625 25.390625 
L 58.015625 17.1875 
L 47.609375 17.1875 
L 47.609375 0 
L 37.796875 0 
L 37.796875 17.1875 
L 4.890625 17.1875 
L 4.890625 26.703125 
z
" id="DejaVuSans-52"/>
      </defs>
      <g transform="translate(217.765378 291.410437)scale(0.1 -0.1)">
       <use xlink:href="#DejaVuSans-52"/>
       <use x="63.623047" xlink:href="#DejaVuSans-48"/>
      </g>
     </g>
    </g>
    <g id="xtick_4">
     <g id="line2d_4">
      <g>
       <use style="stroke:#000000;stroke-width:0.8;" x="296.544907" xlink:href="#m77f85fd945" y="276.812"/>
      </g>
     </g>
     <g id="text_4">
      <!-- 50 -->
      <defs>
       <path d="M 10.796875 72.90625 
L 49.515625 72.90625 
L 49.515625 64.59375 
L 19.828125 64.59375 
L 19.828125 46.734375 
Q 21.96875 47.46875 24.109375 47.828125 
Q 26.265625 48.1875 28.421875 48.1875 
Q 40.625 48.1875 47.75 41.5 
Q 54.890625 34.8125 54.890625 23.390625 
Q 54.890625 11.625 47.5625 5.09375 
Q 40.234375 -1.421875 26.90625 -1.421875 
Q 22.3125 -1.421875 17.546875 -0.640625 
Q 12.796875 0.140625 7.71875 1.703125 
L 7.71875 11.625 
Q 12.109375 9.234375 16.796875 8.0625 
Q 21.484375 6.890625 26.703125 6.890625 
Q 35.15625 6.890625 40.078125 11.328125 
Q 45.015625 15.765625 45.015625 23.390625 
Q 45.015625 31 40.078125 35.4375 
Q 35.15625 39.890625 26.703125 39.890625 
Q 22.75 39.890625 18.8125 39.015625 
Q 14.890625 38.140625 10.796875 36.28125 
z
" id="DejaVuSans-53"/>
      </defs>
      <g transform="translate(290.182407 291.410437)scale(0.1 -0.1)">
       <use xlink:href="#DejaVuSans-53"/>
       <use x="63.623047" xlink:href="#DejaVuSans-48"/>
      </g>
     </g>
    </g>
    <g id="xtick_5">
     <g id="line2d_5">
      <g>
       <use style="stroke:#000000;stroke-width:0.8;" x="368.961935" xlink:href="#m77f85fd945" y="276.812"/>
      </g>
     </g>
     <g id="text_5">
      <!-- 60 -->
      <defs>
       <path d="M 33.015625 40.375 
Q 26.375 40.375 22.484375 35.828125 
Q 18.609375 31.296875 18.609375 23.390625 
Q 18.609375 15.53125 22.484375 10.953125 
Q 26.375 6.390625 33.015625 6.390625 
Q 39.65625 6.390625 43.53125 10.953125 
Q 47.40625 15.53125 47.40625 23.390625 
Q 47.40625 31.296875 43.53125 35.828125 
Q 39.65625 40.375 33.015625 40.375 
z
M 52.59375 71.296875 
L 52.59375 62.3125 
Q 48.875 64.0625 45.09375 64.984375 
Q 41.3125 65.921875 37.59375 65.921875 
Q 27.828125 65.921875 22.671875 59.328125 
Q 17.53125 52.734375 16.796875 39.40625 
Q 19.671875 43.65625 24.015625 45.921875 
Q 28.375 48.1875 33.59375 48.1875 
Q 44.578125 48.1875 50.953125 41.515625 
Q 57.328125 34.859375 57.328125 23.390625 
Q 57.328125 12.15625 50.6875 5.359375 
Q 44.046875 -1.421875 33.015625 -1.421875 
Q 20.359375 -1.421875 13.671875 8.265625 
Q 6.984375 17.96875 6.984375 36.375 
Q 6.984375 53.65625 15.1875 63.9375 
Q 23.390625 74.21875 37.203125 74.21875 
Q 40.921875 74.21875 44.703125 73.484375 
Q 48.484375 72.75 52.59375 71.296875 
z
" id="DejaVuSans-54"/>
      </defs>
      <g transform="translate(362.599435 291.410437)scale(0.1 -0.1)">
       <use xlink:href="#DejaVuSans-54"/>
       <use x="63.623047" xlink:href="#DejaVuSans-48"/>
      </g>
     </g>
    </g>
    <g id="text_6">
     <!-- +1.5961755e9 -->
     <defs>
      <path d="M 46 62.703125 
L 46 35.5 
L 73.1875 35.5 
L 73.1875 27.203125 
L 46 27.203125 
L 46 0 
L 37.796875 0 
L 37.796875 27.203125 
L 10.59375 27.203125 
L 10.59375 35.5 
L 37.796875 35.5 
L 37.796875 62.703125 
z
" id="DejaVuSans-43"/>
      <path d="M 12.40625 8.296875 
L 28.515625 8.296875 
L 28.515625 63.921875 
L 10.984375 60.40625 
L 10.984375 69.390625 
L 28.421875 72.90625 
L 38.28125 72.90625 
L 38.28125 8.296875 
L 54.390625 8.296875 
L 54.390625 0 
L 12.40625 0 
z
" id="DejaVuSans-49"/>
      <path d="M 10.6875 12.40625 
L 21 12.40625 
L 21 0 
L 10.6875 0 
z
" id="DejaVuSans-46"/>
      <path d="M 10.984375 1.515625 
L 10.984375 10.5 
Q 14.703125 8.734375 18.5 7.8125 
Q 22.3125 6.890625 25.984375 6.890625 
Q 35.75 6.890625 40.890625 13.453125 
Q 46.046875 20.015625 46.78125 33.40625 
Q 43.953125 29.203125 39.59375 26.953125 
Q 35.25 24.703125 29.984375 24.703125 
Q 19.046875 24.703125 12.671875 31.3125 
Q 6.296875 37.9375 6.296875 49.421875 
Q 6.296875 60.640625 12.9375 67.421875 
Q 19.578125 74.21875 30.609375 74.21875 
Q 43.265625 74.21875 49.921875 64.515625 
Q 56.59375 54.828125 56.59375 36.375 
Q 56.59375 19.140625 48.40625 8.859375 
Q 40.234375 -1.421875 26.421875 -1.421875 
Q 22.703125 -1.421875 18.890625 -0.6875 
Q 15.09375 0.046875 10.984375 1.515625 
z
M 30.609375 32.421875 
Q 37.25 32.421875 41.125 36.953125 
Q 45.015625 41.5 45.015625 49.421875 
Q 45.015625 57.28125 41.125 61.84375 
Q 37.25 66.40625 30.609375 66.40625 
Q 23.96875 66.40625 20.09375 61.84375 
Q 16.21875 57.28125 16.21875 49.421875 
Q 16.21875 41.5 20.09375 36.953125 
Q 23.96875 32.421875 30.609375 32.421875 
z
" id="DejaVuSans-57"/>
      <path d="M 8.203125 72.90625 
L 55.078125 72.90625 
L 55.078125 68.703125 
L 28.609375 0 
L 18.3125 0 
L 43.21875 64.59375 
L 8.203125 64.59375 
z
" id="DejaVuSans-55"/>
      <path d="M 56.203125 29.59375 
L 56.203125 25.203125 
L 14.890625 25.203125 
Q 15.484375 15.921875 20.484375 11.0625 
Q 25.484375 6.203125 34.421875 6.203125 
Q 39.59375 6.203125 44.453125 7.46875 
Q 49.3125 8.734375 54.109375 11.28125 
L 54.109375 2.78125 
Q 49.265625 0.734375 44.1875 -0.34375 
Q 39.109375 -1.421875 33.890625 -1.421875 
Q 20.796875 -1.421875 13.15625 6.1875 
Q 5.515625 13.8125 5.515625 26.8125 
Q 5.515625 40.234375 12.765625 48.109375 
Q 20.015625 56 32.328125 56 
Q 43.359375 56 49.78125 48.890625 
Q 56.203125 41.796875 56.203125 29.59375 
z
M 47.21875 32.234375 
Q 47.125 39.59375 43.09375 43.984375 
Q 39.0625 48.390625 32.421875 48.390625 
Q 24.90625 48.390625 20.390625 44.140625 
Q 15.875 39.890625 15.1875 32.171875 
z
" id="DejaVuSans-101"/>
     </defs>
     <g transform="translate(309.071563 304.088562)scale(0.1 -0.1)">
      <use xlink:href="#DejaVuSans-43"/>
      <use x="83.789062" xlink:href="#DejaVuSans-49"/>
      <use x="147.412109" xlink:href="#DejaVuSans-46"/>
      <use x="179.199219" xlink:href="#DejaVuSans-53"/>
      <use x="242.822266" xlink:href="#DejaVuSans-57"/>
      <use x="306.445312" xlink:href="#DejaVuSans-54"/>
      <use x="370.068359" xlink:href="#DejaVuSans-49"/>
      <use x="433.691406" xlink:href="#DejaVuSans-55"/>
      <use x="497.314453" xlink:href="#DejaVuSans-53"/>
      <use x="560.9375" xlink:href="#DejaVuSans-53"/>
      <use x="624.560547" xlink:href="#DejaVuSans-101"/>
      <use x="686.083984" xlink:href="#DejaVuSans-57"/>
     </g>
    </g>
   </g>
   <g id="matplotlib.axis_2">
    <g id="ytick_1">
     <g id="line2d_6">
      <defs>
       <path d="M 0 0 
L -3.5 0 
" id="m2d46ed02b2" style="stroke:#000000;stroke-width:0.8;"/>
      </defs>
      <g>
       <use style="stroke:#000000;stroke-width:0.8;" x="26.925" xlink:href="#m2d46ed02b2" y="249.464908"/>
      </g>
     </g>
     <g id="text_7">
      <!-- 5 -->
      <g transform="translate(13.5625 253.264127)scale(0.1 -0.1)">
       <use xlink:href="#DejaVuSans-53"/>
      </g>
     </g>
    </g>
    <g id="ytick_2">
     <g id="line2d_7">
      <g>
       <use style="stroke:#000000;stroke-width:0.8;" x="26.925" xlink:href="#m2d46ed02b2" y="195.516561"/>
      </g>
     </g>
     <g id="text_8">
      <!-- 10 -->
      <g transform="translate(7.2 199.315779)scale(0.1 -0.1)">
       <use xlink:href="#DejaVuSans-49"/>
       <use x="63.623047" xlink:href="#DejaVuSans-48"/>
      </g>
     </g>
    </g>
    <g id="ytick_3">
     <g id="line2d_8">
      <g>
       <use style="stroke:#000000;stroke-width:0.8;" x="26.925" xlink:href="#m2d46ed02b2" y="141.568213"/>
      </g>
     </g>
     <g id="text_9">
      <!-- 15 -->
      <g transform="translate(7.2 145.367432)scale(0.1 -0.1)">
       <use xlink:href="#DejaVuSans-49"/>
       <use x="63.623047" xlink:href="#DejaVuSans-53"/>
      </g>
     </g>
    </g>
    <g id="ytick_4">
     <g id="line2d_9">
      <g>
       <use style="stroke:#000000;stroke-width:0.8;" x="26.925" xlink:href="#m2d46ed02b2" y="87.619865"/>
      </g>
     </g>
     <g id="text_10">
      <!-- 20 -->
      <g transform="translate(7.2 91.419084)scale(0.1 -0.1)">
       <use xlink:href="#DejaVuSans-50"/>
       <use x="63.623047" xlink:href="#DejaVuSans-48"/>
      </g>
     </g>
    </g>
    <g id="ytick_5">
     <g id="line2d_10">
      <g>
       <use style="stroke:#000000;stroke-width:0.8;" x="26.925" xlink:href="#m2d46ed02b2" y="33.671518"/>
      </g>
     </g>
     <g id="text_11">
      <!-- 25 -->
      <g transform="translate(7.2 37.470736)scale(0.1 -0.1)">
       <use xlink:href="#DejaVuSans-50"/>
       <use x="63.623047" xlink:href="#DejaVuSans-53"/>
      </g>
     </g>
    </g>
   </g>
   <g id="line2d_11">
    <path clip-path="url(#p9d500c40be)" d="M 43.157724 33.68402 
L 45.257816 33.667813 
L 45.692318 33.650681 
L 47.285492 33.676611 
L 47.79241 33.657163 
L 51.340841 33.659478 
L 51.63051 33.668739 
L 52.499514 33.674296 
L 52.861597 33.670128 
L 53.006432 22.804798 
L 53.553888 22.816837 
L 53.843555 22.824709 
L 53.915974 22.830265 
L 54.060806 104.561734 
L 57.247152 104.552936 
L 57.609238 104.562197 
L 58.116158 104.526079 
L 58.695492 104.552936 
L 58.985161 104.533488 
L 59.419662 104.58859 
L 59.70933 104.564512 
L 60.505917 104.564512 
L 61.37492 104.565438 
L 62.678425 104.54136 
L 62.895676 104.567753 
L 63.112926 104.58257 
L 63.619846 104.545064 
L 64.199181 104.551084 
L 64.923351 104.537192 
L 66.516523 104.579329 
L 66.733774 104.55664 
L 67.31311 104.53534 
L 67.457945 81.972582 
L 68.111185 81.938317 
L 68.25602 160.72595 
L 68.980188 160.695853 
L 69.269857 160.734285 
L 69.776775 160.699557 
L 70.573362 160.731507 
L 71.876867 160.7153 
L 72.166534 160.733822 
L 72.601036 160.725487 
L 73.107956 160.744009 
L 73.470041 160.71067 
L 74.049376 160.73799 
L 74.411461 160.694001 
L 74.701128 160.745398 
L 75.063213 160.695853 
L 76.004633 160.71067 
L 76.439137 160.709281 
L 76.656387 160.732433 
L 76.946054 160.706966 
L 79.118563 160.710207 
L 79.408232 160.735674 
L 80.132401 160.696316 
L 81.725574 160.702798 
L 81.870407 142.002601 
L 82.3668 142.003527 
L 82.511633 220.735993 
L 83.30822 220.725807 
L 83.887556 220.746643 
L 96.198439 220.748959 
L 96.343273 202.008252 
L 96.623608 202.015198 
L 96.696024 264.649865 
L 96.76844 264.625787 
L 97.058109 264.644772 
L 97.420193 264.631344 
L 98.361614 264.64292 
L 100.389288 264.663757 
L 100.968624 264.655885 
L 102.416964 264.619768 
L 102.561798 264.650791 
L 103.068716 264.644772 
L 103.503218 264.663294 
L 104.372221 264.650791 
L 104.951557 264.663294 
L 105.458475 264.645698 
L 109.151741 264.643383 
L 109.513826 264.629955 
L 110.093161 264.637826 
L 110.38283 264.676259 
L 110.672497 264.634585 
L 110.817331 245.969834 
L 110.955498 264.680809 
L 111.027916 264.678031 
L 111.245167 264.68405 
L 115.735018 264.668307 
L 115.952269 264.694237 
L 116.531605 264.68868 
L 117.110939 264.664139 
L 117.473024 264.711833 
L 117.617859 264.648396 
L 117.83511 264.677104 
L 118.414446 264.666918 
L 119.283449 264.688217 
L 119.935202 264.668307 
L 120.224869 264.668307 
L 120.65937 264.69007 
L 121.238707 264.682661 
L 121.528374 264.689607 
L 121.745625 264.664602 
L 125.149223 264.69007 
L 125.22164 207.343631 
L 125.294056 207.346409 
L 125.434883 264.541454 
L 125.507299 264.527563 
L 125.796968 264.499781 
L 126.23147 264.532194 
L 130.50407 264.526637 
L 130.721321 264.539602 
L 131.735159 264.54377 
L 132.169661 264.525711 
L 132.893829 264.503022 
L 133.183498 264.532657 
L 134.052502 264.544696 
L 134.269753 264.54377 
L 134.921505 264.535435 
L 135.573257 264.510894 
L 135.790508 264.555346 
L 136.22501 264.532657 
L 136.876762 264.5484 
L 137.094013 264.534509 
L 137.8906 264.540991 
L 139.194105 264.513672 
L 139.411356 264.505337 
L 139.483772 264.506263 
L 139.628607 245.128722 
L 139.773184 245.117609 
L 139.918018 264.573261 
L 140.642187 264.56863 
L 140.859438 264.574187 
L 141.29394 264.564926 
L 141.728441 264.57465 
L 142.235361 264.561685 
L 142.669863 264.567241 
L 144.480286 264.577428 
L 145.059622 264.579743 
L 145.349289 264.586226 
L 153.966908 264.569557 
L 154.039324 206.242455 
L 154.111742 206.303114 
L 154.256659 245.123198 
L 154.329075 245.1144 
L 154.69116 245.092637 
L 154.835995 245.113937 
L 155.487747 245.105139 
L 155.704998 245.133848 
L 156.35675 245.108381 
L 156.863668 245.122272 
L 157.443005 245.126439 
L 159.687931 245.129217 
L 159.977598 245.107454 
L 160.194849 245.144961 
L 160.4121 245.148665 
L 161.353519 245.095415 
L 161.57077 245.124124 
L 161.788021 245.121809 
L 162.367357 245.122272 
L 165.481287 245.113474 
L 166.495125 245.10375 
L 167.002043 245.150054 
L 167.364128 245.127828 
L 167.943464 245.105139 
L 168.305548 245.126439 
L 168.377966 225.710577 
L 168.450382 225.739285 
L 168.594845 225.71104 
L 168.667261 264.571872 
L 168.739679 264.552424 
L 182.788568 264.573261 
L 182.860987 206.242779 
L 182.933403 206.282137 
L 183.078362 245.118428 
L 183.150778 245.105926 
L 184.237032 245.108704 
L 184.454283 245.116576 
L 184.671534 245.110093 
L 185.25087 245.120743 
L 185.685371 245.104537 
L 186.192291 245.130004 
L 186.699209 245.096202 
L 189.378637 245.104074 
L 189.595888 245.134634 
L 189.885555 245.102685 
L 191.913231 245.108241 
L 192.202898 245.102685 
L 192.420149 245.118891 
L 192.709816 245.092498 
L 193.361568 245.127226 
L 194.158155 245.108241 
L 194.447824 245.112408 
L 194.809908 245.129078 
L 195.24441 245.123984 
L 195.678911 245.132782 
L 197.127251 245.117502 
L 197.199669 225.717522 
L 197.272085 225.736507 
L 197.416563 225.721227 
L 197.561398 264.580206 
L 204.078924 264.584374 
L 204.296175 264.570946 
L 205.237595 264.554739 
L 205.744514 264.573724 
L 206.5411 264.567241 
L 206.75835 264.561685 
L 207.554937 264.572335 
L 207.917023 264.558907 
L 208.20669 264.57002 
L 208.930861 264.564463 
L 209.220528 264.550572 
L 209.655029 264.576502 
L 210.234365 264.571872 
L 210.958534 264.569557 
L 211.175785 264.575113 
L 211.465454 264.570946 
L 211.682705 264.594561 
L 211.827538 225.682389 
L 211.972536 264.575634 
L 212.189787 264.558964 
L 212.551872 264.535349 
L 213.131208 264.538128 
L 213.493292 264.548777 
L 216.317554 264.533034 
L 216.534805 264.546462 
L 216.896889 264.553408 
L 217.476225 264.559427 
L 217.693476 264.556649 
L 218.272812 264.545999 
L 218.562479 264.546462 
L 221.459158 264.541369 
L 221.676409 264.52933 
L 222.038494 264.568225 
L 222.328161 264.544147 
L 225.949009 264.57193 
L 226.093843 245.128722 
L 226.238344 264.421163 
L 226.31076 264.408198 
L 227.252182 264.399863 
L 227.976351 264.371617 
L 230.293694 264.405882 
L 230.800611 264.402178 
L 231.307531 264.42533 
L 231.597198 264.421626 
L 232.0317 264.396622 
L 232.466202 264.390139 
L 232.973122 264.380878 
L 233.335205 264.4207 
L 233.842125 264.409124 
L 234.711128 264.417922 
L 235.869799 264.369302 
L 236.159468 264.415143 
L 240.432068 264.395696 
L 240.576902 206.271364 
L 240.721807 264.538765 
L 240.794226 264.532746 
L 242.532232 264.538765 
L 243.256401 264.535061 
L 244.48749 264.567937 
L 244.704741 264.507741 
L 244.921991 264.542006 
L 245.21166 264.550341 
L 245.646162 264.513761 
L 245.790995 264.520706 
L 247.529003 264.535061 
L 247.891087 264.549415 
L 250.642931 264.574419 
L 250.860182 264.542933 
L 251.222267 264.526726 
L 252.453356 264.537376 
L 253.177525 264.550341 
L 253.53961 264.578587 
L 253.974112 264.523948 
L 254.191362 264.54108 
L 254.553448 264.518391 
L 254.770699 264.554509 
L 254.915533 245.145392 
L 255.132372 264.422017 
L 255.349623 264.387289 
L 255.711708 264.400254 
L 256.580711 264.417849 
L 256.797962 264.377102 
L 257.087629 264.415997 
L 257.449715 264.380806 
L 257.666965 264.420628 
L 258.101467 264.372934 
L 258.318718 264.38451 
L 258.680803 264.402569 
L 258.898054 264.37525 
L 259.984308 264.403495 
L 260.273977 264.373397 
L 260.853312 264.423406 
L 261.142981 264.360895 
L 261.432648 264.397939 
L 262.446486 264.410441 
L 262.736153 264.397476 
L 264.329327 264.390067 
L 264.618994 264.397476 
L 264.908661 264.400717 
L 265.777666 264.409052 
L 266.212168 264.404421 
L 266.429419 264.378954 
L 266.86392 264.398865 
L 267.515673 264.394697 
L 268.239841 264.409978 
L 269.036428 264.413682 
L 269.253679 264.390067 
L 269.326096 206.288699 
L 269.398514 206.30861 
L 269.543417 264.550544 
L 269.615833 264.538041 
L 269.977919 264.561193 
L 270.195169 264.557952 
L 270.702087 264.586198 
L 270.919338 264.558415 
L 271.426258 264.547765 
L 273.381516 264.5774 
L 273.671183 264.554711 
L 274.105684 264.536652 
L 283.592306 264.553322 
L 283.664722 245.130111 
L 283.737141 245.158357 
L 283.953938 264.425526 
L 284.316021 264.412097 
L 298.075245 264.399595 
L 298.147661 206.278889 
L 298.220078 206.288613 
L 298.43742 264.549994 
L 299.089172 264.557403 
L 299.668509 264.531473 
L 299.885759 264.560644 
L 300.899597 264.571757 
L 301.189264 264.545827 
L 301.55135 264.566664 
L 303.361774 264.561107 
L 303.868692 264.540734 
L 304.230778 264.572684 
L 305.027363 264.574536 
L 305.244614 264.555551 
L 306.113619 264.565738 
L 306.258451 264.568053 
L 312.413893 264.523138 
L 312.558727 245.143076 
L 312.703234 264.435768 
L 312.77565 264.422803 
L 313.137735 264.412616 
L 313.861904 264.425118 
L 314.586075 264.404744 
L 314.730907 264.42697 
L 315.527494 264.40706 
L 315.817163 264.431601 
L 316.686167 264.414468 
L 317.193085 264.425581 
L 317.410336 264.423266 
L 317.917253 264.412153 
L 318.641424 264.420951 
L 319.00351 264.419562 
L 319.655262 264.447807 
L 319.872513 264.401503 
L 320.524265 264.445029 
L 320.813932 264.391316 
L 321.031183 264.415857 
L 321.393269 264.414931 
L 326.896957 264.398262 
L 327.041792 206.262759 
L 327.186661 264.541273 
L 327.259079 264.528308 
L 327.765997 264.547293 
L 341.235552 264.559332 
L 341.307968 245.111126 
L 341.380386 245.139835 
L 341.524796 264.407374 
L 341.597214 264.399039 
L 341.814465 264.445806 
L 341.959297 264.395335 
L 342.248966 264.436083 
L 344.493891 264.421728 
L 344.78356 264.407837 
L 345.94223 264.418024 
L 346.159481 264.417561 
L 346.738817 264.422191 
L 346.956068 264.417098 
L 347.825071 264.423117 
L 348.331991 264.416635 
L 348.694075 264.427285 
L 348.911325 264.419413 
L 350.214832 264.411541 
L 350.649334 264.429137 
L 350.866585 264.419413 
L 353.83568 264.417098 
L 354.052931 264.436546 
L 354.487432 264.40367 
L 354.99435 264.405985 
L 355.718521 264.393483 
L 355.790937 206.247395 
L 355.863354 206.270547 
L 356.008307 264.538412 
L 356.080725 264.507388 
L 356.370392 264.535633 
L 356.949728 264.51387 
L 359.701572 264.524983 
L 360.063658 264.518964 
L 360.787827 264.537022 
L 361.077494 264.518501 
L 361.511995 264.531929 
L 361.729246 264.520353 
L 362.525833 264.526372 
L 362.960335 264.501831 
L 363.105169 264.516649 
L 367.812271 264.54119 
L 367.812271 264.54119 
" style="fill:none;stroke:#ff0000;stroke-linecap:square;stroke-width:1.5;"/>
   </g>
   <g id="patch_3">
    <path d="M 26.925 276.812 
L 26.925 10.7 
" style="fill:none;stroke:#000000;stroke-linecap:square;stroke-linejoin:miter;stroke-width:0.8;"/>
   </g>
   <g id="patch_4">
    <path d="M 384.045 276.812 
L 384.045 10.7 
" style="fill:none;stroke:#000000;stroke-linecap:square;stroke-linejoin:miter;stroke-width:0.8;"/>
   </g>
   <g id="patch_5">
    <path d="M 26.924999 276.812 
L 384.044998 276.812 
" style="fill:none;stroke:#000000;stroke-linecap:square;stroke-linejoin:miter;stroke-width:0.8;"/>
   </g>
   <g id="patch_6">
    <path d="M 26.924999 10.7 
L 384.044998 10.7 
" style="fill:none;stroke:#000000;stroke-linecap:square;stroke-linejoin:miter;stroke-width:0.8;"/>
   </g>
  </g>
 </g>
 <defs>
  <clipPath id="p9d500c40be">
   <rect height="266.112" width="357.12" x="26.925" y="10.7"/>
  </clipPath>
 </defs>
</svg>
