<?xml version="1.0" encoding="utf-8" standalone="no"?>
<!DOCTYPE svg PUBLIC "-//W3C//DTD SVG 1.1//EN"
  "http://www.w3.org/Graphics/SVG/1.1/DTD/svg11.dtd">
<!-- Created with matplotlib (https://matplotlib.org/) -->
<svg height="313.36825pt" version="1.1" viewBox="0 0 401.1075 313.36825" width="401.1075pt" xmlns="http://www.w3.org/2000/svg" xmlns:xlink="http://www.w3.org/1999/xlink">
 <defs>
  <style type="text/css">
*{stroke-linecap:butt;stroke-linejoin:round;}
  </style>
 </defs>
 <g id="figure_1">
  <g id="patch_1">
   <path d="M 0 313.36825 
L 401.1075 313.36825 
L 401.1075 0 
L 0 0 
z
" style="fill:#ffffff;"/>
  </g>
  <g id="axes_1">
   <g id="patch_2">
    <path d="M 33.2875 276.812 
L 390.4075 276.812 
L 390.4075 10.7 
L 33.2875 10.7 
z
" style="fill:#ffffff;"/>
   </g>
   <g id="matplotlib.axis_1">
    <g id="xtick_1">
     <g id="line2d_1">
      <defs>
       <path d="M 0 0 
L 0 3.5 
" id="m4340a372fc" style="stroke:#000000;stroke-width:0.8;"/>
      </defs>
      <g>
       <use style="stroke:#000000;stroke-width:0.8;" x="49.520227" xlink:href="#m4340a372fc" y="276.812"/>
      </g>
     </g>
     <g id="text_1">
      <!-- 570 -->
      <defs>
       <path d="M 10.796875 72.90625 
L 49.515625 72.90625 
L 49.515625 64.59375 
L 19.828125 64.59375 
L 19.828125 46.734375 
Q 21.96875 47.46875 24.109375 47.828125 
Q 26.265625 48.1875 28.421875 48.1875 
Q 40.625 48.1875 47.75 41.5 
Q 54.890625 34.8125 54.890625 23.390625 
Q 54.890625 11.625 47.5625 5.09375 
Q 40.234375 -1.421875 26.90625 -1.421875 
Q 22.3125 -1.421875 17.546875 -0.640625 
Q 12.796875 0.140625 7.71875 1.703125 
L 7.71875 11.625 
Q 12.109375 9.234375 16.796875 8.0625 
Q 21.484375 6.890625 26.703125 6.890625 
Q 35.15625 6.890625 40.078125 11.328125 
Q 45.015625 15.765625 45.015625 23.390625 
Q 45.015625 31 40.078125 35.4375 
Q 35.15625 39.890625 26.703125 39.890625 
Q 22.75 39.890625 18.8125 39.015625 
Q 14.890625 38.140625 10.796875 36.28125 
z
" id="DejaVuSans-53"/>
       <path d="M 8.203125 72.90625 
L 55.078125 72.90625 
L 55.078125 68.703125 
L 28.609375 0 
L 18.3125 0 
L 43.21875 64.59375 
L 8.203125 64.59375 
z
" id="DejaVuSans-55"/>
       <path d="M 31.78125 66.40625 
Q 24.171875 66.40625 20.328125 58.90625 
Q 16.5 51.421875 16.5 36.375 
Q 16.5 21.390625 20.328125 13.890625 
Q 24.171875 6.390625 31.78125 6.390625 
Q 39.453125 6.390625 43.28125 13.890625 
Q 47.125 21.390625 47.125 36.375 
Q 47.125 51.421875 43.28125 58.90625 
Q 39.453125 66.40625 31.78125 66.40625 
z
M 31.78125 74.21875 
Q 44.046875 74.21875 50.515625 64.515625 
Q 56.984375 54.828125 56.984375 36.375 
Q 56.984375 17.96875 50.515625 8.265625 
Q 44.046875 -1.421875 31.78125 -1.421875 
Q 19.53125 -1.421875 13.0625 8.265625 
Q 6.59375 17.96875 6.59375 36.375 
Q 6.59375 54.828125 13.0625 64.515625 
Q 19.53125 74.21875 31.78125 74.21875 
z
" id="DejaVuSans-48"/>
      </defs>
      <g transform="translate(39.976477 291.410437)scale(0.1 -0.1)">
       <use xlink:href="#DejaVuSans-53"/>
       <use x="63.623047" xlink:href="#DejaVuSans-55"/>
       <use x="127.246094" xlink:href="#DejaVuSans-48"/>
      </g>
     </g>
    </g>
    <g id="xtick_2">
     <g id="line2d_2">
      <g>
       <use style="stroke:#000000;stroke-width:0.8;" x="121.672668" xlink:href="#m4340a372fc" y="276.812"/>
      </g>
     </g>
     <g id="text_2">
      <!-- 580 -->
      <defs>
       <path d="M 31.78125 34.625 
Q 24.75 34.625 20.71875 30.859375 
Q 16.703125 27.09375 16.703125 20.515625 
Q 16.703125 13.921875 20.71875 10.15625 
Q 24.75 6.390625 31.78125 6.390625 
Q 38.8125 6.390625 42.859375 10.171875 
Q 46.921875 13.96875 46.921875 20.515625 
Q 46.921875 27.09375 42.890625 30.859375 
Q 38.875 34.625 31.78125 34.625 
z
M 21.921875 38.8125 
Q 15.578125 40.375 12.03125 44.71875 
Q 8.5 49.078125 8.5 55.328125 
Q 8.5 64.0625 14.71875 69.140625 
Q 20.953125 74.21875 31.78125 74.21875 
Q 42.671875 74.21875 48.875 69.140625 
Q 55.078125 64.0625 55.078125 55.328125 
Q 55.078125 49.078125 51.53125 44.71875 
Q 48 40.375 41.703125 38.8125 
Q 48.828125 37.15625 52.796875 32.3125 
Q 56.78125 27.484375 56.78125 20.515625 
Q 56.78125 9.90625 50.3125 4.234375 
Q 43.84375 -1.421875 31.78125 -1.421875 
Q 19.734375 -1.421875 13.25 4.234375 
Q 6.78125 9.90625 6.78125 20.515625 
Q 6.78125 27.484375 10.78125 32.3125 
Q 14.796875 37.15625 21.921875 38.8125 
z
M 18.3125 54.390625 
Q 18.3125 48.734375 21.84375 45.5625 
Q 25.390625 42.390625 31.78125 42.390625 
Q 38.140625 42.390625 41.71875 45.5625 
Q 45.3125 48.734375 45.3125 54.390625 
Q 45.3125 60.0625 41.71875 63.234375 
Q 38.140625 66.40625 31.78125 66.40625 
Q 25.390625 66.40625 21.84375 63.234375 
Q 18.3125 60.0625 18.3125 54.390625 
z
" id="DejaVuSans-56"/>
      </defs>
      <g transform="translate(112.128918 291.410437)scale(0.1 -0.1)">
       <use xlink:href="#DejaVuSans-53"/>
       <use x="63.623047" xlink:href="#DejaVuSans-56"/>
       <use x="127.246094" xlink:href="#DejaVuSans-48"/>
      </g>
     </g>
    </g>
    <g id="xtick_3">
     <g id="line2d_3">
      <g>
       <use style="stroke:#000000;stroke-width:0.8;" x="193.825109" xlink:href="#m4340a372fc" y="276.812"/>
      </g>
     </g>
     <g id="text_3">
      <!-- 590 -->
      <defs>
       <path d="M 10.984375 1.515625 
L 10.984375 10.5 
Q 14.703125 8.734375 18.5 7.8125 
Q 22.3125 6.890625 25.984375 6.890625 
Q 35.75 6.890625 40.890625 13.453125 
Q 46.046875 20.015625 46.78125 33.40625 
Q 43.953125 29.203125 39.59375 26.953125 
Q 35.25 24.703125 29.984375 24.703125 
Q 19.046875 24.703125 12.671875 31.3125 
Q 6.296875 37.9375 6.296875 49.421875 
Q 6.296875 60.640625 12.9375 67.421875 
Q 19.578125 74.21875 30.609375 74.21875 
Q 43.265625 74.21875 49.921875 64.515625 
Q 56.59375 54.828125 56.59375 36.375 
Q 56.59375 19.140625 48.40625 8.859375 
Q 40.234375 -1.421875 26.421875 -1.421875 
Q 22.703125 -1.421875 18.890625 -0.6875 
Q 15.09375 0.046875 10.984375 1.515625 
z
M 30.609375 32.421875 
Q 37.25 32.421875 41.125 36.953125 
Q 45.015625 41.5 45.015625 49.421875 
Q 45.015625 57.28125 41.125 61.84375 
Q 37.25 66.40625 30.609375 66.40625 
Q 23.96875 66.40625 20.09375 61.84375 
Q 16.21875 57.28125 16.21875 49.421875 
Q 16.21875 41.5 20.09375 36.953125 
Q 23.96875 32.421875 30.609375 32.421875 
z
" id="DejaVuSans-57"/>
      </defs>
      <g transform="translate(184.281359 291.410437)scale(0.1 -0.1)">
       <use xlink:href="#DejaVuSans-53"/>
       <use x="63.623047" xlink:href="#DejaVuSans-57"/>
       <use x="127.246094" xlink:href="#DejaVuSans-48"/>
      </g>
     </g>
    </g>
    <g id="xtick_4">
     <g id="line2d_4">
      <g>
       <use style="stroke:#000000;stroke-width:0.8;" x="265.977551" xlink:href="#m4340a372fc" y="276.812"/>
      </g>
     </g>
     <g id="text_4">
      <!-- 600 -->
      <defs>
       <path d="M 33.015625 40.375 
Q 26.375 40.375 22.484375 35.828125 
Q 18.609375 31.296875 18.609375 23.390625 
Q 18.609375 15.53125 22.484375 10.953125 
Q 26.375 6.390625 33.015625 6.390625 
Q 39.65625 6.390625 43.53125 10.953125 
Q 47.40625 15.53125 47.40625 23.390625 
Q 47.40625 31.296875 43.53125 35.828125 
Q 39.65625 40.375 33.015625 40.375 
z
M 52.59375 71.296875 
L 52.59375 62.3125 
Q 48.875 64.0625 45.09375 64.984375 
Q 41.3125 65.921875 37.59375 65.921875 
Q 27.828125 65.921875 22.671875 59.328125 
Q 17.53125 52.734375 16.796875 39.40625 
Q 19.671875 43.65625 24.015625 45.921875 
Q 28.375 48.1875 33.59375 48.1875 
Q 44.578125 48.1875 50.953125 41.515625 
Q 57.328125 34.859375 57.328125 23.390625 
Q 57.328125 12.15625 50.6875 5.359375 
Q 44.046875 -1.421875 33.015625 -1.421875 
Q 20.359375 -1.421875 13.671875 8.265625 
Q 6.984375 17.96875 6.984375 36.375 
Q 6.984375 53.65625 15.1875 63.9375 
Q 23.390625 74.21875 37.203125 74.21875 
Q 40.921875 74.21875 44.703125 73.484375 
Q 48.484375 72.75 52.59375 71.296875 
z
" id="DejaVuSans-54"/>
      </defs>
      <g transform="translate(256.433801 291.410437)scale(0.1 -0.1)">
       <use xlink:href="#DejaVuSans-54"/>
       <use x="63.623047" xlink:href="#DejaVuSans-48"/>
       <use x="127.246094" xlink:href="#DejaVuSans-48"/>
      </g>
     </g>
    </g>
    <g id="xtick_5">
     <g id="line2d_5">
      <g>
       <use style="stroke:#000000;stroke-width:0.8;" x="338.129992" xlink:href="#m4340a372fc" y="276.812"/>
      </g>
     </g>
     <g id="text_5">
      <!-- 610 -->
      <defs>
       <path d="M 12.40625 8.296875 
L 28.515625 8.296875 
L 28.515625 63.921875 
L 10.984375 60.40625 
L 10.984375 69.390625 
L 28.421875 72.90625 
L 38.28125 72.90625 
L 38.28125 8.296875 
L 54.390625 8.296875 
L 54.390625 0 
L 12.40625 0 
z
" id="DejaVuSans-49"/>
      </defs>
      <g transform="translate(328.586242 291.410437)scale(0.1 -0.1)">
       <use xlink:href="#DejaVuSans-54"/>
       <use x="63.623047" xlink:href="#DejaVuSans-49"/>
       <use x="127.246094" xlink:href="#DejaVuSans-48"/>
      </g>
     </g>
    </g>
    <g id="text_6">
     <!-- +1.596175e9 -->
     <defs>
      <path d="M 46 62.703125 
L 46 35.5 
L 73.1875 35.5 
L 73.1875 27.203125 
L 46 27.203125 
L 46 0 
L 37.796875 0 
L 37.796875 27.203125 
L 10.59375 27.203125 
L 10.59375 35.5 
L 37.796875 35.5 
L 37.796875 62.703125 
z
" id="DejaVuSans-43"/>
      <path d="M 10.6875 12.40625 
L 21 12.40625 
L 21 0 
L 10.6875 0 
z
" id="DejaVuSans-46"/>
      <path d="M 56.203125 29.59375 
L 56.203125 25.203125 
L 14.890625 25.203125 
Q 15.484375 15.921875 20.484375 11.0625 
Q 25.484375 6.203125 34.421875 6.203125 
Q 39.59375 6.203125 44.453125 7.46875 
Q 49.3125 8.734375 54.109375 11.28125 
L 54.109375 2.78125 
Q 49.265625 0.734375 44.1875 -0.34375 
Q 39.109375 -1.421875 33.890625 -1.421875 
Q 20.796875 -1.421875 13.15625 6.1875 
Q 5.515625 13.8125 5.515625 26.8125 
Q 5.515625 40.234375 12.765625 48.109375 
Q 20.015625 56 32.328125 56 
Q 43.359375 56 49.78125 48.890625 
Q 56.203125 41.796875 56.203125 29.59375 
z
M 47.21875 32.234375 
Q 47.125 39.59375 43.09375 43.984375 
Q 39.0625 48.390625 32.421875 48.390625 
Q 24.90625 48.390625 20.390625 44.140625 
Q 15.875 39.890625 15.1875 32.171875 
z
" id="DejaVuSans-101"/>
     </defs>
     <g transform="translate(321.796563 304.088562)scale(0.1 -0.1)">
      <use xlink:href="#DejaVuSans-43"/>
      <use x="83.789062" xlink:href="#DejaVuSans-49"/>
      <use x="147.412109" xlink:href="#DejaVuSans-46"/>
      <use x="179.199219" xlink:href="#DejaVuSans-53"/>
      <use x="242.822266" xlink:href="#DejaVuSans-57"/>
      <use x="306.445312" xlink:href="#DejaVuSans-54"/>
      <use x="370.068359" xlink:href="#DejaVuSans-49"/>
      <use x="433.691406" xlink:href="#DejaVuSans-55"/>
      <use x="497.314453" xlink:href="#DejaVuSans-53"/>
      <use x="560.9375" xlink:href="#DejaVuSans-101"/>
      <use x="622.460938" xlink:href="#DejaVuSans-57"/>
     </g>
    </g>
   </g>
   <g id="matplotlib.axis_2">
    <g id="ytick_1">
     <g id="line2d_6">
      <defs>
       <path d="M 0 0 
L -3.5 0 
" id="mbad1a06600" style="stroke:#000000;stroke-width:0.8;"/>
      </defs>
      <g>
       <use style="stroke:#000000;stroke-width:0.8;" x="33.2875" xlink:href="#mbad1a06600" y="264.716"/>
      </g>
     </g>
     <g id="text_7">
      <!-- 0 -->
      <g transform="translate(19.925 268.515219)scale(0.1 -0.1)">
       <use xlink:href="#DejaVuSans-48"/>
      </g>
     </g>
    </g>
    <g id="ytick_2">
     <g id="line2d_7">
      <g>
       <use style="stroke:#000000;stroke-width:0.8;" x="33.2875" xlink:href="#mbad1a06600" y="231.116"/>
      </g>
     </g>
     <g id="text_8">
      <!-- 50 -->
      <g transform="translate(13.5625 234.915219)scale(0.1 -0.1)">
       <use xlink:href="#DejaVuSans-53"/>
       <use x="63.623047" xlink:href="#DejaVuSans-48"/>
      </g>
     </g>
    </g>
    <g id="ytick_3">
     <g id="line2d_8">
      <g>
       <use style="stroke:#000000;stroke-width:0.8;" x="33.2875" xlink:href="#mbad1a06600" y="197.516"/>
      </g>
     </g>
     <g id="text_9">
      <!-- 100 -->
      <g transform="translate(7.2 201.315219)scale(0.1 -0.1)">
       <use xlink:href="#DejaVuSans-49"/>
       <use x="63.623047" xlink:href="#DejaVuSans-48"/>
       <use x="127.246094" xlink:href="#DejaVuSans-48"/>
      </g>
     </g>
    </g>
    <g id="ytick_4">
     <g id="line2d_9">
      <g>
       <use style="stroke:#000000;stroke-width:0.8;" x="33.2875" xlink:href="#mbad1a06600" y="163.916"/>
      </g>
     </g>
     <g id="text_10">
      <!-- 150 -->
      <g transform="translate(7.2 167.715219)scale(0.1 -0.1)">
       <use xlink:href="#DejaVuSans-49"/>
       <use x="63.623047" xlink:href="#DejaVuSans-53"/>
       <use x="127.246094" xlink:href="#DejaVuSans-48"/>
      </g>
     </g>
    </g>
    <g id="ytick_5">
     <g id="line2d_10">
      <g>
       <use style="stroke:#000000;stroke-width:0.8;" x="33.2875" xlink:href="#mbad1a06600" y="130.316"/>
      </g>
     </g>
     <g id="text_11">
      <!-- 200 -->
      <defs>
       <path d="M 19.1875 8.296875 
L 53.609375 8.296875 
L 53.609375 0 
L 7.328125 0 
L 7.328125 8.296875 
Q 12.9375 14.109375 22.625 23.890625 
Q 32.328125 33.6875 34.8125 36.53125 
Q 39.546875 41.84375 41.421875 45.53125 
Q 43.3125 49.21875 43.3125 52.78125 
Q 43.3125 58.59375 39.234375 62.25 
Q 35.15625 65.921875 28.609375 65.921875 
Q 23.96875 65.921875 18.8125 64.3125 
Q 13.671875 62.703125 7.8125 59.421875 
L 7.8125 69.390625 
Q 13.765625 71.78125 18.9375 73 
Q 24.125 74.21875 28.421875 74.21875 
Q 39.75 74.21875 46.484375 68.546875 
Q 53.21875 62.890625 53.21875 53.421875 
Q 53.21875 48.921875 51.53125 44.890625 
Q 49.859375 40.875 45.40625 35.40625 
Q 44.1875 33.984375 37.640625 27.21875 
Q 31.109375 20.453125 19.1875 8.296875 
z
" id="DejaVuSans-50"/>
      </defs>
      <g transform="translate(7.2 134.115219)scale(0.1 -0.1)">
       <use xlink:href="#DejaVuSans-50"/>
       <use x="63.623047" xlink:href="#DejaVuSans-48"/>
       <use x="127.246094" xlink:href="#DejaVuSans-48"/>
      </g>
     </g>
    </g>
    <g id="ytick_6">
     <g id="line2d_11">
      <g>
       <use style="stroke:#000000;stroke-width:0.8;" x="33.2875" xlink:href="#mbad1a06600" y="96.716"/>
      </g>
     </g>
     <g id="text_12">
      <!-- 250 -->
      <g transform="translate(7.2 100.515219)scale(0.1 -0.1)">
       <use xlink:href="#DejaVuSans-50"/>
       <use x="63.623047" xlink:href="#DejaVuSans-53"/>
       <use x="127.246094" xlink:href="#DejaVuSans-48"/>
      </g>
     </g>
    </g>
    <g id="ytick_7">
     <g id="line2d_12">
      <g>
       <use style="stroke:#000000;stroke-width:0.8;" x="33.2875" xlink:href="#mbad1a06600" y="63.116"/>
      </g>
     </g>
     <g id="text_13">
      <!-- 300 -->
      <defs>
       <path d="M 40.578125 39.3125 
Q 47.65625 37.796875 51.625 33 
Q 55.609375 28.21875 55.609375 21.1875 
Q 55.609375 10.40625 48.1875 4.484375 
Q 40.765625 -1.421875 27.09375 -1.421875 
Q 22.515625 -1.421875 17.65625 -0.515625 
Q 12.796875 0.390625 7.625 2.203125 
L 7.625 11.71875 
Q 11.71875 9.328125 16.59375 8.109375 
Q 21.484375 6.890625 26.8125 6.890625 
Q 36.078125 6.890625 40.9375 10.546875 
Q 45.796875 14.203125 45.796875 21.1875 
Q 45.796875 27.640625 41.28125 31.265625 
Q 36.765625 34.90625 28.71875 34.90625 
L 20.21875 34.90625 
L 20.21875 43.015625 
L 29.109375 43.015625 
Q 36.375 43.015625 40.234375 45.921875 
Q 44.09375 48.828125 44.09375 54.296875 
Q 44.09375 59.90625 40.109375 62.90625 
Q 36.140625 65.921875 28.71875 65.921875 
Q 24.65625 65.921875 20.015625 65.03125 
Q 15.375 64.15625 9.8125 62.3125 
L 9.8125 71.09375 
Q 15.4375 72.65625 20.34375 73.4375 
Q 25.25 74.21875 29.59375 74.21875 
Q 40.828125 74.21875 47.359375 69.109375 
Q 53.90625 64.015625 53.90625 55.328125 
Q 53.90625 49.265625 50.4375 45.09375 
Q 46.96875 40.921875 40.578125 39.3125 
z
" id="DejaVuSans-51"/>
      </defs>
      <g transform="translate(7.2 66.915219)scale(0.1 -0.1)">
       <use xlink:href="#DejaVuSans-51"/>
       <use x="63.623047" xlink:href="#DejaVuSans-48"/>
       <use x="127.246094" xlink:href="#DejaVuSans-48"/>
      </g>
     </g>
    </g>
    <g id="ytick_8">
     <g id="line2d_13">
      <g>
       <use style="stroke:#000000;stroke-width:0.8;" x="33.2875" xlink:href="#mbad1a06600" y="29.516"/>
      </g>
     </g>
     <g id="text_14">
      <!-- 350 -->
      <g transform="translate(7.2 33.315219)scale(0.1 -0.1)">
       <use xlink:href="#DejaVuSans-51"/>
       <use x="63.623047" xlink:href="#DejaVuSans-53"/>
       <use x="127.246094" xlink:href="#DejaVuSans-48"/>
      </g>
     </g>
    </g>
   </g>
   <g id="line2d_14">
    <path clip-path="url(#p917829ed2d)" d="M 63.950924 22.796 
" style="fill:none;stroke:#1f77b4;stroke-linecap:square;stroke-width:1.5;"/>
    <defs>
     <path d="M 0 3 
C 0.795609 3 1.55874 2.683901 2.12132 2.12132 
C 2.683901 1.55874 3 0.795609 3 0 
C 3 -0.795609 2.683901 -1.55874 2.12132 -2.12132 
C 1.55874 -2.683901 0.795609 -3 0 -3 
C -0.795609 -3 -1.55874 -2.683901 -2.12132 -2.12132 
C -2.683901 -1.55874 -3 -0.795609 -3 0 
C -3 0.795609 -2.683901 1.55874 -2.12132 2.12132 
C -1.55874 2.683901 -0.795609 3 0 3 
z
" id="m8682b09bde" style="stroke:#1f77b4;"/>
    </defs>
    <g clip-path="url(#p917829ed2d)">
     <use style="fill:#1f77b4;stroke:#1f77b4;" x="63.950924" xlink:href="#m8682b09bde" y="22.796"/>
    </g>
   </g>
   <g id="line2d_15">
    <path clip-path="url(#p917829ed2d)" d="M 78.340117 22.796 
" style="fill:none;stroke:#ff7f0e;stroke-linecap:square;stroke-width:1.5;"/>
    <defs>
     <path d="M 0 3 
C 0.795609 3 1.55874 2.683901 2.12132 2.12132 
C 2.683901 1.55874 3 0.795609 3 0 
C 3 -0.795609 2.683901 -1.55874 2.12132 -2.12132 
C 1.55874 -2.683901 0.795609 -3 0 -3 
C -0.795609 -3 -1.55874 -2.683901 -2.12132 -2.12132 
C -2.683901 -1.55874 -3 -0.795609 -3 0 
C -3 0.795609 -2.683901 1.55874 -2.12132 2.12132 
C -1.55874 2.683901 -0.795609 3 0 3 
z
" id="mf57246fb90" style="stroke:#ff7f0e;"/>
    </defs>
    <g clip-path="url(#p917829ed2d)">
     <use style="fill:#ff7f0e;stroke:#ff7f0e;" x="78.340117" xlink:href="#mf57246fb90" y="22.796"/>
    </g>
   </g>
   <g id="line2d_16">
    <path clip-path="url(#p917829ed2d)" d="M 92.729853 22.796 
" style="fill:none;stroke:#2ca02c;stroke-linecap:square;stroke-width:1.5;"/>
    <defs>
     <path d="M 0 3 
C 0.795609 3 1.55874 2.683901 2.12132 2.12132 
C 2.683901 1.55874 3 0.795609 3 0 
C 3 -0.795609 2.683901 -1.55874 2.12132 -2.12132 
C 1.55874 -2.683901 0.795609 -3 0 -3 
C -0.795609 -3 -1.55874 -2.683901 -2.12132 -2.12132 
C -2.683901 -1.55874 -3 -0.795609 -3 0 
C -3 0.795609 -2.683901 1.55874 -2.12132 2.12132 
C -1.55874 2.683901 -0.795609 3 0 3 
z
" id="m88b97a7759" style="stroke:#2ca02c;"/>
    </defs>
    <g clip-path="url(#p917829ed2d)">
     <use style="fill:#2ca02c;stroke:#2ca02c;" x="92.729853" xlink:href="#m88b97a7759" y="22.796"/>
    </g>
   </g>
   <g id="line2d_17">
    <path clip-path="url(#p917829ed2d)" d="M 107.122742 22.796 
" style="fill:none;stroke:#d62728;stroke-linecap:square;stroke-width:1.5;"/>
    <defs>
     <path d="M 0 3 
C 0.795609 3 1.55874 2.683901 2.12132 2.12132 
C 2.683901 1.55874 3 0.795609 3 0 
C 3 -0.795609 2.683901 -1.55874 2.12132 -2.12132 
C 1.55874 -2.683901 0.795609 -3 0 -3 
C -0.795609 -3 -1.55874 -2.683901 -2.12132 -2.12132 
C -2.683901 -1.55874 -3 -0.795609 -3 0 
C -3 0.795609 -2.683901 1.55874 -2.12132 2.12132 
C -1.55874 2.683901 -0.795609 3 0 3 
z
" id="mc63b6eea8d" style="stroke:#d62728;"/>
    </defs>
    <g clip-path="url(#p917829ed2d)">
     <use style="fill:#d62728;stroke:#d62728;" x="107.122742" xlink:href="#mc63b6eea8d" y="22.796"/>
    </g>
   </g>
   <g id="line2d_18">
    <path clip-path="url(#p917829ed2d)" d="M 121.51899 22.796 
" style="fill:none;stroke:#9467bd;stroke-linecap:square;stroke-width:1.5;"/>
    <defs>
     <path d="M 0 3 
C 0.795609 3 1.55874 2.683901 2.12132 2.12132 
C 2.683901 1.55874 3 0.795609 3 0 
C 3 -0.795609 2.683901 -1.55874 2.12132 -2.12132 
C 1.55874 -2.683901 0.795609 -3 0 -3 
C -0.795609 -3 -1.55874 -2.683901 -2.12132 -2.12132 
C -2.683901 -1.55874 -3 -0.795609 -3 0 
C -3 0.795609 -2.683901 1.55874 -2.12132 2.12132 
C -1.55874 2.683901 -0.795609 3 0 3 
z
" id="m806f075f5e" style="stroke:#9467bd;"/>
    </defs>
    <g clip-path="url(#p917829ed2d)">
     <use style="fill:#9467bd;stroke:#9467bd;" x="121.51899" xlink:href="#m806f075f5e" y="22.796"/>
    </g>
   </g>
   <g id="line2d_19">
    <path clip-path="url(#p917829ed2d)" d="M 135.918692 22.796 
" style="fill:none;stroke:#8c564b;stroke-linecap:square;stroke-width:1.5;"/>
    <defs>
     <path d="M 0 3 
C 0.795609 3 1.55874 2.683901 2.12132 2.12132 
C 2.683901 1.55874 3 0.795609 3 0 
C 3 -0.795609 2.683901 -1.55874 2.12132 -2.12132 
C 1.55874 -2.683901 0.795609 -3 0 -3 
C -0.795609 -3 -1.55874 -2.683901 -2.12132 -2.12132 
C -2.683901 -1.55874 -3 -0.795609 -3 0 
C -3 0.795609 -2.683901 1.55874 -2.12132 2.12132 
C -1.55874 2.683901 -0.795609 3 0 3 
z
" id="m04cd57da76" style="stroke:#8c564b;"/>
    </defs>
    <g clip-path="url(#p917829ed2d)">
     <use style="fill:#8c564b;stroke:#8c564b;" x="135.918692" xlink:href="#m04cd57da76" y="22.796"/>
    </g>
   </g>
   <g id="line2d_20">
    <path clip-path="url(#p917829ed2d)" d="M 150.322004 22.796 
" style="fill:none;stroke:#e377c2;stroke-linecap:square;stroke-width:1.5;"/>
    <defs>
     <path d="M 0 3 
C 0.795609 3 1.55874 2.683901 2.12132 2.12132 
C 2.683901 1.55874 3 0.795609 3 0 
C 3 -0.795609 2.683901 -1.55874 2.12132 -2.12132 
C 1.55874 -2.683901 0.795609 -3 0 -3 
C -0.795609 -3 -1.55874 -2.683901 -2.12132 -2.12132 
C -2.683901 -1.55874 -3 -0.795609 -3 0 
C -3 0.795609 -2.683901 1.55874 -2.12132 2.12132 
C -1.55874 2.683901 -0.795609 3 0 3 
z
" id="m56687bb802" style="stroke:#e377c2;"/>
    </defs>
    <g clip-path="url(#p917829ed2d)">
     <use style="fill:#e377c2;stroke:#e377c2;" x="150.322004" xlink:href="#m56687bb802" y="22.796"/>
    </g>
   </g>
   <g id="line2d_21">
    <path clip-path="url(#p917829ed2d)" d="M 164.728783 22.796 
" style="fill:none;stroke:#7f7f7f;stroke-linecap:square;stroke-width:1.5;"/>
    <defs>
     <path d="M 0 3 
C 0.795609 3 1.55874 2.683901 2.12132 2.12132 
C 2.683901 1.55874 3 0.795609 3 0 
C 3 -0.795609 2.683901 -1.55874 2.12132 -2.12132 
C 1.55874 -2.683901 0.795609 -3 0 -3 
C -0.795609 -3 -1.55874 -2.683901 -2.12132 -2.12132 
C -2.683901 -1.55874 -3 -0.795609 -3 0 
C -3 0.795609 -2.683901 1.55874 -2.12132 2.12132 
C -1.55874 2.683901 -0.795609 3 0 3 
z
" id="m50fc71e5e7" style="stroke:#7f7f7f;"/>
    </defs>
    <g clip-path="url(#p917829ed2d)">
     <use style="fill:#7f7f7f;stroke:#7f7f7f;" x="164.728783" xlink:href="#m50fc71e5e7" y="22.796"/>
    </g>
   </g>
   <g id="line2d_22">
    <path clip-path="url(#p917829ed2d)" d="M 179.139296 22.796 
" style="fill:none;stroke:#bcbd22;stroke-linecap:square;stroke-width:1.5;"/>
    <defs>
     <path d="M 0 3 
C 0.795609 3 1.55874 2.683901 2.12132 2.12132 
C 2.683901 1.55874 3 0.795609 3 0 
C 3 -0.795609 2.683901 -1.55874 2.12132 -2.12132 
C 1.55874 -2.683901 0.795609 -3 0 -3 
C -0.795609 -3 -1.55874 -2.683901 -2.12132 -2.12132 
C -2.683901 -1.55874 -3 -0.795609 -3 0 
C -3 0.795609 -2.683901 1.55874 -2.12132 2.12132 
C -1.55874 2.683901 -0.795609 3 0 3 
z
" id="m9b327e4653" style="stroke:#bcbd22;"/>
    </defs>
    <g clip-path="url(#p917829ed2d)">
     <use style="fill:#bcbd22;stroke:#bcbd22;" x="179.139296" xlink:href="#m9b327e4653" y="22.796"/>
    </g>
   </g>
   <g id="line2d_23">
    <path clip-path="url(#p917829ed2d)" d="M 193.552105 22.796 
" style="fill:none;stroke:#17becf;stroke-linecap:square;stroke-width:1.5;"/>
    <defs>
     <path d="M 0 3 
C 0.795609 3 1.55874 2.683901 2.12132 2.12132 
C 2.683901 1.55874 3 0.795609 3 0 
C 3 -0.795609 2.683901 -1.55874 2.12132 -2.12132 
C 1.55874 -2.683901 0.795609 -3 0 -3 
C -0.795609 -3 -1.55874 -2.683901 -2.12132 -2.12132 
C -2.683901 -1.55874 -3 -0.795609 -3 0 
C -3 0.795609 -2.683901 1.55874 -2.12132 2.12132 
C -1.55874 2.683901 -0.795609 3 0 3 
z
" id="m54041bffdd" style="stroke:#17becf;"/>
    </defs>
    <g clip-path="url(#p917829ed2d)">
     <use style="fill:#17becf;stroke:#17becf;" x="193.552105" xlink:href="#m54041bffdd" y="22.796"/>
    </g>
   </g>
   <g id="line2d_24">
    <path clip-path="url(#p917829ed2d)" d="M 207.967258 22.796 
" style="fill:none;stroke:#1f77b4;stroke-linecap:square;stroke-width:1.5;"/>
    <g clip-path="url(#p917829ed2d)">
     <use style="fill:#1f77b4;stroke:#1f77b4;" x="207.967258" xlink:href="#m8682b09bde" y="22.796"/>
    </g>
   </g>
   <g id="line2d_25">
    <path clip-path="url(#p917829ed2d)" d="M 222.384996 22.796 
" style="fill:none;stroke:#ff7f0e;stroke-linecap:square;stroke-width:1.5;"/>
    <g clip-path="url(#p917829ed2d)">
     <use style="fill:#ff7f0e;stroke:#ff7f0e;" x="222.384996" xlink:href="#mf57246fb90" y="22.796"/>
    </g>
   </g>
   <g id="line2d_26">
    <path clip-path="url(#p917829ed2d)" d="M 236.805256 22.796 
" style="fill:none;stroke:#2ca02c;stroke-linecap:square;stroke-width:1.5;"/>
    <g clip-path="url(#p917829ed2d)">
     <use style="fill:#2ca02c;stroke:#2ca02c;" x="236.805256" xlink:href="#m88b97a7759" y="22.796"/>
    </g>
   </g>
   <g id="line2d_27">
    <path clip-path="url(#p917829ed2d)" d="M 251.228176 22.796 
" style="fill:none;stroke:#d62728;stroke-linecap:square;stroke-width:1.5;"/>
    <g clip-path="url(#p917829ed2d)">
     <use style="fill:#d62728;stroke:#d62728;" x="251.228176" xlink:href="#mc63b6eea8d" y="22.796"/>
    </g>
   </g>
   <g id="line2d_28">
    <path clip-path="url(#p917829ed2d)" d="M 265.658672 22.796 
" style="fill:none;stroke:#9467bd;stroke-linecap:square;stroke-width:1.5;"/>
    <g clip-path="url(#p917829ed2d)">
     <use style="fill:#9467bd;stroke:#9467bd;" x="265.658672" xlink:href="#m806f075f5e" y="22.796"/>
    </g>
   </g>
   <g id="line2d_29">
    <path clip-path="url(#p917829ed2d)" d="M 279.944517 22.796 
" style="fill:none;stroke:#8c564b;stroke-linecap:square;stroke-width:1.5;"/>
    <g clip-path="url(#p917829ed2d)">
     <use style="fill:#8c564b;stroke:#8c564b;" x="279.944517" xlink:href="#m04cd57da76" y="22.796"/>
    </g>
   </g>
   <g id="line2d_30">
    <path clip-path="url(#p917829ed2d)" d="M 294.375151 22.796 
" style="fill:none;stroke:#e377c2;stroke-linecap:square;stroke-width:1.5;"/>
    <g clip-path="url(#p917829ed2d)">
     <use style="fill:#e377c2;stroke:#e377c2;" x="294.375151" xlink:href="#m56687bb802" y="22.796"/>
    </g>
   </g>
   <g id="line2d_31">
    <path clip-path="url(#p917829ed2d)" d="M 308.661072 22.796 
" style="fill:none;stroke:#7f7f7f;stroke-linecap:square;stroke-width:1.5;"/>
    <g clip-path="url(#p917829ed2d)">
     <use style="fill:#7f7f7f;stroke:#7f7f7f;" x="308.661072" xlink:href="#m50fc71e5e7" y="22.796"/>
    </g>
   </g>
   <g id="line2d_32">
    <path clip-path="url(#p917829ed2d)" d="M 323.091591 22.796 
" style="fill:none;stroke:#bcbd22;stroke-linecap:square;stroke-width:1.5;"/>
    <g clip-path="url(#p917829ed2d)">
     <use style="fill:#bcbd22;stroke:#bcbd22;" x="323.091591" xlink:href="#m9b327e4653" y="22.796"/>
    </g>
   </g>
   <g id="line2d_33">
    <path clip-path="url(#p917829ed2d)" d="M 337.377409 22.796 
" style="fill:none;stroke:#17becf;stroke-linecap:square;stroke-width:1.5;"/>
    <g clip-path="url(#p917829ed2d)">
     <use style="fill:#17becf;stroke:#17becf;" x="337.377409" xlink:href="#m54041bffdd" y="22.796"/>
    </g>
   </g>
   <g id="line2d_34">
    <path clip-path="url(#p917829ed2d)" d="M 351.807957 22.796 
" style="fill:none;stroke:#1f77b4;stroke-linecap:square;stroke-width:1.5;"/>
    <g clip-path="url(#p917829ed2d)">
     <use style="fill:#1f77b4;stroke:#1f77b4;" x="351.807957" xlink:href="#m8682b09bde" y="22.796"/>
    </g>
   </g>
   <g id="line2d_35">
    <path clip-path="url(#p917829ed2d)" d="M 366.093708 22.796 
" style="fill:none;stroke:#ff7f0e;stroke-linecap:square;stroke-width:1.5;"/>
    <g clip-path="url(#p917829ed2d)">
     <use style="fill:#ff7f0e;stroke:#ff7f0e;" x="366.093708" xlink:href="#mf57246fb90" y="22.796"/>
    </g>
   </g>
   <g id="line2d_36">
    <path clip-path="url(#p917829ed2d)" d="M 49.520227 264.716 
L 63.950924 22.796 
L 63.950924 264.716 
L 64.023075 262.810528 
L 78.340117 22.796 
L 78.340117 264.716 
L 78.412268 262.820912 
L 92.729853 22.796 
L 92.729853 264.716 
L 92.802006 262.874026 
L 107.122742 22.796 
L 107.122742 264.716 
L 107.194895 262.930992 
L 121.51899 22.796 
L 121.51899 264.716 
L 121.591143 262.987804 
L 135.918692 22.796 
L 135.918692 264.716 
L 135.990843 263.046584 
L 150.322004 22.796 
L 150.322004 264.716 
L 150.394157 263.107876 
L 164.728783 22.796 
L 164.728783 264.716 
L 164.800936 263.169909 
L 179.139296 22.796 
L 179.139296 264.716 
L 179.211447 263.208062 
L 193.552105 22.796 
L 193.552105 264.716 
L 193.624256 263.247483 
L 207.967258 22.796 
L 207.967258 264.716 
L 208.039412 263.288253 
L 222.384996 22.796 
L 222.384996 264.716 
L 222.45715 263.333883 
L 236.805256 22.796 
L 236.805256 264.716 
L 236.877409 263.377762 
L 251.228176 22.796 
L 251.228176 264.716 
L 251.300329 263.504267 
L 265.658672 22.796 
L 265.658672 264.716 
L 265.730824 261.077855 
L 279.944517 22.796 
L 279.944517 264.716 
L 280.016668 263.505565 
L 294.375151 22.796 
L 294.375151 264.716 
L 294.447304 261.080393 
L 308.661072 22.796 
L 308.661072 264.716 
L 308.733223 263.506142 
L 323.091591 22.796 
L 323.091591 264.716 
L 323.163742 261.079703 
L 337.377409 22.796 
L 337.377409 264.716 
L 337.449562 263.50568 
L 351.807957 22.796 
L 351.807957 264.716 
L 351.880108 261.077651 
L 366.093708 22.796 
L 366.093708 264.716 
L 366.165859 263.504844 
L 374.174774 129.239603 
L 374.174774 129.239603 
" style="fill:none;stroke:#ff0000;stroke-linecap:square;stroke-width:1.5;"/>
   </g>
   <g id="line2d_37">
    <path clip-path="url(#p917829ed2d)" d="M 51.885412 22.796 
" style="fill:none;stroke:#2ca02c;stroke-linecap:square;stroke-width:1.5;"/>
    <g clip-path="url(#p917829ed2d)">
     <use style="fill:#2ca02c;stroke:#2ca02c;" x="51.885412" xlink:href="#m88b97a7759" y="22.796"/>
    </g>
   </g>
   <g id="line2d_38">
    <path clip-path="url(#p917829ed2d)" d="M 66.179792 22.796 
" style="fill:none;stroke:#d62728;stroke-linecap:square;stroke-width:1.5;"/>
    <g clip-path="url(#p917829ed2d)">
     <use style="fill:#d62728;stroke:#d62728;" x="66.179792" xlink:href="#mc63b6eea8d" y="22.796"/>
    </g>
   </g>
   <g id="line2d_39">
    <path clip-path="url(#p917829ed2d)" d="M 80.350615 22.796 
" style="fill:none;stroke:#9467bd;stroke-linecap:square;stroke-width:1.5;"/>
    <g clip-path="url(#p917829ed2d)">
     <use style="fill:#9467bd;stroke:#9467bd;" x="80.350615" xlink:href="#m806f075f5e" y="22.796"/>
    </g>
   </g>
   <g id="line2d_40">
    <path clip-path="url(#p917829ed2d)" d="M 94.518112 22.796 
" style="fill:none;stroke:#8c564b;stroke-linecap:square;stroke-width:1.5;"/>
    <g clip-path="url(#p917829ed2d)">
     <use style="fill:#8c564b;stroke:#8c564b;" x="94.518112" xlink:href="#m04cd57da76" y="22.796"/>
    </g>
   </g>
   <g id="line2d_41">
    <path clip-path="url(#p917829ed2d)" d="M 108.682076 22.796 
" style="fill:none;stroke:#e377c2;stroke-linecap:square;stroke-width:1.5;"/>
    <g clip-path="url(#p917829ed2d)">
     <use style="fill:#e377c2;stroke:#e377c2;" x="108.682076" xlink:href="#m56687bb802" y="22.796"/>
    </g>
   </g>
   <g id="line2d_42">
    <path clip-path="url(#p917829ed2d)" d="M 122.842653 22.796 
" style="fill:none;stroke:#7f7f7f;stroke-linecap:square;stroke-width:1.5;"/>
    <g clip-path="url(#p917829ed2d)">
     <use style="fill:#7f7f7f;stroke:#7f7f7f;" x="122.842653" xlink:href="#m50fc71e5e7" y="22.796"/>
    </g>
   </g>
   <g id="line2d_43">
    <path clip-path="url(#p917829ed2d)" d="M 136.999565 22.796 
" style="fill:none;stroke:#bcbd22;stroke-linecap:square;stroke-width:1.5;"/>
    <g clip-path="url(#p917829ed2d)">
     <use style="fill:#bcbd22;stroke:#bcbd22;" x="136.999565" xlink:href="#m9b327e4653" y="22.796"/>
    </g>
   </g>
   <g id="line2d_44">
    <path clip-path="url(#p917829ed2d)" d="M 151.152679 22.796 
" style="fill:none;stroke:#17becf;stroke-linecap:square;stroke-width:1.5;"/>
    <g clip-path="url(#p917829ed2d)">
     <use style="fill:#17becf;stroke:#17becf;" x="151.152679" xlink:href="#m54041bffdd" y="22.796"/>
    </g>
   </g>
   <g id="line2d_45">
    <path clip-path="url(#p917829ed2d)" d="M 165.447081 22.796 
" style="fill:none;stroke:#1f77b4;stroke-linecap:square;stroke-width:1.5;"/>
    <g clip-path="url(#p917829ed2d)">
     <use style="fill:#1f77b4;stroke:#1f77b4;" x="165.447081" xlink:href="#m8682b09bde" y="22.796"/>
    </g>
   </g>
   <g id="line2d_46">
    <path clip-path="url(#p917829ed2d)" d="M 179.74036 22.796 
" style="fill:none;stroke:#ff7f0e;stroke-linecap:square;stroke-width:1.5;"/>
    <g clip-path="url(#p917829ed2d)">
     <use style="fill:#ff7f0e;stroke:#ff7f0e;" x="179.74036" xlink:href="#mf57246fb90" y="22.796"/>
    </g>
   </g>
   <g id="line2d_47">
    <path clip-path="url(#p917829ed2d)" d="M 194.032509 22.796 
" style="fill:none;stroke:#2ca02c;stroke-linecap:square;stroke-width:1.5;"/>
    <g clip-path="url(#p917829ed2d)">
     <use style="fill:#2ca02c;stroke:#2ca02c;" x="194.032509" xlink:href="#m88b97a7759" y="22.796"/>
    </g>
   </g>
   <g id="line2d_48">
    <path clip-path="url(#p917829ed2d)" d="M 208.323408 22.796 
" style="fill:none;stroke:#d62728;stroke-linecap:square;stroke-width:1.5;"/>
    <g clip-path="url(#p917829ed2d)">
     <use style="fill:#d62728;stroke:#d62728;" x="208.323408" xlink:href="#mc63b6eea8d" y="22.796"/>
    </g>
   </g>
   <g id="line2d_49">
    <path clip-path="url(#p917829ed2d)" d="M 222.613016 22.796 
" style="fill:none;stroke:#9467bd;stroke-linecap:square;stroke-width:1.5;"/>
    <g clip-path="url(#p917829ed2d)">
     <use style="fill:#9467bd;stroke:#9467bd;" x="222.613016" xlink:href="#m806f075f5e" y="22.796"/>
    </g>
   </g>
   <g id="line2d_50">
    <path clip-path="url(#p917829ed2d)" d="M 236.901339 22.796 
" style="fill:none;stroke:#8c564b;stroke-linecap:square;stroke-width:1.5;"/>
    <g clip-path="url(#p917829ed2d)">
     <use style="fill:#8c564b;stroke:#8c564b;" x="236.901339" xlink:href="#m04cd57da76" y="22.796"/>
    </g>
   </g>
   <g id="line2d_51">
    <path clip-path="url(#p917829ed2d)" d="M 251.188435 22.796 
" style="fill:none;stroke:#e377c2;stroke-linecap:square;stroke-width:1.5;"/>
    <g clip-path="url(#p917829ed2d)">
     <use style="fill:#e377c2;stroke:#e377c2;" x="251.188435" xlink:href="#m56687bb802" y="22.796"/>
    </g>
   </g>
   <g id="line2d_52">
    <path clip-path="url(#p917829ed2d)" d="M 265.474173 22.796 
" style="fill:none;stroke:#7f7f7f;stroke-linecap:square;stroke-width:1.5;"/>
    <g clip-path="url(#p917829ed2d)">
     <use style="fill:#7f7f7f;stroke:#7f7f7f;" x="265.474173" xlink:href="#m50fc71e5e7" y="22.796"/>
    </g>
   </g>
   <g id="line2d_53">
    <path clip-path="url(#p917829ed2d)" d="M 279.90472 22.796 
" style="fill:none;stroke:#bcbd22;stroke-linecap:square;stroke-width:1.5;"/>
    <g clip-path="url(#p917829ed2d)">
     <use style="fill:#bcbd22;stroke:#bcbd22;" x="279.90472" xlink:href="#m9b327e4653" y="22.796"/>
    </g>
   </g>
   <g id="line2d_54">
    <path clip-path="url(#p917829ed2d)" d="M 294.190409 22.796 
" style="fill:none;stroke:#17becf;stroke-linecap:square;stroke-width:1.5;"/>
    <g clip-path="url(#p917829ed2d)">
     <use style="fill:#17becf;stroke:#17becf;" x="294.190409" xlink:href="#m54041bffdd" y="22.796"/>
    </g>
   </g>
   <g id="line2d_55">
    <path clip-path="url(#p917829ed2d)" d="M 308.620951 22.796 
" style="fill:none;stroke:#1f77b4;stroke-linecap:square;stroke-width:1.5;"/>
    <g clip-path="url(#p917829ed2d)">
     <use style="fill:#1f77b4;stroke:#1f77b4;" x="308.620951" xlink:href="#m8682b09bde" y="22.796"/>
    </g>
   </g>
   <g id="line2d_56">
    <path clip-path="url(#p917829ed2d)" d="M 322.90658 22.796 
" style="fill:none;stroke:#ff7f0e;stroke-linecap:square;stroke-width:1.5;"/>
    <g clip-path="url(#p917829ed2d)">
     <use style="fill:#ff7f0e;stroke:#ff7f0e;" x="322.90658" xlink:href="#mf57246fb90" y="22.796"/>
    </g>
   </g>
   <g id="line2d_57">
    <path clip-path="url(#p917829ed2d)" d="M 337.33708 22.796 
" style="fill:none;stroke:#2ca02c;stroke-linecap:square;stroke-width:1.5;"/>
    <g clip-path="url(#p917829ed2d)">
     <use style="fill:#2ca02c;stroke:#2ca02c;" x="337.33708" xlink:href="#m88b97a7759" y="22.796"/>
    </g>
   </g>
   <g id="line2d_58">
    <path clip-path="url(#p917829ed2d)" d="M 351.622751 22.796 
" style="fill:none;stroke:#d62728;stroke-linecap:square;stroke-width:1.5;"/>
    <g clip-path="url(#p917829ed2d)">
     <use style="fill:#d62728;stroke:#d62728;" x="351.622751" xlink:href="#mc63b6eea8d" y="22.796"/>
    </g>
   </g>
   <g id="line2d_59">
    <path clip-path="url(#p917829ed2d)" d="M 366.053343 22.796 
" style="fill:none;stroke:#9467bd;stroke-linecap:square;stroke-width:1.5;"/>
    <g clip-path="url(#p917829ed2d)">
     <use style="fill:#9467bd;stroke:#9467bd;" x="366.053343" xlink:href="#m806f075f5e" y="22.796"/>
    </g>
   </g>
   <g id="line2d_60">
    <path clip-path="url(#p917829ed2d)" d="M 49.520227 62.444 
L 51.885412 22.796 
L 51.885412 264.716 
L 51.957565 261.221767 
L 66.179792 22.796 
L 66.179792 264.716 
L 66.251945 259.152585 
L 80.350615 22.796 
L 80.350615 264.716 
L 80.422768 259.092943 
L 94.518112 22.796 
L 94.518112 264.716 
L 94.590265 259.03631 
L 108.682076 22.796 
L 108.682076 264.716 
L 108.754229 258.977843 
L 122.842653 22.796 
L 122.842653 264.716 
L 122.914806 258.916514 
L 136.999565 22.796 
L 136.999565 264.716 
L 137.071716 258.853711 
L 151.152679 22.796 
L 151.152679 264.716 
L 151.224833 261.222779 
L 165.447081 22.796 
L 165.447081 264.716 
L 165.519234 261.20326 
L 179.74036 22.796 
L 179.74036 264.716 
L 179.812513 261.184882 
L 194.032509 22.796 
L 194.032509 264.716 
L 194.10466 261.16354 
L 208.323408 22.796 
L 208.323408 264.716 
L 208.395561 261.143983 
L 222.613016 22.796 
L 222.613016 264.716 
L 222.685169 261.120884 
L 236.901339 22.796 
L 236.901339 264.716 
L 236.973492 261.098955 
L 251.188435 22.796 
L 251.188435 264.716 
L 251.260588 261.076649 
L 265.474173 22.796 
L 265.474173 264.716 
L 265.546324 263.505334 
L 279.90472 22.796 
L 279.90472 264.716 
L 279.976873 261.076089 
L 294.190409 22.796 
L 294.190409 264.716 
L 294.26256 263.506084 
L 308.620951 22.796 
L 308.620951 264.716 
L 308.693104 261.074376 
L 322.90658 22.796 
L 322.90658 264.716 
L 322.978731 263.505334 
L 337.33708 22.796 
L 337.33708 264.716 
L 337.409231 261.076141 
L 351.622751 22.796 
L 351.622751 264.716 
L 351.694902 263.505536 
L 366.053343 22.796 
L 366.053343 264.716 
L 366.125494 261.076475 
L 374.134407 126.808754 
L 374.134407 126.808754 
" style="fill:none;stroke:#0000ff;stroke-linecap:square;stroke-width:1.5;"/>
   </g>
   <g id="line2d_61">
    <path clip-path="url(#p917829ed2d)" d="M 50.843428 22.796 
" style="fill:none;stroke:#8c564b;stroke-linecap:square;stroke-width:1.5;"/>
    <g clip-path="url(#p917829ed2d)">
     <use style="fill:#8c564b;stroke:#8c564b;" x="50.843428" xlink:href="#m04cd57da76" y="22.796"/>
    </g>
   </g>
   <g id="line2d_62">
    <path clip-path="url(#p917829ed2d)" d="M 65.273981 22.796 
" style="fill:none;stroke:#e377c2;stroke-linecap:square;stroke-width:1.5;"/>
    <g clip-path="url(#p917829ed2d)">
     <use style="fill:#e377c2;stroke:#e377c2;" x="65.273981" xlink:href="#m56687bb802" y="22.796"/>
    </g>
   </g>
   <g id="line2d_63">
    <path clip-path="url(#p917829ed2d)" d="M 79.564562 22.796 
" style="fill:none;stroke:#7f7f7f;stroke-linecap:square;stroke-width:1.5;"/>
    <g clip-path="url(#p917829ed2d)">
     <use style="fill:#7f7f7f;stroke:#7f7f7f;" x="79.564562" xlink:href="#m50fc71e5e7" y="22.796"/>
    </g>
   </g>
   <g id="line2d_64">
    <path clip-path="url(#p917829ed2d)" d="M 93.85424 22.796 
" style="fill:none;stroke:#bcbd22;stroke-linecap:square;stroke-width:1.5;"/>
    <g clip-path="url(#p917829ed2d)">
     <use style="fill:#bcbd22;stroke:#bcbd22;" x="93.85424" xlink:href="#m9b327e4653" y="22.796"/>
    </g>
   </g>
   <g id="line2d_65">
    <path clip-path="url(#p917829ed2d)" d="M 108.144096 22.796 
" style="fill:none;stroke:#17becf;stroke-linecap:square;stroke-width:1.5;"/>
    <g clip-path="url(#p917829ed2d)">
     <use style="fill:#17becf;stroke:#17becf;" x="108.144096" xlink:href="#m54041bffdd" y="22.796"/>
    </g>
   </g>
   <g id="line2d_66">
    <path clip-path="url(#p917829ed2d)" d="M 122.434052 22.796 
" style="fill:none;stroke:#1f77b4;stroke-linecap:square;stroke-width:1.5;"/>
    <g clip-path="url(#p917829ed2d)">
     <use style="fill:#1f77b4;stroke:#1f77b4;" x="122.434052" xlink:href="#m8682b09bde" y="22.796"/>
    </g>
   </g>
   <g id="line2d_67">
    <path clip-path="url(#p917829ed2d)" d="M 136.724234 22.796 
" style="fill:none;stroke:#ff7f0e;stroke-linecap:square;stroke-width:1.5;"/>
    <g clip-path="url(#p917829ed2d)">
     <use style="fill:#ff7f0e;stroke:#ff7f0e;" x="136.724234" xlink:href="#mf57246fb90" y="22.796"/>
    </g>
   </g>
   <g id="line2d_68">
    <path clip-path="url(#p917829ed2d)" d="M 151.014627 22.796 
" style="fill:none;stroke:#2ca02c;stroke-linecap:square;stroke-width:1.5;"/>
    <g clip-path="url(#p917829ed2d)">
     <use style="fill:#2ca02c;stroke:#2ca02c;" x="151.014627" xlink:href="#m88b97a7759" y="22.796"/>
    </g>
   </g>
   <g id="line2d_69">
    <path clip-path="url(#p917829ed2d)" d="M 165.308741 22.796 
" style="fill:none;stroke:#d62728;stroke-linecap:square;stroke-width:1.5;"/>
    <g clip-path="url(#p917829ed2d)">
     <use style="fill:#d62728;stroke:#d62728;" x="165.308741" xlink:href="#mc63b6eea8d" y="22.796"/>
    </g>
   </g>
   <g id="line2d_70">
    <path clip-path="url(#p917829ed2d)" d="M 179.601837 22.796 
" style="fill:none;stroke:#9467bd;stroke-linecap:square;stroke-width:1.5;"/>
    <g clip-path="url(#p917829ed2d)">
     <use style="fill:#9467bd;stroke:#9467bd;" x="179.601837" xlink:href="#m806f075f5e" y="22.796"/>
    </g>
   </g>
   <g id="line2d_71">
    <path clip-path="url(#p917829ed2d)" d="M 193.89365 22.796 
" style="fill:none;stroke:#8c564b;stroke-linecap:square;stroke-width:1.5;"/>
    <g clip-path="url(#p917829ed2d)">
     <use style="fill:#8c564b;stroke:#8c564b;" x="193.89365" xlink:href="#m04cd57da76" y="22.796"/>
    </g>
   </g>
   <g id="line2d_72">
    <path clip-path="url(#p917829ed2d)" d="M 208.18432 22.796 
" style="fill:none;stroke:#e377c2;stroke-linecap:square;stroke-width:1.5;"/>
    <g clip-path="url(#p917829ed2d)">
     <use style="fill:#e377c2;stroke:#e377c2;" x="208.18432" xlink:href="#m56687bb802" y="22.796"/>
    </g>
   </g>
   <g id="line2d_73">
    <path clip-path="url(#p917829ed2d)" d="M 222.473637 22.796 
" style="fill:none;stroke:#7f7f7f;stroke-linecap:square;stroke-width:1.5;"/>
    <g clip-path="url(#p917829ed2d)">
     <use style="fill:#7f7f7f;stroke:#7f7f7f;" x="222.473637" xlink:href="#m50fc71e5e7" y="22.796"/>
    </g>
   </g>
   <g id="line2d_74">
    <path clip-path="url(#p917829ed2d)" d="M 236.76169 22.796 
" style="fill:none;stroke:#bcbd22;stroke-linecap:square;stroke-width:1.5;"/>
    <g clip-path="url(#p917829ed2d)">
     <use style="fill:#bcbd22;stroke:#bcbd22;" x="236.76169" xlink:href="#m9b327e4653" y="22.796"/>
    </g>
   </g>
   <g id="line2d_75">
    <path clip-path="url(#p917829ed2d)" d="M 251.048483 22.796 
" style="fill:none;stroke:#17becf;stroke-linecap:square;stroke-width:1.5;"/>
    <g clip-path="url(#p917829ed2d)">
     <use style="fill:#17becf;stroke:#17becf;" x="251.048483" xlink:href="#m54041bffdd" y="22.796"/>
    </g>
   </g>
   <g id="line2d_76">
    <path clip-path="url(#p917829ed2d)" d="M 265.479021 22.796 
" style="fill:none;stroke:#1f77b4;stroke-linecap:square;stroke-width:1.5;"/>
    <g clip-path="url(#p917829ed2d)">
     <use style="fill:#1f77b4;stroke:#1f77b4;" x="265.479021" xlink:href="#m8682b09bde" y="22.796"/>
    </g>
   </g>
   <g id="line2d_77">
    <path clip-path="url(#p917829ed2d)" d="M 279.765198 22.796 
" style="fill:none;stroke:#ff7f0e;stroke-linecap:square;stroke-width:1.5;"/>
    <g clip-path="url(#p917829ed2d)">
     <use style="fill:#ff7f0e;stroke:#ff7f0e;" x="279.765198" xlink:href="#mf57246fb90" y="22.796"/>
    </g>
   </g>
   <g id="line2d_78">
    <path clip-path="url(#p917829ed2d)" d="M 294.195709 22.796 
" style="fill:none;stroke:#2ca02c;stroke-linecap:square;stroke-width:1.5;"/>
    <g clip-path="url(#p917829ed2d)">
     <use style="fill:#2ca02c;stroke:#2ca02c;" x="294.195709" xlink:href="#m88b97a7759" y="22.796"/>
    </g>
   </g>
   <g id="line2d_79">
    <path clip-path="url(#p917829ed2d)" d="M 308.481857 22.796 
" style="fill:none;stroke:#d62728;stroke-linecap:square;stroke-width:1.5;"/>
    <g clip-path="url(#p917829ed2d)">
     <use style="fill:#d62728;stroke:#d62728;" x="308.481857" xlink:href="#mc63b6eea8d" y="22.796"/>
    </g>
   </g>
   <g id="line2d_80">
    <path clip-path="url(#p917829ed2d)" d="M 322.912359 22.796 
" style="fill:none;stroke:#9467bd;stroke-linecap:square;stroke-width:1.5;"/>
    <g clip-path="url(#p917829ed2d)">
     <use style="fill:#9467bd;stroke:#9467bd;" x="322.912359" xlink:href="#m806f075f5e" y="22.796"/>
    </g>
   </g>
   <g id="line2d_81">
    <path clip-path="url(#p917829ed2d)" d="M 337.198494 22.796 
" style="fill:none;stroke:#8c564b;stroke-linecap:square;stroke-width:1.5;"/>
    <g clip-path="url(#p917829ed2d)">
     <use style="fill:#8c564b;stroke:#8c564b;" x="337.198494" xlink:href="#m04cd57da76" y="22.796"/>
    </g>
   </g>
   <g id="line2d_82">
    <path clip-path="url(#p917829ed2d)" d="M 351.629051 22.796 
" style="fill:none;stroke:#e377c2;stroke-linecap:square;stroke-width:1.5;"/>
    <g clip-path="url(#p917829ed2d)">
     <use style="fill:#e377c2;stroke:#e377c2;" x="351.629051" xlink:href="#m56687bb802" y="22.796"/>
    </g>
   </g>
   <g id="line2d_83">
    <path clip-path="url(#p917829ed2d)" d="M 365.915321 22.796 
" style="fill:none;stroke:#7f7f7f;stroke-linecap:square;stroke-width:1.5;"/>
    <g clip-path="url(#p917829ed2d)">
     <use style="fill:#7f7f7f;stroke:#7f7f7f;" x="365.915321" xlink:href="#m50fc71e5e7" y="22.796"/>
    </g>
   </g>
   <g id="line2d_84">
    <path clip-path="url(#p917829ed2d)" d="M 49.520227 44.972 
L 50.843428 22.796 
L 50.843428 264.716 
L 50.915579 263.504498 
L 65.273981 22.796 
L 65.273981 264.716 
L 65.346132 261.157785 
L 79.564562 22.796 
L 79.564562 264.716 
L 79.636715 261.143187 
L 93.85424 22.796 
L 93.85424 264.716 
L 93.926392 261.145359 
L 108.144096 22.796 
L 108.144096 264.716 
L 108.216248 261.148488 
L 122.434052 22.796 
L 122.434052 264.716 
L 122.506205 261.151868 
L 136.724234 22.796 
L 136.724234 264.716 
L 136.796385 261.154757 
L 151.014627 22.796 
L 151.014627 264.716 
L 151.086781 261.217089 
L 165.308741 22.796 
L 165.308741 264.716 
L 165.380892 261.199566 
L 179.601837 22.796 
L 179.601837 264.716 
L 179.67399 261.179967 
L 193.89365 22.796 
L 193.89365 264.716 
L 193.965801 261.158927 
L 208.18432 22.796 
L 208.18432 264.716 
L 208.256474 261.135776 
L 222.473637 22.796 
L 222.473637 264.716 
L 222.54579 261.117674 
L 236.76169 22.796 
L 236.76169 264.716 
L 236.833843 261.094418 
L 251.048483 22.796 
L 251.048483 264.716 
L 251.120636 263.505536 
L 265.479021 22.796 
L 265.479021 264.716 
L 265.551174 261.083864 
L 279.765198 22.796 
L 279.765198 264.716 
L 279.837351 263.506315 
L 294.195709 22.796 
L 294.195709 264.716 
L 294.267862 261.085858 
L 308.481857 22.796 
L 308.481857 264.716 
L 308.55401 263.505017 
L 322.912359 22.796 
L 322.912359 264.716 
L 322.984512 261.08407 
L 337.198494 22.796 
L 337.198494 264.716 
L 337.270647 263.5047 
L 351.629051 22.796 
L 351.629051 264.716 
L 351.701204 261.085028 
L 365.915321 22.796 
L 365.915321 264.716 
L 365.987474 263.504065 
L 374.140692 126.819424 
L 374.140692 126.819424 
" style="fill:none;stroke:#008000;stroke-linecap:square;stroke-width:1.5;"/>
   </g>
   <g id="patch_3">
    <path d="M 33.2875 276.812 
L 33.2875 10.7 
" style="fill:none;stroke:#000000;stroke-linecap:square;stroke-linejoin:miter;stroke-width:0.8;"/>
   </g>
   <g id="patch_4">
    <path d="M 390.4075 276.812 
L 390.4075 10.7 
" style="fill:none;stroke:#000000;stroke-linecap:square;stroke-linejoin:miter;stroke-width:0.8;"/>
   </g>
   <g id="patch_5">
    <path d="M 33.2875 276.812 
L 390.407501 276.812 
" style="fill:none;stroke:#000000;stroke-linecap:square;stroke-linejoin:miter;stroke-width:0.8;"/>
   </g>
   <g id="patch_6">
    <path d="M 33.2875 10.7 
L 390.407501 10.7 
" style="fill:none;stroke:#000000;stroke-linecap:square;stroke-linejoin:miter;stroke-width:0.8;"/>
   </g>
  </g>
 </g>
 <defs>
  <clipPath id="p917829ed2d">
   <rect height="266.112" width="357.12" x="33.2875" y="10.7"/>
  </clipPath>
 </defs>
</svg>
