<?xml version="1.0" encoding="utf-8" standalone="no"?>
<!DOCTYPE svg PUBLIC "-//W3C//DTD SVG 1.1//EN"
  "http://www.w3.org/Graphics/SVG/1.1/DTD/svg11.dtd">
<!-- Created with matplotlib (https://matplotlib.org/) -->
<svg height="313.36825pt" version="1.1" viewBox="0 0 394.745 313.36825" width="394.745pt" xmlns="http://www.w3.org/2000/svg" xmlns:xlink="http://www.w3.org/1999/xlink">
 <defs>
  <style type="text/css">
*{stroke-linecap:butt;stroke-linejoin:round;}
  </style>
 </defs>
 <g id="figure_1">
  <g id="patch_1">
   <path d="M 0 313.36825 
L 394.745 313.36825 
L 394.745 0 
L 0 0 
z
" style="fill:#ffffff;"/>
  </g>
  <g id="axes_1">
   <g id="patch_2">
    <path d="M 26.925 276.812 
L 384.045 276.812 
L 384.045 10.7 
L 26.925 10.7 
z
" style="fill:#ffffff;"/>
   </g>
   <g id="matplotlib.axis_1">
    <g id="xtick_1">
     <g id="line2d_1">
      <defs>
       <path d="M 0 0 
L 0 3.5 
" id="mf2e0a67b99" style="stroke:#000000;stroke-width:0.8;"/>
      </defs>
      <g>
       <use style="stroke:#000000;stroke-width:0.8;" x="79.289797" xlink:href="#mf2e0a67b99" y="276.812"/>
      </g>
     </g>
     <g id="text_1">
      <!-- 30 -->
      <defs>
       <path d="M 40.578125 39.3125 
Q 47.65625 37.796875 51.625 33 
Q 55.609375 28.21875 55.609375 21.1875 
Q 55.609375 10.40625 48.1875 4.484375 
Q 40.765625 -1.421875 27.09375 -1.421875 
Q 22.515625 -1.421875 17.65625 -0.515625 
Q 12.796875 0.390625 7.625 2.203125 
L 7.625 11.71875 
Q 11.71875 9.328125 16.59375 8.109375 
Q 21.484375 6.890625 26.8125 6.890625 
Q 36.078125 6.890625 40.9375 10.546875 
Q 45.796875 14.203125 45.796875 21.1875 
Q 45.796875 27.640625 41.28125 31.265625 
Q 36.765625 34.90625 28.71875 34.90625 
L 20.21875 34.90625 
L 20.21875 43.015625 
L 29.109375 43.015625 
Q 36.375 43.015625 40.234375 45.921875 
Q 44.09375 48.828125 44.09375 54.296875 
Q 44.09375 59.90625 40.109375 62.90625 
Q 36.140625 65.921875 28.71875 65.921875 
Q 24.65625 65.921875 20.015625 65.03125 
Q 15.375 64.15625 9.8125 62.3125 
L 9.8125 71.09375 
Q 15.4375 72.65625 20.34375 73.4375 
Q 25.25 74.21875 29.59375 74.21875 
Q 40.828125 74.21875 47.359375 69.109375 
Q 53.90625 64.015625 53.90625 55.328125 
Q 53.90625 49.265625 50.4375 45.09375 
Q 46.96875 40.921875 40.578125 39.3125 
z
" id="DejaVuSans-51"/>
       <path d="M 31.78125 66.40625 
Q 24.171875 66.40625 20.328125 58.90625 
Q 16.5 51.421875 16.5 36.375 
Q 16.5 21.390625 20.328125 13.890625 
Q 24.171875 6.390625 31.78125 6.390625 
Q 39.453125 6.390625 43.28125 13.890625 
Q 47.125 21.390625 47.125 36.375 
Q 47.125 51.421875 43.28125 58.90625 
Q 39.453125 66.40625 31.78125 66.40625 
z
M 31.78125 74.21875 
Q 44.046875 74.21875 50.515625 64.515625 
Q 56.984375 54.828125 56.984375 36.375 
Q 56.984375 17.96875 50.515625 8.265625 
Q 44.046875 -1.421875 31.78125 -1.421875 
Q 19.53125 -1.421875 13.0625 8.265625 
Q 6.59375 17.96875 6.59375 36.375 
Q 6.59375 54.828125 13.0625 64.515625 
Q 19.53125 74.21875 31.78125 74.21875 
z
" id="DejaVuSans-48"/>
      </defs>
      <g transform="translate(72.927297 291.410437)scale(0.1 -0.1)">
       <use xlink:href="#DejaVuSans-51"/>
       <use x="63.623047" xlink:href="#DejaVuSans-48"/>
      </g>
     </g>
    </g>
    <g id="xtick_2">
     <g id="line2d_2">
      <g>
       <use style="stroke:#000000;stroke-width:0.8;" x="151.698753" xlink:href="#mf2e0a67b99" y="276.812"/>
      </g>
     </g>
     <g id="text_2">
      <!-- 40 -->
      <defs>
       <path d="M 37.796875 64.3125 
L 12.890625 25.390625 
L 37.796875 25.390625 
z
M 35.203125 72.90625 
L 47.609375 72.90625 
L 47.609375 25.390625 
L 58.015625 25.390625 
L 58.015625 17.1875 
L 47.609375 17.1875 
L 47.609375 0 
L 37.796875 0 
L 37.796875 17.1875 
L 4.890625 17.1875 
L 4.890625 26.703125 
z
" id="DejaVuSans-52"/>
      </defs>
      <g transform="translate(145.336253 291.410437)scale(0.1 -0.1)">
       <use xlink:href="#DejaVuSans-52"/>
       <use x="63.623047" xlink:href="#DejaVuSans-48"/>
      </g>
     </g>
    </g>
    <g id="xtick_3">
     <g id="line2d_3">
      <g>
       <use style="stroke:#000000;stroke-width:0.8;" x="224.107712" xlink:href="#mf2e0a67b99" y="276.812"/>
      </g>
     </g>
     <g id="text_3">
      <!-- 50 -->
      <defs>
       <path d="M 10.796875 72.90625 
L 49.515625 72.90625 
L 49.515625 64.59375 
L 19.828125 64.59375 
L 19.828125 46.734375 
Q 21.96875 47.46875 24.109375 47.828125 
Q 26.265625 48.1875 28.421875 48.1875 
Q 40.625 48.1875 47.75 41.5 
Q 54.890625 34.8125 54.890625 23.390625 
Q 54.890625 11.625 47.5625 5.09375 
Q 40.234375 -1.421875 26.90625 -1.421875 
Q 22.3125 -1.421875 17.546875 -0.640625 
Q 12.796875 0.140625 7.71875 1.703125 
L 7.71875 11.625 
Q 12.109375 9.234375 16.796875 8.0625 
Q 21.484375 6.890625 26.703125 6.890625 
Q 35.15625 6.890625 40.078125 11.328125 
Q 45.015625 15.765625 45.015625 23.390625 
Q 45.015625 31 40.078125 35.4375 
Q 35.15625 39.890625 26.703125 39.890625 
Q 22.75 39.890625 18.8125 39.015625 
Q 14.890625 38.140625 10.796875 36.28125 
z
" id="DejaVuSans-53"/>
      </defs>
      <g transform="translate(217.745212 291.410437)scale(0.1 -0.1)">
       <use xlink:href="#DejaVuSans-53"/>
       <use x="63.623047" xlink:href="#DejaVuSans-48"/>
      </g>
     </g>
    </g>
    <g id="xtick_4">
     <g id="line2d_4">
      <g>
       <use style="stroke:#000000;stroke-width:0.8;" x="296.516668" xlink:href="#mf2e0a67b99" y="276.812"/>
      </g>
     </g>
     <g id="text_4">
      <!-- 60 -->
      <defs>
       <path d="M 33.015625 40.375 
Q 26.375 40.375 22.484375 35.828125 
Q 18.609375 31.296875 18.609375 23.390625 
Q 18.609375 15.53125 22.484375 10.953125 
Q 26.375 6.390625 33.015625 6.390625 
Q 39.65625 6.390625 43.53125 10.953125 
Q 47.40625 15.53125 47.40625 23.390625 
Q 47.40625 31.296875 43.53125 35.828125 
Q 39.65625 40.375 33.015625 40.375 
z
M 52.59375 71.296875 
L 52.59375 62.3125 
Q 48.875 64.0625 45.09375 64.984375 
Q 41.3125 65.921875 37.59375 65.921875 
Q 27.828125 65.921875 22.671875 59.328125 
Q 17.53125 52.734375 16.796875 39.40625 
Q 19.671875 43.65625 24.015625 45.921875 
Q 28.375 48.1875 33.59375 48.1875 
Q 44.578125 48.1875 50.953125 41.515625 
Q 57.328125 34.859375 57.328125 23.390625 
Q 57.328125 12.15625 50.6875 5.359375 
Q 44.046875 -1.421875 33.015625 -1.421875 
Q 20.359375 -1.421875 13.671875 8.265625 
Q 6.984375 17.96875 6.984375 36.375 
Q 6.984375 53.65625 15.1875 63.9375 
Q 23.390625 74.21875 37.203125 74.21875 
Q 40.921875 74.21875 44.703125 73.484375 
Q 48.484375 72.75 52.59375 71.296875 
z
" id="DejaVuSans-54"/>
      </defs>
      <g transform="translate(290.154168 291.410437)scale(0.1 -0.1)">
       <use xlink:href="#DejaVuSans-54"/>
       <use x="63.623047" xlink:href="#DejaVuSans-48"/>
      </g>
     </g>
    </g>
    <g id="xtick_5">
     <g id="line2d_5">
      <g>
       <use style="stroke:#000000;stroke-width:0.8;" x="368.925627" xlink:href="#mf2e0a67b99" y="276.812"/>
      </g>
     </g>
     <g id="text_5">
      <!-- 70 -->
      <defs>
       <path d="M 8.203125 72.90625 
L 55.078125 72.90625 
L 55.078125 68.703125 
L 28.609375 0 
L 18.3125 0 
L 43.21875 64.59375 
L 8.203125 64.59375 
z
" id="DejaVuSans-55"/>
      </defs>
      <g transform="translate(362.563127 291.410437)scale(0.1 -0.1)">
       <use xlink:href="#DejaVuSans-55"/>
       <use x="63.623047" xlink:href="#DejaVuSans-48"/>
      </g>
     </g>
    </g>
    <g id="text_6">
     <!-- +1.5961756e9 -->
     <defs>
      <path d="M 46 62.703125 
L 46 35.5 
L 73.1875 35.5 
L 73.1875 27.203125 
L 46 27.203125 
L 46 0 
L 37.796875 0 
L 37.796875 27.203125 
L 10.59375 27.203125 
L 10.59375 35.5 
L 37.796875 35.5 
L 37.796875 62.703125 
z
" id="DejaVuSans-43"/>
      <path d="M 12.40625 8.296875 
L 28.515625 8.296875 
L 28.515625 63.921875 
L 10.984375 60.40625 
L 10.984375 69.390625 
L 28.421875 72.90625 
L 38.28125 72.90625 
L 38.28125 8.296875 
L 54.390625 8.296875 
L 54.390625 0 
L 12.40625 0 
z
" id="DejaVuSans-49"/>
      <path d="M 10.6875 12.40625 
L 21 12.40625 
L 21 0 
L 10.6875 0 
z
" id="DejaVuSans-46"/>
      <path d="M 10.984375 1.515625 
L 10.984375 10.5 
Q 14.703125 8.734375 18.5 7.8125 
Q 22.3125 6.890625 25.984375 6.890625 
Q 35.75 6.890625 40.890625 13.453125 
Q 46.046875 20.015625 46.78125 33.40625 
Q 43.953125 29.203125 39.59375 26.953125 
Q 35.25 24.703125 29.984375 24.703125 
Q 19.046875 24.703125 12.671875 31.3125 
Q 6.296875 37.9375 6.296875 49.421875 
Q 6.296875 60.640625 12.9375 67.421875 
Q 19.578125 74.21875 30.609375 74.21875 
Q 43.265625 74.21875 49.921875 64.515625 
Q 56.59375 54.828125 56.59375 36.375 
Q 56.59375 19.140625 48.40625 8.859375 
Q 40.234375 -1.421875 26.421875 -1.421875 
Q 22.703125 -1.421875 18.890625 -0.6875 
Q 15.09375 0.046875 10.984375 1.515625 
z
M 30.609375 32.421875 
Q 37.25 32.421875 41.125 36.953125 
Q 45.015625 41.5 45.015625 49.421875 
Q 45.015625 57.28125 41.125 61.84375 
Q 37.25 66.40625 30.609375 66.40625 
Q 23.96875 66.40625 20.09375 61.84375 
Q 16.21875 57.28125 16.21875 49.421875 
Q 16.21875 41.5 20.09375 36.953125 
Q 23.96875 32.421875 30.609375 32.421875 
z
" id="DejaVuSans-57"/>
      <path d="M 56.203125 29.59375 
L 56.203125 25.203125 
L 14.890625 25.203125 
Q 15.484375 15.921875 20.484375 11.0625 
Q 25.484375 6.203125 34.421875 6.203125 
Q 39.59375 6.203125 44.453125 7.46875 
Q 49.3125 8.734375 54.109375 11.28125 
L 54.109375 2.78125 
Q 49.265625 0.734375 44.1875 -0.34375 
Q 39.109375 -1.421875 33.890625 -1.421875 
Q 20.796875 -1.421875 13.15625 6.1875 
Q 5.515625 13.8125 5.515625 26.8125 
Q 5.515625 40.234375 12.765625 48.109375 
Q 20.015625 56 32.328125 56 
Q 43.359375 56 49.78125 48.890625 
Q 56.203125 41.796875 56.203125 29.59375 
z
M 47.21875 32.234375 
Q 47.125 39.59375 43.09375 43.984375 
Q 39.0625 48.390625 32.421875 48.390625 
Q 24.90625 48.390625 20.390625 44.140625 
Q 15.875 39.890625 15.1875 32.171875 
z
" id="DejaVuSans-101"/>
     </defs>
     <g transform="translate(309.071563 304.088562)scale(0.1 -0.1)">
      <use xlink:href="#DejaVuSans-43"/>
      <use x="83.789062" xlink:href="#DejaVuSans-49"/>
      <use x="147.412109" xlink:href="#DejaVuSans-46"/>
      <use x="179.199219" xlink:href="#DejaVuSans-53"/>
      <use x="242.822266" xlink:href="#DejaVuSans-57"/>
      <use x="306.445312" xlink:href="#DejaVuSans-54"/>
      <use x="370.068359" xlink:href="#DejaVuSans-49"/>
      <use x="433.691406" xlink:href="#DejaVuSans-55"/>
      <use x="497.314453" xlink:href="#DejaVuSans-53"/>
      <use x="560.9375" xlink:href="#DejaVuSans-54"/>
      <use x="624.560547" xlink:href="#DejaVuSans-101"/>
      <use x="686.083984" xlink:href="#DejaVuSans-57"/>
     </g>
    </g>
   </g>
   <g id="matplotlib.axis_2">
    <g id="ytick_1">
     <g id="line2d_6">
      <defs>
       <path d="M 0 0 
L -3.5 0 
" id="mf7ac0997ea" style="stroke:#000000;stroke-width:0.8;"/>
      </defs>
      <g>
       <use style="stroke:#000000;stroke-width:0.8;" x="26.925" xlink:href="#mf7ac0997ea" y="240.724074"/>
      </g>
     </g>
     <g id="text_7">
      <!-- 10 -->
      <g transform="translate(7.2 244.523293)scale(0.1 -0.1)">
       <use xlink:href="#DejaVuSans-49"/>
       <use x="63.623047" xlink:href="#DejaVuSans-48"/>
      </g>
     </g>
    </g>
    <g id="ytick_2">
     <g id="line2d_7">
      <g>
       <use style="stroke:#000000;stroke-width:0.8;" x="26.925" xlink:href="#mf7ac0997ea" y="186.525194"/>
      </g>
     </g>
     <g id="text_8">
      <!-- 20 -->
      <defs>
       <path d="M 19.1875 8.296875 
L 53.609375 8.296875 
L 53.609375 0 
L 7.328125 0 
L 7.328125 8.296875 
Q 12.9375 14.109375 22.625 23.890625 
Q 32.328125 33.6875 34.8125 36.53125 
Q 39.546875 41.84375 41.421875 45.53125 
Q 43.3125 49.21875 43.3125 52.78125 
Q 43.3125 58.59375 39.234375 62.25 
Q 35.15625 65.921875 28.609375 65.921875 
Q 23.96875 65.921875 18.8125 64.3125 
Q 13.671875 62.703125 7.8125 59.421875 
L 7.8125 69.390625 
Q 13.765625 71.78125 18.9375 73 
Q 24.125 74.21875 28.421875 74.21875 
Q 39.75 74.21875 46.484375 68.546875 
Q 53.21875 62.890625 53.21875 53.421875 
Q 53.21875 48.921875 51.53125 44.890625 
Q 49.859375 40.875 45.40625 35.40625 
Q 44.1875 33.984375 37.640625 27.21875 
Q 31.109375 20.453125 19.1875 8.296875 
z
" id="DejaVuSans-50"/>
      </defs>
      <g transform="translate(7.2 190.324413)scale(0.1 -0.1)">
       <use xlink:href="#DejaVuSans-50"/>
       <use x="63.623047" xlink:href="#DejaVuSans-48"/>
      </g>
     </g>
    </g>
    <g id="ytick_3">
     <g id="line2d_8">
      <g>
       <use style="stroke:#000000;stroke-width:0.8;" x="26.925" xlink:href="#mf7ac0997ea" y="132.326314"/>
      </g>
     </g>
     <g id="text_9">
      <!-- 30 -->
      <g transform="translate(7.2 136.125532)scale(0.1 -0.1)">
       <use xlink:href="#DejaVuSans-51"/>
       <use x="63.623047" xlink:href="#DejaVuSans-48"/>
      </g>
     </g>
    </g>
    <g id="ytick_4">
     <g id="line2d_9">
      <g>
       <use style="stroke:#000000;stroke-width:0.8;" x="26.925" xlink:href="#mf7ac0997ea" y="78.127433"/>
      </g>
     </g>
     <g id="text_10">
      <!-- 40 -->
      <g transform="translate(7.2 81.926652)scale(0.1 -0.1)">
       <use xlink:href="#DejaVuSans-52"/>
       <use x="63.623047" xlink:href="#DejaVuSans-48"/>
      </g>
     </g>
    </g>
    <g id="ytick_5">
     <g id="line2d_10">
      <g>
       <use style="stroke:#000000;stroke-width:0.8;" x="26.925" xlink:href="#mf7ac0997ea" y="23.928553"/>
      </g>
     </g>
     <g id="text_11">
      <!-- 50 -->
      <g transform="translate(7.2 27.727772)scale(0.1 -0.1)">
       <use xlink:href="#DejaVuSans-53"/>
       <use x="63.623047" xlink:href="#DejaVuSans-48"/>
      </g>
     </g>
    </g>
   </g>
   <g id="line2d_11">
    <path clip-path="url(#pa42e56c876)" d="M 43.157726 23.929018 
L 44.533495 23.925994 
L 45.402401 23.920645 
L 45.692038 23.932042 
L 46.705761 23.93902 
L 48.009121 23.944137 
L 48.515984 23.933205 
L 49.891752 23.922273 
L 50.615841 23.945998 
L 51.122704 23.936229 
L 52.498472 23.921808 
L 53.729424 23.940648 
L 54.163877 23.924831 
L 54.525921 23.945067 
L 55.032784 23.943904 
L 55.467237 23.92739 
L 55.612055 22.808328 
L 57.462713 22.806467 
L 57.535122 65.428063 
L 57.607531 65.419224 
L 62.31411 65.414572 
L 63.61747 65.409687 
L 64.051922 65.424341 
L 68.251638 65.412944 
L 68.68609 65.431784 
L 69.265362 65.416665 
L 69.917042 65.430621 
L 69.98945 52.70968 
L 70.061861 52.719681 
L 70.642183 52.720147 
L 71.438681 52.728055 
L 71.655907 52.729218 
L 71.728315 92.235277 
L 71.800724 92.234579 
L 72.379995 92.235974 
L 83.313738 92.230392 
L 84.037827 92.248535 
L 84.327463 92.230392 
L 84.399872 63.194741 
L 85.898876 63.187298 
L 85.971287 102.646849 
L 86.043695 102.639406 
L 86.550556 102.658711 
L 87.419464 102.642662 
L 88.795233 102.652431 
L 90.24341 102.648244 
L 90.677864 102.65685 
L 91.981224 102.660339 
L 93.212175 102.65057 
L 94.80517 102.641034 
L 95.167215 102.661735 
L 95.746487 102.643825 
L 96.905027 102.651733 
L 98.135979 102.654059 
L 98.642841 102.6622 
L 98.71525 93.090694 
L 98.787659 93.09302 
L 100.070829 93.112093 
L 100.143238 93.086275 
L 100.215647 132.586191 
L 100.288055 132.573399 
L 100.650101 132.593169 
L 101.301781 132.574329 
L 101.808643 132.589913 
L 102.243095 132.568747 
L 103.039595 132.592472 
L 103.474047 132.581307 
L 103.980909 132.575492 
L 105.067043 132.585959 
L 113.104429 132.581772 
L 113.176838 103.567952 
L 114.38938 103.545622 
L 114.534197 143.064468 
L 115.113468 143.053769 
L 115.982374 143.060514 
L 116.634054 143.058188 
L 117.647779 143.040511 
L 119.023548 143.054932 
L 121.195814 143.067259 
L 123.078445 143.062142 
L 123.368082 143.050047 
L 123.874943 143.046558 
L 126.843708 143.064468 
L 127.278162 143.043302 
L 127.422979 143.051443 
L 127.495388 133.498145 
L 127.567797 133.514194 
L 128.202568 133.489073 
L 128.63702 133.506053 
L 128.709429 172.99626 
L 128.781837 172.99184 
L 129.433517 172.98998 
L 131.750603 173.000912 
L 132.474691 172.98998 
L 140.439669 172.991143 
L 141.163759 172.985095 
L 141.887848 172.987421 
L 141.960257 143.981501 
L 142.88656 143.995225 
L 143.031378 183.518457 
L 143.610649 183.509153 
L 144.045103 183.526133 
L 144.407148 183.501245 
L 144.986418 183.514735 
L 148.389637 183.515433 
L 148.824089 183.496593 
L 149.54818 183.517526 
L 150.05504 183.503571 
L 151.068766 183.518689 
L 152.878988 183.505897 
L 154.10994 183.512875 
L 154.544392 183.497988 
L 154.834028 183.508455 
L 156.209797 183.523807 
L 156.282206 173.97561 
L 156.354614 173.982355 
L 157.065313 173.983518 
L 157.137722 173.974214 
L 157.210131 213.524245 
L 157.282539 213.506335 
L 158.006628 213.510289 
L 160.758167 213.519826 
L 161.047802 213.519593 
L 161.699482 213.509591 
L 162.278753 213.524012 
L 162.858025 213.495868 
L 163.509705 213.529129 
L 163.944159 213.498892 
L 165.247519 213.521919 
L 168.505919 213.504242 
L 169.012779 213.519826 
L 169.447233 213.507033 
L 170.098913 213.517965 
L 170.678185 213.517965 
L 170.750593 184.521812 
L 171.390978 184.515067 
L 171.535795 224.045472 
L 172.694338 224.050589 
L 173.708063 224.041517 
L 174.142515 224.047565 
L 175.301058 224.044076 
L 176.097555 224.058497 
L 176.604418 224.041285 
L 177.618143 224.050356 
L 180.007635 224.048961 
L 180.948952 224.046402 
L 181.600632 224.049891 
L 184.641804 224.04803 
L 185.003849 224.050589 
L 185.148666 214.52405 
L 185.645975 214.522654 
L 185.790792 254.1122 
L 186.297655 254.083823 
L 186.6597 254.094755 
L 187.31138 254.108013 
L 187.745832 254.089871 
L 188.325104 254.106618 
L 189.19401 254.091731 
L 190.642189 254.114061 
L 191.004232 254.104989 
L 191.945549 254.08801 
L 192.380001 254.095918 
L 193.10409 254.115224 
L 193.321318 254.083823 
L 193.610952 254.118015 
L 193.900589 254.107083 
L 195.276358 254.10057 
L 198.172712 254.082195 
L 198.534758 254.115456 
L 199.04162 254.093592 
L 199.476072 254.115224 
L 199.548481 225.136522 
L 199.903118 225.135126 
L 200.047935 264.705301 
L 201.351295 264.691577 
L 202.002975 264.693671 
L 204.392469 264.690647 
L 204.826923 264.705766 
L 210.547226 264.692508 
L 211.054087 264.699253 
L 212.864309 264.696695 
L 213.515989 264.701579 
L 213.805626 264.692973 
L 213.878035 255.175665 
L 213.950443 255.187062 
L 214.162106 255.18776 
L 214.306923 255.404514 
L 214.813786 255.391954 
L 217.999777 255.39963 
L 218.651457 255.403351 
L 220.896132 255.401956 
L 221.475403 255.389395 
L 222.706354 255.408933 
L 224.009714 255.401258 
L 224.806211 255.39428 
L 228.281839 255.402886 
L 228.354248 226.547663 
L 228.715891 226.547431 
L 228.7883 246.097774 
L 228.86071 246.088005 
L 242.618399 246.087307 
L 242.763216 236.409075 
L 243.05295 236.418844 
L 243.125359 246.141915 
L 243.197767 246.137729 
L 246.166533 246.140752 
L 246.96303 246.157499 
L 247.252665 246.151917 
L 248.338799 246.134472 
L 249.424932 246.13517 
L 250.076612 246.159128 
L 250.583475 246.154243 
L 257.100275 246.132844 
L 257.172684 216.799322 
L 257.534405 216.805602 
L 257.679222 246.115964 
L 258.54813 246.100846 
L 259.561853 246.110149 
L 265.571791 246.116895 
L 265.933836 246.11201 
L 266.802742 246.112941 
L 267.454422 246.112475 
L 269.119827 246.123407 
L 269.843916 246.106195 
L 270.423187 246.12364 
L 270.93005 246.109452 
L 271.436911 246.099915 
L 271.509319 236.421446 
L 271.58173 236.433541 
L 271.871382 236.420283 
L 271.94379 246.142148 
L 272.016199 246.130286 
L 273.24715 246.148661 
L 275.491827 246.141915 
L 277.302048 246.146567 
L 277.736502 246.142148 
L 279.401907 246.144241 
L 285.918707 246.143078 
L 285.991116 216.800033 
L 286.425175 216.787938 
L 286.497583 236.353513 
L 286.569992 236.350489 
L 287.366491 236.352582 
L 288.018171 236.356537 
L 290.480072 236.368864 
L 290.769709 236.343976 
L 291.131752 236.35328 
L 293.593655 236.360258 
L 294.390152 236.348861 
L 294.824606 236.357932 
L 295.476286 236.354211 
L 295.91074 236.358863 
L 296.490011 236.346768 
L 296.924463 236.356537 
L 298.445051 236.368166 
L 298.734686 236.351187 
L 300.255272 236.360026 
L 300.327682 226.669912 
L 300.400091 226.671773 
L 300.762201 226.679449 
L 300.907021 236.391709 
L 302.137972 236.382405 
L 303.079287 236.383568 
L 304.817101 236.387057 
L 305.396372 236.384266 
L 306.554913 236.403571 
L 307.206593 236.38822 
L 308.437544 236.398919 
L 309.234043 236.385894 
L 310.537403 236.398687 
L 313.650984 236.37031 
L 313.94062 236.382172 
L 314.737118 236.386592 
L 314.809526 207.03454 
L 315.243687 207.037331 
L 315.316095 236.343154 
L 315.388504 236.329198 
L 315.750549 236.336641 
L 317.053909 236.358272 
L 317.922815 236.325942 
L 318.502087 236.336641 
L 320.022673 236.328733 
L 320.384718 236.343851 
L 322.050121 236.323616 
L 322.412167 236.323848 
L 323.570709 236.343154 
L 326.973927 236.341991 
L 329.073784 236.348503 
L 329.218601 226.660187 
L 329.580669 226.652278 
L 329.653078 236.391243 
L 329.725487 236.387754 
L 332.187389 236.382172 
L 333.345932 236.405432 
L 334.576881 236.384266 
L 335.445789 236.384266 
L 336.097469 236.399617 
L 337.111193 236.384731 
L 338.486961 236.394965 
L 338.921415 236.392639 
L 339.428278 236.405664 
L 339.717913 236.389848 
L 342.179815 236.401012 
L 343.048721 236.372636 
L 343.555584 236.392406 
L 343.627993 207.032254 
L 344.061991 207.045512 
L 344.134399 236.345358 
L 344.206808 236.339311 
L 344.930897 236.329542 
L 345.220533 236.351173 
L 345.727396 236.336287 
L 347.392799 236.35001 
L 347.827253 236.340939 
L 348.406525 236.352103 
L 349.709885 236.344195 
L 354.054417 236.335589 
L 354.416462 236.336752 
L 356.805956 236.340706 
L 357.530045 236.340474 
L 357.892088 236.347684 
L 358.036907 226.053159 
L 358.326708 226.077349 
L 358.471525 235.794612 
L 360.861019 235.805079 
L 361.512699 235.799729 
L 362.526423 235.79624 
L 365.205551 235.79624 
L 366.00205 235.801357 
L 367.812271 235.809266 
L 367.812271 235.809266 
" style="fill:none;stroke:#ff0000;stroke-linecap:square;stroke-width:1.5;"/>
   </g>
   <g id="patch_3">
    <path d="M 26.925 276.812 
L 26.925 10.7 
" style="fill:none;stroke:#000000;stroke-linecap:square;stroke-linejoin:miter;stroke-width:0.8;"/>
   </g>
   <g id="patch_4">
    <path d="M 384.045 276.812 
L 384.045 10.7 
" style="fill:none;stroke:#000000;stroke-linecap:square;stroke-linejoin:miter;stroke-width:0.8;"/>
   </g>
   <g id="patch_5">
    <path d="M 26.924999 276.812 
L 384.044998 276.812 
" style="fill:none;stroke:#000000;stroke-linecap:square;stroke-linejoin:miter;stroke-width:0.8;"/>
   </g>
   <g id="patch_6">
    <path d="M 26.924999 10.7 
L 384.044998 10.7 
" style="fill:none;stroke:#000000;stroke-linecap:square;stroke-linejoin:miter;stroke-width:0.8;"/>
   </g>
  </g>
 </g>
 <defs>
  <clipPath id="pa42e56c876">
   <rect height="266.112" width="357.12" x="26.925" y="10.7"/>
  </clipPath>
 </defs>
</svg>
