<?xml version="1.0" encoding="utf-8" standalone="no"?>
<!DOCTYPE svg PUBLIC "-//W3C//DTD SVG 1.1//EN"
  "http://www.w3.org/Graphics/SVG/1.1/DTD/svg11.dtd">
<!-- Created with matplotlib (https://matplotlib.org/) -->
<svg height="313.36825pt" version="1.1" viewBox="0 0 401.1075 313.36825" width="401.1075pt" xmlns="http://www.w3.org/2000/svg" xmlns:xlink="http://www.w3.org/1999/xlink">
 <defs>
  <style type="text/css">
*{stroke-linecap:butt;stroke-linejoin:round;}
  </style>
 </defs>
 <g id="figure_1">
  <g id="patch_1">
   <path d="M 0 313.36825 
L 401.1075 313.36825 
L 401.1075 0 
L 0 0 
z
" style="fill:#ffffff;"/>
  </g>
  <g id="axes_1">
   <g id="patch_2">
    <path d="M 33.2875 276.812 
L 390.4075 276.812 
L 390.4075 10.7 
L 33.2875 10.7 
z
" style="fill:#ffffff;"/>
   </g>
   <g id="matplotlib.axis_1">
    <g id="xtick_1">
     <g id="line2d_1">
      <defs>
       <path d="M 0 0 
L 0 3.5 
" id="maad5544598" style="stroke:#000000;stroke-width:0.8;"/>
      </defs>
      <g>
       <use style="stroke:#000000;stroke-width:0.8;" x="71.166206" xlink:href="#maad5544598" y="276.812"/>
      </g>
     </g>
     <g id="text_1">
      <!-- 38 -->
      <defs>
       <path d="M 40.578125 39.3125 
Q 47.65625 37.796875 51.625 33 
Q 55.609375 28.21875 55.609375 21.1875 
Q 55.609375 10.40625 48.1875 4.484375 
Q 40.765625 -1.421875 27.09375 -1.421875 
Q 22.515625 -1.421875 17.65625 -0.515625 
Q 12.796875 0.390625 7.625 2.203125 
L 7.625 11.71875 
Q 11.71875 9.328125 16.59375 8.109375 
Q 21.484375 6.890625 26.8125 6.890625 
Q 36.078125 6.890625 40.9375 10.546875 
Q 45.796875 14.203125 45.796875 21.1875 
Q 45.796875 27.640625 41.28125 31.265625 
Q 36.765625 34.90625 28.71875 34.90625 
L 20.21875 34.90625 
L 20.21875 43.015625 
L 29.109375 43.015625 
Q 36.375 43.015625 40.234375 45.921875 
Q 44.09375 48.828125 44.09375 54.296875 
Q 44.09375 59.90625 40.109375 62.90625 
Q 36.140625 65.921875 28.71875 65.921875 
Q 24.65625 65.921875 20.015625 65.03125 
Q 15.375 64.15625 9.8125 62.3125 
L 9.8125 71.09375 
Q 15.4375 72.65625 20.34375 73.4375 
Q 25.25 74.21875 29.59375 74.21875 
Q 40.828125 74.21875 47.359375 69.109375 
Q 53.90625 64.015625 53.90625 55.328125 
Q 53.90625 49.265625 50.4375 45.09375 
Q 46.96875 40.921875 40.578125 39.3125 
z
" id="DejaVuSans-51"/>
       <path d="M 31.78125 34.625 
Q 24.75 34.625 20.71875 30.859375 
Q 16.703125 27.09375 16.703125 20.515625 
Q 16.703125 13.921875 20.71875 10.15625 
Q 24.75 6.390625 31.78125 6.390625 
Q 38.8125 6.390625 42.859375 10.171875 
Q 46.921875 13.96875 46.921875 20.515625 
Q 46.921875 27.09375 42.890625 30.859375 
Q 38.875 34.625 31.78125 34.625 
z
M 21.921875 38.8125 
Q 15.578125 40.375 12.03125 44.71875 
Q 8.5 49.078125 8.5 55.328125 
Q 8.5 64.0625 14.71875 69.140625 
Q 20.953125 74.21875 31.78125 74.21875 
Q 42.671875 74.21875 48.875 69.140625 
Q 55.078125 64.0625 55.078125 55.328125 
Q 55.078125 49.078125 51.53125 44.71875 
Q 48 40.375 41.703125 38.8125 
Q 48.828125 37.15625 52.796875 32.3125 
Q 56.78125 27.484375 56.78125 20.515625 
Q 56.78125 9.90625 50.3125 4.234375 
Q 43.84375 -1.421875 31.78125 -1.421875 
Q 19.734375 -1.421875 13.25 4.234375 
Q 6.78125 9.90625 6.78125 20.515625 
Q 6.78125 27.484375 10.78125 32.3125 
Q 14.796875 37.15625 21.921875 38.8125 
z
M 18.3125 54.390625 
Q 18.3125 48.734375 21.84375 45.5625 
Q 25.390625 42.390625 31.78125 42.390625 
Q 38.140625 42.390625 41.71875 45.5625 
Q 45.3125 48.734375 45.3125 54.390625 
Q 45.3125 60.0625 41.71875 63.234375 
Q 38.140625 66.40625 31.78125 66.40625 
Q 25.390625 66.40625 21.84375 63.234375 
Q 18.3125 60.0625 18.3125 54.390625 
z
" id="DejaVuSans-56"/>
      </defs>
      <g transform="translate(64.803706 291.410437)scale(0.1 -0.1)">
       <use xlink:href="#DejaVuSans-51"/>
       <use x="63.623047" xlink:href="#DejaVuSans-56"/>
      </g>
     </g>
    </g>
    <g id="xtick_2">
     <g id="line2d_2">
      <g>
       <use style="stroke:#000000;stroke-width:0.8;" x="114.458153" xlink:href="#maad5544598" y="276.812"/>
      </g>
     </g>
     <g id="text_2">
      <!-- 40 -->
      <defs>
       <path d="M 37.796875 64.3125 
L 12.890625 25.390625 
L 37.796875 25.390625 
z
M 35.203125 72.90625 
L 47.609375 72.90625 
L 47.609375 25.390625 
L 58.015625 25.390625 
L 58.015625 17.1875 
L 47.609375 17.1875 
L 47.609375 0 
L 37.796875 0 
L 37.796875 17.1875 
L 4.890625 17.1875 
L 4.890625 26.703125 
z
" id="DejaVuSans-52"/>
       <path d="M 31.78125 66.40625 
Q 24.171875 66.40625 20.328125 58.90625 
Q 16.5 51.421875 16.5 36.375 
Q 16.5 21.390625 20.328125 13.890625 
Q 24.171875 6.390625 31.78125 6.390625 
Q 39.453125 6.390625 43.28125 13.890625 
Q 47.125 21.390625 47.125 36.375 
Q 47.125 51.421875 43.28125 58.90625 
Q 39.453125 66.40625 31.78125 66.40625 
z
M 31.78125 74.21875 
Q 44.046875 74.21875 50.515625 64.515625 
Q 56.984375 54.828125 56.984375 36.375 
Q 56.984375 17.96875 50.515625 8.265625 
Q 44.046875 -1.421875 31.78125 -1.421875 
Q 19.53125 -1.421875 13.0625 8.265625 
Q 6.59375 17.96875 6.59375 36.375 
Q 6.59375 54.828125 13.0625 64.515625 
Q 19.53125 74.21875 31.78125 74.21875 
z
" id="DejaVuSans-48"/>
      </defs>
      <g transform="translate(108.095653 291.410437)scale(0.1 -0.1)">
       <use xlink:href="#DejaVuSans-52"/>
       <use x="63.623047" xlink:href="#DejaVuSans-48"/>
      </g>
     </g>
    </g>
    <g id="xtick_3">
     <g id="line2d_3">
      <g>
       <use style="stroke:#000000;stroke-width:0.8;" x="157.750107" xlink:href="#maad5544598" y="276.812"/>
      </g>
     </g>
     <g id="text_3">
      <!-- 42 -->
      <defs>
       <path d="M 19.1875 8.296875 
L 53.609375 8.296875 
L 53.609375 0 
L 7.328125 0 
L 7.328125 8.296875 
Q 12.9375 14.109375 22.625 23.890625 
Q 32.328125 33.6875 34.8125 36.53125 
Q 39.546875 41.84375 41.421875 45.53125 
Q 43.3125 49.21875 43.3125 52.78125 
Q 43.3125 58.59375 39.234375 62.25 
Q 35.15625 65.921875 28.609375 65.921875 
Q 23.96875 65.921875 18.8125 64.3125 
Q 13.671875 62.703125 7.8125 59.421875 
L 7.8125 69.390625 
Q 13.765625 71.78125 18.9375 73 
Q 24.125 74.21875 28.421875 74.21875 
Q 39.75 74.21875 46.484375 68.546875 
Q 53.21875 62.890625 53.21875 53.421875 
Q 53.21875 48.921875 51.53125 44.890625 
Q 49.859375 40.875 45.40625 35.40625 
Q 44.1875 33.984375 37.640625 27.21875 
Q 31.109375 20.453125 19.1875 8.296875 
z
" id="DejaVuSans-50"/>
      </defs>
      <g transform="translate(151.387607 291.410437)scale(0.1 -0.1)">
       <use xlink:href="#DejaVuSans-52"/>
       <use x="63.623047" xlink:href="#DejaVuSans-50"/>
      </g>
     </g>
    </g>
    <g id="xtick_4">
     <g id="line2d_4">
      <g>
       <use style="stroke:#000000;stroke-width:0.8;" x="201.042061" xlink:href="#maad5544598" y="276.812"/>
      </g>
     </g>
     <g id="text_4">
      <!-- 44 -->
      <g transform="translate(194.679561 291.410437)scale(0.1 -0.1)">
       <use xlink:href="#DejaVuSans-52"/>
       <use x="63.623047" xlink:href="#DejaVuSans-52"/>
      </g>
     </g>
    </g>
    <g id="xtick_5">
     <g id="line2d_5">
      <g>
       <use style="stroke:#000000;stroke-width:0.8;" x="244.334015" xlink:href="#maad5544598" y="276.812"/>
      </g>
     </g>
     <g id="text_5">
      <!-- 46 -->
      <defs>
       <path d="M 33.015625 40.375 
Q 26.375 40.375 22.484375 35.828125 
Q 18.609375 31.296875 18.609375 23.390625 
Q 18.609375 15.53125 22.484375 10.953125 
Q 26.375 6.390625 33.015625 6.390625 
Q 39.65625 6.390625 43.53125 10.953125 
Q 47.40625 15.53125 47.40625 23.390625 
Q 47.40625 31.296875 43.53125 35.828125 
Q 39.65625 40.375 33.015625 40.375 
z
M 52.59375 71.296875 
L 52.59375 62.3125 
Q 48.875 64.0625 45.09375 64.984375 
Q 41.3125 65.921875 37.59375 65.921875 
Q 27.828125 65.921875 22.671875 59.328125 
Q 17.53125 52.734375 16.796875 39.40625 
Q 19.671875 43.65625 24.015625 45.921875 
Q 28.375 48.1875 33.59375 48.1875 
Q 44.578125 48.1875 50.953125 41.515625 
Q 57.328125 34.859375 57.328125 23.390625 
Q 57.328125 12.15625 50.6875 5.359375 
Q 44.046875 -1.421875 33.015625 -1.421875 
Q 20.359375 -1.421875 13.671875 8.265625 
Q 6.984375 17.96875 6.984375 36.375 
Q 6.984375 53.65625 15.1875 63.9375 
Q 23.390625 74.21875 37.203125 74.21875 
Q 40.921875 74.21875 44.703125 73.484375 
Q 48.484375 72.75 52.59375 71.296875 
z
" id="DejaVuSans-54"/>
      </defs>
      <g transform="translate(237.971515 291.410437)scale(0.1 -0.1)">
       <use xlink:href="#DejaVuSans-52"/>
       <use x="63.623047" xlink:href="#DejaVuSans-54"/>
      </g>
     </g>
    </g>
    <g id="xtick_6">
     <g id="line2d_6">
      <g>
       <use style="stroke:#000000;stroke-width:0.8;" x="287.625969" xlink:href="#maad5544598" y="276.812"/>
      </g>
     </g>
     <g id="text_6">
      <!-- 48 -->
      <g transform="translate(281.263469 291.410437)scale(0.1 -0.1)">
       <use xlink:href="#DejaVuSans-52"/>
       <use x="63.623047" xlink:href="#DejaVuSans-56"/>
      </g>
     </g>
    </g>
    <g id="xtick_7">
     <g id="line2d_7">
      <g>
       <use style="stroke:#000000;stroke-width:0.8;" x="330.917923" xlink:href="#maad5544598" y="276.812"/>
      </g>
     </g>
     <g id="text_7">
      <!-- 50 -->
      <defs>
       <path d="M 10.796875 72.90625 
L 49.515625 72.90625 
L 49.515625 64.59375 
L 19.828125 64.59375 
L 19.828125 46.734375 
Q 21.96875 47.46875 24.109375 47.828125 
Q 26.265625 48.1875 28.421875 48.1875 
Q 40.625 48.1875 47.75 41.5 
Q 54.890625 34.8125 54.890625 23.390625 
Q 54.890625 11.625 47.5625 5.09375 
Q 40.234375 -1.421875 26.90625 -1.421875 
Q 22.3125 -1.421875 17.546875 -0.640625 
Q 12.796875 0.140625 7.71875 1.703125 
L 7.71875 11.625 
Q 12.109375 9.234375 16.796875 8.0625 
Q 21.484375 6.890625 26.703125 6.890625 
Q 35.15625 6.890625 40.078125 11.328125 
Q 45.015625 15.765625 45.015625 23.390625 
Q 45.015625 31 40.078125 35.4375 
Q 35.15625 39.890625 26.703125 39.890625 
Q 22.75 39.890625 18.8125 39.015625 
Q 14.890625 38.140625 10.796875 36.28125 
z
" id="DejaVuSans-53"/>
      </defs>
      <g transform="translate(324.555423 291.410437)scale(0.1 -0.1)">
       <use xlink:href="#DejaVuSans-53"/>
       <use x="63.623047" xlink:href="#DejaVuSans-48"/>
      </g>
     </g>
    </g>
    <g id="xtick_8">
     <g id="line2d_8">
      <g>
       <use style="stroke:#000000;stroke-width:0.8;" x="374.209877" xlink:href="#maad5544598" y="276.812"/>
      </g>
     </g>
     <g id="text_8">
      <!-- 52 -->
      <g transform="translate(367.847377 291.410437)scale(0.1 -0.1)">
       <use xlink:href="#DejaVuSans-53"/>
       <use x="63.623047" xlink:href="#DejaVuSans-50"/>
      </g>
     </g>
    </g>
    <g id="text_9">
     <!-- +1.5961603e9 -->
     <defs>
      <path d="M 46 62.703125 
L 46 35.5 
L 73.1875 35.5 
L 73.1875 27.203125 
L 46 27.203125 
L 46 0 
L 37.796875 0 
L 37.796875 27.203125 
L 10.59375 27.203125 
L 10.59375 35.5 
L 37.796875 35.5 
L 37.796875 62.703125 
z
" id="DejaVuSans-43"/>
      <path d="M 12.40625 8.296875 
L 28.515625 8.296875 
L 28.515625 63.921875 
L 10.984375 60.40625 
L 10.984375 69.390625 
L 28.421875 72.90625 
L 38.28125 72.90625 
L 38.28125 8.296875 
L 54.390625 8.296875 
L 54.390625 0 
L 12.40625 0 
z
" id="DejaVuSans-49"/>
      <path d="M 10.6875 12.40625 
L 21 12.40625 
L 21 0 
L 10.6875 0 
z
" id="DejaVuSans-46"/>
      <path d="M 10.984375 1.515625 
L 10.984375 10.5 
Q 14.703125 8.734375 18.5 7.8125 
Q 22.3125 6.890625 25.984375 6.890625 
Q 35.75 6.890625 40.890625 13.453125 
Q 46.046875 20.015625 46.78125 33.40625 
Q 43.953125 29.203125 39.59375 26.953125 
Q 35.25 24.703125 29.984375 24.703125 
Q 19.046875 24.703125 12.671875 31.3125 
Q 6.296875 37.9375 6.296875 49.421875 
Q 6.296875 60.640625 12.9375 67.421875 
Q 19.578125 74.21875 30.609375 74.21875 
Q 43.265625 74.21875 49.921875 64.515625 
Q 56.59375 54.828125 56.59375 36.375 
Q 56.59375 19.140625 48.40625 8.859375 
Q 40.234375 -1.421875 26.421875 -1.421875 
Q 22.703125 -1.421875 18.890625 -0.6875 
Q 15.09375 0.046875 10.984375 1.515625 
z
M 30.609375 32.421875 
Q 37.25 32.421875 41.125 36.953125 
Q 45.015625 41.5 45.015625 49.421875 
Q 45.015625 57.28125 41.125 61.84375 
Q 37.25 66.40625 30.609375 66.40625 
Q 23.96875 66.40625 20.09375 61.84375 
Q 16.21875 57.28125 16.21875 49.421875 
Q 16.21875 41.5 20.09375 36.953125 
Q 23.96875 32.421875 30.609375 32.421875 
z
" id="DejaVuSans-57"/>
      <path d="M 56.203125 29.59375 
L 56.203125 25.203125 
L 14.890625 25.203125 
Q 15.484375 15.921875 20.484375 11.0625 
Q 25.484375 6.203125 34.421875 6.203125 
Q 39.59375 6.203125 44.453125 7.46875 
Q 49.3125 8.734375 54.109375 11.28125 
L 54.109375 2.78125 
Q 49.265625 0.734375 44.1875 -0.34375 
Q 39.109375 -1.421875 33.890625 -1.421875 
Q 20.796875 -1.421875 13.15625 6.1875 
Q 5.515625 13.8125 5.515625 26.8125 
Q 5.515625 40.234375 12.765625 48.109375 
Q 20.015625 56 32.328125 56 
Q 43.359375 56 49.78125 48.890625 
Q 56.203125 41.796875 56.203125 29.59375 
z
M 47.21875 32.234375 
Q 47.125 39.59375 43.09375 43.984375 
Q 39.0625 48.390625 32.421875 48.390625 
Q 24.90625 48.390625 20.390625 44.140625 
Q 15.875 39.890625 15.1875 32.171875 
z
" id="DejaVuSans-101"/>
     </defs>
     <g transform="translate(315.434063 304.088562)scale(0.1 -0.1)">
      <use xlink:href="#DejaVuSans-43"/>
      <use x="83.789062" xlink:href="#DejaVuSans-49"/>
      <use x="147.412109" xlink:href="#DejaVuSans-46"/>
      <use x="179.199219" xlink:href="#DejaVuSans-53"/>
      <use x="242.822266" xlink:href="#DejaVuSans-57"/>
      <use x="306.445312" xlink:href="#DejaVuSans-54"/>
      <use x="370.068359" xlink:href="#DejaVuSans-49"/>
      <use x="433.691406" xlink:href="#DejaVuSans-54"/>
      <use x="497.314453" xlink:href="#DejaVuSans-48"/>
      <use x="560.9375" xlink:href="#DejaVuSans-51"/>
      <use x="624.560547" xlink:href="#DejaVuSans-101"/>
      <use x="686.083984" xlink:href="#DejaVuSans-57"/>
     </g>
    </g>
   </g>
   <g id="matplotlib.axis_2">
    <g id="ytick_1">
     <g id="line2d_9">
      <defs>
       <path d="M 0 0 
L -3.5 0 
" id="m132c0ad099" style="stroke:#000000;stroke-width:0.8;"/>
      </defs>
      <g>
       <use style="stroke:#000000;stroke-width:0.8;" x="33.2875" xlink:href="#m132c0ad099" y="264.716"/>
      </g>
     </g>
     <g id="text_10">
      <!-- 0 -->
      <g transform="translate(19.925 268.515219)scale(0.1 -0.1)">
       <use xlink:href="#DejaVuSans-48"/>
      </g>
     </g>
    </g>
    <g id="ytick_2">
     <g id="line2d_10">
      <g>
       <use style="stroke:#000000;stroke-width:0.8;" x="33.2875" xlink:href="#m132c0ad099" y="231.116"/>
      </g>
     </g>
     <g id="text_11">
      <!-- 50 -->
      <g transform="translate(13.5625 234.915219)scale(0.1 -0.1)">
       <use xlink:href="#DejaVuSans-53"/>
       <use x="63.623047" xlink:href="#DejaVuSans-48"/>
      </g>
     </g>
    </g>
    <g id="ytick_3">
     <g id="line2d_11">
      <g>
       <use style="stroke:#000000;stroke-width:0.8;" x="33.2875" xlink:href="#m132c0ad099" y="197.516"/>
      </g>
     </g>
     <g id="text_12">
      <!-- 100 -->
      <g transform="translate(7.2 201.315219)scale(0.1 -0.1)">
       <use xlink:href="#DejaVuSans-49"/>
       <use x="63.623047" xlink:href="#DejaVuSans-48"/>
       <use x="127.246094" xlink:href="#DejaVuSans-48"/>
      </g>
     </g>
    </g>
    <g id="ytick_4">
     <g id="line2d_12">
      <g>
       <use style="stroke:#000000;stroke-width:0.8;" x="33.2875" xlink:href="#m132c0ad099" y="163.916"/>
      </g>
     </g>
     <g id="text_13">
      <!-- 150 -->
      <g transform="translate(7.2 167.715219)scale(0.1 -0.1)">
       <use xlink:href="#DejaVuSans-49"/>
       <use x="63.623047" xlink:href="#DejaVuSans-53"/>
       <use x="127.246094" xlink:href="#DejaVuSans-48"/>
      </g>
     </g>
    </g>
    <g id="ytick_5">
     <g id="line2d_13">
      <g>
       <use style="stroke:#000000;stroke-width:0.8;" x="33.2875" xlink:href="#m132c0ad099" y="130.316"/>
      </g>
     </g>
     <g id="text_14">
      <!-- 200 -->
      <g transform="translate(7.2 134.115219)scale(0.1 -0.1)">
       <use xlink:href="#DejaVuSans-50"/>
       <use x="63.623047" xlink:href="#DejaVuSans-48"/>
       <use x="127.246094" xlink:href="#DejaVuSans-48"/>
      </g>
     </g>
    </g>
    <g id="ytick_6">
     <g id="line2d_14">
      <g>
       <use style="stroke:#000000;stroke-width:0.8;" x="33.2875" xlink:href="#m132c0ad099" y="96.716"/>
      </g>
     </g>
     <g id="text_15">
      <!-- 250 -->
      <g transform="translate(7.2 100.515219)scale(0.1 -0.1)">
       <use xlink:href="#DejaVuSans-50"/>
       <use x="63.623047" xlink:href="#DejaVuSans-53"/>
       <use x="127.246094" xlink:href="#DejaVuSans-48"/>
      </g>
     </g>
    </g>
    <g id="ytick_7">
     <g id="line2d_15">
      <g>
       <use style="stroke:#000000;stroke-width:0.8;" x="33.2875" xlink:href="#m132c0ad099" y="63.116"/>
      </g>
     </g>
     <g id="text_16">
      <!-- 300 -->
      <g transform="translate(7.2 66.915219)scale(0.1 -0.1)">
       <use xlink:href="#DejaVuSans-51"/>
       <use x="63.623047" xlink:href="#DejaVuSans-48"/>
       <use x="127.246094" xlink:href="#DejaVuSans-48"/>
      </g>
     </g>
    </g>
    <g id="ytick_8">
     <g id="line2d_16">
      <g>
       <use style="stroke:#000000;stroke-width:0.8;" x="33.2875" xlink:href="#m132c0ad099" y="29.516"/>
      </g>
     </g>
     <g id="text_17">
      <!-- 350 -->
      <g transform="translate(7.2 33.315219)scale(0.1 -0.1)">
       <use xlink:href="#DejaVuSans-51"/>
       <use x="63.623047" xlink:href="#DejaVuSans-53"/>
       <use x="127.246094" xlink:href="#DejaVuSans-48"/>
      </g>
     </g>
    </g>
   </g>
   <g id="line2d_17">
    <path clip-path="url(#pb41b1796f5)" d="M 67.078369 22.796 
" style="fill:none;stroke:#1f77b4;stroke-linecap:square;stroke-width:1.5;"/>
    <defs>
     <path d="M 0 3 
C 0.795609 3 1.55874 2.683901 2.12132 2.12132 
C 2.683901 1.55874 3 0.795609 3 0 
C 3 -0.795609 2.683901 -1.55874 2.12132 -2.12132 
C 1.55874 -2.683901 0.795609 -3 0 -3 
C -0.795609 -3 -1.55874 -2.683901 -2.12132 -2.12132 
C -2.683901 -1.55874 -3 -0.795609 -3 0 
C -3 0.795609 -2.683901 1.55874 -2.12132 2.12132 
C -1.55874 2.683901 -0.795609 3 0 3 
z
" id="m0c81c83921" style="stroke:#1f77b4;"/>
    </defs>
    <g clip-path="url(#pb41b1796f5)">
     <use style="fill:#1f77b4;stroke:#1f77b4;" x="67.078369" xlink:href="#m0c81c83921" y="22.796"/>
    </g>
   </g>
   <g id="line2d_18">
    <path clip-path="url(#pb41b1796f5)" d="M 95.578751 22.796 
" style="fill:none;stroke:#ff7f0e;stroke-linecap:square;stroke-width:1.5;"/>
    <defs>
     <path d="M 0 3 
C 0.795609 3 1.55874 2.683901 2.12132 2.12132 
C 2.683901 1.55874 3 0.795609 3 0 
C 3 -0.795609 2.683901 -1.55874 2.12132 -2.12132 
C 1.55874 -2.683901 0.795609 -3 0 -3 
C -0.795609 -3 -1.55874 -2.683901 -2.12132 -2.12132 
C -2.683901 -1.55874 -3 -0.795609 -3 0 
C -3 0.795609 -2.683901 1.55874 -2.12132 2.12132 
C -1.55874 2.683901 -0.795609 3 0 3 
z
" id="m8b7aa8d7ba" style="stroke:#ff7f0e;"/>
    </defs>
    <g clip-path="url(#pb41b1796f5)">
     <use style="fill:#ff7f0e;stroke:#ff7f0e;" x="95.578751" xlink:href="#m8b7aa8d7ba" y="22.796"/>
    </g>
   </g>
   <g id="line2d_19">
    <path clip-path="url(#pb41b1796f5)" d="M 126.978142 22.796 
" style="fill:none;stroke:#2ca02c;stroke-linecap:square;stroke-width:1.5;"/>
    <defs>
     <path d="M 0 3 
C 0.795609 3 1.55874 2.683901 2.12132 2.12132 
C 2.683901 1.55874 3 0.795609 3 0 
C 3 -0.795609 2.683901 -1.55874 2.12132 -2.12132 
C 1.55874 -2.683901 0.795609 -3 0 -3 
C -0.795609 -3 -1.55874 -2.683901 -2.12132 -2.12132 
C -2.683901 -1.55874 -3 -0.795609 -3 0 
C -3 0.795609 -2.683901 1.55874 -2.12132 2.12132 
C -1.55874 2.683901 -0.795609 3 0 3 
z
" id="mf249872630" style="stroke:#2ca02c;"/>
    </defs>
    <g clip-path="url(#pb41b1796f5)">
     <use style="fill:#2ca02c;stroke:#2ca02c;" x="126.978142" xlink:href="#mf249872630" y="22.796"/>
    </g>
   </g>
   <g id="line2d_20">
    <path clip-path="url(#pb41b1796f5)" d="M 151.053932 22.796 
" style="fill:none;stroke:#d62728;stroke-linecap:square;stroke-width:1.5;"/>
    <defs>
     <path d="M 0 3 
C 0.795609 3 1.55874 2.683901 2.12132 2.12132 
C 2.683901 1.55874 3 0.795609 3 0 
C 3 -0.795609 2.683901 -1.55874 2.12132 -2.12132 
C 1.55874 -2.683901 0.795609 -3 0 -3 
C -0.795609 -3 -1.55874 -2.683901 -2.12132 -2.12132 
C -2.683901 -1.55874 -3 -0.795609 -3 0 
C -3 0.795609 -2.683901 1.55874 -2.12132 2.12132 
C -1.55874 2.683901 -0.795609 3 0 3 
z
" id="m487f961430" style="stroke:#d62728;"/>
    </defs>
    <g clip-path="url(#pb41b1796f5)">
     <use style="fill:#d62728;stroke:#d62728;" x="151.053932" xlink:href="#m487f961430" y="22.796"/>
    </g>
   </g>
   <g id="line2d_21">
    <path clip-path="url(#pb41b1796f5)" d="M 163.719894 22.796 
" style="fill:none;stroke:#9467bd;stroke-linecap:square;stroke-width:1.5;"/>
    <defs>
     <path d="M 0 3 
C 0.795609 3 1.55874 2.683901 2.12132 2.12132 
C 2.683901 1.55874 3 0.795609 3 0 
C 3 -0.795609 2.683901 -1.55874 2.12132 -2.12132 
C 1.55874 -2.683901 0.795609 -3 0 -3 
C -0.795609 -3 -1.55874 -2.683901 -2.12132 -2.12132 
C -2.683901 -1.55874 -3 -0.795609 -3 0 
C -3 0.795609 -2.683901 1.55874 -2.12132 2.12132 
C -1.55874 2.683901 -0.795609 3 0 3 
z
" id="m1bbcf108f1" style="stroke:#9467bd;"/>
    </defs>
    <g clip-path="url(#pb41b1796f5)">
     <use style="fill:#9467bd;stroke:#9467bd;" x="163.719894" xlink:href="#m1bbcf108f1" y="22.796"/>
    </g>
   </g>
   <g id="line2d_22">
    <path clip-path="url(#pb41b1796f5)" d="M 192.012703 22.796 
" style="fill:none;stroke:#8c564b;stroke-linecap:square;stroke-width:1.5;"/>
    <defs>
     <path d="M 0 3 
C 0.795609 3 1.55874 2.683901 2.12132 2.12132 
C 2.683901 1.55874 3 0.795609 3 0 
C 3 -0.795609 2.683901 -1.55874 2.12132 -2.12132 
C 1.55874 -2.683901 0.795609 -3 0 -3 
C -0.795609 -3 -1.55874 -2.683901 -2.12132 -2.12132 
C -2.683901 -1.55874 -3 -0.795609 -3 0 
C -3 0.795609 -2.683901 1.55874 -2.12132 2.12132 
C -1.55874 2.683901 -0.795609 3 0 3 
z
" id="m196e7899f2" style="stroke:#8c564b;"/>
    </defs>
    <g clip-path="url(#pb41b1796f5)">
     <use style="fill:#8c564b;stroke:#8c564b;" x="192.012703" xlink:href="#m196e7899f2" y="22.796"/>
    </g>
   </g>
   <g id="line2d_23">
    <path clip-path="url(#pb41b1796f5)" d="M 210.389824 22.796 
" style="fill:none;stroke:#e377c2;stroke-linecap:square;stroke-width:1.5;"/>
    <defs>
     <path d="M 0 3 
C 0.795609 3 1.55874 2.683901 2.12132 2.12132 
C 2.683901 1.55874 3 0.795609 3 0 
C 3 -0.795609 2.683901 -1.55874 2.12132 -2.12132 
C 1.55874 -2.683901 0.795609 -3 0 -3 
C -0.795609 -3 -1.55874 -2.683901 -2.12132 -2.12132 
C -2.683901 -1.55874 -3 -0.795609 -3 0 
C -3 0.795609 -2.683901 1.55874 -2.12132 2.12132 
C -1.55874 2.683901 -0.795609 3 0 3 
z
" id="m528ec4da49" style="stroke:#e377c2;"/>
    </defs>
    <g clip-path="url(#pb41b1796f5)">
     <use style="fill:#e377c2;stroke:#e377c2;" x="210.389824" xlink:href="#m528ec4da49" y="22.796"/>
    </g>
   </g>
   <g id="line2d_24">
    <path clip-path="url(#pb41b1796f5)" d="M 242.692421 22.796 
" style="fill:none;stroke:#7f7f7f;stroke-linecap:square;stroke-width:1.5;"/>
    <defs>
     <path d="M 0 3 
C 0.795609 3 1.55874 2.683901 2.12132 2.12132 
C 2.683901 1.55874 3 0.795609 3 0 
C 3 -0.795609 2.683901 -1.55874 2.12132 -2.12132 
C 1.55874 -2.683901 0.795609 -3 0 -3 
C -0.795609 -3 -1.55874 -2.683901 -2.12132 -2.12132 
C -2.683901 -1.55874 -3 -0.795609 -3 0 
C -3 0.795609 -2.683901 1.55874 -2.12132 2.12132 
C -1.55874 2.683901 -0.795609 3 0 3 
z
" id="m39fb61cbe9" style="stroke:#7f7f7f;"/>
    </defs>
    <g clip-path="url(#pb41b1796f5)">
     <use style="fill:#7f7f7f;stroke:#7f7f7f;" x="242.692421" xlink:href="#m39fb61cbe9" y="22.796"/>
    </g>
   </g>
   <g id="line2d_25">
    <path clip-path="url(#pb41b1796f5)" d="M 246.440697 22.796 
" style="fill:none;stroke:#bcbd22;stroke-linecap:square;stroke-width:1.5;"/>
    <defs>
     <path d="M 0 3 
C 0.795609 3 1.55874 2.683901 2.12132 2.12132 
C 2.683901 1.55874 3 0.795609 3 0 
C 3 -0.795609 2.683901 -1.55874 2.12132 -2.12132 
C 1.55874 -2.683901 0.795609 -3 0 -3 
C -0.795609 -3 -1.55874 -2.683901 -2.12132 -2.12132 
C -2.683901 -1.55874 -3 -0.795609 -3 0 
C -3 0.795609 -2.683901 1.55874 -2.12132 2.12132 
C -1.55874 2.683901 -0.795609 3 0 3 
z
" id="m3ee088139c" style="stroke:#bcbd22;"/>
    </defs>
    <g clip-path="url(#pb41b1796f5)">
     <use style="fill:#bcbd22;stroke:#bcbd22;" x="246.440697" xlink:href="#m3ee088139c" y="22.796"/>
    </g>
   </g>
   <g id="line2d_26">
    <path clip-path="url(#pb41b1796f5)" d="M 289.73288 22.796 
" style="fill:none;stroke:#17becf;stroke-linecap:square;stroke-width:1.5;"/>
    <defs>
     <path d="M 0 3 
C 0.795609 3 1.55874 2.683901 2.12132 2.12132 
C 2.683901 1.55874 3 0.795609 3 0 
C 3 -0.795609 2.683901 -1.55874 2.12132 -2.12132 
C 1.55874 -2.683901 0.795609 -3 0 -3 
C -0.795609 -3 -1.55874 -2.683901 -2.12132 -2.12132 
C -2.683901 -1.55874 -3 -0.795609 -3 0 
C -3 0.795609 -2.683901 1.55874 -2.12132 2.12132 
C -1.55874 2.683901 -0.795609 3 0 3 
z
" id="m32d528e67f" style="stroke:#17becf;"/>
    </defs>
    <g clip-path="url(#pb41b1796f5)">
     <use style="fill:#17becf;stroke:#17becf;" x="289.73288" xlink:href="#m32d528e67f" y="22.796"/>
    </g>
   </g>
   <g id="line2d_27">
    <path clip-path="url(#pb41b1796f5)" d="M 312.51004 22.796 
" style="fill:none;stroke:#1f77b4;stroke-linecap:square;stroke-width:1.5;"/>
    <g clip-path="url(#pb41b1796f5)">
     <use style="fill:#1f77b4;stroke:#1f77b4;" x="312.51004" xlink:href="#m0c81c83921" y="22.796"/>
    </g>
   </g>
   <g id="line2d_28">
    <path clip-path="url(#pb41b1796f5)" d="M 332.544502 22.796 
" style="fill:none;stroke:#ff7f0e;stroke-linecap:square;stroke-width:1.5;"/>
    <g clip-path="url(#pb41b1796f5)">
     <use style="fill:#ff7f0e;stroke:#ff7f0e;" x="332.544502" xlink:href="#m8b7aa8d7ba" y="22.796"/>
    </g>
   </g>
   <g id="line2d_29">
    <path clip-path="url(#pb41b1796f5)" d="M 351.230057 22.796 
" style="fill:none;stroke:#2ca02c;stroke-linecap:square;stroke-width:1.5;"/>
    <g clip-path="url(#pb41b1796f5)">
     <use style="fill:#2ca02c;stroke:#2ca02c;" x="351.230057" xlink:href="#mf249872630" y="22.796"/>
    </g>
   </g>
   <g id="line2d_30">
    <path clip-path="url(#pb41b1796f5)" d="M 49.520226 120.908 
L 67.078369 22.796 
L 67.078369 264.716 
L 67.29483 180.848491 
L 95.578751 22.796 
L 95.578751 264.716 
L 95.795204 197.048408 
L 126.978142 22.796 
L 126.978142 264.716 
L 127.194603 156.122971 
L 151.053932 22.796 
L 151.053932 264.716 
L 151.270393 92.364648 
L 163.719894 22.796 
L 163.719894 264.716 
L 163.936356 179.687774 
L 192.012703 22.796 
L 192.012703 264.716 
L 192.229164 124.278382 
L 210.389824 22.796 
L 210.389824 264.716 
L 210.606277 202.093342 
L 242.692421 22.796 
L 242.692421 264.716 
L 242.908875 42.529841 
L 246.440697 22.796 
L 246.440697 264.716 
L 289.73288 22.796 
L 289.73288 264.716 
L 289.949341 148.86528 
L 312.51004 22.796 
L 312.51004 264.716 
L 312.726501 133.539597 
L 332.544502 22.796 
L 332.544502 264.716 
L 332.760963 126.000793 
L 351.230057 22.796 
L 351.230057 264.716 
L 351.446518 206.334657 
L 374.174767 79.326259 
L 374.174767 79.326259 
" style="fill:none;stroke:#ff0000;stroke-linecap:square;stroke-width:1.5;"/>
   </g>
   <g id="line2d_31">
    <path clip-path="url(#pb41b1796f5)" d="M 65.755257 22.796 
" style="fill:none;stroke:#d62728;stroke-linecap:square;stroke-width:1.5;"/>
    <g clip-path="url(#pb41b1796f5)">
     <use style="fill:#d62728;stroke:#d62728;" x="65.755257" xlink:href="#m487f961430" y="22.796"/>
    </g>
   </g>
   <g id="line2d_32">
    <path clip-path="url(#pb41b1796f5)" d="M 109.047279 22.796 
" style="fill:none;stroke:#9467bd;stroke-linecap:square;stroke-width:1.5;"/>
    <g clip-path="url(#pb41b1796f5)">
     <use style="fill:#9467bd;stroke:#9467bd;" x="109.047279" xlink:href="#m1bbcf108f1" y="22.796"/>
    </g>
   </g>
   <g id="line2d_33">
    <path clip-path="url(#pb41b1796f5)" d="M 134.317818 22.796 
" style="fill:none;stroke:#8c564b;stroke-linecap:square;stroke-width:1.5;"/>
    <g clip-path="url(#pb41b1796f5)">
     <use style="fill:#8c564b;stroke:#8c564b;" x="134.317818" xlink:href="#m196e7899f2" y="22.796"/>
    </g>
   </g>
   <g id="line2d_34">
    <path clip-path="url(#pb41b1796f5)" d="M 142.757904 22.796 
" style="fill:none;stroke:#e377c2;stroke-linecap:square;stroke-width:1.5;"/>
    <g clip-path="url(#pb41b1796f5)">
     <use style="fill:#e377c2;stroke:#e377c2;" x="142.757904" xlink:href="#m528ec4da49" y="22.796"/>
    </g>
   </g>
   <g id="line2d_35">
    <path clip-path="url(#pb41b1796f5)" d="M 186.050331 22.796 
" style="fill:none;stroke:#7f7f7f;stroke-linecap:square;stroke-width:1.5;"/>
    <g clip-path="url(#pb41b1796f5)">
     <use style="fill:#7f7f7f;stroke:#7f7f7f;" x="186.050331" xlink:href="#m39fb61cbe9" y="22.796"/>
    </g>
   </g>
   <g id="line2d_36">
    <path clip-path="url(#pb41b1796f5)" d="M 198.20282 22.796 
" style="fill:none;stroke:#bcbd22;stroke-linecap:square;stroke-width:1.5;"/>
    <g clip-path="url(#pb41b1796f5)">
     <use style="fill:#bcbd22;stroke:#bcbd22;" x="198.20282" xlink:href="#m3ee088139c" y="22.796"/>
    </g>
   </g>
   <g id="line2d_37">
    <path clip-path="url(#pb41b1796f5)" d="M 228.509964 22.796 
" style="fill:none;stroke:#17becf;stroke-linecap:square;stroke-width:1.5;"/>
    <g clip-path="url(#pb41b1796f5)">
     <use style="fill:#17becf;stroke:#17becf;" x="228.509964" xlink:href="#m32d528e67f" y="22.796"/>
    </g>
   </g>
   <g id="line2d_38">
    <path clip-path="url(#pb41b1796f5)" d="M 237.341278 22.796 
" style="fill:none;stroke:#1f77b4;stroke-linecap:square;stroke-width:1.5;"/>
    <g clip-path="url(#pb41b1796f5)">
     <use style="fill:#1f77b4;stroke:#1f77b4;" x="237.341278" xlink:href="#m0c81c83921" y="22.796"/>
    </g>
   </g>
   <g id="line2d_39">
    <path clip-path="url(#pb41b1796f5)" d="M 280.633675 22.796 
" style="fill:none;stroke:#ff7f0e;stroke-linecap:square;stroke-width:1.5;"/>
    <g clip-path="url(#pb41b1796f5)">
     <use style="fill:#ff7f0e;stroke:#ff7f0e;" x="280.633675" xlink:href="#m8b7aa8d7ba" y="22.796"/>
    </g>
   </g>
   <g id="line2d_40">
    <path clip-path="url(#pb41b1796f5)" d="M 307.312096 22.796 
" style="fill:none;stroke:#2ca02c;stroke-linecap:square;stroke-width:1.5;"/>
    <g clip-path="url(#pb41b1796f5)">
     <use style="fill:#2ca02c;stroke:#2ca02c;" x="307.312096" xlink:href="#mf249872630" y="22.796"/>
    </g>
   </g>
   <g id="line2d_41">
    <path clip-path="url(#pb41b1796f5)" d="M 330.036087 22.796 
" style="fill:none;stroke:#d62728;stroke-linecap:square;stroke-width:1.5;"/>
    <g clip-path="url(#pb41b1796f5)">
     <use style="fill:#d62728;stroke:#d62728;" x="330.036087" xlink:href="#m487f961430" y="22.796"/>
    </g>
   </g>
   <g id="line2d_42">
    <path clip-path="url(#pb41b1796f5)" d="M 353.283394 22.796 
" style="fill:none;stroke:#9467bd;stroke-linecap:square;stroke-width:1.5;"/>
    <g clip-path="url(#pb41b1796f5)">
     <use style="fill:#9467bd;stroke:#9467bd;" x="353.283394" xlink:href="#m1bbcf108f1" y="22.796"/>
    </g>
   </g>
   <g id="line2d_43">
    <path clip-path="url(#pb41b1796f5)" d="M 364.807419 22.796 
" style="fill:none;stroke:#8c564b;stroke-linecap:square;stroke-width:1.5;"/>
    <g clip-path="url(#pb41b1796f5)">
     <use style="fill:#8c564b;stroke:#8c564b;" x="364.807419" xlink:href="#m196e7899f2" y="22.796"/>
    </g>
   </g>
   <g id="line2d_44">
    <path clip-path="url(#pb41b1796f5)" d="M 49.520226 113.516 
L 65.755257 22.796 
L 65.755257 264.716 
L 109.047279 22.796 
L 109.047279 264.716 
L 109.263733 162.799471 
L 134.317818 22.796 
L 134.317818 264.716 
L 134.534271 68.747071 
L 142.757904 22.796 
L 142.757904 264.716 
L 186.050331 22.796 
L 186.050331 264.716 
L 186.266792 89.495663 
L 198.20282 22.796 
L 198.20282 264.716 
L 198.419273 190.942863 
L 228.509964 22.796 
L 228.509964 264.716 
L 228.726425 70.93472 
L 237.341278 22.796 
L 237.341278 264.716 
L 280.633675 22.796 
L 280.633675 264.716 
L 280.850136 170.666645 
L 307.312096 22.796 
L 307.312096 264.716 
L 307.528549 148.567572 
L 330.036087 22.796 
L 330.036087 264.716 
L 330.252548 151.492056 
L 353.283394 22.796 
L 353.283394 264.716 
L 353.499855 85.982261 
L 364.807419 22.796 
L 364.807419 264.716 
L 365.02388 200.208728 
L 374.115181 149.406009 
L 374.115181 149.406009 
" style="fill:none;stroke:#0000ff;stroke-linecap:square;stroke-width:1.5;"/>
   </g>
   <g id="line2d_45">
    <path clip-path="url(#pb41b1796f5)" d="M 85.717766 22.796 
" style="fill:none;stroke:#e377c2;stroke-linecap:square;stroke-width:1.5;"/>
    <g clip-path="url(#pb41b1796f5)">
     <use style="fill:#e377c2;stroke:#e377c2;" x="85.717766" xlink:href="#m528ec4da49" y="22.796"/>
    </g>
   </g>
   <g id="line2d_46">
    <path clip-path="url(#pb41b1796f5)" d="M 112.36187 22.796 
" style="fill:none;stroke:#7f7f7f;stroke-linecap:square;stroke-width:1.5;"/>
    <g clip-path="url(#pb41b1796f5)">
     <use style="fill:#7f7f7f;stroke:#7f7f7f;" x="112.36187" xlink:href="#m39fb61cbe9" y="22.796"/>
    </g>
   </g>
   <g id="line2d_47">
    <path clip-path="url(#pb41b1796f5)" d="M 132.531937 22.796 
" style="fill:none;stroke:#bcbd22;stroke-linecap:square;stroke-width:1.5;"/>
    <g clip-path="url(#pb41b1796f5)">
     <use style="fill:#bcbd22;stroke:#bcbd22;" x="132.531937" xlink:href="#m3ee088139c" y="22.796"/>
    </g>
   </g>
   <g id="line2d_48">
    <path clip-path="url(#pb41b1796f5)" d="M 162.713623 22.796 
" style="fill:none;stroke:#17becf;stroke-linecap:square;stroke-width:1.5;"/>
    <g clip-path="url(#pb41b1796f5)">
     <use style="fill:#17becf;stroke:#17becf;" x="162.713623" xlink:href="#m32d528e67f" y="22.796"/>
    </g>
   </g>
   <g id="line2d_49">
    <path clip-path="url(#pb41b1796f5)" d="M 181.73172 22.796 
" style="fill:none;stroke:#1f77b4;stroke-linecap:square;stroke-width:1.5;"/>
    <g clip-path="url(#pb41b1796f5)">
     <use style="fill:#1f77b4;stroke:#1f77b4;" x="181.73172" xlink:href="#m0c81c83921" y="22.796"/>
    </g>
   </g>
   <g id="line2d_50">
    <path clip-path="url(#pb41b1796f5)" d="M 216.276932 22.796 
" style="fill:none;stroke:#ff7f0e;stroke-linecap:square;stroke-width:1.5;"/>
    <g clip-path="url(#pb41b1796f5)">
     <use style="fill:#ff7f0e;stroke:#ff7f0e;" x="216.276932" xlink:href="#m8b7aa8d7ba" y="22.796"/>
    </g>
   </g>
   <g id="line2d_51">
    <path clip-path="url(#pb41b1796f5)" d="M 226.699806 22.796 
" style="fill:none;stroke:#2ca02c;stroke-linecap:square;stroke-width:1.5;"/>
    <g clip-path="url(#pb41b1796f5)">
     <use style="fill:#2ca02c;stroke:#2ca02c;" x="226.699806" xlink:href="#mf249872630" y="22.796"/>
    </g>
   </g>
   <g id="line2d_52">
    <path clip-path="url(#pb41b1796f5)" d="M 269.991959 22.796 
" style="fill:none;stroke:#d62728;stroke-linecap:square;stroke-width:1.5;"/>
    <g clip-path="url(#pb41b1796f5)">
     <use style="fill:#d62728;stroke:#d62728;" x="269.991959" xlink:href="#m487f961430" y="22.796"/>
    </g>
   </g>
   <g id="line2d_53">
    <path clip-path="url(#pb41b1796f5)" d="M 296.701683 22.796 
" style="fill:none;stroke:#9467bd;stroke-linecap:square;stroke-width:1.5;"/>
    <g clip-path="url(#pb41b1796f5)">
     <use style="fill:#9467bd;stroke:#9467bd;" x="296.701683" xlink:href="#m1bbcf108f1" y="22.796"/>
    </g>
   </g>
   <g id="line2d_54">
    <path clip-path="url(#pb41b1796f5)" d="M 317.893181 22.796 
" style="fill:none;stroke:#8c564b;stroke-linecap:square;stroke-width:1.5;"/>
    <g clip-path="url(#pb41b1796f5)">
     <use style="fill:#8c564b;stroke:#8c564b;" x="317.893181" xlink:href="#m196e7899f2" y="22.796"/>
    </g>
   </g>
   <g id="line2d_55">
    <path clip-path="url(#pb41b1796f5)" d="M 336.613632 22.796 
" style="fill:none;stroke:#e377c2;stroke-linecap:square;stroke-width:1.5;"/>
    <g clip-path="url(#pb41b1796f5)">
     <use style="fill:#e377c2;stroke:#e377c2;" x="336.613632" xlink:href="#m528ec4da49" y="22.796"/>
    </g>
   </g>
   <g id="line2d_56">
    <path clip-path="url(#pb41b1796f5)" d="M 353.472443 22.796 
" style="fill:none;stroke:#7f7f7f;stroke-linecap:square;stroke-width:1.5;"/>
    <g clip-path="url(#pb41b1796f5)">
     <use style="fill:#7f7f7f;stroke:#7f7f7f;" x="353.472443" xlink:href="#m39fb61cbe9" y="22.796"/>
    </g>
   </g>
   <g id="line2d_57">
    <path clip-path="url(#pb41b1796f5)" d="M 367.461494 22.796 
" style="fill:none;stroke:#bcbd22;stroke-linecap:square;stroke-width:1.5;"/>
    <g clip-path="url(#pb41b1796f5)">
     <use style="fill:#bcbd22;stroke:#bcbd22;" x="367.461494" xlink:href="#m3ee088139c" y="22.796"/>
    </g>
   </g>
   <g id="line2d_58">
    <path clip-path="url(#pb41b1796f5)" d="M 49.520226 225.068 
L 85.717766 22.796 
L 85.717766 264.716 
L 85.934219 170.474343 
L 112.36187 22.796 
L 112.36187 264.716 
L 112.578331 134.296578 
L 132.531937 22.796 
L 132.531937 264.716 
L 132.74839 190.241365 
L 162.713623 22.796 
L 162.713623 264.716 
L 162.930084 127.859598 
L 181.73172 22.796 
L 181.73172 264.716 
L 181.948174 214.627315 
L 216.276932 22.796 
L 216.276932 264.716 
L 216.493393 79.828614 
L 226.699806 22.796 
L 226.699806 264.716 
L 269.991959 22.796 
L 269.991959 264.716 
L 270.20842 170.838603 
L 296.701683 22.796 
L 296.701683 264.716 
L 296.918144 140.003846 
L 317.893181 22.796 
L 317.893181 264.716 
L 318.109642 126.196115 
L 336.613632 22.796 
L 336.613632 264.716 
L 336.830093 115.793207 
L 353.472443 22.796 
L 353.472443 264.716 
L 353.688904 99.758155 
L 367.461494 22.796 
L 367.461494 264.716 
L 367.677956 184.241726 
L 374.171738 147.95428 
L 374.171738 147.95428 
" style="fill:none;stroke:#008000;stroke-linecap:square;stroke-width:1.5;"/>
   </g>
   <g id="patch_3">
    <path d="M 33.2875 276.812 
L 33.2875 10.7 
" style="fill:none;stroke:#000000;stroke-linecap:square;stroke-linejoin:miter;stroke-width:0.8;"/>
   </g>
   <g id="patch_4">
    <path d="M 390.4075 276.812 
L 390.4075 10.7 
" style="fill:none;stroke:#000000;stroke-linecap:square;stroke-linejoin:miter;stroke-width:0.8;"/>
   </g>
   <g id="patch_5">
    <path d="M 33.287498 276.812 
L 390.407501 276.812 
" style="fill:none;stroke:#000000;stroke-linecap:square;stroke-linejoin:miter;stroke-width:0.8;"/>
   </g>
   <g id="patch_6">
    <path d="M 33.287498 10.7 
L 390.407501 10.7 
" style="fill:none;stroke:#000000;stroke-linecap:square;stroke-linejoin:miter;stroke-width:0.8;"/>
   </g>
  </g>
 </g>
 <defs>
  <clipPath id="pb41b1796f5">
   <rect height="266.112" width="357.12" x="33.2875" y="10.7"/>
  </clipPath>
 </defs>
</svg>
