<?xml version="1.0" encoding="utf-8" standalone="no"?>
<!DOCTYPE svg PUBLIC "-//W3C//DTD SVG 1.1//EN"
  "http://www.w3.org/Graphics/SVG/1.1/DTD/svg11.dtd">
<!-- Created with matplotlib (https://matplotlib.org/) -->
<svg height="313.36825pt" version="1.1" viewBox="0 0 401.1075 313.36825" width="401.1075pt" xmlns="http://www.w3.org/2000/svg" xmlns:xlink="http://www.w3.org/1999/xlink">
 <defs>
  <style type="text/css">
*{stroke-linecap:butt;stroke-linejoin:round;}
  </style>
 </defs>
 <g id="figure_1">
  <g id="patch_1">
   <path d="M 0 313.36825 
L 401.1075 313.36825 
L 401.1075 0 
L 0 0 
z
" style="fill:#ffffff;"/>
  </g>
  <g id="axes_1">
   <g id="patch_2">
    <path d="M 33.2875 276.812 
L 390.4075 276.812 
L 390.4075 10.7 
L 33.2875 10.7 
z
" style="fill:#ffffff;"/>
   </g>
   <g id="matplotlib.axis_1">
    <g id="xtick_1">
     <g id="line2d_1">
      <defs>
       <path d="M 0 0 
L 0 3.5 
" id="m1846ecaecb" style="stroke:#000000;stroke-width:0.8;"/>
      </defs>
      <g>
       <use style="stroke:#000000;stroke-width:0.8;" x="49.520227" xlink:href="#m1846ecaecb" y="276.812"/>
      </g>
     </g>
     <g id="text_1">
      <!-- 395 -->
      <defs>
       <path d="M 40.578125 39.3125 
Q 47.65625 37.796875 51.625 33 
Q 55.609375 28.21875 55.609375 21.1875 
Q 55.609375 10.40625 48.1875 4.484375 
Q 40.765625 -1.421875 27.09375 -1.421875 
Q 22.515625 -1.421875 17.65625 -0.515625 
Q 12.796875 0.390625 7.625 2.203125 
L 7.625 11.71875 
Q 11.71875 9.328125 16.59375 8.109375 
Q 21.484375 6.890625 26.8125 6.890625 
Q 36.078125 6.890625 40.9375 10.546875 
Q 45.796875 14.203125 45.796875 21.1875 
Q 45.796875 27.640625 41.28125 31.265625 
Q 36.765625 34.90625 28.71875 34.90625 
L 20.21875 34.90625 
L 20.21875 43.015625 
L 29.109375 43.015625 
Q 36.375 43.015625 40.234375 45.921875 
Q 44.09375 48.828125 44.09375 54.296875 
Q 44.09375 59.90625 40.109375 62.90625 
Q 36.140625 65.921875 28.71875 65.921875 
Q 24.65625 65.921875 20.015625 65.03125 
Q 15.375 64.15625 9.8125 62.3125 
L 9.8125 71.09375 
Q 15.4375 72.65625 20.34375 73.4375 
Q 25.25 74.21875 29.59375 74.21875 
Q 40.828125 74.21875 47.359375 69.109375 
Q 53.90625 64.015625 53.90625 55.328125 
Q 53.90625 49.265625 50.4375 45.09375 
Q 46.96875 40.921875 40.578125 39.3125 
z
" id="DejaVuSans-51"/>
       <path d="M 10.984375 1.515625 
L 10.984375 10.5 
Q 14.703125 8.734375 18.5 7.8125 
Q 22.3125 6.890625 25.984375 6.890625 
Q 35.75 6.890625 40.890625 13.453125 
Q 46.046875 20.015625 46.78125 33.40625 
Q 43.953125 29.203125 39.59375 26.953125 
Q 35.25 24.703125 29.984375 24.703125 
Q 19.046875 24.703125 12.671875 31.3125 
Q 6.296875 37.9375 6.296875 49.421875 
Q 6.296875 60.640625 12.9375 67.421875 
Q 19.578125 74.21875 30.609375 74.21875 
Q 43.265625 74.21875 49.921875 64.515625 
Q 56.59375 54.828125 56.59375 36.375 
Q 56.59375 19.140625 48.40625 8.859375 
Q 40.234375 -1.421875 26.421875 -1.421875 
Q 22.703125 -1.421875 18.890625 -0.6875 
Q 15.09375 0.046875 10.984375 1.515625 
z
M 30.609375 32.421875 
Q 37.25 32.421875 41.125 36.953125 
Q 45.015625 41.5 45.015625 49.421875 
Q 45.015625 57.28125 41.125 61.84375 
Q 37.25 66.40625 30.609375 66.40625 
Q 23.96875 66.40625 20.09375 61.84375 
Q 16.21875 57.28125 16.21875 49.421875 
Q 16.21875 41.5 20.09375 36.953125 
Q 23.96875 32.421875 30.609375 32.421875 
z
" id="DejaVuSans-57"/>
       <path d="M 10.796875 72.90625 
L 49.515625 72.90625 
L 49.515625 64.59375 
L 19.828125 64.59375 
L 19.828125 46.734375 
Q 21.96875 47.46875 24.109375 47.828125 
Q 26.265625 48.1875 28.421875 48.1875 
Q 40.625 48.1875 47.75 41.5 
Q 54.890625 34.8125 54.890625 23.390625 
Q 54.890625 11.625 47.5625 5.09375 
Q 40.234375 -1.421875 26.90625 -1.421875 
Q 22.3125 -1.421875 17.546875 -0.640625 
Q 12.796875 0.140625 7.71875 1.703125 
L 7.71875 11.625 
Q 12.109375 9.234375 16.796875 8.0625 
Q 21.484375 6.890625 26.703125 6.890625 
Q 35.15625 6.890625 40.078125 11.328125 
Q 45.015625 15.765625 45.015625 23.390625 
Q 45.015625 31 40.078125 35.4375 
Q 35.15625 39.890625 26.703125 39.890625 
Q 22.75 39.890625 18.8125 39.015625 
Q 14.890625 38.140625 10.796875 36.28125 
z
" id="DejaVuSans-53"/>
      </defs>
      <g transform="translate(39.976477 291.410437)scale(0.1 -0.1)">
       <use xlink:href="#DejaVuSans-51"/>
       <use x="63.623047" xlink:href="#DejaVuSans-57"/>
       <use x="127.246094" xlink:href="#DejaVuSans-53"/>
      </g>
     </g>
    </g>
    <g id="xtick_2">
     <g id="line2d_2">
      <g>
       <use style="stroke:#000000;stroke-width:0.8;" x="90.102806" xlink:href="#m1846ecaecb" y="276.812"/>
      </g>
     </g>
     <g id="text_2">
      <!-- 400 -->
      <defs>
       <path d="M 37.796875 64.3125 
L 12.890625 25.390625 
L 37.796875 25.390625 
z
M 35.203125 72.90625 
L 47.609375 72.90625 
L 47.609375 25.390625 
L 58.015625 25.390625 
L 58.015625 17.1875 
L 47.609375 17.1875 
L 47.609375 0 
L 37.796875 0 
L 37.796875 17.1875 
L 4.890625 17.1875 
L 4.890625 26.703125 
z
" id="DejaVuSans-52"/>
       <path d="M 31.78125 66.40625 
Q 24.171875 66.40625 20.328125 58.90625 
Q 16.5 51.421875 16.5 36.375 
Q 16.5 21.390625 20.328125 13.890625 
Q 24.171875 6.390625 31.78125 6.390625 
Q 39.453125 6.390625 43.28125 13.890625 
Q 47.125 21.390625 47.125 36.375 
Q 47.125 51.421875 43.28125 58.90625 
Q 39.453125 66.40625 31.78125 66.40625 
z
M 31.78125 74.21875 
Q 44.046875 74.21875 50.515625 64.515625 
Q 56.984375 54.828125 56.984375 36.375 
Q 56.984375 17.96875 50.515625 8.265625 
Q 44.046875 -1.421875 31.78125 -1.421875 
Q 19.53125 -1.421875 13.0625 8.265625 
Q 6.59375 17.96875 6.59375 36.375 
Q 6.59375 54.828125 13.0625 64.515625 
Q 19.53125 74.21875 31.78125 74.21875 
z
" id="DejaVuSans-48"/>
      </defs>
      <g transform="translate(80.559056 291.410437)scale(0.1 -0.1)">
       <use xlink:href="#DejaVuSans-52"/>
       <use x="63.623047" xlink:href="#DejaVuSans-48"/>
       <use x="127.246094" xlink:href="#DejaVuSans-48"/>
      </g>
     </g>
    </g>
    <g id="xtick_3">
     <g id="line2d_3">
      <g>
       <use style="stroke:#000000;stroke-width:0.8;" x="130.685385" xlink:href="#m1846ecaecb" y="276.812"/>
      </g>
     </g>
     <g id="text_3">
      <!-- 405 -->
      <g transform="translate(121.141635 291.410437)scale(0.1 -0.1)">
       <use xlink:href="#DejaVuSans-52"/>
       <use x="63.623047" xlink:href="#DejaVuSans-48"/>
       <use x="127.246094" xlink:href="#DejaVuSans-53"/>
      </g>
     </g>
    </g>
    <g id="xtick_4">
     <g id="line2d_4">
      <g>
       <use style="stroke:#000000;stroke-width:0.8;" x="171.267963" xlink:href="#m1846ecaecb" y="276.812"/>
      </g>
     </g>
     <g id="text_4">
      <!-- 410 -->
      <defs>
       <path d="M 12.40625 8.296875 
L 28.515625 8.296875 
L 28.515625 63.921875 
L 10.984375 60.40625 
L 10.984375 69.390625 
L 28.421875 72.90625 
L 38.28125 72.90625 
L 38.28125 8.296875 
L 54.390625 8.296875 
L 54.390625 0 
L 12.40625 0 
z
" id="DejaVuSans-49"/>
      </defs>
      <g transform="translate(161.724213 291.410437)scale(0.1 -0.1)">
       <use xlink:href="#DejaVuSans-52"/>
       <use x="63.623047" xlink:href="#DejaVuSans-49"/>
       <use x="127.246094" xlink:href="#DejaVuSans-48"/>
      </g>
     </g>
    </g>
    <g id="xtick_5">
     <g id="line2d_5">
      <g>
       <use style="stroke:#000000;stroke-width:0.8;" x="211.85054" xlink:href="#m1846ecaecb" y="276.812"/>
      </g>
     </g>
     <g id="text_5">
      <!-- 415 -->
      <g transform="translate(202.30679 291.410437)scale(0.1 -0.1)">
       <use xlink:href="#DejaVuSans-52"/>
       <use x="63.623047" xlink:href="#DejaVuSans-49"/>
       <use x="127.246094" xlink:href="#DejaVuSans-53"/>
      </g>
     </g>
    </g>
    <g id="xtick_6">
     <g id="line2d_6">
      <g>
       <use style="stroke:#000000;stroke-width:0.8;" x="252.433119" xlink:href="#m1846ecaecb" y="276.812"/>
      </g>
     </g>
     <g id="text_6">
      <!-- 420 -->
      <defs>
       <path d="M 19.1875 8.296875 
L 53.609375 8.296875 
L 53.609375 0 
L 7.328125 0 
L 7.328125 8.296875 
Q 12.9375 14.109375 22.625 23.890625 
Q 32.328125 33.6875 34.8125 36.53125 
Q 39.546875 41.84375 41.421875 45.53125 
Q 43.3125 49.21875 43.3125 52.78125 
Q 43.3125 58.59375 39.234375 62.25 
Q 35.15625 65.921875 28.609375 65.921875 
Q 23.96875 65.921875 18.8125 64.3125 
Q 13.671875 62.703125 7.8125 59.421875 
L 7.8125 69.390625 
Q 13.765625 71.78125 18.9375 73 
Q 24.125 74.21875 28.421875 74.21875 
Q 39.75 74.21875 46.484375 68.546875 
Q 53.21875 62.890625 53.21875 53.421875 
Q 53.21875 48.921875 51.53125 44.890625 
Q 49.859375 40.875 45.40625 35.40625 
Q 44.1875 33.984375 37.640625 27.21875 
Q 31.109375 20.453125 19.1875 8.296875 
z
" id="DejaVuSans-50"/>
      </defs>
      <g transform="translate(242.889369 291.410437)scale(0.1 -0.1)">
       <use xlink:href="#DejaVuSans-52"/>
       <use x="63.623047" xlink:href="#DejaVuSans-50"/>
       <use x="127.246094" xlink:href="#DejaVuSans-48"/>
      </g>
     </g>
    </g>
    <g id="xtick_7">
     <g id="line2d_7">
      <g>
       <use style="stroke:#000000;stroke-width:0.8;" x="293.015697" xlink:href="#m1846ecaecb" y="276.812"/>
      </g>
     </g>
     <g id="text_7">
      <!-- 425 -->
      <g transform="translate(283.471947 291.410437)scale(0.1 -0.1)">
       <use xlink:href="#DejaVuSans-52"/>
       <use x="63.623047" xlink:href="#DejaVuSans-50"/>
       <use x="127.246094" xlink:href="#DejaVuSans-53"/>
      </g>
     </g>
    </g>
    <g id="xtick_8">
     <g id="line2d_8">
      <g>
       <use style="stroke:#000000;stroke-width:0.8;" x="333.598276" xlink:href="#m1846ecaecb" y="276.812"/>
      </g>
     </g>
     <g id="text_8">
      <!-- 430 -->
      <g transform="translate(324.054526 291.410437)scale(0.1 -0.1)">
       <use xlink:href="#DejaVuSans-52"/>
       <use x="63.623047" xlink:href="#DejaVuSans-51"/>
       <use x="127.246094" xlink:href="#DejaVuSans-48"/>
      </g>
     </g>
    </g>
    <g id="xtick_9">
     <g id="line2d_9">
      <g>
       <use style="stroke:#000000;stroke-width:0.8;" x="374.180855" xlink:href="#m1846ecaecb" y="276.812"/>
      </g>
     </g>
     <g id="text_9">
      <!-- 435 -->
      <g transform="translate(364.637105 291.410437)scale(0.1 -0.1)">
       <use xlink:href="#DejaVuSans-52"/>
       <use x="63.623047" xlink:href="#DejaVuSans-51"/>
       <use x="127.246094" xlink:href="#DejaVuSans-53"/>
      </g>
     </g>
    </g>
    <g id="text_10">
     <!-- +1.59616e9 -->
     <defs>
      <path d="M 46 62.703125 
L 46 35.5 
L 73.1875 35.5 
L 73.1875 27.203125 
L 46 27.203125 
L 46 0 
L 37.796875 0 
L 37.796875 27.203125 
L 10.59375 27.203125 
L 10.59375 35.5 
L 37.796875 35.5 
L 37.796875 62.703125 
z
" id="DejaVuSans-43"/>
      <path d="M 10.6875 12.40625 
L 21 12.40625 
L 21 0 
L 10.6875 0 
z
" id="DejaVuSans-46"/>
      <path d="M 33.015625 40.375 
Q 26.375 40.375 22.484375 35.828125 
Q 18.609375 31.296875 18.609375 23.390625 
Q 18.609375 15.53125 22.484375 10.953125 
Q 26.375 6.390625 33.015625 6.390625 
Q 39.65625 6.390625 43.53125 10.953125 
Q 47.40625 15.53125 47.40625 23.390625 
Q 47.40625 31.296875 43.53125 35.828125 
Q 39.65625 40.375 33.015625 40.375 
z
M 52.59375 71.296875 
L 52.59375 62.3125 
Q 48.875 64.0625 45.09375 64.984375 
Q 41.3125 65.921875 37.59375 65.921875 
Q 27.828125 65.921875 22.671875 59.328125 
Q 17.53125 52.734375 16.796875 39.40625 
Q 19.671875 43.65625 24.015625 45.921875 
Q 28.375 48.1875 33.59375 48.1875 
Q 44.578125 48.1875 50.953125 41.515625 
Q 57.328125 34.859375 57.328125 23.390625 
Q 57.328125 12.15625 50.6875 5.359375 
Q 44.046875 -1.421875 33.015625 -1.421875 
Q 20.359375 -1.421875 13.671875 8.265625 
Q 6.984375 17.96875 6.984375 36.375 
Q 6.984375 53.65625 15.1875 63.9375 
Q 23.390625 74.21875 37.203125 74.21875 
Q 40.921875 74.21875 44.703125 73.484375 
Q 48.484375 72.75 52.59375 71.296875 
z
" id="DejaVuSans-54"/>
      <path d="M 56.203125 29.59375 
L 56.203125 25.203125 
L 14.890625 25.203125 
Q 15.484375 15.921875 20.484375 11.0625 
Q 25.484375 6.203125 34.421875 6.203125 
Q 39.59375 6.203125 44.453125 7.46875 
Q 49.3125 8.734375 54.109375 11.28125 
L 54.109375 2.78125 
Q 49.265625 0.734375 44.1875 -0.34375 
Q 39.109375 -1.421875 33.890625 -1.421875 
Q 20.796875 -1.421875 13.15625 6.1875 
Q 5.515625 13.8125 5.515625 26.8125 
Q 5.515625 40.234375 12.765625 48.109375 
Q 20.015625 56 32.328125 56 
Q 43.359375 56 49.78125 48.890625 
Q 56.203125 41.796875 56.203125 29.59375 
z
M 47.21875 32.234375 
Q 47.125 39.59375 43.09375 43.984375 
Q 39.0625 48.390625 32.421875 48.390625 
Q 24.90625 48.390625 20.390625 44.140625 
Q 15.875 39.890625 15.1875 32.171875 
z
" id="DejaVuSans-101"/>
     </defs>
     <g transform="translate(328.159063 304.088562)scale(0.1 -0.1)">
      <use xlink:href="#DejaVuSans-43"/>
      <use x="83.789062" xlink:href="#DejaVuSans-49"/>
      <use x="147.412109" xlink:href="#DejaVuSans-46"/>
      <use x="179.199219" xlink:href="#DejaVuSans-53"/>
      <use x="242.822266" xlink:href="#DejaVuSans-57"/>
      <use x="306.445312" xlink:href="#DejaVuSans-54"/>
      <use x="370.068359" xlink:href="#DejaVuSans-49"/>
      <use x="433.691406" xlink:href="#DejaVuSans-54"/>
      <use x="497.314453" xlink:href="#DejaVuSans-101"/>
      <use x="558.837891" xlink:href="#DejaVuSans-57"/>
     </g>
    </g>
   </g>
   <g id="matplotlib.axis_2">
    <g id="ytick_1">
     <g id="line2d_10">
      <defs>
       <path d="M 0 0 
L -3.5 0 
" id="m4a444ba52d" style="stroke:#000000;stroke-width:0.8;"/>
      </defs>
      <g>
       <use style="stroke:#000000;stroke-width:0.8;" x="33.2875" xlink:href="#m4a444ba52d" y="264.716"/>
      </g>
     </g>
     <g id="text_11">
      <!-- 0 -->
      <g transform="translate(19.925 268.515219)scale(0.1 -0.1)">
       <use xlink:href="#DejaVuSans-48"/>
      </g>
     </g>
    </g>
    <g id="ytick_2">
     <g id="line2d_11">
      <g>
       <use style="stroke:#000000;stroke-width:0.8;" x="33.2875" xlink:href="#m4a444ba52d" y="231.116"/>
      </g>
     </g>
     <g id="text_12">
      <!-- 50 -->
      <g transform="translate(13.5625 234.915219)scale(0.1 -0.1)">
       <use xlink:href="#DejaVuSans-53"/>
       <use x="63.623047" xlink:href="#DejaVuSans-48"/>
      </g>
     </g>
    </g>
    <g id="ytick_3">
     <g id="line2d_12">
      <g>
       <use style="stroke:#000000;stroke-width:0.8;" x="33.2875" xlink:href="#m4a444ba52d" y="197.516"/>
      </g>
     </g>
     <g id="text_13">
      <!-- 100 -->
      <g transform="translate(7.2 201.315219)scale(0.1 -0.1)">
       <use xlink:href="#DejaVuSans-49"/>
       <use x="63.623047" xlink:href="#DejaVuSans-48"/>
       <use x="127.246094" xlink:href="#DejaVuSans-48"/>
      </g>
     </g>
    </g>
    <g id="ytick_4">
     <g id="line2d_13">
      <g>
       <use style="stroke:#000000;stroke-width:0.8;" x="33.2875" xlink:href="#m4a444ba52d" y="163.916"/>
      </g>
     </g>
     <g id="text_14">
      <!-- 150 -->
      <g transform="translate(7.2 167.715219)scale(0.1 -0.1)">
       <use xlink:href="#DejaVuSans-49"/>
       <use x="63.623047" xlink:href="#DejaVuSans-53"/>
       <use x="127.246094" xlink:href="#DejaVuSans-48"/>
      </g>
     </g>
    </g>
    <g id="ytick_5">
     <g id="line2d_14">
      <g>
       <use style="stroke:#000000;stroke-width:0.8;" x="33.2875" xlink:href="#m4a444ba52d" y="130.316"/>
      </g>
     </g>
     <g id="text_15">
      <!-- 200 -->
      <g transform="translate(7.2 134.115219)scale(0.1 -0.1)">
       <use xlink:href="#DejaVuSans-50"/>
       <use x="63.623047" xlink:href="#DejaVuSans-48"/>
       <use x="127.246094" xlink:href="#DejaVuSans-48"/>
      </g>
     </g>
    </g>
    <g id="ytick_6">
     <g id="line2d_15">
      <g>
       <use style="stroke:#000000;stroke-width:0.8;" x="33.2875" xlink:href="#m4a444ba52d" y="96.716"/>
      </g>
     </g>
     <g id="text_16">
      <!-- 250 -->
      <g transform="translate(7.2 100.515219)scale(0.1 -0.1)">
       <use xlink:href="#DejaVuSans-50"/>
       <use x="63.623047" xlink:href="#DejaVuSans-53"/>
       <use x="127.246094" xlink:href="#DejaVuSans-48"/>
      </g>
     </g>
    </g>
    <g id="ytick_7">
     <g id="line2d_16">
      <g>
       <use style="stroke:#000000;stroke-width:0.8;" x="33.2875" xlink:href="#m4a444ba52d" y="63.116"/>
      </g>
     </g>
     <g id="text_17">
      <!-- 300 -->
      <g transform="translate(7.2 66.915219)scale(0.1 -0.1)">
       <use xlink:href="#DejaVuSans-51"/>
       <use x="63.623047" xlink:href="#DejaVuSans-48"/>
       <use x="127.246094" xlink:href="#DejaVuSans-48"/>
      </g>
     </g>
    </g>
    <g id="ytick_8">
     <g id="line2d_17">
      <g>
       <use style="stroke:#000000;stroke-width:0.8;" x="33.2875" xlink:href="#m4a444ba52d" y="29.516"/>
      </g>
     </g>
     <g id="text_18">
      <!-- 350 -->
      <g transform="translate(7.2 33.315219)scale(0.1 -0.1)">
       <use xlink:href="#DejaVuSans-51"/>
       <use x="63.623047" xlink:href="#DejaVuSans-53"/>
       <use x="127.246094" xlink:href="#DejaVuSans-48"/>
      </g>
     </g>
    </g>
   </g>
   <g id="line2d_18">
    <path clip-path="url(#p1fac725d7c)" d="M 57.54685 22.796 
" style="fill:none;stroke:#1f77b4;stroke-linecap:square;stroke-width:1.5;"/>
    <defs>
     <path d="M 0 3 
C 0.795609 3 1.55874 2.683901 2.12132 2.12132 
C 2.683901 1.55874 3 0.795609 3 0 
C 3 -0.795609 2.683901 -1.55874 2.12132 -2.12132 
C 1.55874 -2.683901 0.795609 -3 0 -3 
C -0.795609 -3 -1.55874 -2.683901 -2.12132 -2.12132 
C -2.683901 -1.55874 -3 -0.795609 -3 0 
C -3 0.795609 -2.683901 1.55874 -2.12132 2.12132 
C -1.55874 2.683901 -0.795609 3 0 3 
z
" id="meb56eea9a0" style="stroke:#1f77b4;"/>
    </defs>
    <g clip-path="url(#p1fac725d7c)">
     <use style="fill:#1f77b4;stroke:#1f77b4;" x="57.54685" xlink:href="#meb56eea9a0" y="22.796"/>
    </g>
   </g>
   <g id="line2d_19">
    <path clip-path="url(#p1fac725d7c)" d="M 69.951681 22.796 
" style="fill:none;stroke:#ff7f0e;stroke-linecap:square;stroke-width:1.5;"/>
    <defs>
     <path d="M 0 3 
C 0.795609 3 1.55874 2.683901 2.12132 2.12132 
C 2.683901 1.55874 3 0.795609 3 0 
C 3 -0.795609 2.683901 -1.55874 2.12132 -2.12132 
C 1.55874 -2.683901 0.795609 -3 0 -3 
C -0.795609 -3 -1.55874 -2.683901 -2.12132 -2.12132 
C -2.683901 -1.55874 -3 -0.795609 -3 0 
C -3 0.795609 -2.683901 1.55874 -2.12132 2.12132 
C -1.55874 2.683901 -0.795609 3 0 3 
z
" id="m9d99e402f4" style="stroke:#ff7f0e;"/>
    </defs>
    <g clip-path="url(#p1fac725d7c)">
     <use style="fill:#ff7f0e;stroke:#ff7f0e;" x="69.951681" xlink:href="#m9d99e402f4" y="22.796"/>
    </g>
   </g>
   <g id="line2d_20">
    <path clip-path="url(#p1fac725d7c)" d="M 77.566837 22.796 
" style="fill:none;stroke:#2ca02c;stroke-linecap:square;stroke-width:1.5;"/>
    <defs>
     <path d="M 0 3 
C 0.795609 3 1.55874 2.683901 2.12132 2.12132 
C 2.683901 1.55874 3 0.795609 3 0 
C 3 -0.795609 2.683901 -1.55874 2.12132 -2.12132 
C 1.55874 -2.683901 0.795609 -3 0 -3 
C -0.795609 -3 -1.55874 -2.683901 -2.12132 -2.12132 
C -2.683901 -1.55874 -3 -0.795609 -3 0 
C -3 0.795609 -2.683901 1.55874 -2.12132 2.12132 
C -1.55874 2.683901 -0.795609 3 0 3 
z
" id="m63a163e4e8" style="stroke:#2ca02c;"/>
    </defs>
    <g clip-path="url(#p1fac725d7c)">
     <use style="fill:#2ca02c;stroke:#2ca02c;" x="77.566837" xlink:href="#m63a163e4e8" y="22.796"/>
    </g>
   </g>
   <g id="line2d_21">
    <path clip-path="url(#p1fac725d7c)" d="M 89.205015 22.796 
" style="fill:none;stroke:#d62728;stroke-linecap:square;stroke-width:1.5;"/>
    <defs>
     <path d="M 0 3 
C 0.795609 3 1.55874 2.683901 2.12132 2.12132 
C 2.683901 1.55874 3 0.795609 3 0 
C 3 -0.795609 2.683901 -1.55874 2.12132 -2.12132 
C 1.55874 -2.683901 0.795609 -3 0 -3 
C -0.795609 -3 -1.55874 -2.683901 -2.12132 -2.12132 
C -2.683901 -1.55874 -3 -0.795609 -3 0 
C -3 0.795609 -2.683901 1.55874 -2.12132 2.12132 
C -1.55874 2.683901 -0.795609 3 0 3 
z
" id="md8e54e3752" style="stroke:#d62728;"/>
    </defs>
    <g clip-path="url(#p1fac725d7c)">
     <use style="fill:#d62728;stroke:#d62728;" x="89.205015" xlink:href="#md8e54e3752" y="22.796"/>
    </g>
   </g>
   <g id="line2d_22">
    <path clip-path="url(#p1fac725d7c)" d="M 96.369589 22.796 
" style="fill:none;stroke:#9467bd;stroke-linecap:square;stroke-width:1.5;"/>
    <defs>
     <path d="M 0 3 
C 0.795609 3 1.55874 2.683901 2.12132 2.12132 
C 2.683901 1.55874 3 0.795609 3 0 
C 3 -0.795609 2.683901 -1.55874 2.12132 -2.12132 
C 1.55874 -2.683901 0.795609 -3 0 -3 
C -0.795609 -3 -1.55874 -2.683901 -2.12132 -2.12132 
C -2.683901 -1.55874 -3 -0.795609 -3 0 
C -3 0.795609 -2.683901 1.55874 -2.12132 2.12132 
C -1.55874 2.683901 -0.795609 3 0 3 
z
" id="mf9c2190f84" style="stroke:#9467bd;"/>
    </defs>
    <g clip-path="url(#p1fac725d7c)">
     <use style="fill:#9467bd;stroke:#9467bd;" x="96.369589" xlink:href="#mf9c2190f84" y="22.796"/>
    </g>
   </g>
   <g id="line2d_23">
    <path clip-path="url(#p1fac725d7c)" d="M 104.064899 22.796 
" style="fill:none;stroke:#8c564b;stroke-linecap:square;stroke-width:1.5;"/>
    <defs>
     <path d="M 0 3 
C 0.795609 3 1.55874 2.683901 2.12132 2.12132 
C 2.683901 1.55874 3 0.795609 3 0 
C 3 -0.795609 2.683901 -1.55874 2.12132 -2.12132 
C 1.55874 -2.683901 0.795609 -3 0 -3 
C -0.795609 -3 -1.55874 -2.683901 -2.12132 -2.12132 
C -2.683901 -1.55874 -3 -0.795609 -3 0 
C -3 0.795609 -2.683901 1.55874 -2.12132 2.12132 
C -1.55874 2.683901 -0.795609 3 0 3 
z
" id="m57679e03a3" style="stroke:#8c564b;"/>
    </defs>
    <g clip-path="url(#p1fac725d7c)">
     <use style="fill:#8c564b;stroke:#8c564b;" x="104.064899" xlink:href="#m57679e03a3" y="22.796"/>
    </g>
   </g>
   <g id="line2d_24">
    <path clip-path="url(#p1fac725d7c)" d="M 111.715958 22.796 
" style="fill:none;stroke:#e377c2;stroke-linecap:square;stroke-width:1.5;"/>
    <defs>
     <path d="M 0 3 
C 0.795609 3 1.55874 2.683901 2.12132 2.12132 
C 2.683901 1.55874 3 0.795609 3 0 
C 3 -0.795609 2.683901 -1.55874 2.12132 -2.12132 
C 1.55874 -2.683901 0.795609 -3 0 -3 
C -0.795609 -3 -1.55874 -2.683901 -2.12132 -2.12132 
C -2.683901 -1.55874 -3 -0.795609 -3 0 
C -3 0.795609 -2.683901 1.55874 -2.12132 2.12132 
C -1.55874 2.683901 -0.795609 3 0 3 
z
" id="m669567cefa" style="stroke:#e377c2;"/>
    </defs>
    <g clip-path="url(#p1fac725d7c)">
     <use style="fill:#e377c2;stroke:#e377c2;" x="111.715958" xlink:href="#m669567cefa" y="22.796"/>
    </g>
   </g>
   <g id="line2d_25">
    <path clip-path="url(#p1fac725d7c)" d="M 119.561953 22.796 
" style="fill:none;stroke:#7f7f7f;stroke-linecap:square;stroke-width:1.5;"/>
    <defs>
     <path d="M 0 3 
C 0.795609 3 1.55874 2.683901 2.12132 2.12132 
C 2.683901 1.55874 3 0.795609 3 0 
C 3 -0.795609 2.683901 -1.55874 2.12132 -2.12132 
C 1.55874 -2.683901 0.795609 -3 0 -3 
C -0.795609 -3 -1.55874 -2.683901 -2.12132 -2.12132 
C -2.683901 -1.55874 -3 -0.795609 -3 0 
C -3 0.795609 -2.683901 1.55874 -2.12132 2.12132 
C -1.55874 2.683901 -0.795609 3 0 3 
z
" id="md30b492898" style="stroke:#7f7f7f;"/>
    </defs>
    <g clip-path="url(#p1fac725d7c)">
     <use style="fill:#7f7f7f;stroke:#7f7f7f;" x="119.561953" xlink:href="#md30b492898" y="22.796"/>
    </g>
   </g>
   <g id="line2d_26">
    <path clip-path="url(#p1fac725d7c)" d="M 122.345743 22.796 
" style="fill:none;stroke:#bcbd22;stroke-linecap:square;stroke-width:1.5;"/>
    <defs>
     <path d="M 0 3 
C 0.795609 3 1.55874 2.683901 2.12132 2.12132 
C 2.683901 1.55874 3 0.795609 3 0 
C 3 -0.795609 2.683901 -1.55874 2.12132 -2.12132 
C 1.55874 -2.683901 0.795609 -3 0 -3 
C -0.795609 -3 -1.55874 -2.683901 -2.12132 -2.12132 
C -2.683901 -1.55874 -3 -0.795609 -3 0 
C -3 0.795609 -2.683901 1.55874 -2.12132 2.12132 
C -1.55874 2.683901 -0.795609 3 0 3 
z
" id="m62b44824f8" style="stroke:#bcbd22;"/>
    </defs>
    <g clip-path="url(#p1fac725d7c)">
     <use style="fill:#bcbd22;stroke:#bcbd22;" x="122.345743" xlink:href="#m62b44824f8" y="22.796"/>
    </g>
   </g>
   <g id="line2d_27">
    <path clip-path="url(#p1fac725d7c)" d="M 138.578794 22.796 
" style="fill:none;stroke:#17becf;stroke-linecap:square;stroke-width:1.5;"/>
    <defs>
     <path d="M 0 3 
C 0.795609 3 1.55874 2.683901 2.12132 2.12132 
C 2.683901 1.55874 3 0.795609 3 0 
C 3 -0.795609 2.683901 -1.55874 2.12132 -2.12132 
C 1.55874 -2.683901 0.795609 -3 0 -3 
C -0.795609 -3 -1.55874 -2.683901 -2.12132 -2.12132 
C -2.683901 -1.55874 -3 -0.795609 -3 0 
C -3 0.795609 -2.683901 1.55874 -2.12132 2.12132 
C -1.55874 2.683901 -0.795609 3 0 3 
z
" id="m4c347394ef" style="stroke:#17becf;"/>
    </defs>
    <g clip-path="url(#p1fac725d7c)">
     <use style="fill:#17becf;stroke:#17becf;" x="138.578794" xlink:href="#m4c347394ef" y="22.796"/>
    </g>
   </g>
   <g id="line2d_28">
    <path clip-path="url(#p1fac725d7c)" d="M 147.574303 22.796 
" style="fill:none;stroke:#1f77b4;stroke-linecap:square;stroke-width:1.5;"/>
    <g clip-path="url(#p1fac725d7c)">
     <use style="fill:#1f77b4;stroke:#1f77b4;" x="147.574303" xlink:href="#meb56eea9a0" y="22.796"/>
    </g>
   </g>
   <g id="line2d_29">
    <path clip-path="url(#p1fac725d7c)" d="M 154.774298 22.796 
" style="fill:none;stroke:#ff7f0e;stroke-linecap:square;stroke-width:1.5;"/>
    <g clip-path="url(#p1fac725d7c)">
     <use style="fill:#ff7f0e;stroke:#ff7f0e;" x="154.774298" xlink:href="#m9d99e402f4" y="22.796"/>
    </g>
   </g>
   <g id="line2d_30">
    <path clip-path="url(#p1fac725d7c)" d="M 161.058035 22.796 
" style="fill:none;stroke:#2ca02c;stroke-linecap:square;stroke-width:1.5;"/>
    <g clip-path="url(#p1fac725d7c)">
     <use style="fill:#2ca02c;stroke:#2ca02c;" x="161.058035" xlink:href="#m63a163e4e8" y="22.796"/>
    </g>
   </g>
   <g id="line2d_31">
    <path clip-path="url(#p1fac725d7c)" d="M 49.520227 142.412 
L 57.54685 22.796 
L 57.54685 264.716 
L 57.628016 206.454525 
L 69.951681 22.796 
L 69.951681 264.716 
L 70.032846 135.072292 
L 77.566837 22.796 
L 77.566837 264.716 
L 77.648003 195.027122 
L 89.205015 22.796 
L 89.205015 264.716 
L 89.28618 128.357414 
L 96.369589 22.796 
L 96.369589 264.716 
L 96.450752 136.266844 
L 104.064899 22.796 
L 104.064899 264.716 
L 104.146065 135.607741 
L 111.715958 22.796 
L 111.715958 264.716 
L 111.797123 138.512972 
L 119.561953 22.796 
L 119.561953 264.716 
L 119.643116 63.071093 
L 122.345743 22.796 
L 122.345743 264.716 
L 122.426908 263.504527 
L 138.578794 22.796 
L 138.578794 264.716 
L 138.65996 155.64407 
L 147.574303 22.796 
L 147.574303 264.716 
L 147.655466 128.884789 
L 154.774298 22.796 
L 154.774298 264.716 
L 154.855463 115.23239 
L 161.058035 22.796 
L 161.058035 264.716 
L 161.1392 202.817259 
L 171.203671 52.827147 
L 171.203671 52.827147 
" style="fill:none;stroke:#ff0000;stroke-linecap:square;stroke-width:1.5;"/>
   </g>
   <g id="line2d_32">
    <path clip-path="url(#p1fac725d7c)" d="M 267.809719 22.796 
" style="fill:none;stroke:#d62728;stroke-linecap:square;stroke-width:1.5;"/>
    <g clip-path="url(#p1fac725d7c)">
     <use style="fill:#d62728;stroke:#d62728;" x="267.809719" xlink:href="#md8e54e3752" y="22.796"/>
    </g>
   </g>
   <g id="line2d_33">
    <path clip-path="url(#p1fac725d7c)" d="M 278.15489 22.796 
" style="fill:none;stroke:#9467bd;stroke-linecap:square;stroke-width:1.5;"/>
    <g clip-path="url(#p1fac725d7c)">
     <use style="fill:#9467bd;stroke:#9467bd;" x="278.15489" xlink:href="#mf9c2190f84" y="22.796"/>
    </g>
   </g>
   <g id="line2d_34">
    <path clip-path="url(#p1fac725d7c)" d="M 287.435198 22.796 
" style="fill:none;stroke:#8c564b;stroke-linecap:square;stroke-width:1.5;"/>
    <g clip-path="url(#p1fac725d7c)">
     <use style="fill:#8c564b;stroke:#8c564b;" x="287.435198" xlink:href="#m57679e03a3" y="22.796"/>
    </g>
   </g>
   <g id="line2d_35">
    <path clip-path="url(#p1fac725d7c)" d="M 299.57988 22.796 
" style="fill:none;stroke:#e377c2;stroke-linecap:square;stroke-width:1.5;"/>
    <g clip-path="url(#p1fac725d7c)">
     <use style="fill:#e377c2;stroke:#e377c2;" x="299.57988" xlink:href="#m669567cefa" y="22.796"/>
    </g>
   </g>
   <g id="line2d_36">
    <path clip-path="url(#p1fac725d7c)" d="M 307.113131 22.796 
" style="fill:none;stroke:#7f7f7f;stroke-linecap:square;stroke-width:1.5;"/>
    <g clip-path="url(#p1fac725d7c)">
     <use style="fill:#7f7f7f;stroke:#7f7f7f;" x="307.113131" xlink:href="#md30b492898" y="22.796"/>
    </g>
   </g>
   <g id="line2d_37">
    <path clip-path="url(#p1fac725d7c)" d="M 319.222898 22.796 
" style="fill:none;stroke:#bcbd22;stroke-linecap:square;stroke-width:1.5;"/>
    <g clip-path="url(#p1fac725d7c)">
     <use style="fill:#bcbd22;stroke:#bcbd22;" x="319.222898" xlink:href="#m62b44824f8" y="22.796"/>
    </g>
   </g>
   <g id="line2d_38">
    <path clip-path="url(#p1fac725d7c)" d="M 321.832151 22.796 
" style="fill:none;stroke:#17becf;stroke-linecap:square;stroke-width:1.5;"/>
    <g clip-path="url(#p1fac725d7c)">
     <use style="fill:#17becf;stroke:#17becf;" x="321.832151" xlink:href="#m4c347394ef" y="22.796"/>
    </g>
   </g>
   <g id="line2d_39">
    <path clip-path="url(#p1fac725d7c)" d="M 338.065268 22.796 
" style="fill:none;stroke:#1f77b4;stroke-linecap:square;stroke-width:1.5;"/>
    <g clip-path="url(#p1fac725d7c)">
     <use style="fill:#1f77b4;stroke:#1f77b4;" x="338.065268" xlink:href="#meb56eea9a0" y="22.796"/>
    </g>
   </g>
   <g id="line2d_40">
    <path clip-path="url(#p1fac725d7c)" d="M 342.570879 22.796 
" style="fill:none;stroke:#ff7f0e;stroke-linecap:square;stroke-width:1.5;"/>
    <g clip-path="url(#p1fac725d7c)">
     <use style="fill:#ff7f0e;stroke:#ff7f0e;" x="342.570879" xlink:href="#m9d99e402f4" y="22.796"/>
    </g>
   </g>
   <g id="line2d_41">
    <path clip-path="url(#p1fac725d7c)" d="M 353.573324 22.796 
" style="fill:none;stroke:#2ca02c;stroke-linecap:square;stroke-width:1.5;"/>
    <g clip-path="url(#p1fac725d7c)">
     <use style="fill:#2ca02c;stroke:#2ca02c;" x="353.573324" xlink:href="#m63a163e4e8" y="22.796"/>
    </g>
   </g>
   <g id="line2d_42">
    <path clip-path="url(#p1fac725d7c)" d="M 360.401493 22.796 
" style="fill:none;stroke:#d62728;stroke-linecap:square;stroke-width:1.5;"/>
    <g clip-path="url(#p1fac725d7c)">
     <use style="fill:#d62728;stroke:#d62728;" x="360.401493" xlink:href="#md8e54e3752" y="22.796"/>
    </g>
   </g>
   <g id="line2d_43">
    <path clip-path="url(#p1fac725d7c)" d="M 372.650442 22.796 
" style="fill:none;stroke:#9467bd;stroke-linecap:square;stroke-width:1.5;"/>
    <g clip-path="url(#p1fac725d7c)">
     <use style="fill:#9467bd;stroke:#9467bd;" x="372.650442" xlink:href="#mf9c2190f84" y="22.796"/>
    </g>
   </g>
   <g id="line2d_44">
    <path clip-path="url(#p1fac725d7c)" d="M 252.433119 251.948 
L 267.809719 22.796 
L 267.809719 264.716 
L 267.890884 175.757101 
L 278.15489 22.796 
L 278.15489 264.716 
L 278.236055 159.887388 
L 287.435198 22.796 
L 287.435198 264.716 
L 287.516361 202.574798 
L 299.57988 22.796 
L 299.57988 264.716 
L 299.661045 133.852021 
L 307.113131 22.796 
L 307.113131 264.716 
L 307.194296 202.054891 
L 319.222898 22.796 
L 319.222898 264.716 
L 319.304064 60.468809 
L 321.832151 22.796 
L 321.832151 264.716 
L 321.913317 263.505276 
L 338.065268 22.796 
L 338.065268 264.716 
L 338.146431 88.731382 
L 342.570879 22.796 
L 342.570879 264.716 
L 342.652044 185.552427 
L 353.573324 22.796 
L 353.573324 264.716 
L 353.65449 123.343488 
L 360.401493 22.796 
L 360.401493 264.716 
L 360.482658 204.130691 
L 372.650442 22.796 
L 372.650442 264.716 
L 372.731607 165.010882 
L 374.111414 144.448596 
L 374.111414 144.448596 
" style="fill:none;stroke:#0000ff;stroke-linecap:square;stroke-width:1.5;"/>
   </g>
   <g id="line2d_45">
    <path clip-path="url(#p1fac725d7c)" d="M 252.568714 22.796 
" style="fill:none;stroke:#8c564b;stroke-linecap:square;stroke-width:1.5;"/>
    <g clip-path="url(#p1fac725d7c)">
     <use style="fill:#8c564b;stroke:#8c564b;" x="252.568714" xlink:href="#m57679e03a3" y="22.796"/>
    </g>
   </g>
   <g id="line2d_46">
    <path clip-path="url(#p1fac725d7c)" d="M 268.801779 22.796 
" style="fill:none;stroke:#e377c2;stroke-linecap:square;stroke-width:1.5;"/>
    <g clip-path="url(#p1fac725d7c)">
     <use style="fill:#e377c2;stroke:#e377c2;" x="268.801779" xlink:href="#m669567cefa" y="22.796"/>
    </g>
   </g>
   <g id="line2d_47">
    <path clip-path="url(#p1fac725d7c)" d="M 274.608309 22.796 
" style="fill:none;stroke:#7f7f7f;stroke-linecap:square;stroke-width:1.5;"/>
    <g clip-path="url(#p1fac725d7c)">
     <use style="fill:#7f7f7f;stroke:#7f7f7f;" x="274.608309" xlink:href="#md30b492898" y="22.796"/>
    </g>
   </g>
   <g id="line2d_48">
    <path clip-path="url(#p1fac725d7c)" d="M 290.841475 22.796 
" style="fill:none;stroke:#bcbd22;stroke-linecap:square;stroke-width:1.5;"/>
    <g clip-path="url(#p1fac725d7c)">
     <use style="fill:#bcbd22;stroke:#bcbd22;" x="290.841475" xlink:href="#m62b44824f8" y="22.796"/>
    </g>
   </g>
   <g id="line2d_49">
    <path clip-path="url(#p1fac725d7c)" d="M 292.8347 22.796 
" style="fill:none;stroke:#17becf;stroke-linecap:square;stroke-width:1.5;"/>
    <g clip-path="url(#p1fac725d7c)">
     <use style="fill:#17becf;stroke:#17becf;" x="292.8347" xlink:href="#m4c347394ef" y="22.796"/>
    </g>
   </g>
   <g id="line2d_50">
    <path clip-path="url(#p1fac725d7c)" d="M 309.067743 22.796 
" style="fill:none;stroke:#1f77b4;stroke-linecap:square;stroke-width:1.5;"/>
    <g clip-path="url(#p1fac725d7c)">
     <use style="fill:#1f77b4;stroke:#1f77b4;" x="309.067743" xlink:href="#meb56eea9a0" y="22.796"/>
    </g>
   </g>
   <g id="line2d_51">
    <path clip-path="url(#p1fac725d7c)" d="M 314.570129 22.796 
" style="fill:none;stroke:#ff7f0e;stroke-linecap:square;stroke-width:1.5;"/>
    <g clip-path="url(#p1fac725d7c)">
     <use style="fill:#ff7f0e;stroke:#ff7f0e;" x="314.570129" xlink:href="#m9d99e402f4" y="22.796"/>
    </g>
   </g>
   <g id="line2d_52">
    <path clip-path="url(#p1fac725d7c)" d="M 326.647085 22.796 
" style="fill:none;stroke:#2ca02c;stroke-linecap:square;stroke-width:1.5;"/>
    <g clip-path="url(#p1fac725d7c)">
     <use style="fill:#2ca02c;stroke:#2ca02c;" x="326.647085" xlink:href="#m63a163e4e8" y="22.796"/>
    </g>
   </g>
   <g id="line2d_53">
    <path clip-path="url(#p1fac725d7c)" d="M 333.689676 22.796 
" style="fill:none;stroke:#d62728;stroke-linecap:square;stroke-width:1.5;"/>
    <g clip-path="url(#p1fac725d7c)">
     <use style="fill:#d62728;stroke:#d62728;" x="333.689676" xlink:href="#md8e54e3752" y="22.796"/>
    </g>
   </g>
   <g id="line2d_54">
    <path clip-path="url(#p1fac725d7c)" d="M 341.138775 22.796 
" style="fill:none;stroke:#9467bd;stroke-linecap:square;stroke-width:1.5;"/>
    <g clip-path="url(#p1fac725d7c)">
     <use style="fill:#9467bd;stroke:#9467bd;" x="341.138775" xlink:href="#mf9c2190f84" y="22.796"/>
    </g>
   </g>
   <g id="line2d_55">
    <path clip-path="url(#p1fac725d7c)" d="M 352.783194 22.796 
" style="fill:none;stroke:#8c564b;stroke-linecap:square;stroke-width:1.5;"/>
    <g clip-path="url(#p1fac725d7c)">
     <use style="fill:#8c564b;stroke:#8c564b;" x="352.783194" xlink:href="#m57679e03a3" y="22.796"/>
    </g>
   </g>
   <g id="line2d_56">
    <path clip-path="url(#p1fac725d7c)" d="M 362.732204 22.796 
" style="fill:none;stroke:#e377c2;stroke-linecap:square;stroke-width:1.5;"/>
    <g clip-path="url(#p1fac725d7c)">
     <use style="fill:#e377c2;stroke:#e377c2;" x="362.732204" xlink:href="#m669567cefa" y="22.796"/>
    </g>
   </g>
   <g id="line2d_57">
    <path clip-path="url(#p1fac725d7c)" d="M 363.13632 22.796 
" style="fill:none;stroke:#7f7f7f;stroke-linecap:square;stroke-width:1.5;"/>
    <g clip-path="url(#p1fac725d7c)">
     <use style="fill:#7f7f7f;stroke:#7f7f7f;" x="363.13632" xlink:href="#md30b492898" y="22.796"/>
    </g>
   </g>
   <g id="line2d_58">
    <path clip-path="url(#p1fac725d7c)" d="M 252.433119 24.812 
L 252.568714 22.796 
L 252.568714 264.716 
L 252.649879 263.505219 
L 268.801779 22.796 
L 268.801779 264.716 
L 268.882944 108.118648 
L 274.608309 22.796 
L 274.608309 264.716 
L 274.689474 263.506228 
L 290.841475 22.796 
L 290.841475 264.716 
L 290.92264 51.288469 
L 292.8347 22.796 
L 292.8347 264.716 
L 292.915865 263.506315 
L 309.067743 22.796 
L 309.067743 264.716 
L 309.148909 103.584584 
L 314.570129 22.796 
L 314.570129 264.716 
L 314.651295 201.566357 
L 326.647085 22.796 
L 326.647085 264.716 
L 326.728251 126.538647 
L 333.689676 22.796 
L 333.689676 264.716 
L 333.770842 132.598299 
L 341.138775 22.796 
L 341.138775 264.716 
L 341.21994 195.120022 
L 352.783194 22.796 
L 352.783194 264.716 
L 352.864359 169.855128 
L 362.732204 22.796 
L 362.732204 264.716 
L 362.81337 27.605085 
L 363.13632 22.796 
L 363.13632 264.716 
L 363.217485 263.505017 
L 374.174772 100.210326 
L 374.174772 100.210326 
" style="fill:none;stroke:#008000;stroke-linecap:square;stroke-width:1.5;"/>
   </g>
   <g id="patch_3">
    <path d="M 33.2875 276.812 
L 33.2875 10.7 
" style="fill:none;stroke:#000000;stroke-linecap:square;stroke-linejoin:miter;stroke-width:0.8;"/>
   </g>
   <g id="patch_4">
    <path d="M 390.4075 276.812 
L 390.4075 10.7 
" style="fill:none;stroke:#000000;stroke-linecap:square;stroke-linejoin:miter;stroke-width:0.8;"/>
   </g>
   <g id="patch_5">
    <path d="M 33.287498 276.812 
L 390.407499 276.812 
" style="fill:none;stroke:#000000;stroke-linecap:square;stroke-linejoin:miter;stroke-width:0.8;"/>
   </g>
   <g id="patch_6">
    <path d="M 33.287498 10.7 
L 390.407499 10.7 
" style="fill:none;stroke:#000000;stroke-linecap:square;stroke-linejoin:miter;stroke-width:0.8;"/>
   </g>
  </g>
 </g>
 <defs>
  <clipPath id="p1fac725d7c">
   <rect height="266.112" width="357.12" x="33.2875" y="10.7"/>
  </clipPath>
 </defs>
</svg>
