<?xml version="1.0" encoding="utf-8" standalone="no"?>
<!DOCTYPE svg PUBLIC "-//W3C//DTD SVG 1.1//EN"
  "http://www.w3.org/Graphics/SVG/1.1/DTD/svg11.dtd">
<!-- Created with matplotlib (https://matplotlib.org/) -->
<svg height="313.36825pt" version="1.1" viewBox="0 0 401.1075 313.36825" width="401.1075pt" xmlns="http://www.w3.org/2000/svg" xmlns:xlink="http://www.w3.org/1999/xlink">
 <defs>
  <style type="text/css">
*{stroke-linecap:butt;stroke-linejoin:round;}
  </style>
 </defs>
 <g id="figure_1">
  <g id="patch_1">
   <path d="M 0 313.36825 
L 401.1075 313.36825 
L 401.1075 0 
L 0 0 
z
" style="fill:#ffffff;"/>
  </g>
  <g id="axes_1">
   <g id="patch_2">
    <path d="M 33.2875 276.812 
L 390.4075 276.812 
L 390.4075 10.7 
L 33.2875 10.7 
z
" style="fill:#ffffff;"/>
   </g>
   <g id="matplotlib.axis_1">
    <g id="xtick_1">
     <g id="line2d_1">
      <defs>
       <path d="M 0 0 
L 0 3.5 
" id="mc4eaa755bc" style="stroke:#000000;stroke-width:0.8;"/>
      </defs>
      <g>
       <use style="stroke:#000000;stroke-width:0.8;" x="49.520227" xlink:href="#mc4eaa755bc" y="276.812"/>
      </g>
     </g>
     <g id="text_1">
      <!-- 495 -->
      <defs>
       <path d="M 37.796875 64.3125 
L 12.890625 25.390625 
L 37.796875 25.390625 
z
M 35.203125 72.90625 
L 47.609375 72.90625 
L 47.609375 25.390625 
L 58.015625 25.390625 
L 58.015625 17.1875 
L 47.609375 17.1875 
L 47.609375 0 
L 37.796875 0 
L 37.796875 17.1875 
L 4.890625 17.1875 
L 4.890625 26.703125 
z
" id="DejaVuSans-52"/>
       <path d="M 10.984375 1.515625 
L 10.984375 10.5 
Q 14.703125 8.734375 18.5 7.8125 
Q 22.3125 6.890625 25.984375 6.890625 
Q 35.75 6.890625 40.890625 13.453125 
Q 46.046875 20.015625 46.78125 33.40625 
Q 43.953125 29.203125 39.59375 26.953125 
Q 35.25 24.703125 29.984375 24.703125 
Q 19.046875 24.703125 12.671875 31.3125 
Q 6.296875 37.9375 6.296875 49.421875 
Q 6.296875 60.640625 12.9375 67.421875 
Q 19.578125 74.21875 30.609375 74.21875 
Q 43.265625 74.21875 49.921875 64.515625 
Q 56.59375 54.828125 56.59375 36.375 
Q 56.59375 19.140625 48.40625 8.859375 
Q 40.234375 -1.421875 26.421875 -1.421875 
Q 22.703125 -1.421875 18.890625 -0.6875 
Q 15.09375 0.046875 10.984375 1.515625 
z
M 30.609375 32.421875 
Q 37.25 32.421875 41.125 36.953125 
Q 45.015625 41.5 45.015625 49.421875 
Q 45.015625 57.28125 41.125 61.84375 
Q 37.25 66.40625 30.609375 66.40625 
Q 23.96875 66.40625 20.09375 61.84375 
Q 16.21875 57.28125 16.21875 49.421875 
Q 16.21875 41.5 20.09375 36.953125 
Q 23.96875 32.421875 30.609375 32.421875 
z
" id="DejaVuSans-57"/>
       <path d="M 10.796875 72.90625 
L 49.515625 72.90625 
L 49.515625 64.59375 
L 19.828125 64.59375 
L 19.828125 46.734375 
Q 21.96875 47.46875 24.109375 47.828125 
Q 26.265625 48.1875 28.421875 48.1875 
Q 40.625 48.1875 47.75 41.5 
Q 54.890625 34.8125 54.890625 23.390625 
Q 54.890625 11.625 47.5625 5.09375 
Q 40.234375 -1.421875 26.90625 -1.421875 
Q 22.3125 -1.421875 17.546875 -0.640625 
Q 12.796875 0.140625 7.71875 1.703125 
L 7.71875 11.625 
Q 12.109375 9.234375 16.796875 8.0625 
Q 21.484375 6.890625 26.703125 6.890625 
Q 35.15625 6.890625 40.078125 11.328125 
Q 45.015625 15.765625 45.015625 23.390625 
Q 45.015625 31 40.078125 35.4375 
Q 35.15625 39.890625 26.703125 39.890625 
Q 22.75 39.890625 18.8125 39.015625 
Q 14.890625 38.140625 10.796875 36.28125 
z
" id="DejaVuSans-53"/>
      </defs>
      <g transform="translate(39.976477 291.410437)scale(0.1 -0.1)">
       <use xlink:href="#DejaVuSans-52"/>
       <use x="63.623047" xlink:href="#DejaVuSans-57"/>
       <use x="127.246094" xlink:href="#DejaVuSans-53"/>
      </g>
     </g>
    </g>
    <g id="xtick_2">
     <g id="line2d_2">
      <g>
       <use style="stroke:#000000;stroke-width:0.8;" x="90.102205" xlink:href="#mc4eaa755bc" y="276.812"/>
      </g>
     </g>
     <g id="text_2">
      <!-- 500 -->
      <defs>
       <path d="M 31.78125 66.40625 
Q 24.171875 66.40625 20.328125 58.90625 
Q 16.5 51.421875 16.5 36.375 
Q 16.5 21.390625 20.328125 13.890625 
Q 24.171875 6.390625 31.78125 6.390625 
Q 39.453125 6.390625 43.28125 13.890625 
Q 47.125 21.390625 47.125 36.375 
Q 47.125 51.421875 43.28125 58.90625 
Q 39.453125 66.40625 31.78125 66.40625 
z
M 31.78125 74.21875 
Q 44.046875 74.21875 50.515625 64.515625 
Q 56.984375 54.828125 56.984375 36.375 
Q 56.984375 17.96875 50.515625 8.265625 
Q 44.046875 -1.421875 31.78125 -1.421875 
Q 19.53125 -1.421875 13.0625 8.265625 
Q 6.59375 17.96875 6.59375 36.375 
Q 6.59375 54.828125 13.0625 64.515625 
Q 19.53125 74.21875 31.78125 74.21875 
z
" id="DejaVuSans-48"/>
      </defs>
      <g transform="translate(80.558455 291.410437)scale(0.1 -0.1)">
       <use xlink:href="#DejaVuSans-53"/>
       <use x="63.623047" xlink:href="#DejaVuSans-48"/>
       <use x="127.246094" xlink:href="#DejaVuSans-48"/>
      </g>
     </g>
    </g>
    <g id="xtick_3">
     <g id="line2d_3">
      <g>
       <use style="stroke:#000000;stroke-width:0.8;" x="130.684183" xlink:href="#mc4eaa755bc" y="276.812"/>
      </g>
     </g>
     <g id="text_3">
      <!-- 505 -->
      <g transform="translate(121.140433 291.410437)scale(0.1 -0.1)">
       <use xlink:href="#DejaVuSans-53"/>
       <use x="63.623047" xlink:href="#DejaVuSans-48"/>
       <use x="127.246094" xlink:href="#DejaVuSans-53"/>
      </g>
     </g>
    </g>
    <g id="xtick_4">
     <g id="line2d_4">
      <g>
       <use style="stroke:#000000;stroke-width:0.8;" x="171.266159" xlink:href="#mc4eaa755bc" y="276.812"/>
      </g>
     </g>
     <g id="text_4">
      <!-- 510 -->
      <defs>
       <path d="M 12.40625 8.296875 
L 28.515625 8.296875 
L 28.515625 63.921875 
L 10.984375 60.40625 
L 10.984375 69.390625 
L 28.421875 72.90625 
L 38.28125 72.90625 
L 38.28125 8.296875 
L 54.390625 8.296875 
L 54.390625 0 
L 12.40625 0 
z
" id="DejaVuSans-49"/>
      </defs>
      <g transform="translate(161.722409 291.410437)scale(0.1 -0.1)">
       <use xlink:href="#DejaVuSans-53"/>
       <use x="63.623047" xlink:href="#DejaVuSans-49"/>
       <use x="127.246094" xlink:href="#DejaVuSans-48"/>
      </g>
     </g>
    </g>
    <g id="xtick_5">
     <g id="line2d_5">
      <g>
       <use style="stroke:#000000;stroke-width:0.8;" x="211.848137" xlink:href="#mc4eaa755bc" y="276.812"/>
      </g>
     </g>
     <g id="text_5">
      <!-- 515 -->
      <g transform="translate(202.304387 291.410437)scale(0.1 -0.1)">
       <use xlink:href="#DejaVuSans-53"/>
       <use x="63.623047" xlink:href="#DejaVuSans-49"/>
       <use x="127.246094" xlink:href="#DejaVuSans-53"/>
      </g>
     </g>
    </g>
    <g id="xtick_6">
     <g id="line2d_6">
      <g>
       <use style="stroke:#000000;stroke-width:0.8;" x="252.430115" xlink:href="#mc4eaa755bc" y="276.812"/>
      </g>
     </g>
     <g id="text_6">
      <!-- 520 -->
      <defs>
       <path d="M 19.1875 8.296875 
L 53.609375 8.296875 
L 53.609375 0 
L 7.328125 0 
L 7.328125 8.296875 
Q 12.9375 14.109375 22.625 23.890625 
Q 32.328125 33.6875 34.8125 36.53125 
Q 39.546875 41.84375 41.421875 45.53125 
Q 43.3125 49.21875 43.3125 52.78125 
Q 43.3125 58.59375 39.234375 62.25 
Q 35.15625 65.921875 28.609375 65.921875 
Q 23.96875 65.921875 18.8125 64.3125 
Q 13.671875 62.703125 7.8125 59.421875 
L 7.8125 69.390625 
Q 13.765625 71.78125 18.9375 73 
Q 24.125 74.21875 28.421875 74.21875 
Q 39.75 74.21875 46.484375 68.546875 
Q 53.21875 62.890625 53.21875 53.421875 
Q 53.21875 48.921875 51.53125 44.890625 
Q 49.859375 40.875 45.40625 35.40625 
Q 44.1875 33.984375 37.640625 27.21875 
Q 31.109375 20.453125 19.1875 8.296875 
z
" id="DejaVuSans-50"/>
      </defs>
      <g transform="translate(242.886365 291.410437)scale(0.1 -0.1)">
       <use xlink:href="#DejaVuSans-53"/>
       <use x="63.623047" xlink:href="#DejaVuSans-50"/>
       <use x="127.246094" xlink:href="#DejaVuSans-48"/>
      </g>
     </g>
    </g>
    <g id="xtick_7">
     <g id="line2d_7">
      <g>
       <use style="stroke:#000000;stroke-width:0.8;" x="293.012091" xlink:href="#mc4eaa755bc" y="276.812"/>
      </g>
     </g>
     <g id="text_7">
      <!-- 525 -->
      <g transform="translate(283.468341 291.410437)scale(0.1 -0.1)">
       <use xlink:href="#DejaVuSans-53"/>
       <use x="63.623047" xlink:href="#DejaVuSans-50"/>
       <use x="127.246094" xlink:href="#DejaVuSans-53"/>
      </g>
     </g>
    </g>
    <g id="xtick_8">
     <g id="line2d_8">
      <g>
       <use style="stroke:#000000;stroke-width:0.8;" x="333.594069" xlink:href="#mc4eaa755bc" y="276.812"/>
      </g>
     </g>
     <g id="text_8">
      <!-- 530 -->
      <defs>
       <path d="M 40.578125 39.3125 
Q 47.65625 37.796875 51.625 33 
Q 55.609375 28.21875 55.609375 21.1875 
Q 55.609375 10.40625 48.1875 4.484375 
Q 40.765625 -1.421875 27.09375 -1.421875 
Q 22.515625 -1.421875 17.65625 -0.515625 
Q 12.796875 0.390625 7.625 2.203125 
L 7.625 11.71875 
Q 11.71875 9.328125 16.59375 8.109375 
Q 21.484375 6.890625 26.8125 6.890625 
Q 36.078125 6.890625 40.9375 10.546875 
Q 45.796875 14.203125 45.796875 21.1875 
Q 45.796875 27.640625 41.28125 31.265625 
Q 36.765625 34.90625 28.71875 34.90625 
L 20.21875 34.90625 
L 20.21875 43.015625 
L 29.109375 43.015625 
Q 36.375 43.015625 40.234375 45.921875 
Q 44.09375 48.828125 44.09375 54.296875 
Q 44.09375 59.90625 40.109375 62.90625 
Q 36.140625 65.921875 28.71875 65.921875 
Q 24.65625 65.921875 20.015625 65.03125 
Q 15.375 64.15625 9.8125 62.3125 
L 9.8125 71.09375 
Q 15.4375 72.65625 20.34375 73.4375 
Q 25.25 74.21875 29.59375 74.21875 
Q 40.828125 74.21875 47.359375 69.109375 
Q 53.90625 64.015625 53.90625 55.328125 
Q 53.90625 49.265625 50.4375 45.09375 
Q 46.96875 40.921875 40.578125 39.3125 
z
" id="DejaVuSans-51"/>
      </defs>
      <g transform="translate(324.050319 291.410437)scale(0.1 -0.1)">
       <use xlink:href="#DejaVuSans-53"/>
       <use x="63.623047" xlink:href="#DejaVuSans-51"/>
       <use x="127.246094" xlink:href="#DejaVuSans-48"/>
      </g>
     </g>
    </g>
    <g id="xtick_9">
     <g id="line2d_9">
      <g>
       <use style="stroke:#000000;stroke-width:0.8;" x="374.176046" xlink:href="#mc4eaa755bc" y="276.812"/>
      </g>
     </g>
     <g id="text_9">
      <!-- 535 -->
      <g transform="translate(364.632296 291.410437)scale(0.1 -0.1)">
       <use xlink:href="#DejaVuSans-53"/>
       <use x="63.623047" xlink:href="#DejaVuSans-51"/>
       <use x="127.246094" xlink:href="#DejaVuSans-53"/>
      </g>
     </g>
    </g>
    <g id="text_10">
     <!-- +1.59616e9 -->
     <defs>
      <path d="M 46 62.703125 
L 46 35.5 
L 73.1875 35.5 
L 73.1875 27.203125 
L 46 27.203125 
L 46 0 
L 37.796875 0 
L 37.796875 27.203125 
L 10.59375 27.203125 
L 10.59375 35.5 
L 37.796875 35.5 
L 37.796875 62.703125 
z
" id="DejaVuSans-43"/>
      <path d="M 10.6875 12.40625 
L 21 12.40625 
L 21 0 
L 10.6875 0 
z
" id="DejaVuSans-46"/>
      <path d="M 33.015625 40.375 
Q 26.375 40.375 22.484375 35.828125 
Q 18.609375 31.296875 18.609375 23.390625 
Q 18.609375 15.53125 22.484375 10.953125 
Q 26.375 6.390625 33.015625 6.390625 
Q 39.65625 6.390625 43.53125 10.953125 
Q 47.40625 15.53125 47.40625 23.390625 
Q 47.40625 31.296875 43.53125 35.828125 
Q 39.65625 40.375 33.015625 40.375 
z
M 52.59375 71.296875 
L 52.59375 62.3125 
Q 48.875 64.0625 45.09375 64.984375 
Q 41.3125 65.921875 37.59375 65.921875 
Q 27.828125 65.921875 22.671875 59.328125 
Q 17.53125 52.734375 16.796875 39.40625 
Q 19.671875 43.65625 24.015625 45.921875 
Q 28.375 48.1875 33.59375 48.1875 
Q 44.578125 48.1875 50.953125 41.515625 
Q 57.328125 34.859375 57.328125 23.390625 
Q 57.328125 12.15625 50.6875 5.359375 
Q 44.046875 -1.421875 33.015625 -1.421875 
Q 20.359375 -1.421875 13.671875 8.265625 
Q 6.984375 17.96875 6.984375 36.375 
Q 6.984375 53.65625 15.1875 63.9375 
Q 23.390625 74.21875 37.203125 74.21875 
Q 40.921875 74.21875 44.703125 73.484375 
Q 48.484375 72.75 52.59375 71.296875 
z
" id="DejaVuSans-54"/>
      <path d="M 56.203125 29.59375 
L 56.203125 25.203125 
L 14.890625 25.203125 
Q 15.484375 15.921875 20.484375 11.0625 
Q 25.484375 6.203125 34.421875 6.203125 
Q 39.59375 6.203125 44.453125 7.46875 
Q 49.3125 8.734375 54.109375 11.28125 
L 54.109375 2.78125 
Q 49.265625 0.734375 44.1875 -0.34375 
Q 39.109375 -1.421875 33.890625 -1.421875 
Q 20.796875 -1.421875 13.15625 6.1875 
Q 5.515625 13.8125 5.515625 26.8125 
Q 5.515625 40.234375 12.765625 48.109375 
Q 20.015625 56 32.328125 56 
Q 43.359375 56 49.78125 48.890625 
Q 56.203125 41.796875 56.203125 29.59375 
z
M 47.21875 32.234375 
Q 47.125 39.59375 43.09375 43.984375 
Q 39.0625 48.390625 32.421875 48.390625 
Q 24.90625 48.390625 20.390625 44.140625 
Q 15.875 39.890625 15.1875 32.171875 
z
" id="DejaVuSans-101"/>
     </defs>
     <g transform="translate(328.159063 304.088562)scale(0.1 -0.1)">
      <use xlink:href="#DejaVuSans-43"/>
      <use x="83.789062" xlink:href="#DejaVuSans-49"/>
      <use x="147.412109" xlink:href="#DejaVuSans-46"/>
      <use x="179.199219" xlink:href="#DejaVuSans-53"/>
      <use x="242.822266" xlink:href="#DejaVuSans-57"/>
      <use x="306.445312" xlink:href="#DejaVuSans-54"/>
      <use x="370.068359" xlink:href="#DejaVuSans-49"/>
      <use x="433.691406" xlink:href="#DejaVuSans-54"/>
      <use x="497.314453" xlink:href="#DejaVuSans-101"/>
      <use x="558.837891" xlink:href="#DejaVuSans-57"/>
     </g>
    </g>
   </g>
   <g id="matplotlib.axis_2">
    <g id="ytick_1">
     <g id="line2d_10">
      <defs>
       <path d="M 0 0 
L -3.5 0 
" id="m0849682119" style="stroke:#000000;stroke-width:0.8;"/>
      </defs>
      <g>
       <use style="stroke:#000000;stroke-width:0.8;" x="33.2875" xlink:href="#m0849682119" y="264.716"/>
      </g>
     </g>
     <g id="text_11">
      <!-- 0 -->
      <g transform="translate(19.925 268.515219)scale(0.1 -0.1)">
       <use xlink:href="#DejaVuSans-48"/>
      </g>
     </g>
    </g>
    <g id="ytick_2">
     <g id="line2d_11">
      <g>
       <use style="stroke:#000000;stroke-width:0.8;" x="33.2875" xlink:href="#m0849682119" y="231.116"/>
      </g>
     </g>
     <g id="text_12">
      <!-- 50 -->
      <g transform="translate(13.5625 234.915219)scale(0.1 -0.1)">
       <use xlink:href="#DejaVuSans-53"/>
       <use x="63.623047" xlink:href="#DejaVuSans-48"/>
      </g>
     </g>
    </g>
    <g id="ytick_3">
     <g id="line2d_12">
      <g>
       <use style="stroke:#000000;stroke-width:0.8;" x="33.2875" xlink:href="#m0849682119" y="197.516"/>
      </g>
     </g>
     <g id="text_13">
      <!-- 100 -->
      <g transform="translate(7.2 201.315219)scale(0.1 -0.1)">
       <use xlink:href="#DejaVuSans-49"/>
       <use x="63.623047" xlink:href="#DejaVuSans-48"/>
       <use x="127.246094" xlink:href="#DejaVuSans-48"/>
      </g>
     </g>
    </g>
    <g id="ytick_4">
     <g id="line2d_13">
      <g>
       <use style="stroke:#000000;stroke-width:0.8;" x="33.2875" xlink:href="#m0849682119" y="163.916"/>
      </g>
     </g>
     <g id="text_14">
      <!-- 150 -->
      <g transform="translate(7.2 167.715219)scale(0.1 -0.1)">
       <use xlink:href="#DejaVuSans-49"/>
       <use x="63.623047" xlink:href="#DejaVuSans-53"/>
       <use x="127.246094" xlink:href="#DejaVuSans-48"/>
      </g>
     </g>
    </g>
    <g id="ytick_5">
     <g id="line2d_14">
      <g>
       <use style="stroke:#000000;stroke-width:0.8;" x="33.2875" xlink:href="#m0849682119" y="130.316"/>
      </g>
     </g>
     <g id="text_15">
      <!-- 200 -->
      <g transform="translate(7.2 134.115219)scale(0.1 -0.1)">
       <use xlink:href="#DejaVuSans-50"/>
       <use x="63.623047" xlink:href="#DejaVuSans-48"/>
       <use x="127.246094" xlink:href="#DejaVuSans-48"/>
      </g>
     </g>
    </g>
    <g id="ytick_6">
     <g id="line2d_15">
      <g>
       <use style="stroke:#000000;stroke-width:0.8;" x="33.2875" xlink:href="#m0849682119" y="96.716"/>
      </g>
     </g>
     <g id="text_16">
      <!-- 250 -->
      <g transform="translate(7.2 100.515219)scale(0.1 -0.1)">
       <use xlink:href="#DejaVuSans-50"/>
       <use x="63.623047" xlink:href="#DejaVuSans-53"/>
       <use x="127.246094" xlink:href="#DejaVuSans-48"/>
      </g>
     </g>
    </g>
    <g id="ytick_7">
     <g id="line2d_16">
      <g>
       <use style="stroke:#000000;stroke-width:0.8;" x="33.2875" xlink:href="#m0849682119" y="63.116"/>
      </g>
     </g>
     <g id="text_17">
      <!-- 300 -->
      <g transform="translate(7.2 66.915219)scale(0.1 -0.1)">
       <use xlink:href="#DejaVuSans-51"/>
       <use x="63.623047" xlink:href="#DejaVuSans-48"/>
       <use x="127.246094" xlink:href="#DejaVuSans-48"/>
      </g>
     </g>
    </g>
    <g id="ytick_8">
     <g id="line2d_17">
      <g>
       <use style="stroke:#000000;stroke-width:0.8;" x="33.2875" xlink:href="#m0849682119" y="29.516"/>
      </g>
     </g>
     <g id="text_18">
      <!-- 350 -->
      <g transform="translate(7.2 33.315219)scale(0.1 -0.1)">
       <use xlink:href="#DejaVuSans-51"/>
       <use x="63.623047" xlink:href="#DejaVuSans-53"/>
       <use x="127.246094" xlink:href="#DejaVuSans-48"/>
      </g>
     </g>
    </g>
   </g>
   <g id="line2d_18">
    <path clip-path="url(#pd180735b47)" d="M 65.75333 22.796 
" style="fill:none;stroke:#1f77b4;stroke-linecap:square;stroke-width:1.5;"/>
    <defs>
     <path d="M 0 3 
C 0.795609 3 1.55874 2.683901 2.12132 2.12132 
C 2.683901 1.55874 3 0.795609 3 0 
C 3 -0.795609 2.683901 -1.55874 2.12132 -2.12132 
C 1.55874 -2.683901 0.795609 -3 0 -3 
C -0.795609 -3 -1.55874 -2.683901 -2.12132 -2.12132 
C -2.683901 -1.55874 -3 -0.795609 -3 0 
C -3 0.795609 -2.683901 1.55874 -2.12132 2.12132 
C -1.55874 2.683901 -0.795609 3 0 3 
z
" id="meaf3ee20ac" style="stroke:#1f77b4;"/>
    </defs>
    <g clip-path="url(#pd180735b47)">
     <use style="fill:#1f77b4;stroke:#1f77b4;" x="65.75333" xlink:href="#meaf3ee20ac" y="22.796"/>
    </g>
   </g>
   <g id="line2d_19">
    <path clip-path="url(#pd180735b47)" d="M 73.777927 22.796 
" style="fill:none;stroke:#ff7f0e;stroke-linecap:square;stroke-width:1.5;"/>
    <defs>
     <path d="M 0 3 
C 0.795609 3 1.55874 2.683901 2.12132 2.12132 
C 2.683901 1.55874 3 0.795609 3 0 
C 3 -0.795609 2.683901 -1.55874 2.12132 -2.12132 
C 1.55874 -2.683901 0.795609 -3 0 -3 
C -0.795609 -3 -1.55874 -2.683901 -2.12132 -2.12132 
C -2.683901 -1.55874 -3 -0.795609 -3 0 
C -3 0.795609 -2.683901 1.55874 -2.12132 2.12132 
C -1.55874 2.683901 -0.795609 3 0 3 
z
" id="m2a9a20c51c" style="stroke:#ff7f0e;"/>
    </defs>
    <g clip-path="url(#pd180735b47)">
     <use style="fill:#ff7f0e;stroke:#ff7f0e;" x="73.777927" xlink:href="#m2a9a20c51c" y="22.796"/>
    </g>
   </g>
   <g id="line2d_20">
    <path clip-path="url(#pd180735b47)" d="M 84.663715 22.796 
" style="fill:none;stroke:#2ca02c;stroke-linecap:square;stroke-width:1.5;"/>
    <defs>
     <path d="M 0 3 
C 0.795609 3 1.55874 2.683901 2.12132 2.12132 
C 2.683901 1.55874 3 0.795609 3 0 
C 3 -0.795609 2.683901 -1.55874 2.12132 -2.12132 
C 1.55874 -2.683901 0.795609 -3 0 -3 
C -0.795609 -3 -1.55874 -2.683901 -2.12132 -2.12132 
C -2.683901 -1.55874 -3 -0.795609 -3 0 
C -3 0.795609 -2.683901 1.55874 -2.12132 2.12132 
C -1.55874 2.683901 -0.795609 3 0 3 
z
" id="m90293e6ef7" style="stroke:#2ca02c;"/>
    </defs>
    <g clip-path="url(#pd180735b47)">
     <use style="fill:#2ca02c;stroke:#2ca02c;" x="84.663715" xlink:href="#m90293e6ef7" y="22.796"/>
    </g>
   </g>
   <g id="line2d_21">
    <path clip-path="url(#pd180735b47)" d="M 93.221708 22.796 
" style="fill:none;stroke:#d62728;stroke-linecap:square;stroke-width:1.5;"/>
    <defs>
     <path d="M 0 3 
C 0.795609 3 1.55874 2.683901 2.12132 2.12132 
C 2.683901 1.55874 3 0.795609 3 0 
C 3 -0.795609 2.683901 -1.55874 2.12132 -2.12132 
C 1.55874 -2.683901 0.795609 -3 0 -3 
C -0.795609 -3 -1.55874 -2.683901 -2.12132 -2.12132 
C -2.683901 -1.55874 -3 -0.795609 -3 0 
C -3 0.795609 -2.683901 1.55874 -2.12132 2.12132 
C -1.55874 2.683901 -0.795609 3 0 3 
z
" id="m0f22358752" style="stroke:#d62728;"/>
    </defs>
    <g clip-path="url(#pd180735b47)">
     <use style="fill:#d62728;stroke:#d62728;" x="93.221708" xlink:href="#m0f22358752" y="22.796"/>
    </g>
   </g>
   <g id="line2d_22">
    <path clip-path="url(#pd180735b47)" d="M 102.396151 22.796 
" style="fill:none;stroke:#9467bd;stroke-linecap:square;stroke-width:1.5;"/>
    <defs>
     <path d="M 0 3 
C 0.795609 3 1.55874 2.683901 2.12132 2.12132 
C 2.683901 1.55874 3 0.795609 3 0 
C 3 -0.795609 2.683901 -1.55874 2.12132 -2.12132 
C 1.55874 -2.683901 0.795609 -3 0 -3 
C -0.795609 -3 -1.55874 -2.683901 -2.12132 -2.12132 
C -2.683901 -1.55874 -3 -0.795609 -3 0 
C -3 0.795609 -2.683901 1.55874 -2.12132 2.12132 
C -1.55874 2.683901 -0.795609 3 0 3 
z
" id="m78617f4453" style="stroke:#9467bd;"/>
    </defs>
    <g clip-path="url(#pd180735b47)">
     <use style="fill:#9467bd;stroke:#9467bd;" x="102.396151" xlink:href="#m78617f4453" y="22.796"/>
    </g>
   </g>
   <g id="line2d_23">
    <path clip-path="url(#pd180735b47)" d="M 114.436552 22.796 
" style="fill:none;stroke:#8c564b;stroke-linecap:square;stroke-width:1.5;"/>
    <defs>
     <path d="M 0 3 
C 0.795609 3 1.55874 2.683901 2.12132 2.12132 
C 2.683901 1.55874 3 0.795609 3 0 
C 3 -0.795609 2.683901 -1.55874 2.12132 -2.12132 
C 1.55874 -2.683901 0.795609 -3 0 -3 
C -0.795609 -3 -1.55874 -2.683901 -2.12132 -2.12132 
C -2.683901 -1.55874 -3 -0.795609 -3 0 
C -3 0.795609 -2.683901 1.55874 -2.12132 2.12132 
C -1.55874 2.683901 -0.795609 3 0 3 
z
" id="me9750ccb95" style="stroke:#8c564b;"/>
    </defs>
    <g clip-path="url(#pd180735b47)">
     <use style="fill:#8c564b;stroke:#8c564b;" x="114.436552" xlink:href="#me9750ccb95" y="22.796"/>
    </g>
   </g>
   <g id="line2d_24">
    <path clip-path="url(#pd180735b47)" d="M 116.583603 22.796 
" style="fill:none;stroke:#e377c2;stroke-linecap:square;stroke-width:1.5;"/>
    <defs>
     <path d="M 0 3 
C 0.795609 3 1.55874 2.683901 2.12132 2.12132 
C 2.683901 1.55874 3 0.795609 3 0 
C 3 -0.795609 2.683901 -1.55874 2.12132 -2.12132 
C 1.55874 -2.683901 0.795609 -3 0 -3 
C -0.795609 -3 -1.55874 -2.683901 -2.12132 -2.12132 
C -2.683901 -1.55874 -3 -0.795609 -3 0 
C -3 0.795609 -2.683901 1.55874 -2.12132 2.12132 
C -1.55874 2.683901 -0.795609 3 0 3 
z
" id="m691d06f3cc" style="stroke:#e377c2;"/>
    </defs>
    <g clip-path="url(#pd180735b47)">
     <use style="fill:#e377c2;stroke:#e377c2;" x="116.583603" xlink:href="#m691d06f3cc" y="22.796"/>
    </g>
   </g>
   <g id="line2d_25">
    <path clip-path="url(#pd180735b47)" d="M 132.81645 22.796 
" style="fill:none;stroke:#7f7f7f;stroke-linecap:square;stroke-width:1.5;"/>
    <defs>
     <path d="M 0 3 
C 0.795609 3 1.55874 2.683901 2.12132 2.12132 
C 2.683901 1.55874 3 0.795609 3 0 
C 3 -0.795609 2.683901 -1.55874 2.12132 -2.12132 
C 1.55874 -2.683901 0.795609 -3 0 -3 
C -0.795609 -3 -1.55874 -2.683901 -2.12132 -2.12132 
C -2.683901 -1.55874 -3 -0.795609 -3 0 
C -3 0.795609 -2.683901 1.55874 -2.12132 2.12132 
C -1.55874 2.683901 -0.795609 3 0 3 
z
" id="m1808610a13" style="stroke:#7f7f7f;"/>
    </defs>
    <g clip-path="url(#pd180735b47)">
     <use style="fill:#7f7f7f;stroke:#7f7f7f;" x="132.81645" xlink:href="#m1808610a13" y="22.796"/>
    </g>
   </g>
   <g id="line2d_26">
    <path clip-path="url(#pd180735b47)" d="M 135.620157 22.796 
" style="fill:none;stroke:#bcbd22;stroke-linecap:square;stroke-width:1.5;"/>
    <defs>
     <path d="M 0 3 
C 0.795609 3 1.55874 2.683901 2.12132 2.12132 
C 2.683901 1.55874 3 0.795609 3 0 
C 3 -0.795609 2.683901 -1.55874 2.12132 -2.12132 
C 1.55874 -2.683901 0.795609 -3 0 -3 
C -0.795609 -3 -1.55874 -2.683901 -2.12132 -2.12132 
C -2.683901 -1.55874 -3 -0.795609 -3 0 
C -3 0.795609 -2.683901 1.55874 -2.12132 2.12132 
C -1.55874 2.683901 -0.795609 3 0 3 
z
" id="m22bce8145f" style="stroke:#bcbd22;"/>
    </defs>
    <g clip-path="url(#pd180735b47)">
     <use style="fill:#bcbd22;stroke:#bcbd22;" x="135.620157" xlink:href="#m22bce8145f" y="22.796"/>
    </g>
   </g>
   <g id="line2d_27">
    <path clip-path="url(#pd180735b47)" d="M 151.853043 22.796 
" style="fill:none;stroke:#17becf;stroke-linecap:square;stroke-width:1.5;"/>
    <defs>
     <path d="M 0 3 
C 0.795609 3 1.55874 2.683901 2.12132 2.12132 
C 2.683901 1.55874 3 0.795609 3 0 
C 3 -0.795609 2.683901 -1.55874 2.12132 -2.12132 
C 1.55874 -2.683901 0.795609 -3 0 -3 
C -0.795609 -3 -1.55874 -2.683901 -2.12132 -2.12132 
C -2.683901 -1.55874 -3 -0.795609 -3 0 
C -3 0.795609 -2.683901 1.55874 -2.12132 2.12132 
C -1.55874 2.683901 -0.795609 3 0 3 
z
" id="m6dd45330e1" style="stroke:#17becf;"/>
    </defs>
    <g clip-path="url(#pd180735b47)">
     <use style="fill:#17becf;stroke:#17becf;" x="151.853043" xlink:href="#m6dd45330e1" y="22.796"/>
    </g>
   </g>
   <g id="line2d_28">
    <path clip-path="url(#pd180735b47)" d="M 154.326227 22.796 
" style="fill:none;stroke:#1f77b4;stroke-linecap:square;stroke-width:1.5;"/>
    <g clip-path="url(#pd180735b47)">
     <use style="fill:#1f77b4;stroke:#1f77b4;" x="154.326227" xlink:href="#meaf3ee20ac" y="22.796"/>
    </g>
   </g>
   <g id="line2d_29">
    <path clip-path="url(#pd180735b47)" d="M 170.559141 22.796 
" style="fill:none;stroke:#ff7f0e;stroke-linecap:square;stroke-width:1.5;"/>
    <g clip-path="url(#pd180735b47)">
     <use style="fill:#ff7f0e;stroke:#ff7f0e;" x="170.559141" xlink:href="#m2a9a20c51c" y="22.796"/>
    </g>
   </g>
   <g id="line2d_30">
    <path clip-path="url(#pd180735b47)" d="M 49.520227 264.716 
L 65.75333 22.796 
L 65.75333 264.716 
L 65.834496 141.175977 
L 73.777927 22.796 
L 73.777927 264.716 
L 73.859091 183.816961 
L 84.663715 22.796 
L 84.663715 264.716 
L 84.744879 149.124408 
L 93.221708 22.796 
L 93.221708 264.716 
L 93.302872 158.311889 
L 102.396151 22.796 
L 102.396151 264.716 
L 102.477314 201.024102 
L 114.436552 22.796 
L 114.436552 264.716 
L 114.517715 53.582145 
L 116.583603 22.796 
L 116.583603 264.716 
L 116.664766 263.505248 
L 132.81645 22.796 
L 132.81645 264.716 
L 132.897614 63.368309 
L 135.620157 22.796 
L 135.620157 264.716 
L 135.701321 263.504354 
L 151.853043 22.796 
L 151.853043 264.716 
L 151.934206 58.441913 
L 154.326227 22.796 
L 154.326227 264.716 
L 154.407391 263.504296 
L 170.559141 22.796 
L 170.559141 264.716 
L 170.640305 58.528834 
L 171.208452 50.063315 
L 171.208452 50.063315 
" style="fill:none;stroke:#ff0000;stroke-linecap:square;stroke-width:1.5;"/>
   </g>
   <g id="line2d_31">
    <path clip-path="url(#pd180735b47)" d="M 255.09074 22.796 
" style="fill:none;stroke:#2ca02c;stroke-linecap:square;stroke-width:1.5;"/>
    <g clip-path="url(#pd180735b47)">
     <use style="fill:#2ca02c;stroke:#2ca02c;" x="255.09074" xlink:href="#m90293e6ef7" y="22.796"/>
    </g>
   </g>
   <g id="line2d_32">
    <path clip-path="url(#pd180735b47)" d="M 266.000748 22.796 
" style="fill:none;stroke:#d62728;stroke-linecap:square;stroke-width:1.5;"/>
    <g clip-path="url(#pd180735b47)">
     <use style="fill:#d62728;stroke:#d62728;" x="266.000748" xlink:href="#m0f22358752" y="22.796"/>
    </g>
   </g>
   <g id="line2d_33">
    <path clip-path="url(#pd180735b47)" d="M 282.233662 22.796 
" style="fill:none;stroke:#9467bd;stroke-linecap:square;stroke-width:1.5;"/>
    <g clip-path="url(#pd180735b47)">
     <use style="fill:#9467bd;stroke:#9467bd;" x="282.233662" xlink:href="#m78617f4453" y="22.796"/>
    </g>
   </g>
   <g id="line2d_34">
    <path clip-path="url(#pd180735b47)" d="M 289.745865 22.796 
" style="fill:none;stroke:#8c564b;stroke-linecap:square;stroke-width:1.5;"/>
    <g clip-path="url(#pd180735b47)">
     <use style="fill:#8c564b;stroke:#8c564b;" x="289.745865" xlink:href="#me9750ccb95" y="22.796"/>
    </g>
   </g>
   <g id="line2d_35">
    <path clip-path="url(#pd180735b47)" d="M 296.006134 22.796 
" style="fill:none;stroke:#e377c2;stroke-linecap:square;stroke-width:1.5;"/>
    <g clip-path="url(#pd180735b47)">
     <use style="fill:#e377c2;stroke:#e377c2;" x="296.006134" xlink:href="#m691d06f3cc" y="22.796"/>
    </g>
   </g>
   <g id="line2d_36">
    <path clip-path="url(#pd180735b47)" d="M 306.611706 22.796 
" style="fill:none;stroke:#7f7f7f;stroke-linecap:square;stroke-width:1.5;"/>
    <g clip-path="url(#pd180735b47)">
     <use style="fill:#7f7f7f;stroke:#7f7f7f;" x="306.611706" xlink:href="#m1808610a13" y="22.796"/>
    </g>
   </g>
   <g id="line2d_37">
    <path clip-path="url(#pd180735b47)" d="M 311.959417 22.796 
" style="fill:none;stroke:#bcbd22;stroke-linecap:square;stroke-width:1.5;"/>
    <g clip-path="url(#pd180735b47)">
     <use style="fill:#bcbd22;stroke:#bcbd22;" x="311.959417" xlink:href="#m22bce8145f" y="22.796"/>
    </g>
   </g>
   <g id="line2d_38">
    <path clip-path="url(#pd180735b47)" d="M 328.192249 22.796 
" style="fill:none;stroke:#17becf;stroke-linecap:square;stroke-width:1.5;"/>
    <g clip-path="url(#pd180735b47)">
     <use style="fill:#17becf;stroke:#17becf;" x="328.192249" xlink:href="#m6dd45330e1" y="22.796"/>
    </g>
   </g>
   <g id="line2d_39">
    <path clip-path="url(#pd180735b47)" d="M 337.8557 22.796 
" style="fill:none;stroke:#1f77b4;stroke-linecap:square;stroke-width:1.5;"/>
    <g clip-path="url(#pd180735b47)">
     <use style="fill:#1f77b4;stroke:#1f77b4;" x="337.8557" xlink:href="#meaf3ee20ac" y="22.796"/>
    </g>
   </g>
   <g id="line2d_40">
    <path clip-path="url(#pd180735b47)" d="M 343.529272 22.796 
" style="fill:none;stroke:#ff7f0e;stroke-linecap:square;stroke-width:1.5;"/>
    <g clip-path="url(#pd180735b47)">
     <use style="fill:#ff7f0e;stroke:#ff7f0e;" x="343.529272" xlink:href="#m2a9a20c51c" y="22.796"/>
    </g>
   </g>
   <g id="line2d_41">
    <path clip-path="url(#pd180735b47)" d="M 354.869991 22.796 
" style="fill:none;stroke:#2ca02c;stroke-linecap:square;stroke-width:1.5;"/>
    <g clip-path="url(#pd180735b47)">
     <use style="fill:#2ca02c;stroke:#2ca02c;" x="354.869991" xlink:href="#m90293e6ef7" y="22.796"/>
    </g>
   </g>
   <g id="line2d_42">
    <path clip-path="url(#pd180735b47)" d="M 363.701651 22.796 
" style="fill:none;stroke:#d62728;stroke-linecap:square;stroke-width:1.5;"/>
    <g clip-path="url(#pd180735b47)">
     <use style="fill:#d62728;stroke:#d62728;" x="363.701651" xlink:href="#m0f22358752" y="22.796"/>
    </g>
   </g>
   <g id="line2d_43">
    <path clip-path="url(#pd180735b47)" d="M 372.876152 22.796 
" style="fill:none;stroke:#9467bd;stroke-linecap:square;stroke-width:1.5;"/>
    <g clip-path="url(#pd180735b47)">
     <use style="fill:#9467bd;stroke:#9467bd;" x="372.876152" xlink:href="#m78617f4453" y="22.796"/>
    </g>
   </g>
   <g id="line2d_44">
    <path clip-path="url(#pd180735b47)" d="M 252.430115 62.444 
L 255.09074 22.796 
L 255.09074 264.716 
L 255.171904 184.177138 
L 266.000748 22.796 
L 266.000748 264.716 
L 266.081911 263.504209 
L 282.233662 22.796 
L 282.233662 264.716 
L 282.314825 133.539717 
L 289.745865 22.796 
L 289.745865 264.716 
L 289.827028 114.880129 
L 296.006134 22.796 
L 296.006134 264.716 
L 296.087297 179.639584 
L 306.611706 22.796 
L 306.611706 264.716 
L 306.692869 101.280266 
L 311.959417 22.796 
L 311.959417 264.716 
L 312.040581 263.506113 
L 328.192249 22.796 
L 328.192249 264.716 
L 328.273415 165.600609 
L 337.8557 22.796 
L 337.8557 264.716 
L 337.936863 106.139672 
L 343.529272 22.796 
L 343.529272 264.716 
L 343.610435 190.598198 
L 354.869991 22.796 
L 354.869991 264.716 
L 354.951155 153.202549 
L 363.701651 22.796 
L 363.701651 264.716 
L 363.782814 158.312791 
L 372.876152 22.796 
L 372.876152 264.716 
L 372.957315 107.471348 
L 374.174774 89.328086 
L 374.174774 89.328086 
" style="fill:none;stroke:#0000ff;stroke-linecap:square;stroke-width:1.5;"/>
   </g>
   <g id="line2d_45">
    <path clip-path="url(#pd180735b47)" d="M 253.918579 22.796 
" style="fill:none;stroke:#8c564b;stroke-linecap:square;stroke-width:1.5;"/>
    <g clip-path="url(#pd180735b47)">
     <use style="fill:#8c564b;stroke:#8c564b;" x="253.918579" xlink:href="#me9750ccb95" y="22.796"/>
    </g>
   </g>
   <g id="line2d_46">
    <path clip-path="url(#pd180735b47)" d="M 270.151381 22.796 
" style="fill:none;stroke:#e377c2;stroke-linecap:square;stroke-width:1.5;"/>
    <g clip-path="url(#pd180735b47)">
     <use style="fill:#e377c2;stroke:#e377c2;" x="270.151381" xlink:href="#m691d06f3cc" y="22.796"/>
    </g>
   </g>
   <g id="line2d_47">
    <path clip-path="url(#pd180735b47)" d="M 277.341913 22.796 
" style="fill:none;stroke:#7f7f7f;stroke-linecap:square;stroke-width:1.5;"/>
    <g clip-path="url(#pd180735b47)">
     <use style="fill:#7f7f7f;stroke:#7f7f7f;" x="277.341913" xlink:href="#m1808610a13" y="22.796"/>
    </g>
   </g>
   <g id="line2d_48">
    <path clip-path="url(#pd180735b47)" d="M 288.935715 22.796 
" style="fill:none;stroke:#bcbd22;stroke-linecap:square;stroke-width:1.5;"/>
    <g clip-path="url(#pd180735b47)">
     <use style="fill:#bcbd22;stroke:#bcbd22;" x="288.935715" xlink:href="#m22bce8145f" y="22.796"/>
    </g>
   </g>
   <g id="line2d_49">
    <path clip-path="url(#pd180735b47)" d="M 297.073212 22.796 
" style="fill:none;stroke:#17becf;stroke-linecap:square;stroke-width:1.5;"/>
    <g clip-path="url(#pd180735b47)">
     <use style="fill:#17becf;stroke:#17becf;" x="297.073212" xlink:href="#m6dd45330e1" y="22.796"/>
    </g>
   </g>
   <g id="line2d_50">
    <path clip-path="url(#pd180735b47)" d="M 299.691751 22.796 
" style="fill:none;stroke:#1f77b4;stroke-linecap:square;stroke-width:1.5;"/>
    <g clip-path="url(#pd180735b47)">
     <use style="fill:#1f77b4;stroke:#1f77b4;" x="299.691751" xlink:href="#meaf3ee20ac" y="22.796"/>
    </g>
   </g>
   <g id="line2d_51">
    <path clip-path="url(#pd180735b47)" d="M 315.924549 22.796 
" style="fill:none;stroke:#ff7f0e;stroke-linecap:square;stroke-width:1.5;"/>
    <g clip-path="url(#pd180735b47)">
     <use style="fill:#ff7f0e;stroke:#ff7f0e;" x="315.924549" xlink:href="#m2a9a20c51c" y="22.796"/>
    </g>
   </g>
   <g id="line2d_52">
    <path clip-path="url(#pd180735b47)" d="M 319.255074 22.796 
" style="fill:none;stroke:#2ca02c;stroke-linecap:square;stroke-width:1.5;"/>
    <g clip-path="url(#pd180735b47)">
     <use style="fill:#2ca02c;stroke:#2ca02c;" x="319.255074" xlink:href="#m90293e6ef7" y="22.796"/>
    </g>
   </g>
   <g id="line2d_53">
    <path clip-path="url(#pd180735b47)" d="M 329.944601 22.796 
" style="fill:none;stroke:#d62728;stroke-linecap:square;stroke-width:1.5;"/>
    <g clip-path="url(#pd180735b47)">
     <use style="fill:#d62728;stroke:#d62728;" x="329.944601" xlink:href="#m0f22358752" y="22.796"/>
    </g>
   </g>
   <g id="line2d_54">
    <path clip-path="url(#pd180735b47)" d="M 341.125862 22.796 
" style="fill:none;stroke:#9467bd;stroke-linecap:square;stroke-width:1.5;"/>
    <g clip-path="url(#pd180735b47)">
     <use style="fill:#9467bd;stroke:#9467bd;" x="341.125862" xlink:href="#m78617f4453" y="22.796"/>
    </g>
   </g>
   <g id="line2d_55">
    <path clip-path="url(#pd180735b47)" d="M 347.5945 22.796 
" style="fill:none;stroke:#8c564b;stroke-linecap:square;stroke-width:1.5;"/>
    <g clip-path="url(#pd180735b47)">
     <use style="fill:#8c564b;stroke:#8c564b;" x="347.5945" xlink:href="#me9750ccb95" y="22.796"/>
    </g>
   </g>
   <g id="line2d_56">
    <path clip-path="url(#pd180735b47)" d="M 359.582508 22.796 
" style="fill:none;stroke:#e377c2;stroke-linecap:square;stroke-width:1.5;"/>
    <g clip-path="url(#pd180735b47)">
     <use style="fill:#e377c2;stroke:#e377c2;" x="359.582508" xlink:href="#m691d06f3cc" y="22.796"/>
    </g>
   </g>
   <g id="line2d_57">
    <path clip-path="url(#pd180735b47)" d="M 365.08749 22.796 
" style="fill:none;stroke:#7f7f7f;stroke-linecap:square;stroke-width:1.5;"/>
    <g clip-path="url(#pd180735b47)">
     <use style="fill:#7f7f7f;stroke:#7f7f7f;" x="365.08749" xlink:href="#m1808610a13" y="22.796"/>
    </g>
   </g>
   <g id="line2d_58">
    <path clip-path="url(#pd180735b47)" d="M 252.430115 44.972 
L 253.918579 22.796 
L 253.918579 264.716 
L 253.999743 263.50519 
L 270.151381 22.796 
L 270.151381 264.716 
L 270.232544 128.746402 
L 277.341913 22.796 
L 277.341913 264.716 
L 277.423077 194.369355 
L 288.935715 22.796 
L 288.935715 264.716 
L 289.01688 142.858399 
L 297.073212 22.796 
L 297.073212 264.716 
L 297.154375 60.607955 
L 299.691751 22.796 
L 299.691751 264.716 
L 299.772915 263.505709 
L 315.924549 22.796 
L 315.924549 264.716 
L 316.005713 71.220203 
L 319.255074 22.796 
L 319.255074 264.716 
L 319.336239 180.890728 
L 329.944601 22.796 
L 329.944601 264.716 
L 330.025764 188.220308 
L 341.125862 22.796 
L 341.125862 264.716 
L 341.207027 117.985491 
L 347.5945 22.796 
L 347.5945 264.716 
L 347.675663 200.244115 
L 359.582508 22.796 
L 359.582508 264.716 
L 359.663671 103.624747 
L 365.08749 22.796 
L 365.08749 264.716 
L 365.168653 186.268749 
L 374.09668 53.213424 
L 374.09668 53.213424 
" style="fill:none;stroke:#008000;stroke-linecap:square;stroke-width:1.5;"/>
   </g>
   <g id="patch_3">
    <path d="M 33.2875 276.812 
L 33.2875 10.7 
" style="fill:none;stroke:#000000;stroke-linecap:square;stroke-linejoin:miter;stroke-width:0.8;"/>
   </g>
   <g id="patch_4">
    <path d="M 390.4075 276.812 
L 390.4075 10.7 
" style="fill:none;stroke:#000000;stroke-linecap:square;stroke-linejoin:miter;stroke-width:0.8;"/>
   </g>
   <g id="patch_5">
    <path d="M 33.2875 276.812 
L 390.407501 276.812 
" style="fill:none;stroke:#000000;stroke-linecap:square;stroke-linejoin:miter;stroke-width:0.8;"/>
   </g>
   <g id="patch_6">
    <path d="M 33.2875 10.7 
L 390.407501 10.7 
" style="fill:none;stroke:#000000;stroke-linecap:square;stroke-linejoin:miter;stroke-width:0.8;"/>
   </g>
  </g>
 </g>
 <defs>
  <clipPath id="pd180735b47">
   <rect height="266.112" width="357.12" x="33.2875" y="10.7"/>
  </clipPath>
 </defs>
</svg>
