<?xml version="1.0" encoding="utf-8" standalone="no"?>
<!DOCTYPE svg PUBLIC "-//W3C//DTD SVG 1.1//EN"
  "http://www.w3.org/Graphics/SVG/1.1/DTD/svg11.dtd">
<!-- Created with matplotlib (https://matplotlib.org/) -->
<svg height="313.36825pt" version="1.1" viewBox="0 0 404.285625 313.36825" width="404.285625pt" xmlns="http://www.w3.org/2000/svg" xmlns:xlink="http://www.w3.org/1999/xlink">
 <defs>
  <style type="text/css">
*{stroke-linecap:butt;stroke-linejoin:round;}
  </style>
 </defs>
 <g id="figure_1">
  <g id="patch_1">
   <path d="M 0 313.36825 
L 404.285625 313.36825 
L 404.285625 0 
L 0 0 
z
" style="fill:#ffffff;"/>
  </g>
  <g id="axes_1">
   <g id="patch_2">
    <path d="M 36.465625 276.812 
L 393.585625 276.812 
L 393.585625 10.7 
L 36.465625 10.7 
z
" style="fill:#ffffff;"/>
   </g>
   <g id="matplotlib.axis_1">
    <g id="xtick_1">
     <g id="line2d_1">
      <defs>
       <path d="M 0 0 
L 0 3.5 
" id="mc24693067b" style="stroke:#000000;stroke-width:0.8;"/>
      </defs>
      <g>
       <use style="stroke:#000000;stroke-width:0.8;" x="52.698349" xlink:href="#mc24693067b" y="276.812"/>
      </g>
     </g>
     <g id="text_1">
      <!-- 54 -->
      <defs>
       <path d="M 10.796875 72.90625 
L 49.515625 72.90625 
L 49.515625 64.59375 
L 19.828125 64.59375 
L 19.828125 46.734375 
Q 21.96875 47.46875 24.109375 47.828125 
Q 26.265625 48.1875 28.421875 48.1875 
Q 40.625 48.1875 47.75 41.5 
Q 54.890625 34.8125 54.890625 23.390625 
Q 54.890625 11.625 47.5625 5.09375 
Q 40.234375 -1.421875 26.90625 -1.421875 
Q 22.3125 -1.421875 17.546875 -0.640625 
Q 12.796875 0.140625 7.71875 1.703125 
L 7.71875 11.625 
Q 12.109375 9.234375 16.796875 8.0625 
Q 21.484375 6.890625 26.703125 6.890625 
Q 35.15625 6.890625 40.078125 11.328125 
Q 45.015625 15.765625 45.015625 23.390625 
Q 45.015625 31 40.078125 35.4375 
Q 35.15625 39.890625 26.703125 39.890625 
Q 22.75 39.890625 18.8125 39.015625 
Q 14.890625 38.140625 10.796875 36.28125 
z
" id="DejaVuSans-53"/>
       <path d="M 37.796875 64.3125 
L 12.890625 25.390625 
L 37.796875 25.390625 
z
M 35.203125 72.90625 
L 47.609375 72.90625 
L 47.609375 25.390625 
L 58.015625 25.390625 
L 58.015625 17.1875 
L 47.609375 17.1875 
L 47.609375 0 
L 37.796875 0 
L 37.796875 17.1875 
L 4.890625 17.1875 
L 4.890625 26.703125 
z
" id="DejaVuSans-52"/>
      </defs>
      <g transform="translate(46.335849 291.410437)scale(0.1 -0.1)">
       <use xlink:href="#DejaVuSans-53"/>
       <use x="63.623047" xlink:href="#DejaVuSans-52"/>
      </g>
     </g>
    </g>
    <g id="xtick_2">
     <g id="line2d_2">
      <g>
       <use style="stroke:#000000;stroke-width:0.8;" x="95.995056" xlink:href="#mc24693067b" y="276.812"/>
      </g>
     </g>
     <g id="text_2">
      <!-- 56 -->
      <defs>
       <path d="M 33.015625 40.375 
Q 26.375 40.375 22.484375 35.828125 
Q 18.609375 31.296875 18.609375 23.390625 
Q 18.609375 15.53125 22.484375 10.953125 
Q 26.375 6.390625 33.015625 6.390625 
Q 39.65625 6.390625 43.53125 10.953125 
Q 47.40625 15.53125 47.40625 23.390625 
Q 47.40625 31.296875 43.53125 35.828125 
Q 39.65625 40.375 33.015625 40.375 
z
M 52.59375 71.296875 
L 52.59375 62.3125 
Q 48.875 64.0625 45.09375 64.984375 
Q 41.3125 65.921875 37.59375 65.921875 
Q 27.828125 65.921875 22.671875 59.328125 
Q 17.53125 52.734375 16.796875 39.40625 
Q 19.671875 43.65625 24.015625 45.921875 
Q 28.375 48.1875 33.59375 48.1875 
Q 44.578125 48.1875 50.953125 41.515625 
Q 57.328125 34.859375 57.328125 23.390625 
Q 57.328125 12.15625 50.6875 5.359375 
Q 44.046875 -1.421875 33.015625 -1.421875 
Q 20.359375 -1.421875 13.671875 8.265625 
Q 6.984375 17.96875 6.984375 36.375 
Q 6.984375 53.65625 15.1875 63.9375 
Q 23.390625 74.21875 37.203125 74.21875 
Q 40.921875 74.21875 44.703125 73.484375 
Q 48.484375 72.75 52.59375 71.296875 
z
" id="DejaVuSans-54"/>
      </defs>
      <g transform="translate(89.632556 291.410437)scale(0.1 -0.1)">
       <use xlink:href="#DejaVuSans-53"/>
       <use x="63.623047" xlink:href="#DejaVuSans-54"/>
      </g>
     </g>
    </g>
    <g id="xtick_3">
     <g id="line2d_3">
      <g>
       <use style="stroke:#000000;stroke-width:0.8;" x="139.291763" xlink:href="#mc24693067b" y="276.812"/>
      </g>
     </g>
     <g id="text_3">
      <!-- 58 -->
      <defs>
       <path d="M 31.78125 34.625 
Q 24.75 34.625 20.71875 30.859375 
Q 16.703125 27.09375 16.703125 20.515625 
Q 16.703125 13.921875 20.71875 10.15625 
Q 24.75 6.390625 31.78125 6.390625 
Q 38.8125 6.390625 42.859375 10.171875 
Q 46.921875 13.96875 46.921875 20.515625 
Q 46.921875 27.09375 42.890625 30.859375 
Q 38.875 34.625 31.78125 34.625 
z
M 21.921875 38.8125 
Q 15.578125 40.375 12.03125 44.71875 
Q 8.5 49.078125 8.5 55.328125 
Q 8.5 64.0625 14.71875 69.140625 
Q 20.953125 74.21875 31.78125 74.21875 
Q 42.671875 74.21875 48.875 69.140625 
Q 55.078125 64.0625 55.078125 55.328125 
Q 55.078125 49.078125 51.53125 44.71875 
Q 48 40.375 41.703125 38.8125 
Q 48.828125 37.15625 52.796875 32.3125 
Q 56.78125 27.484375 56.78125 20.515625 
Q 56.78125 9.90625 50.3125 4.234375 
Q 43.84375 -1.421875 31.78125 -1.421875 
Q 19.734375 -1.421875 13.25 4.234375 
Q 6.78125 9.90625 6.78125 20.515625 
Q 6.78125 27.484375 10.78125 32.3125 
Q 14.796875 37.15625 21.921875 38.8125 
z
M 18.3125 54.390625 
Q 18.3125 48.734375 21.84375 45.5625 
Q 25.390625 42.390625 31.78125 42.390625 
Q 38.140625 42.390625 41.71875 45.5625 
Q 45.3125 48.734375 45.3125 54.390625 
Q 45.3125 60.0625 41.71875 63.234375 
Q 38.140625 66.40625 31.78125 66.40625 
Q 25.390625 66.40625 21.84375 63.234375 
Q 18.3125 60.0625 18.3125 54.390625 
z
" id="DejaVuSans-56"/>
      </defs>
      <g transform="translate(132.929263 291.410437)scale(0.1 -0.1)">
       <use xlink:href="#DejaVuSans-53"/>
       <use x="63.623047" xlink:href="#DejaVuSans-56"/>
      </g>
     </g>
    </g>
    <g id="xtick_4">
     <g id="line2d_4">
      <g>
       <use style="stroke:#000000;stroke-width:0.8;" x="182.58847" xlink:href="#mc24693067b" y="276.812"/>
      </g>
     </g>
     <g id="text_4">
      <!-- 60 -->
      <defs>
       <path d="M 31.78125 66.40625 
Q 24.171875 66.40625 20.328125 58.90625 
Q 16.5 51.421875 16.5 36.375 
Q 16.5 21.390625 20.328125 13.890625 
Q 24.171875 6.390625 31.78125 6.390625 
Q 39.453125 6.390625 43.28125 13.890625 
Q 47.125 21.390625 47.125 36.375 
Q 47.125 51.421875 43.28125 58.90625 
Q 39.453125 66.40625 31.78125 66.40625 
z
M 31.78125 74.21875 
Q 44.046875 74.21875 50.515625 64.515625 
Q 56.984375 54.828125 56.984375 36.375 
Q 56.984375 17.96875 50.515625 8.265625 
Q 44.046875 -1.421875 31.78125 -1.421875 
Q 19.53125 -1.421875 13.0625 8.265625 
Q 6.59375 17.96875 6.59375 36.375 
Q 6.59375 54.828125 13.0625 64.515625 
Q 19.53125 74.21875 31.78125 74.21875 
z
" id="DejaVuSans-48"/>
      </defs>
      <g transform="translate(176.22597 291.410437)scale(0.1 -0.1)">
       <use xlink:href="#DejaVuSans-54"/>
       <use x="63.623047" xlink:href="#DejaVuSans-48"/>
      </g>
     </g>
    </g>
    <g id="xtick_5">
     <g id="line2d_5">
      <g>
       <use style="stroke:#000000;stroke-width:0.8;" x="225.885178" xlink:href="#mc24693067b" y="276.812"/>
      </g>
     </g>
     <g id="text_5">
      <!-- 62 -->
      <defs>
       <path d="M 19.1875 8.296875 
L 53.609375 8.296875 
L 53.609375 0 
L 7.328125 0 
L 7.328125 8.296875 
Q 12.9375 14.109375 22.625 23.890625 
Q 32.328125 33.6875 34.8125 36.53125 
Q 39.546875 41.84375 41.421875 45.53125 
Q 43.3125 49.21875 43.3125 52.78125 
Q 43.3125 58.59375 39.234375 62.25 
Q 35.15625 65.921875 28.609375 65.921875 
Q 23.96875 65.921875 18.8125 64.3125 
Q 13.671875 62.703125 7.8125 59.421875 
L 7.8125 69.390625 
Q 13.765625 71.78125 18.9375 73 
Q 24.125 74.21875 28.421875 74.21875 
Q 39.75 74.21875 46.484375 68.546875 
Q 53.21875 62.890625 53.21875 53.421875 
Q 53.21875 48.921875 51.53125 44.890625 
Q 49.859375 40.875 45.40625 35.40625 
Q 44.1875 33.984375 37.640625 27.21875 
Q 31.109375 20.453125 19.1875 8.296875 
z
" id="DejaVuSans-50"/>
      </defs>
      <g transform="translate(219.522678 291.410437)scale(0.1 -0.1)">
       <use xlink:href="#DejaVuSans-54"/>
       <use x="63.623047" xlink:href="#DejaVuSans-50"/>
      </g>
     </g>
    </g>
    <g id="xtick_6">
     <g id="line2d_6">
      <g>
       <use style="stroke:#000000;stroke-width:0.8;" x="269.181892" xlink:href="#mc24693067b" y="276.812"/>
      </g>
     </g>
     <g id="text_6">
      <!-- 64 -->
      <g transform="translate(262.819392 291.410437)scale(0.1 -0.1)">
       <use xlink:href="#DejaVuSans-54"/>
       <use x="63.623047" xlink:href="#DejaVuSans-52"/>
      </g>
     </g>
    </g>
    <g id="xtick_7">
     <g id="line2d_7">
      <g>
       <use style="stroke:#000000;stroke-width:0.8;" x="312.4786" xlink:href="#mc24693067b" y="276.812"/>
      </g>
     </g>
     <g id="text_7">
      <!-- 66 -->
      <g transform="translate(306.1161 291.410437)scale(0.1 -0.1)">
       <use xlink:href="#DejaVuSans-54"/>
       <use x="63.623047" xlink:href="#DejaVuSans-54"/>
      </g>
     </g>
    </g>
    <g id="xtick_8">
     <g id="line2d_8">
      <g>
       <use style="stroke:#000000;stroke-width:0.8;" x="355.775307" xlink:href="#mc24693067b" y="276.812"/>
      </g>
     </g>
     <g id="text_8">
      <!-- 68 -->
      <g transform="translate(349.412807 291.410437)scale(0.1 -0.1)">
       <use xlink:href="#DejaVuSans-54"/>
       <use x="63.623047" xlink:href="#DejaVuSans-56"/>
      </g>
     </g>
    </g>
    <g id="text_9">
     <!-- +1.59616e9 -->
     <defs>
      <path d="M 46 62.703125 
L 46 35.5 
L 73.1875 35.5 
L 73.1875 27.203125 
L 46 27.203125 
L 46 0 
L 37.796875 0 
L 37.796875 27.203125 
L 10.59375 27.203125 
L 10.59375 35.5 
L 37.796875 35.5 
L 37.796875 62.703125 
z
" id="DejaVuSans-43"/>
      <path d="M 12.40625 8.296875 
L 28.515625 8.296875 
L 28.515625 63.921875 
L 10.984375 60.40625 
L 10.984375 69.390625 
L 28.421875 72.90625 
L 38.28125 72.90625 
L 38.28125 8.296875 
L 54.390625 8.296875 
L 54.390625 0 
L 12.40625 0 
z
" id="DejaVuSans-49"/>
      <path d="M 10.6875 12.40625 
L 21 12.40625 
L 21 0 
L 10.6875 0 
z
" id="DejaVuSans-46"/>
      <path d="M 10.984375 1.515625 
L 10.984375 10.5 
Q 14.703125 8.734375 18.5 7.8125 
Q 22.3125 6.890625 25.984375 6.890625 
Q 35.75 6.890625 40.890625 13.453125 
Q 46.046875 20.015625 46.78125 33.40625 
Q 43.953125 29.203125 39.59375 26.953125 
Q 35.25 24.703125 29.984375 24.703125 
Q 19.046875 24.703125 12.671875 31.3125 
Q 6.296875 37.9375 6.296875 49.421875 
Q 6.296875 60.640625 12.9375 67.421875 
Q 19.578125 74.21875 30.609375 74.21875 
Q 43.265625 74.21875 49.921875 64.515625 
Q 56.59375 54.828125 56.59375 36.375 
Q 56.59375 19.140625 48.40625 8.859375 
Q 40.234375 -1.421875 26.421875 -1.421875 
Q 22.703125 -1.421875 18.890625 -0.6875 
Q 15.09375 0.046875 10.984375 1.515625 
z
M 30.609375 32.421875 
Q 37.25 32.421875 41.125 36.953125 
Q 45.015625 41.5 45.015625 49.421875 
Q 45.015625 57.28125 41.125 61.84375 
Q 37.25 66.40625 30.609375 66.40625 
Q 23.96875 66.40625 20.09375 61.84375 
Q 16.21875 57.28125 16.21875 49.421875 
Q 16.21875 41.5 20.09375 36.953125 
Q 23.96875 32.421875 30.609375 32.421875 
z
" id="DejaVuSans-57"/>
      <path d="M 56.203125 29.59375 
L 56.203125 25.203125 
L 14.890625 25.203125 
Q 15.484375 15.921875 20.484375 11.0625 
Q 25.484375 6.203125 34.421875 6.203125 
Q 39.59375 6.203125 44.453125 7.46875 
Q 49.3125 8.734375 54.109375 11.28125 
L 54.109375 2.78125 
Q 49.265625 0.734375 44.1875 -0.34375 
Q 39.109375 -1.421875 33.890625 -1.421875 
Q 20.796875 -1.421875 13.15625 6.1875 
Q 5.515625 13.8125 5.515625 26.8125 
Q 5.515625 40.234375 12.765625 48.109375 
Q 20.015625 56 32.328125 56 
Q 43.359375 56 49.78125 48.890625 
Q 56.203125 41.796875 56.203125 29.59375 
z
M 47.21875 32.234375 
Q 47.125 39.59375 43.09375 43.984375 
Q 39.0625 48.390625 32.421875 48.390625 
Q 24.90625 48.390625 20.390625 44.140625 
Q 15.875 39.890625 15.1875 32.171875 
z
" id="DejaVuSans-101"/>
     </defs>
     <g transform="translate(331.337188 304.088562)scale(0.1 -0.1)">
      <use xlink:href="#DejaVuSans-43"/>
      <use x="83.789062" xlink:href="#DejaVuSans-49"/>
      <use x="147.412109" xlink:href="#DejaVuSans-46"/>
      <use x="179.199219" xlink:href="#DejaVuSans-53"/>
      <use x="242.822266" xlink:href="#DejaVuSans-57"/>
      <use x="306.445312" xlink:href="#DejaVuSans-54"/>
      <use x="370.068359" xlink:href="#DejaVuSans-49"/>
      <use x="433.691406" xlink:href="#DejaVuSans-54"/>
      <use x="497.314453" xlink:href="#DejaVuSans-101"/>
      <use x="558.837891" xlink:href="#DejaVuSans-57"/>
     </g>
    </g>
   </g>
   <g id="matplotlib.axis_2">
    <g id="ytick_1">
     <g id="line2d_9">
      <defs>
       <path d="M 0 0 
L -3.5 0 
" id="m1a1b1c5774" style="stroke:#000000;stroke-width:0.8;"/>
      </defs>
      <g>
       <use style="stroke:#000000;stroke-width:0.8;" x="36.465625" xlink:href="#m1a1b1c5774" y="264.716"/>
      </g>
     </g>
     <g id="text_10">
      <!-- 0.00 -->
      <g transform="translate(7.2 268.515219)scale(0.1 -0.1)">
       <use xlink:href="#DejaVuSans-48"/>
       <use x="63.623047" xlink:href="#DejaVuSans-46"/>
       <use x="95.410156" xlink:href="#DejaVuSans-48"/>
       <use x="159.033203" xlink:href="#DejaVuSans-48"/>
      </g>
     </g>
    </g>
    <g id="ytick_2">
     <g id="line2d_10">
      <g>
       <use style="stroke:#000000;stroke-width:0.8;" x="36.465625" xlink:href="#m1a1b1c5774" y="234.209297"/>
      </g>
     </g>
     <g id="text_11">
      <!-- 0.25 -->
      <g transform="translate(7.2 238.008515)scale(0.1 -0.1)">
       <use xlink:href="#DejaVuSans-48"/>
       <use x="63.623047" xlink:href="#DejaVuSans-46"/>
       <use x="95.410156" xlink:href="#DejaVuSans-50"/>
       <use x="159.033203" xlink:href="#DejaVuSans-53"/>
      </g>
     </g>
    </g>
    <g id="ytick_3">
     <g id="line2d_11">
      <g>
       <use style="stroke:#000000;stroke-width:0.8;" x="36.465625" xlink:href="#m1a1b1c5774" y="203.702593"/>
      </g>
     </g>
     <g id="text_12">
      <!-- 0.50 -->
      <g transform="translate(7.2 207.501812)scale(0.1 -0.1)">
       <use xlink:href="#DejaVuSans-48"/>
       <use x="63.623047" xlink:href="#DejaVuSans-46"/>
       <use x="95.410156" xlink:href="#DejaVuSans-53"/>
       <use x="159.033203" xlink:href="#DejaVuSans-48"/>
      </g>
     </g>
    </g>
    <g id="ytick_4">
     <g id="line2d_12">
      <g>
       <use style="stroke:#000000;stroke-width:0.8;" x="36.465625" xlink:href="#m1a1b1c5774" y="173.19589"/>
      </g>
     </g>
     <g id="text_13">
      <!-- 0.75 -->
      <defs>
       <path d="M 8.203125 72.90625 
L 55.078125 72.90625 
L 55.078125 68.703125 
L 28.609375 0 
L 18.3125 0 
L 43.21875 64.59375 
L 8.203125 64.59375 
z
" id="DejaVuSans-55"/>
      </defs>
      <g transform="translate(7.2 176.995109)scale(0.1 -0.1)">
       <use xlink:href="#DejaVuSans-48"/>
       <use x="63.623047" xlink:href="#DejaVuSans-46"/>
       <use x="95.410156" xlink:href="#DejaVuSans-55"/>
       <use x="159.033203" xlink:href="#DejaVuSans-53"/>
      </g>
     </g>
    </g>
    <g id="ytick_5">
     <g id="line2d_13">
      <g>
       <use style="stroke:#000000;stroke-width:0.8;" x="36.465625" xlink:href="#m1a1b1c5774" y="142.689186"/>
      </g>
     </g>
     <g id="text_14">
      <!-- 1.00 -->
      <g transform="translate(7.2 146.488405)scale(0.1 -0.1)">
       <use xlink:href="#DejaVuSans-49"/>
       <use x="63.623047" xlink:href="#DejaVuSans-46"/>
       <use x="95.410156" xlink:href="#DejaVuSans-48"/>
       <use x="159.033203" xlink:href="#DejaVuSans-48"/>
      </g>
     </g>
    </g>
    <g id="ytick_6">
     <g id="line2d_14">
      <g>
       <use style="stroke:#000000;stroke-width:0.8;" x="36.465625" xlink:href="#m1a1b1c5774" y="112.182483"/>
      </g>
     </g>
     <g id="text_15">
      <!-- 1.25 -->
      <g transform="translate(7.2 115.981702)scale(0.1 -0.1)">
       <use xlink:href="#DejaVuSans-49"/>
       <use x="63.623047" xlink:href="#DejaVuSans-46"/>
       <use x="95.410156" xlink:href="#DejaVuSans-50"/>
       <use x="159.033203" xlink:href="#DejaVuSans-53"/>
      </g>
     </g>
    </g>
    <g id="ytick_7">
     <g id="line2d_15">
      <g>
       <use style="stroke:#000000;stroke-width:0.8;" x="36.465625" xlink:href="#m1a1b1c5774" y="81.67578"/>
      </g>
     </g>
     <g id="text_16">
      <!-- 1.50 -->
      <g transform="translate(7.2 85.474998)scale(0.1 -0.1)">
       <use xlink:href="#DejaVuSans-49"/>
       <use x="63.623047" xlink:href="#DejaVuSans-46"/>
       <use x="95.410156" xlink:href="#DejaVuSans-53"/>
       <use x="159.033203" xlink:href="#DejaVuSans-48"/>
      </g>
     </g>
    </g>
    <g id="ytick_8">
     <g id="line2d_16">
      <g>
       <use style="stroke:#000000;stroke-width:0.8;" x="36.465625" xlink:href="#m1a1b1c5774" y="51.169076"/>
      </g>
     </g>
     <g id="text_17">
      <!-- 1.75 -->
      <g transform="translate(7.2 54.968295)scale(0.1 -0.1)">
       <use xlink:href="#DejaVuSans-49"/>
       <use x="63.623047" xlink:href="#DejaVuSans-46"/>
       <use x="95.410156" xlink:href="#DejaVuSans-55"/>
       <use x="159.033203" xlink:href="#DejaVuSans-53"/>
      </g>
     </g>
    </g>
    <g id="ytick_9">
     <g id="line2d_17">
      <g>
       <use style="stroke:#000000;stroke-width:0.8;" x="36.465625" xlink:href="#m1a1b1c5774" y="20.662373"/>
      </g>
     </g>
     <g id="text_18">
      <!-- 2.00 -->
      <g transform="translate(7.2 24.461592)scale(0.1 -0.1)">
       <use xlink:href="#DejaVuSans-50"/>
       <use x="63.623047" xlink:href="#DejaVuSans-46"/>
       <use x="95.410156" xlink:href="#DejaVuSans-48"/>
       <use x="159.033203" xlink:href="#DejaVuSans-48"/>
      </g>
     </g>
    </g>
   </g>
   <g id="line2d_18">
    <path clip-path="url(#p02619bc698)" d="M 52.698349 264.716 
L 52.914833 203.702593 
L 60.499657 203.702593 
L 60.499657 64.633937 
L 60.503059 264.716 
L 60.718414 264.716 
L 60.718414 251.727738 
L 60.719536 251.727738 
L 60.856644 251.727738 
L 60.856644 100.745967 
L 60.93602 100.745967 
L 74.710808 100.745967 
L 74.710808 264.716 
L 75.039001 264.716 
L 75.068466 30.244955 
L 75.143776 30.244955 
L 76.411156 30.244955 
L 76.411156 264.716 
L 78.697197 264.716 
L 78.808296 34.17451 
L 78.809875 34.17451 
L 78.809875 264.716 
L 82.978065 264.716 
L 82.978065 44.157524 
L 82.979767 264.716 
L 83.143219 264.716 
L 83.143219 254.660157 
L 83.196243 254.660157 
L 84.066208 254.660157 
L 84.066208 91.665576 
L 84.203873 91.665576 
L 84.203873 27.562381 
L 84.205406 264.716 
L 88.265892 264.716 
L 88.265892 43.55043 
L 88.267578 264.716 
L 88.403938 264.716 
L 88.403938 256.191104 
L 88.484062 256.191104 
L 89.569916 256.191104 
L 89.569916 96.344055 
L 95.526085 96.344055 
L 95.526085 61.576883 
L 95.52774 264.716 
L 95.934441 264.716 
L 95.934441 240.917214 
L 95.960709 240.917214 
L 97.317535 240.917214 
L 97.319199 30.751054 
L 97.319199 264.716 
L 97.644699 264.716 
L 97.644699 245.504513 
L 97.752159 245.504513 
L 99.000443 245.504513 
L 99.000443 30.13916 
L 99.002022 264.716 
L 99.32785 264.716 
L 99.32785 245.486433 
L 99.43499 245.486433 
L 99.493111 245.486433 
L 99.493111 24.178795 
L 99.626251 24.178795 
L 99.626251 264.716 
L 99.955719 264.716 
L 100.06678 24.768912 
L 100.354797 24.768912 
L 100.354797 264.716 
L 101.124702 264.716 
L 101.124702 220.396697 
L 101.220734 220.396697 
L 101.289612 220.396697 
L 101.289612 25.931722 
L 101.291153 264.716 
L 103.727707 264.716 
L 103.727707 126.233858 
L 103.839027 126.233858 
L 103.839027 35.024156 
L 103.840599 264.716 
L 107.034584 264.716 
L 107.034584 83.440547 
L 107.087852 83.440547 
L 107.172508 83.440547 
L 107.172508 39.443568 
L 107.174187 264.716 
L 109.069557 264.716 
L 109.069557 156.810215 
L 109.122543 156.810215 
L 109.234642 156.810215 
L 109.234642 32.276686 
L 109.236191 264.716 
L 112.322166 264.716 
L 112.322166 89.542755 
L 112.487411 89.542755 
L 112.487411 38.988721 
L 112.488976 264.716 
L 116.413712 264.716 
L 116.413712 42.785214 
L 116.415382 264.716 
L 116.57888 264.716 
L 116.57888 254.657824 
L 116.631866 254.657824 
L 117.257942 254.657824 
L 117.257942 105.418963 
L 117.281319 105.418963 
L 117.39592 105.418963 
L 117.39592 26.189432 
L 117.397461 264.716 
L 124.704819 264.716 
L 124.704819 61.852282 
L 124.706566 264.716 
L 124.896904 264.716 
L 124.896904 253.141458 
L 124.92305 253.141458 
L 131.448517 253.141458 
L 131.448517 58.66521 
L 131.450958 264.716 
L 131.64035 264.716 
L 131.64035 253.195114 
L 131.667442 253.195114 
L 137.298584 253.195114 
L 137.298584 53.62407 
L 137.300308 264.716 
L 137.490921 264.716 
L 137.490921 253.125711 
L 137.516792 253.125711 
L 140.1996 253.125711 
L 140.201294 37.005013 
L 140.201294 264.716 
L 140.499687 264.716 
L 140.499687 247.036334 
L 143.966347 247.036334 
L 143.966347 41.88515 
L 143.968018 264.716 
L 144.239594 264.716 
L 144.239594 248.551534 
L 144.431862 248.551534 
L 144.431862 59.504763 
L 150.859123 59.504763 
L 150.859123 264.716 
L 151.145302 264.716 
L 151.202286 57.229465 
L 157.346642 57.229465 
L 157.346642 264.716 
L 157.699486 264.716 
L 157.728813 22.816598 
L 157.730392 264.716 
L 168.420486 264.716 
L 168.420486 80.91999 
L 168.422264 264.716 
L 168.585609 264.716 
L 168.585609 254.666281 
L 168.638748 254.666281 
L 170.238731 254.666281 
L 170.238731 50.487629 
L 170.404167 50.487629 
L 170.404167 31.833912 
L 170.405731 264.716 
L 171.786652 264.716 
L 171.786652 185.875747 
L 171.95163 185.875747 
L 171.95163 29.376242 
L 171.953209 264.716 
L 174.065414 264.716 
L 174.176025 33.191908 
L 174.177574 33.191908 
L 174.177574 264.716 
L 182.459206 264.716 
L 182.459206 67.344051 
L 182.461227 264.716 
L 182.67836 264.716 
L 182.67836 251.627425 
L 189.771042 251.627425 
L 189.771042 61.866101 
L 189.772736 264.716 
L 189.908783 264.716 
L 189.908783 256.2086 
L 189.98922 256.2086 
L 192.29274 256.2086 
L 192.29274 34.867051 
L 192.294807 264.716 
L 192.512115 264.716 
L 192.512115 251.617802 
L 196.276192 251.617802 
L 196.276192 43.104515 
L 196.277802 264.716 
L 196.603546 264.716 
L 196.603546 245.491099 
L 196.71077 245.491099 
L 200.638359 245.491099 
L 200.638359 45.241808 
L 200.640045 264.716 
L 201.209015 264.716 
L 201.209015 231.749031 
L 201.28949 231.749031 
L 201.320198 231.749031 
L 201.320198 24.496251 
L 201.321754 264.716 
L 201.647575 264.716 
L 201.647575 245.486433 
L 201.754715 245.486433 
L 205.249435 245.486433 
L 205.249435 42.801826 
L 205.251122 264.716 
L 205.549477 264.716 
L 205.549477 247.038667 
L 208.556 247.038667 
L 208.556 39.291206 
L 208.557602 264.716 
L 208.883621 264.716 
L 208.883621 245.475644 
L 208.99057 245.475644 
L 210.888626 245.475644 
L 210.888626 33.801852 
L 210.890259 264.716 
L 211.216179 264.716 
L 211.216179 245.481184 
L 211.323219 245.481184 
L 215.007095 245.481184 
L 215.007095 43.868044 
L 215.00898 264.716 
L 215.226288 264.716 
L 215.226288 251.61751 
L 218.584602 251.61751 
L 218.584602 40.817303 
L 218.586235 264.716 
L 219.372154 264.716 
L 219.372154 219.492127 
L 219.452171 219.492127 
L 219.537041 219.492127 
L 219.537041 26.021854 
L 219.538635 264.716 
L 219.86425 264.716 
L 219.86425 245.498389 
L 219.971603 245.498389 
L 223.412079 245.498389 
L 223.412079 42.496083 
L 223.413734 264.716 
L 223.68541 264.716 
L 223.68541 248.545994 
L 224.878746 248.545994 
L 224.878746 28.92029 
L 224.880363 264.716 
L 225.206078 264.716 
L 225.206078 245.492849 
L 225.313332 245.492849 
L 225.668709 245.492849 
L 225.668709 25.106079 
L 225.670273 264.716 
L 225.996254 264.716 
L 226.107018 27.15242 
L 226.821709 27.15242 
L 226.821709 264.716 
L 227.13829 264.716 
L 227.13829 246.008705 
L 227.303429 246.008705 
L 227.303429 30.464864 
L 228.56102 30.464864 
L 228.56102 264.716 
L 228.848282 264.716 
L 228.848282 247.665335 
L 228.986458 247.665335 
L 228.986458 51.906184 
L 228.993988 51.906184 
L 234.104095 51.906184 
L 234.104095 264.716 
L 234.400978 264.716 
L 234.487823 22.825384 
L 234.489372 264.716 
L 251.105377 264.716 
L 251.105377 114.323005 
L 251.107239 264.716 
L 251.297379 264.716 
L 251.297379 253.152831 
L 251.323723 253.152831 
L 253.871033 253.152831 
L 253.871033 36.241222 
L 253.87265 264.716 
L 254.198135 264.716 
L 254.198135 245.505971 
L 254.305618 245.505971 
L 256.934082 245.505971 
L 256.934082 37.918955 
L 256.935738 264.716 
L 257.207504 264.716 
L 257.207504 248.540745 
L 261.756073 248.540745 
L 261.756073 47.83354 
L 261.757751 264.716 
L 261.894226 264.716 
L 261.894226 256.184397 
L 261.974236 256.184397 
L 267.335831 256.184397 
L 267.337532 52.104722 
L 267.337532 264.716 
L 268.55632 264.716 
L 268.55632 195.035765 
L 268.636436 195.035765 
L 268.721619 195.035765 
L 268.721619 28.464133 
L 268.723183 264.716 
L 269.021744 264.716 
L 269.021744 247.026711 
L 272.623543 247.026711 
L 272.625153 42.647806 
L 272.625153 264.716 
L 272.924026 264.716 
L 272.924026 247.009215 
L 275.605614 247.009215 
L 275.605614 37.462537 
L 275.607239 264.716 
L 275.906021 264.716 
L 275.906021 247.014464 
L 278.614807 247.014464 
L 278.614807 37.615365 
L 278.616432 264.716 
L 278.914856 264.716 
L 278.914856 247.034293 
L 281.298859 247.034293 
L 281.300468 35.782622 
L 281.300468 264.716 
L 281.599174 264.716 
L 281.599174 247.018838 
L 285.823494 247.018838 
L 285.823494 46.157612 
L 285.825127 264.716 
L 286.015663 264.716 
L 286.015663 253.130085 
L 286.041611 253.130085 
L 287.912529 253.130085 
L 287.912529 32.428554 
L 287.914131 264.716 
L 288.240013 264.716 
L 288.240013 245.483517 
L 288.347099 245.483517 
L 290.975616 245.483517 
L 290.975616 37.919246 
L 290.977211 264.716 
L 291.303047 264.716 
L 291.303047 245.486142 
L 291.410179 245.486142 
L 292.875481 245.486142 
L 292.875481 31.362482 
L 292.877121 264.716 
L 293.175903 264.716 
L 293.175903 247.014755 
L 294.666603 247.014755 
L 294.666603 30.749279 
L 294.672081 264.716 
L 294.99398 264.716 
L 294.99398 245.708056 
L 295.105042 245.708056 
L 299.245209 245.708056 
L 299.245209 46.440051 
L 299.246857 264.716 
L 299.410316 264.716 
L 299.410316 254.660157 
L 299.463341 254.660157 
L 303.093124 254.660157 
L 303.094803 42.342877 
L 303.094803 264.716 
L 303.231277 264.716 
L 303.231277 256.184397 
L 303.311287 256.184397 
L 308.348282 256.184397 
L 308.348282 50.275005 
L 308.349915 264.716 
L 308.757088 264.716 
L 308.757088 240.890386 
L 308.782883 240.890386 
L 312.006798 240.890386 
L 312.006798 41.27538 
L 312.008446 264.716 
L 312.821426 264.716 
L 312.821426 217.963221 
L 312.874382 217.963221 
L 313.283943 217.963221 
L 313.283943 27.852036 
L 313.285492 264.716 
L 313.476082 264.716 
L 313.476082 253.127169 
L 313.501976 253.127169 
L 318.268639 253.127169 
L 318.268639 48.751206 
L 318.270309 264.716 
L 318.460503 264.716 
L 318.460503 253.149331 
L 318.486794 253.149331 
L 322.847328 253.149331 
L 322.847328 46.461958 
L 322.848961 264.716 
L 323.012123 264.716 
L 323.012123 254.676779 
L 323.065445 254.676779 
L 324.178406 254.676779 
L 324.178406 78.119563 
L 327.157822 78.119563 
L 327.157822 44.950437 
L 327.159538 264.716 
L 327.458107 264.716 
L 327.458107 247.026128 
L 330.73497 247.026128 
L 330.73497 40.816285 
L 330.736565 264.716 
L 331.035439 264.716 
L 331.035439 247.009506 
L 334.312553 247.009506 
L 334.312553 40.819398 
L 334.314224 264.716 
L 334.640076 264.716 
L 334.640076 245.484975 
L 334.747185 245.484975 
L 338.079048 245.484975 
L 338.079048 41.883841 
L 338.080734 264.716 
L 338.406601 264.716 
L 338.406601 245.4841 
L 338.513695 245.4841 
L 341.683716 245.4841 
L 341.683716 40.971557 
L 341.685356 264.716 
L 342.010956 264.716 
L 342.010956 245.499264 
L 342.118324 245.499264 
L 342.60891 245.499264 
L 342.60891 25.86824 
L 342.610519 264.716 
L 342.882278 264.716 
L 342.882278 248.541036 
L 344.427422 248.541036 
L 344.427422 30.903853 
L 344.429016 264.716 
L 344.755096 264.716 
L 344.755096 245.472144 
L 344.861984 245.472144 
L 345.704918 245.472144 
L 345.704918 27.854363 
L 345.706482 264.716 
L 346.004936 264.716 
L 346.004936 247.033127 
L 349.417641 247.033127 
L 349.417641 41.581298 
L 349.419312 264.716 
L 349.744896 264.716 
L 349.744896 245.500139 
L 349.85228 245.500139 
L 349.882866 245.500139 
L 349.882866 25.885316 
L 350.346146 25.885316 
L 350.346146 264.716 
L 350.670387 264.716 
L 350.670387 245.575666 
L 350.779114 245.575666 
L 350.808212 245.575666 
L 350.808212 26.801844 
L 351.435562 26.801844 
L 351.435562 264.716 
L 351.758194 264.716 
L 351.758194 245.666939 
L 351.868523 245.666939 
L 351.896255 245.666939 
L 351.896255 27.885245 
L 352.71714 27.885245 
L 352.71714 264.716 
L 353.008286 264.716 
L 353.008286 247.445753 
L 353.146378 247.445753 
L 353.146378 49.270783 
L 353.150101 49.270783 
L 357.792458 49.270783 
L 357.792458 264.716 
L 358.101067 264.716 
L 358.130722 43.536176 
L 361.850632 43.536176 
L 361.850632 264.716 
L 362.165611 264.716 
L 362.165611 246.099395 
L 362.438812 246.099395 
L 362.438812 25.449836 
L 362.500084 25.449836 
L 362.700287 25.449836 
L 362.700287 264.716 
L 363.009521 264.716 
L 363.009521 246.424247 
L 363.174606 246.424247 
L 363.174606 35.463923 
L 365.326317 35.463923 
L 365.326317 264.716 
L 365.639816 264.716 
L 365.639816 246.183087 
L 365.778046 246.183087 
L 365.778046 34.081648 
L 367.707245 34.081648 
L 367.707245 264.716 
L 367.999733 264.716 
L 367.999733 247.369643 
L 368.16449 247.369643 
L 368.16449 46.849249 
L 372.35305 46.849249 
L 372.35305 264.716 
L 372.632355 264.716 
L 372.688896 61.921408 
L 377.332161 61.921408 
L 377.332161 61.921408 
" style="fill:none;stroke:#ff0000;stroke-linecap:square;stroke-width:1.5;"/>
   </g>
   <g id="line2d_19">
    <path clip-path="url(#p02619bc698)" d="M 52.698349 264.716 
L 52.914833 65.405538 
L 60.384697 65.405538 
L 60.384697 63.985764 
L 60.388138 264.716 
L 60.739143 264.716 
L 60.739143 244.063965 
L 60.821106 244.063965 
L 74.759087 244.063965 
L 74.759087 101.668136 
L 74.760918 264.716 
L 76.466492 264.716 
L 76.466492 167.532965 
L 76.492783 167.532965 
L 78.552818 167.532965 
L 78.554474 42.036436 
L 78.554474 264.716 
L 78.826164 264.716 
L 78.826164 248.545119 
L 82.861137 248.545119 
L 82.864693 44.938014 
L 82.864693 264.716 
L 83.783409 264.716 
L 83.783409 211.98903 
L 83.921547 211.98903 
L 83.921547 26.619608 
L 83.923103 264.716 
L 84.221916 264.716 
L 84.221916 247.012714 
L 88.120934 247.012714 
L 88.120934 44.324607 
L 88.122581 264.716 
L 88.313362 264.716 
L 88.313362 253.116088 
L 88.339058 253.116088 
L 89.452309 253.116088 
L 89.452309 60.899756 
L 95.261345 60.899756 
L 95.261345 264.716 
L 95.570816 264.716 
L 95.570816 246.410542 
L 95.817078 246.410542 
L 95.817078 30.713005 
L 95.910797 30.713005 
L 97.044777 30.713005 
L 97.044777 264.716 
L 97.362045 264.716 
L 97.362045 245.969921 
L 97.526978 245.969921 
L 97.526978 30.010222 
L 98.703384 30.010222 
L 98.703384 264.716 
L 99.045242 264.716 
L 99.045242 244.580988 
L 99.136353 244.580988 
L 99.210388 244.580988 
L 99.211967 23.520223 
L 99.211967 264.716 
L 99.645966 264.716 
L 99.645966 239.374894 
L 99.810966 239.374894 
L 99.810966 24.038814 
L 99.812531 264.716 
L 100.38179 264.716 
L 100.38179 231.732992 
L 100.461983 231.732992 
L 101.006821 231.732992 
L 101.006821 27.394279 
L 101.008446 264.716 
L 101.334526 264.716 
L 101.334526 245.472144 
L 101.441414 245.472144 
L 103.582977 245.472144 
L 103.582977 35.174423 
L 103.584557 264.716 
L 103.883339 264.716 
L 103.883339 247.014464 
L 106.916832 247.014464 
L 106.916832 39.445634 
L 106.918427 264.716 
L 107.244453 264.716 
L 107.244453 245.475061 
L 107.351387 245.475061 
L 108.951653 245.475061 
L 108.951653 32.123218 
L 108.953247 264.716 
L 109.279213 264.716 
L 109.279213 245.47856 
L 109.386215 245.47856 
L 112.204231 245.47856 
L 112.204231 38.987441 
L 112.205948 264.716 
L 112.504723 264.716 
L 112.504723 247.015047 
L 116.295677 247.015047 
L 116.295677 43.715245 
L 116.297928 264.716 
L 116.975235 264.716 
L 116.975235 225.628452 
L 117.140015 225.628452 
L 117.140015 25.409 
L 117.141579 264.716 
L 117.413437 264.716 
L 117.413437 248.535496 
L 124.587013 248.535496 
L 124.587013 62.63059 
L 124.589668 264.716 
L 124.724915 264.716 
L 124.724915 256.254091 
L 124.806152 256.254091 
L 131.330513 256.254091 
L 131.330513 58.658955 
L 131.332161 264.716 
L 131.468246 264.716 
L 131.468246 256.206267 
L 131.548637 256.206267 
L 137.180725 256.206267 
L 137.180725 53.629423 
L 137.182434 264.716 
L 140.078735 264.716 
L 140.078735 100.258798 
L 140.216721 100.258798 
L 140.216721 37.765981 
L 140.218285 264.716 
L 143.818604 264.716 
L 143.818604 60.482764 
L 143.898499 60.482764 
L 143.983566 60.482764 
L 143.983566 41.886401 
L 143.985138 264.716 
L 144.311172 264.716 
L 144.311172 245.474769 
L 144.418106 245.474769 
L 150.889168 245.474769 
L 150.889168 59.578803 
L 150.890831 264.716 
L 157.386299 264.716 
L 157.386299 57.275823 
L 157.388046 264.716 
L 157.767769 264.716 
L 157.767769 242.441162 
L 157.821007 242.441162 
L 168.296761 242.441162 
L 168.296761 82.152301 
L 168.298409 264.716 
L 168.515976 264.716 
L 168.515976 251.602929 
L 170.115211 251.602929 
L 170.115211 30.903271 
L 170.116844 264.716 
L 170.415489 264.716 
L 170.415489 247.022337 
L 171.663002 247.022337 
L 171.663002 29.377697 
L 171.664574 264.716 
L 171.990479 264.716 
L 171.990479 245.481768 
L 172.097542 245.481768 
L 173.914398 245.481768 
L 173.914398 33.344125 
L 173.916 264.716 
L 174.214729 264.716 
L 174.214729 247.01738 
L 182.3358 247.01738 
L 182.3358 68.122853 
L 182.337601 264.716 
L 182.50061 264.716 
L 182.50061 254.685235 
L 182.554085 254.685235 
L 189.647026 254.685235 
L 189.647026 61.863948 
L 189.648872 264.716 
L 189.866394 264.716 
L 189.866394 251.605554 
L 192.169014 251.605554 
L 192.170601 34.867807 
L 192.170601 264.716 
L 192.307381 264.716 
L 192.307381 256.167192 
L 192.387085 256.167192 
L 196.152359 256.167192 
L 196.153954 43.10661 
L 196.153954 264.716 
L 196.317451 264.716 
L 196.317451 254.657824 
L 196.370438 254.657824 
L 200.514412 254.657824 
L 200.514412 45.241255 
L 200.516022 264.716 
L 200.679642 264.716 
L 200.679642 254.650825 
L 200.732506 254.650825 
L 201.223282 254.650825 
L 201.223282 112.98576 
L 201.361359 112.98576 
L 201.361359 25.427329 
L 201.363014 264.716 
L 205.125664 264.716 
L 205.125664 51.311665 
L 205.290672 51.311665 
L 205.290672 42.80171 
L 205.292236 264.716 
L 208.432037 264.716 
L 208.432037 86.501566 
L 208.53949 86.501566 
L 208.597061 86.501566 
L 208.597061 39.290886 
L 208.598618 264.716 
L 210.791924 264.716 
L 210.791924 139.977093 
L 210.929939 139.977093 
L 210.929939 33.803481 
L 210.931503 264.716 
L 214.910439 264.716 
L 214.910439 43.090695 
L 214.912102 264.716 
L 215.048134 264.716 
L 215.048134 256.209183 
L 215.128578 256.209183 
L 218.460739 256.209183 
L 218.460739 40.665232 
L 218.462341 264.716 
L 218.625488 264.716 
L 218.625488 254.677362 
L 218.678825 254.677362 
L 219.412994 254.677362 
L 219.412994 99.527167 
L 219.578087 99.527167 
L 219.578087 26.951593 
L 219.579643 264.716 
L 223.288216 264.716 
L 223.288216 54.366851 
L 223.42585 54.366851 
L 223.42585 42.342557 
L 223.42749 264.716 
L 224.754578 264.716 
L 224.754578 188.916936 
L 224.919693 188.916936 
L 224.919693 29.073554 
L 224.921242 264.716 
L 225.544838 264.716 
L 225.544838 228.663226 
L 225.570694 228.663226 
L 225.709709 228.663226 
L 225.709709 25.106777 
L 225.711266 264.716 
L 225.983246 264.716 
L 225.983246 248.528789 
L 226.851959 248.528789 
L 226.851959 27.092202 
L 226.853561 264.716 
L 227.179428 264.716 
L 227.179428 245.4841 
L 227.28653 245.4841 
L 228.589195 245.4841 
L 228.589195 30.445747 
L 228.590775 264.716 
L 228.862328 264.716 
L 228.862328 248.552701 
L 234.141937 248.552701 
L 234.141937 51.953 
L 234.143539 264.716 
L 234.333893 264.716 
L 234.333893 253.140583 
L 234.360023 253.140583 
L 234.526039 253.140583 
L 234.526039 114.686997 
L 234.576508 114.686997 
L 250.824402 114.686997 
L 250.824402 264.716 
L 251.143623 264.716 
L 251.173309 36.325957 
L 253.603302 36.325957 
L 253.603302 264.716 
L 253.909042 264.716 
L 253.909042 246.621375 
L 254.073921 246.621375 
L 254.073921 37.845396 
L 256.652031 37.845396 
L 256.652031 264.716 
L 256.94532 264.716 
L 256.94532 247.324736 
L 257.083 247.324736 
L 257.083 47.839095 
L 257.084999 47.839095 
L 261.473488 47.839095 
L 261.473488 264.716 
L 261.767197 264.716 
L 261.824005 52.120817 
L 267.05481 52.120817 
L 267.05481 264.716 
L 267.374214 264.716 
L 267.374214 245.848903 
L 268.459129 245.848903 
L 268.459129 28.578209 
L 268.460716 264.716 
L 268.759422 264.716 
L 268.759422 247.018838 
L 268.924713 247.018838 
L 268.924713 42.601125 
L 272.353027 42.601125 
L 272.353027 264.716 
L 272.66156 264.716 
L 272.66156 246.463615 
L 272.799477 246.463615 
L 272.799477 37.472271 
L 275.335358 37.472271 
L 275.335358 264.716 
L 275.6437 264.716 
L 275.6437 246.474404 
L 275.781509 246.474404 
L 275.781509 37.607828 
L 278.341835 37.607828 
L 278.341835 264.716 
L 278.65271 264.716 
L 278.65271 246.330933 
L 278.790672 246.330933 
L 278.790672 35.874679 
L 281.04097 35.874679 
L 281.04097 264.716 
L 281.336945 264.716 
L 281.336945 247.173099 
L 281.474854 247.173099 
L 281.474854 46.002819 
L 285.53672 46.002819 
L 285.53672 264.716 
L 285.861526 264.716 
L 285.891022 32.543476 
L 285.969688 32.543476 
L 287.644753 32.543476 
L 287.644753 264.716 
L 287.950447 264.716 
L 287.950447 246.624 
L 288.115372 246.624 
L 288.115372 37.874617 
L 290.698425 37.874617 
L 290.698425 264.716 
L 291.013702 264.716 
L 291.013702 246.08219 
L 291.178772 246.08219 
L 291.178772 31.352184 
L 292.595161 31.352184 
L 292.595161 264.716 
L 292.913406 264.716 
L 292.913406 245.914515 
L 293.051071 245.914515 
L 293.051071 30.884639 
L 294.40905 30.884639 
L 294.40905 264.716 
L 294.704437 264.716 
L 294.704437 247.206342 
L 294.842407 247.206342 
L 294.842407 46.399011 
L 294.842018 46.399011 
L 298.975006 46.399011 
L 298.975006 264.716 
L 299.283249 264.716 
L 299.339752 42.264943 
L 302.807762 42.264943 
L 302.807762 264.716 
L 303.103943 264.716 
L 303.160774 50.446674 
L 308.09201 50.446674 
L 308.09201 264.716 
L 308.386192 264.716 
L 308.386192 247.274287 
L 308.632225 247.274287 
L 308.632225 41.1108 
L 308.741463 41.1108 
L 311.719818 41.1108 
L 311.719818 264.716 
L 312.694199 264.716 
L 312.694199 208.84432 
L 312.802238 208.84432 
L 313.021484 208.84432 
L 313.021484 27.99954 
L 313.023056 264.716 
L 313.321732 264.716 
L 313.378716 48.741282 
L 318.004494 48.741282 
L 318.004494 264.716 
L 318.308968 264.716 
L 318.338844 46.332287 
L 322.558548 46.332287 
L 322.558548 264.716 
L 322.887474 264.716 
L 322.94413 28.207392 
L 322.991516 28.207392 
L 323.897285 28.207392 
L 323.897285 264.716 
L 327.032967 264.716 
L 327.032967 86.73427 
L 327.198135 86.73427 
L 327.198135 39.268513 
L 327.199722 264.716 
L 330.610359 264.716 
L 330.610359 71.199682 
L 330.663452 71.199682 
L 330.775589 71.199682 
L 330.775589 40.818729 
L 330.777176 264.716 
L 334.187645 264.716 
L 334.187645 71.209305 
L 334.240906 71.209305 
L 334.352669 71.209305 
L 334.35424 40.816605 
L 334.35424 264.716 
L 337.954239 264.716 
L 337.954239 60.501135 
L 338.034462 60.501135 
L 338.119499 60.501135 
L 338.119499 41.886255 
L 338.121078 264.716 
L 341.585732 264.716 
L 341.585732 68.147995 
L 341.723869 68.147995 
L 341.723869 40.97048 
L 341.725426 264.716 
L 342.484238 264.716 
L 342.484238 221.023656 
L 342.591362 221.023656 
L 342.622353 221.023656 
L 342.622353 25.718147 
L 342.623886 264.716 
L 344.302765 264.716 
L 344.302765 169.041458 
L 344.355751 169.041458 
L 344.467613 169.041458 
L 344.467613 31.055051 
L 344.46917 264.716 
L 345.579865 264.716 
L 345.579865 201.14293 
L 345.717857 201.14293 
L 345.717857 27.700925 
L 345.719421 264.716 
L 349.292328 264.716 
L 349.292328 62.03179 
L 349.399635 62.03179 
L 349.45742 62.03179 
L 349.45742 41.732613 
L 349.459 264.716 
L 349.758125 264.716 
L 349.758125 246.994926 
L 350.383064 246.994926 
L 350.383064 25.87112 
L 350.384628 264.716 
L 350.683487 264.716 
L 350.683487 247.009798 
L 351.470917 247.009798 
L 351.470917 26.785557 
L 351.472496 264.716 
L 351.771088 264.716 
L 351.771088 247.025253 
L 352.74807 247.025253 
L 352.74807 27.852501 
L 352.749634 264.716 
L 353.021423 264.716 
L 353.021423 248.539287 
L 357.840805 248.539287 
L 357.840805 49.360161 
L 357.842407 264.716 
L 357.978905 264.716 
L 357.978905 256.183522 
L 358.058891 256.183522 
L 361.905075 256.183522 
L 361.905075 43.562708 
L 361.906738 264.716 
L 362.070328 264.716 
L 362.070328 254.652575 
L 362.123222 254.652575 
L 362.722397 254.652575 
L 362.722397 106.880969 
L 362.772675 106.880969 
L 362.914314 106.880969 
L 362.914314 26.341853 
L 362.916641 264.716 
L 365.352539 264.716 
L 365.352539 126.270601 
L 365.517838 126.270601 
L 365.517838 35.324749 
L 365.519386 264.716 
L 367.739151 264.716 
L 367.739151 138.482014 
L 367.877411 138.482014 
L 367.877411 33.95404 
L 367.878952 264.716 
L 372.372131 264.716 
L 372.372131 45.989422 
L 372.373779 264.716 
L 372.509827 264.716 
L 372.509827 256.2086 
L 372.590263 256.2086 
L 377.352898 256.2086 
L 377.352898 256.2086 
" style="fill:none;stroke:#0000ff;stroke-linecap:square;stroke-width:1.5;"/>
   </g>
   <g id="line2d_20">
    <path clip-path="url(#p02619bc698)" d="M 52.698349 264.716 
L 52.914833 61.337977 
L 59.915314 61.337977 
L 59.915314 264.716 
L 60.264236 264.716 
L 60.293831 22.796 
L 60.295586 264.716 
L 74.449081 264.716 
L 74.449081 100.442399 
L 74.451096 264.716 
L 74.641464 264.716 
L 74.641464 253.139708 
L 74.66758 253.139708 
L 76.132538 253.139708 
L 76.182961 41.289023 
L 78.110489 41.289023 
L 78.110489 264.716 
L 78.408142 264.716 
L 78.408142 247.078035 
L 78.546135 247.078035 
L 78.546135 44.855467 
L 82.402641 44.855467 
L 82.402641 264.716 
L 82.716354 264.716 
L 82.716354 246.171131 
L 83.47654 246.171131 
L 83.47654 26.715675 
L 83.478271 264.716 
L 83.776672 264.716 
L 83.776672 247.036043 
L 83.914986 247.036043 
L 83.914986 44.332223 
L 87.677505 44.332223 
L 87.677505 264.716 
L 87.976875 264.716 
L 88.006325 49.823988 
L 89.010475 49.823988 
L 89.010475 28.176021 
L 89.012283 264.716 
L 95.128448 264.716 
L 95.128448 55.137802 
L 95.13031 264.716 
L 95.266434 264.716 
L 95.266434 256.204518 
L 95.346794 256.204518 
L 96.893097 256.204518 
L 96.893097 70.476909 
L 97.057999 70.476909 
L 97.057999 31.528315 
L 97.059685 264.716 
L 98.575897 264.716 
L 98.575897 178.231512 
L 98.741089 178.231512 
L 98.741089 30.140062 
L 98.742775 264.716 
L 99.068748 264.716 
L 99.068748 245.477977 
L 99.175743 245.477977 
L 99.368881 245.477977 
L 99.368881 24.191613 
L 99.370567 264.716 
L 99.669228 264.716 
L 99.669228 247.021462 
L 100.105164 247.021462 
L 100.105164 27.341877 
L 100.555939 27.341877 
L 100.555939 264.716 
L 100.865578 264.716 
L 100.865578 246.40121 
L 101.03038 246.40121 
L 101.03038 35.202982 
L 103.135902 35.202982 
L 103.135902 264.716 
L 103.441574 264.716 
L 103.441574 246.624874 
L 103.579582 246.624874 
L 103.579582 39.406168 
L 106.461357 39.406168 
L 106.461357 264.716 
L 106.775429 264.716 
L 106.775429 246.150427 
L 106.940224 246.150427 
L 106.940224 32.18835 
L 108.506233 32.18835 
L 108.506233 264.716 
L 108.810234 264.716 
L 108.810234 246.719647 
L 108.975204 246.719647 
L 108.975204 39.022274 
L 111.763557 39.022274 
L 111.763557 264.716 
L 112.06308 264.716 
L 112.06308 246.972764 
L 112.200783 246.972764 
L 112.200783 43.605816 
L 115.83416 43.605816 
L 115.83416 264.716 
L 116.154305 264.716 
L 116.154305 245.807495 
L 116.698318 245.807495 
L 116.698318 25.533462 
L 116.700027 264.716 
L 116.971603 264.716 
L 116.971603 248.551534 
L 117.10968 248.551534 
L 117.10968 62.566365 
L 117.132988 62.566365 
L 124.134445 62.566365 
L 124.134445 264.716 
L 124.418579 264.716 
L 124.47525 58.632441 
L 130.870811 58.632441 
L 130.870811 264.716 
L 131.162285 264.716 
L 131.218956 53.650031 
L 136.723244 53.650031 
L 136.723244 264.716 
L 137.039284 264.716 
L 137.096146 36.953878 
L 139.613548 36.953878 
L 139.613548 264.716 
L 139.91333 264.716 
L 139.91333 246.9576 
L 140.078499 246.9576 
L 140.078499 41.872142 
L 143.376366 41.872142 
L 143.376366 264.716 
L 143.707115 264.716 
L 143.707115 245.20853 
L 143.809334 245.20853 
L 143.845116 245.20853 
L 143.845116 23.304583 
L 143.846817 264.716 
L 150.585793 264.716 
L 150.585793 58.648452 
L 150.587677 264.716 
L 150.777931 264.716 
L 150.777931 253.146124 
L 150.804161 253.146124 
L 157.085777 253.146124 
L 157.085777 57.290689 
L 157.087654 264.716 
L 157.331734 264.716 
L 157.331734 250.105226 
L 157.469734 250.105226 
L 157.469734 81.251053 
L 157.520622 81.251053 
L 167.836555 81.251053 
L 167.836555 264.716 
L 168.161423 264.716 
L 168.218391 30.948877 
L 168.269524 30.948877 
L 169.661613 30.948877 
L 169.661613 264.716 
L 169.979759 264.716 
L 169.979759 245.920056 
L 170.144722 245.920056 
L 170.144722 29.408935 
L 171.213463 29.408935 
L 171.213463 264.716 
L 171.52787 264.716 
L 171.52787 246.131764 
L 171.665771 246.131764 
L 171.665771 33.483244 
L 173.48838 33.483244 
L 173.48838 264.716 
L 173.751862 264.716 
L 173.751862 249.008777 
L 173.890137 249.008777 
L 173.890137 68.052793 
L 173.921349 68.052793 
L 181.895973 68.052793 
L 181.895973 264.716 
L 182.173203 264.716 
L 182.257187 61.780362 
L 189.190674 61.780362 
L 189.190674 264.716 
L 189.511909 264.716 
L 189.541573 34.956544 
L 191.726654 34.956544 
L 191.726654 264.716 
L 192.033699 264.716 
L 192.090912 43.041614 
L 195.697609 43.041614 
L 195.697609 264.716 
L 195.990112 264.716 
L 195.990112 247.369352 
L 196.18206 247.369352 
L 196.18206 45.309255 
L 200.070312 45.309255 
L 200.070312 264.716 
L 200.379135 264.716 
L 200.379135 246.446993 
L 200.761017 246.446993 
L 200.761017 24.555718 
L 200.762711 264.716 
L 201.061203 264.716 
L 201.061203 247.030794 
L 201.226089 247.030794 
L 201.226089 42.768203 
L 204.684563 42.768203 
L 204.684563 264.716 
L 204.990479 264.716 
L 204.990479 246.611169 
L 205.12825 246.611169 
L 205.12825 39.254796 
L 207.983238 39.254796 
L 207.983238 264.716 
L 208.296997 264.716 
L 208.296997 246.168215 
L 208.435211 246.168215 
L 208.435211 33.904005 
L 210.332748 33.904005 
L 210.332748 264.716 
L 210.629707 264.716 
L 210.629707 247.117402 
L 210.794716 247.117402 
L 210.794716 43.802214 
L 214.437988 43.802214 
L 214.437988 264.716 
L 214.748428 264.716 
L 214.80526 40.759417 
L 218.003418 40.759417 
L 218.003418 264.716 
L 218.29863 264.716 
L 218.29863 247.216257 
L 218.950562 247.216257 
L 218.950562 26.001197 
L 218.952271 264.716 
L 219.251137 264.716 
L 219.251137 247.009798 
L 219.415985 247.009798 
L 219.415985 42.517515 
L 222.829704 42.517515 
L 222.829704 264.716 
L 223.153023 264.716 
L 223.153023 245.628155 
L 223.262665 245.628155 
L 223.264496 245.628155 
L 223.264496 28.921307 
L 224.295296 28.921307 
L 224.295296 264.716 
L 224.619843 264.716 
L 224.619843 245.558752 
L 224.728256 245.558752 
L 224.784721 245.558752 
L 224.784721 25.069587 
L 225.077415 25.069587 
L 225.077415 264.716 
L 225.410103 264.716 
L 225.410103 245.098885 
L 225.510384 245.098885 
L 225.547989 245.098885 
L 225.547989 23.314882 
L 225.549644 264.716 
L 226.551918 264.716 
L 226.551918 207.268174 
L 226.632065 207.268174 
L 226.716896 207.268174 
L 226.716896 27.241888 
L 226.71859 264.716 
L 228.289055 264.716 
L 228.289055 175.166703 
L 228.426987 175.166703 
L 228.426987 30.292192 
L 228.428711 264.716 
L 233.842049 264.716 
L 233.842049 51.176117 
L 233.843826 264.716 
L 233.97998 264.716 
L 233.97998 256.202476 
L 234.06031 256.202476 
L 234.226044 256.202476 
L 234.226044 148.454241 
L 234.276794 148.454241 
L 250.681458 148.454241 
L 250.681458 115.572249 
L 250.683746 264.716 
L 253.471313 264.716 
L 253.471313 106.402122 
L 253.498032 106.402122 
L 253.609352 106.402122 
L 253.609352 37.15336 
L 253.611053 264.716 
L 256.507492 264.716 
L 256.507492 100.251216 
L 256.645584 100.251216 
L 256.645584 37.767349 
L 256.647293 264.716 
L 261.32959 264.716 
L 261.32959 47.055378 
L 261.331375 264.716 
L 261.521935 264.716 
L 261.521935 253.12921 
L 261.547859 253.12921 
L 266.90963 253.12921 
L 266.90963 52.105682 
L 266.911476 264.716 
L 267.074478 264.716 
L 267.074478 254.685819 
L 267.12796 254.685819 
L 268.322105 254.685819 
L 268.322105 73.632495 
L 268.426865 73.632495 
L 268.459946 73.632495 
L 268.459946 29.390731 
L 268.461655 264.716 
L 272.19722 264.716 
L 272.19722 52.841736 
L 272.36203 52.841736 
L 272.36203 42.647893 
L 272.363762 264.716 
L 275.179077 264.716 
L 275.179077 104.834433 
L 275.344292 104.834433 
L 275.344292 37.462915 
L 275.345993 264.716 
L 278.188309 264.716 
L 278.188309 103.309027 
L 278.353279 103.309027 
L 278.353279 37.613764 
L 278.354935 264.716 
L 280.899727 264.716 
L 280.899727 120.118529 
L 280.952736 120.118529 
L 281.037521 120.118529 
L 281.037521 35.783495 
L 281.039207 264.716 
L 285.397118 264.716 
L 285.398918 45.226912 
L 285.398918 264.716 
L 287.483475 264.716 
L 287.483475 146.121 
L 287.563751 146.121 
L 287.648369 146.121 
L 287.648369 33.34203 
L 287.650047 264.716 
L 290.546753 264.716 
L 290.546753 100.236052 
L 290.711777 100.236052 
L 290.711777 37.920613 
L 290.71344 264.716 
L 292.446037 264.716 
L 292.446037 166.006393 
L 292.61116 166.006393 
L 292.61116 31.359369 
L 292.612839 264.716 
L 294.26487 264.716 
L 294.26487 170.558116 
L 294.344704 170.558116 
L 294.402512 170.558116 
L 294.402512 30.750355 
L 294.407814 264.716 
L 298.816315 264.716 
L 298.816315 45.512115 
L 298.818413 264.716 
L 299.035469 264.716 
L 299.035469 251.631799 
L 302.664291 251.631799 
L 302.664291 42.340695 
L 302.666077 264.716 
L 302.8564 264.716 
L 302.8564 253.142041 
L 302.882561 253.142041 
L 307.946472 253.142041 
L 307.946472 50.426786 
L 307.948196 264.716 
L 308.084213 264.716 
L 308.084213 256.210641 
L 308.16468 256.210641 
L 311.577942 256.210641 
L 311.577942 41.122377 
L 311.580215 264.716 
L 312.716942 264.716 
L 312.716942 199.672054 
L 312.855057 199.672054 
L 312.855057 27.84837 
L 312.85675 264.716 
L 317.863838 264.716 
L 317.863838 48.8862 
L 317.865646 264.716 
L 318.001907 264.716 
L 318.001907 256.196353 
L 318.082123 256.196353 
L 322.415321 256.196353 
L 322.417068 46.307879 
L 322.417068 264.716 
L 322.63472 264.716 
L 322.63472 251.597972 
L 323.746979 251.597972 
L 323.746979 44.155091 
L 326.584877 44.155091 
L 326.584877 264.716 
L 326.888451 264.716 
L 326.888451 246.743851 
L 327.026413 246.743851 
L 327.026413 40.838975 
L 330.164543 40.838975 
L 330.164543 264.716 
L 330.465858 264.716 
L 330.465858 246.871284 
L 330.63105 246.871284 
L 330.63105 40.832888 
L 333.743317 40.832888 
L 333.743317 264.716 
L 334.043091 264.716 
L 334.043091 246.958475 
L 334.208206 246.958475 
L 334.208206 41.885284 
L 337.508736 41.885284 
L 337.508736 264.716 
L 337.809822 264.716 
L 337.809822 246.884115 
L 337.974915 246.884115 
L 337.974915 40.992404 
L 341.115517 40.992404 
L 341.115517 264.716 
L 341.441269 264.716 
L 341.441269 245.490807 
L 341.548485 245.490807 
L 341.579285 245.490807 
L 341.579285 25.770206 
L 342.021744 25.770206 
L 342.021744 264.716 
L 342.339966 264.716 
L 342.339966 245.915973 
L 342.477684 245.915973 
L 342.477684 30.899254 
L 343.838058 30.899254 
L 343.838058 264.716 
L 344.158325 264.716 
L 344.158325 245.800496 
L 344.323265 245.800496 
L 344.323265 27.972615 
L 345.135124 27.972615 
L 345.135124 264.716 
L 345.43557 264.716 
L 345.43557 246.920274 
L 345.600632 246.920274 
L 345.600632 41.428906 
L 348.819473 41.428906 
L 348.819473 264.716 
L 349.151077 264.716 
L 349.151077 245.159831 
L 349.252441 245.159831 
L 349.315773 245.159831 
L 349.315773 23.459913 
L 349.317474 264.716 
L 350.076553 264.716 
L 350.076553 221.008201 
L 350.183403 221.008201 
L 350.241478 221.008201 
L 350.241478 25.8708 
L 350.243149 264.716 
L 351.164192 264.716 
L 351.164192 211.857806 
L 351.329292 211.857806 
L 351.329292 26.784713 
L 351.330948 264.716 
L 352.441322 264.716 
L 352.441322 201.160718 
L 352.579315 201.160718 
L 352.579315 27.699121 
L 352.580971 264.716 
L 357.534348 264.716 
L 357.534348 48.583424 
L 357.536186 264.716 
L 357.726364 264.716 
L 357.726364 253.150498 
L 357.75267 253.150498 
L 361.598755 253.150498 
L 361.598755 43.562126 
L 361.600517 264.716 
L 362.034027 264.716 
L 362.034027 239.402597 
L 362.443047 239.402597 
L 362.443047 25.411502 
L 362.444733 264.716 
L 362.770477 264.716 
L 362.770477 245.491391 
L 362.877701 245.491391 
L 365.073242 245.491391 
L 365.073242 35.478683 
L 365.075005 264.716 
L 365.373619 264.716 
L 365.373619 247.023795 
L 367.432663 247.023795 
L 367.432663 33.951945 
L 367.434357 264.716 
L 367.733063 264.716 
L 367.733063 247.01913 
L 372.065666 247.01913 
L 372.065666 46.767992 
L 372.067421 264.716 
L 372.2575 264.716 
L 372.2575 253.155747 
L 372.283897 253.155747 
L 377.263016 253.155747 
L 377.263016 253.155747 
" style="fill:none;stroke:#008000;stroke-linecap:square;stroke-width:1.5;"/>
   </g>
   <g id="patch_3">
    <path d="M 36.465625 276.812 
L 36.465625 10.7 
" style="fill:none;stroke:#000000;stroke-linecap:square;stroke-linejoin:miter;stroke-width:0.8;"/>
   </g>
   <g id="patch_4">
    <path d="M 393.585625 276.812 
L 393.585625 10.7 
" style="fill:none;stroke:#000000;stroke-linecap:square;stroke-linejoin:miter;stroke-width:0.8;"/>
   </g>
   <g id="patch_5">
    <path d="M 36.465622 276.812 
L 393.585625 276.812 
" style="fill:none;stroke:#000000;stroke-linecap:square;stroke-linejoin:miter;stroke-width:0.8;"/>
   </g>
   <g id="patch_6">
    <path d="M 36.465622 10.7 
L 393.585625 10.7 
" style="fill:none;stroke:#000000;stroke-linecap:square;stroke-linejoin:miter;stroke-width:0.8;"/>
   </g>
  </g>
 </g>
 <defs>
  <clipPath id="p02619bc698">
   <rect height="266.112" width="357.12" x="36.465625" y="10.7"/>
  </clipPath>
 </defs>
</svg>
