<?xml version="1.0" encoding="utf-8" standalone="no"?>
<!DOCTYPE svg PUBLIC "-//W3C//DTD SVG 1.1//EN"
  "http://www.w3.org/Graphics/SVG/1.1/DTD/svg11.dtd">
<!-- Created with matplotlib (https://matplotlib.org/) -->
<svg height="313.36825pt" version="1.1" viewBox="0 0 404.285625 313.36825" width="404.285625pt" xmlns="http://www.w3.org/2000/svg" xmlns:xlink="http://www.w3.org/1999/xlink">
 <defs>
  <style type="text/css">
*{stroke-linecap:butt;stroke-linejoin:round;}
  </style>
 </defs>
 <g id="figure_1">
  <g id="patch_1">
   <path d="M 0 313.36825 
L 404.285625 313.36825 
L 404.285625 0 
L 0 0 
z
" style="fill:#ffffff;"/>
  </g>
  <g id="axes_1">
   <g id="patch_2">
    <path d="M 36.465625 276.812 
L 393.585625 276.812 
L 393.585625 10.7 
L 36.465625 10.7 
z
" style="fill:#ffffff;"/>
   </g>
   <g id="matplotlib.axis_1">
    <g id="xtick_1">
     <g id="line2d_1">
      <defs>
       <path d="M 0 0 
L 0 3.5 
" id="m9e6d647935" style="stroke:#000000;stroke-width:0.8;"/>
      </defs>
      <g>
       <use style="stroke:#000000;stroke-width:0.8;" x="74.342072" xlink:href="#m9e6d647935" y="276.812"/>
      </g>
     </g>
     <g id="text_1">
      <!-- 80 -->
      <defs>
       <path d="M 31.78125 34.625 
Q 24.75 34.625 20.71875 30.859375 
Q 16.703125 27.09375 16.703125 20.515625 
Q 16.703125 13.921875 20.71875 10.15625 
Q 24.75 6.390625 31.78125 6.390625 
Q 38.8125 6.390625 42.859375 10.171875 
Q 46.921875 13.96875 46.921875 20.515625 
Q 46.921875 27.09375 42.890625 30.859375 
Q 38.875 34.625 31.78125 34.625 
z
M 21.921875 38.8125 
Q 15.578125 40.375 12.03125 44.71875 
Q 8.5 49.078125 8.5 55.328125 
Q 8.5 64.0625 14.71875 69.140625 
Q 20.953125 74.21875 31.78125 74.21875 
Q 42.671875 74.21875 48.875 69.140625 
Q 55.078125 64.0625 55.078125 55.328125 
Q 55.078125 49.078125 51.53125 44.71875 
Q 48 40.375 41.703125 38.8125 
Q 48.828125 37.15625 52.796875 32.3125 
Q 56.78125 27.484375 56.78125 20.515625 
Q 56.78125 9.90625 50.3125 4.234375 
Q 43.84375 -1.421875 31.78125 -1.421875 
Q 19.734375 -1.421875 13.25 4.234375 
Q 6.78125 9.90625 6.78125 20.515625 
Q 6.78125 27.484375 10.78125 32.3125 
Q 14.796875 37.15625 21.921875 38.8125 
z
M 18.3125 54.390625 
Q 18.3125 48.734375 21.84375 45.5625 
Q 25.390625 42.390625 31.78125 42.390625 
Q 38.140625 42.390625 41.71875 45.5625 
Q 45.3125 48.734375 45.3125 54.390625 
Q 45.3125 60.0625 41.71875 63.234375 
Q 38.140625 66.40625 31.78125 66.40625 
Q 25.390625 66.40625 21.84375 63.234375 
Q 18.3125 60.0625 18.3125 54.390625 
z
" id="DejaVuSans-56"/>
       <path d="M 31.78125 66.40625 
Q 24.171875 66.40625 20.328125 58.90625 
Q 16.5 51.421875 16.5 36.375 
Q 16.5 21.390625 20.328125 13.890625 
Q 24.171875 6.390625 31.78125 6.390625 
Q 39.453125 6.390625 43.28125 13.890625 
Q 47.125 21.390625 47.125 36.375 
Q 47.125 51.421875 43.28125 58.90625 
Q 39.453125 66.40625 31.78125 66.40625 
z
M 31.78125 74.21875 
Q 44.046875 74.21875 50.515625 64.515625 
Q 56.984375 54.828125 56.984375 36.375 
Q 56.984375 17.96875 50.515625 8.265625 
Q 44.046875 -1.421875 31.78125 -1.421875 
Q 19.53125 -1.421875 13.0625 8.265625 
Q 6.59375 17.96875 6.59375 36.375 
Q 6.59375 54.828125 13.0625 64.515625 
Q 19.53125 74.21875 31.78125 74.21875 
z
" id="DejaVuSans-48"/>
      </defs>
      <g transform="translate(67.979572 291.410437)scale(0.1 -0.1)">
       <use xlink:href="#DejaVuSans-56"/>
       <use x="63.623047" xlink:href="#DejaVuSans-48"/>
      </g>
     </g>
    </g>
    <g id="xtick_2">
     <g id="line2d_2">
      <g>
       <use style="stroke:#000000;stroke-width:0.8;" x="117.629509" xlink:href="#m9e6d647935" y="276.812"/>
      </g>
     </g>
     <g id="text_2">
      <!-- 82 -->
      <defs>
       <path d="M 19.1875 8.296875 
L 53.609375 8.296875 
L 53.609375 0 
L 7.328125 0 
L 7.328125 8.296875 
Q 12.9375 14.109375 22.625 23.890625 
Q 32.328125 33.6875 34.8125 36.53125 
Q 39.546875 41.84375 41.421875 45.53125 
Q 43.3125 49.21875 43.3125 52.78125 
Q 43.3125 58.59375 39.234375 62.25 
Q 35.15625 65.921875 28.609375 65.921875 
Q 23.96875 65.921875 18.8125 64.3125 
Q 13.671875 62.703125 7.8125 59.421875 
L 7.8125 69.390625 
Q 13.765625 71.78125 18.9375 73 
Q 24.125 74.21875 28.421875 74.21875 
Q 39.75 74.21875 46.484375 68.546875 
Q 53.21875 62.890625 53.21875 53.421875 
Q 53.21875 48.921875 51.53125 44.890625 
Q 49.859375 40.875 45.40625 35.40625 
Q 44.1875 33.984375 37.640625 27.21875 
Q 31.109375 20.453125 19.1875 8.296875 
z
" id="DejaVuSans-50"/>
      </defs>
      <g transform="translate(111.267009 291.410437)scale(0.1 -0.1)">
       <use xlink:href="#DejaVuSans-56"/>
       <use x="63.623047" xlink:href="#DejaVuSans-50"/>
      </g>
     </g>
    </g>
    <g id="xtick_3">
     <g id="line2d_3">
      <g>
       <use style="stroke:#000000;stroke-width:0.8;" x="160.916946" xlink:href="#m9e6d647935" y="276.812"/>
      </g>
     </g>
     <g id="text_3">
      <!-- 84 -->
      <defs>
       <path d="M 37.796875 64.3125 
L 12.890625 25.390625 
L 37.796875 25.390625 
z
M 35.203125 72.90625 
L 47.609375 72.90625 
L 47.609375 25.390625 
L 58.015625 25.390625 
L 58.015625 17.1875 
L 47.609375 17.1875 
L 47.609375 0 
L 37.796875 0 
L 37.796875 17.1875 
L 4.890625 17.1875 
L 4.890625 26.703125 
z
" id="DejaVuSans-52"/>
      </defs>
      <g transform="translate(154.554446 291.410437)scale(0.1 -0.1)">
       <use xlink:href="#DejaVuSans-56"/>
       <use x="63.623047" xlink:href="#DejaVuSans-52"/>
      </g>
     </g>
    </g>
    <g id="xtick_4">
     <g id="line2d_4">
      <g>
       <use style="stroke:#000000;stroke-width:0.8;" x="204.204391" xlink:href="#m9e6d647935" y="276.812"/>
      </g>
     </g>
     <g id="text_4">
      <!-- 86 -->
      <defs>
       <path d="M 33.015625 40.375 
Q 26.375 40.375 22.484375 35.828125 
Q 18.609375 31.296875 18.609375 23.390625 
Q 18.609375 15.53125 22.484375 10.953125 
Q 26.375 6.390625 33.015625 6.390625 
Q 39.65625 6.390625 43.53125 10.953125 
Q 47.40625 15.53125 47.40625 23.390625 
Q 47.40625 31.296875 43.53125 35.828125 
Q 39.65625 40.375 33.015625 40.375 
z
M 52.59375 71.296875 
L 52.59375 62.3125 
Q 48.875 64.0625 45.09375 64.984375 
Q 41.3125 65.921875 37.59375 65.921875 
Q 27.828125 65.921875 22.671875 59.328125 
Q 17.53125 52.734375 16.796875 39.40625 
Q 19.671875 43.65625 24.015625 45.921875 
Q 28.375 48.1875 33.59375 48.1875 
Q 44.578125 48.1875 50.953125 41.515625 
Q 57.328125 34.859375 57.328125 23.390625 
Q 57.328125 12.15625 50.6875 5.359375 
Q 44.046875 -1.421875 33.015625 -1.421875 
Q 20.359375 -1.421875 13.671875 8.265625 
Q 6.984375 17.96875 6.984375 36.375 
Q 6.984375 53.65625 15.1875 63.9375 
Q 23.390625 74.21875 37.203125 74.21875 
Q 40.921875 74.21875 44.703125 73.484375 
Q 48.484375 72.75 52.59375 71.296875 
z
" id="DejaVuSans-54"/>
      </defs>
      <g transform="translate(197.841891 291.410437)scale(0.1 -0.1)">
       <use xlink:href="#DejaVuSans-56"/>
       <use x="63.623047" xlink:href="#DejaVuSans-54"/>
      </g>
     </g>
    </g>
    <g id="xtick_5">
     <g id="line2d_5">
      <g>
       <use style="stroke:#000000;stroke-width:0.8;" x="247.491829" xlink:href="#m9e6d647935" y="276.812"/>
      </g>
     </g>
     <g id="text_5">
      <!-- 88 -->
      <g transform="translate(241.129329 291.410437)scale(0.1 -0.1)">
       <use xlink:href="#DejaVuSans-56"/>
       <use x="63.623047" xlink:href="#DejaVuSans-56"/>
      </g>
     </g>
    </g>
    <g id="xtick_6">
     <g id="line2d_6">
      <g>
       <use style="stroke:#000000;stroke-width:0.8;" x="290.779266" xlink:href="#m9e6d647935" y="276.812"/>
      </g>
     </g>
     <g id="text_6">
      <!-- 90 -->
      <defs>
       <path d="M 10.984375 1.515625 
L 10.984375 10.5 
Q 14.703125 8.734375 18.5 7.8125 
Q 22.3125 6.890625 25.984375 6.890625 
Q 35.75 6.890625 40.890625 13.453125 
Q 46.046875 20.015625 46.78125 33.40625 
Q 43.953125 29.203125 39.59375 26.953125 
Q 35.25 24.703125 29.984375 24.703125 
Q 19.046875 24.703125 12.671875 31.3125 
Q 6.296875 37.9375 6.296875 49.421875 
Q 6.296875 60.640625 12.9375 67.421875 
Q 19.578125 74.21875 30.609375 74.21875 
Q 43.265625 74.21875 49.921875 64.515625 
Q 56.59375 54.828125 56.59375 36.375 
Q 56.59375 19.140625 48.40625 8.859375 
Q 40.234375 -1.421875 26.421875 -1.421875 
Q 22.703125 -1.421875 18.890625 -0.6875 
Q 15.09375 0.046875 10.984375 1.515625 
z
M 30.609375 32.421875 
Q 37.25 32.421875 41.125 36.953125 
Q 45.015625 41.5 45.015625 49.421875 
Q 45.015625 57.28125 41.125 61.84375 
Q 37.25 66.40625 30.609375 66.40625 
Q 23.96875 66.40625 20.09375 61.84375 
Q 16.21875 57.28125 16.21875 49.421875 
Q 16.21875 41.5 20.09375 36.953125 
Q 23.96875 32.421875 30.609375 32.421875 
z
" id="DejaVuSans-57"/>
      </defs>
      <g transform="translate(284.416766 291.410437)scale(0.1 -0.1)">
       <use xlink:href="#DejaVuSans-57"/>
       <use x="63.623047" xlink:href="#DejaVuSans-48"/>
      </g>
     </g>
    </g>
    <g id="xtick_7">
     <g id="line2d_7">
      <g>
       <use style="stroke:#000000;stroke-width:0.8;" x="334.066711" xlink:href="#m9e6d647935" y="276.812"/>
      </g>
     </g>
     <g id="text_7">
      <!-- 92 -->
      <g transform="translate(327.704211 291.410437)scale(0.1 -0.1)">
       <use xlink:href="#DejaVuSans-57"/>
       <use x="63.623047" xlink:href="#DejaVuSans-50"/>
      </g>
     </g>
    </g>
    <g id="xtick_8">
     <g id="line2d_8">
      <g>
       <use style="stroke:#000000;stroke-width:0.8;" x="377.354149" xlink:href="#m9e6d647935" y="276.812"/>
      </g>
     </g>
     <g id="text_8">
      <!-- 94 -->
      <g transform="translate(370.991649 291.410437)scale(0.1 -0.1)">
       <use xlink:href="#DejaVuSans-57"/>
       <use x="63.623047" xlink:href="#DejaVuSans-52"/>
      </g>
     </g>
    </g>
    <g id="text_9">
     <!-- +1.59616e9 -->
     <defs>
      <path d="M 46 62.703125 
L 46 35.5 
L 73.1875 35.5 
L 73.1875 27.203125 
L 46 27.203125 
L 46 0 
L 37.796875 0 
L 37.796875 27.203125 
L 10.59375 27.203125 
L 10.59375 35.5 
L 37.796875 35.5 
L 37.796875 62.703125 
z
" id="DejaVuSans-43"/>
      <path d="M 12.40625 8.296875 
L 28.515625 8.296875 
L 28.515625 63.921875 
L 10.984375 60.40625 
L 10.984375 69.390625 
L 28.421875 72.90625 
L 38.28125 72.90625 
L 38.28125 8.296875 
L 54.390625 8.296875 
L 54.390625 0 
L 12.40625 0 
z
" id="DejaVuSans-49"/>
      <path d="M 10.6875 12.40625 
L 21 12.40625 
L 21 0 
L 10.6875 0 
z
" id="DejaVuSans-46"/>
      <path d="M 10.796875 72.90625 
L 49.515625 72.90625 
L 49.515625 64.59375 
L 19.828125 64.59375 
L 19.828125 46.734375 
Q 21.96875 47.46875 24.109375 47.828125 
Q 26.265625 48.1875 28.421875 48.1875 
Q 40.625 48.1875 47.75 41.5 
Q 54.890625 34.8125 54.890625 23.390625 
Q 54.890625 11.625 47.5625 5.09375 
Q 40.234375 -1.421875 26.90625 -1.421875 
Q 22.3125 -1.421875 17.546875 -0.640625 
Q 12.796875 0.140625 7.71875 1.703125 
L 7.71875 11.625 
Q 12.109375 9.234375 16.796875 8.0625 
Q 21.484375 6.890625 26.703125 6.890625 
Q 35.15625 6.890625 40.078125 11.328125 
Q 45.015625 15.765625 45.015625 23.390625 
Q 45.015625 31 40.078125 35.4375 
Q 35.15625 39.890625 26.703125 39.890625 
Q 22.75 39.890625 18.8125 39.015625 
Q 14.890625 38.140625 10.796875 36.28125 
z
" id="DejaVuSans-53"/>
      <path d="M 56.203125 29.59375 
L 56.203125 25.203125 
L 14.890625 25.203125 
Q 15.484375 15.921875 20.484375 11.0625 
Q 25.484375 6.203125 34.421875 6.203125 
Q 39.59375 6.203125 44.453125 7.46875 
Q 49.3125 8.734375 54.109375 11.28125 
L 54.109375 2.78125 
Q 49.265625 0.734375 44.1875 -0.34375 
Q 39.109375 -1.421875 33.890625 -1.421875 
Q 20.796875 -1.421875 13.15625 6.1875 
Q 5.515625 13.8125 5.515625 26.8125 
Q 5.515625 40.234375 12.765625 48.109375 
Q 20.015625 56 32.328125 56 
Q 43.359375 56 49.78125 48.890625 
Q 56.203125 41.796875 56.203125 29.59375 
z
M 47.21875 32.234375 
Q 47.125 39.59375 43.09375 43.984375 
Q 39.0625 48.390625 32.421875 48.390625 
Q 24.90625 48.390625 20.390625 44.140625 
Q 15.875 39.890625 15.1875 32.171875 
z
" id="DejaVuSans-101"/>
     </defs>
     <g transform="translate(331.337188 304.088562)scale(0.1 -0.1)">
      <use xlink:href="#DejaVuSans-43"/>
      <use x="83.789062" xlink:href="#DejaVuSans-49"/>
      <use x="147.412109" xlink:href="#DejaVuSans-46"/>
      <use x="179.199219" xlink:href="#DejaVuSans-53"/>
      <use x="242.822266" xlink:href="#DejaVuSans-57"/>
      <use x="306.445312" xlink:href="#DejaVuSans-54"/>
      <use x="370.068359" xlink:href="#DejaVuSans-49"/>
      <use x="433.691406" xlink:href="#DejaVuSans-54"/>
      <use x="497.314453" xlink:href="#DejaVuSans-101"/>
      <use x="558.837891" xlink:href="#DejaVuSans-57"/>
     </g>
    </g>
   </g>
   <g id="matplotlib.axis_2">
    <g id="ytick_1">
     <g id="line2d_9">
      <defs>
       <path d="M 0 0 
L -3.5 0 
" id="m991772d52d" style="stroke:#000000;stroke-width:0.8;"/>
      </defs>
      <g>
       <use style="stroke:#000000;stroke-width:0.8;" x="36.465625" xlink:href="#m991772d52d" y="264.716"/>
      </g>
     </g>
     <g id="text_10">
      <!-- 0.00 -->
      <g transform="translate(7.2 268.515219)scale(0.1 -0.1)">
       <use xlink:href="#DejaVuSans-48"/>
       <use x="63.623047" xlink:href="#DejaVuSans-46"/>
       <use x="95.410156" xlink:href="#DejaVuSans-48"/>
       <use x="159.033203" xlink:href="#DejaVuSans-48"/>
      </g>
     </g>
    </g>
    <g id="ytick_2">
     <g id="line2d_10">
      <g>
       <use style="stroke:#000000;stroke-width:0.8;" x="36.465625" xlink:href="#m991772d52d" y="234.215752"/>
      </g>
     </g>
     <g id="text_11">
      <!-- 0.25 -->
      <g transform="translate(7.2 238.014971)scale(0.1 -0.1)">
       <use xlink:href="#DejaVuSans-48"/>
       <use x="63.623047" xlink:href="#DejaVuSans-46"/>
       <use x="95.410156" xlink:href="#DejaVuSans-50"/>
       <use x="159.033203" xlink:href="#DejaVuSans-53"/>
      </g>
     </g>
    </g>
    <g id="ytick_3">
     <g id="line2d_11">
      <g>
       <use style="stroke:#000000;stroke-width:0.8;" x="36.465625" xlink:href="#m991772d52d" y="203.715505"/>
      </g>
     </g>
     <g id="text_12">
      <!-- 0.50 -->
      <g transform="translate(7.2 207.514723)scale(0.1 -0.1)">
       <use xlink:href="#DejaVuSans-48"/>
       <use x="63.623047" xlink:href="#DejaVuSans-46"/>
       <use x="95.410156" xlink:href="#DejaVuSans-53"/>
       <use x="159.033203" xlink:href="#DejaVuSans-48"/>
      </g>
     </g>
    </g>
    <g id="ytick_4">
     <g id="line2d_12">
      <g>
       <use style="stroke:#000000;stroke-width:0.8;" x="36.465625" xlink:href="#m991772d52d" y="173.215257"/>
      </g>
     </g>
     <g id="text_13">
      <!-- 0.75 -->
      <defs>
       <path d="M 8.203125 72.90625 
L 55.078125 72.90625 
L 55.078125 68.703125 
L 28.609375 0 
L 18.3125 0 
L 43.21875 64.59375 
L 8.203125 64.59375 
z
" id="DejaVuSans-55"/>
      </defs>
      <g transform="translate(7.2 177.014476)scale(0.1 -0.1)">
       <use xlink:href="#DejaVuSans-48"/>
       <use x="63.623047" xlink:href="#DejaVuSans-46"/>
       <use x="95.410156" xlink:href="#DejaVuSans-55"/>
       <use x="159.033203" xlink:href="#DejaVuSans-53"/>
      </g>
     </g>
    </g>
    <g id="ytick_5">
     <g id="line2d_13">
      <g>
       <use style="stroke:#000000;stroke-width:0.8;" x="36.465625" xlink:href="#m991772d52d" y="142.715009"/>
      </g>
     </g>
     <g id="text_14">
      <!-- 1.00 -->
      <g transform="translate(7.2 146.514228)scale(0.1 -0.1)">
       <use xlink:href="#DejaVuSans-49"/>
       <use x="63.623047" xlink:href="#DejaVuSans-46"/>
       <use x="95.410156" xlink:href="#DejaVuSans-48"/>
       <use x="159.033203" xlink:href="#DejaVuSans-48"/>
      </g>
     </g>
    </g>
    <g id="ytick_6">
     <g id="line2d_14">
      <g>
       <use style="stroke:#000000;stroke-width:0.8;" x="36.465625" xlink:href="#m991772d52d" y="112.214761"/>
      </g>
     </g>
     <g id="text_15">
      <!-- 1.25 -->
      <g transform="translate(7.2 116.01398)scale(0.1 -0.1)">
       <use xlink:href="#DejaVuSans-49"/>
       <use x="63.623047" xlink:href="#DejaVuSans-46"/>
       <use x="95.410156" xlink:href="#DejaVuSans-50"/>
       <use x="159.033203" xlink:href="#DejaVuSans-53"/>
      </g>
     </g>
    </g>
    <g id="ytick_7">
     <g id="line2d_15">
      <g>
       <use style="stroke:#000000;stroke-width:0.8;" x="36.465625" xlink:href="#m991772d52d" y="81.714514"/>
      </g>
     </g>
     <g id="text_16">
      <!-- 1.50 -->
      <g transform="translate(7.2 85.513732)scale(0.1 -0.1)">
       <use xlink:href="#DejaVuSans-49"/>
       <use x="63.623047" xlink:href="#DejaVuSans-46"/>
       <use x="95.410156" xlink:href="#DejaVuSans-53"/>
       <use x="159.033203" xlink:href="#DejaVuSans-48"/>
      </g>
     </g>
    </g>
    <g id="ytick_8">
     <g id="line2d_16">
      <g>
       <use style="stroke:#000000;stroke-width:0.8;" x="36.465625" xlink:href="#m991772d52d" y="51.214266"/>
      </g>
     </g>
     <g id="text_17">
      <!-- 1.75 -->
      <g transform="translate(7.2 55.013485)scale(0.1 -0.1)">
       <use xlink:href="#DejaVuSans-49"/>
       <use x="63.623047" xlink:href="#DejaVuSans-46"/>
       <use x="95.410156" xlink:href="#DejaVuSans-55"/>
       <use x="159.033203" xlink:href="#DejaVuSans-53"/>
      </g>
     </g>
    </g>
    <g id="ytick_9">
     <g id="line2d_17">
      <g>
       <use style="stroke:#000000;stroke-width:0.8;" x="36.465625" xlink:href="#m991772d52d" y="20.714018"/>
      </g>
     </g>
     <g id="text_18">
      <!-- 2.00 -->
      <g transform="translate(7.2 24.513237)scale(0.1 -0.1)">
       <use xlink:href="#DejaVuSans-50"/>
       <use x="63.623047" xlink:href="#DejaVuSans-46"/>
       <use x="95.410156" xlink:href="#DejaVuSans-48"/>
       <use x="159.033203" xlink:href="#DejaVuSans-48"/>
      </g>
     </g>
    </g>
   </g>
   <g id="line2d_18">
    <path clip-path="url(#p3aaa360eb9)" d="M 52.698349 264.716 
L 52.914787 119.670377 
L 69.207886 119.670377 
L 69.207886 113.771863 
L 69.211662 264.716 
L 69.400055 264.716 
L 69.400055 253.251488 
L 69.428101 253.251488 
L 72.865715 253.251488 
L 72.865715 41.311145 
L 72.867332 264.716 
L 73.084656 264.716 
L 73.084656 251.616783 
L 76.252701 251.616783 
L 76.252701 39.796598 
L 76.254333 264.716 
L 76.390831 264.716 
L 76.390831 256.183578 
L 76.470772 256.183578 
L 77.178253 256.183578 
L 77.178253 117.641129 
L 77.316002 117.641129 
L 77.316002 26.698411 
L 77.317574 264.716 
L 84.298653 264.716 
L 84.298653 60.064834 
L 84.300362 264.716 
L 84.436691 264.716 
L 84.436691 256.192908 
L 84.5168 256.192908 
L 91.094772 256.192908 
L 91.094772 59.012659 
L 91.096466 264.716 
L 91.259895 264.716 
L 91.259895 254.661993 
L 91.312904 254.661993 
L 92.128479 254.661993 
L 92.128479 94.761394 
L 92.178658 94.761394 
L 92.29335 94.761394 
L 92.29335 27.460585 
L 92.294891 264.716 
L 92.999565 264.716 
L 92.999565 224.082486 
L 93.164612 224.082486 
L 93.164612 25.616421 
L 93.166168 264.716 
L 96.44072 264.716 
L 96.44072 78.888206 
L 96.578766 78.888206 
L 96.578766 39.950091 
L 96.580307 264.716 
L 101.288872 264.716 
L 101.290565 47.255193 
L 101.290565 264.716 
L 101.481125 264.716 
L 101.481125 253.129038 
L 101.507004 253.129038 
L 103.24221 253.129038 
L 103.24221 31.715011 
L 103.243797 264.716 
L 103.542496 264.716 
L 103.542496 247.019084 
L 104.492035 247.019084 
L 104.492035 27.750062 
L 104.493614 264.716 
L 104.792236 264.716 
L 104.792236 247.023458 
L 105.688103 247.023458 
L 105.689705 27.447089 
L 105.689705 264.716 
L 105.988205 264.716 
L 105.988205 247.030455 
L 108.263641 247.030455 
L 108.263641 35.222736 
L 108.266022 264.716 
L 108.61805 264.716 
L 108.61805 244.006236 
L 108.698898 244.006236 
L 108.755959 244.006236 
L 108.755959 23.475683 
L 108.757507 264.716 
L 112.81665 264.716 
L 112.81665 43.594527 
L 112.818497 264.716 
L 113.847359 264.716 
L 113.847359 205.766326 
L 113.900681 205.766326 
L 114.039368 205.766326 
L 114.039368 27.595812 
L 114.041557 264.716 
L 114.339722 264.716 
L 114.339722 247.049405 
L 114.667183 247.049405 
L 114.667183 33.806415 
L 114.690865 33.806415 
L 116.364258 33.806415 
L 116.364258 264.716 
L 116.672112 264.716 
L 116.672112 246.50188 
L 116.837082 246.50188 
L 116.837082 36.403947 
L 119.148148 36.403947 
L 119.148148 264.716 
L 119.463837 264.716 
L 119.463837 246.059311 
L 119.629173 246.059311 
L 119.629173 31.062167 
L 120.984283 31.062167 
L 120.984283 264.716 
L 121.309158 264.716 
L 121.309158 245.540066 
L 121.417152 245.540066 
L 121.47403 245.540066 
L 121.47403 24.845426 
L 121.717346 24.845426 
L 121.717346 264.716 
L 122.045113 264.716 
L 122.045113 245.377091 
L 122.150223 245.377091 
L 122.183022 245.377091 
L 122.183022 24.409285 
L 122.37294 24.409285 
L 122.37294 264.716 
L 123.998283 264.716 
L 123.998283 172.066098 
L 124.104439 172.066098 
L 124.190414 172.066098 
L 124.190414 30.958712 
L 124.191994 264.716 
L 124.490829 264.716 
L 124.490829 247.011504 
L 125.115585 247.011504 
L 125.115585 25.920093 
L 125.117142 264.716 
L 125.4161 264.716 
L 125.4161 247.004507 
L 128.367378 247.004507 
L 128.369568 39.034918 
L 128.369568 264.716 
L 128.694771 264.716 
L 128.805618 27.680012 
L 129.605476 27.680012 
L 129.605476 264.716 
L 129.890854 264.716 
L 129.890854 247.771859 
L 130.055466 247.771859 
L 130.055466 51.693251 
L 135.101776 51.693251 
L 135.101776 264.716 
L 135.415451 264.716 
L 135.472115 38.57244 
L 138.27018 38.57244 
L 138.27018 264.716 
L 138.586075 264.716 
L 138.586075 246.047941 
L 138.723854 246.047941 
L 138.723854 32.482322 
L 140.358322 32.482322 
L 140.358322 264.716 
L 140.6745 264.716 
L 140.6745 246.031614 
L 140.839729 246.031614 
L 140.839729 30.734993 
L 142.136421 30.734993 
L 142.136421 264.716 
L 142.465401 264.716 
L 142.465401 245.308577 
L 142.569298 245.308577 
L 142.630562 245.308577 
L 142.630562 23.499389 
L 142.632118 264.716 
L 146.366875 264.716 
L 146.366875 52.887155 
L 146.531914 52.887155 
L 146.531914 42.696311 
L 146.533745 264.716 
L 150.051735 264.716 
L 150.051735 65.134177 
L 150.216568 65.134177 
L 150.216568 41.473306 
L 150.218132 264.716 
L 152.924782 264.716 
L 152.924782 110.973847 
L 153.031815 110.973847 
L 153.116707 110.973847 
L 153.116707 37.052618 
L 153.118279 264.716 
L 153.579453 264.716 
L 153.579453 237.839722 
L 153.717407 237.839722 
L 153.717407 24.091141 
L 153.718941 264.716 
L 157.534645 264.716 
L 157.534645 48.313363 
L 157.614799 48.313363 
L 157.672806 48.313363 
L 157.672806 43.001146 
L 157.6744 264.716 
L 158.730682 264.716 
L 158.730682 204.217336 
L 158.756592 204.217336 
L 158.895546 204.217336 
L 158.895546 27.597354 
L 158.897125 264.716 
L 159.195984 264.716 
L 159.195984 247.010338 
L 162.823921 247.010338 
L 162.823921 42.848525 
L 162.825531 264.716 
L 163.151398 264.716 
L 163.151398 245.48438 
L 163.258408 245.48438 
L 166.941483 245.48438 
L 166.941483 43.914778 
L 166.943192 264.716 
L 167.106468 264.716 
L 167.106468 254.670448 
L 167.15963 254.670448 
L 171.979294 254.670448 
L 171.979294 49.101422 
L 171.9869 264.716 
L 172.117241 264.716 
L 172.117241 256.531394 
L 172.203339 256.531394 
L 178.315132 256.531394 
L 178.315132 56.384912 
L 178.316933 264.716 
L 178.453018 264.716 
L 178.453018 256.206902 
L 178.533371 256.206902 
L 185.733719 256.206902 
L 185.733719 62.52082 
L 185.735489 264.716 
L 185.952591 264.716 
L 185.952591 251.62932 
L 189.959351 251.62932 
L 189.959351 44.522994 
L 189.961006 264.716 
L 190.124641 264.716 
L 190.124641 254.65004 
L 190.177444 254.65004 
L 193.211502 254.65004 
L 193.211502 39.036372 
L 193.213165 264.716 
L 193.430481 264.716 
L 193.430481 251.617075 
L 198.465286 251.617075 
L 198.465286 50.319104 
L 198.466919 264.716 
L 199.09024 264.716 
L 199.09024 228.678727 
L 199.116234 228.678727 
L 199.228378 228.678727 
L 199.228378 25.00617 
L 199.229927 264.716 
L 199.555405 264.716 
L 199.555405 245.506246 
L 199.662796 245.506246 
L 203.129364 245.506246 
L 203.129364 42.694333 
L 203.131035 264.716 
L 203.429619 264.716 
L 203.429619 247.02579 
L 205.136826 247.02579 
L 205.136826 32.020253 
L 205.138397 264.716 
L 205.464279 264.716 
L 205.464279 245.483505 
L 205.571274 245.483505 
L 205.656143 245.483505 
L 205.656143 23.632464 
L 205.657722 264.716 
L 205.956779 264.716 
L 205.956779 246.999259 
L 206.554329 246.999259 
L 206.554329 25.767966 
L 206.556511 264.716 
L 206.854935 264.716 
L 206.854935 247.034536 
L 210.618042 247.034536 
L 210.618042 43.607994 
L 210.619705 264.716 
L 210.91819 264.716 
L 210.91819 247.031329 
L 212.030205 247.031329 
L 212.030205 28.664712 
L 212.031845 264.716 
L 212.330315 264.716 
L 212.330315 247.032204 
L 214.145958 247.032204 
L 214.145958 32.630795 
L 214.147545 264.716 
L 214.446411 264.716 
L 214.446411 247.009755 
L 217.316948 247.009755 
L 217.316948 38.579265 
L 217.318565 264.716 
L 217.643898 264.716 
L 217.643898 245.514118 
L 217.751434 245.514118 
L 221.596863 245.514118 
L 221.596863 44.829894 
L 221.598511 264.716 
L 221.734871 264.716 
L 221.734871 256.191158 
L 221.814949 256.191158 
L 221.953865 256.191158 
L 221.953865 149.847354 
L 222.031387 149.847354 
L 235.673019 149.847354 
L 235.673019 100.048968 
L 235.674797 264.716 
L 235.91935 264.716 
L 235.91935 250.07858 
L 240.413155 250.07858 
L 240.413155 47.423143 
L 240.414803 264.716 
L 240.551071 264.716 
L 240.551071 256.196115 
L 240.631233 256.196115 
L 245.423271 256.196115 
L 245.424965 48.945718 
L 245.424965 264.716 
L 245.61541 264.716 
L 245.61541 253.135744 
L 245.641403 253.135744 
L 253.220566 253.135744 
L 253.220566 64.656148 
L 253.222305 264.716 
L 253.412735 264.716 
L 253.412735 253.136327 
L 253.438744 253.136327 
L 260.152016 253.136327 
L 260.152016 59.775299 
L 260.153748 264.716 
L 260.289825 264.716 
L 260.289825 256.207193 
L 260.370186 256.207193 
L 266.298683 256.207193 
L 266.298683 55.351702 
L 266.300346 264.716 
L 266.869415 264.716 
L 266.869415 231.743762 
L 266.949661 231.743762 
L 267.034286 231.743762 
L 267.034286 24.851076 
L 267.035835 264.716 
L 267.361687 264.716 
L 267.361687 245.485255 
L 267.468712 245.485255 
L 270.9086 245.485255 
L 270.9086 42.543952 
L 270.910263 264.716 
L 271.236038 264.716 
L 271.236038 245.489628 
L 271.34314 245.489628 
L 276.081406 245.489628 
L 276.081406 49.862608 
L 276.083023 264.716 
L 276.246574 264.716 
L 276.246574 254.654996 
L 276.299461 254.654996 
L 278.007889 254.654996 
L 278.007889 44.239315 
L 278.03096 44.239315 
L 278.1726 44.239315 
L 278.1726 32.492485 
L 278.174141 264.716 
L 282.720398 264.716 
L 282.720398 46.340281 
L 282.722115 264.716 
L 282.912605 264.716 
L 282.912605 253.132828 
L 282.938553 253.132828 
L 283.510536 253.132828 
L 283.510536 91.667332 
L 283.58786 91.667332 
L 295.309837 91.667332 
L 295.309837 264.716 
L 295.606392 264.716 
L 295.663322 50.184436 
L 300.538437 50.184436 
L 300.538437 264.716 
L 300.833534 264.716 
L 300.890266 51.184308 
L 305.944344 51.184308 
L 305.944344 264.716 
L 306.249641 264.716 
L 306.279617 45.76917 
L 310.389404 45.76917 
L 310.389404 264.716 
L 310.664925 264.716 
L 310.721733 64.47913 
L 318.153969 64.47913 
L 318.153969 264.716 
L 318.461929 264.716 
L 318.518829 42.436208 
L 322.00798 42.436208 
L 322.00798 264.716 
L 322.309105 264.716 
L 322.36599 47.081636 
L 326.685921 47.081636 
L 326.685921 264.716 
L 326.995041 264.716 
L 327.024849 43.184852 
L 330.672554 43.184852 
L 330.672554 264.716 
L 330.977272 264.716 
L 330.977272 246.67914 
L 331.737671 246.67914 
L 331.737671 26.717841 
L 331.739319 264.716 
L 332.037766 264.716 
L 332.037766 247.03337 
L 332.175835 247.03337 
L 332.175835 44.313695 
L 335.926224 44.313695 
L 335.926224 264.716 
L 336.236847 264.716 
L 336.266632 42.162755 
L 339.731415 42.162755 
L 339.731415 264.716 
L 340.029526 264.716 
L 340.029526 247.052321 
L 340.194778 247.052321 
L 340.194778 43.006254 
L 343.686539 43.006254 
L 343.686539 264.716 
L 343.985214 264.716 
L 343.985214 247.020251 
L 344.123016 247.020251 
L 344.123016 44.171408 
L 347.848145 44.171408 
L 347.848145 264.716 
L 348.156746 264.716 
L 348.186516 43.534211 
L 351.89698 43.534211 
L 351.89698 264.716 
L 352.193413 264.716 
L 352.222977 51.81493 
L 352.766724 51.81493 
L 352.766724 25.616567 
L 352.768295 264.716 
L 363.9701 264.716 
L 363.9701 83.856212 
L 363.971886 264.716 
L 364.162148 264.716 
L 364.162148 253.145948 
L 364.188324 253.145948 
L 367.736221 253.145948 
L 367.736221 41.932769 
L 367.737846 264.716 
L 367.874054 264.716 
L 367.874054 256.199613 
L 367.954285 256.199613 
L 372.259987 256.199613 
L 372.259987 46.204356 
L 372.262779 264.716 
L 372.478813 264.716 
L 372.479218 251.689962 
L 376.269058 251.689962 
L 376.269058 43.296527 
L 376.270706 264.716 
L 376.461182 264.716 
L 376.461182 253.133703 
L 376.487144 253.133703 
L 377.352898 253.133703 
L 377.352898 253.133703 
" style="fill:none;stroke:#ff0000;stroke-linecap:square;stroke-width:1.5;"/>
   </g>
   <g id="line2d_19">
    <path clip-path="url(#p3aaa360eb9)" d="M 52.698349 264.716 
L 52.914787 112.214761 
L 68.931885 112.214761 
L 68.931885 264.716 
L 69.243767 264.716 
L 69.273155 41.329614 
L 72.589355 41.329614 
L 72.589355 264.716 
L 72.901291 264.716 
L 72.95813 39.740608 
L 75.965134 39.740608 
L 75.965134 264.716 
L 76.2883 264.716 
L 76.2883 245.636859 
L 76.39801 245.636859 
L 76.913185 245.636859 
L 76.913185 26.057966 
L 76.91481 264.716 
L 77.186775 264.716 
L 77.186775 248.52959 
L 77.351761 248.52959 
L 77.351761 60.782303 
L 84.023544 60.782303 
L 84.023544 264.716 
L 84.30703 264.716 
L 84.364006 59.057582 
L 90.826286 59.057582 
L 90.826286 264.716 
L 91.130325 264.716 
L 91.130325 246.717625 
L 91.836258 246.717625 
L 91.836258 26.406985 
L 91.837868 264.716 
L 92.163635 264.716 
L 92.163635 245.489919 
L 92.270737 245.489919 
L 92.30175 245.489919 
L 92.30175 25.753891 
L 92.732361 25.753891 
L 92.732361 264.716 
L 93.034874 264.716 
L 93.034874 246.803631 
L 93.199982 246.803631 
L 93.199982 40.024377 
L 96.158394 40.024377 
L 96.158394 264.716 
L 96.449181 264.716 
L 96.449181 247.466318 
L 96.614212 247.466318 
L 96.614212 47.996057 
L 100.998505 47.996057 
L 100.998505 264.716 
L 101.324486 264.716 
L 101.354034 31.74082 
L 101.431374 31.74082 
L 102.954742 31.74082 
L 102.954742 264.716 
L 103.277588 264.716 
L 103.277588 245.655227 
L 103.387619 245.655227 
L 103.415413 245.655227 
L 103.415413 27.758028 
L 104.204445 27.758028 
L 104.204445 264.716 
L 104.527626 264.716 
L 104.527626 245.635985 
L 104.637321 245.635985 
L 104.665421 245.635985 
L 104.665421 27.528425 
L 105.413597 27.528425 
L 105.413597 264.716 
L 105.72316 264.716 
L 105.72316 246.405669 
L 105.888458 246.405669 
L 105.888458 35.228532 
L 107.988831 35.228532 
L 107.988831 264.716 
L 108.325874 264.716 
L 108.325874 244.852889 
L 108.4217 244.852889 
L 108.490768 244.852889 
L 108.490768 23.54334 
L 108.492325 264.716 
L 108.791359 264.716 
L 108.791359 247.000425 
L 112.68956 247.000425 
L 112.68956 44.372903 
L 112.691277 264.716 
L 112.854713 264.716 
L 112.854713 254.661119 
L 112.907715 254.661119 
L 113.912453 254.661119 
L 113.989899 84.063925 
L 114.07753 84.063925 
L 114.079102 28.528031 
L 114.079102 264.716 
L 114.540436 264.716 
L 114.540436 237.830684 
L 116.409843 237.830684 
L 116.409843 33.851909 
L 116.411484 264.716 
L 116.709915 264.716 
L 116.709915 247.034536 
L 119.174873 247.034536 
L 119.174873 36.290647 
L 119.177185 264.716 
L 119.5019 264.716 
L 119.5019 245.549395 
L 119.610054 245.549395 
L 121.019821 245.549395 
L 121.019821 31.10057 
L 121.021439 264.716 
L 121.346931 264.716 
L 121.346931 245.505371 
L 121.454315 245.505371 
L 121.755424 245.505371 
L 121.755424 24.851338 
L 121.757004 264.716 
L 122.055832 264.716 
L 122.055832 247.012087 
L 122.410385 247.012087 
L 122.410385 31.827111 
L 123.728889 31.827111 
L 123.728889 264.716 
L 124.090302 264.716 
L 124.201157 23.376117 
L 124.202705 23.376117 
L 124.202705 264.716 
L 125.015503 264.716 
L 125.126495 25.921227 
L 125.128136 25.921227 
L 125.128136 264.716 
L 128.240662 264.716 
L 128.240662 88.042496 
L 128.405487 88.042496 
L 128.405487 39.187713 
L 128.407028 264.716 
L 128.705841 264.716 
L 128.705841 247.012962 
L 129.628204 247.012962 
L 129.628204 27.597528 
L 129.629776 264.716 
L 129.928474 264.716 
L 129.928474 247.019084 
L 135.152725 247.019084 
L 135.152725 51.845693 
L 135.15451 264.716 
L 138.293854 264.716 
L 138.293854 86.527325 
L 138.40107 86.527325 
L 138.458595 86.527325 
L 138.458595 39.338444 
L 138.460159 264.716 
L 140.382294 264.716 
L 140.382294 155.297471 
L 140.408089 155.297471 
L 140.574455 155.297471 
L 140.574455 32.631842 
L 140.576012 264.716 
L 142.173241 264.716 
L 142.173241 173.654155 
L 142.338417 173.654155 
L 142.338417 30.648321 
L 142.339973 264.716 
L 142.665573 264.716 
L 142.665573 245.499541 
L 142.77285 245.499541 
L 146.239441 245.499541 
L 146.239441 42.694478 
L 146.241074 264.716 
L 146.539886 264.716 
L 146.539886 247.012962 
L 149.924255 247.012962 
L 149.924255 41.475342 
L 149.92585 264.716 
L 150.251816 264.716 
L 150.251816 245.478549 
L 150.358719 245.478549 
L 152.824623 245.478549 
L 152.824623 37.053781 
L 152.826202 264.716 
L 153.151886 264.716 
L 153.151886 245.494584 
L 153.259071 245.494584 
L 153.452316 245.494584 
L 153.452316 24.243297 
L 153.453873 264.716 
L 153.779617 264.716 
L 153.779617 245.491377 
L 153.886749 245.491377 
L 157.407661 245.491377 
L 157.407661 43.000651 
L 157.40934 264.716 
L 157.707947 264.716 
L 157.707947 247.024624 
L 158.630531 247.024624 
L 158.630531 27.597587 
L 158.632118 264.716 
L 158.930664 264.716 
L 158.930664 247.027831 
L 159.095589 247.027831 
L 159.095589 42.729883 
L 162.53788 42.729883 
L 162.53788 264.716 
L 162.832268 264.716 
L 162.832268 247.262818 
L 163.02404 247.262818 
L 163.02404 44.038253 
L 166.675941 44.038253 
L 166.675941 264.716 
L 166.976448 264.716 
L 167.006287 49.029982 
L 171.699707 49.029982 
L 171.699707 264.716 
L 171.987 264.716 
L 172.043732 56.491367 
L 178.046852 56.491367 
L 178.046852 264.716 
L 178.323021 264.716 
L 178.406769 62.518797 
L 185.463341 62.518797 
L 185.463341 264.716 
L 185.768539 264.716 
L 185.825096 44.337809 
L 189.654472 44.337809 
L 189.654472 264.716 
L 189.967072 264.716 
L 190.023918 39.287838 
L 192.94973 39.287838 
L 192.94973 264.716 
L 193.246132 264.716 
L 193.302849 50.298336 
L 198.198402 50.298336 
L 198.198402 264.716 
L 198.502922 264.716 
L 198.502922 246.690511 
L 198.965195 246.690511 
L 198.965195 25.036246 
L 198.966759 264.716 
L 199.265686 264.716 
L 199.265686 247.006548 
L 199.430542 247.006548 
L 199.430542 42.477784 
L 202.828003 42.477784 
L 202.828003 264.716 
L 203.139732 264.716 
L 203.139732 246.282928 
L 203.331795 246.282928 
L 203.331795 32.240827 
L 204.873055 32.240827 
L 204.873055 264.716 
L 205.201424 264.716 
L 205.201424 245.342688 
L 205.305923 245.342688 
L 205.366562 245.342688 
L 205.366562 23.495841 
L 205.368111 264.716 
L 205.693649 264.716 
L 205.693649 245.503039 
L 205.800987 245.503039 
L 205.831558 245.503039 
L 205.831558 25.923584 
L 206.292419 25.923584 
L 206.292419 264.716 
L 206.592087 264.716 
L 206.592087 246.964565 
L 206.730019 246.964565 
L 206.730019 43.494602 
L 210.334198 43.494602 
L 210.334198 264.716 
L 210.65564 264.716 
L 210.65564 245.734236 
L 210.793503 245.734236 
L 210.793503 28.705638 
L 211.752167 28.705638 
L 211.752167 264.716 
L 212.067726 264.716 
L 212.067726 246.066308 
L 212.205765 246.066308 
L 212.205765 32.688871 
L 213.876625 32.688871 
L 213.876625 264.716 
L 214.183456 264.716 
L 214.183456 246.559606 
L 214.321251 246.559606 
L 214.321251 38.633289 
L 217.055855 38.633289 
L 217.055855 264.716 
L 217.353874 264.716 
L 217.353874 247.057569 
L 217.491943 247.057569 
L 217.491943 44.604929 
L 221.294556 44.604929 
L 221.294556 264.716 
L 221.633858 264.716 
L 221.66391 22.796 
L 221.665474 264.716 
L 235.572189 264.716 
L 235.572189 99.103194 
L 235.574142 264.716 
L 235.710373 264.716 
L 235.710373 256.198447 
L 235.790581 256.198447 
L 240.285316 256.198447 
L 240.285316 47.269911 
L 240.286934 264.716 
L 240.477303 264.716 
L 240.477303 253.139534 
L 240.503372 253.139534 
L 245.322426 253.139534 
L 245.322426 49.09799 
L 245.324089 264.716 
L 245.460762 264.716 
L 245.460762 256.173665 
L 245.540527 256.173665 
L 253.119644 256.173665 
L 253.119644 64.655887 
L 253.121284 264.716 
L 253.257507 264.716 
L 253.257507 256.19903 
L 253.337723 256.19903 
L 260.023773 256.19903 
L 260.023773 59.621834 
L 260.025558 264.716 
L 260.242821 264.716 
L 260.242821 251.61999 
L 266.197792 251.61999 
L 266.197792 55.505603 
L 266.199425 264.716 
L 266.335411 264.716 
L 266.335411 256.212441 
L 266.415863 256.212441 
L 266.906326 256.212441 
L 266.906326 130.220017 
L 267.071594 130.220017 
L 267.071594 25.630267 
L 267.073151 264.716 
L 270.807533 264.716 
L 270.807533 52.908146 
L 270.945412 52.908146 
L 270.945412 42.54113 
L 270.946999 264.716 
L 275.953285 264.716 
L 275.953285 48.933385 
L 275.95491 264.716 
L 276.57814 264.716 
L 276.57814 228.683683 
L 276.604225 228.683683 
L 277.879723 228.683683 
L 277.879723 31.563786 
L 277.881302 264.716 
L 278.179749 264.716 
L 278.179749 247.03337 
L 282.59243 247.03337 
L 282.59243 47.269649 
L 282.594063 264.716 
L 283.379486 264.716 
L 283.379486 219.520064 
L 283.459816 219.520064 
L 295.340523 219.520064 
L 295.342575 92.56303 
L 295.342575 264.716 
L 295.505287 264.716 
L 295.505287 254.702227 
L 295.559013 254.702227 
L 300.567055 254.702227 
L 300.567055 50.163283 
L 300.568665 264.716 
L 300.705254 264.716 
L 300.705254 256.178039 
L 300.785103 256.178039 
L 305.956512 256.178039 
L 305.958206 51.084187 
L 305.958206 264.716 
L 306.148331 264.716 
L 306.148331 253.153528 
L 306.174637 253.153528 
L 310.425758 253.153528 
L 310.425758 45.896671 
L 310.427376 264.716 
L 310.563713 264.716 
L 310.563713 256.192324 
L 310.643814 256.192324 
L 318.195732 256.192324 
L 318.195732 64.502567 
L 318.198097 264.716 
L 318.333748 264.716 
L 318.333748 256.2311 
L 318.414528 256.2311 
L 322.042793 256.2311 
L 322.042793 42.385775 
L 322.044395 264.716 
L 322.207932 264.716 
L 322.207932 254.655579 
L 322.260834 254.655579 
L 326.728386 254.655579 
L 326.728386 47.116679 
L 326.730034 264.716 
L 326.893654 264.716 
L 326.893654 254.650915 
L 326.946472 254.650915 
L 330.710915 254.650915 
L 330.710915 43.153389 
L 330.712532 264.716 
L 330.875717 264.716 
L 330.875717 254.675696 
L 330.92897 254.675696 
L 331.771355 254.675696 
L 331.771355 93.397271 
L 331.794716 93.397271 
L 331.909523 93.397271 
L 331.909523 27.461196 
L 331.911079 264.716 
L 335.943298 264.716 
L 335.943298 43.442749 
L 335.944939 264.716 
L 339.733513 264.716 
L 339.733513 49.846901 
L 339.840805 49.846901 
L 339.898361 49.846901 
L 339.898361 42.998615 
L 339.899918 264.716 
L 343.715988 264.716 
L 343.795784 48.292955 
L 343.853859 48.292955 
L 343.853859 43.001524 
L 343.855415 264.716 
L 347.88755 264.716 
L 347.88755 43.442313 
L 347.889259 264.716 
L 348.025604 264.716 
L 348.025604 256.192033 
L 348.105698 256.192033 
L 351.923813 256.192033 
L 351.923813 43.455926 
L 351.925453 264.716 
L 352.116035 264.716 
L 352.116035 253.127872 
L 352.141891 253.127872 
L 352.795296 253.127872 
L 352.795296 87.012667 
L 363.687286 87.012667 
L 363.687286 264.716 
L 363.998405 264.716 
L 364.027946 41.840239 
L 367.435593 41.840239 
L 367.435593 264.716 
L 367.740067 264.716 
L 367.769699 46.349555 
L 371.983543 46.349555 
L 371.983543 264.716 
L 372.290367 264.716 
L 372.346962 43.227794 
L 375.977745 43.227794 
L 375.977745 264.716 
L 376.29969 264.716 
L 376.356491 32.945536 
L 376.410622 32.945536 
L 377.276367 32.945536 
L 377.276367 32.945536 
" style="fill:none;stroke:#0000ff;stroke-linecap:square;stroke-width:1.5;"/>
   </g>
   <g id="line2d_20">
    <path clip-path="url(#p3aaa360eb9)" d="M 52.698349 264.716 
L 52.914787 224.726786 
L 68.804512 224.726786 
L 68.804512 111.498574 
L 68.807724 264.716 
L 68.942535 264.716 
L 68.942535 256.278622 
L 69.024162 256.278622 
L 72.434921 256.278622 
L 72.434921 41.159745 
L 72.436714 264.716 
L 72.599976 264.716 
L 72.599976 254.671323 
L 72.653152 254.671323 
L 75.822334 254.671323 
L 75.824059 39.798023 
L 75.824059 264.716 
L 76.609657 264.716 
L 76.609657 219.510443 
L 76.689812 219.510443 
L 76.747513 219.510443 
L 76.747513 25.919307 
L 76.749207 264.716 
L 77.047913 264.716 
L 77.047913 247.019084 
L 83.868362 247.019084 
L 83.868362 60.843152 
L 83.870193 264.716 
L 84.060539 264.716 
L 84.060539 253.140992 
L 84.086632 253.140992 
L 90.664314 253.140992 
L 90.664314 59.011001 
L 90.66613 264.716 
L 91.532707 264.716 
L 91.532707 214.934902 
L 91.697998 214.934902 
L 91.697998 26.530461 
L 91.699699 264.716 
L 91.997971 264.716 
L 91.997971 247.043283 
L 92.569176 247.043283 
L 92.570885 25.615054 
L 92.570885 264.716 
L 92.896484 264.716 
L 92.896484 245.499249 
L 93.003754 245.499249 
L 96.010422 245.499249 
L 96.010422 40.101985 
L 96.012169 264.716 
L 96.310608 264.716 
L 96.310608 247.033953 
L 100.858665 247.033953 
L 100.858665 48.032668 
L 100.860481 264.716 
L 102.809143 264.716 
L 102.809143 153.798627 
L 102.974091 153.798627 
L 102.974091 32.628003 
L 102.975769 264.716 
L 104.0588 264.716 
L 104.0588 202.705664 
L 104.224037 202.705664 
L 104.224037 27.750237 
L 104.225723 264.716 
L 105.281693 264.716 
L 105.281693 204.234538 
L 105.307907 204.234538 
L 105.41993 204.234538 
L 105.41993 27.445518 
L 105.421684 264.716 
L 107.857452 264.716 
L 107.857452 126.278324 
L 108.049698 126.278324 
L 108.049698 35.527542 
L 108.051399 264.716 
L 108.349747 264.716 
L 108.349747 247.039493 
L 108.487968 247.039493 
L 108.487968 44.378852 
L 112.249878 44.378852 
L 112.249878 264.716 
L 112.548645 264.716 
L 112.548645 247.015294 
L 113.444229 247.015294 
L 113.444229 27.446333 
L 113.445969 264.716 
L 113.771492 264.716 
L 113.771492 245.503914 
L 113.878845 245.503914 
L 113.936554 245.503914 
L 113.936554 24.399687 
L 114.100166 24.399687 
L 114.100166 264.716 
L 116.103714 264.716 
L 116.103714 150.697731 
L 116.241631 150.697731 
L 116.241631 32.784987 
L 116.243309 264.716 
L 118.868782 264.716 
L 118.868782 115.560175 
L 119.033401 115.560175 
L 119.033401 36.441145 
L 119.035194 264.716 
L 120.713776 264.716 
L 120.713776 169.058206 
L 120.766693 169.058206 
L 120.878563 169.058206 
L 120.878563 31.104672 
L 120.880272 264.716 
L 121.476532 264.716 
L 121.476532 230.2076 
L 121.529579 230.2076 
L 121.614624 230.2076 
L 121.614624 24.853403 
L 121.616287 264.716 
L 122.131233 264.716 
L 122.131233 234.801509 
L 123.595154 234.801509 
L 123.595154 31.868475 
L 123.596878 264.716 
L 123.922249 264.716 
L 123.922249 245.51266 
L 124.029755 245.51266 
L 124.060219 245.51266 
L 124.060219 26.03547 
L 124.54129 26.03547 
L 124.54129 264.716 
L 124.84758 264.716 
L 124.84758 246.590218 
L 124.985504 246.590218 
L 124.985504 38.994059 
L 127.784409 38.994059 
L 127.784409 264.716 
L 128.126518 264.716 
L 128.126518 244.566298 
L 128.217278 244.566298 
L 128.264748 244.566298 
L 128.264748 23.42161 
L 128.266441 264.716 
L 129.349495 264.716 
L 129.349495 202.704206 
L 129.487305 202.704206 
L 129.487305 27.595754 
L 129.489014 264.716 
L 134.846916 264.716 
L 134.846916 50.915336 
L 134.849136 264.716 
L 135.038979 264.716 
L 135.038979 253.169272 
L 135.065567 253.169272 
L 138.017738 253.169272 
L 138.019463 38.574757 
L 138.019463 264.716 
L 138.317787 264.716 
L 138.317787 247.040367 
L 140.10627 247.040367 
L 140.10627 32.476865 
L 140.107971 264.716 
L 140.433525 264.716 
L 140.433525 245.502164 
L 140.540848 245.502164 
L 141.897118 245.502164 
L 141.897118 30.799022 
L 141.898842 264.716 
L 142.197411 264.716 
L 142.197411 247.026373 
L 142.362656 247.026373 
L 142.362656 42.694572 
L 145.798492 42.694572 
L 145.798492 264.716 
L 146.098915 264.716 
L 146.098915 246.921708 
L 146.264 246.921708 
L 146.264 41.445199 
L 149.476631 41.445199 
L 149.476631 264.716 
L 149.783691 264.716 
L 149.783691 246.547069 
L 149.948509 246.547069 
L 149.948509 36.955727 
L 152.35833 36.955727 
L 152.35833 264.716 
L 152.683823 264.716 
L 152.683823 245.505371 
L 152.791206 245.505371 
L 152.849121 245.505371 
L 152.849121 24.404386 
L 153.013123 24.404386 
L 153.013123 264.716 
L 153.311455 264.716 
L 153.311455 247.040367 
L 153.476578 247.040367 
L 153.476578 42.869241 
L 156.943825 42.869241 
L 156.943825 264.716 
L 157.267006 264.716 
L 157.267006 245.635985 
L 157.376701 245.635985 
L 157.404823 245.635985 
L 157.404823 27.527259 
L 158.152832 27.527259 
L 158.152832 264.716 
L 158.489708 264.716 
L 158.489708 244.862218 
L 158.585709 244.862218 
L 158.627945 244.862218 
L 158.627945 23.392144 
L 158.629616 264.716 
L 162.390984 264.716 
L 162.390984 51.383646 
L 162.555908 51.383646 
L 162.555908 42.845703 
L 162.557587 264.716 
L 166.535599 264.716 
L 166.537468 43.137216 
L 166.537468 264.716 
L 166.700615 264.716 
L 166.700615 254.677737 
L 166.753906 254.677737 
L 171.546097 254.677737 
L 171.546097 48.946562 
L 171.547836 264.716 
L 171.738434 264.716 
L 171.738434 253.126414 
L 171.764267 253.126414 
L 177.882614 253.126414 
L 177.882614 56.421824 
L 177.884552 264.716 
L 178.101601 264.716 
L 178.101601 251.632235 
L 185.32798 251.632235 
L 185.32798 62.671027 
L 185.329773 264.716 
L 189.524078 264.716 
L 189.524078 44.356411 
L 189.525879 264.716 
L 189.716118 264.716 
L 189.716118 253.147406 
L 189.742317 253.147406 
L 192.802971 253.147406 
L 192.804741 39.186288 
L 192.804741 264.716 
L 192.940765 264.716 
L 192.940765 256.2104 
L 193.021179 256.2104 
L 198.056808 256.2104 
L 198.058624 50.318755 
L 198.058624 264.716 
L 198.19487 264.716 
L 198.19487 256.197572 
L 198.275063 256.197572 
L 198.819847 256.197572 
L 198.819847 126.987289 
L 198.92437 126.987289 
L 198.984673 126.987289 
L 198.984673 25.933967 
L 198.986374 264.716 
L 202.694153 264.716 
L 202.694153 54.411072 
L 202.859154 54.411072 
L 202.859154 42.544068 
L 202.860863 264.716 
L 204.728355 264.716 
L 204.728355 158.384955 
L 204.808792 158.384955 
L 204.893379 158.384955 
L 204.893379 32.170867 
L 204.895058 264.716 
L 205.247993 264.716 
L 205.247993 243.954924 
L 205.327934 243.954924 
L 205.385941 243.954924 
L 205.387604 23.481006 
L 205.387604 264.716 
L 206.146111 264.716 
L 206.253357 221.040774 
L 206.284218 221.040774 
L 206.284218 25.768024 
L 206.285927 264.716 
L 210.182549 264.716 
L 210.182549 43.741903 
L 210.347542 43.741903 
L 210.347542 43.608489 
L 210.349228 264.716 
L 211.594757 264.716 
L 211.594757 193.524844 
L 211.64785 193.524844 
L 211.759964 193.524844 
L 211.759964 28.666021 
L 211.76165 264.716 
L 213.710449 264.716 
L 213.710449 153.791338 
L 213.87561 153.791338 
L 213.87561 32.629952 
L 213.877312 264.716 
L 216.908569 264.716 
L 216.908569 92.63378 
L 217.046257 92.63378 
L 217.046257 38.576705 
L 217.04792 264.716 
L 221.16114 264.716 
L 221.16114 43.899391 
L 221.163025 264.716 
L 221.380341 264.716 
L 221.380341 251.617366 
L 221.518524 251.617366 
L 221.518524 99.421766 
L 221.595901 99.421766 
L 235.126472 99.421766 
L 235.126472 264.716 
L 235.427322 264.716 
L 235.483826 47.292206 
L 239.841949 47.292206 
L 239.841949 264.716 
L 240.140182 264.716 
L 240.19664 49.072029 
L 244.873062 49.072029 
L 244.873062 264.716 
L 245.150642 264.716 
L 245.180199 64.620458 
L 252.662628 64.620458 
L 252.662628 264.716 
L 252.94735 264.716 
L 252.977097 59.761518 
L 259.589973 59.761518 
L 259.589973 264.716 
L 259.879059 264.716 
L 259.935715 55.275888 
L 265.721817 55.275888 
L 265.721817 264.716 
L 266.025604 264.716 
L 266.025604 246.73191 
L 266.461342 246.73191 
L 266.461342 24.882549 
L 266.463036 264.716 
L 266.761772 264.716 
L 266.761772 247.016752 
L 266.926483 247.016752 
L 266.926483 42.608925 
L 270.347641 42.608925 
L 270.347641 264.716 
L 270.635681 264.716 
L 270.635681 247.621421 
L 270.800781 247.621421 
L 270.800781 49.856808 
L 275.518143 49.856808 
L 275.518143 264.716 
L 275.808357 264.716 
L 275.808357 247.498971 
L 276.271217 247.498971 
L 276.271217 31.561717 
L 277.442856 31.561717 
L 277.442856 264.716 
L 277.73484 264.716 
L 277.73484 247.398679 
L 277.899818 247.398679 
L 277.899818 47.185738 
L 282.139114 47.185738 
L 282.139114 264.716 
L 282.474617 264.716 
L 282.504311 25.265336 
L 282.571983 25.265336 
L 282.946648 25.265336 
L 282.946648 264.716 
L 295.03363 264.716 
L 295.03363 88.84576 
L 295.035873 264.716 
L 295.225578 264.716 
L 295.225578 253.177435 
L 295.252312 253.177435 
L 300.260338 253.177435 
L 300.260338 50.163196 
L 300.262146 264.716 
L 300.452301 264.716 
L 300.452301 253.151779 
L 300.478584 253.151779 
L 305.676445 253.151779 
L 305.676445 51.23326 
L 305.678246 264.716 
L 305.841667 264.716 
L 305.841667 254.662285 
L 305.894684 254.662285 
L 310.118919 254.662285 
L 310.118919 45.745126 
L 310.120697 264.716 
L 310.310974 264.716 
L 310.310974 253.144782 
L 310.337135 253.144782 
L 317.889175 253.144782 
L 317.889175 64.503266 
L 317.891113 264.716 
L 318.108322 264.716 
L 318.108322 251.623197 
L 321.736328 251.623197 
L 321.736328 42.388655 
L 321.738091 264.716 
L 321.928352 264.716 
L 321.928352 253.145657 
L 321.954521 253.145657 
L 326.422028 253.145657 
L 326.423767 47.116388 
L 326.423767 264.716 
L 326.613869 264.716 
L 326.613869 253.154695 
L 326.640205 253.154695 
L 330.404343 253.154695 
L 330.406097 43.151673 
L 330.406097 264.716 
L 331.299637 264.716 
L 331.299637 213.411568 
L 331.465034 213.411568 
L 331.465034 26.683024 
L 331.466721 264.716 
L 331.765259 264.716 
L 331.765259 247.028122 
L 335.663574 247.028122 
L 335.663574 44.370809 
L 335.665359 264.716 
L 335.855934 264.716 
L 335.855934 253.127872 
L 335.881798 253.127872 
L 339.456932 253.127872 
L 339.456932 42.086292 
L 339.458687 264.716 
L 339.757019 264.716 
L 339.757019 247.040076 
L 343.412163 247.040076 
L 343.413925 42.998906 
L 343.413925 264.716 
L 343.685463 264.716 
L 343.685463 248.553789 
L 347.584015 248.553789 
L 347.584015 44.219933 
L 347.585793 264.716 
L 347.775909 264.716 
L 347.775909 253.154111 
L 347.802231 253.154111 
L 351.647293 253.154111 
L 351.64904 43.60782 
L 351.64904 264.716 
L 351.785568 264.716 
L 351.785568 256.181829 
L 351.865479 256.181829 
L 352.5186 256.181829 
L 352.5186 120.692712 
L 363.559624 120.692712 
L 363.559624 87.851411 
L 363.561462 264.716 
L 363.697617 264.716 
L 363.697617 256.20282 
L 363.777901 256.20282 
L 367.298454 256.20282 
L 367.298454 41.778636 
L 367.300278 264.716 
L 367.490379 264.716 
L 367.490379 253.154986 
L 367.516716 253.154986 
L 371.849113 253.154986 
L 371.850883 46.354825 
L 371.850883 264.716 
L 375.85569 264.716 
L 375.85569 43.288238 
L 375.857544 264.716 
L 377.156166 264.716 
L 377.156166 264.716 
" style="fill:none;stroke:#008000;stroke-linecap:square;stroke-width:1.5;"/>
   </g>
   <g id="patch_3">
    <path d="M 36.465625 276.812 
L 36.465625 10.7 
" style="fill:none;stroke:#000000;stroke-linecap:square;stroke-linejoin:miter;stroke-width:0.8;"/>
   </g>
   <g id="patch_4">
    <path d="M 393.585625 276.812 
L 393.585625 10.7 
" style="fill:none;stroke:#000000;stroke-linecap:square;stroke-linejoin:miter;stroke-width:0.8;"/>
   </g>
   <g id="patch_5">
    <path d="M 36.465622 276.812 
L 393.585625 276.812 
" style="fill:none;stroke:#000000;stroke-linecap:square;stroke-linejoin:miter;stroke-width:0.8;"/>
   </g>
   <g id="patch_6">
    <path d="M 36.465622 10.7 
L 393.585625 10.7 
" style="fill:none;stroke:#000000;stroke-linecap:square;stroke-linejoin:miter;stroke-width:0.8;"/>
   </g>
  </g>
 </g>
 <defs>
  <clipPath id="p3aaa360eb9">
   <rect height="266.112" width="357.12" x="36.465625" y="10.7"/>
  </clipPath>
 </defs>
</svg>
