<?xml version="1.0" encoding="utf-8" standalone="no"?>
<!DOCTYPE svg PUBLIC "-//W3C//DTD SVG 1.1//EN"
  "http://www.w3.org/Graphics/SVG/1.1/DTD/svg11.dtd">
<!-- Created with matplotlib (https://matplotlib.org/) -->
<svg height="313.36825pt" version="1.1" viewBox="0 0 404.285625 313.36825" width="404.285625pt" xmlns="http://www.w3.org/2000/svg" xmlns:xlink="http://www.w3.org/1999/xlink">
 <defs>
  <style type="text/css">
*{stroke-linecap:butt;stroke-linejoin:round;}
  </style>
 </defs>
 <g id="figure_1">
  <g id="patch_1">
   <path d="M 0 313.36825 
L 404.285625 313.36825 
L 404.285625 0 
L 0 0 
z
" style="fill:#ffffff;"/>
  </g>
  <g id="axes_1">
   <g id="patch_2">
    <path d="M 36.465625 276.812 
L 393.585625 276.812 
L 393.585625 10.7 
L 36.465625 10.7 
z
" style="fill:#ffffff;"/>
   </g>
   <g id="matplotlib.axis_1">
    <g id="xtick_1">
     <g id="line2d_1">
      <defs>
       <path d="M 0 0 
L 0 3.5 
" id="mc15638ff99" style="stroke:#000000;stroke-width:0.8;"/>
      </defs>
      <g>
       <use style="stroke:#000000;stroke-width:0.8;" x="52.698349" xlink:href="#mc15638ff99" y="276.812"/>
      </g>
     </g>
     <g id="text_1">
      <!-- 4 -->
      <defs>
       <path d="M 37.796875 64.3125 
L 12.890625 25.390625 
L 37.796875 25.390625 
z
M 35.203125 72.90625 
L 47.609375 72.90625 
L 47.609375 25.390625 
L 58.015625 25.390625 
L 58.015625 17.1875 
L 47.609375 17.1875 
L 47.609375 0 
L 37.796875 0 
L 37.796875 17.1875 
L 4.890625 17.1875 
L 4.890625 26.703125 
z
" id="DejaVuSans-52"/>
      </defs>
      <g transform="translate(49.517099 291.410437)scale(0.1 -0.1)">
       <use xlink:href="#DejaVuSans-52"/>
      </g>
     </g>
    </g>
    <g id="xtick_2">
     <g id="line2d_2">
      <g>
       <use style="stroke:#000000;stroke-width:0.8;" x="95.98597" xlink:href="#mc15638ff99" y="276.812"/>
      </g>
     </g>
     <g id="text_2">
      <!-- 6 -->
      <defs>
       <path d="M 33.015625 40.375 
Q 26.375 40.375 22.484375 35.828125 
Q 18.609375 31.296875 18.609375 23.390625 
Q 18.609375 15.53125 22.484375 10.953125 
Q 26.375 6.390625 33.015625 6.390625 
Q 39.65625 6.390625 43.53125 10.953125 
Q 47.40625 15.53125 47.40625 23.390625 
Q 47.40625 31.296875 43.53125 35.828125 
Q 39.65625 40.375 33.015625 40.375 
z
M 52.59375 71.296875 
L 52.59375 62.3125 
Q 48.875 64.0625 45.09375 64.984375 
Q 41.3125 65.921875 37.59375 65.921875 
Q 27.828125 65.921875 22.671875 59.328125 
Q 17.53125 52.734375 16.796875 39.40625 
Q 19.671875 43.65625 24.015625 45.921875 
Q 28.375 48.1875 33.59375 48.1875 
Q 44.578125 48.1875 50.953125 41.515625 
Q 57.328125 34.859375 57.328125 23.390625 
Q 57.328125 12.15625 50.6875 5.359375 
Q 44.046875 -1.421875 33.015625 -1.421875 
Q 20.359375 -1.421875 13.671875 8.265625 
Q 6.984375 17.96875 6.984375 36.375 
Q 6.984375 53.65625 15.1875 63.9375 
Q 23.390625 74.21875 37.203125 74.21875 
Q 40.921875 74.21875 44.703125 73.484375 
Q 48.484375 72.75 52.59375 71.296875 
z
" id="DejaVuSans-54"/>
      </defs>
      <g transform="translate(92.80472 291.410437)scale(0.1 -0.1)">
       <use xlink:href="#DejaVuSans-54"/>
      </g>
     </g>
    </g>
    <g id="xtick_3">
     <g id="line2d_3">
      <g>
       <use style="stroke:#000000;stroke-width:0.8;" x="139.273598" xlink:href="#mc15638ff99" y="276.812"/>
      </g>
     </g>
     <g id="text_3">
      <!-- 8 -->
      <defs>
       <path d="M 31.78125 34.625 
Q 24.75 34.625 20.71875 30.859375 
Q 16.703125 27.09375 16.703125 20.515625 
Q 16.703125 13.921875 20.71875 10.15625 
Q 24.75 6.390625 31.78125 6.390625 
Q 38.8125 6.390625 42.859375 10.171875 
Q 46.921875 13.96875 46.921875 20.515625 
Q 46.921875 27.09375 42.890625 30.859375 
Q 38.875 34.625 31.78125 34.625 
z
M 21.921875 38.8125 
Q 15.578125 40.375 12.03125 44.71875 
Q 8.5 49.078125 8.5 55.328125 
Q 8.5 64.0625 14.71875 69.140625 
Q 20.953125 74.21875 31.78125 74.21875 
Q 42.671875 74.21875 48.875 69.140625 
Q 55.078125 64.0625 55.078125 55.328125 
Q 55.078125 49.078125 51.53125 44.71875 
Q 48 40.375 41.703125 38.8125 
Q 48.828125 37.15625 52.796875 32.3125 
Q 56.78125 27.484375 56.78125 20.515625 
Q 56.78125 9.90625 50.3125 4.234375 
Q 43.84375 -1.421875 31.78125 -1.421875 
Q 19.734375 -1.421875 13.25 4.234375 
Q 6.78125 9.90625 6.78125 20.515625 
Q 6.78125 27.484375 10.78125 32.3125 
Q 14.796875 37.15625 21.921875 38.8125 
z
M 18.3125 54.390625 
Q 18.3125 48.734375 21.84375 45.5625 
Q 25.390625 42.390625 31.78125 42.390625 
Q 38.140625 42.390625 41.71875 45.5625 
Q 45.3125 48.734375 45.3125 54.390625 
Q 45.3125 60.0625 41.71875 63.234375 
Q 38.140625 66.40625 31.78125 66.40625 
Q 25.390625 66.40625 21.84375 63.234375 
Q 18.3125 60.0625 18.3125 54.390625 
z
" id="DejaVuSans-56"/>
      </defs>
      <g transform="translate(136.092348 291.410437)scale(0.1 -0.1)">
       <use xlink:href="#DejaVuSans-56"/>
      </g>
     </g>
    </g>
    <g id="xtick_4">
     <g id="line2d_4">
      <g>
       <use style="stroke:#000000;stroke-width:0.8;" x="182.561218" xlink:href="#mc15638ff99" y="276.812"/>
      </g>
     </g>
     <g id="text_4">
      <!-- 10 -->
      <defs>
       <path d="M 12.40625 8.296875 
L 28.515625 8.296875 
L 28.515625 63.921875 
L 10.984375 60.40625 
L 10.984375 69.390625 
L 28.421875 72.90625 
L 38.28125 72.90625 
L 38.28125 8.296875 
L 54.390625 8.296875 
L 54.390625 0 
L 12.40625 0 
z
" id="DejaVuSans-49"/>
       <path d="M 31.78125 66.40625 
Q 24.171875 66.40625 20.328125 58.90625 
Q 16.5 51.421875 16.5 36.375 
Q 16.5 21.390625 20.328125 13.890625 
Q 24.171875 6.390625 31.78125 6.390625 
Q 39.453125 6.390625 43.28125 13.890625 
Q 47.125 21.390625 47.125 36.375 
Q 47.125 51.421875 43.28125 58.90625 
Q 39.453125 66.40625 31.78125 66.40625 
z
M 31.78125 74.21875 
Q 44.046875 74.21875 50.515625 64.515625 
Q 56.984375 54.828125 56.984375 36.375 
Q 56.984375 17.96875 50.515625 8.265625 
Q 44.046875 -1.421875 31.78125 -1.421875 
Q 19.53125 -1.421875 13.0625 8.265625 
Q 6.59375 17.96875 6.59375 36.375 
Q 6.59375 54.828125 13.0625 64.515625 
Q 19.53125 74.21875 31.78125 74.21875 
z
" id="DejaVuSans-48"/>
      </defs>
      <g transform="translate(176.198718 291.410437)scale(0.1 -0.1)">
       <use xlink:href="#DejaVuSans-49"/>
       <use x="63.623047" xlink:href="#DejaVuSans-48"/>
      </g>
     </g>
    </g>
    <g id="xtick_5">
     <g id="line2d_5">
      <g>
       <use style="stroke:#000000;stroke-width:0.8;" x="225.848839" xlink:href="#mc15638ff99" y="276.812"/>
      </g>
     </g>
     <g id="text_5">
      <!-- 12 -->
      <defs>
       <path d="M 19.1875 8.296875 
L 53.609375 8.296875 
L 53.609375 0 
L 7.328125 0 
L 7.328125 8.296875 
Q 12.9375 14.109375 22.625 23.890625 
Q 32.328125 33.6875 34.8125 36.53125 
Q 39.546875 41.84375 41.421875 45.53125 
Q 43.3125 49.21875 43.3125 52.78125 
Q 43.3125 58.59375 39.234375 62.25 
Q 35.15625 65.921875 28.609375 65.921875 
Q 23.96875 65.921875 18.8125 64.3125 
Q 13.671875 62.703125 7.8125 59.421875 
L 7.8125 69.390625 
Q 13.765625 71.78125 18.9375 73 
Q 24.125 74.21875 28.421875 74.21875 
Q 39.75 74.21875 46.484375 68.546875 
Q 53.21875 62.890625 53.21875 53.421875 
Q 53.21875 48.921875 51.53125 44.890625 
Q 49.859375 40.875 45.40625 35.40625 
Q 44.1875 33.984375 37.640625 27.21875 
Q 31.109375 20.453125 19.1875 8.296875 
z
" id="DejaVuSans-50"/>
      </defs>
      <g transform="translate(219.486339 291.410437)scale(0.1 -0.1)">
       <use xlink:href="#DejaVuSans-49"/>
       <use x="63.623047" xlink:href="#DejaVuSans-50"/>
      </g>
     </g>
    </g>
    <g id="xtick_6">
     <g id="line2d_6">
      <g>
       <use style="stroke:#000000;stroke-width:0.8;" x="269.136467" xlink:href="#mc15638ff99" y="276.812"/>
      </g>
     </g>
     <g id="text_6">
      <!-- 14 -->
      <g transform="translate(262.773967 291.410437)scale(0.1 -0.1)">
       <use xlink:href="#DejaVuSans-49"/>
       <use x="63.623047" xlink:href="#DejaVuSans-52"/>
      </g>
     </g>
    </g>
    <g id="xtick_7">
     <g id="line2d_7">
      <g>
       <use style="stroke:#000000;stroke-width:0.8;" x="312.424088" xlink:href="#mc15638ff99" y="276.812"/>
      </g>
     </g>
     <g id="text_7">
      <!-- 16 -->
      <g transform="translate(306.061588 291.410437)scale(0.1 -0.1)">
       <use xlink:href="#DejaVuSans-49"/>
       <use x="63.623047" xlink:href="#DejaVuSans-54"/>
      </g>
     </g>
    </g>
    <g id="xtick_8">
     <g id="line2d_8">
      <g>
       <use style="stroke:#000000;stroke-width:0.8;" x="355.711716" xlink:href="#mc15638ff99" y="276.812"/>
      </g>
     </g>
     <g id="text_8">
      <!-- 18 -->
      <g transform="translate(349.349216 291.410437)scale(0.1 -0.1)">
       <use xlink:href="#DejaVuSans-49"/>
       <use x="63.623047" xlink:href="#DejaVuSans-56"/>
      </g>
     </g>
    </g>
    <g id="text_9">
     <!-- +1.5961601e9 -->
     <defs>
      <path d="M 46 62.703125 
L 46 35.5 
L 73.1875 35.5 
L 73.1875 27.203125 
L 46 27.203125 
L 46 0 
L 37.796875 0 
L 37.796875 27.203125 
L 10.59375 27.203125 
L 10.59375 35.5 
L 37.796875 35.5 
L 37.796875 62.703125 
z
" id="DejaVuSans-43"/>
      <path d="M 10.6875 12.40625 
L 21 12.40625 
L 21 0 
L 10.6875 0 
z
" id="DejaVuSans-46"/>
      <path d="M 10.796875 72.90625 
L 49.515625 72.90625 
L 49.515625 64.59375 
L 19.828125 64.59375 
L 19.828125 46.734375 
Q 21.96875 47.46875 24.109375 47.828125 
Q 26.265625 48.1875 28.421875 48.1875 
Q 40.625 48.1875 47.75 41.5 
Q 54.890625 34.8125 54.890625 23.390625 
Q 54.890625 11.625 47.5625 5.09375 
Q 40.234375 -1.421875 26.90625 -1.421875 
Q 22.3125 -1.421875 17.546875 -0.640625 
Q 12.796875 0.140625 7.71875 1.703125 
L 7.71875 11.625 
Q 12.109375 9.234375 16.796875 8.0625 
Q 21.484375 6.890625 26.703125 6.890625 
Q 35.15625 6.890625 40.078125 11.328125 
Q 45.015625 15.765625 45.015625 23.390625 
Q 45.015625 31 40.078125 35.4375 
Q 35.15625 39.890625 26.703125 39.890625 
Q 22.75 39.890625 18.8125 39.015625 
Q 14.890625 38.140625 10.796875 36.28125 
z
" id="DejaVuSans-53"/>
      <path d="M 10.984375 1.515625 
L 10.984375 10.5 
Q 14.703125 8.734375 18.5 7.8125 
Q 22.3125 6.890625 25.984375 6.890625 
Q 35.75 6.890625 40.890625 13.453125 
Q 46.046875 20.015625 46.78125 33.40625 
Q 43.953125 29.203125 39.59375 26.953125 
Q 35.25 24.703125 29.984375 24.703125 
Q 19.046875 24.703125 12.671875 31.3125 
Q 6.296875 37.9375 6.296875 49.421875 
Q 6.296875 60.640625 12.9375 67.421875 
Q 19.578125 74.21875 30.609375 74.21875 
Q 43.265625 74.21875 49.921875 64.515625 
Q 56.59375 54.828125 56.59375 36.375 
Q 56.59375 19.140625 48.40625 8.859375 
Q 40.234375 -1.421875 26.421875 -1.421875 
Q 22.703125 -1.421875 18.890625 -0.6875 
Q 15.09375 0.046875 10.984375 1.515625 
z
M 30.609375 32.421875 
Q 37.25 32.421875 41.125 36.953125 
Q 45.015625 41.5 45.015625 49.421875 
Q 45.015625 57.28125 41.125 61.84375 
Q 37.25 66.40625 30.609375 66.40625 
Q 23.96875 66.40625 20.09375 61.84375 
Q 16.21875 57.28125 16.21875 49.421875 
Q 16.21875 41.5 20.09375 36.953125 
Q 23.96875 32.421875 30.609375 32.421875 
z
" id="DejaVuSans-57"/>
      <path d="M 56.203125 29.59375 
L 56.203125 25.203125 
L 14.890625 25.203125 
Q 15.484375 15.921875 20.484375 11.0625 
Q 25.484375 6.203125 34.421875 6.203125 
Q 39.59375 6.203125 44.453125 7.46875 
Q 49.3125 8.734375 54.109375 11.28125 
L 54.109375 2.78125 
Q 49.265625 0.734375 44.1875 -0.34375 
Q 39.109375 -1.421875 33.890625 -1.421875 
Q 20.796875 -1.421875 13.15625 6.1875 
Q 5.515625 13.8125 5.515625 26.8125 
Q 5.515625 40.234375 12.765625 48.109375 
Q 20.015625 56 32.328125 56 
Q 43.359375 56 49.78125 48.890625 
Q 56.203125 41.796875 56.203125 29.59375 
z
M 47.21875 32.234375 
Q 47.125 39.59375 43.09375 43.984375 
Q 39.0625 48.390625 32.421875 48.390625 
Q 24.90625 48.390625 20.390625 44.140625 
Q 15.875 39.890625 15.1875 32.171875 
z
" id="DejaVuSans-101"/>
     </defs>
     <g transform="translate(318.612188 304.088562)scale(0.1 -0.1)">
      <use xlink:href="#DejaVuSans-43"/>
      <use x="83.789062" xlink:href="#DejaVuSans-49"/>
      <use x="147.412109" xlink:href="#DejaVuSans-46"/>
      <use x="179.199219" xlink:href="#DejaVuSans-53"/>
      <use x="242.822266" xlink:href="#DejaVuSans-57"/>
      <use x="306.445312" xlink:href="#DejaVuSans-54"/>
      <use x="370.068359" xlink:href="#DejaVuSans-49"/>
      <use x="433.691406" xlink:href="#DejaVuSans-54"/>
      <use x="497.314453" xlink:href="#DejaVuSans-48"/>
      <use x="560.9375" xlink:href="#DejaVuSans-49"/>
      <use x="624.560547" xlink:href="#DejaVuSans-101"/>
      <use x="686.083984" xlink:href="#DejaVuSans-57"/>
     </g>
    </g>
   </g>
   <g id="matplotlib.axis_2">
    <g id="ytick_1">
     <g id="line2d_9">
      <defs>
       <path d="M 0 0 
L -3.5 0 
" id="madac3679d2" style="stroke:#000000;stroke-width:0.8;"/>
      </defs>
      <g>
       <use style="stroke:#000000;stroke-width:0.8;" x="36.465625" xlink:href="#madac3679d2" y="264.716"/>
      </g>
     </g>
     <g id="text_10">
      <!-- 0.00 -->
      <g transform="translate(7.2 268.515219)scale(0.1 -0.1)">
       <use xlink:href="#DejaVuSans-48"/>
       <use x="63.623047" xlink:href="#DejaVuSans-46"/>
       <use x="95.410156" xlink:href="#DejaVuSans-48"/>
       <use x="159.033203" xlink:href="#DejaVuSans-48"/>
      </g>
     </g>
    </g>
    <g id="ytick_2">
     <g id="line2d_10">
      <g>
       <use style="stroke:#000000;stroke-width:0.8;" x="36.465625" xlink:href="#madac3679d2" y="234.203198"/>
      </g>
     </g>
     <g id="text_11">
      <!-- 0.25 -->
      <g transform="translate(7.2 238.002417)scale(0.1 -0.1)">
       <use xlink:href="#DejaVuSans-48"/>
       <use x="63.623047" xlink:href="#DejaVuSans-46"/>
       <use x="95.410156" xlink:href="#DejaVuSans-50"/>
       <use x="159.033203" xlink:href="#DejaVuSans-53"/>
      </g>
     </g>
    </g>
    <g id="ytick_3">
     <g id="line2d_11">
      <g>
       <use style="stroke:#000000;stroke-width:0.8;" x="36.465625" xlink:href="#madac3679d2" y="203.690396"/>
      </g>
     </g>
     <g id="text_12">
      <!-- 0.50 -->
      <g transform="translate(7.2 207.489615)scale(0.1 -0.1)">
       <use xlink:href="#DejaVuSans-48"/>
       <use x="63.623047" xlink:href="#DejaVuSans-46"/>
       <use x="95.410156" xlink:href="#DejaVuSans-53"/>
       <use x="159.033203" xlink:href="#DejaVuSans-48"/>
      </g>
     </g>
    </g>
    <g id="ytick_4">
     <g id="line2d_12">
      <g>
       <use style="stroke:#000000;stroke-width:0.8;" x="36.465625" xlink:href="#madac3679d2" y="173.177594"/>
      </g>
     </g>
     <g id="text_13">
      <!-- 0.75 -->
      <defs>
       <path d="M 8.203125 72.90625 
L 55.078125 72.90625 
L 55.078125 68.703125 
L 28.609375 0 
L 18.3125 0 
L 43.21875 64.59375 
L 8.203125 64.59375 
z
" id="DejaVuSans-55"/>
      </defs>
      <g transform="translate(7.2 176.976813)scale(0.1 -0.1)">
       <use xlink:href="#DejaVuSans-48"/>
       <use x="63.623047" xlink:href="#DejaVuSans-46"/>
       <use x="95.410156" xlink:href="#DejaVuSans-55"/>
       <use x="159.033203" xlink:href="#DejaVuSans-53"/>
      </g>
     </g>
    </g>
    <g id="ytick_5">
     <g id="line2d_13">
      <g>
       <use style="stroke:#000000;stroke-width:0.8;" x="36.465625" xlink:href="#madac3679d2" y="142.664792"/>
      </g>
     </g>
     <g id="text_14">
      <!-- 1.00 -->
      <g transform="translate(7.2 146.46401)scale(0.1 -0.1)">
       <use xlink:href="#DejaVuSans-49"/>
       <use x="63.623047" xlink:href="#DejaVuSans-46"/>
       <use x="95.410156" xlink:href="#DejaVuSans-48"/>
       <use x="159.033203" xlink:href="#DejaVuSans-48"/>
      </g>
     </g>
    </g>
    <g id="ytick_6">
     <g id="line2d_14">
      <g>
       <use style="stroke:#000000;stroke-width:0.8;" x="36.465625" xlink:href="#madac3679d2" y="112.15199"/>
      </g>
     </g>
     <g id="text_15">
      <!-- 1.25 -->
      <g transform="translate(7.2 115.951208)scale(0.1 -0.1)">
       <use xlink:href="#DejaVuSans-49"/>
       <use x="63.623047" xlink:href="#DejaVuSans-46"/>
       <use x="95.410156" xlink:href="#DejaVuSans-50"/>
       <use x="159.033203" xlink:href="#DejaVuSans-53"/>
      </g>
     </g>
    </g>
    <g id="ytick_7">
     <g id="line2d_15">
      <g>
       <use style="stroke:#000000;stroke-width:0.8;" x="36.465625" xlink:href="#madac3679d2" y="81.639188"/>
      </g>
     </g>
     <g id="text_16">
      <!-- 1.50 -->
      <g transform="translate(7.2 85.438406)scale(0.1 -0.1)">
       <use xlink:href="#DejaVuSans-49"/>
       <use x="63.623047" xlink:href="#DejaVuSans-46"/>
       <use x="95.410156" xlink:href="#DejaVuSans-53"/>
       <use x="159.033203" xlink:href="#DejaVuSans-48"/>
      </g>
     </g>
    </g>
    <g id="ytick_8">
     <g id="line2d_16">
      <g>
       <use style="stroke:#000000;stroke-width:0.8;" x="36.465625" xlink:href="#madac3679d2" y="51.126385"/>
      </g>
     </g>
     <g id="text_17">
      <!-- 1.75 -->
      <g transform="translate(7.2 54.925604)scale(0.1 -0.1)">
       <use xlink:href="#DejaVuSans-49"/>
       <use x="63.623047" xlink:href="#DejaVuSans-46"/>
       <use x="95.410156" xlink:href="#DejaVuSans-55"/>
       <use x="159.033203" xlink:href="#DejaVuSans-53"/>
      </g>
     </g>
    </g>
    <g id="ytick_9">
     <g id="line2d_17">
      <g>
       <use style="stroke:#000000;stroke-width:0.8;" x="36.465625" xlink:href="#madac3679d2" y="20.613583"/>
      </g>
     </g>
     <g id="text_18">
      <!-- 2.00 -->
      <g transform="translate(7.2 24.412802)scale(0.1 -0.1)">
       <use xlink:href="#DejaVuSans-50"/>
       <use x="63.623047" xlink:href="#DejaVuSans-46"/>
       <use x="95.410156" xlink:href="#DejaVuSans-48"/>
       <use x="159.033203" xlink:href="#DejaVuSans-48"/>
      </g>
     </g>
    </g>
   </g>
   <g id="line2d_18">
    <path clip-path="url(#p0b8e111d0a)" d="M 52.698349 264.716 
L 52.914787 222.676139 
L 81.219032 222.676139 
L 81.219032 181.440624 
L 81.222443 264.716 
L 81.46492 264.716 
L 81.46492 250.189806 
L 83.740562 250.189806 
L 83.740562 34.813448 
L 83.742249 264.716 
L 84.230049 264.716 
L 84.230049 236.323365 
L 85.152519 236.323365 
L 85.152519 28.566241 
L 85.154106 264.716 
L 85.479912 264.716 
L 85.479912 245.479672 
L 85.586983 245.479672 
L 88.269234 245.479672 
L 88.269234 38.18003 
L 88.270905 264.716 
L 88.569527 264.716 
L 88.569527 247.016467 
L 91.602272 247.016467 
L 91.602272 39.399436 
L 91.603905 264.716 
L 91.902702 264.716 
L 91.902702 247.00655 
L 95.828186 247.00655 
L 95.828186 44.434658 
L 95.829803 264.716 
L 96.263863 264.716 
L 96.263863 239.36137 
L 97.321701 239.36137 
L 97.32328 29.026504 
L 97.32328 264.716 
L 97.649147 264.716 
L 97.649147 245.476464 
L 97.756157 245.476464 
L 103.549469 245.476464 
L 103.549469 55.723576 
L 103.55117 264.716 
L 104.553329 264.716 
L 104.553329 207.251439 
L 104.633362 207.251439 
L 104.745338 207.251439 
L 104.745338 27.347563 
L 104.746864 264.716 
L 105.045563 264.716 
L 105.045563 247.012383 
L 105.318825 247.012383 
L 105.318825 36.41706 
L 105.396179 36.41706 
L 107.549606 36.41706 
L 107.549606 264.716 
L 107.837761 264.716 
L 107.837761 247.607968 
L 108.029839 247.607968 
L 108.029839 48.166384 
L 112.435806 48.166384 
L 112.435806 264.716 
L 112.740051 264.716 
L 112.769264 46.441102 
L 117.015907 46.441102 
L 117.015907 264.716 
L 117.320343 264.716 
L 117.350029 46.281303 
L 121.567986 46.281303 
L 121.567986 264.716 
L 121.843979 264.716 
L 121.843979 248.295136 
L 122.333504 248.295136 
L 122.333504 39.616337 
L 122.433739 39.616337 
L 124.938179 39.616337 
L 124.938179 264.716 
L 125.258041 264.716 
L 125.28788 35.79083 
L 127.629662 35.79083 
L 127.629662 264.716 
L 127.941872 264.716 
L 127.941872 246.248215 
L 128.079918 246.248215 
L 128.079918 34.871888 
L 130.158516 34.871888 
L 130.158516 264.716 
L 130.490288 264.716 
L 130.490288 245.142797 
L 130.591393 245.142797 
L 130.655579 245.142797 
L 130.655579 23.416571 
L 130.657166 264.716 
L 131.172028 264.716 
L 131.172028 234.794446 
L 131.310188 234.794446 
L 131.311722 24.296009 
L 131.311722 264.716 
L 135.533829 264.716 
L 135.533829 44.422349 
L 135.53759 264.716 
L 135.671631 264.716 
L 135.671631 256.3189 
L 135.754028 256.3189 
L 142.356567 256.3189 
L 142.356567 59.066327 
L 142.359032 264.716 
L 142.521645 264.716 
L 142.521645 254.703938 
L 142.57547 254.703938 
L 147.664383 254.703938 
L 147.666153 50.530898 
L 147.666153 264.716 
L 147.856544 264.716 
L 147.856544 253.133602 
L 147.882591 253.133602 
L 151.728043 253.133602 
L 151.728043 43.518933 
L 151.729958 264.716 
L 151.974136 264.716 
L 151.974136 250.093847 
L 154.844719 250.093847 
L 154.844719 38.177964 
L 154.846313 264.716 
L 155.090988 264.716 
L 155.090988 250.065555 
L 156.554901 250.065555 
L 156.554901 30.24847 
L 156.557167 264.716 
L 156.854973 264.716 
L 156.854973 247.062842 
L 157.020042 247.062842 
L 157.020042 43.138824 
L 160.55201 43.138824 
L 160.55201 264.716 
L 160.83725 264.716 
L 160.83725 247.77276 
L 160.975601 247.77276 
L 160.975601 53.184253 
L 160.984879 53.184253 
L 166.327957 53.184253 
L 166.327957 264.716 
L 166.632591 264.716 
L 166.68943 44.613294 
L 170.58419 44.613294 
L 170.58419 264.716 
L 170.885551 264.716 
L 170.969276 45.313782 
L 170.998886 45.313782 
L 170.998886 22.952118 
L 171.000435 264.716 
L 193.321793 264.716 
L 193.321793 146.485556 
L 193.324638 264.716 
L 193.459541 264.716 
L 193.459541 256.269899 
L 193.541077 256.269899 
L 193.678604 256.269899 
L 193.678604 150.785189 
L 193.757515 150.785189 
L 216.408562 150.785189 
L 216.408562 264.716 
L 216.704971 264.716 
L 216.704971 247.141592 
L 217.221298 247.141592 
L 217.221298 25.196661 
L 217.222893 264.716 
L 217.548904 264.716 
L 217.548904 245.468297 
L 217.655769 245.468297 
L 217.713814 245.468297 
L 217.713814 23.976669 
L 217.819618 264.716 
L 218.122192 264.716 
L 218.122192 246.793341 
L 218.260414 246.793341 
L 218.260414 41.416117 
L 221.508705 41.416117 
L 221.508705 264.716 
L 221.807396 264.716 
L 221.807396 247.012383 
L 221.972221 247.012383 
L 221.972221 42.546445 
L 225.398254 42.546445 
L 225.398254 264.716 
L 225.708427 264.716 
L 225.708427 246.363716 
L 225.873466 246.363716 
L 225.873466 34.734857 
L 227.902824 34.734857 
L 227.902824 264.716 
L 228.256889 264.716 
L 228.367928 23.23633 
L 228.369492 23.23633 
L 228.369492 264.716 
L 232.131088 264.716 
L 232.131088 51.283877 
L 232.296158 51.283877 
L 232.296158 42.756357 
L 232.297729 264.716 
L 234.274063 264.716 
L 234.274063 152.189636 
L 234.439117 152.189636 
L 234.439117 32.689055 
L 234.440681 264.716 
L 238.310493 264.716 
L 238.310493 45.167325 
L 238.336563 45.167325 
L 238.448242 45.167325 
L 238.448242 43.212546 
L 238.449806 264.716 
L 242.779999 264.716 
L 242.779999 45.031921 
L 242.781662 264.716 
L 243.675484 264.716 
L 243.675484 213.3747 
L 243.867416 213.3747 
L 243.867416 26.736246 
L 243.868973 264.716 
L 244.221764 264.716 
L 244.221764 243.954836 
L 244.301849 243.954836 
L 244.386818 243.954836 
L 244.386818 23.533754 
L 244.388359 264.716 
L 245.120026 264.716 
L 245.120026 222.540049 
L 245.285088 222.540049 
L 245.285088 25.67031 
L 245.286644 264.716 
L 248.426231 264.716 
L 248.426231 86.440563 
L 248.533211 86.440563 
L 248.591148 86.440563 
L 248.591148 39.247974 
L 248.592705 264.716 
L 248.945564 264.716 
L 248.945564 243.950753 
L 249.025581 243.950753 
L 249.110458 243.950753 
L 249.112007 23.53323 
L 249.112007 264.716 
L 249.843849 264.716 
L 249.843849 222.530133 
L 250.035782 222.530133 
L 250.035782 25.822819 
L 250.037323 264.716 
L 250.309189 264.716 
L 250.309189 248.528469 
L 250.961098 248.528469 
L 250.961098 33.243567 
L 252.277214 33.243567 
L 252.277214 264.716 
L 252.586906 264.716 
L 252.586906 246.390549 
L 252.751968 246.390549 
L 252.751968 35.056312 
L 254.838478 35.056312 
L 254.838478 264.716 
L 255.162628 264.716 
L 255.162628 245.573589 
L 255.271355 245.573589 
L 255.30056 245.573589 
L 255.30056 26.767155 
L 255.929878 26.767155 
L 255.929878 264.716 
L 256.250381 264.716 
L 256.250381 245.779798 
L 256.415337 245.779798 
L 256.415337 27.718978 
L 257.189941 27.718978 
L 257.189941 264.716 
L 257.500114 264.716 
L 257.500114 246.363132 
L 257.638023 246.363132 
L 257.638023 36.261429 
L 259.964836 36.261429 
L 259.964836 264.716 
L 260.265053 264.716 
L 260.265053 246.926342 
L 260.403023 246.926342 
L 260.403023 43.029494 
L 263.940308 43.029494 
L 263.940308 264.716 
L 264.247505 264.716 
L 264.247505 246.532008 
L 264.412529 246.532008 
L 264.412529 36.759135 
L 266.803818 36.759135 
L 266.803818 264.716 
L 267.120789 264.716 
L 267.120789 245.979298 
L 267.258492 245.979298 
L 267.258492 31.658192 
L 268.762764 31.658192 
L 268.762764 264.716 
L 269.074036 264.716 
L 269.074036 246.30159 
L 269.211929 246.30159 
L 269.211929 35.522376 
L 271.406975 35.522376 
L 271.406975 264.716 
L 271.730766 264.716 
L 271.730766 245.593714 
L 271.839851 245.593714 
L 271.868729 245.593714 
L 271.868729 27.007664 
L 272.541153 27.007664 
L 272.541153 264.716 
L 272.845497 264.716 
L 272.845497 246.692716 
L 272.983536 246.692716 
L 272.983536 40.216783 
L 276.017609 40.216783 
L 276.017609 264.716 
L 276.34079 264.716 
L 276.34079 245.628131 
L 276.450485 245.628131 
L 276.50573 245.628131 
L 276.50573 25.896335 
L 276.954582 25.896335 
L 276.954582 264.716 
L 277.266052 264.716 
L 277.266052 246.290215 
L 277.431252 246.290215 
L 277.431252 33.842402 
L 279.300552 33.842402 
L 279.300552 264.716 
L 279.598343 264.716 
L 279.598343 247.063425 
L 279.763321 247.063425 
L 279.763321 43.15138 
L 283.297333 43.15138 
L 283.297333 264.716 
L 283.58065 264.716 
L 283.58065 247.881552 
L 283.745552 247.881552 
L 283.745552 52.991941 
L 289.039375 52.991941 
L 289.039375 264.716 
L 289.34848 264.716 
L 289.37854 43.090187 
L 293.025543 43.090187 
L 293.025543 264.716 
L 293.330917 264.716 
L 293.360657 45.643662 
L 297.464569 45.643662 
L 297.464569 264.716 
L 297.773567 264.716 
L 297.773567 246.429924 
L 298.154861 246.429924 
L 298.154861 24.506194 
L 298.156433 264.716 
L 298.48201 264.716 
L 298.48201 245.492797 
L 298.58931 245.492797 
L 298.647377 245.492797 
L 298.647377 24.245279 
L 298.800781 24.245279 
L 298.800781 264.716 
L 299.109985 264.716 
L 299.109985 246.418257 
L 299.24778 246.418257 
L 299.24778 36.930916 
L 301.694687 36.930916 
L 301.694687 264.716 
L 302.010155 264.716 
L 302.010155 246.063882 
L 302.147964 246.063882 
L 302.147964 32.669321 
L 303.832962 32.669321 
L 303.832962 264.716 
L 304.152924 264.716 
L 304.152924 245.810423 
L 304.29055 245.810423 
L 304.29055 29.631858 
L 305.43232 29.631858 
L 305.43232 264.716 
L 305.754547 264.716 
L 305.754547 245.682381 
L 305.865196 245.682381 
L 305.946457 245.682381 
L 305.946457 25.024341 
L 306.214676 25.024341 
L 306.214676 264.716 
L 306.544258 264.716 
L 306.544258 245.266464 
L 306.647552 245.266464 
L 306.709457 245.266464 
L 306.709457 23.403709 
L 306.711006 264.716 
L 310.202156 264.716 
L 310.202156 66.569862 
L 310.340164 66.569862 
L 310.340164 41.078697 
L 310.341705 264.716 
L 314.996391 264.716 
L 314.996391 46.861712 
L 314.998085 264.716 
L 315.215286 264.716 
L 315.215286 251.618683 
L 317.923462 251.618683 
L 317.923462 37.110021 
L 317.925148 264.716 
L 318.223724 264.716 
L 318.223724 247.019092 
L 319.985077 247.019092 
L 319.985077 32.229694 
L 319.986702 264.716 
L 320.285339 264.716 
L 320.285339 247.015592 
L 323.12899 247.015592 
L 323.12899 38.33318 
L 323.130585 264.716 
L 323.483307 264.716 
L 323.483307 243.95892 
L 323.563461 243.95892 
L 323.648254 243.95892 
L 323.649834 23.532765 
L 323.649834 264.716 
L 324.083839 264.716 
L 324.083839 239.364578 
L 324.221642 239.364578 
L 324.221642 23.838045 
L 324.223183 264.716 
L 329.013084 264.716 
L 329.013084 47.624229 
L 329.014793 264.716 
L 329.232201 264.716 
L 329.232201 251.606725 
L 330.235924 251.606725 
L 330.235924 50.369272 
L 330.313423 50.369272 
L 334.291634 50.369272 
L 334.291634 264.716 
L 334.594521 264.716 
L 334.624237 47.331875 
L 339.03006 47.331875 
L 339.03006 264.716 
L 339.334412 264.716 
L 339.334412 246.692425 
L 340.040443 246.692425 
L 340.040443 26.311222 
L 340.042023 264.716 
L 340.340668 264.716 
L 340.340668 247.015008 
L 340.505859 247.015008 
L 340.505859 42.556715 
L 343.933556 42.556715 
L 343.933556 264.716 
L 344.242119 264.716 
L 344.242119 246.454424 
L 344.40696 246.454424 
L 344.40696 35.836836 
L 346.633469 35.836836 
L 346.633469 264.716 
L 346.926041 264.716 
L 346.926041 247.358301 
L 347.090767 247.358301 
L 347.090767 46.71072 
L 351.26162 46.71072 
L 351.26162 264.716 
L 351.584839 264.716 
L 351.584839 245.626381 
L 351.694496 245.626381 
L 351.80365 245.626381 
L 351.80365 23.670113 
L 351.805214 264.716 
L 352.103943 264.716 
L 352.103943 247.010342 
L 352.24202 247.010342 
L 352.24202 44.033317 
L 355.958504 44.033317 
L 355.958504 264.716 
L 356.248749 264.716 
L 356.305687 54.381108 
L 361.94664 54.381108 
L 361.94664 264.716 
L 362.260239 264.716 
L 362.260239 246.169757 
L 363.128792 246.169757 
L 363.128792 27.279849 
L 363.130379 264.716 
L 363.42907 264.716 
L 363.42907 247.012675 
L 363.566933 247.012675 
L 363.566933 44.073622 
L 367.290665 44.073622 
L 367.290665 264.716 
L 367.600937 264.716 
L 367.630608 42.316026 
L 371.139389 42.316026 
L 371.139389 264.716 
L 371.447861 264.716 
L 371.477615 43.535221 
L 371.723984 43.535221 
L 371.723984 23.910153 
L 371.72551 264.716 
L 377.352898 264.716 
L 377.352898 264.716 
" style="fill:none;stroke:#ff0000;stroke-linecap:square;stroke-width:1.5;"/>
   </g>
   <g id="line2d_19">
    <path clip-path="url(#p0b8e111d0a)" d="M 52.698349 264.716 
L 52.914787 179.958216 
L 80.95623 179.958216 
L 80.95623 264.716 
L 81.275398 264.716 
L 81.33194 34.751359 
L 83.463722 34.751359 
L 83.463722 264.716 
L 83.769478 264.716 
L 83.769478 246.613383 
L 84.096756 246.613383 
L 84.096756 28.566632 
L 84.113037 28.566632 
L 84.874352 28.566632 
L 84.874352 264.716 
L 85.181641 264.716 
L 85.181641 246.526466 
L 85.319794 246.526466 
L 85.319794 38.21151 
L 87.995201 38.21151 
L 87.995201 264.716 
L 88.298424 264.716 
L 88.298424 246.756008 
L 88.463486 246.756008 
L 88.463486 39.450582 
L 91.33564 39.450582 
L 91.33564 264.716 
L 91.631645 264.716 
L 91.631645 247.164634 
L 91.796669 247.164634 
L 91.796669 44.365311 
L 95.547783 44.365311 
L 95.547783 264.716 
L 95.857285 264.716 
L 95.857285 246.401341 
L 96.130669 246.401341 
L 96.130669 29.063677 
L 96.197098 29.063677 
L 97.046539 29.063677 
L 97.046539 264.716 
L 97.323555 264.716 
L 97.323555 248.237969 
L 97.515884 248.237969 
L 97.515884 55.726706 
L 103.273552 55.726706 
L 103.273552 264.716 
L 103.578506 264.716 
L 103.578506 246.658591 
L 104.446968 246.658591 
L 104.446968 27.230555 
L 104.448586 264.716 
L 104.774498 264.716 
L 104.774498 245.473547 
L 104.881454 245.473547 
L 104.939651 245.473547 
L 104.939651 24.026082 
L 105.054031 24.026082 
L 105.054031 264.716 
L 107.566414 264.716 
L 107.566414 121.891541 
L 107.651291 121.891541 
L 107.731445 121.891541 
L 107.731445 35.711714 
L 107.732994 264.716 
L 112.468895 264.716 
L 112.468895 47.319735 
L 112.470688 264.716 
L 112.606789 264.716 
L 112.606789 256.202233 
L 112.687126 256.202233 
L 117.046234 256.202233 
L 117.046234 46.415475 
L 117.047897 264.716 
L 117.23838 264.716 
L 117.23838 253.128644 
L 117.264336 253.128644 
L 121.569664 253.128644 
L 121.572189 46.112173 
L 121.572189 264.716 
L 122.221634 264.716 
L 122.221634 227.187474 
L 122.221504 227.187474 
L 124.957062 227.187474 
L 124.957062 39.701137 
L 124.958687 264.716 
L 127.665092 264.716 
L 127.665092 110.924856 
L 127.772377 110.924856 
L 127.802887 110.924856 
L 127.802887 36.65226 
L 127.80442 264.716 
L 130.186378 264.716 
L 130.186378 129.263429 
L 130.351486 129.263429 
L 130.351486 34.976666 
L 130.353035 264.716 
L 130.679062 264.716 
L 130.679062 245.467714 
L 130.785912 245.467714 
L 131.033371 245.467714 
L 131.03495 24.450061 
L 131.03495 264.716 
L 131.333527 264.716 
L 131.333527 247.0188 
L 135.395058 247.0188 
L 135.395058 45.20058 
L 135.398628 264.716 
L 135.586571 264.716 
L 135.586571 253.272436 
L 135.615067 253.272436 
L 142.217705 253.272436 
L 142.217705 59.066879 
L 142.219933 264.716 
L 142.436905 264.716 
L 142.436905 251.631516 
L 147.552437 251.631516 
L 147.552437 50.684018 
L 147.554131 264.716 
L 147.690468 264.716 
L 147.690468 256.189108 
L 147.770569 256.189108 
L 151.616272 256.189108 
L 151.616272 43.52033 
L 151.61805 264.716 
L 151.781219 264.716 
L 151.781219 254.672438 
L 151.834488 254.672438 
L 154.732986 254.672438 
L 154.734756 38.178983 
L 154.734756 264.716 
L 154.870621 264.716 
L 154.870621 256.215649 
L 154.951195 256.215649 
L 156.415619 256.215649 
L 156.415619 75.189342 
L 156.466263 75.189342 
L 156.580589 75.189342 
L 156.580589 31.022394 
L 156.582222 264.716 
L 156.880943 264.716 
L 156.880943 247.010925 
L 160.563026 247.010925 
L 160.563026 43.061638 
L 160.564629 264.716 
L 160.863373 264.716 
L 160.863373 247.009467 
L 166.357903 247.009467 
L 166.357903 53.282322 
L 166.359535 264.716 
L 166.495804 264.716 
L 166.495804 256.192899 
L 166.575974 256.192899 
L 170.611008 256.192899 
L 170.612701 44.588011 
L 170.612701 264.716 
L 171.019279 264.716 
L 171.019279 240.914498 
L 171.04557 240.914498 
L 193.180328 240.914498 
L 193.180328 147.87429 
L 193.183426 264.716 
L 193.560921 264.716 
L 193.560921 242.558626 
L 193.616302 242.558626 
L 216.424835 242.558626 
L 216.424835 151.673753 
L 216.426811 264.716 
L 217.076752 264.716 
L 217.076752 227.159182 
L 217.268585 227.159182 
L 217.268585 25.360432 
L 217.270149 264.716 
L 217.596153 264.716 
L 217.596153 245.468589 
L 217.703026 245.468589 
L 217.842415 245.468589 
L 217.842415 23.840635 
L 217.843971 264.716 
L 218.142662 264.716 
L 218.142662 247.012383 
L 221.527161 247.012383 
L 221.527161 41.383395 
L 221.528755 264.716 
L 221.827454 264.716 
L 221.827454 247.0118 
L 225.428154 247.0118 
L 225.428154 42.602626 
L 225.429825 264.716 
L 225.75563 264.716 
L 225.75563 245.480256 
L 225.862701 245.480256 
L 227.949768 245.480256 
L 227.949768 34.82372 
L 227.951447 264.716 
L 228.250153 264.716 
L 228.250153 247.011508 
L 228.415085 247.011508 
L 228.415085 42.5298 
L 231.838295 42.5298 
L 231.838295 264.716 
L 232.15136 264.716 
L 232.15136 246.20009 
L 232.316139 246.20009 
L 232.316139 32.782436 
L 233.996391 32.782436 
L 233.996391 264.716 
L 234.294052 264.716 
L 234.294052 247.071008 
L 234.459 247.071008 
L 234.459 43.243722 
L 238.009888 43.243722 
L 238.009888 264.716 
L 238.303467 264.716 
L 238.303467 247.301717 
L 238.468544 247.301717 
L 238.468544 46.010282 
L 242.513931 46.010282 
L 242.513931 264.716 
L 242.79969 264.716 
L 242.79969 247.743593 
L 243.560074 247.743593 
L 243.560074 26.51285 
L 243.561668 264.716 
L 243.914581 264.716 
L 243.914581 243.947545 
L 243.994545 243.947545 
L 244.106514 243.947545 
L 244.106514 23.686001 
L 244.108063 264.716 
L 244.40686 264.716 
L 244.40686 247.00655 
L 244.977783 247.00655 
L 244.977783 25.518004 
L 244.979401 264.716 
L 245.332176 264.716 
L 245.332176 243.955711 
L 245.412277 243.955711 
L 248.283791 243.955711 
L 248.283791 39.247275 
L 248.285385 264.716 
L 248.638077 264.716 
L 248.638077 243.960086 
L 248.718262 243.960086 
L 248.830269 243.960086 
L 248.831818 23.686234 
L 248.831818 264.716 
L 249.130501 264.716 
L 249.130501 247.013258 
L 249.728394 247.013258 
L 249.728394 25.669437 
L 249.730263 264.716 
L 250.055588 264.716 
L 250.055588 245.507089 
L 250.163139 245.507089 
L 250.193932 245.507089 
L 250.193932 25.944571 
L 250.675812 25.944571 
L 250.675812 264.716 
L 252.306839 264.716 
L 252.306839 171.706544 
L 252.40731 171.706544 
L 252.471527 171.706544 
L 252.471527 30.739782 
L 252.473114 264.716 
L 254.882248 264.716 
L 254.882248 127.726927 
L 255.020248 127.726927 
L 255.020248 34.977102 
L 255.021805 264.716 
L 255.942818 264.716 
L 255.942818 211.837614 
L 256.107689 211.837614 
L 256.107689 26.736973 
L 256.109245 264.716 
L 257.219566 264.716 
L 257.219566 201.138096 
L 257.357887 201.138096 
L 257.357887 27.654793 
L 257.359451 264.716 
L 259.984589 264.716 
L 259.984589 115.518322 
L 260.12249 115.518322 
L 260.12249 36.194558 
L 260.124046 264.716 
L 263.940231 264.716 
L 264.019928 48.19833 
L 264.104881 48.19833 
L 264.104881 43.061841 
L 264.106438 264.716 
L 266.84034 264.716 
L 266.84034 109.370853 
L 266.920135 109.370853 
L 266.978058 109.370853 
L 266.978058 36.806865 
L 266.979599 264.716 
L 268.793564 264.716 
L 268.793564 161.367235 
L 268.931641 161.367235 
L 268.931641 31.621287 
L 268.933189 264.716 
L 271.423271 264.716 
L 271.423271 123.151544 
L 271.530441 123.151544 
L 271.588104 123.151544 
L 271.588104 35.58487 
L 271.589943 264.716 
L 272.538017 264.716 
L 272.538017 210.308403 
L 272.702904 210.308403 
L 272.702904 26.889657 
L 272.70446 264.716 
L 276.060265 264.716 
L 276.060265 74.219709 
L 276.167465 74.219709 
L 276.198151 74.219709 
L 276.198151 40.314782 
L 276.199699 264.716 
L 276.985489 264.716 
L 276.985489 219.481044 
L 277.065453 219.481044 
L 277.150467 219.481044 
L 277.150467 25.975038 
L 277.152016 264.716 
L 279.317657 264.716 
L 279.317657 141.489825 
L 279.482582 141.489825 
L 279.482582 33.755835 
L 279.484161 264.716 
L 283.327003 264.716 
L 283.327003 46.691578 
L 283.380043 46.691578 
L 283.464989 46.691578 
L 283.464989 43.061812 
L 283.466545 264.716 
L 289.068207 264.716 
L 289.068207 52.201807 
L 289.06987 264.716 
L 293.047821 264.716 
L 293.047821 43.045546 
L 293.049507 264.716 
L 293.239899 264.716 
L 293.239899 253.133894 
L 293.265945 253.133894 
L 297.490379 253.133894 
L 297.490379 45.656013 
L 297.493423 264.716 
L 297.627899 264.716 
L 297.627899 256.294399 
L 297.709862 256.294399 
L 298.198906 256.294399 
L 298.198906 131.187181 
L 298.363731 131.187181 
L 298.363731 25.521293 
L 298.36528 264.716 
L 298.82653 264.716 
L 298.82653 237.824576 
L 298.964455 237.824576 
L 298.964455 23.992388 
L 298.966019 264.716 
L 301.7267 264.716 
L 301.7267 107.8571 
L 301.779709 107.8571 
L 301.864563 107.8571 
L 301.864563 36.958705 
L 301.866142 264.716 
L 303.869522 264.716 
L 303.869522 150.660716 
L 304.007301 150.660716 
L 304.007301 32.687775 
L 304.00885 264.716 
L 305.444122 264.716 
L 305.523918 182.77123 
L 305.636261 182.77123 
L 305.636261 29.79068 
L 305.63781 264.716 
L 306.233757 264.716 
L 306.233757 230.210896 
L 306.287125 230.210896 
L 306.399094 230.210896 
L 306.399094 24.906541 
L 306.400635 264.716 
L 306.753456 264.716 
L 306.833511 243.953086 
L 310.056625 243.953086 
L 310.056625 41.229984 
L 310.058235 264.716 
L 310.357216 264.716 
L 310.357216 246.99605 
L 314.877975 246.99605 
L 314.877975 47.792511 
L 314.879654 264.716 
L 317.802322 264.716 
L 317.802322 98.701376 
L 317.909782 98.701376 
L 317.940254 98.701376 
L 317.940254 37.872568 
L 317.941833 264.716 
L 319.863762 264.716 
L 319.863762 155.264683 
L 319.889771 155.264683 
L 320.002029 155.264683 
L 320.002029 32.231207 
L 320.003578 264.716 
L 323.007683 264.716 
L 323.007683 94.098577 
L 323.033707 94.098577 
L 323.172783 94.098577 
L 323.172783 38.484991 
L 323.174355 264.716 
L 323.500046 264.716 
L 323.500046 245.486381 
L 323.607231 245.486381 
L 323.665077 245.486381 
L 323.665077 24.18738 
L 323.808159 24.18738 
L 323.808159 264.716 
L 324.100571 264.716 
L 324.100571 247.367342 
L 324.238441 247.367342 
L 324.238441 48.337557 
L 324.241035 48.337557 
L 328.724892 48.337557 
L 328.724892 264.716 
L 329.056923 264.716 
L 329.086563 27.530036 
L 329.157768 27.530036 
L 329.951462 27.530036 
L 329.951462 264.716 
L 334.311058 264.716 
L 334.311058 45.197728 
L 334.312798 264.716 
L 334.503082 264.716 
L 334.503082 253.140019 
L 334.529236 253.140019 
L 339.050835 253.140019 
L 339.050835 47.331724 
L 339.052513 264.716 
L 339.919273 264.716 
L 339.919273 214.904203 
L 340.056999 214.904203 
L 340.056999 26.277961 
L 340.058594 264.716 
L 340.384659 264.716 
L 340.384659 245.465089 
L 340.49147 245.465089 
L 343.958488 245.465089 
L 343.958488 42.60539 
L 343.960106 264.716 
L 344.28582 264.716 
L 344.28582 245.485214 
L 344.392982 245.485214 
L 346.642174 245.485214 
L 346.642174 35.737961 
L 346.643753 264.716 
L 346.969604 264.716 
L 346.969604 245.477631 
L 347.07663 245.477631 
L 351.300987 245.477631 
L 351.300987 46.876087 
L 351.302605 264.716 
L 351.465996 264.716 
L 351.465996 254.659897 
L 351.519043 254.659897 
L 351.820488 254.659897 
L 351.820488 123.773328 
L 351.958237 123.773328 
L 351.958237 24.310734 
L 351.959778 264.716 
L 355.964905 264.716 
L 355.964905 43.198812 
L 355.966522 264.716 
L 356.103081 264.716 
L 356.103081 256.176274 
L 356.182961 256.176274 
L 361.976753 256.176274 
L 361.976753 54.505772 
L 361.978447 264.716 
L 362.141693 264.716 
L 362.141693 254.668063 
L 362.194885 254.668063 
L 363.172516 254.668063 
L 363.283432 27.97247 
L 363.284981 27.97247 
L 363.284981 264.716 
L 367.317101 264.716 
L 367.317101 43.35103 
L 367.318726 264.716 
L 367.45507 264.716 
L 367.45507 256.188233 
L 367.535164 256.188233 
L 371.164352 256.188233 
L 371.164352 42.299411 
L 371.16597 264.716 
L 371.356415 264.716 
L 371.356415 253.130686 
L 371.382408 253.130686 
L 371.737724 253.130686 
L 371.737724 103.87156 
L 371.815285 103.87156 
L 377.226234 103.87156 
L 377.226234 103.87156 
" style="fill:none;stroke:#0000ff;stroke-linecap:square;stroke-width:1.5;"/>
   </g>
   <g id="line2d_20">
    <path clip-path="url(#p0b8e111d0a)" d="M 52.698349 264.716 
L 52.914787 233.525136 
L 80.828331 233.525136 
L 80.828331 179.238682 
L 80.831657 264.716 
L 80.993126 264.716 
L 80.993126 254.768397 
L 81.048096 254.768397 
L 83.322662 254.768397 
L 83.322662 34.66056 
L 83.324524 264.716 
L 83.487541 264.716 
L 83.487541 254.680897 
L 83.540962 254.680897 
L 84.707817 254.680897 
L 84.707817 75.09048 
L 84.899757 75.09048 
L 84.899757 29.496428 
L 84.901443 264.716 
L 87.851753 264.716 
L 87.851753 97.139207 
L 87.93158 97.139207 
L 88.016647 97.139207 
L 88.016647 38.180438 
L 88.018402 264.716 
L 91.184738 264.716 
L 91.184738 84.928852 
L 91.264977 84.928852 
L 91.322479 84.928852 
L 91.322479 39.24553 
L 91.324158 264.716 
L 95.410637 264.716 
L 95.410637 43.657562 
L 95.412422 264.716 
L 95.575584 264.716 
L 95.575584 254.672438 
L 95.62886 254.672438 
L 96.904076 254.672438 
L 96.904076 68.872232 
L 96.927483 68.872232 
L 97.068893 68.872232 
L 97.068893 29.954567 
L 97.070595 264.716 
L 103.132179 264.716 
L 103.132179 54.795368 
L 103.134003 264.716 
L 103.269836 264.716 
L 103.269836 256.217399 
L 103.350441 256.217399 
L 104.300636 256.217399 
L 104.300636 104.273266 
L 104.492867 104.273266 
L 104.492867 28.276325 
L 104.494576 264.716 
L 104.901176 264.716 
L 104.901176 240.913331 
L 104.927452 240.913331 
L 107.284927 240.913331 
L 107.284927 36.34858 
L 107.286697 264.716 
L 107.612236 264.716 
L 107.612236 245.495131 
L 107.719574 245.495131 
L 112.160255 245.495131 
L 112.160255 48.095958 
L 112.16272 264.716 
L 112.352287 264.716 
L 112.352287 253.179977 
L 112.37915 253.179977 
L 116.737648 253.179977 
L 116.737648 46.411983 
L 116.739403 264.716 
L 116.902885 264.716 
L 116.902885 254.654355 
L 116.955841 254.654355 
L 121.288322 254.654355 
L 121.288322 46.265322 
L 121.290077 264.716 
L 121.4263 264.716 
L 121.4263 256.195524 
L 121.506516 256.195524 
L 124.675522 256.195524 
L 124.675522 39.704367 
L 124.677292 264.716 
L 124.867439 264.716 
L 124.867439 253.147311 
L 124.89373 253.147311 
L 127.359299 253.147311 
L 127.359299 35.73767 
L 127.361061 264.716 
L 127.659492 264.716 
L 127.659492 247.026967 
L 129.908058 247.026967 
L 129.908058 34.976317 
L 129.909798 264.716 
L 130.235069 264.716 
L 130.235069 245.510297 
L 130.342674 245.510297 
L 130.40007 245.510297 
L 130.40007 24.476393 
L 130.595055 24.476393 
L 130.595055 264.716 
L 130.889694 264.716 
L 130.889694 247.241342 
L 131.055 247.241342 
L 131.055 45.27184 
L 134.967911 45.27184 
L 134.967911 264.716 
L 135.251373 264.716 
L 135.307877 59.017005 
L 141.778534 59.017005 
L 141.778534 264.716 
L 142.074341 264.716 
L 142.130974 50.625037 
L 147.100906 50.625037 
L 147.100906 264.716 
L 147.409447 264.716 
L 147.439087 43.496049 
L 151.15876 43.496049 
L 151.15876 264.716 
L 151.472923 264.716 
L 151.529762 38.136589 
L 154.266342 38.136589 
L 154.266342 264.716 
L 154.589905 264.716 
L 154.673981 30.211057 
L 154.699219 30.211057 
L 155.968422 30.211057 
L 155.968422 264.716 
L 156.299484 264.716 
L 156.299484 245.183047 
L 156.401299 245.183047 
L 156.437622 245.183047 
L 156.439308 23.259435 
L 156.439308 264.716 
L 160.281998 264.716 
L 160.281998 46.700619 
L 160.33519 46.700619 
L 160.419739 46.700619 
L 160.419739 43.059542 
L 160.421501 264.716 
L 166.050064 264.716 
L 166.051865 52.353531 
L 166.051865 264.716 
L 166.269211 264.716 
L 166.269211 251.610225 
L 170.330048 251.610225 
L 170.330048 44.7386 
L 170.331825 264.716 
L 170.467857 264.716 
L 170.467857 256.206024 
L 170.548264 256.206024 
L 170.741104 256.206024 
L 170.741104 146.954702 
L 170.764702 146.954702 
L 192.73645 146.954702 
L 192.73645 264.716 
L 193.036835 264.716 
L 193.123466 22.796 
L 193.125145 264.716 
L 216.149483 264.716 
L 216.149483 150.449663 
L 216.151611 264.716 
L 216.287392 264.716 
L 216.287392 256.220316 
L 216.36805 256.220316 
L 216.966469 256.220316 
L 216.966469 124.188368 
L 217.017365 124.188368 
L 217.131462 124.188368 
L 217.131462 26.139041 
L 217.133141 264.716 
L 217.5401 264.716 
L 217.5401 240.893206 
L 217.566017 240.893206 
L 217.705109 240.893206 
L 217.705109 23.838947 
L 217.706779 264.716 
L 221.251968 264.716 
L 221.251968 63.515524 
L 221.390129 63.515524 
L 221.390129 41.384297 
L 221.391808 264.716 
L 225.126411 264.716 
L 225.126411 52.809588 
L 225.291199 52.809588 
L 225.291199 42.602538 
L 225.292908 264.716 
L 227.647545 264.716 
L 227.647545 130.806932 
L 227.673721 130.806932 
L 227.812691 130.806932 
L 227.812691 34.822876 
L 227.814392 264.716 
L 228.113174 264.716 
L 228.113174 247.007425 
L 231.686798 247.007425 
L 231.68856 42.450407 
L 231.68856 264.716 
L 232.014328 264.716 
L 232.014328 245.482006 
L 232.121437 245.482006 
L 233.856804 245.482006 
L 233.856804 32.840488 
L 233.858536 264.716 
L 234.184143 264.716 
L 234.184143 245.491339 
L 234.291412 245.491339 
L 237.86628 245.491339 
L 237.86628 43.213565 
L 237.868019 264.716 
L 238.193703 264.716 
L 238.193703 245.486964 
L 238.300896 245.486964 
L 242.36261 245.486964 
L 242.36261 45.958965 
L 242.364418 264.716 
L 242.50071 264.716 
L 242.50071 256.191441 
L 242.580856 256.191441 
L 243.450073 256.191441 
L 243.450073 108.564255 
L 243.642174 108.564255 
L 243.642174 27.818942 
L 243.643867 264.716 
L 243.969589 264.716 
L 243.969589 245.484339 
L 244.076744 245.484339 
L 244.107841 245.484339 
L 244.107841 25.676293 
L 244.541908 25.676293 
L 244.541908 264.716 
L 244.841087 264.716 
L 244.841087 246.984967 
L 245.059845 246.984967 
L 245.059845 39.168013 
L 247.832436 39.168013 
L 247.832436 264.716 
L 248.174187 264.716 
L 248.174187 244.579004 
L 248.265312 244.579004 
L 248.366066 244.579004 
L 248.366066 23.62274 
L 248.367744 264.716 
L 248.69339 264.716 
L 248.69339 245.489006 
L 248.800621 245.489006 
L 248.831413 245.489006 
L 248.831413 25.745235 
L 249.277817 25.745235 
L 249.277817 264.716 
L 249.618805 264.716 
L 249.618805 244.621588 
L 249.710693 244.621588 
L 249.756584 244.621588 
L 249.756584 23.313414 
L 249.758247 264.716 
L 250.544014 264.716 
L 250.544014 219.482211 
L 250.624001 219.482211 
L 252.007782 219.482211 
L 252.007782 33.298889 
L 252.009491 264.716 
L 252.335159 264.716 
L 252.335159 245.487839 
L 252.442368 245.487839 
L 254.58316 245.487839 
L 254.58316 35.126731 
L 254.584915 264.716 
L 254.883438 264.716 
L 254.883438 247.0223 
L 255.670837 247.0223 
L 255.672577 26.737177 
L 255.672577 264.716 
L 255.970947 264.716 
L 255.970947 247.030758 
L 256.920883 247.030758 
L 256.920883 27.652873 
L 256.922585 264.716 
L 257.221077 264.716 
L 257.221077 247.023758 
L 259.685654 247.023758 
L 259.685654 36.194761 
L 259.687393 264.716 
L 259.986015 264.716 
L 259.986015 247.016175 
L 263.668282 247.016175 
L 263.668282 43.062132 
L 263.670036 264.716 
L 263.968597 264.716 
L 263.968597 247.019967 
L 266.541542 247.019967 
L 266.541542 36.806254 
L 266.543343 264.716 
L 266.841629 264.716 
L 266.841629 247.035425 
L 268.49485 247.035425 
L 268.49485 31.61826 
L 268.496582 264.716 
L 268.794823 264.716 
L 268.794823 247.03805 
L 271.151306 247.03805 
L 271.151306 35.583793 
L 271.153023 264.716 
L 271.451553 264.716 
L 271.451553 247.021717 
L 272.26619 247.021717 
L 272.267891 26.890792 
L 272.267891 264.716 
L 272.566429 264.716 
L 272.566429 247.021133 
L 275.761566 247.021133 
L 275.761566 40.314724 
L 275.76329 264.716 
L 276.061691 264.716 
L 276.061691 247.029008 
L 276.713898 247.029008 
L 276.713898 25.974136 
L 276.715591 264.716 
L 277.014343 264.716 
L 277.014343 247.009175 
L 279.019005 247.009175 
L 279.019005 33.602714 
L 279.020737 264.716 
L 279.346153 264.716 
L 279.346153 245.502131 
L 279.453613 245.502131 
L 283.028221 245.502131 
L 283.028221 43.21211 
L 283.029968 264.716 
L 283.328575 264.716 
L 283.328575 247.017633 
L 288.769493 247.017633 
L 288.769493 52.979224 
L 288.771309 264.716 
L 288.961197 264.716 
L 288.961197 253.162186 
L 288.987747 253.162186 
L 292.752022 253.162186 
L 292.752022 43.061114 
L 292.753769 264.716 
L 292.889847 264.716 
L 292.889847 256.203691 
L 292.970207 256.203691 
L 297.19429 256.203691 
L 297.196198 45.654063 
L 297.196198 264.716 
L 297.737694 264.716 
L 297.737694 233.28886 
L 297.845512 233.28886 
L 297.902809 233.28886 
L 297.902809 24.598235 
L 297.904495 264.716 
L 298.230133 264.716 
L 298.230133 245.489297 
L 298.337372 245.489297 
L 298.530495 245.489297 
L 298.530495 24.143675 
L 298.532188 264.716 
L 298.830872 264.716 
L 298.830872 247.012675 
L 301.430878 247.012675 
L 301.430878 36.959549 
L 301.433701 264.716 
L 301.731049 264.716 
L 301.731049 247.088509 
L 303.573532 247.088509 
L 303.573532 32.680267 
L 303.575264 264.716 
L 303.873703 264.716 
L 303.873703 247.026967 
L 305.175156 247.026967 
L 305.176895 29.635494 
L 305.176895 264.716 
L 305.502449 264.716 
L 305.502449 245.494256 
L 305.609772 245.494256 
L 305.965401 245.494256 
L 305.965401 25.060011 
L 305.967117 264.716 
L 306.265404 264.716 
L 306.265404 247.035133 
L 306.457504 247.035133 
L 306.457504 41.278221 
L 309.632011 41.278221 
L 309.632011 264.716 
L 309.923149 264.716 
L 309.923149 247.439092 
L 310.088455 247.439092 
L 310.088455 47.649719 
L 314.426529 47.649719 
L 314.426529 264.716 
L 314.744431 264.716 
L 314.774155 37.13011 
L 317.355476 37.13011 
L 317.355476 264.716 
L 317.671692 264.716 
L 317.671692 246.021882 
L 317.809761 246.021882 
L 317.809761 32.14918 
L 319.401329 32.14918 
L 319.401329 264.716 
L 319.706146 264.716 
L 319.706146 246.665883 
L 319.871033 246.665883 
L 319.871033 38.376616 
L 322.55143 38.376616 
L 322.55143 264.716 
L 322.876869 264.716 
L 322.876869 245.500672 
L 322.984306 245.500672 
L 323.069046 245.500672 
L 323.069046 23.532444 
L 323.070724 264.716 
L 323.396339 264.716 
L 323.396339 245.490756 
L 323.503601 245.490756 
L 323.669571 245.490756 
L 323.669571 23.990525 
L 323.67128 264.716 
L 323.943123 264.716 
L 323.943123 248.530219 
L 328.599236 248.530219 
L 328.599236 48.402722 
L 328.601006 264.716 
L 329.819374 264.716 
L 329.819374 195.031168 
L 329.899635 195.031168 
L 334.042252 195.031168 
L 334.042252 51.297198 
L 334.044075 264.716 
L 334.18045 264.716 
L 334.18045 256.186774 
L 334.260513 256.186774 
L 338.755447 256.186774 
L 338.755447 47.181426 
L 338.75721 264.716 
L 338.920563 264.716 
L 338.920563 254.661938 
L 338.973648 254.661938 
L 339.761917 254.661938 
L 339.761917 96.279952 
L 339.839401 96.279952 
L 339.926651 96.279952 
L 339.926651 27.208149 
L 339.928322 264.716 
L 343.663116 264.716 
L 343.663116 52.798797 
L 343.827927 52.798797 
L 343.827927 42.603761 
L 343.829605 264.716 
L 346.374054 264.716 
L 346.374054 120.079122 
L 346.426865 120.079122 
L 346.512016 120.079122 
L 346.512016 35.739911 
L 346.513672 264.716 
L 351.005508 264.716 
L 351.007286 45.943397 
L 351.007286 264.716 
L 351.360092 264.716 
L 351.440163 243.953961 
L 351.52491 243.953961 
L 351.52491 23.532474 
L 351.526581 264.716 
L 351.825371 264.716 
L 351.825371 247.006842 
L 355.669777 247.006842 
L 355.669777 43.977421 
L 355.671532 264.716 
L 355.861794 264.716 
L 355.861794 253.140894 
L 355.88797 253.140894 
L 361.681198 253.140894 
L 361.681198 54.502571 
L 361.682945 264.716 
L 362.712158 264.716 
L 362.712158 205.722228 
L 362.765137 205.722228 
L 362.84993 205.722228 
L 362.84993 27.194297 
L 362.851616 264.716 
L 363.150497 264.716 
L 363.150497 247.0013 
L 367.022072 247.0013 
L 367.022072 44.131123 
L 367.023773 264.716 
L 367.214096 264.716 
L 367.214096 253.137686 
L 367.240211 253.137686 
L 370.869034 253.137686 
L 370.869034 42.297345 
L 370.87085 264.716 
L 371.033913 264.716 
L 371.033913 254.678272 
L 371.087288 254.678272 
L 371.469429 254.678272 
L 371.469429 119.414788 
L 371.520164 119.414788 
L 377.147545 119.414788 
L 377.147545 119.414788 
" style="fill:none;stroke:#008000;stroke-linecap:square;stroke-width:1.5;"/>
   </g>
   <g id="patch_3">
    <path d="M 36.465625 276.812 
L 36.465625 10.7 
" style="fill:none;stroke:#000000;stroke-linecap:square;stroke-linejoin:miter;stroke-width:0.8;"/>
   </g>
   <g id="patch_4">
    <path d="M 393.585625 276.812 
L 393.585625 10.7 
" style="fill:none;stroke:#000000;stroke-linecap:square;stroke-linejoin:miter;stroke-width:0.8;"/>
   </g>
   <g id="patch_5">
    <path d="M 36.465622 276.812 
L 393.585617 276.812 
" style="fill:none;stroke:#000000;stroke-linecap:square;stroke-linejoin:miter;stroke-width:0.8;"/>
   </g>
   <g id="patch_6">
    <path d="M 36.465622 10.7 
L 393.585617 10.7 
" style="fill:none;stroke:#000000;stroke-linecap:square;stroke-linejoin:miter;stroke-width:0.8;"/>
   </g>
  </g>
 </g>
 <defs>
  <clipPath id="p0b8e111d0a">
   <rect height="266.112" width="357.12" x="36.465625" y="10.7"/>
  </clipPath>
 </defs>
</svg>
