<?xml version="1.0" encoding="utf-8" standalone="no"?>
<!DOCTYPE svg PUBLIC "-//W3C//DTD SVG 1.1//EN"
  "http://www.w3.org/Graphics/SVG/1.1/DTD/svg11.dtd">
<!-- Created with matplotlib (https://matplotlib.org/) -->
<svg height="313.36825pt" version="1.1" viewBox="0 0 404.285625 313.36825" width="404.285625pt" xmlns="http://www.w3.org/2000/svg" xmlns:xlink="http://www.w3.org/1999/xlink">
 <defs>
  <style type="text/css">
*{stroke-linecap:butt;stroke-linejoin:round;}
  </style>
 </defs>
 <g id="figure_1">
  <g id="patch_1">
   <path d="M 0 313.36825 
L 404.285625 313.36825 
L 404.285625 0 
L 0 0 
z
" style="fill:#ffffff;"/>
  </g>
  <g id="axes_1">
   <g id="patch_2">
    <path d="M 36.465625 276.812 
L 393.585625 276.812 
L 393.585625 10.7 
L 36.465625 10.7 
z
" style="fill:#ffffff;"/>
   </g>
   <g id="matplotlib.axis_1">
    <g id="xtick_1">
     <g id="line2d_1">
      <defs>
       <path d="M 0 0 
L 0 3.5 
" id="mfd07c44bad" style="stroke:#000000;stroke-width:0.8;"/>
      </defs>
      <g>
       <use style="stroke:#000000;stroke-width:0.8;" x="74.349297" xlink:href="#mfd07c44bad" y="276.812"/>
      </g>
     </g>
     <g id="text_1">
      <!-- 30 -->
      <defs>
       <path d="M 40.578125 39.3125 
Q 47.65625 37.796875 51.625 33 
Q 55.609375 28.21875 55.609375 21.1875 
Q 55.609375 10.40625 48.1875 4.484375 
Q 40.765625 -1.421875 27.09375 -1.421875 
Q 22.515625 -1.421875 17.65625 -0.515625 
Q 12.796875 0.390625 7.625 2.203125 
L 7.625 11.71875 
Q 11.71875 9.328125 16.59375 8.109375 
Q 21.484375 6.890625 26.8125 6.890625 
Q 36.078125 6.890625 40.9375 10.546875 
Q 45.796875 14.203125 45.796875 21.1875 
Q 45.796875 27.640625 41.28125 31.265625 
Q 36.765625 34.90625 28.71875 34.90625 
L 20.21875 34.90625 
L 20.21875 43.015625 
L 29.109375 43.015625 
Q 36.375 43.015625 40.234375 45.921875 
Q 44.09375 48.828125 44.09375 54.296875 
Q 44.09375 59.90625 40.109375 62.90625 
Q 36.140625 65.921875 28.71875 65.921875 
Q 24.65625 65.921875 20.015625 65.03125 
Q 15.375 64.15625 9.8125 62.3125 
L 9.8125 71.09375 
Q 15.4375 72.65625 20.34375 73.4375 
Q 25.25 74.21875 29.59375 74.21875 
Q 40.828125 74.21875 47.359375 69.109375 
Q 53.90625 64.015625 53.90625 55.328125 
Q 53.90625 49.265625 50.4375 45.09375 
Q 46.96875 40.921875 40.578125 39.3125 
z
" id="DejaVuSans-51"/>
       <path d="M 31.78125 66.40625 
Q 24.171875 66.40625 20.328125 58.90625 
Q 16.5 51.421875 16.5 36.375 
Q 16.5 21.390625 20.328125 13.890625 
Q 24.171875 6.390625 31.78125 6.390625 
Q 39.453125 6.390625 43.28125 13.890625 
Q 47.125 21.390625 47.125 36.375 
Q 47.125 51.421875 43.28125 58.90625 
Q 39.453125 66.40625 31.78125 66.40625 
z
M 31.78125 74.21875 
Q 44.046875 74.21875 50.515625 64.515625 
Q 56.984375 54.828125 56.984375 36.375 
Q 56.984375 17.96875 50.515625 8.265625 
Q 44.046875 -1.421875 31.78125 -1.421875 
Q 19.53125 -1.421875 13.0625 8.265625 
Q 6.59375 17.96875 6.59375 36.375 
Q 6.59375 54.828125 13.0625 64.515625 
Q 19.53125 74.21875 31.78125 74.21875 
z
" id="DejaVuSans-48"/>
      </defs>
      <g transform="translate(67.986797 291.410437)scale(0.1 -0.1)">
       <use xlink:href="#DejaVuSans-51"/>
       <use x="63.623047" xlink:href="#DejaVuSans-48"/>
      </g>
     </g>
    </g>
    <g id="xtick_2">
     <g id="line2d_2">
      <g>
       <use style="stroke:#000000;stroke-width:0.8;" x="117.651199" xlink:href="#mfd07c44bad" y="276.812"/>
      </g>
     </g>
     <g id="text_2">
      <!-- 32 -->
      <defs>
       <path d="M 19.1875 8.296875 
L 53.609375 8.296875 
L 53.609375 0 
L 7.328125 0 
L 7.328125 8.296875 
Q 12.9375 14.109375 22.625 23.890625 
Q 32.328125 33.6875 34.8125 36.53125 
Q 39.546875 41.84375 41.421875 45.53125 
Q 43.3125 49.21875 43.3125 52.78125 
Q 43.3125 58.59375 39.234375 62.25 
Q 35.15625 65.921875 28.609375 65.921875 
Q 23.96875 65.921875 18.8125 64.3125 
Q 13.671875 62.703125 7.8125 59.421875 
L 7.8125 69.390625 
Q 13.765625 71.78125 18.9375 73 
Q 24.125 74.21875 28.421875 74.21875 
Q 39.75 74.21875 46.484375 68.546875 
Q 53.21875 62.890625 53.21875 53.421875 
Q 53.21875 48.921875 51.53125 44.890625 
Q 49.859375 40.875 45.40625 35.40625 
Q 44.1875 33.984375 37.640625 27.21875 
Q 31.109375 20.453125 19.1875 8.296875 
z
" id="DejaVuSans-50"/>
      </defs>
      <g transform="translate(111.288699 291.410437)scale(0.1 -0.1)">
       <use xlink:href="#DejaVuSans-51"/>
       <use x="63.623047" xlink:href="#DejaVuSans-50"/>
      </g>
     </g>
    </g>
    <g id="xtick_3">
     <g id="line2d_3">
      <g>
       <use style="stroke:#000000;stroke-width:0.8;" x="160.95311" xlink:href="#mfd07c44bad" y="276.812"/>
      </g>
     </g>
     <g id="text_3">
      <!-- 34 -->
      <defs>
       <path d="M 37.796875 64.3125 
L 12.890625 25.390625 
L 37.796875 25.390625 
z
M 35.203125 72.90625 
L 47.609375 72.90625 
L 47.609375 25.390625 
L 58.015625 25.390625 
L 58.015625 17.1875 
L 47.609375 17.1875 
L 47.609375 0 
L 37.796875 0 
L 37.796875 17.1875 
L 4.890625 17.1875 
L 4.890625 26.703125 
z
" id="DejaVuSans-52"/>
      </defs>
      <g transform="translate(154.59061 291.410437)scale(0.1 -0.1)">
       <use xlink:href="#DejaVuSans-51"/>
       <use x="63.623047" xlink:href="#DejaVuSans-52"/>
      </g>
     </g>
    </g>
    <g id="xtick_4">
     <g id="line2d_4">
      <g>
       <use style="stroke:#000000;stroke-width:0.8;" x="204.255013" xlink:href="#mfd07c44bad" y="276.812"/>
      </g>
     </g>
     <g id="text_4">
      <!-- 36 -->
      <defs>
       <path d="M 33.015625 40.375 
Q 26.375 40.375 22.484375 35.828125 
Q 18.609375 31.296875 18.609375 23.390625 
Q 18.609375 15.53125 22.484375 10.953125 
Q 26.375 6.390625 33.015625 6.390625 
Q 39.65625 6.390625 43.53125 10.953125 
Q 47.40625 15.53125 47.40625 23.390625 
Q 47.40625 31.296875 43.53125 35.828125 
Q 39.65625 40.375 33.015625 40.375 
z
M 52.59375 71.296875 
L 52.59375 62.3125 
Q 48.875 64.0625 45.09375 64.984375 
Q 41.3125 65.921875 37.59375 65.921875 
Q 27.828125 65.921875 22.671875 59.328125 
Q 17.53125 52.734375 16.796875 39.40625 
Q 19.671875 43.65625 24.015625 45.921875 
Q 28.375 48.1875 33.59375 48.1875 
Q 44.578125 48.1875 50.953125 41.515625 
Q 57.328125 34.859375 57.328125 23.390625 
Q 57.328125 12.15625 50.6875 5.359375 
Q 44.046875 -1.421875 33.015625 -1.421875 
Q 20.359375 -1.421875 13.671875 8.265625 
Q 6.984375 17.96875 6.984375 36.375 
Q 6.984375 53.65625 15.1875 63.9375 
Q 23.390625 74.21875 37.203125 74.21875 
Q 40.921875 74.21875 44.703125 73.484375 
Q 48.484375 72.75 52.59375 71.296875 
z
" id="DejaVuSans-54"/>
      </defs>
      <g transform="translate(197.892513 291.410437)scale(0.1 -0.1)">
       <use xlink:href="#DejaVuSans-51"/>
       <use x="63.623047" xlink:href="#DejaVuSans-54"/>
      </g>
     </g>
    </g>
    <g id="xtick_5">
     <g id="line2d_5">
      <g>
       <use style="stroke:#000000;stroke-width:0.8;" x="247.556915" xlink:href="#mfd07c44bad" y="276.812"/>
      </g>
     </g>
     <g id="text_5">
      <!-- 38 -->
      <defs>
       <path d="M 31.78125 34.625 
Q 24.75 34.625 20.71875 30.859375 
Q 16.703125 27.09375 16.703125 20.515625 
Q 16.703125 13.921875 20.71875 10.15625 
Q 24.75 6.390625 31.78125 6.390625 
Q 38.8125 6.390625 42.859375 10.171875 
Q 46.921875 13.96875 46.921875 20.515625 
Q 46.921875 27.09375 42.890625 30.859375 
Q 38.875 34.625 31.78125 34.625 
z
M 21.921875 38.8125 
Q 15.578125 40.375 12.03125 44.71875 
Q 8.5 49.078125 8.5 55.328125 
Q 8.5 64.0625 14.71875 69.140625 
Q 20.953125 74.21875 31.78125 74.21875 
Q 42.671875 74.21875 48.875 69.140625 
Q 55.078125 64.0625 55.078125 55.328125 
Q 55.078125 49.078125 51.53125 44.71875 
Q 48 40.375 41.703125 38.8125 
Q 48.828125 37.15625 52.796875 32.3125 
Q 56.78125 27.484375 56.78125 20.515625 
Q 56.78125 9.90625 50.3125 4.234375 
Q 43.84375 -1.421875 31.78125 -1.421875 
Q 19.734375 -1.421875 13.25 4.234375 
Q 6.78125 9.90625 6.78125 20.515625 
Q 6.78125 27.484375 10.78125 32.3125 
Q 14.796875 37.15625 21.921875 38.8125 
z
M 18.3125 54.390625 
Q 18.3125 48.734375 21.84375 45.5625 
Q 25.390625 42.390625 31.78125 42.390625 
Q 38.140625 42.390625 41.71875 45.5625 
Q 45.3125 48.734375 45.3125 54.390625 
Q 45.3125 60.0625 41.71875 63.234375 
Q 38.140625 66.40625 31.78125 66.40625 
Q 25.390625 66.40625 21.84375 63.234375 
Q 18.3125 60.0625 18.3125 54.390625 
z
" id="DejaVuSans-56"/>
      </defs>
      <g transform="translate(241.194415 291.410437)scale(0.1 -0.1)">
       <use xlink:href="#DejaVuSans-51"/>
       <use x="63.623047" xlink:href="#DejaVuSans-56"/>
      </g>
     </g>
    </g>
    <g id="xtick_6">
     <g id="line2d_6">
      <g>
       <use style="stroke:#000000;stroke-width:0.8;" x="290.858818" xlink:href="#mfd07c44bad" y="276.812"/>
      </g>
     </g>
     <g id="text_6">
      <!-- 40 -->
      <g transform="translate(284.496318 291.410437)scale(0.1 -0.1)">
       <use xlink:href="#DejaVuSans-52"/>
       <use x="63.623047" xlink:href="#DejaVuSans-48"/>
      </g>
     </g>
    </g>
    <g id="xtick_7">
     <g id="line2d_7">
      <g>
       <use style="stroke:#000000;stroke-width:0.8;" x="334.160721" xlink:href="#mfd07c44bad" y="276.812"/>
      </g>
     </g>
     <g id="text_7">
      <!-- 42 -->
      <g transform="translate(327.798221 291.410437)scale(0.1 -0.1)">
       <use xlink:href="#DejaVuSans-52"/>
       <use x="63.623047" xlink:href="#DejaVuSans-50"/>
      </g>
     </g>
    </g>
    <g id="xtick_8">
     <g id="line2d_8">
      <g>
       <use style="stroke:#000000;stroke-width:0.8;" x="377.462624" xlink:href="#mfd07c44bad" y="276.812"/>
      </g>
     </g>
     <g id="text_8">
      <!-- 44 -->
      <g transform="translate(371.100124 291.410437)scale(0.1 -0.1)">
       <use xlink:href="#DejaVuSans-52"/>
       <use x="63.623047" xlink:href="#DejaVuSans-52"/>
      </g>
     </g>
    </g>
    <g id="text_9">
     <!-- +1.5961601e9 -->
     <defs>
      <path d="M 46 62.703125 
L 46 35.5 
L 73.1875 35.5 
L 73.1875 27.203125 
L 46 27.203125 
L 46 0 
L 37.796875 0 
L 37.796875 27.203125 
L 10.59375 27.203125 
L 10.59375 35.5 
L 37.796875 35.5 
L 37.796875 62.703125 
z
" id="DejaVuSans-43"/>
      <path d="M 12.40625 8.296875 
L 28.515625 8.296875 
L 28.515625 63.921875 
L 10.984375 60.40625 
L 10.984375 69.390625 
L 28.421875 72.90625 
L 38.28125 72.90625 
L 38.28125 8.296875 
L 54.390625 8.296875 
L 54.390625 0 
L 12.40625 0 
z
" id="DejaVuSans-49"/>
      <path d="M 10.6875 12.40625 
L 21 12.40625 
L 21 0 
L 10.6875 0 
z
" id="DejaVuSans-46"/>
      <path d="M 10.796875 72.90625 
L 49.515625 72.90625 
L 49.515625 64.59375 
L 19.828125 64.59375 
L 19.828125 46.734375 
Q 21.96875 47.46875 24.109375 47.828125 
Q 26.265625 48.1875 28.421875 48.1875 
Q 40.625 48.1875 47.75 41.5 
Q 54.890625 34.8125 54.890625 23.390625 
Q 54.890625 11.625 47.5625 5.09375 
Q 40.234375 -1.421875 26.90625 -1.421875 
Q 22.3125 -1.421875 17.546875 -0.640625 
Q 12.796875 0.140625 7.71875 1.703125 
L 7.71875 11.625 
Q 12.109375 9.234375 16.796875 8.0625 
Q 21.484375 6.890625 26.703125 6.890625 
Q 35.15625 6.890625 40.078125 11.328125 
Q 45.015625 15.765625 45.015625 23.390625 
Q 45.015625 31 40.078125 35.4375 
Q 35.15625 39.890625 26.703125 39.890625 
Q 22.75 39.890625 18.8125 39.015625 
Q 14.890625 38.140625 10.796875 36.28125 
z
" id="DejaVuSans-53"/>
      <path d="M 10.984375 1.515625 
L 10.984375 10.5 
Q 14.703125 8.734375 18.5 7.8125 
Q 22.3125 6.890625 25.984375 6.890625 
Q 35.75 6.890625 40.890625 13.453125 
Q 46.046875 20.015625 46.78125 33.40625 
Q 43.953125 29.203125 39.59375 26.953125 
Q 35.25 24.703125 29.984375 24.703125 
Q 19.046875 24.703125 12.671875 31.3125 
Q 6.296875 37.9375 6.296875 49.421875 
Q 6.296875 60.640625 12.9375 67.421875 
Q 19.578125 74.21875 30.609375 74.21875 
Q 43.265625 74.21875 49.921875 64.515625 
Q 56.59375 54.828125 56.59375 36.375 
Q 56.59375 19.140625 48.40625 8.859375 
Q 40.234375 -1.421875 26.421875 -1.421875 
Q 22.703125 -1.421875 18.890625 -0.6875 
Q 15.09375 0.046875 10.984375 1.515625 
z
M 30.609375 32.421875 
Q 37.25 32.421875 41.125 36.953125 
Q 45.015625 41.5 45.015625 49.421875 
Q 45.015625 57.28125 41.125 61.84375 
Q 37.25 66.40625 30.609375 66.40625 
Q 23.96875 66.40625 20.09375 61.84375 
Q 16.21875 57.28125 16.21875 49.421875 
Q 16.21875 41.5 20.09375 36.953125 
Q 23.96875 32.421875 30.609375 32.421875 
z
" id="DejaVuSans-57"/>
      <path d="M 56.203125 29.59375 
L 56.203125 25.203125 
L 14.890625 25.203125 
Q 15.484375 15.921875 20.484375 11.0625 
Q 25.484375 6.203125 34.421875 6.203125 
Q 39.59375 6.203125 44.453125 7.46875 
Q 49.3125 8.734375 54.109375 11.28125 
L 54.109375 2.78125 
Q 49.265625 0.734375 44.1875 -0.34375 
Q 39.109375 -1.421875 33.890625 -1.421875 
Q 20.796875 -1.421875 13.15625 6.1875 
Q 5.515625 13.8125 5.515625 26.8125 
Q 5.515625 40.234375 12.765625 48.109375 
Q 20.015625 56 32.328125 56 
Q 43.359375 56 49.78125 48.890625 
Q 56.203125 41.796875 56.203125 29.59375 
z
M 47.21875 32.234375 
Q 47.125 39.59375 43.09375 43.984375 
Q 39.0625 48.390625 32.421875 48.390625 
Q 24.90625 48.390625 20.390625 44.140625 
Q 15.875 39.890625 15.1875 32.171875 
z
" id="DejaVuSans-101"/>
     </defs>
     <g transform="translate(318.612188 304.088562)scale(0.1 -0.1)">
      <use xlink:href="#DejaVuSans-43"/>
      <use x="83.789062" xlink:href="#DejaVuSans-49"/>
      <use x="147.412109" xlink:href="#DejaVuSans-46"/>
      <use x="179.199219" xlink:href="#DejaVuSans-53"/>
      <use x="242.822266" xlink:href="#DejaVuSans-57"/>
      <use x="306.445312" xlink:href="#DejaVuSans-54"/>
      <use x="370.068359" xlink:href="#DejaVuSans-49"/>
      <use x="433.691406" xlink:href="#DejaVuSans-54"/>
      <use x="497.314453" xlink:href="#DejaVuSans-48"/>
      <use x="560.9375" xlink:href="#DejaVuSans-49"/>
      <use x="624.560547" xlink:href="#DejaVuSans-101"/>
      <use x="686.083984" xlink:href="#DejaVuSans-57"/>
     </g>
    </g>
   </g>
   <g id="matplotlib.axis_2">
    <g id="ytick_1">
     <g id="line2d_9">
      <defs>
       <path d="M 0 0 
L -3.5 0 
" id="m5f05017602" style="stroke:#000000;stroke-width:0.8;"/>
      </defs>
      <g>
       <use style="stroke:#000000;stroke-width:0.8;" x="36.465625" xlink:href="#m5f05017602" y="264.716"/>
      </g>
     </g>
     <g id="text_10">
      <!-- 0.00 -->
      <g transform="translate(7.2 268.515219)scale(0.1 -0.1)">
       <use xlink:href="#DejaVuSans-48"/>
       <use x="63.623047" xlink:href="#DejaVuSans-46"/>
       <use x="95.410156" xlink:href="#DejaVuSans-48"/>
       <use x="159.033203" xlink:href="#DejaVuSans-48"/>
      </g>
     </g>
    </g>
    <g id="ytick_2">
     <g id="line2d_10">
      <g>
       <use style="stroke:#000000;stroke-width:0.8;" x="36.465625" xlink:href="#m5f05017602" y="234.208922"/>
      </g>
     </g>
     <g id="text_11">
      <!-- 0.25 -->
      <g transform="translate(7.2 238.008141)scale(0.1 -0.1)">
       <use xlink:href="#DejaVuSans-48"/>
       <use x="63.623047" xlink:href="#DejaVuSans-46"/>
       <use x="95.410156" xlink:href="#DejaVuSans-50"/>
       <use x="159.033203" xlink:href="#DejaVuSans-53"/>
      </g>
     </g>
    </g>
    <g id="ytick_3">
     <g id="line2d_11">
      <g>
       <use style="stroke:#000000;stroke-width:0.8;" x="36.465625" xlink:href="#m5f05017602" y="203.701845"/>
      </g>
     </g>
     <g id="text_12">
      <!-- 0.50 -->
      <g transform="translate(7.2 207.501064)scale(0.1 -0.1)">
       <use xlink:href="#DejaVuSans-48"/>
       <use x="63.623047" xlink:href="#DejaVuSans-46"/>
       <use x="95.410156" xlink:href="#DejaVuSans-53"/>
       <use x="159.033203" xlink:href="#DejaVuSans-48"/>
      </g>
     </g>
    </g>
    <g id="ytick_4">
     <g id="line2d_12">
      <g>
       <use style="stroke:#000000;stroke-width:0.8;" x="36.465625" xlink:href="#m5f05017602" y="173.194767"/>
      </g>
     </g>
     <g id="text_13">
      <!-- 0.75 -->
      <defs>
       <path d="M 8.203125 72.90625 
L 55.078125 72.90625 
L 55.078125 68.703125 
L 28.609375 0 
L 18.3125 0 
L 43.21875 64.59375 
L 8.203125 64.59375 
z
" id="DejaVuSans-55"/>
      </defs>
      <g transform="translate(7.2 176.993986)scale(0.1 -0.1)">
       <use xlink:href="#DejaVuSans-48"/>
       <use x="63.623047" xlink:href="#DejaVuSans-46"/>
       <use x="95.410156" xlink:href="#DejaVuSans-55"/>
       <use x="159.033203" xlink:href="#DejaVuSans-53"/>
      </g>
     </g>
    </g>
    <g id="ytick_5">
     <g id="line2d_13">
      <g>
       <use style="stroke:#000000;stroke-width:0.8;" x="36.465625" xlink:href="#m5f05017602" y="142.68769"/>
      </g>
     </g>
     <g id="text_14">
      <!-- 1.00 -->
      <g transform="translate(7.2 146.486908)scale(0.1 -0.1)">
       <use xlink:href="#DejaVuSans-49"/>
       <use x="63.623047" xlink:href="#DejaVuSans-46"/>
       <use x="95.410156" xlink:href="#DejaVuSans-48"/>
       <use x="159.033203" xlink:href="#DejaVuSans-48"/>
      </g>
     </g>
    </g>
    <g id="ytick_6">
     <g id="line2d_14">
      <g>
       <use style="stroke:#000000;stroke-width:0.8;" x="36.465625" xlink:href="#m5f05017602" y="112.180612"/>
      </g>
     </g>
     <g id="text_15">
      <!-- 1.25 -->
      <g transform="translate(7.2 115.979831)scale(0.1 -0.1)">
       <use xlink:href="#DejaVuSans-49"/>
       <use x="63.623047" xlink:href="#DejaVuSans-46"/>
       <use x="95.410156" xlink:href="#DejaVuSans-50"/>
       <use x="159.033203" xlink:href="#DejaVuSans-53"/>
      </g>
     </g>
    </g>
    <g id="ytick_7">
     <g id="line2d_15">
      <g>
       <use style="stroke:#000000;stroke-width:0.8;" x="36.465625" xlink:href="#m5f05017602" y="81.673534"/>
      </g>
     </g>
     <g id="text_16">
      <!-- 1.50 -->
      <g transform="translate(7.2 85.472753)scale(0.1 -0.1)">
       <use xlink:href="#DejaVuSans-49"/>
       <use x="63.623047" xlink:href="#DejaVuSans-46"/>
       <use x="95.410156" xlink:href="#DejaVuSans-53"/>
       <use x="159.033203" xlink:href="#DejaVuSans-48"/>
      </g>
     </g>
    </g>
    <g id="ytick_8">
     <g id="line2d_16">
      <g>
       <use style="stroke:#000000;stroke-width:0.8;" x="36.465625" xlink:href="#m5f05017602" y="51.166457"/>
      </g>
     </g>
     <g id="text_17">
      <!-- 1.75 -->
      <g transform="translate(7.2 54.965676)scale(0.1 -0.1)">
       <use xlink:href="#DejaVuSans-49"/>
       <use x="63.623047" xlink:href="#DejaVuSans-46"/>
       <use x="95.410156" xlink:href="#DejaVuSans-55"/>
       <use x="159.033203" xlink:href="#DejaVuSans-53"/>
      </g>
     </g>
    </g>
    <g id="ytick_9">
     <g id="line2d_17">
      <g>
       <use style="stroke:#000000;stroke-width:0.8;" x="36.465625" xlink:href="#m5f05017602" y="20.659379"/>
      </g>
     </g>
     <g id="text_18">
      <!-- 2.00 -->
      <g transform="translate(7.2 24.458598)scale(0.1 -0.1)">
       <use xlink:href="#DejaVuSans-50"/>
       <use x="63.623047" xlink:href="#DejaVuSans-46"/>
       <use x="95.410156" xlink:href="#DejaVuSans-48"/>
       <use x="159.033203" xlink:href="#DejaVuSans-48"/>
      </g>
     </g>
    </g>
   </g>
   <g id="line2d_18">
    <path clip-path="url(#pb51e96ab78)" d="M 52.698349 264.716 
L 52.914856 64.725158 
L 59.979935 64.725158 
L 59.979935 61.696353 
L 59.983223 264.716 
L 60.117645 264.716 
L 60.117645 256.301228 
L 60.19973 256.301228 
L 63.09713 256.301228 
L 63.09713 38.209904 
L 63.098808 264.716 
L 63.289612 264.716 
L 63.289612 253.115946 
L 63.315315 253.115946 
L 68.028381 253.115946 
L 68.028381 48.443276 
L 68.030067 264.716 
L 68.220207 264.716 
L 68.220207 253.153564 
L 68.246574 253.153564 
L 73.446503 253.153564 
L 73.446503 51.187317 
L 73.448189 264.716 
L 73.692413 264.716 
L 73.692413 250.098632 
L 74.64238 250.098632 
L 74.64238 35.30307 
L 74.747246 35.30307 
L 76.046776 35.30307 
L 76.046776 264.716 
L 76.351349 264.716 
L 76.351349 246.688807 
L 76.516975 246.688807 
L 76.516975 38.615496 
L 79.232925 38.615496 
L 79.232925 264.716 
L 79.549469 264.716 
L 79.549469 246.01285 
L 79.714279 246.01285 
L 79.714279 30.534121 
L 80.985168 30.534121 
L 80.985168 264.716 
L 81.313629 264.716 
L 81.313629 245.339516 
L 81.41819 245.339516 
L 81.478882 245.339516 
L 81.480537 23.442028 
L 81.480537 264.716 
L 81.941597 264.716 
L 81.941597 237.848867 
L 82.079346 237.848867 
L 82.080948 24.034349 
L 82.080948 264.716 
L 84.274475 264.716 
L 84.274475 139.977604 
L 84.439606 139.977604 
L 84.439606 33.953159 
L 84.441162 264.716 
L 85.741226 264.716 
L 85.852196 28.612203 
L 85.853729 28.612203 
L 85.853729 264.716 
L 91.105484 264.716 
L 91.105484 50.259137 
L 91.107605 264.716 
L 91.297737 264.716 
L 91.297737 253.154147 
L 91.324112 253.154147 
L 97.199997 253.154147 
L 97.199997 54.997094 
L 97.201935 264.716 
L 97.987511 264.716 
L 97.987511 219.516359 
L 98.06797 219.516359 
L 98.152519 219.516359 
L 98.152519 26.017035 
L 98.154129 264.716 
L 98.47995 264.716 
L 98.47995 245.48853 
L 98.587143 245.48853 
L 98.834648 245.48853 
L 98.834648 24.494904 
L 98.836311 264.716 
L 99.134689 264.716 
L 99.134689 247.039034 
L 101.68174 247.039034 
L 101.68174 36.696676 
L 101.683525 264.716 
L 101.982086 264.716 
L 101.982086 247.028827 
L 104.285179 247.028827 
L 104.286789 35.32275 
L 104.286789 264.716 
L 104.585625 264.716 
L 104.585625 247.01308 
L 107.456825 247.01308 
L 107.456825 38.526241 
L 107.458527 264.716 
L 107.784447 264.716 
L 107.784447 245.483281 
L 107.891548 245.483281 
L 108.057785 245.483281 
L 108.057785 24.03688 
L 108.059326 264.716 
L 108.357925 264.716 
L 108.357925 247.026786 
L 111.148422 247.026786 
L 111.148422 38.070021 
L 111.150124 264.716 
L 111.448608 264.716 
L 111.448608 247.033201 
L 112.966942 247.033201 
L 112.966942 30.899239 
L 112.968559 264.716 
L 113.267448 264.716 
L 113.267448 247.009873 
L 113.432381 247.009873 
L 113.432381 42.514797 
L 116.846375 42.514797 
L 116.846375 264.716 
L 117.169937 264.716 
L 117.169937 245.616257 
L 117.279388 245.616257 
L 117.334846 245.616257 
L 117.334846 25.760273 
L 117.751801 25.760273 
L 117.751801 264.716 
L 118.068253 264.716 
L 118.068253 246.017807 
L 118.260612 246.017807 
L 118.260612 29.03768 
L 119.238495 29.03768 
L 119.238495 264.716 
L 119.53511 264.716 
L 119.53511 247.138474 
L 119.700279 247.138474 
L 119.700279 44.047576 
L 123.388443 44.047576 
L 123.388443 264.716 
L 123.708488 264.716 
L 123.708488 245.815136 
L 124.008789 245.815136 
L 124.008789 24.155729 
L 124.010376 264.716 
L 124.309357 264.716 
L 124.309357 247.004915 
L 124.474236 247.004915 
L 124.474236 42.4584 
L 127.878403 42.4584 
L 127.878403 264.716 
L 128.211639 264.716 
L 128.211639 245.069775 
L 128.311424 245.069775 
L 128.349594 245.069775 
L 128.349594 23.315063 
L 128.351135 264.716 
L 132.033142 264.716 
L 132.033142 55.889987 
L 132.225792 55.889987 
L 132.225792 42.497576 
L 132.22747 264.716 
L 132.552666 264.716 
L 132.552666 245.524399 
L 132.660492 245.524399 
L 132.717842 245.524399 
L 132.717842 24.640685 
L 132.933952 24.640685 
L 132.933952 264.716 
L 133.207748 264.716 
L 133.207748 248.427692 
L 133.372757 248.427692 
L 133.372757 59.557119 
L 139.835426 59.557119 
L 139.835426 264.716 
L 140.141243 264.716 
L 140.170967 45.451019 
L 140.308952 45.451019 
L 140.308952 23.328242 
L 140.310532 264.716 
L 156.008575 264.716 
L 156.008575 109.136148 
L 156.010422 264.716 
L 156.200729 264.716 
L 156.200729 253.144524 
L 156.226936 253.144524 
L 160.479286 253.144524 
L 160.479286 45.846623 
L 160.480957 264.716 
L 160.698555 264.716 
L 160.698555 251.602477 
L 165.95182 251.602477 
L 165.95182 51.494053 
L 165.953499 264.716 
L 166.116859 264.716 
L 166.116859 254.666449 
L 166.170006 254.666449 
L 170.557915 254.666449 
L 170.557915 46.610627 
L 170.559563 264.716 
L 170.777191 264.716 
L 170.777191 251.601019 
L 171.618538 251.601019 
L 171.618538 59.502356 
L 171.642113 59.502356 
L 177.451622 59.502356 
L 177.451622 264.716 
L 177.764885 264.716 
L 177.764885 246.198023 
L 178.173477 246.198023 
L 178.175049 24.727888 
L 178.175049 264.716 
L 178.473679 264.716 
L 178.473679 247.024745 
L 178.611938 247.024745 
L 178.611938 44.200078 
L 182.352051 44.200078 
L 182.352051 264.716 
L 182.646881 264.716 
L 182.646881 247.239663 
L 183.40757 247.239663 
L 183.40757 26.608454 
L 183.409149 264.716 
L 183.707932 264.716 
L 183.707932 247.015996 
L 183.872955 247.015996 
L 183.872955 42.583176 
L 187.299225 42.583176 
L 187.299225 264.716 
L 187.58329 264.716 
L 187.58329 247.847675 
L 187.748589 247.847675 
L 187.748589 52.566849 
L 192.960457 52.566849 
L 192.960457 264.716 
L 193.244919 264.716 
L 193.301773 58.42015 
L 199.660439 58.42015 
L 199.660439 264.716 
L 199.964912 264.716 
L 199.994995 46.342486 
L 204.217682 46.342486 
L 204.217682 264.716 
L 204.516762 264.716 
L 204.516762 246.999374 
L 204.79026 246.999374 
L 204.79026 36.255092 
L 204.86721 36.255092 
L 206.985001 36.255092 
L 206.985001 264.716 
L 207.282722 264.716 
L 207.312408 50.950929 
L 212.359512 50.950929 
L 212.359512 264.716 
L 212.673965 264.716 
L 212.673965 246.130953 
L 213.380058 246.130953 
L 213.380058 26.411314 
L 213.381645 264.716 
L 213.680542 264.716 
L 213.680542 247.009581 
L 213.845665 247.009581 
L 213.845665 42.500792 
L 217.25705 42.500792 
L 217.25705 264.716 
L 217.555977 264.716 
L 217.555977 247.008123 
L 217.720932 247.008123 
L 217.720932 42.492302 
L 221.130836 42.492302 
L 221.130836 264.716 
L 221.458534 264.716 
L 221.458534 245.382967 
L 221.563858 245.382967 
L 221.623817 245.382967 
L 221.623817 23.437897 
L 221.625374 264.716 
L 221.950928 264.716 
L 221.950928 245.503986 
L 222.058395 245.503986 
L 222.251335 245.503986 
L 222.251335 24.187383 
L 222.252899 264.716 
L 222.578873 264.716 
L 222.578873 245.480074 
L 222.685921 245.480074 
L 222.717033 245.480074 
L 222.717033 25.634348 
L 223.135834 25.634348 
L 223.135834 264.716 
L 223.450401 264.716 
L 223.450401 246.124537 
L 223.588264 246.124537 
L 223.588264 33.399177 
L 225.396439 33.399177 
L 225.396439 264.716 
L 225.702057 264.716 
L 225.702057 246.630193 
L 225.867195 246.630193 
L 225.867195 37.937888 
L 228.462151 37.937888 
L 228.462151 264.716 
L 228.792488 264.716 
L 228.792488 245.233661 
L 228.895164 245.233661 
L 228.957863 245.233661 
L 228.957863 23.453287 
L 228.959457 264.716 
L 229.420425 264.716 
L 229.420425 237.854116 
L 231.182564 237.854116 
L 231.182564 33.189155 
L 231.184135 264.716 
L 231.482819 264.716 
L 231.482819 247.021829 
L 233.867012 247.021829 
L 233.867012 35.780512 
L 233.86866 264.716 
L 234.167709 264.716 
L 234.167709 247.001124 
L 238.121628 247.001124 
L 238.121628 44.629804 
L 238.123253 264.716 
L 238.313766 264.716 
L 238.313766 253.132568 
L 238.33976 253.132568 
L 241.482872 253.132568 
L 241.482872 39.59474 
L 241.484489 264.716 
L 242.56813 264.716 
L 242.56813 202.677781 
L 242.732941 202.677781 
L 242.732941 27.695864 
L 242.734505 264.716 
L 246.497742 264.716 
L 246.497742 51.301173 
L 246.662727 51.301173 
L 246.662727 42.799483 
L 246.664276 264.716 
L 247.01738 264.716 
L 247.01738 243.94765 
L 247.097298 243.94765 
L 247.155136 243.94765 
L 247.155136 23.425939 
L 247.156662 264.716 
L 247.591057 264.716 
L 247.591057 239.355046 
L 249.975273 239.355046 
L 249.975273 36.545534 
L 249.976837 264.716 
L 250.275528 264.716 
L 250.275528 247.021537 
L 251.712715 247.021537 
L 251.712715 30.443048 
L 251.714363 264.716 
L 252.013123 264.716 
L 252.013123 247.017746 
L 254.451508 247.017746 
L 254.451508 36.086375 
L 254.453072 264.716 
L 254.752052 264.716 
L 254.752052 247.005207 
L 254.890083 247.005207 
L 254.890083 43.978291 
L 258.590782 43.978291 
L 258.590782 264.716 
L 258.898071 264.716 
L 258.92762 44.461985 
L 262.814049 44.461985 
L 262.814049 264.716 
L 263.125259 264.716 
L 263.21199 22.902222 
L 263.213524 264.716 
L 285.541885 264.716 
L 285.541885 146.5057 
L 285.543762 264.716 
L 285.733879 264.716 
L 285.733879 253.15473 
L 285.760269 253.15473 
L 290.229462 253.15473 
L 290.231453 47.068738 
L 290.231453 264.716 
L 290.4216 264.716 
L 290.4216 253.153272 
L 290.447968 253.153272 
L 290.640419 253.153272 
L 290.640419 113.334122 
L 290.664474 113.334122 
L 306.67466 113.334122 
L 306.67466 264.716 
L 306.989449 264.716 
L 307.076309 22.923169 
L 307.077843 264.716 
L 323.371353 264.716 
L 323.371353 112.492265 
L 323.373573 264.716 
L 323.563271 264.716 
L 323.563271 253.178351 
L 323.59008 253.178351 
L 324.864914 253.178351 
L 324.864914 52.464103 
L 324.889137 52.464103 
L 329.016891 52.464103 
L 329.016891 264.716 
L 329.306122 264.716 
L 329.335968 56.706222 
L 335.412781 56.706222 
L 335.412781 264.716 
L 335.725594 264.716 
L 335.755386 40.693237 
L 338.967331 40.693237 
L 338.967331 264.716 
L 339.276222 264.716 
L 339.333168 41.823706 
L 342.72303 41.823706 
L 342.72303 264.716 
L 343.043457 264.716 
L 343.043457 245.793557 
L 343.181519 245.793557 
L 343.181519 29.408663 
L 344.275711 29.408663 
L 344.275711 264.716 
L 344.591492 264.716 
L 344.591492 246.056008 
L 344.729309 246.056008 
L 344.729309 32.578158 
L 346.390495 32.578158 
L 346.390495 264.716 
L 346.707748 264.716 
L 346.707748 245.972607 
L 346.899948 245.972607 
L 346.899948 28.503274 
L 347.782585 28.503274 
L 347.782585 264.716 
L 348.0933 264.716 
L 348.0933 246.34208 
L 348.258682 246.34208 
L 348.258682 34.460439 
L 350.231537 34.460439 
L 350.231537 264.716 
L 350.534622 264.716 
L 350.534622 246.773083 
L 350.672546 246.773083 
L 350.672546 41.193845 
L 353.874939 41.193845 
L 353.874939 264.716 
L 354.193657 264.716 
L 354.193657 245.890081 
L 354.358604 245.890081 
L 354.358604 29.050176 
L 355.363701 29.050176 
L 355.363701 264.716 
L 355.66021 264.716 
L 355.66021 247.144889 
L 355.825485 247.144889 
L 355.825485 44.118295 
L 359.526009 44.118295 
L 359.526009 264.716 
L 359.833611 264.716 
L 359.863045 44.258034 
L 363.713165 44.258034 
L 363.713165 264.716 
L 364.060722 264.716 
L 364.060722 244.261134 
L 364.146187 244.261134 
L 364.496613 244.261134 
L 364.498192 25.075006 
L 364.498192 264.716 
L 364.796883 264.716 
L 364.796883 247.021537 
L 364.934746 247.021537 
L 364.934746 44.183965 
L 368.672165 44.183965 
L 368.672165 264.716 
L 368.970085 264.716 
L 369.056641 22.826374 
L 369.058159 264.716 
L 377.285515 264.716 
L 377.285515 264.716 
" style="fill:none;stroke:#ff0000;stroke-linecap:square;stroke-width:1.5;"/>
   </g>
   <g id="line2d_19">
    <path clip-path="url(#pb51e96ab78)" d="M 52.698349 264.716 
L 52.914856 59.979613 
L 59.675613 59.979613 
L 59.675613 264.716 
L 59.991936 264.716 
L 60.021751 38.314638 
L 62.808212 38.314638 
L 62.808212 264.716 
L 63.109543 264.716 
L 63.139496 48.485288 
L 67.745453 48.485288 
L 67.745453 264.716 
L 68.040642 264.716 
L 68.09726 51.151086 
L 73.155472 51.151086 
L 73.155472 264.716 
L 73.485619 264.716 
L 73.542442 27.399273 
L 73.588493 27.399273 
L 74.351707 27.399273 
L 74.351707 264.716 
L 76.062668 264.716 
L 76.062668 167.238994 
L 76.083778 167.238994 
L 76.228355 167.238994 
L 76.228355 31.236494 
L 76.23246 264.716 
L 79.261345 264.716 
L 79.261345 92.786544 
L 79.263588 92.786544 
L 79.425865 92.786544 
L 79.425865 38.65792 
L 79.427574 264.716 
L 81.025536 264.716 
L 81.025536 173.622974 
L 81.190369 173.622974 
L 81.190369 30.594772 
L 81.191978 264.716 
L 81.518097 264.716 
L 81.518097 245.4722 
L 81.625 245.4722 
L 81.818283 245.4722 
L 81.818283 24.189303 
L 81.819855 264.716 
L 82.091553 264.716 
L 82.091553 248.546087 
L 84.151314 248.546087 
L 84.151314 33.799863 
L 84.152901 264.716 
L 84.478821 264.716 
L 84.478821 245.483281 
L 84.585922 245.483281 
L 85.591316 245.483281 
L 85.592918 28.766517 
L 85.592918 264.716 
L 85.86451 264.716 
L 85.86451 248.552502 
L 90.982056 248.552502 
L 90.982056 51.033411 
L 90.983818 264.716 
L 91.119919 264.716 
L 91.119919 256.206746 
L 91.200333 256.206746 
L 97.076477 256.206746 
L 97.076477 54.998607 
L 97.078506 264.716 
L 97.214478 264.716 
L 97.214478 256.213745 
L 97.295013 256.213745 
L 98.029297 256.213745 
L 98.029297 116.460568 
L 98.194366 116.460568 
L 98.194366 26.94859 
L 98.195938 264.716 
L 98.711182 264.716 
L 98.711182 234.787811 
L 98.849426 234.787811 
L 98.849426 24.34254 
L 98.851013 264.716 
L 101.55851 264.716 
L 101.55851 110.942627 
L 101.665634 110.942627 
L 101.696327 110.942627 
L 101.696327 36.696007 
L 101.698006 264.716 
L 104.13475 264.716 
L 104.13475 126.2377 
L 104.299583 126.2377 
L 104.299583 35.322314 
L 104.30146 264.716 
L 107.333534 264.716 
L 107.333534 92.606328 
L 107.498642 92.606328 
L 107.498642 38.679216 
L 107.500244 264.716 
L 107.934319 264.716 
L 107.934319 239.373417 
L 108.072197 239.373417 
L 108.072197 23.883003 
L 108.073807 264.716 
L 111.025093 264.716 
L 111.025093 97.170063 
L 111.104935 97.170063 
L 111.163162 97.170063 
L 111.163162 38.071505 
L 111.164749 264.716 
L 112.816658 264.716 
L 112.816658 170.575041 
L 112.896828 170.575041 
L 112.981606 170.575041 
L 112.981606 30.899472 
L 112.983147 264.716 
L 113.308998 264.716 
L 113.308998 245.487364 
L 113.416168 245.487364 
L 116.884346 245.487364 
L 116.884346 42.647147 
L 116.885963 264.716 
L 117.18457 264.716 
L 117.18457 247.026203 
L 117.782616 247.026203 
L 117.784836 25.713062 
L 117.784836 264.716 
L 118.110161 264.716 
L 118.110161 245.516817 
L 118.217857 245.516817 
L 119.249405 245.516817 
L 119.250992 28.913935 
L 119.250992 264.716 
L 119.54985 264.716 
L 119.54985 247.011914 
L 123.422585 247.011914 
L 123.422585 44.171169 
L 123.424706 264.716 
L 123.587685 264.716 
L 123.587685 254.688028 
L 123.641212 254.688028 
L 124.023483 254.688028 
L 124.023483 119.528547 
L 124.074226 119.528547 
L 124.188438 119.528547 
L 124.188438 24.963926 
L 124.18998 264.716 
L 127.898895 264.716 
L 127.898895 54.370103 
L 128.064003 54.370103 
L 128.064003 42.493997 
L 128.065544 264.716 
L 128.364433 264.716 
L 128.364433 247.010164 
L 131.912498 247.010164 
L 131.912498 42.341429 
L 131.914207 264.716 
L 132.266693 264.716 
L 132.266693 243.982352 
L 132.347229 243.982352 
L 132.432022 243.982352 
L 132.432022 23.577867 
L 132.43367 264.716 
L 132.948784 264.716 
L 132.948784 234.795102 
L 133.086899 234.795102 
L 133.086899 24.341085 
L 133.088448 264.716 
L 139.8554 264.716 
L 139.8554 58.799016 
L 139.857056 264.716 
L 140.047508 264.716 
L 140.047508 253.136067 
L 140.07357 253.136067 
L 140.320999 253.136067 
L 140.320999 110.038211 
L 155.715187 110.038211 
L 155.715187 264.716 
L 156.020332 264.716 
L 156.049896 45.916436 
L 160.196495 45.916436 
L 160.196495 264.716 
L 160.491226 264.716 
L 160.548042 51.448251 
L 165.659294 51.448251 
L 165.659294 264.716 
L 165.963387 264.716 
L 165.992996 46.631981 
L 170.267715 46.631981 
L 170.267715 264.716 
L 170.598999 264.716 
L 170.65593 26.615377 
L 170.700737 26.615377 
L 171.324486 26.615377 
L 171.324486 264.716 
L 177.478584 264.716 
L 177.478584 55.344882 
L 177.480957 264.716 
L 177.616791 264.716 
L 177.616791 256.221327 
L 177.697464 256.221327 
L 178.18782 256.221327 
L 178.18782 130.324291 
L 178.35273 130.324291 
L 178.35273 25.572859 
L 178.354294 264.716 
L 182.361 264.716 
L 182.361 43.241825 
L 182.362625 264.716 
L 182.525925 264.716 
L 182.525925 254.669948 
L 182.579132 254.669948 
L 183.421539 254.669948 
L 183.421539 93.335206 
L 183.445168 93.335206 
L 183.586914 93.335206 
L 183.586914 27.559705 
L 183.588463 264.716 
L 187.324387 264.716 
L 187.324387 52.844386 
L 187.462112 52.844386 
L 187.462112 42.491932 
L 187.463707 264.716 
L 192.986 264.716 
L 192.986 51.783915 
L 192.987701 264.716 
L 193.12368 264.716 
L 193.12368 256.213745 
L 193.204216 256.213745 
L 199.67585 256.213745 
L 199.67585 58.35487 
L 199.677582 264.716 
L 204.252464 264.716 
L 204.252464 46.444181 
L 204.254135 264.716 
L 204.390167 264.716 
L 204.390167 256.210245 
L 204.470642 256.210245 
L 206.991043 256.210245 
L 206.991043 36.085066 
L 206.992622 264.716 
L 207.183098 264.716 
L 207.183098 253.134609 
L 207.209129 253.134609 
L 212.382187 253.134609 
L 212.382187 51.035855 
L 212.383873 264.716 
L 212.546913 264.716 
L 212.546913 254.684529 
L 212.60038 254.684529 
L 213.415733 254.684529 
L 213.415733 95.024272 
L 213.466423 95.024272 
L 213.55381 95.024272 
L 213.55381 27.253318 
L 213.555367 264.716 
L 217.291267 264.716 
L 217.291267 52.845844 
L 217.42942 52.845844 
L 217.42942 42.494172 
L 217.430992 264.716 
L 221.16671 264.716 
L 221.16671 52.856051 
L 221.331779 52.856051 
L 221.331779 42.644849 
L 221.333382 264.716 
L 221.659264 264.716 
L 221.659264 245.485323 
L 221.766403 245.485323 
L 221.824478 245.485323 
L 221.824478 24.168825 
L 221.956253 24.168825 
L 221.956253 264.716 
L 222.287018 264.716 
L 222.287018 245.209457 
L 222.389275 245.209457 
L 222.425323 245.209457 
L 222.425323 23.303105 
L 222.426857 264.716 
L 223.158524 264.716 
L 223.158524 222.561376 
L 223.296593 222.561376 
L 223.296593 25.561367 
L 223.298126 264.716 
L 225.410149 264.716 
L 225.410149 144.582165 
L 225.463219 144.582165 
L 225.575325 144.582165 
L 225.575325 33.494029 
L 225.576874 264.716 
L 228.500854 264.716 
L 228.500854 98.712984 
L 228.608009 98.712984 
L 228.665909 98.712984 
L 228.665909 38.069672 
L 228.667496 264.716 
L 228.966492 264.716 
L 228.966492 247.00404 
L 229.293633 247.00404 
L 229.293633 33.281045 
L 229.317024 33.281045 
L 230.907104 33.281045 
L 230.907104 264.716 
L 231.218025 264.716 
L 231.218025 246.330707 
L 231.356186 246.330707 
L 231.356186 35.861373 
L 233.604492 35.861373 
L 233.604492 264.716 
L 233.902626 264.716 
L 233.902626 247.053031 
L 234.040787 247.053031 
L 234.040787 44.546003 
L 237.842705 44.546003 
L 237.842705 264.716 
L 238.157074 264.716 
L 238.186638 39.647515 
L 241.211945 39.647515 
L 241.211945 264.716 
L 242.30323 264.716 
L 242.30323 202.245903 
L 242.441017 202.245903 
L 242.441017 27.586617 
L 242.442574 264.716 
L 242.768761 264.716 
L 242.768761 245.468409 
L 242.875595 245.468409 
L 246.370537 245.468409 
L 246.370537 42.798028 
L 246.372231 264.716 
L 246.725372 264.716 
L 246.805244 243.945026 
L 246.89035 243.945026 
L 246.89035 23.579613 
L 246.891899 264.716 
L 247.19072 264.716 
L 247.19072 247.014247 
L 247.464104 247.014247 
L 247.464104 36.440611 
L 247.541428 36.440611 
L 249.692192 36.440611 
L 249.692192 264.716 
L 250.011055 264.716 
L 250.011055 245.881916 
L 250.148705 245.881916 
L 250.148705 30.494343 
L 251.437408 30.494343 
L 251.437408 264.716 
L 251.748199 264.716 
L 251.748199 246.337706 
L 251.886299 246.337706 
L 251.886299 35.949019 
L 254.150566 35.949019 
L 254.150566 264.716 
L 254.486771 264.716 
L 254.486771 244.902098 
L 254.583588 244.902098 
L 254.624825 244.902098 
L 254.624825 23.332374 
L 254.626366 264.716 
L 258.605972 264.716 
L 258.607651 43.089082 
L 258.607651 264.716 
L 258.798027 264.716 
L 258.798027 253.140441 
L 258.824158 253.140441 
L 262.833282 253.140441 
L 262.834877 44.475723 
L 262.834877 264.716 
L 263.241959 264.716 
L 263.241959 240.898259 
L 263.267899 240.898259 
L 285.409416 240.898259 
L 285.409416 147.893155 
L 285.41127 264.716 
L 290.120964 264.716 
L 290.120964 47.203995 
L 290.126312 264.716 
L 290.259232 264.716 
L 290.259232 256.386088 
L 290.342819 256.386088 
L 290.532524 256.386088 
L 290.532524 149.125157 
L 290.559334 149.125157 
L 306.691658 149.125157 
L 306.691658 114.024374 
L 306.693375 264.716 
L 306.884048 264.716 
L 306.884048 253.123528 
L 306.909882 253.123528 
L 307.103333 253.123528 
L 307.103333 112.949671 
L 307.126396 112.949671 
L 323.068069 112.949671 
L 323.068069 264.716 
L 323.397896 264.716 
L 323.427856 29.130989 
L 323.501091 29.130989 
L 324.571388 29.130989 
L 324.571388 264.716 
L 329.032707 264.716 
L 329.032707 45.804117 
L 329.034439 264.716 
L 329.170486 264.716 
L 329.170486 256.209662 
L 329.250946 256.209662 
L 335.451874 256.209662 
L 335.451874 56.829074 
L 335.453705 264.716 
L 335.590096 264.716 
L 335.590096 256.189833 
L 335.670212 256.189833 
L 339.002441 256.189833 
L 339.002441 40.660651 
L 339.004066 264.716 
L 342.739983 264.716 
L 342.739983 52.844678 
L 342.905006 52.844678 
L 342.905006 42.645751 
L 342.90657 264.716 
L 344.287933 264.716 
L 344.287933 185.859033 
L 344.453293 185.859033 
L 344.453293 29.376934 
L 344.454849 264.716 
L 346.404541 264.716 
L 346.404541 153.752502 
L 346.596428 153.752502 
L 346.596428 32.729647 
L 346.598 264.716 
L 347.789879 264.716 
L 347.789879 196.562959 
L 347.897057 196.562959 
L 347.955185 196.562959 
L 347.955185 28.308696 
L 347.956741 264.716 
L 350.231277 264.716 
L 350.231277 135.401038 
L 350.338341 135.401038 
L 350.396065 135.401038 
L 350.396065 34.407808 
L 350.397606 264.716 
L 353.889931 264.716 
L 353.889931 66.60587 
L 354.055176 66.60587 
L 354.055176 41.274065 
L 354.056747 264.716 
L 355.384087 264.716 
L 355.384087 188.910757 
L 355.521996 188.910757 
L 355.521996 28.917746 
L 355.523567 264.716 
L 359.556992 264.716 
L 359.559059 43.392415 
L 359.559059 264.716 
L 363.754776 264.716 
L 363.754776 44.307153 
L 363.756485 264.716 
L 364.352852 264.716 
L 364.352852 230.205122 
L 364.406013 230.205122 
L 364.517761 230.205122 
L 364.517761 24.950048 
L 364.519318 264.716 
L 364.791153 264.716 
L 364.791153 248.538797 
L 368.690903 248.538797 
L 368.690903 44.171111 
L 368.69252 264.716 
L 369.072617 264.716 
L 369.072617 242.422517 
L 369.125542 242.422517 
L 377.35289 242.422517 
L 377.35289 242.422517 
" style="fill:none;stroke:#0000ff;stroke-linecap:square;stroke-width:1.5;"/>
   </g>
   <g id="line2d_20">
    <path clip-path="url(#pb51e96ab78)" d="M 52.698349 264.716 
L 52.914856 228.785442 
L 59.536827 228.785442 
L 59.536827 59.19859 
L 59.539925 264.716 
L 59.728844 264.716 
L 59.728844 253.222676 
L 59.756432 253.222676 
L 62.681328 253.222676 
L 62.681328 38.364828 
L 62.683052 264.716 
L 62.846542 264.716 
L 62.846542 254.65945 
L 62.899567 254.65945 
L 67.612282 254.65945 
L 67.612282 48.441326 
L 67.614052 264.716 
L 73.027771 264.716 
L 73.027771 51.171956 
L 73.029579 264.716 
L 74.221428 264.716 
L 74.221428 196.564709 
L 74.328636 196.564709 
L 75.764412 196.564709 
L 75.764412 36.073341 
L 75.771858 264.716 
L 76.09523 264.716 
L 76.09523 245.627046 
L 76.204872 245.627046 
L 78.966003 245.627046 
L 78.966003 38.662109 
L 78.969498 264.716 
L 79.293098 264.716 
L 79.293098 245.613924 
L 79.402512 245.613924 
L 80.729836 245.613924 
L 80.729836 30.580952 
L 80.731621 264.716 
L 81.057396 264.716 
L 81.057396 245.491446 
L 81.164642 245.491446 
L 81.222458 245.491446 
L 81.222458 24.251202 
L 81.369049 24.251202 
L 81.369049 264.716 
L 81.685257 264.716 
L 81.685257 246.031804 
L 81.796432 246.031804 
L 81.802063 33.791871 
L 83.699471 33.791871 
L 83.699471 264.716 
L 84.018387 264.716 
L 84.018387 245.878999 
L 84.183128 245.878999 
L 84.183128 28.9289 
L 85.16703 28.9289 
L 85.16703 264.716 
L 85.458061 264.716 
L 85.569092 50.899616 
L 90.532494 50.899616 
L 90.532494 264.716 
L 90.822105 264.716 
L 90.878868 54.932732 
L 96.613808 54.932732 
L 96.613808 264.716 
L 96.916725 264.716 
L 96.916725 246.782415 
L 97.56913 246.782415 
L 97.56913 26.043743 
L 97.571053 264.716 
L 97.896332 264.716 
L 97.896332 245.519441 
L 98.004074 245.519441 
L 98.061363 245.519441 
L 98.061363 24.589538 
L 98.268753 24.589538 
L 98.268753 264.716 
L 98.578491 264.716 
L 98.578491 246.397486 
L 98.716156 246.397486 
L 98.716156 36.692267 
L 101.113747 36.692267 
L 101.113747 264.716 
L 101.425598 264.716 
L 101.425598 246.277925 
L 101.563644 246.277925 
L 101.563644 35.233475 
L 103.699844 35.233475 
L 103.699844 264.716 
L 104.004539 264.716 
L 104.004539 246.6821 
L 104.169556 246.6821 
L 104.169556 38.569265 
L 106.877686 38.569265 
L 106.877686 264.716 
L 107.203629 264.716 
L 107.203629 245.481823 
L 107.310707 245.481823 
L 107.368507 245.481823 
L 107.368507 24.145707 
L 107.496582 24.145707 
L 107.496582 264.716 
L 107.804337 264.716 
L 107.804337 246.509174 
L 107.942551 246.509174 
L 107.942551 38.004195 
L 110.574371 38.004195 
L 110.574371 264.716 
L 110.894966 264.716 
L 111.005898 30.825677 
L 112.378502 30.825677 
L 112.378502 264.716 
L 112.713593 264.716 
L 112.713593 244.965086 
L 112.811523 244.965086 
L 112.851707 244.965086 
L 112.851707 23.326438 
L 112.853394 264.716 
L 116.58902 264.716 
L 116.58902 52.8613 
L 116.754036 52.8613 
L 116.754036 42.644005 
L 116.755737 264.716 
L 117.487762 264.716 
L 117.487762 222.541255 
L 117.652771 222.541255 
L 117.652771 25.715215 
L 117.654457 264.716 
L 118.981361 264.716 
L 118.981361 188.934961 
L 119.119492 188.934961 
L 119.119492 28.916553 
L 119.12117 264.716 
L 123.127541 264.716 
L 123.127541 43.239963 
L 123.12999 264.716 
L 123.590546 264.716 
L 123.590546 237.877154 
L 123.728394 237.877154 
L 123.728394 24.03208 
L 123.730171 264.716 
L 124.055893 264.716 
L 124.055893 245.494071 
L 124.163185 245.494071 
L 127.630829 245.494071 
L 127.630829 42.644151 
L 127.632599 264.716 
L 127.931839 264.716 
L 127.931839 246.990626 
L 128.096413 246.990626 
L 128.096413 42.303223 
L 131.473076 42.303223 
L 131.473076 264.716 
L 131.807053 264.716 
L 131.807053 245.028074 
L 131.90609 245.028074 
L 131.972122 245.028074 
L 131.972122 23.472111 
L 131.973801 264.716 
L 132.299355 264.716 
L 132.299355 245.503694 
L 132.406815 245.503694 
L 132.653862 245.503694 
L 132.653862 24.492344 
L 132.655617 264.716 
L 132.954414 264.716 
L 132.954414 247.015122 
L 139.587616 247.015122 
L 139.587616 59.729291 
L 139.589417 264.716 
L 139.725456 264.716 
L 139.725456 256.209954 
L 139.805931 256.209954 
L 140.053047 256.209954 
L 140.053047 143.939997 
L 155.590263 143.939997 
L 155.590263 110.842762 
L 155.592354 264.716 
L 155.728149 264.716 
L 155.728149 256.22366 
L 155.808868 256.22366 
L 160.061279 256.22366 
L 160.061279 45.846973 
L 160.063087 264.716 
L 165.503448 264.716 
L 165.503448 51.322138 
L 165.505257 264.716 
L 170.134193 264.716 
L 170.136078 46.748823 
L 170.136078 264.716 
L 171.192482 264.716 
L 171.192482 204.216328 
L 171.218628 204.216328 
L 177.176193 204.216328 
L 177.176193 60.338602 
L 177.183907 264.716 
L 177.747147 264.716 
L 177.747147 232.07669 
L 177.833435 232.07669 
L 177.912201 232.07669 
L 177.912201 24.764138 
L 177.913879 264.716 
L 178.212471 264.716 
L 178.212471 247.027078 
L 182.058884 247.027078 
L 182.058884 44.021306 
L 182.060608 264.716 
L 182.980949 264.716 
L 182.980949 211.902649 
L 183.146133 211.902649 
L 183.146133 26.777605 
L 183.147804 264.716 
L 183.446732 264.716 
L 183.446732 247.008123 
L 187.021667 247.008123 
L 187.021667 42.493125 
L 187.023415 264.716 
L 187.322052 264.716 
L 187.322052 247.024453 
L 192.683479 247.024453 
L 192.683479 52.560458 
L 192.68528 264.716 
L 192.875648 264.716 
L 192.875648 253.140733 
L 192.901787 253.140733 
L 199.400673 253.140733 
L 199.400673 58.508427 
L 199.402565 264.716 
L 199.592751 264.716 
L 199.592751 253.151231 
L 199.619072 253.151231 
L 203.952797 253.151231 
L 203.952797 46.305229 
L 203.954582 264.716 
L 204.361481 264.716 
L 204.361481 240.908465 
L 204.387604 240.908465 
L 206.718346 240.908465 
L 206.718346 36.236412 
L 206.72007 264.716 
L 206.856567 264.716 
L 206.856567 256.184 
L 206.936577 256.184 
L 212.109627 256.184 
L 212.109627 51.035826 
L 212.111382 264.716 
L 212.951416 264.716 
L 212.951416 216.439556 
L 212.977417 216.439556 
L 213.11615 216.439556 
L 213.11615 26.322432 
L 213.117844 264.716 
L 213.41674 264.716 
L 213.41674 247.009581 
L 216.991867 247.009581 
L 216.991867 42.494027 
L 216.993607 264.716 
L 217.319374 264.716 
L 217.319374 245.491738 
L 217.42662 245.491738 
L 220.867455 245.491738 
L 220.867455 42.493037 
L 220.86927 264.716 
L 221.194809 264.716 
L 221.194809 245.504569 
L 221.302292 245.504569 
L 221.386734 245.504569 
L 221.386734 23.575889 
L 221.388435 264.716 
L 221.822548 264.716 
L 221.822548 239.371084 
L 221.987694 239.371084 
L 221.987694 24.03688 
L 221.989372 264.716 
L 222.288292 264.716 
L 222.288292 247.008706 
L 222.85936 247.008706 
L 222.85936 25.562735 
L 222.861053 264.716 
L 223.159454 264.716 
L 223.159454 247.037576 
L 225.138031 247.037576 
L 225.138031 33.492836 
L 225.139748 264.716 
L 225.438202 264.716 
L 225.438202 247.03466 
L 228.201492 247.03466 
L 228.201492 37.915882 
L 228.203293 264.716 
L 228.528793 264.716 
L 228.528793 245.506902 
L 228.636307 245.506902 
L 228.693993 245.506902 
L 228.693993 24.429152 
L 228.872169 24.429152 
L 228.872169 264.716 
L 230.780716 264.716 
L 230.780716 156.077236 
L 230.820755 156.077236 
L 230.918564 156.077236 
L 230.918564 32.193186 
L 230.920235 264.716 
L 233.465515 264.716 
L 233.465515 120.106257 
L 233.518341 120.106257 
L 233.603607 120.106257 
L 233.603607 35.783334 
L 233.605309 264.716 
L 237.719658 264.716 
L 237.719658 43.848518 
L 237.721481 264.716 
L 241.051056 264.716 
L 241.051056 75.799827 
L 242.001167 75.799827 
L 242.001167 44.780422 
L 242.002869 264.716 
L 242.301506 264.716 
L 242.301506 247.024453 
L 242.466698 247.024453 
L 242.466698 42.67523 
L 245.909256 42.67523 
L 245.909256 264.716 
L 246.2584 264.716 
L 246.2584 244.171025 
L 246.34227 244.171025 
L 246.423134 244.171025 
L 246.423134 23.555669 
L 246.424835 264.716 
L 246.750923 264.716 
L 246.750923 245.473658 
L 246.857849 245.473658 
L 246.915855 245.473658 
L 246.915855 24.044328 
L 247.025421 264.716 
L 249.570625 264.716 
L 249.570625 120.110923 
L 249.623535 120.110923 
L 249.708961 120.110923 
L 249.708961 35.784265 
L 249.710663 264.716 
L 251.308273 264.716 
L 251.308273 173.642512 
L 251.446167 173.642512 
L 251.446167 30.440982 
L 251.447845 264.716 
L 254.020042 264.716 
L 254.020042 118.585789 
L 254.045959 118.585789 
L 254.185097 118.585789 
L 254.186821 36.086986 
L 254.186821 264.716 
L 254.485474 264.716 
L 254.485474 247.023287 
L 258.331345 247.023287 
L 258.331345 44.018601 
L 258.333076 264.716 
L 258.469376 264.716 
L 258.469376 256.195082 
L 258.549583 256.195082 
L 262.558701 256.195082 
L 262.558701 44.475723 
L 262.5606 264.716 
L 262.696701 264.716 
L 262.696701 256.206454 
L 262.777115 256.206454 
L 262.970093 256.206454 
L 262.970093 146.959854 
L 262.993622 146.959854 
L 284.969551 146.959854 
L 284.969551 264.716 
L 285.272888 264.716 
L 285.302567 47.140082 
L 289.667969 47.140082 
L 289.667969 264.716 
L 289.96032 264.716 
L 290.047058 22.796 
L 290.048729 264.716 
L 290.103798 264.716 
L 290.103798 260.783895 
L 306.425842 260.783895 
L 306.425842 112.963468 
L 306.427658 264.716 
L 306.56353 264.716 
L 306.56353 256.219285 
L 306.644165 256.219285 
L 306.810097 256.219285 
L 306.810097 148.629633 
L 306.86068 148.629633 
L 322.942589 148.629633 
L 322.942589 113.740244 
L 322.945053 264.716 
L 324.433594 264.716 
L 324.433594 179.803992 
L 324.460617 179.803992 
L 328.739525 179.803992 
L 328.739525 53.317974 
L 328.74131 264.716 
L 328.931702 264.716 
L 328.931702 253.139566 
L 328.957817 253.139566 
L 335.159172 253.139566 
L 335.159172 56.831488 
L 335.161087 264.716 
L 335.351303 264.716 
L 335.351303 253.149189 
L 335.377594 253.149189 
L 338.709602 253.149189 
L 338.709602 40.6594 
L 338.711349 264.716 
L 338.928871 264.716 
L 338.928871 251.606851 
L 342.449982 251.606851 
L 342.449982 41.730896 
L 342.451759 264.716 
L 342.777451 264.716 
L 342.777451 245.496112 
L 342.884781 245.496112 
L 343.997818 245.496112 
L 343.999527 29.37321 
L 343.999527 264.716 
L 344.325165 264.716 
L 344.325165 245.499028 
L 344.432549 245.499028 
L 346.141457 245.499028 
L 346.141457 32.731655 
L 346.143188 264.716 
L 346.468811 264.716 
L 346.468811 245.499903 
L 346.576202 245.499903 
L 347.5271 245.499903 
L 347.5271 28.459344 
L 347.528809 264.716 
L 347.827469 264.716 
L 347.827469 247.022995 
L 349.967979 247.022995 
L 349.967979 34.406964 
L 349.969704 264.716 
L 350.268417 264.716 
L 350.268417 247.020079 
L 353.600174 247.020079 
L 353.600174 41.121293 
L 353.601936 264.716 
L 353.92749 264.716 
L 353.92749 245.503986 
L 354.034958 245.503986 
L 355.093765 245.503986 
L 355.093765 29.067579 
L 355.09552 264.716 
L 355.394478 264.716 
L 355.394478 247.006373 
L 359.267303 247.006373 
L 359.267303 44.172245 
L 359.269211 264.716 
L 359.459122 264.716 
L 359.459122 253.166686 
L 359.485718 253.166686 
L 363.467537 253.166686 
L 363.469307 44.321816 
L 363.469307 264.716 
L 363.632309 264.716 
L 363.632309 254.686862 
L 363.685822 254.686862 
L 364.230484 254.686862 
L 364.230484 110.341562 
L 364.33535 110.341562 
L 364.368713 110.341562 
L 364.368713 25.728569 
L 364.370399 264.716 
L 368.403519 264.716 
L 368.403519 43.390698 
L 368.405357 264.716 
L 368.541725 264.716 
L 368.541725 256.191582 
L 368.621872 256.191582 
L 368.788139 256.191582 
L 368.788139 148.305009 
L 368.838379 148.305009 
L 377.282242 148.305009 
L 377.282242 148.305009 
" style="fill:none;stroke:#008000;stroke-linecap:square;stroke-width:1.5;"/>
   </g>
   <g id="patch_3">
    <path d="M 36.465625 276.812 
L 36.465625 10.7 
" style="fill:none;stroke:#000000;stroke-linecap:square;stroke-linejoin:miter;stroke-width:0.8;"/>
   </g>
   <g id="patch_4">
    <path d="M 393.585625 276.812 
L 393.585625 10.7 
" style="fill:none;stroke:#000000;stroke-linecap:square;stroke-linejoin:miter;stroke-width:0.8;"/>
   </g>
   <g id="patch_5">
    <path d="M 36.465622 276.812 
L 393.585617 276.812 
" style="fill:none;stroke:#000000;stroke-linecap:square;stroke-linejoin:miter;stroke-width:0.8;"/>
   </g>
   <g id="patch_6">
    <path d="M 36.465622 10.7 
L 393.585617 10.7 
" style="fill:none;stroke:#000000;stroke-linecap:square;stroke-linejoin:miter;stroke-width:0.8;"/>
   </g>
  </g>
 </g>
 <defs>
  <clipPath id="pb51e96ab78">
   <rect height="266.112" width="357.12" x="36.465625" y="10.7"/>
  </clipPath>
 </defs>
</svg>
