<?xml version="1.0" encoding="utf-8" standalone="no"?>
<!DOCTYPE svg PUBLIC "-//W3C//DTD SVG 1.1//EN"
  "http://www.w3.org/Graphics/SVG/1.1/DTD/svg11.dtd">
<!-- Created with matplotlib (https://matplotlib.org/) -->
<svg height="313.36825pt" version="1.1" viewBox="0 0 404.285625 313.36825" width="404.285625pt" xmlns="http://www.w3.org/2000/svg" xmlns:xlink="http://www.w3.org/1999/xlink">
 <defs>
  <style type="text/css">
*{stroke-linecap:butt;stroke-linejoin:round;}
  </style>
 </defs>
 <g id="figure_1">
  <g id="patch_1">
   <path d="M 0 313.36825 
L 404.285625 313.36825 
L 404.285625 0 
L 0 0 
z
" style="fill:#ffffff;"/>
  </g>
  <g id="axes_1">
   <g id="patch_2">
    <path d="M 36.465625 276.812 
L 393.585625 276.812 
L 393.585625 10.7 
L 36.465625 10.7 
z
" style="fill:#ffffff;"/>
   </g>
   <g id="matplotlib.axis_1">
    <g id="xtick_1">
     <g id="line2d_1">
      <defs>
       <path d="M 0 0 
L 0 3.5 
" id="mddea69db51" style="stroke:#000000;stroke-width:0.8;"/>
      </defs>
      <g>
       <use style="stroke:#000000;stroke-width:0.8;" x="52.698349" xlink:href="#mddea69db51" y="276.812"/>
      </g>
     </g>
     <g id="text_1">
      <!-- 54 -->
      <defs>
       <path d="M 10.796875 72.90625 
L 49.515625 72.90625 
L 49.515625 64.59375 
L 19.828125 64.59375 
L 19.828125 46.734375 
Q 21.96875 47.46875 24.109375 47.828125 
Q 26.265625 48.1875 28.421875 48.1875 
Q 40.625 48.1875 47.75 41.5 
Q 54.890625 34.8125 54.890625 23.390625 
Q 54.890625 11.625 47.5625 5.09375 
Q 40.234375 -1.421875 26.90625 -1.421875 
Q 22.3125 -1.421875 17.546875 -0.640625 
Q 12.796875 0.140625 7.71875 1.703125 
L 7.71875 11.625 
Q 12.109375 9.234375 16.796875 8.0625 
Q 21.484375 6.890625 26.703125 6.890625 
Q 35.15625 6.890625 40.078125 11.328125 
Q 45.015625 15.765625 45.015625 23.390625 
Q 45.015625 31 40.078125 35.4375 
Q 35.15625 39.890625 26.703125 39.890625 
Q 22.75 39.890625 18.8125 39.015625 
Q 14.890625 38.140625 10.796875 36.28125 
z
" id="DejaVuSans-53"/>
       <path d="M 37.796875 64.3125 
L 12.890625 25.390625 
L 37.796875 25.390625 
z
M 35.203125 72.90625 
L 47.609375 72.90625 
L 47.609375 25.390625 
L 58.015625 25.390625 
L 58.015625 17.1875 
L 47.609375 17.1875 
L 47.609375 0 
L 37.796875 0 
L 37.796875 17.1875 
L 4.890625 17.1875 
L 4.890625 26.703125 
z
" id="DejaVuSans-52"/>
      </defs>
      <g transform="translate(46.335849 291.410437)scale(0.1 -0.1)">
       <use xlink:href="#DejaVuSans-53"/>
       <use x="63.623047" xlink:href="#DejaVuSans-52"/>
      </g>
     </g>
    </g>
    <g id="xtick_2">
     <g id="line2d_2">
      <g>
       <use style="stroke:#000000;stroke-width:0.8;" x="95.997467" xlink:href="#mddea69db51" y="276.812"/>
      </g>
     </g>
     <g id="text_2">
      <!-- 56 -->
      <defs>
       <path d="M 33.015625 40.375 
Q 26.375 40.375 22.484375 35.828125 
Q 18.609375 31.296875 18.609375 23.390625 
Q 18.609375 15.53125 22.484375 10.953125 
Q 26.375 6.390625 33.015625 6.390625 
Q 39.65625 6.390625 43.53125 10.953125 
Q 47.40625 15.53125 47.40625 23.390625 
Q 47.40625 31.296875 43.53125 35.828125 
Q 39.65625 40.375 33.015625 40.375 
z
M 52.59375 71.296875 
L 52.59375 62.3125 
Q 48.875 64.0625 45.09375 64.984375 
Q 41.3125 65.921875 37.59375 65.921875 
Q 27.828125 65.921875 22.671875 59.328125 
Q 17.53125 52.734375 16.796875 39.40625 
Q 19.671875 43.65625 24.015625 45.921875 
Q 28.375 48.1875 33.59375 48.1875 
Q 44.578125 48.1875 50.953125 41.515625 
Q 57.328125 34.859375 57.328125 23.390625 
Q 57.328125 12.15625 50.6875 5.359375 
Q 44.046875 -1.421875 33.015625 -1.421875 
Q 20.359375 -1.421875 13.671875 8.265625 
Q 6.984375 17.96875 6.984375 36.375 
Q 6.984375 53.65625 15.1875 63.9375 
Q 23.390625 74.21875 37.203125 74.21875 
Q 40.921875 74.21875 44.703125 73.484375 
Q 48.484375 72.75 52.59375 71.296875 
z
" id="DejaVuSans-54"/>
      </defs>
      <g transform="translate(89.634967 291.410437)scale(0.1 -0.1)">
       <use xlink:href="#DejaVuSans-53"/>
       <use x="63.623047" xlink:href="#DejaVuSans-54"/>
      </g>
     </g>
    </g>
    <g id="xtick_3">
     <g id="line2d_3">
      <g>
       <use style="stroke:#000000;stroke-width:0.8;" x="139.296577" xlink:href="#mddea69db51" y="276.812"/>
      </g>
     </g>
     <g id="text_3">
      <!-- 58 -->
      <defs>
       <path d="M 31.78125 34.625 
Q 24.75 34.625 20.71875 30.859375 
Q 16.703125 27.09375 16.703125 20.515625 
Q 16.703125 13.921875 20.71875 10.15625 
Q 24.75 6.390625 31.78125 6.390625 
Q 38.8125 6.390625 42.859375 10.171875 
Q 46.921875 13.96875 46.921875 20.515625 
Q 46.921875 27.09375 42.890625 30.859375 
Q 38.875 34.625 31.78125 34.625 
z
M 21.921875 38.8125 
Q 15.578125 40.375 12.03125 44.71875 
Q 8.5 49.078125 8.5 55.328125 
Q 8.5 64.0625 14.71875 69.140625 
Q 20.953125 74.21875 31.78125 74.21875 
Q 42.671875 74.21875 48.875 69.140625 
Q 55.078125 64.0625 55.078125 55.328125 
Q 55.078125 49.078125 51.53125 44.71875 
Q 48 40.375 41.703125 38.8125 
Q 48.828125 37.15625 52.796875 32.3125 
Q 56.78125 27.484375 56.78125 20.515625 
Q 56.78125 9.90625 50.3125 4.234375 
Q 43.84375 -1.421875 31.78125 -1.421875 
Q 19.734375 -1.421875 13.25 4.234375 
Q 6.78125 9.90625 6.78125 20.515625 
Q 6.78125 27.484375 10.78125 32.3125 
Q 14.796875 37.15625 21.921875 38.8125 
z
M 18.3125 54.390625 
Q 18.3125 48.734375 21.84375 45.5625 
Q 25.390625 42.390625 31.78125 42.390625 
Q 38.140625 42.390625 41.71875 45.5625 
Q 45.3125 48.734375 45.3125 54.390625 
Q 45.3125 60.0625 41.71875 63.234375 
Q 38.140625 66.40625 31.78125 66.40625 
Q 25.390625 66.40625 21.84375 63.234375 
Q 18.3125 60.0625 18.3125 54.390625 
z
" id="DejaVuSans-56"/>
      </defs>
      <g transform="translate(132.934077 291.410437)scale(0.1 -0.1)">
       <use xlink:href="#DejaVuSans-53"/>
       <use x="63.623047" xlink:href="#DejaVuSans-56"/>
      </g>
     </g>
    </g>
    <g id="xtick_4">
     <g id="line2d_4">
      <g>
       <use style="stroke:#000000;stroke-width:0.8;" x="182.595695" xlink:href="#mddea69db51" y="276.812"/>
      </g>
     </g>
     <g id="text_4">
      <!-- 60 -->
      <defs>
       <path d="M 31.78125 66.40625 
Q 24.171875 66.40625 20.328125 58.90625 
Q 16.5 51.421875 16.5 36.375 
Q 16.5 21.390625 20.328125 13.890625 
Q 24.171875 6.390625 31.78125 6.390625 
Q 39.453125 6.390625 43.28125 13.890625 
Q 47.125 21.390625 47.125 36.375 
Q 47.125 51.421875 43.28125 58.90625 
Q 39.453125 66.40625 31.78125 66.40625 
z
M 31.78125 74.21875 
Q 44.046875 74.21875 50.515625 64.515625 
Q 56.984375 54.828125 56.984375 36.375 
Q 56.984375 17.96875 50.515625 8.265625 
Q 44.046875 -1.421875 31.78125 -1.421875 
Q 19.53125 -1.421875 13.0625 8.265625 
Q 6.59375 17.96875 6.59375 36.375 
Q 6.59375 54.828125 13.0625 64.515625 
Q 19.53125 74.21875 31.78125 74.21875 
z
" id="DejaVuSans-48"/>
      </defs>
      <g transform="translate(176.233195 291.410437)scale(0.1 -0.1)">
       <use xlink:href="#DejaVuSans-54"/>
       <use x="63.623047" xlink:href="#DejaVuSans-48"/>
      </g>
     </g>
    </g>
    <g id="xtick_5">
     <g id="line2d_5">
      <g>
       <use style="stroke:#000000;stroke-width:0.8;" x="225.894806" xlink:href="#mddea69db51" y="276.812"/>
      </g>
     </g>
     <g id="text_5">
      <!-- 62 -->
      <defs>
       <path d="M 19.1875 8.296875 
L 53.609375 8.296875 
L 53.609375 0 
L 7.328125 0 
L 7.328125 8.296875 
Q 12.9375 14.109375 22.625 23.890625 
Q 32.328125 33.6875 34.8125 36.53125 
Q 39.546875 41.84375 41.421875 45.53125 
Q 43.3125 49.21875 43.3125 52.78125 
Q 43.3125 58.59375 39.234375 62.25 
Q 35.15625 65.921875 28.609375 65.921875 
Q 23.96875 65.921875 18.8125 64.3125 
Q 13.671875 62.703125 7.8125 59.421875 
L 7.8125 69.390625 
Q 13.765625 71.78125 18.9375 73 
Q 24.125 74.21875 28.421875 74.21875 
Q 39.75 74.21875 46.484375 68.546875 
Q 53.21875 62.890625 53.21875 53.421875 
Q 53.21875 48.921875 51.53125 44.890625 
Q 49.859375 40.875 45.40625 35.40625 
Q 44.1875 33.984375 37.640625 27.21875 
Q 31.109375 20.453125 19.1875 8.296875 
z
" id="DejaVuSans-50"/>
      </defs>
      <g transform="translate(219.532306 291.410437)scale(0.1 -0.1)">
       <use xlink:href="#DejaVuSans-54"/>
       <use x="63.623047" xlink:href="#DejaVuSans-50"/>
      </g>
     </g>
    </g>
    <g id="xtick_6">
     <g id="line2d_6">
      <g>
       <use style="stroke:#000000;stroke-width:0.8;" x="269.193924" xlink:href="#mddea69db51" y="276.812"/>
      </g>
     </g>
     <g id="text_6">
      <!-- 64 -->
      <g transform="translate(262.831424 291.410437)scale(0.1 -0.1)">
       <use xlink:href="#DejaVuSans-54"/>
       <use x="63.623047" xlink:href="#DejaVuSans-52"/>
      </g>
     </g>
    </g>
    <g id="xtick_7">
     <g id="line2d_7">
      <g>
       <use style="stroke:#000000;stroke-width:0.8;" x="312.493034" xlink:href="#mddea69db51" y="276.812"/>
      </g>
     </g>
     <g id="text_7">
      <!-- 66 -->
      <g transform="translate(306.130534 291.410437)scale(0.1 -0.1)">
       <use xlink:href="#DejaVuSans-54"/>
       <use x="63.623047" xlink:href="#DejaVuSans-54"/>
      </g>
     </g>
    </g>
    <g id="xtick_8">
     <g id="line2d_8">
      <g>
       <use style="stroke:#000000;stroke-width:0.8;" x="355.792152" xlink:href="#mddea69db51" y="276.812"/>
      </g>
     </g>
     <g id="text_8">
      <!-- 68 -->
      <g transform="translate(349.429652 291.410437)scale(0.1 -0.1)">
       <use xlink:href="#DejaVuSans-54"/>
       <use x="63.623047" xlink:href="#DejaVuSans-56"/>
      </g>
     </g>
    </g>
    <g id="text_9">
     <!-- +1.5961601e9 -->
     <defs>
      <path d="M 46 62.703125 
L 46 35.5 
L 73.1875 35.5 
L 73.1875 27.203125 
L 46 27.203125 
L 46 0 
L 37.796875 0 
L 37.796875 27.203125 
L 10.59375 27.203125 
L 10.59375 35.5 
L 37.796875 35.5 
L 37.796875 62.703125 
z
" id="DejaVuSans-43"/>
      <path d="M 12.40625 8.296875 
L 28.515625 8.296875 
L 28.515625 63.921875 
L 10.984375 60.40625 
L 10.984375 69.390625 
L 28.421875 72.90625 
L 38.28125 72.90625 
L 38.28125 8.296875 
L 54.390625 8.296875 
L 54.390625 0 
L 12.40625 0 
z
" id="DejaVuSans-49"/>
      <path d="M 10.6875 12.40625 
L 21 12.40625 
L 21 0 
L 10.6875 0 
z
" id="DejaVuSans-46"/>
      <path d="M 10.984375 1.515625 
L 10.984375 10.5 
Q 14.703125 8.734375 18.5 7.8125 
Q 22.3125 6.890625 25.984375 6.890625 
Q 35.75 6.890625 40.890625 13.453125 
Q 46.046875 20.015625 46.78125 33.40625 
Q 43.953125 29.203125 39.59375 26.953125 
Q 35.25 24.703125 29.984375 24.703125 
Q 19.046875 24.703125 12.671875 31.3125 
Q 6.296875 37.9375 6.296875 49.421875 
Q 6.296875 60.640625 12.9375 67.421875 
Q 19.578125 74.21875 30.609375 74.21875 
Q 43.265625 74.21875 49.921875 64.515625 
Q 56.59375 54.828125 56.59375 36.375 
Q 56.59375 19.140625 48.40625 8.859375 
Q 40.234375 -1.421875 26.421875 -1.421875 
Q 22.703125 -1.421875 18.890625 -0.6875 
Q 15.09375 0.046875 10.984375 1.515625 
z
M 30.609375 32.421875 
Q 37.25 32.421875 41.125 36.953125 
Q 45.015625 41.5 45.015625 49.421875 
Q 45.015625 57.28125 41.125 61.84375 
Q 37.25 66.40625 30.609375 66.40625 
Q 23.96875 66.40625 20.09375 61.84375 
Q 16.21875 57.28125 16.21875 49.421875 
Q 16.21875 41.5 20.09375 36.953125 
Q 23.96875 32.421875 30.609375 32.421875 
z
" id="DejaVuSans-57"/>
      <path d="M 56.203125 29.59375 
L 56.203125 25.203125 
L 14.890625 25.203125 
Q 15.484375 15.921875 20.484375 11.0625 
Q 25.484375 6.203125 34.421875 6.203125 
Q 39.59375 6.203125 44.453125 7.46875 
Q 49.3125 8.734375 54.109375 11.28125 
L 54.109375 2.78125 
Q 49.265625 0.734375 44.1875 -0.34375 
Q 39.109375 -1.421875 33.890625 -1.421875 
Q 20.796875 -1.421875 13.15625 6.1875 
Q 5.515625 13.8125 5.515625 26.8125 
Q 5.515625 40.234375 12.765625 48.109375 
Q 20.015625 56 32.328125 56 
Q 43.359375 56 49.78125 48.890625 
Q 56.203125 41.796875 56.203125 29.59375 
z
M 47.21875 32.234375 
Q 47.125 39.59375 43.09375 43.984375 
Q 39.0625 48.390625 32.421875 48.390625 
Q 24.90625 48.390625 20.390625 44.140625 
Q 15.875 39.890625 15.1875 32.171875 
z
" id="DejaVuSans-101"/>
     </defs>
     <g transform="translate(318.612188 304.088562)scale(0.1 -0.1)">
      <use xlink:href="#DejaVuSans-43"/>
      <use x="83.789062" xlink:href="#DejaVuSans-49"/>
      <use x="147.412109" xlink:href="#DejaVuSans-46"/>
      <use x="179.199219" xlink:href="#DejaVuSans-53"/>
      <use x="242.822266" xlink:href="#DejaVuSans-57"/>
      <use x="306.445312" xlink:href="#DejaVuSans-54"/>
      <use x="370.068359" xlink:href="#DejaVuSans-49"/>
      <use x="433.691406" xlink:href="#DejaVuSans-54"/>
      <use x="497.314453" xlink:href="#DejaVuSans-48"/>
      <use x="560.9375" xlink:href="#DejaVuSans-49"/>
      <use x="624.560547" xlink:href="#DejaVuSans-101"/>
      <use x="686.083984" xlink:href="#DejaVuSans-57"/>
     </g>
    </g>
   </g>
   <g id="matplotlib.axis_2">
    <g id="ytick_1">
     <g id="line2d_9">
      <defs>
       <path d="M 0 0 
L -3.5 0 
" id="m3a514b746c" style="stroke:#000000;stroke-width:0.8;"/>
      </defs>
      <g>
       <use style="stroke:#000000;stroke-width:0.8;" x="36.465625" xlink:href="#m3a514b746c" y="264.716"/>
      </g>
     </g>
     <g id="text_10">
      <!-- 0.00 -->
      <g transform="translate(7.2 268.515219)scale(0.1 -0.1)">
       <use xlink:href="#DejaVuSans-48"/>
       <use x="63.623047" xlink:href="#DejaVuSans-46"/>
       <use x="95.410156" xlink:href="#DejaVuSans-48"/>
       <use x="159.033203" xlink:href="#DejaVuSans-48"/>
      </g>
     </g>
    </g>
    <g id="ytick_2">
     <g id="line2d_10">
      <g>
       <use style="stroke:#000000;stroke-width:0.8;" x="36.465625" xlink:href="#m3a514b746c" y="234.221882"/>
      </g>
     </g>
     <g id="text_11">
      <!-- 0.25 -->
      <g transform="translate(7.2 238.021101)scale(0.1 -0.1)">
       <use xlink:href="#DejaVuSans-48"/>
       <use x="63.623047" xlink:href="#DejaVuSans-46"/>
       <use x="95.410156" xlink:href="#DejaVuSans-50"/>
       <use x="159.033203" xlink:href="#DejaVuSans-53"/>
      </g>
     </g>
    </g>
    <g id="ytick_3">
     <g id="line2d_11">
      <g>
       <use style="stroke:#000000;stroke-width:0.8;" x="36.465625" xlink:href="#m3a514b746c" y="203.727765"/>
      </g>
     </g>
     <g id="text_12">
      <!-- 0.50 -->
      <g transform="translate(7.2 207.526983)scale(0.1 -0.1)">
       <use xlink:href="#DejaVuSans-48"/>
       <use x="63.623047" xlink:href="#DejaVuSans-46"/>
       <use x="95.410156" xlink:href="#DejaVuSans-53"/>
       <use x="159.033203" xlink:href="#DejaVuSans-48"/>
      </g>
     </g>
    </g>
    <g id="ytick_4">
     <g id="line2d_12">
      <g>
       <use style="stroke:#000000;stroke-width:0.8;" x="36.465625" xlink:href="#m3a514b746c" y="173.233647"/>
      </g>
     </g>
     <g id="text_13">
      <!-- 0.75 -->
      <defs>
       <path d="M 8.203125 72.90625 
L 55.078125 72.90625 
L 55.078125 68.703125 
L 28.609375 0 
L 18.3125 0 
L 43.21875 64.59375 
L 8.203125 64.59375 
z
" id="DejaVuSans-55"/>
      </defs>
      <g transform="translate(7.2 177.032866)scale(0.1 -0.1)">
       <use xlink:href="#DejaVuSans-48"/>
       <use x="63.623047" xlink:href="#DejaVuSans-46"/>
       <use x="95.410156" xlink:href="#DejaVuSans-55"/>
       <use x="159.033203" xlink:href="#DejaVuSans-53"/>
      </g>
     </g>
    </g>
    <g id="ytick_5">
     <g id="line2d_13">
      <g>
       <use style="stroke:#000000;stroke-width:0.8;" x="36.465625" xlink:href="#m3a514b746c" y="142.739529"/>
      </g>
     </g>
     <g id="text_14">
      <!-- 1.00 -->
      <g transform="translate(7.2 146.538748)scale(0.1 -0.1)">
       <use xlink:href="#DejaVuSans-49"/>
       <use x="63.623047" xlink:href="#DejaVuSans-46"/>
       <use x="95.410156" xlink:href="#DejaVuSans-48"/>
       <use x="159.033203" xlink:href="#DejaVuSans-48"/>
      </g>
     </g>
    </g>
    <g id="ytick_6">
     <g id="line2d_14">
      <g>
       <use style="stroke:#000000;stroke-width:0.8;" x="36.465625" xlink:href="#m3a514b746c" y="112.245412"/>
      </g>
     </g>
     <g id="text_15">
      <!-- 1.25 -->
      <g transform="translate(7.2 116.044631)scale(0.1 -0.1)">
       <use xlink:href="#DejaVuSans-49"/>
       <use x="63.623047" xlink:href="#DejaVuSans-46"/>
       <use x="95.410156" xlink:href="#DejaVuSans-50"/>
       <use x="159.033203" xlink:href="#DejaVuSans-53"/>
      </g>
     </g>
    </g>
    <g id="ytick_7">
     <g id="line2d_15">
      <g>
       <use style="stroke:#000000;stroke-width:0.8;" x="36.465625" xlink:href="#m3a514b746c" y="81.751294"/>
      </g>
     </g>
     <g id="text_16">
      <!-- 1.50 -->
      <g transform="translate(7.2 85.550513)scale(0.1 -0.1)">
       <use xlink:href="#DejaVuSans-49"/>
       <use x="63.623047" xlink:href="#DejaVuSans-46"/>
       <use x="95.410156" xlink:href="#DejaVuSans-53"/>
       <use x="159.033203" xlink:href="#DejaVuSans-48"/>
      </g>
     </g>
    </g>
    <g id="ytick_8">
     <g id="line2d_16">
      <g>
       <use style="stroke:#000000;stroke-width:0.8;" x="36.465625" xlink:href="#m3a514b746c" y="51.257176"/>
      </g>
     </g>
     <g id="text_17">
      <!-- 1.75 -->
      <g transform="translate(7.2 55.056395)scale(0.1 -0.1)">
       <use xlink:href="#DejaVuSans-49"/>
       <use x="63.623047" xlink:href="#DejaVuSans-46"/>
       <use x="95.410156" xlink:href="#DejaVuSans-55"/>
       <use x="159.033203" xlink:href="#DejaVuSans-53"/>
      </g>
     </g>
    </g>
    <g id="ytick_9">
     <g id="line2d_17">
      <g>
       <use style="stroke:#000000;stroke-width:0.8;" x="36.465625" xlink:href="#m3a514b746c" y="20.763059"/>
      </g>
     </g>
     <g id="text_18">
      <!-- 2.00 -->
      <g transform="translate(7.2 24.562278)scale(0.1 -0.1)">
       <use xlink:href="#DejaVuSans-50"/>
       <use x="63.623047" xlink:href="#DejaVuSans-46"/>
       <use x="95.410156" xlink:href="#DejaVuSans-48"/>
       <use x="159.033203" xlink:href="#DejaVuSans-48"/>
      </g>
     </g>
    </g>
   </g>
   <g id="line2d_18">
    <path clip-path="url(#p504730c29d)" d="M 52.698349 264.716 
L 52.914848 141.384235 
L 53.634995 141.384235 
L 53.638481 26.03733 
L 53.638481 264.716 
L 53.962196 264.716 
L 53.962196 245.614751 
L 54.071472 245.614751 
L 54.127098 245.614751 
L 54.127098 25.746133 
L 54.523331 25.746133 
L 54.523331 264.716 
L 54.806702 264.716 
L 54.806702 247.893026 
L 54.971725 247.893026 
L 54.971725 53.131236 
L 60.268372 53.131236 
L 60.268372 264.716 
L 60.575897 264.716 
L 60.66008 41.291702 
L 63.912018 41.291702 
L 63.912018 264.716 
L 64.261665 264.716 
L 64.318565 23.053602 
L 64.320168 264.716 
L 74.361221 264.716 
L 74.361221 77.335682 
L 74.363152 264.716 
L 74.60762 264.716 
L 74.60762 250.089975 
L 77.343285 250.089975 
L 77.343285 37.5535 
L 77.344887 264.716 
L 78.104042 264.716 
L 78.104042 221.024484 
L 78.210869 221.024484 
L 78.296165 221.024484 
L 78.296165 26.122684 
L 78.297729 264.716 
L 78.569374 264.716 
L 78.569374 248.555288 
L 82.441765 248.555288 
L 82.441765 44.111077 
L 82.443375 264.716 
L 82.634048 264.716 
L 82.634048 253.127869 
L 82.659874 253.127869 
L 86.668831 253.127869 
L 86.670494 44.569837 
L 86.670494 264.716 
L 86.861061 264.716 
L 86.861061 253.133991 
L 86.886993 253.133991 
L 91.491272 253.133991 
L 91.491272 47.923947 
L 91.49295 264.716 
L 91.683334 264.716 
L 91.683334 253.144193 
L 91.70945 253.144193 
L 98.045609 253.144193 
L 98.045609 57.68159 
L 98.04731 264.716 
L 98.237854 264.716 
L 98.237854 253.135448 
L 98.263809 253.135448 
L 103.32795 253.135448 
L 103.32795 50.514843 
L 103.329605 264.716 
L 103.520363 264.716 
L 103.520363 253.122914 
L 103.546097 253.122914 
L 106.851646 253.122914 
L 106.851646 40.606733 
L 106.853287 264.716 
L 106.989548 264.716 
L 106.989548 256.20045 
L 107.069778 256.20045 
L 108.101723 256.20045 
L 108.101723 99.525293 
L 108.15226 99.525293 
L 108.266602 99.525293 
L 108.266602 28.725853 
L 108.268143 264.716 
L 109.081444 264.716 
L 109.081444 217.966769 
L 109.134125 217.966769 
L 109.246368 217.966769 
L 109.246368 26.274518 
L 109.24791 264.716 
L 112.794327 264.716 
L 112.794327 63.622405 
L 112.959053 63.622405 
L 112.959053 41.672132 
L 112.960625 264.716 
L 113.259521 264.716 
L 113.259521 247.016228 
L 116.915688 247.016228 
L 116.915688 43.046405 
L 116.917336 264.716 
L 117.216209 264.716 
L 117.216209 247.017394 
L 119.735535 247.017394 
L 119.735535 36.641156 
L 119.737175 264.716 
L 120.036041 264.716 
L 120.036041 247.017686 
L 120.200745 247.017686 
L 120.200745 42.62523 
L 123.617493 42.62523 
L 123.617493 264.716 
L 123.911263 264.716 
L 123.911263 247.305677 
L 124.076042 247.305677 
L 124.076042 46.08313 
L 128.111862 46.08313 
L 128.111862 264.716 
L 128.408661 264.716 
L 128.465416 50.126483 
L 133.323853 50.126483 
L 133.323853 264.716 
L 133.636932 264.716 
L 133.636932 246.215218 
L 134.532883 246.215218 
L 134.532883 27.574867 
L 134.53447 264.716 
L 134.860168 264.716 
L 134.860168 245.50282 
L 134.967461 245.50282 
L 134.998062 245.50282 
L 134.998062 25.925137 
L 135.450836 25.925137 
L 135.450836 264.716 
L 135.758781 264.716 
L 135.758781 246.504957 
L 135.896645 246.504957 
L 135.896645 37.976055 
L 138.506248 37.976055 
L 138.506248 264.716 
L 138.821938 264.716 
L 138.821938 246.068016 
L 138.959862 246.068016 
L 138.959862 32.719426 
L 140.628571 32.719426 
L 140.628571 264.716 
L 140.938187 264.716 
L 140.938187 246.410807 
L 141.07618 246.410807 
L 141.07618 36.836776 
L 143.481651 36.836776 
L 143.481651 264.716 
L 143.839165 264.716 
L 143.839165 243.706084 
L 143.914642 243.706084 
L 143.977203 243.706084 
L 143.977203 23.555082 
L 143.978767 264.716 
L 144.683403 264.716 
L 144.683403 224.103186 
L 144.848671 224.103186 
L 144.848671 25.664244 
L 144.850235 264.716 
L 146.014885 264.716 
L 146.014885 198.125433 
L 146.152954 198.125433 
L 146.152954 28.102782 
L 146.15451 264.716 
L 147.96891 264.716 
L 147.96891 161.432852 
L 148.10672 161.432852 
L 148.10672 31.762073 
L 148.108276 264.716 
L 152.304016 264.716 
L 152.304016 44.402415 
L 152.305695 264.716 
L 152.441986 264.716 
L 152.441986 256.198701 
L 152.522186 256.198701 
L 158.236084 256.198701 
L 158.236084 54.175646 
L 158.237679 264.716 
L 158.428314 264.716 
L 158.428314 253.12991 
L 158.454178 253.12991 
L 158.647377 253.12991 
L 158.647377 113.043618 
L 158.67067 113.043618 
L 174.616928 113.043618 
L 174.616928 264.716 
L 174.941383 264.716 
L 174.970825 32.891003 
L 175.049919 32.891003 
L 176.769691 32.891003 
L 176.769691 264.716 
L 177.111649 264.716 
L 177.111649 244.584339 
L 177.202682 244.584339 
L 177.249504 244.584339 
L 177.249504 23.466384 
L 177.251137 264.716 
L 178.388771 264.716 
L 178.388771 199.651376 
L 178.553833 199.651376 
L 178.553833 28.102608 
L 178.555397 264.716 
L 178.88118 264.716 
L 178.88118 245.497864 
L 178.988388 245.497864 
L 182.212837 245.497864 
L 182.212837 41.369568 
L 182.214432 264.716 
L 182.540047 264.716 
L 182.540047 245.507484 
L 182.647423 245.507484 
L 182.704971 245.507484 
L 182.704971 24.454976 
L 182.869774 24.454976 
L 182.869774 264.716 
L 183.167999 264.716 
L 183.167999 247.054122 
L 183.332848 247.054122 
L 183.332848 43.054854 
L 186.826431 43.054854 
L 186.826431 264.716 
L 187.124283 264.716 
L 187.124283 247.075109 
L 187.289314 247.075109 
L 187.289314 43.296985 
L 190.826218 43.296985 
L 190.826218 264.716 
L 191.135002 264.716 
L 191.135002 246.458028 
L 191.299835 246.458028 
L 191.299835 35.888493 
L 193.511017 35.888493 
L 193.511017 264.716 
L 193.819572 264.716 
L 193.819572 246.470853 
L 193.984467 246.470853 
L 193.984467 36.039489 
L 196.222534 36.039489 
L 196.222534 264.716 
L 196.558205 264.716 
L 196.558205 244.939664 
L 196.655525 244.939664 
L 196.696053 244.939664 
L 196.696053 23.430934 
L 196.697601 264.716 
L 200.487556 264.716 
L 200.487556 49.869391 
L 200.594513 49.869391 
L 200.625389 49.869391 
L 200.625389 42.892739 
L 200.626953 264.716 
L 205.255722 264.716 
L 205.257385 46.842175 
L 205.257385 264.716 
L 205.393524 264.716 
L 205.393524 256.207446 
L 205.473877 256.207446 
L 210.294556 256.207446 
L 210.294556 49.143158 
L 210.296219 264.716 
L 210.432465 264.716 
L 210.432465 256.201616 
L 210.512718 256.201616 
L 213.492996 256.201616 
L 213.492996 38.774136 
L 213.494606 264.716 
L 213.685181 264.716 
L 213.685181 253.133699 
L 213.711105 253.133699 
L 217.314171 253.133699 
L 217.314171 42.282959 
L 217.315842 264.716 
L 217.614517 264.716 
L 217.614517 247.028762 
L 220.079781 247.028762 
L 220.079781 36.335452 
L 220.081429 264.716 
L 220.380402 264.716 
L 220.380402 247.012148 
L 224.415314 247.012148 
L 224.415314 45.180722 
L 224.417114 264.716 
L 224.580452 264.716 
L 224.580452 254.671301 
L 224.633606 254.671301 
L 225.259712 254.671301 
L 225.259712 105.587794 
L 225.283096 105.587794 
L 225.424644 105.587794 
L 225.424644 26.439643 
L 225.426178 264.716 
L 229.486526 264.716 
L 229.486526 43.639609 
L 229.488205 264.716 
L 229.678787 264.716 
L 229.678787 253.132825 
L 229.704697 253.132825 
L 233.930046 253.132825 
L 233.930046 45.78899 
L 233.931709 264.716 
L 234.095207 264.716 
L 234.095207 254.662557 
L 234.148201 254.662557 
L 234.747383 254.662557 
L 234.747383 107.012096 
L 234.797691 107.012096 
L 234.885513 107.012096 
L 234.887054 26.136905 
L 234.887054 264.716 
L 238.649673 264.716 
L 238.649673 51.413114 
L 238.814819 51.413114 
L 238.814819 42.892593 
L 238.816353 264.716 
L 241.766953 264.716 
L 241.84729 97.269513 
L 241.932404 97.269513 
L 241.932404 38.319273 
L 241.933983 264.716 
L 244.072701 264.716 
L 244.072701 143.118042 
L 244.098938 143.118042 
L 244.237671 143.118042 
L 244.237671 33.742346 
L 244.239235 264.716 
L 248.057175 264.716 
L 248.136147 48.28894 
L 248.221359 48.28894 
L 248.221359 43.198908 
L 248.22316 264.716 
L 251.959015 264.716 
L 251.959015 52.924483 
L 252.096741 52.924483 
L 252.096741 42.587325 
L 252.098351 264.716 
L 253.317085 264.716 
L 253.317085 195.071216 
L 253.397324 195.071216 
L 253.482071 195.071216 
L 253.482071 28.559129 
L 253.48362 264.716 
L 256.78627 264.716 
L 256.78627 77.388535 
L 256.951553 77.388535 
L 256.951553 40.301872 
L 256.953156 264.716 
L 258.171776 264.716 
L 258.171776 195.077337 
L 258.252121 195.077337 
L 258.337143 195.077337 
L 258.337143 28.560641 
L 258.338699 264.716 
L 261.018799 264.716 
L 261.018799 112.545263 
L 261.183937 112.545263 
L 261.183937 36.793514 
L 261.185516 264.716 
L 262.025368 264.716 
L 262.025368 216.467643 
L 262.051498 216.467643 
L 262.190483 216.467643 
L 262.190483 26.42516 
L 262.192032 264.716 
L 264.818405 264.716 
L 264.818405 115.579076 
L 264.983337 115.579076 
L 264.983337 36.489642 
L 264.984901 264.716 
L 265.310844 264.716 
L 265.310844 245.488828 
L 265.417892 245.488828 
L 265.584358 245.488828 
L 265.584358 24.140463 
L 265.585907 264.716 
L 265.911629 264.716 
L 265.911629 245.501071 
L 266.018898 245.501071 
L 267.700432 245.501071 
L 267.700432 32.676597 
L 267.702087 264.716 
L 268.027634 264.716 
L 268.027634 245.510981 
L 268.135078 245.510981 
L 269.221336 245.510981 
L 269.221336 29.32272 
L 269.223557 264.716 
L 269.548645 264.716 
L 269.548645 245.536924 
L 269.656548 245.536924 
L 272.446793 245.536924 
L 272.446793 38.923207 
L 272.448395 264.716 
L 272.774277 264.716 
L 272.774277 245.492035 
L 272.881386 245.492035 
L 274.373863 245.492035 
L 274.373863 31.611402 
L 274.375488 264.716 
L 274.701218 264.716 
L 274.701218 245.500779 
L 274.808479 245.500779 
L 274.839272 245.500779 
L 274.839272 25.89186 
L 275.286125 25.89186 
L 275.286125 264.716 
L 275.572556 264.716 
L 275.572556 247.720173 
L 275.73761 247.720173 
L 275.73761 51.051248 
L 280.662186 51.051248 
L 280.662186 264.716 
L 280.963188 264.716 
L 281.049973 22.947891 
L 281.051506 264.716 
L 303.622307 264.716 
L 303.622307 147.92993 
L 303.625381 264.716 
L 303.759827 264.716 
L 303.759827 256.303346 
L 303.841881 256.303346 
L 304.845192 256.303346 
L 304.845192 102.276415 
L 304.924355 102.276415 
L 305.010155 102.276415 
L 305.010155 28.565032 
L 305.011673 264.716 
L 305.499832 264.716 
L 305.499832 236.328508 
L 305.665154 236.328508 
L 305.665154 24.444858 
L 305.666695 264.716 
L 307.751305 264.716 
L 307.751305 146.173425 
L 307.83165 146.173425 
L 307.889313 146.173425 
L 307.889313 33.285592 
L 307.890869 264.716 
L 310.760773 264.716 
L 310.760773 101.826937 
L 310.898788 101.826937 
L 310.898788 37.710045 
L 310.90033 264.716 
L 314.852386 264.716 
L 314.852386 43.02948 
L 314.854111 264.716 
L 315.044502 264.716 
L 315.044502 253.14361 
L 315.07061 253.14361 
L 319.701805 253.14361 
L 319.701805 48.075578 
L 319.703445 264.716 
L 320.245651 264.716 
L 320.245651 233.275749 
L 320.352928 233.275749 
L 322.143089 233.275749 
L 322.143089 34.508351 
L 322.14473 264.716 
L 322.280708 264.716 
L 322.280708 256.216191 
L 322.361221 256.216191 
L 322.554283 256.216191 
L 322.554283 147.072108 
L 322.577713 147.072108 
L 344.56353 147.072108 
L 344.56353 264.716 
L 344.882896 264.716 
L 344.882896 245.860185 
L 345.940849 245.860185 
L 345.940849 28.523068 
L 345.942474 264.716 
L 346.268211 264.716 
L 346.268211 245.500779 
L 346.375465 245.500779 
L 346.406357 245.500779 
L 346.406357 25.886613 
L 346.852005 25.886613 
L 346.852005 264.716 
L 347.166603 264.716 
L 347.166603 246.129229 
L 347.30471 246.129229 
L 347.30471 33.444902 
L 349.103096 33.444902 
L 349.103096 264.716 
L 349.418251 264.716 
L 349.418251 246.098331 
L 349.58313 246.098331 
L 349.58313 31.561461 
L 351.019806 31.561461 
L 351.019806 264.716 
L 351.345032 264.716 
L 351.345032 245.529345 
L 351.452797 245.529345 
L 351.5103 245.529345 
L 351.5103 24.698293 
L 351.718491 24.698293 
L 351.718491 264.716 
L 352.0271 264.716 
L 352.0271 246.467647 
L 352.19223 246.467647 
L 352.19223 35.98753 
L 354.42083 35.98753 
L 354.42083 264.716 
L 354.71151 264.716 
L 354.71151 247.480278 
L 354.849457 247.480278 
L 354.849457 49.697845 
L 354.853821 49.697845 
L 359.556862 49.697845 
L 359.556862 264.716 
L 359.861473 264.716 
L 359.918289 44.820206 
L 363.826843 44.820206 
L 363.826843 264.716 
L 364.142708 264.716 
L 364.17218 38.724444 
L 367.014984 38.724444 
L 367.014984 264.716 
L 367.341072 264.716 
L 367.341072 245.480667 
L 367.447975 245.480667 
L 367.506035 245.480667 
L 367.506035 24.130219 
L 367.612656 264.716 
L 367.914925 264.716 
L 367.914925 246.825595 
L 368.05307 246.825595 
L 368.05307 41.815104 
L 371.349495 41.815104 
L 371.349495 264.716 
L 371.65464 264.716 
L 371.65464 246.663527 
L 371.819862 246.663527 
L 371.819862 38.337387 
L 374.469147 38.337387 
L 374.469147 264.716 
L 374.799217 264.716 
L 374.799217 245.255929 
L 374.902138 245.255929 
L 374.964516 245.255929 
L 374.964516 23.554035 
L 374.96608 264.716 
L 375.454025 264.716 
L 375.454025 236.340168 
L 375.6194 236.340168 
L 375.6194 24.443957 
L 375.620926 264.716 
L 377.35289 264.716 
L 377.35289 264.716 
" style="fill:none;stroke:#ff0000;stroke-linecap:square;stroke-width:1.5;"/>
   </g>
   <g id="line2d_19">
    <path clip-path="url(#p504730c29d)" d="M 52.698349 264.716 
L 52.914848 251.840706 
L 53.486908 251.840706 
L 53.486908 77.46551 
L 53.564331 77.46551 
L 53.679062 77.46551 
L 53.680756 26.285715 
L 53.680756 264.716 
L 53.979507 264.716 
L 53.979507 247.024099 
L 54.523376 247.024099 
L 54.523376 25.510519 
L 54.524956 264.716 
L 54.850525 264.716 
L 54.850525 245.509815 
L 54.957947 245.509815 
L 60.292931 245.509815 
L 60.292931 53.260569 
L 60.294563 264.716 
L 60.430847 264.716 
L 60.430847 256.199284 
L 60.511063 256.199284 
L 63.924416 256.199284 
L 63.924416 41.214128 
L 63.926071 264.716 
L 64.333191 264.716 
L 64.333191 240.904588 
L 64.359062 240.904588 
L 74.240097 240.904588 
L 74.240097 78.873684 
L 74.241737 264.716 
L 74.37841 264.716 
L 74.37841 256.177131 
L 74.458229 256.177131 
L 77.222519 256.177131 
L 77.222519 37.557164 
L 77.224129 264.716 
L 77.360588 264.716 
L 77.360588 256.189665 
L 77.440628 256.189665 
L 78.147758 256.189665 
L 78.147758 117.7492 
L 78.286003 117.7492 
L 78.286003 26.745783 
L 78.287537 264.716 
L 82.293671 264.716 
L 82.295319 43.334166 
L 82.295319 264.716 
L 86.545013 264.716 
L 86.545013 44.706375 
L 86.5467 264.716 
L 91.364815 264.716 
L 91.364815 47.90897 
L 91.366478 264.716 
L 91.502831 264.716 
L 91.502831 256.195204 
L 91.58297 256.195204 
L 97.918945 256.195204 
L 97.918945 57.680514 
L 97.920624 264.716 
L 98.057022 264.716 
L 98.057022 256.19258 
L 98.137115 256.19258 
L 103.201401 256.19258 
L 103.201401 50.515687 
L 103.203514 264.716 
L 103.339424 264.716 
L 103.339424 256.220272 
L 103.420006 256.220272 
L 106.697861 256.220272 
L 106.697861 40.450682 
L 106.699547 264.716 
L 107.809814 264.716 
L 107.809814 201.196557 
L 107.975082 201.196557 
L 107.975082 27.949581 
L 107.976662 264.716 
L 108.302345 264.716 
L 108.302345 245.503111 
L 108.409645 245.503111 
L 108.954857 245.503111 
L 108.956436 26.274344 
L 108.956436 264.716 
L 109.255211 264.716 
L 109.255211 247.023224 
L 112.667732 247.023224 
L 112.667732 41.672975 
L 112.66938 264.716 
L 112.967651 264.716 
L 112.967651 247.051207 
L 113.132858 247.051207 
L 113.132858 42.999695 
L 116.616394 42.999695 
L 116.616394 264.716 
L 116.924232 264.716 
L 116.924232 246.51137 
L 117.089363 246.51137 
L 117.089363 36.513223 
L 119.411949 36.513223 
L 119.411949 264.716 
L 119.770981 264.716 
L 119.770981 243.620095 
L 119.84494 243.620095 
L 119.908951 243.620095 
L 119.908951 23.563225 
L 119.910545 264.716 
L 123.6465 264.716 
L 123.6465 52.918653 
L 123.784126 52.918653 
L 123.784126 42.587354 
L 123.785736 264.716 
L 128.117027 264.716 
L 128.117027 45.166124 
L 128.11866 264.716 
L 128.281906 264.716 
L 128.281906 254.67684 
L 128.335159 254.67684 
L 133.3451 254.67684 
L 133.3451 50.209517 
L 133.346863 264.716 
L 134.403259 264.716 
L 134.403259 204.239115 
L 134.429344 204.239115 
L 134.56842 204.239115 
L 134.56842 27.645476 
L 134.569969 264.716 
L 134.868858 264.716 
L 134.868858 247.016811 
L 135.466774 247.016811 
L 135.466774 25.815758 
L 135.46833 264.716 
L 135.767342 264.716 
L 135.767342 247.009816 
L 138.530128 247.009816 
L 138.530128 38.013626 
L 138.531776 264.716 
L 138.830681 264.716 
L 138.830681 247.015937 
L 140.646332 247.015937 
L 140.646332 32.676743 
L 140.647919 264.716 
L 140.9468 264.716 
L 140.9468 247.017394 
L 143.520065 247.017394 
L 143.520065 36.945116 
L 143.521729 264.716 
L 143.847778 264.716 
L 143.847778 245.482707 
L 143.95472 245.482707 
L 143.985519 245.482707 
L 143.985519 25.692063 
L 144.396873 25.692063 
L 144.396873 264.716 
L 144.719322 264.716 
L 144.719322 245.686166 
L 144.829865 245.686166 
L 144.85701 245.686166 
L 144.85701 28.141493 
L 145.706612 28.141493 
L 145.706612 264.716 
L 146.023529 264.716 
L 146.023529 245.99835 
L 146.161446 245.99835 
L 146.161446 31.881822 
L 147.680222 31.881822 
L 147.680222 264.716 
L 147.977509 264.716 
L 147.977509 247.107464 
L 148.115303 247.107464 
L 148.115303 45.2236 
L 152.02195 45.2236 
L 152.02195 264.716 
L 152.312668 264.716 
L 152.369461 54.256096 
L 157.966721 54.256096 
L 157.966721 264.716 
L 158.244522 264.716 
L 158.274193 64.553211 
L 158.357841 64.553211 
L 158.357841 22.966677 
L 158.359383 264.716 
L 174.624641 264.716 
L 174.624641 112.403702 
L 174.626511 264.716 
L 176.792534 264.716 
L 176.792534 141.576068 
L 176.957474 141.576068 
L 176.957474 33.896041 
L 176.959053 264.716 
L 177.285027 264.716 
L 177.285027 245.487371 
L 177.392044 245.487371 
L 178.261765 245.487371 
L 178.261765 28.102695 
L 178.263519 264.716 
L 178.562057 264.716 
L 178.562057 247.036633 
L 178.754257 247.036633 
L 178.754257 41.299688 
L 181.908623 41.299688 
L 181.908623 264.716 
L 182.2481 264.716 
L 182.2481 244.724837 
L 182.341614 244.724837 
L 182.412888 244.724837 
L 182.412888 23.604143 
L 182.414429 264.716 
L 182.87587 264.716 
L 182.87587 237.836962 
L 183.040924 237.836962 
L 183.040924 24.292821 
L 183.042465 264.716 
L 186.85939 264.716 
L 186.85939 48.346655 
L 186.939384 48.346655 
L 186.997185 48.346655 
L 186.997185 43.044457 
L 186.999039 264.716 
L 190.842728 264.716 
L 190.842728 46.834995 
L 190.895958 46.834995 
L 191.007767 46.834995 
L 191.007767 43.348736 
L 191.009338 264.716 
L 193.527115 264.716 
L 193.527115 121.711996 
L 193.607285 121.711996 
L 193.692162 121.711996 
L 193.692162 35.878437 
L 193.693703 264.716 
L 196.238579 264.716 
L 196.238579 120.181098 
L 196.291641 120.181098 
L 196.403786 120.181098 
L 196.403786 36.032045 
L 196.405327 264.716 
L 196.704132 264.716 
L 196.704132 247.021184 
L 200.332924 247.021184 
L 200.334564 42.891692 
L 200.334564 264.716 
L 200.66066 264.716 
L 200.66066 245.480084 
L 200.767555 245.480084 
L 205.101387 245.480084 
L 205.101387 47.619988 
L 205.102982 264.716 
L 205.293625 264.716 
L 205.293625 253.129618 
L 205.319481 253.129618 
L 210.140053 253.129618 
L 210.140053 49.142577 
L 210.141693 264.716 
L 210.413521 264.716 
L 210.413521 248.544503 
L 213.365715 248.544503 
L 213.365715 38.927628 
L 213.367325 264.716 
L 217.18438 264.716 
L 217.18438 48.339367 
L 217.264244 48.339367 
L 217.322182 48.339367 
L 217.322182 43.045213 
L 217.323738 264.716 
L 219.950142 264.716 
L 219.950142 115.577619 
L 220.087898 115.577619 
L 220.087898 36.336702 
L 220.089455 264.716 
L 224.285301 264.716 
L 224.285301 44.403026 
L 224.28701 264.716 
L 224.991508 264.716 
L 224.991508 224.111348 
L 225.12944 224.111348 
L 225.12944 25.509414 
L 225.130997 264.716 
L 225.430023 264.716 
L 225.430023 247.00865 
L 229.356567 247.00865 
L 229.356567 44.570506 
L 229.358185 264.716 
L 229.49453 264.716 
L 229.49453 256.195787 
L 229.574684 256.195787 
L 233.799858 256.195787 
L 233.799858 45.78803 
L 233.801559 264.716 
L 234.452011 264.716 
L 234.452011 227.163525 
L 234.59008 227.163525 
L 234.59008 25.205658 
L 234.591629 264.716 
L 234.917816 264.716 
L 234.917816 245.474837 
L 235.02462 245.474837 
L 238.519722 245.474837 
L 238.519722 42.894484 
L 238.521317 264.716 
L 238.819954 264.716 
L 238.819954 247.030511 
L 241.63694 247.030511 
L 241.63694 38.316888 
L 241.63858 264.716 
L 241.937462 264.716 
L 241.937462 247.017103 
L 243.942543 247.017103 
L 243.944168 33.743858 
L 243.944168 264.716 
L 244.242836 264.716 
L 244.242836 247.029345 
L 247.926666 247.029345 
L 247.926666 43.200944 
L 247.930222 264.716 
L 248.226517 264.716 
L 248.226517 247.163139 
L 251.801361 247.163139 
L 251.801361 42.57357 
L 251.803566 264.716 
L 252.128922 264.716 
L 252.128922 245.522058 
L 252.236557 245.522058 
L 253.186653 245.522058 
L 253.186653 28.555581 
L 253.188263 264.716 
L 253.514366 264.716 
L 253.514366 245.479792 
L 253.621254 245.479792 
L 256.655914 245.479792 
L 256.655914 40.300272 
L 256.657692 264.716 
L 257.010567 264.716 
L 257.010567 243.967841 
L 257.090683 243.967841 
L 258.04171 243.967841 
L 258.04171 28.560786 
L 258.043312 264.716 
L 258.369095 264.716 
L 258.369095 245.497864 
L 258.476303 245.497864 
L 260.888718 245.497864 
L 260.888718 36.794474 
L 260.890312 264.716 
L 261.216125 264.716 
L 261.216125 245.496116 
L 261.323296 245.496116 
L 261.895081 245.496116 
L 261.895081 26.424084 
L 261.896652 264.716 
L 262.222443 264.716 
L 262.222443 245.497281 
L 262.329643 245.497281 
L 264.687927 245.497281 
L 264.687927 36.489467 
L 264.689522 264.716 
L 265.015518 264.716 
L 265.015518 245.485913 
L 265.122513 245.485913 
L 265.18029 245.485913 
L 265.18029 24.204088 
L 265.300499 24.204088 
L 265.300499 264.716 
L 265.616264 264.716 
L 265.616264 246.063644 
L 265.75412 246.063644 
L 265.75412 32.670354 
L 267.413971 32.670354 
L 267.413971 264.716 
L 267.732262 264.716 
L 267.732262 245.920814 
L 267.897469 245.920814 
L 267.897469 29.408785 
L 268.94886 29.408785 
L 268.94886 264.716 
L 269.253212 264.716 
L 269.253212 246.707834 
L 269.418358 246.707834 
L 269.418358 38.874461 
L 272.163712 38.874461 
L 272.163712 264.716 
L 272.47892 264.716 
L 272.47892 246.095125 
L 272.643951 246.095125 
L 272.643951 31.514457 
L 274.072067 31.514457 
L 274.072067 264.716 
L 274.405693 264.716 
L 274.405693 245.055093 
L 274.505058 245.055093 
L 274.543701 245.055093 
L 274.543701 23.42029 
L 274.545273 264.716 
L 275.304123 264.716 
L 275.304123 221.04139 
L 275.411255 221.04139 
L 275.442162 221.04139 
L 275.442162 25.816282 
L 275.443718 264.716 
L 280.667793 264.716 
L 280.667793 50.196198 
L 280.669472 264.716 
L 281.076302 264.716 
L 281.076302 240.920911 
L 281.102463 240.920911 
L 303.486 240.920911 
L 303.486 149.314381 
L 303.489151 264.716 
L 304.544098 264.716 
L 304.544098 204.32044 
L 304.571625 204.32044 
L 304.708931 204.32044 
L 304.708931 27.635443 
L 304.710548 264.716 
L 305.03653 264.716 
L 305.03653 245.486788 
L 305.143539 245.486788 
L 305.3638 245.486788 
L 305.3638 24.44355 
L 305.365959 264.716 
L 305.691292 264.716 
L 305.691292 245.522932 
L 305.798943 245.522932 
L 307.615356 245.522932 
L 307.615356 33.436496 
L 307.616936 264.716 
L 307.94297 264.716 
L 307.94297 245.483582 
L 308.049927 245.483582 
L 310.624886 245.483582 
L 310.624886 37.710249 
L 310.626518 264.716 
L 310.952225 264.716 
L 310.952225 245.502237 
L 311.059509 245.502237 
L 314.716484 245.502237 
L 314.716484 43.806449 
L 314.718102 264.716 
L 319.590065 264.716 
L 319.590065 48.212348 
L 319.591736 264.716 
L 319.728165 264.716 
L 319.728165 256.191123 
L 319.808235 256.191123 
L 322.004189 256.191123 
L 322.004189 34.355121 
L 322.005798 264.716 
L 322.412697 264.716 
L 322.412697 240.91683 
L 322.438782 240.91683 
L 344.579193 240.91683 
L 344.579193 147.944558 
L 344.581924 264.716 
L 345.799171 264.716 
L 345.799171 195.154873 
L 345.88089 195.154873 
L 345.964355 195.154873 
L 345.964355 28.551858 
L 345.965965 264.716 
L 346.264809 264.716 
L 346.264809 247.019143 
L 346.862938 247.019143 
L 346.862938 25.816689 
L 346.864517 264.716 
L 347.163193 264.716 
L 347.163193 247.028471 
L 349.114265 247.028471 
L 349.114265 33.438444 
L 349.115875 264.716 
L 349.441666 264.716 
L 349.441666 245.497281 
L 349.548866 245.497281 
L 351.04126 245.497281 
L 351.04126 31.610937 
L 351.042847 264.716 
L 351.368515 264.716 
L 351.368515 245.503986 
L 351.475838 245.503986 
L 351.750099 245.503986 
L 351.750099 24.747829 
L 351.751961 264.716 
L 352.050537 264.716 
L 352.050537 247.034009 
L 354.434479 247.034009 
L 354.434479 35.876721 
L 354.436089 264.716 
L 354.707886 264.716 
L 354.707886 248.546252 
L 359.58181 248.546252 
L 359.58181 49.754741 
L 359.583588 264.716 
L 359.746849 264.716 
L 359.746849 254.675965 
L 359.800087 254.675965 
L 363.835625 254.675965 
L 363.837257 44.719607 
L 363.837257 264.716 
L 367.031807 264.716 
L 367.031807 83.493472 
L 367.084686 83.493472 
L 367.196686 83.493472 
L 367.196686 39.690521 
L 367.198265 264.716 
L 367.632523 264.716 
L 367.632523 239.371941 
L 367.770294 239.371941 
L 367.770294 23.985953 
L 367.772209 264.716 
L 371.37249 264.716 
L 371.452629 60.58043 
L 371.537247 60.58043 
L 371.537247 41.9758 
L 371.538811 264.716 
L 374.489655 264.716 
L 374.489655 97.255813 
L 374.569748 97.255813 
L 374.654816 97.255813 
L 374.654816 38.31904 
L 374.656372 264.716 
L 374.982262 264.716 
L 374.982262 245.492035 
L 375.089363 245.492035 
L 375.336784 245.492035 
L 375.336784 24.596576 
L 375.338341 264.716 
L 375.637352 264.716 
L 375.637352 247.009816 
L 377.286797 247.009816 
L 377.286797 247.009816 
" style="fill:none;stroke:#0000ff;stroke-linecap:square;stroke-width:1.5;"/>
   </g>
   <g id="line2d_20">
    <path clip-path="url(#p504730c29d)" d="M 52.698349 264.716 
L 52.914848 22.796 
L 53.059776 22.796 
L 53.059776 264.716 
L 53.394249 264.716 
L 53.394249 245.006998 
L 53.492767 245.006998 
L 53.559029 245.006998 
L 53.559029 23.575905 
L 53.560799 264.716 
L 54.238266 264.716 
L 54.238266 225.637874 
L 54.403534 225.637874 
L 54.403534 25.51113 
L 54.405212 264.716 
L 60.007919 264.716 
L 60.007919 52.329468 
L 60.009979 264.716 
L 60.227074 264.716 
L 60.227074 251.635739 
L 63.639519 251.635739 
L 63.639519 41.212383 
L 63.641266 264.716 
L 63.88591 264.716 
L 63.88591 250.079773 
L 64.077919 250.079773 
L 64.077919 77.898982 
L 73.782631 77.898982 
L 73.782631 264.716 
L 74.093315 264.716 
L 74.204376 37.632016 
L 76.776817 37.632016 
L 76.776817 264.716 
L 77.075752 264.716 
L 77.075752 247.013897 
L 77.700844 247.013897 
L 77.700844 25.969163 
L 77.702553 264.716 
L 78.001312 264.716 
L 78.001312 247.024099 
L 78.139053 247.024099 
L 78.139053 44.224777 
L 81.867088 44.224777 
L 81.867088 264.716 
L 82.174263 264.716 
L 82.203812 44.618636 
L 86.101402 44.618636 
L 86.101402 264.716 
L 86.401352 264.716 
L 86.457916 47.999159 
L 90.935661 47.999159 
L 90.935661 264.716 
L 91.223656 264.716 
L 91.253212 57.641215 
L 97.481438 57.641215 
L 97.481438 264.716 
L 97.777779 264.716 
L 97.834732 50.430239 
L 102.747314 50.430239 
L 102.747314 264.716 
L 103.060509 264.716 
L 103.090096 40.533423 
L 106.256691 40.533423 
L 106.256691 264.716 
L 106.583908 264.716 
L 106.583908 245.416831 
L 106.689682 245.416831 
L 107.533623 245.416831 
L 107.535896 27.957462 
L 107.535896 264.716 
L 107.861084 264.716 
L 107.861084 245.531386 
L 107.968887 245.531386 
L 107.998962 245.531386 
L 107.998962 26.269755 
L 108.51339 26.269755 
L 108.51339 264.716 
L 108.813713 264.716 
L 108.813713 246.935486 
L 108.978661 246.935486 
L 108.978661 41.622936 
L 112.215889 41.622936 
L 112.215889 264.716 
L 112.553726 264.716 
L 112.553726 244.816947 
L 112.648872 244.816947 
L 112.691582 244.816947 
L 112.691582 23.443206 
L 112.693275 264.716 
L 116.483109 264.716 
L 116.483109 49.876387 
L 116.590195 49.876387 
L 116.64798 49.876387 
L 116.64798 43.044369 
L 116.649643 264.716 
L 119.275803 264.716 
L 119.275803 115.591319 
L 119.468025 115.591319 
L 119.468025 36.642174 
L 119.469719 264.716 
L 119.768433 264.716 
L 119.768433 247.026722 
L 123.343056 247.026722 
L 123.343056 42.585929 
L 123.344795 264.716 
L 123.643456 264.716 
L 123.643456 247.029928 
L 127.840599 247.029928 
L 127.840599 46.093008 
L 127.842407 264.716 
L 128.032814 264.716 
L 128.032814 253.142735 
L 128.058907 253.142735 
L 133.069115 253.142735 
L 133.069115 50.211029 
L 133.070877 264.716 
L 133.207169 264.716 
L 133.207169 256.198701 
L 133.287376 256.198701 
L 134.265152 256.198701 
L 134.265152 102.564896 
L 134.36985 102.564896 
L 134.430374 102.564896 
L 134.430374 28.42262 
L 134.43203 264.716 
L 135.190834 264.716 
L 135.190834 221.044305 
L 135.298012 221.044305 
L 135.328827 221.044305 
L 135.328827 25.8157 
L 135.330513 264.716 
L 138.254105 264.716 
L 138.254105 98.794873 
L 138.36145 98.794873 
L 138.391998 98.794873 
L 138.391998 38.011852 
L 138.3937 264.716 
L 140.370415 264.716 
L 140.370415 152.266411 
L 140.508507 152.266411 
L 140.508507 32.678168 
L 140.510208 264.716 
L 143.217216 264.716 
L 143.217216 111.025734 
L 143.324646 111.025734 
L 143.409187 111.025734 
L 143.409187 37.09631 
L 143.410873 264.716 
L 143.709526 264.716 
L 143.709526 247.029928 
L 144.280579 247.029928 
L 144.280579 25.663081 
L 144.282272 264.716 
L 144.581085 264.716 
L 144.581085 247.020892 
L 145.585152 247.020892 
L 145.585152 28.103684 
L 145.586906 264.716 
L 145.885582 264.716 
L 145.885582 247.029054 
L 147.53904 247.029054 
L 147.53904 31.761608 
L 147.540764 264.716 
L 147.839622 264.716 
L 147.839622 247.018269 
L 151.874199 247.018269 
L 151.874199 45.178221 
L 151.876045 264.716 
L 152.093483 264.716 
L 152.093483 251.61621 
L 157.806091 251.61621 
L 157.806091 54.173756 
L 157.807854 264.716 
L 157.971039 264.716 
L 157.971039 254.680046 
L 158.024353 254.680046 
L 158.244446 254.680046 
L 158.244446 128.612096 
L 174.349205 128.612096 
L 174.351089 113.959211 
L 174.351089 264.716 
L 174.568367 264.716 
L 174.568367 251.625537 
L 176.519135 251.625537 
L 176.519135 32.978114 
L 176.526527 264.716 
L 176.84687 264.716 
L 176.84687 245.805093 
L 177.011856 245.805093 
L 177.011856 28.029985 
L 177.816727 28.029985 
L 177.816727 264.716 
L 178.151283 264.716 
L 178.151283 245.002625 
L 178.249718 245.002625 
L 178.289047 245.002625 
L 178.289047 23.424187 
L 178.290733 264.716 
L 181.782883 264.716 
L 181.782883 66.687116 
L 181.947952 66.687116 
L 181.947952 41.368318 
L 181.949615 264.716 
L 182.275291 264.716 
L 182.275291 245.503986 
L 182.382607 245.503986 
L 182.602814 245.503986 
L 182.602814 24.44323 
L 182.604507 264.716 
L 182.903305 264.716 
L 182.903305 247.021767 
L 186.559235 247.021767 
L 186.559235 43.044515 
L 186.560974 264.716 
L 186.859467 264.716 
L 186.859467 247.038965 
L 190.569908 247.038965 
L 190.569908 43.349899 
L 190.57164 264.716 
L 190.87027 264.716 
L 190.87027 247.031094 
L 193.254517 247.031094 
L 193.254517 35.878728 
L 193.256241 264.716 
L 193.554558 264.716 
L 193.554558 247.048584 
L 195.966087 247.048584 
L 195.966087 36.030707 
L 195.967865 264.716 
L 196.266235 264.716 
L 196.266235 247.046252 
L 196.431435 247.046252 
L 196.431435 42.940117 
L 199.904266 42.940117 
L 199.904266 264.716 
L 200.195824 264.716 
L 200.195824 247.430725 
L 200.360756 247.430725 
L 200.360756 47.577866 
L 204.663666 47.577866 
L 204.663666 264.716 
L 204.964012 264.716 
L 204.993553 49.255246 
L 209.721062 49.255246 
L 209.721062 264.716 
L 210.030098 264.716 
L 210.14077 38.775356 
L 212.918098 38.775356 
L 212.918098 264.716 
L 213.228699 264.716 
L 213.258255 42.291278 
L 216.739449 42.291278 
L 216.739449 264.716 
L 217.049667 264.716 
L 217.049667 246.376994 
L 217.187889 246.376994 
L 217.187889 36.417124 
L 219.51812 36.417124 
L 219.51812 264.716 
L 219.815552 264.716 
L 219.815552 247.099011 
L 219.953255 247.099011 
L 219.953255 45.127504 
L 223.842972 45.127504 
L 223.842972 264.716 
L 224.150597 264.716 
L 224.150597 246.523321 
L 224.695007 246.523321 
L 224.696709 25.563535 
L 224.696709 264.716 
L 224.994995 264.716 
L 224.994995 247.050916 
L 225.132919 247.050916 
L 225.132919 44.536708 
L 228.916313 44.536708 
L 228.916313 264.716 
L 229.22184 264.716 
L 229.251801 45.71329 
L 233.344749 45.71329 
L 233.344749 264.716 
L 233.665649 264.716 
L 233.665649 245.773321 
L 234.155556 245.773321 
L 234.157249 25.33129 
L 234.157249 264.716 
L 234.455727 264.716 
L 234.455727 247.039839 
L 234.620934 247.039839 
L 234.620934 42.862724 
L 238.079788 42.862724 
L 238.079788 264.716 
L 238.385002 264.716 
L 238.385002 246.659155 
L 238.550362 246.659155 
L 238.550362 38.277239 
L 241.188629 38.277239 
L 241.188629 264.716 
L 241.502647 264.716 
L 241.502647 246.162167 
L 241.640724 246.162167 
L 241.640724 33.842382 
L 243.510178 33.842382 
L 243.510178 264.716 
L 243.808167 264.716 
L 243.808167 247.06753 
L 243.973503 247.06753 
L 243.973503 43.188375 
L 247.490829 43.188375 
L 247.490829 264.716 
L 247.791908 264.716 
L 247.791908 246.892929 
L 247.929726 246.892929 
L 247.929726 42.643035 
L 251.374504 42.643035 
L 251.374504 264.716 
L 251.694122 264.716 
L 251.694122 245.845902 
L 251.859245 245.845902 
L 251.859245 28.512762 
L 252.750389 28.512762 
L 252.750389 264.716 
L 253.05278 264.716 
L 253.05278 246.818599 
L 253.217621 246.818599 
L 253.217621 40.223706 
L 256.204849 40.223706 
L 256.204849 264.716 
L 256.522079 264.716 
L 256.522079 245.98057 
L 256.713921 245.98057 
L 256.713921 28.623151 
L 257.599998 28.623151 
L 257.599998 264.716 
L 257.907318 264.716 
L 257.907318 246.540811 
L 258.072662 246.540811 
L 258.072662 36.854947 
L 260.456429 36.854947 
L 260.456429 264.716 
L 260.781433 264.716 
L 260.781433 245.541879 
L 260.88942 245.541879 
L 260.919418 245.541879 
L 260.919418 26.3898 
L 261.455513 26.3898 
L 261.455513 264.716 
L 261.761154 264.716 
L 261.761154 246.634961 
L 261.953072 246.634961 
L 261.953072 36.486938 
L 264.246376 36.486938 
L 264.246376 264.716 
L 264.580795 264.716 
L 264.580795 245.010204 
L 264.679367 245.010204 
L 264.718834 245.010204 
L 264.718834 23.424943 
L 264.720512 264.716 
L 265.181854 264.716 
L 265.181854 237.842792 
L 265.319756 237.842792 
L 265.321449 24.139241 
L 265.321449 264.716 
L 267.297852 264.716 
L 267.297852 152.284483 
L 267.463074 152.284483 
L 267.463074 32.829246 
L 267.464767 264.716 
L 268.818787 264.716 
L 268.818787 187.431592 
L 268.983902 187.431592 
L 268.983902 29.322081 
L 268.985657 264.716 
L 272.044724 264.716 
L 272.044724 91.143881 
L 272.182426 91.143881 
L 272.182426 38.774107 
L 272.184143 264.716 
L 273.944374 264.716 
L 273.944374 164.492025 
L 274.109184 164.492025 
L 274.109184 31.608988 
L 274.110855 264.716 
L 274.409546 264.716 
L 274.409546 247.027888 
L 275.007622 247.027888 
L 275.009315 25.815555 
L 275.009315 264.716 
L 275.308037 264.716 
L 275.308037 247.026139 
L 280.398354 247.026139 
L 280.398354 51.125641 
L 280.400269 264.716 
L 280.536682 264.716 
L 280.536682 256.191997 
L 280.61676 256.191997 
L 280.782608 256.191997 
L 280.782608 148.342437 
L 280.83326 148.342437 
L 303.044586 148.342437 
L 303.044586 264.716 
L 303.355194 264.716 
L 303.355194 246.354549 
L 304.250656 246.354549 
L 304.250656 27.558232 
L 304.252434 264.716 
L 304.577896 264.716 
L 304.577896 245.515937 
L 304.685425 245.515937 
L 304.74334 245.515937 
L 304.74334 24.52717 
L 304.920601 24.52717 
L 304.920601 264.716 
L 305.232895 264.716 
L 305.232895 246.259524 
L 305.398048 246.259524 
L 305.398048 33.484358 
L 307.178642 33.484358 
L 307.178642 264.716 
L 307.484612 264.716 
L 307.484612 246.616598 
L 307.649712 246.616598 
L 307.649712 37.780431 
L 310.199051 37.780431 
L 310.199051 264.716 
L 310.49395 264.716 
L 310.49395 247.241841 
L 310.686043 247.241841 
L 310.686043 43.773644 
L 314.283463 43.773644 
L 314.283463 264.716 
L 314.585419 264.716 
L 314.615395 48.13732 
L 319.142113 48.13732 
L 319.142113 264.716 
L 319.434975 264.716 
L 319.434975 247.356979 
L 319.81675 247.356979 
L 319.81675 34.446054 
L 321.570869 34.446054 
L 321.570869 264.716 
L 321.875847 264.716 
L 321.962318 22.968538 
L 321.963997 264.716 
L 344.291359 264.716 
L 344.291359 146.558361 
L 344.293442 264.716 
L 344.456055 264.716 
L 344.456055 254.712401 
L 344.509933 254.712401 
L 345.676666 254.712401 
L 345.676666 75.510624 
L 345.814713 75.510624 
L 345.814713 29.334091 
L 345.816399 264.716 
L 346.575256 264.716 
L 346.575256 221.04139 
L 346.682381 221.04139 
L 346.74041 221.04139 
L 346.74041 25.969047 
L 346.742104 264.716 
L 348.826904 264.716 
L 348.826904 146.16264 
L 348.907051 146.16264 
L 348.991913 146.16264 
L 348.991913 33.438822 
L 348.993607 264.716 
L 350.753662 264.716 
L 350.753662 164.501935 
L 350.918755 164.501935 
L 350.918755 31.60957 
L 350.920418 264.716 
L 351.435455 264.716 
L 351.435455 234.810436 
L 351.600723 234.810436 
L 351.600723 24.595995 
L 351.602409 264.716 
L 354.147087 264.716 
L 354.147087 120.192466 
L 354.200356 120.192466 
L 354.285049 120.192466 
L 354.285049 35.877419 
L 354.286751 264.716 
L 359.294296 264.716 
L 359.294296 48.97626 
L 359.296097 264.716 
L 359.486145 264.716 
L 359.486145 253.163139 
L 359.512589 253.163139 
L 363.548462 253.163139 
L 363.548462 44.721439 
L 363.550232 264.716 
L 363.740234 264.716 
L 363.740234 253.165763 
L 363.766731 253.165763 
L 366.746979 253.165763 
L 366.746979 38.773932 
L 366.748703 264.716 
L 367.07457 264.716 
L 367.07457 245.493201 
L 367.181694 245.493201 
L 367.34787 245.493201 
L 367.34787 24.138834 
L 367.349579 264.716 
L 367.648026 264.716 
L 367.648026 247.041296 
L 371.08757 247.041296 
L 371.08757 41.823414 
L 371.089401 264.716 
L 371.388145 264.716 
L 371.388145 247.024973 
L 374.205414 247.024973 
L 374.205414 38.319069 
L 374.207184 264.716 
L 374.532486 264.716 
L 374.532486 245.525264 
L 374.640175 245.525264 
L 374.697647 245.525264 
L 374.697647 24.65535 
L 374.898354 24.65535 
L 374.898354 264.716 
L 375.187408 264.716 
L 375.187408 247.571806 
L 375.352425 247.571806 
L 375.352425 49.269729 
L 377.2798 49.269729 
L 377.2798 49.269729 
" style="fill:none;stroke:#008000;stroke-linecap:square;stroke-width:1.5;"/>
   </g>
   <g id="patch_3">
    <path d="M 36.465625 276.812 
L 36.465625 10.7 
" style="fill:none;stroke:#000000;stroke-linecap:square;stroke-linejoin:miter;stroke-width:0.8;"/>
   </g>
   <g id="patch_4">
    <path d="M 393.585625 276.812 
L 393.585625 10.7 
" style="fill:none;stroke:#000000;stroke-linecap:square;stroke-linejoin:miter;stroke-width:0.8;"/>
   </g>
   <g id="patch_5">
    <path d="M 36.465622 276.812 
L 393.585625 276.812 
" style="fill:none;stroke:#000000;stroke-linecap:square;stroke-linejoin:miter;stroke-width:0.8;"/>
   </g>
   <g id="patch_6">
    <path d="M 36.465622 10.7 
L 393.585625 10.7 
" style="fill:none;stroke:#000000;stroke-linecap:square;stroke-linejoin:miter;stroke-width:0.8;"/>
   </g>
  </g>
 </g>
 <defs>
  <clipPath id="p504730c29d">
   <rect height="266.112" width="357.12" x="36.465625" y="10.7"/>
  </clipPath>
 </defs>
</svg>
