<?xml version="1.0" encoding="utf-8" standalone="no"?>
<!DOCTYPE svg PUBLIC "-//W3C//DTD SVG 1.1//EN"
  "http://www.w3.org/Graphics/SVG/1.1/DTD/svg11.dtd">
<!-- Created with matplotlib (https://matplotlib.org/) -->
<svg height="313.36825pt" version="1.1" viewBox="0 0 404.285625 313.36825" width="404.285625pt" xmlns="http://www.w3.org/2000/svg" xmlns:xlink="http://www.w3.org/1999/xlink">
 <defs>
  <style type="text/css">
*{stroke-linecap:butt;stroke-linejoin:round;}
  </style>
 </defs>
 <g id="figure_1">
  <g id="patch_1">
   <path d="M 0 313.36825 
L 404.285625 313.36825 
L 404.285625 0 
L 0 0 
z
" style="fill:#ffffff;"/>
  </g>
  <g id="axes_1">
   <g id="patch_2">
    <path d="M 36.465625 276.812 
L 393.585625 276.812 
L 393.585625 10.7 
L 36.465625 10.7 
z
" style="fill:#ffffff;"/>
   </g>
   <g id="matplotlib.axis_1">
    <g id="xtick_1">
     <g id="line2d_1">
      <defs>
       <path d="M 0 0 
L 0 3.5 
" id="m82b4ed7342" style="stroke:#000000;stroke-width:0.8;"/>
      </defs>
      <g>
       <use style="stroke:#000000;stroke-width:0.8;" x="74.343208" xlink:href="#m82b4ed7342" y="276.812"/>
      </g>
     </g>
     <g id="text_1">
      <!-- 80 -->
      <defs>
       <path d="M 31.78125 34.625 
Q 24.75 34.625 20.71875 30.859375 
Q 16.703125 27.09375 16.703125 20.515625 
Q 16.703125 13.921875 20.71875 10.15625 
Q 24.75 6.390625 31.78125 6.390625 
Q 38.8125 6.390625 42.859375 10.171875 
Q 46.921875 13.96875 46.921875 20.515625 
Q 46.921875 27.09375 42.890625 30.859375 
Q 38.875 34.625 31.78125 34.625 
z
M 21.921875 38.8125 
Q 15.578125 40.375 12.03125 44.71875 
Q 8.5 49.078125 8.5 55.328125 
Q 8.5 64.0625 14.71875 69.140625 
Q 20.953125 74.21875 31.78125 74.21875 
Q 42.671875 74.21875 48.875 69.140625 
Q 55.078125 64.0625 55.078125 55.328125 
Q 55.078125 49.078125 51.53125 44.71875 
Q 48 40.375 41.703125 38.8125 
Q 48.828125 37.15625 52.796875 32.3125 
Q 56.78125 27.484375 56.78125 20.515625 
Q 56.78125 9.90625 50.3125 4.234375 
Q 43.84375 -1.421875 31.78125 -1.421875 
Q 19.734375 -1.421875 13.25 4.234375 
Q 6.78125 9.90625 6.78125 20.515625 
Q 6.78125 27.484375 10.78125 32.3125 
Q 14.796875 37.15625 21.921875 38.8125 
z
M 18.3125 54.390625 
Q 18.3125 48.734375 21.84375 45.5625 
Q 25.390625 42.390625 31.78125 42.390625 
Q 38.140625 42.390625 41.71875 45.5625 
Q 45.3125 48.734375 45.3125 54.390625 
Q 45.3125 60.0625 41.71875 63.234375 
Q 38.140625 66.40625 31.78125 66.40625 
Q 25.390625 66.40625 21.84375 63.234375 
Q 18.3125 60.0625 18.3125 54.390625 
z
" id="DejaVuSans-56"/>
       <path d="M 31.78125 66.40625 
Q 24.171875 66.40625 20.328125 58.90625 
Q 16.5 51.421875 16.5 36.375 
Q 16.5 21.390625 20.328125 13.890625 
Q 24.171875 6.390625 31.78125 6.390625 
Q 39.453125 6.390625 43.28125 13.890625 
Q 47.125 21.390625 47.125 36.375 
Q 47.125 51.421875 43.28125 58.90625 
Q 39.453125 66.40625 31.78125 66.40625 
z
M 31.78125 74.21875 
Q 44.046875 74.21875 50.515625 64.515625 
Q 56.984375 54.828125 56.984375 36.375 
Q 56.984375 17.96875 50.515625 8.265625 
Q 44.046875 -1.421875 31.78125 -1.421875 
Q 19.53125 -1.421875 13.0625 8.265625 
Q 6.59375 17.96875 6.59375 36.375 
Q 6.59375 54.828125 13.0625 64.515625 
Q 19.53125 74.21875 31.78125 74.21875 
z
" id="DejaVuSans-48"/>
      </defs>
      <g transform="translate(67.980708 291.410437)scale(0.1 -0.1)">
       <use xlink:href="#DejaVuSans-56"/>
       <use x="63.623047" xlink:href="#DejaVuSans-48"/>
      </g>
     </g>
    </g>
    <g id="xtick_2">
     <g id="line2d_2">
      <g>
       <use style="stroke:#000000;stroke-width:0.8;" x="117.632927" xlink:href="#m82b4ed7342" y="276.812"/>
      </g>
     </g>
     <g id="text_2">
      <!-- 82 -->
      <defs>
       <path d="M 19.1875 8.296875 
L 53.609375 8.296875 
L 53.609375 0 
L 7.328125 0 
L 7.328125 8.296875 
Q 12.9375 14.109375 22.625 23.890625 
Q 32.328125 33.6875 34.8125 36.53125 
Q 39.546875 41.84375 41.421875 45.53125 
Q 43.3125 49.21875 43.3125 52.78125 
Q 43.3125 58.59375 39.234375 62.25 
Q 35.15625 65.921875 28.609375 65.921875 
Q 23.96875 65.921875 18.8125 64.3125 
Q 13.671875 62.703125 7.8125 59.421875 
L 7.8125 69.390625 
Q 13.765625 71.78125 18.9375 73 
Q 24.125 74.21875 28.421875 74.21875 
Q 39.75 74.21875 46.484375 68.546875 
Q 53.21875 62.890625 53.21875 53.421875 
Q 53.21875 48.921875 51.53125 44.890625 
Q 49.859375 40.875 45.40625 35.40625 
Q 44.1875 33.984375 37.640625 27.21875 
Q 31.109375 20.453125 19.1875 8.296875 
z
" id="DejaVuSans-50"/>
      </defs>
      <g transform="translate(111.270427 291.410437)scale(0.1 -0.1)">
       <use xlink:href="#DejaVuSans-56"/>
       <use x="63.623047" xlink:href="#DejaVuSans-50"/>
      </g>
     </g>
    </g>
    <g id="xtick_3">
     <g id="line2d_3">
      <g>
       <use style="stroke:#000000;stroke-width:0.8;" x="160.922638" xlink:href="#m82b4ed7342" y="276.812"/>
      </g>
     </g>
     <g id="text_3">
      <!-- 84 -->
      <defs>
       <path d="M 37.796875 64.3125 
L 12.890625 25.390625 
L 37.796875 25.390625 
z
M 35.203125 72.90625 
L 47.609375 72.90625 
L 47.609375 25.390625 
L 58.015625 25.390625 
L 58.015625 17.1875 
L 47.609375 17.1875 
L 47.609375 0 
L 37.796875 0 
L 37.796875 17.1875 
L 4.890625 17.1875 
L 4.890625 26.703125 
z
" id="DejaVuSans-52"/>
      </defs>
      <g transform="translate(154.560138 291.410437)scale(0.1 -0.1)">
       <use xlink:href="#DejaVuSans-56"/>
       <use x="63.623047" xlink:href="#DejaVuSans-52"/>
      </g>
     </g>
    </g>
    <g id="xtick_4">
     <g id="line2d_4">
      <g>
       <use style="stroke:#000000;stroke-width:0.8;" x="204.212357" xlink:href="#m82b4ed7342" y="276.812"/>
      </g>
     </g>
     <g id="text_4">
      <!-- 86 -->
      <defs>
       <path d="M 33.015625 40.375 
Q 26.375 40.375 22.484375 35.828125 
Q 18.609375 31.296875 18.609375 23.390625 
Q 18.609375 15.53125 22.484375 10.953125 
Q 26.375 6.390625 33.015625 6.390625 
Q 39.65625 6.390625 43.53125 10.953125 
Q 47.40625 15.53125 47.40625 23.390625 
Q 47.40625 31.296875 43.53125 35.828125 
Q 39.65625 40.375 33.015625 40.375 
z
M 52.59375 71.296875 
L 52.59375 62.3125 
Q 48.875 64.0625 45.09375 64.984375 
Q 41.3125 65.921875 37.59375 65.921875 
Q 27.828125 65.921875 22.671875 59.328125 
Q 17.53125 52.734375 16.796875 39.40625 
Q 19.671875 43.65625 24.015625 45.921875 
Q 28.375 48.1875 33.59375 48.1875 
Q 44.578125 48.1875 50.953125 41.515625 
Q 57.328125 34.859375 57.328125 23.390625 
Q 57.328125 12.15625 50.6875 5.359375 
Q 44.046875 -1.421875 33.015625 -1.421875 
Q 20.359375 -1.421875 13.671875 8.265625 
Q 6.984375 17.96875 6.984375 36.375 
Q 6.984375 53.65625 15.1875 63.9375 
Q 23.390625 74.21875 37.203125 74.21875 
Q 40.921875 74.21875 44.703125 73.484375 
Q 48.484375 72.75 52.59375 71.296875 
z
" id="DejaVuSans-54"/>
      </defs>
      <g transform="translate(197.849857 291.410437)scale(0.1 -0.1)">
       <use xlink:href="#DejaVuSans-56"/>
       <use x="63.623047" xlink:href="#DejaVuSans-54"/>
      </g>
     </g>
    </g>
    <g id="xtick_5">
     <g id="line2d_5">
      <g>
       <use style="stroke:#000000;stroke-width:0.8;" x="247.502068" xlink:href="#m82b4ed7342" y="276.812"/>
      </g>
     </g>
     <g id="text_5">
      <!-- 88 -->
      <g transform="translate(241.139568 291.410437)scale(0.1 -0.1)">
       <use xlink:href="#DejaVuSans-56"/>
       <use x="63.623047" xlink:href="#DejaVuSans-56"/>
      </g>
     </g>
    </g>
    <g id="xtick_6">
     <g id="line2d_6">
      <g>
       <use style="stroke:#000000;stroke-width:0.8;" x="290.791779" xlink:href="#m82b4ed7342" y="276.812"/>
      </g>
     </g>
     <g id="text_6">
      <!-- 90 -->
      <defs>
       <path d="M 10.984375 1.515625 
L 10.984375 10.5 
Q 14.703125 8.734375 18.5 7.8125 
Q 22.3125 6.890625 25.984375 6.890625 
Q 35.75 6.890625 40.890625 13.453125 
Q 46.046875 20.015625 46.78125 33.40625 
Q 43.953125 29.203125 39.59375 26.953125 
Q 35.25 24.703125 29.984375 24.703125 
Q 19.046875 24.703125 12.671875 31.3125 
Q 6.296875 37.9375 6.296875 49.421875 
Q 6.296875 60.640625 12.9375 67.421875 
Q 19.578125 74.21875 30.609375 74.21875 
Q 43.265625 74.21875 49.921875 64.515625 
Q 56.59375 54.828125 56.59375 36.375 
Q 56.59375 19.140625 48.40625 8.859375 
Q 40.234375 -1.421875 26.421875 -1.421875 
Q 22.703125 -1.421875 18.890625 -0.6875 
Q 15.09375 0.046875 10.984375 1.515625 
z
M 30.609375 32.421875 
Q 37.25 32.421875 41.125 36.953125 
Q 45.015625 41.5 45.015625 49.421875 
Q 45.015625 57.28125 41.125 61.84375 
Q 37.25 66.40625 30.609375 66.40625 
Q 23.96875 66.40625 20.09375 61.84375 
Q 16.21875 57.28125 16.21875 49.421875 
Q 16.21875 41.5 20.09375 36.953125 
Q 23.96875 32.421875 30.609375 32.421875 
z
" id="DejaVuSans-57"/>
      </defs>
      <g transform="translate(284.429279 291.410437)scale(0.1 -0.1)">
       <use xlink:href="#DejaVuSans-57"/>
       <use x="63.623047" xlink:href="#DejaVuSans-48"/>
      </g>
     </g>
    </g>
    <g id="xtick_7">
     <g id="line2d_7">
      <g>
       <use style="stroke:#000000;stroke-width:0.8;" x="334.081497" xlink:href="#m82b4ed7342" y="276.812"/>
      </g>
     </g>
     <g id="text_7">
      <!-- 92 -->
      <g transform="translate(327.718997 291.410437)scale(0.1 -0.1)">
       <use xlink:href="#DejaVuSans-57"/>
       <use x="63.623047" xlink:href="#DejaVuSans-50"/>
      </g>
     </g>
    </g>
    <g id="xtick_8">
     <g id="line2d_8">
      <g>
       <use style="stroke:#000000;stroke-width:0.8;" x="377.371208" xlink:href="#m82b4ed7342" y="276.812"/>
      </g>
     </g>
     <g id="text_8">
      <!-- 94 -->
      <g transform="translate(371.008708 291.410437)scale(0.1 -0.1)">
       <use xlink:href="#DejaVuSans-57"/>
       <use x="63.623047" xlink:href="#DejaVuSans-52"/>
      </g>
     </g>
    </g>
    <g id="text_9">
     <!-- +1.5961601e9 -->
     <defs>
      <path d="M 46 62.703125 
L 46 35.5 
L 73.1875 35.5 
L 73.1875 27.203125 
L 46 27.203125 
L 46 0 
L 37.796875 0 
L 37.796875 27.203125 
L 10.59375 27.203125 
L 10.59375 35.5 
L 37.796875 35.5 
L 37.796875 62.703125 
z
" id="DejaVuSans-43"/>
      <path d="M 12.40625 8.296875 
L 28.515625 8.296875 
L 28.515625 63.921875 
L 10.984375 60.40625 
L 10.984375 69.390625 
L 28.421875 72.90625 
L 38.28125 72.90625 
L 38.28125 8.296875 
L 54.390625 8.296875 
L 54.390625 0 
L 12.40625 0 
z
" id="DejaVuSans-49"/>
      <path d="M 10.6875 12.40625 
L 21 12.40625 
L 21 0 
L 10.6875 0 
z
" id="DejaVuSans-46"/>
      <path d="M 10.796875 72.90625 
L 49.515625 72.90625 
L 49.515625 64.59375 
L 19.828125 64.59375 
L 19.828125 46.734375 
Q 21.96875 47.46875 24.109375 47.828125 
Q 26.265625 48.1875 28.421875 48.1875 
Q 40.625 48.1875 47.75 41.5 
Q 54.890625 34.8125 54.890625 23.390625 
Q 54.890625 11.625 47.5625 5.09375 
Q 40.234375 -1.421875 26.90625 -1.421875 
Q 22.3125 -1.421875 17.546875 -0.640625 
Q 12.796875 0.140625 7.71875 1.703125 
L 7.71875 11.625 
Q 12.109375 9.234375 16.796875 8.0625 
Q 21.484375 6.890625 26.703125 6.890625 
Q 35.15625 6.890625 40.078125 11.328125 
Q 45.015625 15.765625 45.015625 23.390625 
Q 45.015625 31 40.078125 35.4375 
Q 35.15625 39.890625 26.703125 39.890625 
Q 22.75 39.890625 18.8125 39.015625 
Q 14.890625 38.140625 10.796875 36.28125 
z
" id="DejaVuSans-53"/>
      <path d="M 56.203125 29.59375 
L 56.203125 25.203125 
L 14.890625 25.203125 
Q 15.484375 15.921875 20.484375 11.0625 
Q 25.484375 6.203125 34.421875 6.203125 
Q 39.59375 6.203125 44.453125 7.46875 
Q 49.3125 8.734375 54.109375 11.28125 
L 54.109375 2.78125 
Q 49.265625 0.734375 44.1875 -0.34375 
Q 39.109375 -1.421875 33.890625 -1.421875 
Q 20.796875 -1.421875 13.15625 6.1875 
Q 5.515625 13.8125 5.515625 26.8125 
Q 5.515625 40.234375 12.765625 48.109375 
Q 20.015625 56 32.328125 56 
Q 43.359375 56 49.78125 48.890625 
Q 56.203125 41.796875 56.203125 29.59375 
z
M 47.21875 32.234375 
Q 47.125 39.59375 43.09375 43.984375 
Q 39.0625 48.390625 32.421875 48.390625 
Q 24.90625 48.390625 20.390625 44.140625 
Q 15.875 39.890625 15.1875 32.171875 
z
" id="DejaVuSans-101"/>
     </defs>
     <g transform="translate(318.612188 304.088562)scale(0.1 -0.1)">
      <use xlink:href="#DejaVuSans-43"/>
      <use x="83.789062" xlink:href="#DejaVuSans-49"/>
      <use x="147.412109" xlink:href="#DejaVuSans-46"/>
      <use x="179.199219" xlink:href="#DejaVuSans-53"/>
      <use x="242.822266" xlink:href="#DejaVuSans-57"/>
      <use x="306.445312" xlink:href="#DejaVuSans-54"/>
      <use x="370.068359" xlink:href="#DejaVuSans-49"/>
      <use x="433.691406" xlink:href="#DejaVuSans-54"/>
      <use x="497.314453" xlink:href="#DejaVuSans-48"/>
      <use x="560.9375" xlink:href="#DejaVuSans-49"/>
      <use x="624.560547" xlink:href="#DejaVuSans-101"/>
      <use x="686.083984" xlink:href="#DejaVuSans-57"/>
     </g>
    </g>
   </g>
   <g id="matplotlib.axis_2">
    <g id="ytick_1">
     <g id="line2d_9">
      <defs>
       <path d="M 0 0 
L -3.5 0 
" id="mbe22c0e57f" style="stroke:#000000;stroke-width:0.8;"/>
      </defs>
      <g>
       <use style="stroke:#000000;stroke-width:0.8;" x="36.465625" xlink:href="#mbe22c0e57f" y="264.716"/>
      </g>
     </g>
     <g id="text_10">
      <!-- 0.00 -->
      <g transform="translate(7.2 268.515219)scale(0.1 -0.1)">
       <use xlink:href="#DejaVuSans-48"/>
       <use x="63.623047" xlink:href="#DejaVuSans-46"/>
       <use x="95.410156" xlink:href="#DejaVuSans-48"/>
       <use x="159.033203" xlink:href="#DejaVuSans-48"/>
      </g>
     </g>
    </g>
    <g id="ytick_2">
     <g id="line2d_10">
      <g>
       <use style="stroke:#000000;stroke-width:0.8;" x="36.465625" xlink:href="#mbe22c0e57f" y="234.199872"/>
      </g>
     </g>
     <g id="text_11">
      <!-- 0.25 -->
      <g transform="translate(7.2 237.999091)scale(0.1 -0.1)">
       <use xlink:href="#DejaVuSans-48"/>
       <use x="63.623047" xlink:href="#DejaVuSans-46"/>
       <use x="95.410156" xlink:href="#DejaVuSans-50"/>
       <use x="159.033203" xlink:href="#DejaVuSans-53"/>
      </g>
     </g>
    </g>
    <g id="ytick_3">
     <g id="line2d_11">
      <g>
       <use style="stroke:#000000;stroke-width:0.8;" x="36.465625" xlink:href="#mbe22c0e57f" y="203.683745"/>
      </g>
     </g>
     <g id="text_12">
      <!-- 0.50 -->
      <g transform="translate(7.2 207.482963)scale(0.1 -0.1)">
       <use xlink:href="#DejaVuSans-48"/>
       <use x="63.623047" xlink:href="#DejaVuSans-46"/>
       <use x="95.410156" xlink:href="#DejaVuSans-53"/>
       <use x="159.033203" xlink:href="#DejaVuSans-48"/>
      </g>
     </g>
    </g>
    <g id="ytick_4">
     <g id="line2d_12">
      <g>
       <use style="stroke:#000000;stroke-width:0.8;" x="36.465625" xlink:href="#mbe22c0e57f" y="173.167617"/>
      </g>
     </g>
     <g id="text_13">
      <!-- 0.75 -->
      <defs>
       <path d="M 8.203125 72.90625 
L 55.078125 72.90625 
L 55.078125 68.703125 
L 28.609375 0 
L 18.3125 0 
L 43.21875 64.59375 
L 8.203125 64.59375 
z
" id="DejaVuSans-55"/>
      </defs>
      <g transform="translate(7.2 176.966836)scale(0.1 -0.1)">
       <use xlink:href="#DejaVuSans-48"/>
       <use x="63.623047" xlink:href="#DejaVuSans-46"/>
       <use x="95.410156" xlink:href="#DejaVuSans-55"/>
       <use x="159.033203" xlink:href="#DejaVuSans-53"/>
      </g>
     </g>
    </g>
    <g id="ytick_5">
     <g id="line2d_13">
      <g>
       <use style="stroke:#000000;stroke-width:0.8;" x="36.465625" xlink:href="#mbe22c0e57f" y="142.651489"/>
      </g>
     </g>
     <g id="text_14">
      <!-- 1.00 -->
      <g transform="translate(7.2 146.450708)scale(0.1 -0.1)">
       <use xlink:href="#DejaVuSans-49"/>
       <use x="63.623047" xlink:href="#DejaVuSans-46"/>
       <use x="95.410156" xlink:href="#DejaVuSans-48"/>
       <use x="159.033203" xlink:href="#DejaVuSans-48"/>
      </g>
     </g>
    </g>
    <g id="ytick_6">
     <g id="line2d_14">
      <g>
       <use style="stroke:#000000;stroke-width:0.8;" x="36.465625" xlink:href="#mbe22c0e57f" y="112.135362"/>
      </g>
     </g>
     <g id="text_15">
      <!-- 1.25 -->
      <g transform="translate(7.2 115.93458)scale(0.1 -0.1)">
       <use xlink:href="#DejaVuSans-49"/>
       <use x="63.623047" xlink:href="#DejaVuSans-46"/>
       <use x="95.410156" xlink:href="#DejaVuSans-50"/>
       <use x="159.033203" xlink:href="#DejaVuSans-53"/>
      </g>
     </g>
    </g>
    <g id="ytick_7">
     <g id="line2d_15">
      <g>
       <use style="stroke:#000000;stroke-width:0.8;" x="36.465625" xlink:href="#mbe22c0e57f" y="81.619234"/>
      </g>
     </g>
     <g id="text_16">
      <!-- 1.50 -->
      <g transform="translate(7.2 85.418453)scale(0.1 -0.1)">
       <use xlink:href="#DejaVuSans-49"/>
       <use x="63.623047" xlink:href="#DejaVuSans-46"/>
       <use x="95.410156" xlink:href="#DejaVuSans-53"/>
       <use x="159.033203" xlink:href="#DejaVuSans-48"/>
      </g>
     </g>
    </g>
    <g id="ytick_8">
     <g id="line2d_16">
      <g>
       <use style="stroke:#000000;stroke-width:0.8;" x="36.465625" xlink:href="#mbe22c0e57f" y="51.103106"/>
      </g>
     </g>
     <g id="text_17">
      <!-- 1.75 -->
      <g transform="translate(7.2 54.902325)scale(0.1 -0.1)">
       <use xlink:href="#DejaVuSans-49"/>
       <use x="63.623047" xlink:href="#DejaVuSans-46"/>
       <use x="95.410156" xlink:href="#DejaVuSans-55"/>
       <use x="159.033203" xlink:href="#DejaVuSans-53"/>
      </g>
     </g>
    </g>
    <g id="ytick_9">
     <g id="line2d_17">
      <g>
       <use style="stroke:#000000;stroke-width:0.8;" x="36.465625" xlink:href="#mbe22c0e57f" y="20.586979"/>
      </g>
     </g>
     <g id="text_18">
      <!-- 2.00 -->
      <g transform="translate(7.2 24.386197)scale(0.1 -0.1)">
       <use xlink:href="#DejaVuSans-50"/>
       <use x="63.623047" xlink:href="#DejaVuSans-46"/>
       <use x="95.410156" xlink:href="#DejaVuSans-48"/>
       <use x="159.033203" xlink:href="#DejaVuSans-48"/>
      </g>
     </g>
    </g>
   </g>
   <g id="line2d_18">
    <path clip-path="url(#p8ecfe0b91f)" d="M 52.698357 264.716 
L 52.914803 243.693779 
L 78.884857 243.693779 
L 78.884857 168.259577 
L 78.888283 264.716 
L 79.131004 264.716 
L 79.131004 250.175096 
L 85.654053 250.175096 
L 85.654053 58.742004 
L 85.655785 264.716 
L 85.845917 264.716 
L 85.845917 253.1478 
L 85.872238 253.1478 
L 87.039268 253.1478 
L 87.039268 58.175273 
L 92.321396 58.175273 
L 92.321396 264.716 
L 92.615257 264.716 
L 92.672173 51.91516 
L 97.8769 51.91516 
L 97.8769 264.716 
L 98.194466 264.716 
L 98.223816 37.365085 
L 100.852257 37.365085 
L 100.852257 264.716 
L 101.148613 264.716 
L 101.148613 247.143177 
L 101.58448 247.143177 
L 101.58448 28.797371 
L 102.308395 28.797371 
L 102.308395 264.716 
L 102.615303 264.716 
L 102.615303 246.546944 
L 102.780128 246.546944 
L 102.780128 36.949665 
L 105.209908 36.949665 
L 105.209908 264.716 
L 105.515511 264.716 
L 105.515511 246.620744 
L 105.680489 246.620744 
L 105.680489 37.828222 
L 108.267258 37.828222 
L 108.267258 264.716 
L 108.578079 264.716 
L 108.578079 246.325836 
L 108.743279 246.325836 
L 108.743279 34.269661 
L 110.693748 34.269661 
L 110.693748 264.716 
L 111.018684 264.716 
L 111.018684 245.527748 
L 111.126648 245.527748 
L 111.156487 245.527748 
L 111.156487 26.223317 
L 111.693207 26.223317 
L 111.693207 264.716 
L 111.997948 264.716 
L 111.997948 246.669749 
L 112.163208 246.669749 
L 112.163208 38.40138 
L 114.852478 38.40138 
L 114.852478 264.716 
L 115.169044 264.716 
L 115.169044 246.000884 
L 115.306946 246.000884 
L 115.306946 31.905785 
L 116.859795 31.905785 
L 116.859795 264.716 
L 117.176735 264.716 
L 117.176735 245.979881 
L 117.314346 245.979881 
L 117.314346 31.669606 
L 118.825043 31.669606 
L 118.825043 264.716 
L 119.157021 264.716 
L 119.157021 245.130162 
L 119.257942 245.130162 
L 119.321983 245.130162 
L 119.323555 23.389428 
L 119.323555 264.716 
L 120.001236 264.716 
L 120.001236 225.589249 
L 120.166374 225.589249 
L 120.166374 25.339961 
L 120.167908 264.716 
L 123.740234 264.716 
L 123.740234 61.969468 
L 123.847534 61.969468 
L 123.90535 61.969468 
L 123.90535 41.66399 
L 123.906906 264.716 
L 126.153717 264.716 
L 126.153717 136.894096 
L 126.291618 136.894096 
L 126.291618 34.035365 
L 126.293175 264.716 
L 127.809448 264.716 
L 127.809448 178.187584 
L 127.947357 178.187584 
L 127.947357 29.915623 
L 127.948921 264.716 
L 132.711861 264.716 
L 132.711861 47.447228 
L 132.713638 264.716 
L 132.903885 264.716 
L 132.903885 253.141091 
L 132.930084 253.141091 
L 136.045105 253.141091 
L 136.045105 39.374529 
L 136.046684 264.716 
L 136.345726 264.716 
L 136.345726 246.991785 
L 136.51075 246.991785 
L 136.51075 42.286689 
L 139.894608 42.286689 
L 139.894608 264.716 
L 140.192825 264.716 
L 140.192825 247.038165 
L 140.330963 247.038165 
L 140.330963 44.364369 
L 144.111153 44.364369 
L 144.111153 264.716 
L 144.419144 264.716 
L 144.448853 43.846919 
L 148.23587 43.846919 
L 148.23587 264.716 
L 148.537041 264.716 
L 148.566788 48.484542 
L 153.183044 48.484542 
L 153.183044 264.716 
L 153.493629 264.716 
L 153.493629 246.338963 
L 153.766594 246.338963 
L 153.766594 28.336225 
L 153.83239 28.336225 
L 154.557327 28.336225 
L 154.557327 264.716 
L 154.878784 264.716 
L 154.878784 245.724353 
L 155.07061 245.724353 
L 155.07061 25.533047 
L 155.434448 25.533047 
L 155.434448 264.716 
L 155.722816 264.716 
L 155.722816 247.595019 
L 155.8881 247.595019 
L 155.8881 49.524886 
L 160.565964 49.524886 
L 160.565964 264.716 
L 161.031097 264.716 
L 161.031097 237.603162 
L 199.048141 237.603162 
L 199.048141 264.716 
L 199.344856 264.716 
L 199.374512 51.516461 
L 204.532684 51.516461 
L 204.532684 264.716 
L 204.86969 264.716 
L 204.899422 24.132073 
L 204.965584 24.132073 
L 205.161491 24.132073 
L 205.161491 264.716 
L 219.377396 264.716 
L 219.377396 100.75645 
L 219.381081 264.716 
L 219.514816 264.716 
L 219.514816 256.335195 
L 219.597527 256.335195 
L 221.411636 256.335195 
L 221.411636 56.734645 
L 221.549393 56.734645 
L 221.549393 32.815012 
L 221.550972 264.716 
L 225.096649 264.716 
L 225.096649 63.475801 
L 225.234558 63.475801 
L 225.234558 41.360276 
L 225.236145 264.716 
L 229.430862 264.716 
L 229.430862 44.242757 
L 229.432526 264.716 
L 229.62291 264.716 
L 229.62291 253.133215 
L 229.648972 253.133215 
L 233.954727 253.133215 
L 233.954727 46.089599 
L 233.956757 264.716 
L 234.119423 264.716 
L 234.119423 254.69993 
L 234.173203 254.69993 
L 235.096298 254.69993 
L 235.096298 89.073288 
L 235.26123 89.073288 
L 235.262863 27.943495 
L 235.262863 264.716 
L 239.052032 264.716 
L 239.052032 49.712277 
L 239.158936 49.712277 
L 239.216835 49.712277 
L 239.216835 42.88507 
L 239.218407 264.716 
L 239.517311 264.716 
L 239.517311 246.999369 
L 243.091507 246.999369 
L 243.093231 42.429035 
L 243.093231 264.716 
L 243.391846 264.716 
L 243.391846 247.015704 
L 244.260323 247.015704 
L 244.261932 27.168701 
L 244.261932 264.716 
L 244.587448 264.716 
L 244.587448 245.495078 
L 244.694832 245.495078 
L 244.725296 245.495078 
L 244.725296 25.827599 
L 245.19146 25.827599 
L 245.19146 264.716 
L 245.512917 264.716 
L 245.512917 245.724353 
L 245.650955 245.724353 
L 245.650955 28.573425 
L 246.60775 28.573425 
L 246.60775 264.716 
L 246.898247 264.716 
L 246.898247 247.474839 
L 247.063026 247.474839 
L 247.063026 48.107945 
L 251.488045 48.107945 
L 251.488045 264.716 
L 251.800713 264.716 
L 251.887039 22.837064 
L 251.888565 264.716 
L 274.427895 264.716 
L 274.427895 147.695787 
L 274.430634 264.716 
L 274.970932 264.716 
L 274.970932 233.354567 
L 275.079979 233.354567 
L 275.32563 233.354567 
L 275.32563 25.634216 
L 275.327248 264.716 
L 275.652969 264.716 
L 275.652969 245.48341 
L 275.760147 245.48341 
L 277.522285 245.48341 
L 277.522285 32.965734 
L 277.523865 264.716 
L 277.822845 264.716 
L 277.822845 246.994994 
L 281.261612 246.994994 
L 281.261612 41.665707 
L 281.263275 264.716 
L 281.58905 264.716 
L 281.58905 245.480201 
L 281.696175 245.480201 
L 281.753822 245.480201 
L 281.753822 24.126941 
L 281.891113 24.126941 
L 281.891113 264.716 
L 282.216537 264.716 
L 282.216537 245.50062 
L 282.324013 245.50062 
L 282.354355 245.50062 
L 282.354355 25.895694 
L 282.832535 25.895694 
L 282.832535 264.716 
L 283.141838 264.716 
L 283.141838 246.411596 
L 283.279762 246.411596 
L 283.279762 36.842975 
L 285.715515 36.842975 
L 285.715515 264.716 
L 286.042244 264.716 
L 286.042244 245.426529 
L 286.148407 245.426529 
L 286.207329 245.426529 
L 286.225815 23.463832 
L 286.225815 264.716 
L 289.646271 264.716 
L 289.646271 70.553585 
L 289.688988 70.553585 
L 289.838127 70.553585 
L 289.838127 40.958372 
L 289.839706 264.716 
L 290.165657 264.716 
L 290.165657 245.470867 
L 290.272606 245.470867 
L 290.330818 245.470867 
L 290.330818 23.992252 
L 290.443695 23.992252 
L 290.443695 264.716 
L 292.957764 264.716 
L 292.957764 121.78759 
L 293.041077 121.78759 
L 293.122749 121.78759 
L 293.122749 35.695281 
L 293.124306 264.716 
L 293.585335 264.716 
L 293.585335 237.835355 
L 293.723785 237.835355 
L 293.723785 23.967694 
L 293.725372 264.716 
L 298.596382 264.716 
L 298.596382 48.056691 
L 298.598122 264.716 
L 298.842545 264.716 
L 298.842545 250.078835 
L 301.740227 250.078835 
L 301.740227 38.306644 
L 301.741852 264.716 
L 301.877914 264.716 
L 301.877914 256.20393 
L 301.958298 256.20393 
L 307.291939 256.20393 
L 307.291939 51.886282 
L 307.2938 264.716 
L 308.295654 264.716 
L 308.295654 207.265304 
L 308.376045 207.265304 
L 308.433685 207.265304 
L 308.433685 27.015244 
L 308.435242 264.716 
L 308.73407 264.716 
L 308.73407 247.003745 
L 312.605736 247.003745 
L 312.605736 44.106151 
L 312.60743 264.716 
L 312.770874 264.716 
L 312.770874 254.656175 
L 312.823875 254.656175 
L 316.91301 254.656175 
L 316.91301 44.867994 
L 316.91465 264.716 
L 317.104866 264.716 
L 317.104866 253.142549 
L 317.131096 253.142549 
L 320.083725 253.142549 
L 320.083725 38.458762 
L 320.085373 264.716 
L 320.384224 264.716 
L 320.384224 247.002286 
L 324.98661 247.002286 
L 324.98661 48.227115 
L 324.988327 264.716 
L 325.17865 264.716 
L 325.17865 253.137007 
L 325.204773 253.137007 
L 329.56443 253.137007 
L 329.56443 46.393545 
L 329.566116 264.716 
L 329.810448 264.716 
L 329.810448 250.084086 
L 334.845589 250.084086 
L 334.845589 50.36015 
L 334.847298 264.716 
L 334.983612 264.716 
L 334.983612 256.189637 
L 335.063744 256.189637 
L 338.313934 256.189637 
L 338.313934 40.13681 
L 338.315613 264.716 
L 338.452049 264.716 
L 338.452049 256.182928 
L 338.532059 256.182928 
L 340.997856 256.182928 
L 340.997856 35.713296 
L 340.999489 264.716 
L 341.135956 264.716 
L 341.135956 256.180886 
L 341.215935 256.180886 
L 344.520485 256.180886 
L 344.520485 40.443375 
L 344.522148 264.716 
L 344.712639 264.716 
L 344.712639 253.127381 
L 344.738594 253.127381 
L 348.28685 253.127381 
L 348.288506 41.817709 
L 348.288506 264.716 
L 348.587196 264.716 
L 348.587196 247.011329 
L 353.676567 247.011329 
L 353.676567 50.972524 
L 353.678207 264.716 
L 353.841393 264.716 
L 353.841393 254.671052 
L 353.894653 254.671052 
L 358.795219 254.671052 
L 358.796906 49.443976 
L 358.796906 264.716 
L 359.041359 264.716 
L 359.041359 250.077085 
L 364.969437 250.077085 
L 364.969437 55.396474 
L 364.9711 264.716 
L 365.134239 264.716 
L 365.134239 254.673386 
L 365.187553 254.673386 
L 368.437836 254.673386 
L 368.437836 40.137363 
L 368.439461 264.716 
L 368.629967 264.716 
L 368.629967 253.126798 
L 368.655907 253.126798 
L 369.660667 253.126798 
L 369.660667 67.116527 
L 369.738152 67.116527 
L 376.69062 67.116527 
L 376.69062 264.716 
L 376.995544 264.716 
L 377.082336 22.796 
L 377.083893 264.716 
L 377.300339 264.716 
L 377.300339 264.716 
" style="fill:none;stroke:#ff0000;stroke-linecap:square;stroke-width:1.5;"/>
   </g>
   <g id="line2d_19">
    <path clip-path="url(#p8ecfe0b91f)" d="M 52.698357 264.716 
L 52.914803 195.546111 
L 78.738899 195.546111 
L 78.738899 167.43784 
L 78.742416 264.716 
L 78.876625 264.716 
L 78.876625 256.30865 
L 78.958862 256.30865 
L 85.508179 256.30865 
L 85.508179 58.742004 
L 85.509926 264.716 
L 86.917839 264.716 
L 86.917839 184.312679 
L 87.025063 184.312679 
L 92.331619 184.312679 
L 92.331619 59.057387 
L 92.333282 264.716 
L 92.523659 264.716 
L 92.523659 253.133798 
L 92.549728 253.133798 
L 97.910469 253.133798 
L 97.910469 52.039099 
L 97.912125 264.716 
L 98.048409 264.716 
L 98.048409 256.191679 
L 98.128578 256.191679 
L 100.864937 256.191679 
L 100.864937 37.239108 
L 100.866562 264.716 
L 101.462898 264.716 
L 101.462898 230.186716 
L 101.515907 230.186716 
L 102.331329 230.186716 
L 102.331329 28.847417 
L 102.332939 264.716 
L 102.631569 264.716 
L 102.631569 247.014829 
L 105.231468 247.014829 
L 105.231468 36.933008 
L 105.233063 264.716 
L 105.531891 264.716 
L 105.531891 247.003745 
L 108.294342 247.003745 
L 108.294342 37.850812 
L 108.295975 264.716 
L 108.594673 264.716 
L 108.594673 247.010746 
L 110.707611 247.010746 
L 110.707611 34.187251 
L 110.709251 264.716 
L 111.008011 264.716 
L 111.008011 247.007537 
L 111.71389 247.007537 
L 111.71389 26.252556 
L 111.715515 264.716 
L 112.014206 264.716 
L 112.014206 247.011329 
L 114.857994 247.011329 
L 114.857994 38.308768 
L 114.859604 264.716 
L 115.158218 264.716 
L 115.158218 247.015704 
L 116.865517 247.015704 
L 116.865517 31.899187 
L 116.867233 264.716 
L 117.19294 264.716 
L 117.19294 245.484577 
L 117.300133 245.484577 
L 118.845779 245.484577 
L 118.845779 31.744828 
L 118.847427 264.716 
L 119.173462 264.716 
L 119.173462 245.465908 
L 119.280327 245.465908 
L 119.311279 245.465908 
L 119.311279 25.478926 
L 119.715012 25.478926 
L 119.715012 264.716 
L 120.017265 264.716 
L 120.017265 246.810057 
L 120.15535 246.810057 
L 120.15535 41.624405 
L 123.44545 41.624405 
L 123.44545 264.716 
L 123.756462 264.716 
L 123.756462 246.315044 
L 123.921486 246.315044 
L 123.921486 34.150106 
L 125.850525 34.150106 
L 125.850525 264.716 
L 126.170036 264.716 
L 126.170036 245.834615 
L 126.307671 245.834615 
L 126.307671 29.922171 
L 127.506157 29.922171 
L 127.506157 264.716 
L 127.798653 264.716 
L 127.798653 247.361659 
L 127.936447 247.361659 
L 127.936447 48.272757 
L 127.939049 48.272757 
L 132.415764 48.272757 
L 132.415764 264.716 
L 132.728188 264.716 
L 132.785118 39.302581 
L 135.734497 39.302581 
L 135.734497 264.716 
L 136.06147 264.716 
L 136.06147 245.412819 
L 136.167389 245.412819 
L 136.226555 245.412819 
L 136.226555 23.361926 
L 136.228104 264.716 
L 139.908577 264.716 
L 139.908577 55.856041 
L 140.0467 55.856041 
L 140.0467 42.121684 
L 140.048264 264.716 
L 144.107956 264.716 
L 144.107956 43.481292 
L 144.110886 264.716 
L 148.249847 264.716 
L 148.249847 43.928335 
L 148.251656 264.716 
L 153.20388 264.716 
L 153.20388 48.514677 
L 153.205597 264.716 
L 153.612213 264.716 
L 153.612213 240.911029 
L 153.638496 240.911029 
L 154.561852 240.911029 
L 154.561852 28.235451 
L 154.563469 264.716 
L 154.916344 264.716 
L 154.916344 243.948782 
L 154.996368 243.948782 
L 155.433105 243.948782 
L 155.433105 25.491207 
L 155.434669 264.716 
L 155.760635 264.716 
L 155.760635 245.4697 
L 155.867569 245.4697 
L 160.57933 245.4697 
L 160.57933 49.599907 
L 160.580925 264.716 
L 199.082237 264.716 
L 199.084801 237.712159 
L 199.084801 264.716 
L 199.220032 264.716 
L 199.220032 256.251185 
L 199.301254 256.251185 
L 204.552849 256.251185 
L 204.552849 51.423612 
L 204.554466 264.716 
L 205.177483 264.716 
L 205.177483 228.678924 
L 205.203812 228.678924 
L 219.222679 228.678924 
L 219.222679 103.307251 
L 219.226135 264.716 
L 219.41433 264.716 
L 219.41433 253.256895 
L 219.442581 253.256895 
L 221.256706 253.256895 
L 221.256706 32.038239 
L 221.258347 264.716 
L 221.556992 264.716 
L 221.556992 247.013954 
L 224.942177 247.013954 
L 224.942177 41.361673 
L 224.944153 264.716 
L 225.24192 264.716 
L 225.24192 247.063835 
L 229.276001 247.063835 
L 229.276001 45.016068 
L 229.277687 264.716 
L 233.824234 264.716 
L 233.824234 46.226846 
L 233.825943 264.716 
L 234.800766 264.716 
L 234.800766 208.792931 
L 234.90818 208.792931 
L 234.965675 208.792931 
L 234.965675 27.014429 
L 234.967468 264.716 
L 235.266159 264.716 
L 235.266159 247.011329 
L 238.921204 247.011329 
L 238.921204 42.88376 
L 238.922852 264.716 
L 239.221649 264.716 
L 239.221649 247.005495 
L 239.386726 247.005495 
L 239.386726 42.448317 
L 242.799629 42.448317 
L 242.799629 264.716 
L 243.123215 264.716 
L 243.123215 245.604173 
L 243.232521 245.604173 
L 243.261116 245.604173 
L 243.261116 27.136356 
L 243.961166 27.136356 
L 243.961166 264.716 
L 244.291763 264.716 
L 244.291763 245.208046 
L 244.394058 245.208046 
L 244.45681 245.208046 
L 244.45681 23.382123 
L 244.458374 264.716 
L 245.190018 264.716 
L 245.190018 222.538953 
L 245.355072 222.538953 
L 245.355072 25.64382 
L 245.356628 264.716 
L 246.629677 264.716 
L 246.629677 191.935648 
L 246.655319 191.935648 
L 246.767479 191.935648 
L 246.767479 28.543384 
L 246.76902 264.716 
L 251.504974 264.716 
L 251.506607 47.295022 
L 251.506607 264.716 
L 251.886459 264.716 
L 251.886459 242.423779 
L 251.939507 242.423779 
L 274.291161 242.423779 
L 274.291161 149.078736 
L 274.293953 264.716 
L 274.429108 264.716 
L 274.429108 256.255561 
L 274.510406 256.255561 
L 275.18927 256.255561 
L 275.18927 120.026223 
L 275.354347 120.026223 
L 275.354347 26.566979 
L 275.355904 264.716 
L 277.386337 264.716 
L 277.386337 149.125033 
L 277.524231 149.125033 
L 277.524231 32.815099 
L 277.525826 264.716 
L 281.125198 264.716 
L 281.125198 60.440673 
L 281.205452 60.440673 
L 281.29026 60.440673 
L 281.29026 41.816195 
L 281.291832 264.716 
L 281.617943 264.716 
L 281.617943 245.461532 
L 281.724731 245.461532 
L 281.91806 245.461532 
L 281.91806 24.118561 
L 281.919609 264.716 
L 282.218254 264.716 
L 282.218254 247.013954 
L 282.843285 247.013954 
L 282.843285 25.795938 
L 282.844841 264.716 
L 283.143547 264.716 
L 283.143547 247.010454 
L 285.743973 247.010454 
L 285.743973 36.936413 
L 285.74556 264.716 
L 286.044136 264.716 
L 286.044136 247.017746 
L 286.236588 247.017746 
L 286.236588 41.048737 
L 289.374077 41.048737 
L 289.374077 264.716 
L 289.701981 264.716 
L 289.701981 245.359729 
L 289.806969 245.359729 
L 289.867081 245.359729 
L 289.868645 23.367252 
L 289.868645 264.716 
L 290.16748 264.716 
L 290.16748 247.003161 
L 290.440491 247.003161 
L 290.440491 36.319376 
L 290.51799 36.319376 
L 292.658432 36.319376 
L 292.658432 264.716 
L 292.986359 264.716 
L 292.986359 245.358563 
L 293.091324 245.358563 
L 293.124344 245.358563 
L 293.124344 24.17867 
L 293.295547 24.17867 
L 293.295547 264.716 
L 293.587128 264.716 
L 293.587128 247.41329 
L 293.725357 247.41329 
L 293.725357 48.869311 
L 293.728447 48.869311 
L 298.310989 48.869311 
L 298.310989 264.716 
L 298.624947 264.716 
L 298.681602 38.276418 
L 301.447899 38.276418 
L 301.447899 264.716 
L 301.741829 264.716 
L 301.798676 51.873359 
L 306.995918 51.873359 
L 306.995918 264.716 
L 307.320702 264.716 
L 307.320702 245.536207 
L 307.42881 245.536207 
L 308.162071 245.536207 
L 308.162071 27.163404 
L 308.163643 264.716 
L 308.462517 264.716 
L 308.462517 247.000828 
L 308.600136 247.000828 
L 308.600136 43.944624 
L 312.305687 43.944624 
L 312.305687 264.716 
L 312.610008 264.716 
L 312.666603 44.824256 
L 316.603752 44.824256 
L 316.603752 264.716 
L 316.917206 264.716 
L 316.974167 38.599401 
L 319.797928 38.599401 
L 319.797928 264.716 
L 320.088341 264.716 
L 320.088341 247.479214 
L 320.253014 247.479214 
L 320.253014 48.166969 
L 324.688576 48.166969 
L 324.688576 264.716 
L 324.990494 264.716 
L 325.047287 46.447503 
L 329.274467 46.447503 
L 329.274467 264.716 
L 329.568542 264.716 
L 329.652153 50.259193 
L 334.536354 50.259193 
L 334.536354 264.716 
L 334.849823 264.716 
L 334.879448 40.134009 
L 338.002762 40.134009 
L 338.002762 264.716 
L 338.318138 264.716 
L 338.402237 35.760697 
L 340.693695 35.760697 
L 340.693695 264.716 
L 341.002174 264.716 
L 341.086151 40.44974 
L 344.216026 40.44974 
L 344.216026 264.716 
L 344.524559 264.716 
L 344.581383 41.949297 
L 348.004433 41.949297 
L 348.004433 264.716 
L 348.290771 264.716 
L 348.290771 247.709656 
L 348.456032 247.709656 
L 348.456032 50.904362 
L 353.380714 50.904362 
L 353.380714 264.716 
L 353.680351 264.716 
L 353.710014 49.527908 
L 358.512787 49.527908 
L 358.512787 264.716 
L 358.799454 264.716 
L 358.883202 55.290797 
L 364.666641 55.290797 
L 364.666641 264.716 
L 364.973305 264.716 
L 365.084106 40.168005 
L 368.139084 40.168005 
L 368.139084 264.716 
L 368.441925 264.716 
L 368.471512 47.354345 
L 369.339973 47.354345 
L 369.339973 27.359293 
L 369.34153 264.716 
L 376.701881 264.716 
L 376.701881 62.095101 
L 376.703552 264.716 
L 377.08342 264.716 
L 377.08342 242.422904 
L 377.136444 242.422904 
L 377.352898 242.422904 
L 377.352898 242.422904 
" style="fill:none;stroke:#0000ff;stroke-linecap:square;stroke-width:1.5;"/>
   </g>
   <g id="line2d_20">
    <path clip-path="url(#p8ecfe0b91f)" d="M 52.698357 264.716 
L 52.914803 165.029983 
L 78.312355 165.029983 
L 78.312355 264.716 
L 78.591843 264.716 
L 78.70285 58.624979 
L 85.057465 58.624979 
L 85.057465 264.716 
L 85.38813 264.716 
L 85.417786 28.443226 
L 85.490364 28.443226 
L 86.450615 28.443226 
L 86.450615 264.716 
L 92.04937 264.716 
L 92.04937 52.160718 
L 92.051178 264.716 
L 92.187424 264.716 
L 92.187424 256.193429 
L 92.267624 256.193429 
L 97.628304 256.193429 
L 97.628304 52.03875 
L 97.630096 264.716 
L 97.820457 264.716 
L 97.820457 253.134674 
L 97.846542 253.134674 
L 100.582596 253.134674 
L 100.582596 37.237391 
L 100.584381 264.716 
L 100.747993 264.716 
L 100.747993 254.646841 
L 100.800827 254.646841 
L 102.04921 254.646841 
L 102.04921 70.101416 
L 102.099518 70.101416 
L 102.187355 70.101416 
L 102.187355 29.626839 
L 102.189056 264.716 
L 104.949631 264.716 
L 104.949631 107.853714 
L 105.002884 107.853714 
L 105.087379 107.853714 
L 105.087379 36.931844 
L 105.089088 264.716 
L 108.012482 264.716 
L 108.012482 98.65032 
L 108.11937 98.65032 
L 108.177307 98.65032 
L 108.177307 38.002727 
L 108.179031 264.716 
L 110.425842 264.716 
L 110.425842 136.894096 
L 110.590828 136.894096 
L 110.590828 34.188095 
L 110.592522 264.716 
L 111.432068 264.716 
L 111.432068 216.439236 
L 111.458313 216.439236 
L 111.569954 216.439236 
L 111.569954 26.099128 
L 111.571632 264.716 
L 114.575989 264.716 
L 114.575989 94.073855 
L 114.601906 94.073855 
L 114.71402 94.073855 
L 114.71402 38.308245 
L 114.715683 264.716 
L 116.610466 264.716 
L 116.610466 156.792632 
L 116.663719 156.792632 
L 116.748436 156.792632 
L 116.748436 32.050549 
L 116.75013 264.716 
L 118.564034 264.716 
L 118.564034 161.36443 
L 118.729294 161.36443 
L 118.729294 31.748291 
L 118.73098 264.716 
L 119.029404 264.716 
L 119.029404 247.026206 
L 119.573051 247.026206 
L 119.573051 25.335771 
L 119.574799 264.716 
L 119.900772 264.716 
L 119.900772 245.469408 
L 120.007698 245.469408 
L 123.312447 245.469408 
L 123.312447 41.665154 
L 123.31443 264.716 
L 123.639801 264.716 
L 123.639801 245.502954 
L 123.747322 245.502954 
L 125.725731 245.502954 
L 125.725731 34.185359 
L 125.72744 264.716 
L 126.025887 264.716 
L 126.025887 247.025039 
L 127.381653 247.025039 
L 127.383408 29.915797 
L 127.383408 264.716 
L 127.654594 264.716 
L 127.654594 248.566084 
L 132.284073 248.566084 
L 132.284073 48.223914 
L 132.285866 264.716 
L 135.614845 264.716 
L 135.614845 75.724532 
L 135.779655 75.724532 
L 135.779655 40.289918 
L 135.781372 264.716 
L 136.106972 264.716 
L 136.106972 245.490119 
L 136.214264 245.490119 
L 139.627205 245.490119 
L 139.627205 42.275286 
L 139.628937 264.716 
L 139.900269 264.716 
L 139.900269 248.557625 
L 143.826172 248.557625 
L 143.826172 44.256989 
L 143.827942 264.716 
L 144.018051 264.716 
L 144.018051 253.148967 
L 144.044388 253.148967 
L 147.970901 253.148967 
L 147.970901 43.950889 
L 147.97271 264.716 
L 148.162941 264.716 
L 148.162941 253.142258 
L 148.189163 253.142258 
L 152.927696 253.142258 
L 152.927696 48.530246 
L 152.929504 264.716 
L 153.065529 264.716 
L 153.065529 256.205972 
L 153.14595 256.205972 
L 154.285713 256.205972 
L 154.285713 93.427962 
L 154.477859 93.427962 
L 154.477859 29.318819 
L 154.479553 264.716 
L 155.156952 264.716 
L 155.156952 225.605001 
L 155.322174 225.605001 
L 155.322174 25.338855 
L 155.32386 264.716 
L 160.303101 264.716 
L 160.303101 48.667028 
L 160.304947 264.716 
L 198.779396 264.716 
L 198.779396 237.560681 
L 198.782036 264.716 
L 198.971313 264.716 
L 198.971313 253.19593 
L 198.998482 253.19593 
L 204.27681 253.19593 
L 204.27681 51.574362 
L 204.278648 264.716 
L 204.468964 264.716 
L 204.468964 253.137007 
L 204.495094 253.137007 
L 204.877609 253.137007 
L 204.877609 102.401253 
L 204.927994 102.401253 
L 218.786514 102.401253 
L 218.786514 264.716 
L 219.111885 264.716 
L 219.141502 32.047109 
L 219.219414 32.047109 
L 220.818787 32.047109 
L 220.818787 264.716 
L 221.11911 264.716 
L 221.11911 246.919152 
L 221.284431 246.919152 
L 221.284431 41.396491 
L 224.509193 41.396491 
L 224.509193 264.716 
L 224.804031 264.716 
L 224.804031 247.228936 
L 224.969254 247.228936 
L 224.969254 45.126624 
L 228.860786 45.126624 
L 228.860786 264.716 
L 229.165504 264.716 
L 229.195534 46.059088 
L 233.377678 46.059088 
L 233.377678 264.716 
L 233.68924 264.716 
L 233.68924 246.28354 
L 234.530907 246.28354 
L 234.530907 27.090561 
L 234.532837 264.716 
L 234.831032 264.716 
L 234.831032 247.039332 
L 234.996078 247.039332 
L 234.996078 42.857188 
L 238.482162 42.857188 
L 238.482162 264.716 
L 238.813957 264.716 
L 238.813957 245.140372 
L 238.915062 245.140372 
L 238.951683 245.140372 
L 238.951683 23.234807 
L 238.953384 264.716 
L 242.688263 264.716 
L 242.688263 52.78095 
L 242.826294 52.78095 
L 242.826294 42.427987 
L 242.82798 264.716 
L 243.83004 264.716 
L 243.83004 207.253344 
L 243.910217 207.253344 
L 244.021812 207.253344 
L 244.021812 27.31951 
L 244.02356 264.716 
L 244.322357 264.716 
L 244.322357 247.005203 
L 244.920471 247.005203 
L 244.920471 25.645042 
L 244.922173 264.716 
L 245.220741 264.716 
L 245.220741 247.01833 
L 246.332397 247.01833 
L 246.332397 28.539834 
L 246.334091 264.716 
L 246.632919 264.716 
L 246.632919 247.003453 
L 251.235191 247.003453 
L 251.235191 48.226359 
L 251.236961 264.716 
L 251.373528 264.716 
L 251.373528 256.175635 
L 251.453415 256.175635 
L 251.619453 256.175635 
L 251.619453 148.132774 
L 251.669861 148.132774 
L 273.854065 148.132774 
L 273.854065 264.716 
L 274.159645 264.716 
L 274.159645 246.621911 
L 274.540993 246.621911 
L 274.540993 25.611897 
L 274.745293 25.611897 
L 274.745293 264.716 
L 275.057945 264.716 
L 275.057945 246.222283 
L 275.223 246.222283 
L 275.223 33.033374 
L 276.952347 33.033374 
L 276.952347 264.716 
L 277.254738 264.716 
L 277.254738 246.801889 
L 277.392586 246.801889 
L 277.392586 41.539623 
L 280.66787 41.539623 
L 280.66787 264.716 
L 280.993629 264.716 
L 280.993629 245.481368 
L 281.100769 245.481368 
L 281.185814 245.481368 
L 281.185814 23.507875 
L 281.187492 264.716 
L 281.648598 264.716 
L 281.648598 237.830979 
L 281.786438 237.830979 
L 281.786438 23.964667 
L 281.788101 264.716 
L 282.573769 264.716 
L 282.573769 219.485157 
L 282.653893 219.485157 
L 282.711708 219.485157 
L 282.711708 25.795589 
L 282.713425 264.716 
L 285.447044 264.716 
L 285.447044 109.377258 
L 285.527252 109.377258 
L 285.612144 109.377258 
L 285.612144 36.934085 
L 285.613846 264.716 
L 285.93969 264.716 
L 285.93969 245.476701 
L 286.046745 245.476701 
L 289.243011 245.476701 
L 289.243011 41.053362 
L 289.244751 264.716 
L 289.597748 264.716 
L 289.597748 243.941781 
L 289.67765 243.941781 
L 289.735443 243.941781 
L 289.737114 23.354185 
L 289.737114 264.716 
L 290.170952 264.716 
L 290.170952 239.372608 
L 292.527618 239.372608 
L 292.527618 36.323778 
L 292.529335 264.716 
L 292.854881 264.716 
L 292.854881 245.493328 
L 292.962227 245.493328 
L 293.155228 245.493328 
L 293.155228 24.11664 
L 293.156929 264.716 
L 293.455864 264.716 
L 293.455864 246.997327 
L 298.16655 246.997327 
L 298.16655 48.838354 
L 298.168411 264.716 
L 298.331131 264.716 
L 298.331131 254.697013 
L 298.384857 254.697013 
L 301.310158 254.697013 
L 301.310158 38.304636 
L 301.311928 264.716 
L 301.502167 264.716 
L 301.502167 253.141966 
L 301.528381 253.141966 
L 306.889069 253.141966 
L 306.889069 52.038837 
L 306.89106 264.716 
L 307.054001 264.716 
L 307.054001 254.684762 
L 307.107506 254.684762 
L 308.030884 254.684762 
L 308.030884 88.890041 
L 308.168739 88.890041 
L 308.168739 27.792337 
L 308.170441 264.716 
L 312.17569 264.716 
L 312.17569 43.174261 
L 312.177521 264.716 
L 312.367577 264.716 
L 312.367577 253.151884 
L 312.393967 253.151884 
L 316.482941 253.151884 
L 316.482941 44.867092 
L 316.484695 264.716 
L 319.651375 264.716 
L 319.651375 84.898464 
L 319.731415 84.898464 
L 319.816429 84.898464 
L 319.816429 39.376042 
L 319.818138 264.716 
L 324.553886 264.716 
L 324.553886 47.293887 
L 324.555695 264.716 
L 329.156067 264.716 
L 329.156067 46.530443 
L 329.157898 264.716 
L 329.294022 264.716 
L 329.294022 256.200721 
L 329.374352 256.200721 
L 334.41021 256.200721 
L 334.41021 50.206984 
L 334.411964 264.716 
L 334.602119 264.716 
L 334.602119 253.146342 
L 334.62841 253.146342 
L 337.878754 253.146342 
L 337.878754 40.137683 
L 337.880852 264.716 
L 338.125084 264.716 
L 338.125084 250.089628 
L 340.562645 250.089628 
L 340.562645 35.710764 
L 340.564369 264.716 
L 340.781898 264.716 
L 340.781898 251.598879 
L 344.085548 251.598879 
L 344.085548 40.444422 
L 344.08728 264.716 
L 347.876015 264.716 
L 347.876015 49.73678 
L 347.983353 49.73678 
L 348.013786 49.73678 
L 348.013786 42.730216 
L 348.015472 264.716 
L 353.23822 264.716 
L 353.23822 50.040285 
L 353.240044 264.716 
L 353.430252 264.716 
L 353.430252 253.143425 
L 353.456497 253.143425 
L 358.384247 253.143425 
L 358.384247 49.597288 
L 358.386024 264.716 
L 358.522324 264.716 
L 358.522324 256.190512 
L 358.60247 256.190512 
L 364.558655 256.190512 
L 364.558655 55.397056 
L 364.560394 264.716 
L 364.80452 264.716 
L 364.80452 250.095754 
L 368.026909 250.095754 
L 368.028679 40.136111 
L 368.028679 264.716 
L 368.164963 264.716 
L 368.164963 256.191387 
L 368.245125 256.191387 
L 369.222763 256.191387 
L 369.222763 102.430913 
L 369.32737 102.430913 
L 376.422318 102.430913 
L 376.422318 67.922284 
L 376.424332 264.716 
L 376.560486 264.716 
L 376.560486 256.198388 
L 376.640778 256.198388 
L 376.806625 256.198388 
L 376.806625 148.394372 
L 376.857224 148.394372 
L 377.290123 148.394372 
L 377.290123 148.394372 
" style="fill:none;stroke:#008000;stroke-linecap:square;stroke-width:1.5;"/>
   </g>
   <g id="patch_3">
    <path d="M 36.465625 276.812 
L 36.465625 10.7 
" style="fill:none;stroke:#000000;stroke-linecap:square;stroke-linejoin:miter;stroke-width:0.8;"/>
   </g>
   <g id="patch_4">
    <path d="M 393.585625 276.812 
L 393.585625 10.7 
" style="fill:none;stroke:#000000;stroke-linecap:square;stroke-linejoin:miter;stroke-width:0.8;"/>
   </g>
   <g id="patch_5">
    <path d="M 36.465622 276.812 
L 393.585625 276.812 
" style="fill:none;stroke:#000000;stroke-linecap:square;stroke-linejoin:miter;stroke-width:0.8;"/>
   </g>
   <g id="patch_6">
    <path d="M 36.465622 10.7 
L 393.585625 10.7 
" style="fill:none;stroke:#000000;stroke-linecap:square;stroke-linejoin:miter;stroke-width:0.8;"/>
   </g>
  </g>
 </g>
 <defs>
  <clipPath id="p8ecfe0b91f">
   <rect height="266.112" width="357.12" x="36.465625" y="10.7"/>
  </clipPath>
 </defs>
</svg>
