<?xml version="1.0" encoding="utf-8" standalone="no"?>
<!DOCTYPE svg PUBLIC "-//W3C//DTD SVG 1.1//EN"
  "http://www.w3.org/Graphics/SVG/1.1/DTD/svg11.dtd">
<!-- Created with matplotlib (https://matplotlib.org/) -->
<svg height="313.36825pt" version="1.1" viewBox="0 0 404.285625 313.36825" width="404.285625pt" xmlns="http://www.w3.org/2000/svg" xmlns:xlink="http://www.w3.org/1999/xlink">
 <defs>
  <style type="text/css">
*{stroke-linecap:butt;stroke-linejoin:round;}
  </style>
 </defs>
 <g id="figure_1">
  <g id="patch_1">
   <path d="M 0 313.36825 
L 404.285625 313.36825 
L 404.285625 0 
L 0 0 
z
" style="fill:#ffffff;"/>
  </g>
  <g id="axes_1">
   <g id="patch_2">
    <path d="M 36.465625 276.812 
L 393.585625 276.812 
L 393.585625 10.7 
L 36.465625 10.7 
z
" style="fill:#ffffff;"/>
   </g>
   <g id="matplotlib.axis_1">
    <g id="xtick_1">
     <g id="line2d_1">
      <defs>
       <path d="M 0 0 
L 0 3.5 
" id="maf036ddfe9" style="stroke:#000000;stroke-width:0.8;"/>
      </defs>
      <g>
       <use style="stroke:#000000;stroke-width:0.8;" x="52.698341" xlink:href="#maf036ddfe9" y="276.812"/>
      </g>
     </g>
     <g id="text_1">
      <!-- 4 -->
      <defs>
       <path d="M 37.796875 64.3125 
L 12.890625 25.390625 
L 37.796875 25.390625 
z
M 35.203125 72.90625 
L 47.609375 72.90625 
L 47.609375 25.390625 
L 58.015625 25.390625 
L 58.015625 17.1875 
L 47.609375 17.1875 
L 47.609375 0 
L 37.796875 0 
L 37.796875 17.1875 
L 4.890625 17.1875 
L 4.890625 26.703125 
z
" id="DejaVuSans-52"/>
      </defs>
      <g transform="translate(49.517091 291.410437)scale(0.1 -0.1)">
       <use xlink:href="#DejaVuSans-52"/>
      </g>
     </g>
    </g>
    <g id="xtick_2">
     <g id="line2d_2">
      <g>
       <use style="stroke:#000000;stroke-width:0.8;" x="95.988556" xlink:href="#maf036ddfe9" y="276.812"/>
      </g>
     </g>
     <g id="text_2">
      <!-- 6 -->
      <defs>
       <path d="M 33.015625 40.375 
Q 26.375 40.375 22.484375 35.828125 
Q 18.609375 31.296875 18.609375 23.390625 
Q 18.609375 15.53125 22.484375 10.953125 
Q 26.375 6.390625 33.015625 6.390625 
Q 39.65625 6.390625 43.53125 10.953125 
Q 47.40625 15.53125 47.40625 23.390625 
Q 47.40625 31.296875 43.53125 35.828125 
Q 39.65625 40.375 33.015625 40.375 
z
M 52.59375 71.296875 
L 52.59375 62.3125 
Q 48.875 64.0625 45.09375 64.984375 
Q 41.3125 65.921875 37.59375 65.921875 
Q 27.828125 65.921875 22.671875 59.328125 
Q 17.53125 52.734375 16.796875 39.40625 
Q 19.671875 43.65625 24.015625 45.921875 
Q 28.375 48.1875 33.59375 48.1875 
Q 44.578125 48.1875 50.953125 41.515625 
Q 57.328125 34.859375 57.328125 23.390625 
Q 57.328125 12.15625 50.6875 5.359375 
Q 44.046875 -1.421875 33.015625 -1.421875 
Q 20.359375 -1.421875 13.671875 8.265625 
Q 6.984375 17.96875 6.984375 36.375 
Q 6.984375 53.65625 15.1875 63.9375 
Q 23.390625 74.21875 37.203125 74.21875 
Q 40.921875 74.21875 44.703125 73.484375 
Q 48.484375 72.75 52.59375 71.296875 
z
" id="DejaVuSans-54"/>
      </defs>
      <g transform="translate(92.807306 291.410437)scale(0.1 -0.1)">
       <use xlink:href="#DejaVuSans-54"/>
      </g>
     </g>
    </g>
    <g id="xtick_3">
     <g id="line2d_3">
      <g>
       <use style="stroke:#000000;stroke-width:0.8;" x="139.27877" xlink:href="#maf036ddfe9" y="276.812"/>
      </g>
     </g>
     <g id="text_3">
      <!-- 8 -->
      <defs>
       <path d="M 31.78125 34.625 
Q 24.75 34.625 20.71875 30.859375 
Q 16.703125 27.09375 16.703125 20.515625 
Q 16.703125 13.921875 20.71875 10.15625 
Q 24.75 6.390625 31.78125 6.390625 
Q 38.8125 6.390625 42.859375 10.171875 
Q 46.921875 13.96875 46.921875 20.515625 
Q 46.921875 27.09375 42.890625 30.859375 
Q 38.875 34.625 31.78125 34.625 
z
M 21.921875 38.8125 
Q 15.578125 40.375 12.03125 44.71875 
Q 8.5 49.078125 8.5 55.328125 
Q 8.5 64.0625 14.71875 69.140625 
Q 20.953125 74.21875 31.78125 74.21875 
Q 42.671875 74.21875 48.875 69.140625 
Q 55.078125 64.0625 55.078125 55.328125 
Q 55.078125 49.078125 51.53125 44.71875 
Q 48 40.375 41.703125 38.8125 
Q 48.828125 37.15625 52.796875 32.3125 
Q 56.78125 27.484375 56.78125 20.515625 
Q 56.78125 9.90625 50.3125 4.234375 
Q 43.84375 -1.421875 31.78125 -1.421875 
Q 19.734375 -1.421875 13.25 4.234375 
Q 6.78125 9.90625 6.78125 20.515625 
Q 6.78125 27.484375 10.78125 32.3125 
Q 14.796875 37.15625 21.921875 38.8125 
z
M 18.3125 54.390625 
Q 18.3125 48.734375 21.84375 45.5625 
Q 25.390625 42.390625 31.78125 42.390625 
Q 38.140625 42.390625 41.71875 45.5625 
Q 45.3125 48.734375 45.3125 54.390625 
Q 45.3125 60.0625 41.71875 63.234375 
Q 38.140625 66.40625 31.78125 66.40625 
Q 25.390625 66.40625 21.84375 63.234375 
Q 18.3125 60.0625 18.3125 54.390625 
z
" id="DejaVuSans-56"/>
      </defs>
      <g transform="translate(136.09752 291.410437)scale(0.1 -0.1)">
       <use xlink:href="#DejaVuSans-56"/>
      </g>
     </g>
    </g>
    <g id="xtick_4">
     <g id="line2d_4">
      <g>
       <use style="stroke:#000000;stroke-width:0.8;" x="182.568985" xlink:href="#maf036ddfe9" y="276.812"/>
      </g>
     </g>
     <g id="text_4">
      <!-- 10 -->
      <defs>
       <path d="M 12.40625 8.296875 
L 28.515625 8.296875 
L 28.515625 63.921875 
L 10.984375 60.40625 
L 10.984375 69.390625 
L 28.421875 72.90625 
L 38.28125 72.90625 
L 38.28125 8.296875 
L 54.390625 8.296875 
L 54.390625 0 
L 12.40625 0 
z
" id="DejaVuSans-49"/>
       <path d="M 31.78125 66.40625 
Q 24.171875 66.40625 20.328125 58.90625 
Q 16.5 51.421875 16.5 36.375 
Q 16.5 21.390625 20.328125 13.890625 
Q 24.171875 6.390625 31.78125 6.390625 
Q 39.453125 6.390625 43.28125 13.890625 
Q 47.125 21.390625 47.125 36.375 
Q 47.125 51.421875 43.28125 58.90625 
Q 39.453125 66.40625 31.78125 66.40625 
z
M 31.78125 74.21875 
Q 44.046875 74.21875 50.515625 64.515625 
Q 56.984375 54.828125 56.984375 36.375 
Q 56.984375 17.96875 50.515625 8.265625 
Q 44.046875 -1.421875 31.78125 -1.421875 
Q 19.53125 -1.421875 13.0625 8.265625 
Q 6.59375 17.96875 6.59375 36.375 
Q 6.59375 54.828125 13.0625 64.515625 
Q 19.53125 74.21875 31.78125 74.21875 
z
" id="DejaVuSans-48"/>
      </defs>
      <g transform="translate(176.206485 291.410437)scale(0.1 -0.1)">
       <use xlink:href="#DejaVuSans-49"/>
       <use x="63.623047" xlink:href="#DejaVuSans-48"/>
      </g>
     </g>
    </g>
    <g id="xtick_5">
     <g id="line2d_5">
      <g>
       <use style="stroke:#000000;stroke-width:0.8;" x="225.859207" xlink:href="#maf036ddfe9" y="276.812"/>
      </g>
     </g>
     <g id="text_5">
      <!-- 12 -->
      <defs>
       <path d="M 19.1875 8.296875 
L 53.609375 8.296875 
L 53.609375 0 
L 7.328125 0 
L 7.328125 8.296875 
Q 12.9375 14.109375 22.625 23.890625 
Q 32.328125 33.6875 34.8125 36.53125 
Q 39.546875 41.84375 41.421875 45.53125 
Q 43.3125 49.21875 43.3125 52.78125 
Q 43.3125 58.59375 39.234375 62.25 
Q 35.15625 65.921875 28.609375 65.921875 
Q 23.96875 65.921875 18.8125 64.3125 
Q 13.671875 62.703125 7.8125 59.421875 
L 7.8125 69.390625 
Q 13.765625 71.78125 18.9375 73 
Q 24.125 74.21875 28.421875 74.21875 
Q 39.75 74.21875 46.484375 68.546875 
Q 53.21875 62.890625 53.21875 53.421875 
Q 53.21875 48.921875 51.53125 44.890625 
Q 49.859375 40.875 45.40625 35.40625 
Q 44.1875 33.984375 37.640625 27.21875 
Q 31.109375 20.453125 19.1875 8.296875 
z
" id="DejaVuSans-50"/>
      </defs>
      <g transform="translate(219.496707 291.410437)scale(0.1 -0.1)">
       <use xlink:href="#DejaVuSans-49"/>
       <use x="63.623047" xlink:href="#DejaVuSans-50"/>
      </g>
     </g>
    </g>
    <g id="xtick_6">
     <g id="line2d_6">
      <g>
       <use style="stroke:#000000;stroke-width:0.8;" x="269.149422" xlink:href="#maf036ddfe9" y="276.812"/>
      </g>
     </g>
     <g id="text_6">
      <!-- 14 -->
      <g transform="translate(262.786922 291.410437)scale(0.1 -0.1)">
       <use xlink:href="#DejaVuSans-49"/>
       <use x="63.623047" xlink:href="#DejaVuSans-52"/>
      </g>
     </g>
    </g>
    <g id="xtick_7">
     <g id="line2d_7">
      <g>
       <use style="stroke:#000000;stroke-width:0.8;" x="312.439636" xlink:href="#maf036ddfe9" y="276.812"/>
      </g>
     </g>
     <g id="text_7">
      <!-- 16 -->
      <g transform="translate(306.077136 291.410437)scale(0.1 -0.1)">
       <use xlink:href="#DejaVuSans-49"/>
       <use x="63.623047" xlink:href="#DejaVuSans-54"/>
      </g>
     </g>
    </g>
    <g id="xtick_8">
     <g id="line2d_8">
      <g>
       <use style="stroke:#000000;stroke-width:0.8;" x="355.729851" xlink:href="#maf036ddfe9" y="276.812"/>
      </g>
     </g>
     <g id="text_8">
      <!-- 18 -->
      <g transform="translate(349.367351 291.410437)scale(0.1 -0.1)">
       <use xlink:href="#DejaVuSans-49"/>
       <use x="63.623047" xlink:href="#DejaVuSans-56"/>
      </g>
     </g>
    </g>
    <g id="text_9">
     <!-- +1.5961602e9 -->
     <defs>
      <path d="M 46 62.703125 
L 46 35.5 
L 73.1875 35.5 
L 73.1875 27.203125 
L 46 27.203125 
L 46 0 
L 37.796875 0 
L 37.796875 27.203125 
L 10.59375 27.203125 
L 10.59375 35.5 
L 37.796875 35.5 
L 37.796875 62.703125 
z
" id="DejaVuSans-43"/>
      <path d="M 10.6875 12.40625 
L 21 12.40625 
L 21 0 
L 10.6875 0 
z
" id="DejaVuSans-46"/>
      <path d="M 10.796875 72.90625 
L 49.515625 72.90625 
L 49.515625 64.59375 
L 19.828125 64.59375 
L 19.828125 46.734375 
Q 21.96875 47.46875 24.109375 47.828125 
Q 26.265625 48.1875 28.421875 48.1875 
Q 40.625 48.1875 47.75 41.5 
Q 54.890625 34.8125 54.890625 23.390625 
Q 54.890625 11.625 47.5625 5.09375 
Q 40.234375 -1.421875 26.90625 -1.421875 
Q 22.3125 -1.421875 17.546875 -0.640625 
Q 12.796875 0.140625 7.71875 1.703125 
L 7.71875 11.625 
Q 12.109375 9.234375 16.796875 8.0625 
Q 21.484375 6.890625 26.703125 6.890625 
Q 35.15625 6.890625 40.078125 11.328125 
Q 45.015625 15.765625 45.015625 23.390625 
Q 45.015625 31 40.078125 35.4375 
Q 35.15625 39.890625 26.703125 39.890625 
Q 22.75 39.890625 18.8125 39.015625 
Q 14.890625 38.140625 10.796875 36.28125 
z
" id="DejaVuSans-53"/>
      <path d="M 10.984375 1.515625 
L 10.984375 10.5 
Q 14.703125 8.734375 18.5 7.8125 
Q 22.3125 6.890625 25.984375 6.890625 
Q 35.75 6.890625 40.890625 13.453125 
Q 46.046875 20.015625 46.78125 33.40625 
Q 43.953125 29.203125 39.59375 26.953125 
Q 35.25 24.703125 29.984375 24.703125 
Q 19.046875 24.703125 12.671875 31.3125 
Q 6.296875 37.9375 6.296875 49.421875 
Q 6.296875 60.640625 12.9375 67.421875 
Q 19.578125 74.21875 30.609375 74.21875 
Q 43.265625 74.21875 49.921875 64.515625 
Q 56.59375 54.828125 56.59375 36.375 
Q 56.59375 19.140625 48.40625 8.859375 
Q 40.234375 -1.421875 26.421875 -1.421875 
Q 22.703125 -1.421875 18.890625 -0.6875 
Q 15.09375 0.046875 10.984375 1.515625 
z
M 30.609375 32.421875 
Q 37.25 32.421875 41.125 36.953125 
Q 45.015625 41.5 45.015625 49.421875 
Q 45.015625 57.28125 41.125 61.84375 
Q 37.25 66.40625 30.609375 66.40625 
Q 23.96875 66.40625 20.09375 61.84375 
Q 16.21875 57.28125 16.21875 49.421875 
Q 16.21875 41.5 20.09375 36.953125 
Q 23.96875 32.421875 30.609375 32.421875 
z
" id="DejaVuSans-57"/>
      <path d="M 56.203125 29.59375 
L 56.203125 25.203125 
L 14.890625 25.203125 
Q 15.484375 15.921875 20.484375 11.0625 
Q 25.484375 6.203125 34.421875 6.203125 
Q 39.59375 6.203125 44.453125 7.46875 
Q 49.3125 8.734375 54.109375 11.28125 
L 54.109375 2.78125 
Q 49.265625 0.734375 44.1875 -0.34375 
Q 39.109375 -1.421875 33.890625 -1.421875 
Q 20.796875 -1.421875 13.15625 6.1875 
Q 5.515625 13.8125 5.515625 26.8125 
Q 5.515625 40.234375 12.765625 48.109375 
Q 20.015625 56 32.328125 56 
Q 43.359375 56 49.78125 48.890625 
Q 56.203125 41.796875 56.203125 29.59375 
z
M 47.21875 32.234375 
Q 47.125 39.59375 43.09375 43.984375 
Q 39.0625 48.390625 32.421875 48.390625 
Q 24.90625 48.390625 20.390625 44.140625 
Q 15.875 39.890625 15.1875 32.171875 
z
" id="DejaVuSans-101"/>
     </defs>
     <g transform="translate(318.612188 304.088562)scale(0.1 -0.1)">
      <use xlink:href="#DejaVuSans-43"/>
      <use x="83.789062" xlink:href="#DejaVuSans-49"/>
      <use x="147.412109" xlink:href="#DejaVuSans-46"/>
      <use x="179.199219" xlink:href="#DejaVuSans-53"/>
      <use x="242.822266" xlink:href="#DejaVuSans-57"/>
      <use x="306.445312" xlink:href="#DejaVuSans-54"/>
      <use x="370.068359" xlink:href="#DejaVuSans-49"/>
      <use x="433.691406" xlink:href="#DejaVuSans-54"/>
      <use x="497.314453" xlink:href="#DejaVuSans-48"/>
      <use x="560.9375" xlink:href="#DejaVuSans-50"/>
      <use x="624.560547" xlink:href="#DejaVuSans-101"/>
      <use x="686.083984" xlink:href="#DejaVuSans-57"/>
     </g>
    </g>
   </g>
   <g id="matplotlib.axis_2">
    <g id="ytick_1">
     <g id="line2d_9">
      <defs>
       <path d="M 0 0 
L -3.5 0 
" id="m0bdf155096" style="stroke:#000000;stroke-width:0.8;"/>
      </defs>
      <g>
       <use style="stroke:#000000;stroke-width:0.8;" x="36.465625" xlink:href="#m0bdf155096" y="264.716"/>
      </g>
     </g>
     <g id="text_10">
      <!-- 0.00 -->
      <g transform="translate(7.2 268.515219)scale(0.1 -0.1)">
       <use xlink:href="#DejaVuSans-48"/>
       <use x="63.623047" xlink:href="#DejaVuSans-46"/>
       <use x="95.410156" xlink:href="#DejaVuSans-48"/>
       <use x="159.033203" xlink:href="#DejaVuSans-48"/>
      </g>
     </g>
    </g>
    <g id="ytick_2">
     <g id="line2d_10">
      <g>
       <use style="stroke:#000000;stroke-width:0.8;" x="36.465625" xlink:href="#m0bdf155096" y="234.219247"/>
      </g>
     </g>
     <g id="text_11">
      <!-- 0.25 -->
      <g transform="translate(7.2 238.018465)scale(0.1 -0.1)">
       <use xlink:href="#DejaVuSans-48"/>
       <use x="63.623047" xlink:href="#DejaVuSans-46"/>
       <use x="95.410156" xlink:href="#DejaVuSans-50"/>
       <use x="159.033203" xlink:href="#DejaVuSans-53"/>
      </g>
     </g>
    </g>
    <g id="ytick_3">
     <g id="line2d_11">
      <g>
       <use style="stroke:#000000;stroke-width:0.8;" x="36.465625" xlink:href="#m0bdf155096" y="203.722493"/>
      </g>
     </g>
     <g id="text_12">
      <!-- 0.50 -->
      <g transform="translate(7.2 207.521712)scale(0.1 -0.1)">
       <use xlink:href="#DejaVuSans-48"/>
       <use x="63.623047" xlink:href="#DejaVuSans-46"/>
       <use x="95.410156" xlink:href="#DejaVuSans-53"/>
       <use x="159.033203" xlink:href="#DejaVuSans-48"/>
      </g>
     </g>
    </g>
    <g id="ytick_4">
     <g id="line2d_12">
      <g>
       <use style="stroke:#000000;stroke-width:0.8;" x="36.465625" xlink:href="#m0bdf155096" y="173.22574"/>
      </g>
     </g>
     <g id="text_13">
      <!-- 0.75 -->
      <defs>
       <path d="M 8.203125 72.90625 
L 55.078125 72.90625 
L 55.078125 68.703125 
L 28.609375 0 
L 18.3125 0 
L 43.21875 64.59375 
L 8.203125 64.59375 
z
" id="DejaVuSans-55"/>
      </defs>
      <g transform="translate(7.2 177.024959)scale(0.1 -0.1)">
       <use xlink:href="#DejaVuSans-48"/>
       <use x="63.623047" xlink:href="#DejaVuSans-46"/>
       <use x="95.410156" xlink:href="#DejaVuSans-55"/>
       <use x="159.033203" xlink:href="#DejaVuSans-53"/>
      </g>
     </g>
    </g>
    <g id="ytick_5">
     <g id="line2d_13">
      <g>
       <use style="stroke:#000000;stroke-width:0.8;" x="36.465625" xlink:href="#m0bdf155096" y="142.728987"/>
      </g>
     </g>
     <g id="text_14">
      <!-- 1.00 -->
      <g transform="translate(7.2 146.528206)scale(0.1 -0.1)">
       <use xlink:href="#DejaVuSans-49"/>
       <use x="63.623047" xlink:href="#DejaVuSans-46"/>
       <use x="95.410156" xlink:href="#DejaVuSans-48"/>
       <use x="159.033203" xlink:href="#DejaVuSans-48"/>
      </g>
     </g>
    </g>
    <g id="ytick_6">
     <g id="line2d_14">
      <g>
       <use style="stroke:#000000;stroke-width:0.8;" x="36.465625" xlink:href="#m0bdf155096" y="112.232234"/>
      </g>
     </g>
     <g id="text_15">
      <!-- 1.25 -->
      <g transform="translate(7.2 116.031452)scale(0.1 -0.1)">
       <use xlink:href="#DejaVuSans-49"/>
       <use x="63.623047" xlink:href="#DejaVuSans-46"/>
       <use x="95.410156" xlink:href="#DejaVuSans-50"/>
       <use x="159.033203" xlink:href="#DejaVuSans-53"/>
      </g>
     </g>
    </g>
    <g id="ytick_7">
     <g id="line2d_15">
      <g>
       <use style="stroke:#000000;stroke-width:0.8;" x="36.465625" xlink:href="#m0bdf155096" y="81.73548"/>
      </g>
     </g>
     <g id="text_16">
      <!-- 1.50 -->
      <g transform="translate(7.2 85.534699)scale(0.1 -0.1)">
       <use xlink:href="#DejaVuSans-49"/>
       <use x="63.623047" xlink:href="#DejaVuSans-46"/>
       <use x="95.410156" xlink:href="#DejaVuSans-53"/>
       <use x="159.033203" xlink:href="#DejaVuSans-48"/>
      </g>
     </g>
    </g>
    <g id="ytick_8">
     <g id="line2d_16">
      <g>
       <use style="stroke:#000000;stroke-width:0.8;" x="36.465625" xlink:href="#m0bdf155096" y="51.238727"/>
      </g>
     </g>
     <g id="text_17">
      <!-- 1.75 -->
      <g transform="translate(7.2 55.037946)scale(0.1 -0.1)">
       <use xlink:href="#DejaVuSans-49"/>
       <use x="63.623047" xlink:href="#DejaVuSans-46"/>
       <use x="95.410156" xlink:href="#DejaVuSans-55"/>
       <use x="159.033203" xlink:href="#DejaVuSans-53"/>
      </g>
     </g>
    </g>
    <g id="ytick_9">
     <g id="line2d_17">
      <g>
       <use style="stroke:#000000;stroke-width:0.8;" x="36.465625" xlink:href="#m0bdf155096" y="20.741974"/>
      </g>
     </g>
     <g id="text_18">
      <!-- 2.00 -->
      <g transform="translate(7.2 24.541192)scale(0.1 -0.1)">
       <use xlink:href="#DejaVuSans-50"/>
       <use x="63.623047" xlink:href="#DejaVuSans-46"/>
       <use x="95.410156" xlink:href="#DejaVuSans-48"/>
       <use x="159.033203" xlink:href="#DejaVuSans-48"/>
      </g>
     </g>
    </g>
   </g>
   <g id="line2d_18">
    <path clip-path="url(#pdc8f73daa7)" d="M 52.698341 264.716 
L 52.914795 147.472926 
L 55.391106 147.472926 
L 55.391106 35.915314 
L 55.394447 264.716 
L 55.583397 264.716 
L 55.583397 253.221901 
L 55.610901 253.221901 
L 59.022102 253.221901 
L 59.022102 41.186609 
L 59.023735 264.716 
L 59.160057 264.716 
L 59.160057 256.19505 
L 59.240189 256.19505 
L 63.626976 256.19505 
L 63.626976 46.684788 
L 63.628639 264.716 
L 64.549431 264.716 
L 64.549431 211.88146 
L 64.714386 211.88146 
L 64.714386 26.861008 
L 64.71595 264.716 
L 65.014664 264.716 
L 65.014664 247.021403 
L 68.886787 247.021403 
L 68.886787 44.2479 
L 68.88842 264.716 
L 69.078621 264.716 
L 69.078621 253.151355 
L 69.104874 253.151355 
L 72.679794 253.151355 
L 72.679794 42.109327 
L 72.68145 264.716 
L 72.980331 264.716 
L 72.980331 247.012075 
L 80.179855 247.012075 
L 80.179855 63.001303 
L 80.181572 264.716 
L 80.371803 264.716 
L 80.371803 253.149897 
L 80.398026 253.149897 
L 85.082268 253.149897 
L 85.082268 48.361188 
L 85.083946 264.716 
L 85.301353 264.716 
L 85.301353 251.614203 
L 89.06501 251.614203 
L 89.06501 43.178366 
L 89.066643 264.716 
L 89.203171 264.716 
L 89.203171 256.18339 
L 89.283096 256.18339 
L 96.21312 256.18339 
L 96.21312 61.017892 
L 96.214844 264.716 
L 96.432259 264.716 
L 96.432259 251.614203 
L 100.277122 251.614203 
L 100.277122 43.636061 
L 100.278915 264.716 
L 100.523247 264.716 
L 100.523247 250.093375 
L 103.042213 250.093375 
L 103.042213 36.315335 
L 103.043808 264.716 
L 103.234299 264.716 
L 103.234299 253.13503 
L 103.260262 253.13503 
L 107.457626 253.13503 
L 107.457626 45.617261 
L 107.459351 264.716 
L 107.595871 264.716 
L 107.595871 256.18339 
L 107.675804 256.18339 
L 112.928596 256.18339 
L 112.928596 51.565427 
L 112.930244 264.716 
L 113.390976 264.716 
L 113.390976 237.86962 
L 115.504349 237.86962 
L 115.504349 35.249058 
L 115.505974 264.716 
L 115.642311 264.716 
L 115.642311 256.193884 
L 115.72242 256.193884 
L 118.161118 256.193884 
L 118.161118 35.705764 
L 118.16272 264.716 
L 118.380402 264.716 
L 118.380402 251.599044 
L 123.875305 251.599044 
L 123.875305 52.936824 
L 123.876984 264.716 
L 124.121475 264.716 
L 124.121475 250.084339 
L 125.071175 250.084339 
L 125.071175 35.149967 
L 125.175682 35.149967 
L 126.433533 35.149967 
L 126.433533 264.716 
L 126.751602 264.716 
L 126.751602 245.927935 
L 126.916626 245.927935 
L 126.916626 29.501757 
L 127.988136 29.501757 
L 127.988136 264.716 
L 128.29908 264.716 
L 128.29908 246.330516 
L 128.464005 246.330516 
L 128.464005 34.347592 
L 130.402611 34.347592 
L 130.402611 264.716 
L 130.712318 264.716 
L 130.712318 246.400479 
L 130.877571 246.400479 
L 130.877571 35.170408 
L 132.963135 35.170408 
L 132.963135 264.716 
L 133.288284 264.716 
L 133.288284 245.528561 
L 133.396042 245.528561 
L 133.453255 245.528561 
L 133.453255 24.70293 
L 133.666107 24.70293 
L 133.666107 264.716 
L 133.99707 264.716 
L 133.99707 245.199734 
L 134.099014 245.199734 
L 134.18911 245.199734 
L 134.18911 23.689489 
L 134.190651 264.716 
L 134.51638 264.716 
L 134.51638 245.495329 
L 134.62355 245.495329 
L 134.68158 245.495329 
L 134.68158 24.290542 
L 134.820526 24.290542 
L 134.820526 264.716 
L 136.794495 264.716 
L 136.794495 152.389039 
L 136.959816 152.389039 
L 136.959816 32.798559 
L 136.961395 264.716 
L 137.287125 264.716 
L 137.287125 245.49562 
L 137.394302 245.49562 
L 137.912178 245.49562 
L 137.912178 26.100346 
L 137.913788 264.716 
L 138.212196 264.716 
L 138.212196 247.038603 
L 140.298279 247.038603 
L 140.298279 34.180455 
L 140.299889 264.716 
L 140.625763 264.716 
L 140.625763 245.487166 
L 140.732788 245.487166 
L 140.790825 245.487166 
L 140.790825 24.200567 
L 140.91394 24.200567 
L 140.91394 264.716 
L 141.199318 264.716 
L 141.199318 247.774967 
L 141.364449 247.774967 
L 141.364449 51.703109 
L 146.407776 51.703109 
L 146.407776 264.716 
L 146.724167 264.716 
L 146.780983 36.756822 
L 149.249573 36.756822 
L 149.249573 264.716 
L 149.543304 264.716 
L 149.600403 52.127685 
L 154.818619 52.127685 
L 154.818619 264.716 
L 155.122498 264.716 
L 155.179001 45.27433 
L 155.235817 45.27433 
L 155.235817 23.09318 
L 155.238022 264.716 
L 174.529709 264.716 
L 174.529709 129.465649 
L 174.531601 264.716 
L 174.721733 264.716 
L 174.721733 253.155145 
L 174.748047 253.155145 
L 179.733086 253.155145 
L 179.733086 50.056405 
L 179.735023 264.716 
L 179.921959 264.716 
L 179.921959 253.335592 
L 179.951469 253.335592 
L 182.089264 253.335592 
L 182.089264 34.009965 
L 182.090874 264.716 
L 182.416588 264.716 
L 182.416588 245.496495 
L 182.523773 245.496495 
L 186.856506 245.496495 
L 186.856506 47.600002 
L 186.858192 264.716 
L 187.048553 264.716 
L 187.048553 253.142026 
L 187.074646 253.142026 
L 190.324959 253.142026 
L 190.324959 40.279916 
L 190.326584 264.716 
L 190.625481 264.716 
L 190.625481 247.010909 
L 194.037033 247.010909 
L 194.037033 41.653261 
L 194.038643 264.716 
L 194.364311 264.716 
L 194.364311 245.498536 
L 194.471542 245.498536 
L 197.153793 245.498536 
L 197.153793 38.29828 
L 197.155472 264.716 
L 197.454254 264.716 
L 197.454254 247.017614 
L 201.86734 247.017614 
L 201.86734 47.297006 
L 201.869003 264.716 
L 202.032158 264.716 
L 202.032158 254.678887 
L 202.085457 254.678887 
L 202.927597 254.678887 
L 202.927597 93.456301 
L 202.951256 93.456301 
L 203.092934 93.456301 
L 203.092934 27.63979 
L 203.094467 264.716 
L 203.825813 264.716 
L 203.825813 222.58293 
L 203.964073 222.58293 
L 203.964073 25.642855 
L 203.965622 264.716 
L 210.703758 264.716 
L 210.703758 58.716623 
L 210.705757 264.716 
L 210.923004 264.716 
L 210.923004 251.62324 
L 214.118225 251.62324 
L 214.118225 39.973924 
L 214.119881 264.716 
L 214.28315 264.716 
L 214.28315 254.672765 
L 214.336334 254.672765 
L 217.857292 254.672765 
L 217.857292 41.805196 
L 217.858955 264.716 
L 218.022362 264.716 
L 218.022362 254.665186 
L 218.075409 254.665186 
L 222.516426 254.665186 
L 222.516426 46.990431 
L 222.518211 264.716 
L 222.708496 264.716 
L 222.708496 253.146399 
L 222.734657 253.146399 
L 225.822693 253.146399 
L 225.822693 39.365312 
L 225.824326 264.716 
L 226.149994 264.716 
L 226.149994 245.498827 
L 226.257225 245.498827 
L 226.639885 245.498827 
L 226.639885 25.338288 
L 226.641464 264.716 
L 226.939781 264.716 
L 226.939781 247.04385 
L 230.865891 247.04385 
L 230.865891 44.549908 
L 230.867577 264.716 
L 231.057724 264.716 
L 231.057724 253.15427 
L 231.08403 253.15427 
L 235.254395 253.15427 
L 235.254395 45.465094 
L 235.25602 264.716 
L 235.446312 264.716 
L 235.446312 253.146108 
L 235.472473 253.146108 
L 239.507568 253.146108 
L 239.507568 44.702774 
L 239.509209 264.716 
L 240.240898 264.716 
L 240.240898 222.56369 
L 240.432991 222.56369 
L 240.432991 25.948179 
L 240.434555 264.716 
L 240.760307 264.716 
L 240.760307 245.493871 
L 240.867455 245.493871 
L 240.925354 245.493871 
L 240.925354 24.282055 
L 241.063095 24.282055 
L 241.063095 264.716 
L 243.282089 264.716 
L 243.282089 138.548257 
L 243.446915 138.548257 
L 243.446915 34.176645 
L 243.448479 264.716 
L 246.47979 264.716 
L 246.47979 92.661367 
L 246.644936 92.661367 
L 246.644936 38.756469 
L 246.6465 264.716 
L 249.35331 264.716 
L 249.35331 110.992044 
L 249.460365 110.992044 
L 249.518402 110.992044 
L 249.518402 36.927349 
L 249.519958 264.716 
L 254.039223 264.716 
L 254.039223 46.211563 
L 254.040932 264.716 
L 254.204254 264.716 
L 254.204254 254.669267 
L 254.257378 254.669267 
L 256.452904 254.669267 
L 256.452904 34.335327 
L 256.454544 264.716 
L 257.402473 264.716 
L 257.402473 210.348389 
L 257.567551 210.348389 
L 257.567551 27.01463 
L 257.569153 264.716 
L 257.867859 264.716 
L 257.867859 247.021695 
L 261.766693 247.021695 
L 261.766693 44.39841 
L 261.768372 264.716 
L 261.985886 264.716 
L 261.985886 251.608081 
L 263.746994 251.608081 
L 263.746994 31.893059 
L 263.748566 264.716 
L 264.047585 264.716 
L 264.047585 247.004496 
L 264.780487 247.004496 
L 264.782127 26.557663 
L 264.782127 264.716 
L 265.080978 264.716 
L 265.080978 247.013824 
L 266.81514 247.013824 
L 266.81514 32.199604 
L 266.816765 264.716 
L 267.115738 264.716 
L 267.115738 247.006536 
L 269.093216 247.006536 
L 269.093216 33.571553 
L 269.094818 264.716 
L 269.393501 264.716 
L 269.393501 247.023444 
L 270.289375 247.023444 
L 270.289375 27.474244 
L 270.29097 264.716 
L 270.589439 264.716 
L 270.589439 247.035396 
L 271.620247 247.035396 
L 271.620247 28.233481 
L 271.621826 264.716 
L 271.947861 264.716 
L 271.947861 245.47813 
L 272.054726 245.47813 
L 273.331749 245.47813 
L 273.335991 30.378744 
L 273.335991 264.716 
L 273.630653 264.716 
L 273.630653 247.250242 
L 275.689697 247.250242 
L 275.689697 34.006969 
L 275.692093 264.716 
L 275.989952 264.716 
L 275.989952 247.069795 
L 279.320465 247.069795 
L 279.320465 41.190651 
L 279.322319 264.716 
L 279.647842 264.716 
L 279.647842 245.507281 
L 279.755226 245.507281 
L 282.058632 245.507281 
L 282.060234 36.163196 
L 282.060234 264.716 
L 282.412857 264.716 
L 282.412857 243.976251 
L 282.493134 243.976251 
L 285.256752 243.976251 
L 285.256752 38.756847 
L 285.258644 264.716 
L 285.584137 264.716 
L 285.584137 245.50903 
L 285.691551 245.50903 
L 287.453697 245.50903 
L 287.453697 33.112782 
L 287.455475 264.716 
L 287.780975 264.716 
L 287.780975 245.508155 
L 287.888374 245.508155 
L 292.383347 245.508155 
L 292.383347 48.514373 
L 292.385056 264.716 
L 292.575325 264.716 
L 292.575325 253.147274 
L 292.601501 253.147274 
L 296.365952 253.147274 
L 296.365952 43.177436 
L 296.368225 264.716 
L 296.557922 264.716 
L 296.557922 253.17934 
L 296.584671 253.17934 
L 301.782593 253.17934 
L 301.782593 51.256148 
L 301.784294 264.716 
L 301.947693 264.716 
L 301.947693 254.665186 
L 302.000748 254.665186 
L 302.491409 254.665186 
L 302.491409 113.15969 
L 302.656448 113.15969 
L 302.656448 25.657252 
L 302.658012 264.716 
L 303.119156 264.716 
L 303.119156 237.846299 
L 303.284264 237.846299 
L 303.285797 24.271401 
L 303.285797 264.716 
L 306.154572 264.716 
L 306.154572 101.842884 
L 306.292763 101.842884 
L 306.292763 37.688563 
L 306.294319 264.716 
L 307.864632 264.716 
L 307.864632 175.190954 
L 308.02977 175.190954 
L 308.02977 30.522593 
L 308.031326 264.716 
L 309.222984 264.716 
L 309.222984 196.580485 
L 309.330032 196.580485 
L 309.388046 196.580485 
L 309.388046 28.388179 
L 309.389626 264.716 
L 311.636154 264.716 
L 311.636154 136.992448 
L 311.80143 136.992448 
L 311.802963 34.334367 
L 311.802963 264.716 
L 314.672058 264.716 
L 314.672058 101.824811 
L 314.864098 101.824811 
L 314.864098 37.993829 
L 314.865631 264.716 
L 315.164307 264.716 
L 315.164307 247.023736 
L 315.73513 247.023736 
L 315.73513 25.642274 
L 315.736687 264.716 
L 316.035568 264.716 
L 316.035568 247.012075 
L 320.665169 247.012075 
L 320.665169 48.517805 
L 320.667282 264.716 
L 320.857086 264.716 
L 320.857086 253.17351 
L 320.883728 253.17351 
L 325.567322 253.17351 
L 325.567322 48.357523 
L 325.569038 264.716 
L 325.759476 264.716 
L 325.759476 253.138237 
L 325.785492 253.138237 
L 330.145554 253.138237 
L 330.145554 46.534162 
L 330.147194 264.716 
L 330.391617 264.716 
L 330.391617 250.08842 
L 330.962448 250.08842 
L 330.962448 56.600811 
L 331.013 56.600811 
L 336.510208 56.600811 
L 336.510208 264.716 
L 336.809433 264.716 
L 336.809433 246.992544 
L 337.812935 246.992544 
L 337.812935 28.083844 
L 337.814545 264.716 
L 338.140213 264.716 
L 338.140213 245.499119 
L 338.247452 245.499119 
L 338.278259 245.499119 
L 338.278259 25.86976 
L 338.724594 25.86976 
L 338.724594 264.716 
L 339.011452 264.716 
L 339.011452 247.691302 
L 339.14959 247.691302 
L 339.14959 52.221522 
L 339.157494 52.221522 
L 344.310555 52.221522 
L 344.310555 264.716 
L 344.590805 264.716 
L 344.647453 61.311407 
L 351.509407 61.311407 
L 351.509407 264.716 
L 351.792946 264.716 
L 351.849625 59.077023 
L 358.311569 59.077023 
L 358.311569 264.716 
L 358.589439 264.716 
L 358.676033 22.796 
L 358.677589 264.716 
L 377.292358 264.716 
L 377.292358 264.716 
" style="fill:none;stroke:#ff0000;stroke-linecap:square;stroke-width:1.5;"/>
   </g>
   <g id="line2d_19">
    <path clip-path="url(#pdc8f73daa7)" d="M 52.698341 264.716 
L 52.914795 34.296086 
L 55.103874 34.296086 
L 55.103874 264.716 
L 55.418365 264.716 
L 55.420937 41.111317 
L 58.718178 41.111317 
L 58.718178 264.716 
L 59.022171 264.716 
L 59.051773 46.7163 
L 63.327202 46.7163 
L 63.327202 264.716 
L 63.653954 264.716 
L 63.653954 245.437609 
L 63.760109 245.437609 
L 64.414185 245.437609 
L 64.414185 26.867959 
L 64.415756 264.716 
L 64.714417 264.716 
L 64.714417 247.02461 
L 64.852661 247.02461 
L 64.852661 44.200228 
L 68.578499 44.200228 
L 68.578499 264.716 
L 68.886711 264.716 
L 68.943329 42.326996 
L 72.408554 42.326996 
L 72.408554 264.716 
L 72.679764 264.716 
L 72.679764 248.575172 
L 72.817833 248.575172 
L 72.817833 62.852816 
L 72.841461 62.852816 
L 79.880623 62.852816 
L 79.880623 264.716 
L 80.179749 264.716 
L 80.236603 48.478744 
L 84.802292 48.478744 
L 84.802292 264.716 
L 85.109222 264.716 
L 85.166275 43.167933 
L 88.781731 43.167933 
L 88.781731 264.716 
L 89.064796 264.716 
L 89.094795 60.909815 
L 95.909348 60.909815 
L 95.909348 264.716 
L 96.213249 264.716 
L 96.296944 43.720528 
L 99.986748 43.720528 
L 99.986748 264.716 
L 100.303902 264.716 
L 100.36058 36.24947 
L 102.738541 36.24947 
L 102.738541 264.716 
L 103.042023 264.716 
L 103.098869 45.524386 
L 107.13607 45.524386 
L 107.13607 264.716 
L 107.430443 264.716 
L 107.487381 51.702112 
L 112.629608 51.702112 
L 112.629608 264.716 
L 112.928139 264.716 
L 112.928139 247.031898 
L 113.228371 247.031898 
L 113.228371 35.137234 
L 113.278961 35.137234 
L 115.184082 35.137234 
L 115.184082 264.716 
L 115.504051 264.716 
L 115.533524 35.869138 
L 117.868233 35.869138 
L 117.868233 264.716 
L 118.160873 264.716 
L 118.217751 52.886477 
L 123.572021 52.886477 
L 123.572021 264.716 
L 123.902084 264.716 
L 123.958862 27.474326 
L 124.004921 27.474326 
L 124.766853 27.474326 
L 124.766853 264.716 
L 126.450539 264.716 
L 126.450539 168.786688 
L 126.498459 168.786688 
L 126.615952 168.786688 
L 126.615952 31.16308 
L 126.617508 264.716 
L 127.998283 264.716 
L 127.998283 185.89738 
L 128.16346 185.89738 
L 128.16346 29.45463 
L 128.165024 264.716 
L 130.411804 264.716 
L 130.411804 136.978455 
L 130.576813 136.978455 
L 130.576813 34.33428 
L 130.578407 264.716 
L 132.987488 264.716 
L 132.987488 127.810056 
L 133.152672 127.810056 
L 133.152672 35.24996 
L 133.154228 264.716 
L 133.669205 264.716 
L 133.669205 234.804936 
L 133.861351 234.804936 
L 133.8629 24.727176 
L 133.8629 264.716 
L 134.188667 264.716 
L 134.188667 245.492997 
L 134.295799 245.492997 
L 134.380608 245.492997 
L 134.380608 23.659678 
L 134.382797 264.716 
L 134.843353 264.716 
L 134.843353 237.87924 
L 136.659103 237.87924 
L 136.659103 33.570709 
L 136.660721 264.716 
L 136.986145 264.716 
L 136.986145 245.512528 
L 137.09362 245.512528 
L 137.124077 245.512528 
L 137.124077 26.037691 
L 137.60054 26.037691 
L 137.60054 264.716 
L 137.911636 264.716 
L 137.911636 246.322353 
L 138.076683 246.322353 
L 138.076683 34.242458 
L 139.996284 34.242458 
L 139.996284 264.716 
L 140.327713 264.716 
L 140.327713 245.173789 
L 140.429192 245.173789 
L 140.492859 245.173789 
L 140.492859 23.54055 
L 140.494438 264.716 
L 140.928169 264.716 
L 140.928169 239.394529 
L 141.066345 239.394529 
L 141.066345 23.965088 
L 141.067886 264.716 
L 146.426041 264.716 
L 146.426041 50.939337 
L 146.428551 264.716 
L 146.564156 264.716 
L 146.564156 256.235279 
L 146.645004 256.235279 
L 149.272446 256.235279 
L 149.272446 36.769539 
L 149.274071 264.716 
L 154.848648 264.716 
L 154.848648 52.15906 
L 154.850403 264.716 
L 155.013817 264.716 
L 155.013817 254.664311 
L 155.066849 254.664311 
L 155.259979 254.664311 
L 155.259979 129.957276 
L 155.283302 129.957276 
L 174.229637 129.957276 
L 174.229637 264.716 
L 174.526451 264.716 
L 174.583275 50.054202 
L 179.431061 50.054202 
L 179.431061 264.716 
L 179.753677 264.716 
L 179.783447 34.057711 
L 179.86396 34.057711 
L 181.794174 34.057711 
L 181.794174 264.716 
L 182.085739 264.716 
L 182.085739 247.425442 
L 182.250931 247.425442 
L 182.250931 47.49721 
L 186.541855 47.49721 
L 186.541855 264.716 
L 186.852966 264.716 
L 186.90963 40.351394 
L 190.0215 40.351394 
L 190.0215 264.716 
L 190.32148 264.716 
L 190.32148 246.950274 
L 190.486626 246.950274 
L 190.486626 41.786812 
L 193.755669 41.786812 
L 193.755669 264.716 
L 194.060913 264.716 
L 194.060913 246.652639 
L 194.225708 246.652639 
L 194.225708 38.227818 
L 196.858444 38.227818 
L 196.858444 264.716 
L 197.15033 264.716 
L 197.15033 247.407368 
L 197.315353 247.407368 
L 197.315353 47.289233 
L 201.569168 47.289233 
L 201.569168 264.716 
L 201.863792 264.716 
L 201.863792 247.252865 
L 202.624039 247.252865 
L 202.624039 26.68697 
L 202.625595 264.716 
L 202.951164 264.716 
L 202.951164 245.504657 
L 203.058502 245.504657 
L 203.089355 245.504657 
L 203.089355 25.928483 
L 203.546013 25.928483 
L 203.546013 264.716 
L 203.822426 264.716 
L 203.822426 248.281034 
L 203.960449 248.281034 
L 203.960449 59.318974 
L 203.978912 59.318974 
L 210.391113 59.318974 
L 210.391113 264.716 
L 210.700287 264.716 
L 210.783859 40.148708 
L 213.834892 40.148708 
L 213.834892 264.716 
L 214.141762 264.716 
L 214.225647 41.694412 
L 217.552666 41.694412 
L 217.552666 264.716 
L 217.853889 264.716 
L 217.910423 47.073819 
L 222.225021 47.073819 
L 222.225021 264.716 
L 222.539902 264.716 
L 222.569489 39.321791 
L 225.521935 39.321791 
L 225.521935 264.716 
L 225.846115 264.716 
L 225.846115 245.583075 
L 225.954842 245.583075 
L 226.011185 245.583075 
L 226.011185 25.352811 
L 226.34034 25.352811 
L 226.34034 264.716 
L 226.636108 264.716 
L 226.636108 247.187858 
L 226.801071 247.187858 
L 226.801071 44.653817 
L 230.58342 44.653817 
L 230.58342 264.716 
L 230.889229 264.716 
L 230.91909 45.464779 
L 234.970589 45.464779 
L 234.970589 264.716 
L 235.277596 264.716 
L 235.307465 44.651054 
L 239.213127 44.651054 
L 239.213127 264.716 
L 239.531006 264.716 
L 239.531006 245.939013 
L 240.10157 245.939013 
L 240.10157 25.749041 
L 240.103165 264.716 
L 240.456245 264.716 
L 240.456245 243.950597 
L 240.536064 243.950597 
L 240.621208 243.950597 
L 240.622742 23.661539 
L 240.622742 264.716 
L 241.084 264.716 
L 241.084 237.839886 
L 243.142815 237.839886 
L 243.142815 34.944549 
L 243.144394 264.716 
L 243.470383 264.716 
L 243.470383 245.481045 
L 243.577301 245.481045 
L 246.341011 245.481045 
L 246.341011 38.75737 
L 246.34259 264.716 
L 246.695412 264.716 
L 246.695412 243.965465 
L 246.775497 243.965465 
L 249.214325 243.965465 
L 249.214325 36.926418 
L 249.215927 264.716 
L 249.514626 264.716 
L 249.514626 247.022278 
L 253.90023 247.022278 
L 253.90023 47.141668 
L 253.901871 264.716 
L 254.173538 264.716 
L 254.173538 248.549519 
L 256.313652 248.549519 
L 256.313652 34.334251 
L 256.315239 264.716 
L 256.478859 264.716 
L 256.478859 254.652651 
L 256.531693 254.652651 
L 257.42849 254.652651 
L 257.42849 90.079672 
L 257.566483 90.079672 
L 257.568039 27.793702 
L 257.568039 264.716 
L 261.627304 264.716 
L 261.627304 43.619105 
L 261.628922 264.716 
L 263.605408 264.716 
L 263.605408 152.247072 
L 263.743408 152.247072 
L 263.743408 32.658752 
L 263.744949 264.716 
L 264.638626 264.716 
L 264.638626 213.413073 
L 264.776649 213.413073 
L 264.776649 26.556412 
L 264.778206 264.716 
L 266.673538 264.716 
L 266.673538 156.831126 
L 266.726257 156.831126 
L 266.811447 156.831126 
L 266.811447 32.200883 
L 266.812996 264.716 
L 268.951515 264.716 
L 268.951515 143.093831 
L 268.977501 143.093831 
L 269.116463 143.093831 
L 269.118027 33.723807 
L 269.118027 264.716 
L 270.147392 264.716 
L 270.147392 205.748302 
L 270.200279 205.748302 
L 270.285362 205.748302 
L 270.285362 27.320826 
L 270.28688 264.716 
L 271.478485 264.716 
L 271.478485 196.583692 
L 271.585587 196.583692 
L 271.64341 196.583692 
L 271.64341 28.387073 
L 271.644951 264.716 
L 273.21611 264.716 
L 273.21611 175.143438 
L 273.353706 175.143438 
L 273.353706 30.372142 
L 273.355652 264.716 
L 275.547829 264.716 
L 275.547829 140.062671 
L 275.685837 140.062671 
L 275.685837 33.874375 
L 275.687477 264.716 
L 279.178688 264.716 
L 279.178688 66.682535 
L 279.343704 66.682535 
L 279.343704 41.347676 
L 279.345268 264.716 
L 281.916809 264.716 
L 281.916809 118.632911 
L 281.942673 118.632911 
L 282.081886 118.632911 
L 282.081886 36.16497 
L 282.08345 264.716 
L 285.114777 264.716 
L 285.114777 92.660784 
L 285.279724 92.660784 
L 285.279724 38.755451 
L 285.281273 264.716 
L 287.311577 264.716 
L 287.311577 149.206583 
L 287.476707 149.206583 
L 287.478355 33.114964 
L 287.478355 264.716 
L 292.241142 264.716 
L 292.241142 47.584006 
L 292.242813 264.716 
L 296.221313 264.716 
L 296.221313 43.163941 
L 296.224037 264.716 
L 301.635124 264.716 
L 301.635124 51.237622 
L 301.637001 264.716 
L 302.151764 264.716 
L 302.151764 234.81718 
L 302.343979 234.81718 
L 302.343979 24.726332 
L 302.345535 264.716 
L 302.671333 264.716 
L 302.671333 245.491539 
L 302.778435 245.491539 
L 302.971657 245.491539 
L 302.971657 24.270674 
L 302.973206 264.716 
L 303.298889 264.716 
L 303.298889 245.497952 
L 303.406105 245.497952 
L 306.007347 245.497952 
L 306.007347 37.84172 
L 306.008957 264.716 
L 306.307602 264.716 
L 306.307602 247.025485 
L 307.717117 247.025485 
L 307.717117 30.368797 
L 307.718704 264.716 
L 308.044388 264.716 
L 308.044388 245.497952 
L 308.151604 245.497952 
L 309.102547 245.497952 
L 309.102547 28.540986 
L 309.104179 264.716 
L 309.402718 264.716 
L 309.402718 247.031315 
L 311.488853 247.031315 
L 311.488853 34.181444 
L 311.490425 264.716 
L 311.816353 264.716 
L 311.816353 245.484251 
L 311.923325 245.484251 
L 314.551453 245.484251 
L 314.553032 37.993247 
L 314.553032 264.716 
L 314.878716 264.716 
L 314.878716 245.498244 
L 314.985931 245.498244 
L 315.016808 245.498244 
L 315.016808 25.856913 
L 315.460808 25.856913 
L 315.460808 264.716 
L 315.753487 264.716 
L 315.753487 247.362475 
L 315.888313 247.362475 
L 315.888313 48.455414 
L 315.893707 48.455414 
L 320.378311 48.455414 
L 320.378311 264.716 
L 320.679886 264.716 
L 320.709282 48.368264 
L 325.280388 48.368264 
L 325.280388 264.716 
L 325.582397 264.716 
L 325.63916 46.527953 
L 329.856064 46.527953 
L 329.856064 264.716 
L 330.187111 264.716 
L 330.270958 25.275896 
L 330.288963 25.275896 
L 330.66095 25.275896 
L 330.66095 264.716 
L 336.523582 264.716 
L 336.523582 53.782469 
L 336.525452 264.716 
L 336.68885 264.716 
L 336.68885 254.665186 
L 336.741898 254.665186 
L 337.827637 254.665186 
L 337.827637 79.544946 
L 337.992966 79.544946 
L 337.992966 29.012553 
L 337.994514 264.716 
L 338.726013 264.716 
L 338.726013 222.573893 
L 338.864075 222.573893 
L 338.864075 25.642652 
L 338.865631 264.716 
L 344.304962 264.716 
L 344.304962 51.396827 
L 344.306656 264.716 
L 344.497139 264.716 
L 344.497139 253.135613 
L 344.523109 253.135613 
L 351.507263 253.135613 
L 351.507263 61.322983 
L 351.508972 264.716 
L 351.699287 264.716 
L 351.699287 253.14465 
L 351.725426 253.14465 
L 358.303558 253.14465 
L 358.303558 59.034772 
L 358.305214 264.716 
L 358.685135 264.716 
L 358.685135 242.434434 
L 358.738113 242.434434 
L 377.35289 242.434434 
L 377.35289 242.434434 
" style="fill:none;stroke:#0000ff;stroke-linecap:square;stroke-width:1.5;"/>
   </g>
   <g id="line2d_20">
    <path clip-path="url(#pdc8f73daa7)" d="M 52.698341 264.716 
L 52.914795 81.73548 
L 54.981026 81.73548 
L 54.981026 33.604098 
L 54.984528 264.716 
L 55.119003 264.716 
L 55.119003 256.299121 
L 55.200981 256.299121 
L 58.585037 256.299121 
L 58.585037 41.033627 
L 58.586868 264.716 
L 58.777145 264.716 
L 58.777145 253.146982 
L 58.803322 253.146982 
L 63.216873 253.146982 
L 63.216873 46.835647 
L 63.218697 264.716 
L 63.382095 264.716 
L 63.382095 254.665477 
L 63.43515 254.665477 
L 64.277328 254.665477 
L 64.300949 93.306443 
L 64.442673 93.306443 
L 64.442673 27.640023 
L 64.444366 264.716 
L 68.449402 264.716 
L 68.449402 43.313461 
L 68.451195 264.716 
L 72.267052 264.716 
L 72.267052 48.343987 
L 72.347313 48.343987 
L 72.405212 48.343987 
L 72.405212 43.025937 
L 72.406914 264.716 
L 79.767265 264.716 
L 79.767265 62.223306 
L 79.76918 264.716 
L 79.904984 264.716 
L 79.904984 256.224201 
L 79.985634 256.224201 
L 84.669861 256.224201 
L 84.669861 48.361101 
L 84.671669 264.716 
L 88.649597 264.716 
L 88.649597 43.160712 
L 88.651398 264.716 
L 88.841827 264.716 
L 88.841827 253.138528 
L 88.867851 253.138528 
L 95.798096 253.138528 
L 95.798096 61.019172 
L 95.799904 264.716 
L 95.935722 264.716 
L 95.935722 256.223035 
L 96.01635 256.223035 
L 99.861862 256.223035 
L 99.863861 43.634258 
L 99.863861 264.716 
L 100.026634 264.716 
L 100.026634 254.700751 
L 100.080315 254.700751 
L 102.627007 254.700751 
L 102.628761 36.314462 
L 102.628761 264.716 
L 107.012589 264.716 
L 107.012589 45.448254 
L 107.014496 264.716 
L 107.204918 264.716 
L 107.204918 253.13882 
L 107.230949 253.13882 
L 112.510529 253.13882 
L 112.510529 51.716402 
L 112.512283 264.716 
L 112.648651 264.716 
L 112.648651 256.192135 
L 112.728737 256.192135 
L 115.059502 256.192135 
L 115.059502 35.097502 
L 115.061272 264.716 
L 115.251358 264.716 
L 115.251358 253.157477 
L 115.277718 253.157477 
L 117.743042 253.157477 
L 117.743042 35.855837 
L 117.744766 264.716 
L 117.88121 264.716 
L 117.88121 256.188054 
L 117.96122 256.188054 
L 123.457436 256.188054 
L 123.457436 52.937318 
L 123.459206 264.716 
L 123.622673 264.716 
L 123.622673 254.661688 
L 123.675659 254.661688 
L 124.626198 254.661688 
L 124.626198 87.143755 
L 126.170998 87.143755 
L 126.170998 36.024989 
L 126.172745 264.716 
L 126.498535 264.716 
L 126.498535 245.491831 
L 126.605644 245.491831 
L 127.718697 245.491831 
L 127.720413 29.45463 
L 127.720413 264.716 
L 128.046005 264.716 
L 128.046005 245.5032 
L 128.153313 245.5032 
L 130.132057 245.5032 
L 130.132057 34.333466 
L 130.133781 264.716 
L 130.459755 264.716 
L 130.459755 245.481628 
L 130.566681 245.481628 
L 132.707993 245.481628 
L 132.707993 35.249669 
L 132.710022 264.716 
L 133.035469 264.716 
L 133.035469 245.511362 
L 133.142921 245.511362 
L 133.416779 245.511362 
L 133.416779 24.725111 
L 133.418533 264.716 
L 133.744186 264.716 
L 133.744186 245.499702 
L 133.851433 245.499702 
L 133.936287 245.499702 
L 133.936287 23.659939 
L 133.937996 264.716 
L 134.236618 264.716 
L 134.236618 247.026651 
L 134.563911 247.026651 
L 134.563911 33.545447 
L 134.587349 33.545447 
L 136.21022 33.545447 
L 136.21022 264.716 
L 136.541916 264.716 
L 136.541916 245.158339 
L 136.64312 245.158339 
L 136.706696 245.158339 
L 136.706696 23.539997 
L 136.708382 264.716 
L 137.467056 264.716 
L 137.467056 221.039073 
L 137.574181 221.039073 
L 137.659401 221.039073 
L 137.659401 26.101742 
L 137.661079 264.716 
L 139.853455 264.716 
L 139.853455 140.051302 
L 140.045334 140.051302 
L 140.045334 34.179117 
L 140.047401 264.716 
L 140.373009 264.716 
L 140.373009 245.502325 
L 140.480301 245.502325 
L 140.646225 245.502325 
L 140.646225 24.116819 
L 140.647919 264.716 
L 140.946526 264.716 
L 140.946526 247.027234 
L 146.14399 247.027234 
L 146.14399 51.716606 
L 146.14576 264.716 
L 146.363205 264.716 
L 146.363205 251.611871 
L 148.990326 251.611871 
L 148.990326 36.773349 
L 148.992149 264.716 
L 149.182533 264.716 
L 149.182533 253.14086 
L 149.208603 253.14086 
L 154.569336 253.14086 
L 154.569336 52.173748 
L 154.571083 264.716 
L 154.707298 264.716 
L 154.707298 256.20088 
L 154.787537 256.20088 
L 154.980652 256.20088 
L 155.003983 146.895731 
L 174.112167 146.895731 
L 174.112167 130.871161 
L 174.114044 264.716 
L 174.277084 264.716 
L 174.277084 254.685592 
L 174.330498 254.685592 
L 179.312042 254.685592 
L 179.312042 50.036745 
L 179.313774 264.716 
L 181.668777 264.716 
L 181.668777 130.86512 
L 181.694733 130.86512 
L 181.833694 130.86512 
L 181.833694 34.943705 
L 181.835449 264.716 
L 186.435867 264.716 
L 186.435867 46.668879 
L 186.437714 264.716 
L 189.901909 264.716 
L 189.901909 68.208609 
L 190.040039 68.208609 
L 190.040039 41.043865 
L 190.041718 264.716 
L 193.61425 264.716 
L 193.61425 62.088569 
L 193.721382 62.088569 
L 193.779266 62.088569 
L 193.779266 41.805981 
L 193.78096 264.716 
L 196.73111 264.716 
L 196.73111 97.246295 
L 196.811272 97.246295 
L 196.869095 97.246295 
L 196.869095 38.145996 
L 196.870789 264.716 
L 201.443954 264.716 
L 201.443954 46.515316 
L 201.445732 264.716 
L 202.340218 264.716 
L 202.340218 213.367597 
L 202.504501 213.367597 
L 202.504501 26.708957 
L 202.506241 264.716 
L 202.83223 264.716 
L 202.83223 245.481045 
L 202.939148 245.481045 
L 203.403023 245.481045 
L 203.403023 25.796041 
L 203.404709 264.716 
L 203.703354 264.716 
L 203.703354 247.025485 
L 210.280823 247.025485 
L 210.280823 59.494241 
L 210.282738 264.716 
L 210.418831 264.716 
L 210.418831 256.207877 
L 210.499191 256.207877 
L 213.695335 256.207877 
L 213.695335 39.974622 
L 213.697067 264.716 
L 213.941475 264.716 
L 213.941475 250.089003 
L 217.434303 250.089003 
L 217.434303 41.804207 
L 217.436119 264.716 
L 217.626793 264.716 
L 217.626793 253.124536 
L 217.652573 253.124536 
L 222.093437 253.124536 
L 222.093437 46.989588 
L 222.095184 264.716 
L 225.396729 264.716 
L 225.396729 77.39654 
L 225.561905 77.39654 
L 225.561905 40.279654 
L 225.563591 264.716 
L 226.214149 264.716 
L 226.214149 227.146578 
L 226.352028 227.146578 
L 226.352028 25.185423 
L 226.353699 264.716 
L 230.440056 264.716 
L 230.440056 43.771796 
L 230.441803 264.716 
L 234.826202 264.716 
L 234.826202 45.451482 
L 234.828026 264.716 
L 239.076485 264.716 
L 239.078331 44.685352 
L 239.078331 264.716 
L 239.241524 264.716 
L 239.241524 254.676846 
L 239.294777 254.676846 
L 240.001854 254.676846 
L 240.001854 101.063597 
L 240.193771 101.063597 
L 240.193771 27.028358 
L 240.195465 264.716 
L 240.494308 264.716 
L 240.494308 247.014116 
L 240.794563 247.014116 
L 240.794563 34.921976 
L 240.844818 34.921976 
L 242.71154 34.921976 
L 242.71154 264.716 
L 243.015984 264.716 
L 243.015984 246.698115 
L 243.18103 246.698115 
L 243.18103 38.760593 
L 245.909065 38.760593 
L 245.909065 264.716 
L 246.213837 264.716 
L 246.213837 246.679166 
L 246.406174 246.679166 
L 246.406174 36.991249 
L 248.792686 36.991249 
L 248.792686 264.716 
L 249.087166 264.716 
L 249.087166 247.260736 
L 249.225273 247.260736 
L 249.225273 47.046794 
L 249.225586 47.046794 
L 253.460197 47.046794 
L 253.460197 264.716 
L 253.773361 264.716 
L 253.773361 246.205456 
L 253.91143 246.205456 
L 253.91143 34.36131 
L 255.877014 34.36131 
L 255.877014 264.716 
L 256.187042 264.716 
L 256.187042 246.382697 
L 257.001152 246.382697 
L 257.001152 27.077364 
L 257.002861 264.716 
L 257.301437 264.716 
L 257.301437 247.028983 
L 257.439438 247.028983 
L 257.439438 44.266503 
L 261.177231 44.266503 
L 261.177231 264.716 
L 261.500778 264.716 
L 261.557365 31.908323 
L 261.61013 31.908323 
L 263.158676 31.908323 
L 263.158676 264.716 
L 263.480995 264.716 
L 263.480995 245.688019 
L 263.591576 245.688019 
L 263.646332 245.688019 
L 263.646332 26.599716 
L 264.198326 26.599716 
L 264.198326 264.716 
L 264.514633 264.716 
L 264.514633 246.027341 
L 264.652725 246.027341 
L 264.652725 32.218637 
L 266.234985 32.218637 
L 266.234985 264.716 
L 266.549133 264.716 
L 266.549133 246.149486 
L 266.68737 246.149486 
L 266.68737 33.678745 
L 268.530853 33.678745 
L 268.530853 264.716 
L 268.85434 264.716 
L 268.85434 245.622429 
L 268.963753 245.622429 
L 268.992462 245.622429 
L 268.992462 27.347969 
L 269.703384 27.347969 
L 269.703384 264.716 
L 270.02327 264.716 
L 270.02327 245.825905 
L 270.188286 245.825905 
L 270.188286 28.275618 
L 271.040207 28.275618 
L 271.040207 264.716 
L 271.354721 264.716 
L 271.354721 246.128788 
L 271.546608 246.128788 
L 271.546608 30.399319 
L 272.753799 30.399319 
L 272.753799 264.716 
L 273.065178 264.716 
L 273.065178 246.306029 
L 273.22963 246.306029 
L 273.22963 34.08029 
L 275.120529 34.08029 
L 275.120529 264.716 
L 275.42366 264.716 
L 275.42366 246.772159 
L 275.561699 246.772159 
L 275.561699 41.176335 
L 278.746506 41.176335 
L 278.746506 264.716 
L 279.054749 264.716 
L 279.054749 246.483269 
L 279.219551 246.483269 
L 279.219551 36.191459 
L 281.488144 36.191459 
L 281.488144 264.716 
L 281.792618 264.716 
L 281.792618 246.696074 
L 281.95797 246.696074 
L 281.95797 38.71886 
L 284.678238 38.71886 
L 284.678238 264.716 
L 284.990814 264.716 
L 284.990814 246.238689 
L 285.155655 246.238689 
L 285.155655 33.248206 
L 286.897675 33.248206 
L 286.897675 264.716 
L 287.187912 264.716 
L 287.187912 247.500652 
L 287.352615 247.500652 
L 287.352615 48.428882 
L 291.81041 48.428882 
L 291.81041 264.716 
L 292.117241 264.716 
L 292.174255 43.240364 
L 295.802544 43.240364 
L 295.802544 264.716 
L 296.100006 264.716 
L 296.129768 51.140989 
L 301.196762 51.140989 
L 301.196762 264.716 
L 301.516769 264.716 
L 301.516769 245.818618 
L 301.898407 245.818618 
L 301.898407 24.696288 
L 301.900116 264.716 
L 302.225708 264.716 
L 302.225708 245.5032 
L 302.333023 245.5032 
L 302.390816 245.5032 
L 302.390816 24.390714 
L 302.547585 24.390714 
L 302.547585 264.716 
L 302.853485 264.716 
L 302.853485 246.615325 
L 303.018349 246.615325 
L 303.018349 37.77569 
L 305.570114 37.77569 
L 305.570114 264.716 
L 305.889153 264.716 
L 305.889153 245.873131 
L 306.027054 245.873131 
L 306.027054 30.375028 
L 307.279465 30.375028 
L 307.279465 264.716 
L 307.598885 264.716 
L 307.598885 245.85185 
L 307.763992 245.85185 
L 307.763992 28.582308 
L 308.670723 28.582308 
L 308.670723 264.716 
L 308.984047 264.716 
L 308.984047 246.196128 
L 309.12236 246.196128 
L 309.12236 34.23516 
L 311.064941 34.23516 
L 311.064941 264.716 
L 311.370705 264.716 
L 311.370705 246.623487 
L 311.535706 246.623487 
L 311.535706 37.865957 
L 314.103775 37.865957 
L 314.103775 264.716 
L 314.433411 264.716 
L 314.433411 245.274653 
L 314.536674 245.274653 
L 314.598564 245.274653 
L 314.598564 23.530516 
L 314.600266 264.716 
L 315.331635 264.716 
L 315.331635 222.581181 
L 315.469742 222.581181 
L 315.469742 25.642186 
L 315.47155 264.716 
L 320.261513 264.716 
L 320.261513 47.737133 
L 320.263687 264.716 
L 320.399101 264.716 
L 320.399101 256.245773 
L 320.480133 256.245773 
L 325.163834 256.245773 
L 325.163834 48.358105 
L 325.166046 264.716 
L 329.739227 264.716 
L 329.741241 46.515403 
L 329.741241 264.716 
L 329.904129 264.716 
L 329.904129 254.694046 
L 329.957695 254.694046 
L 330.52887 254.694046 
L 330.52887 108.929911 
L 330.607048 108.929911 
L 336.240753 108.929911 
L 336.240753 57.371751 
L 336.2425 264.716 
L 337.406784 264.716 
L 337.406784 198.126674 
L 337.54483 198.126674 
L 337.54483 28.081604 
L 337.546539 264.716 
L 337.8452 264.716 
L 337.8452 247.024319 
L 338.442886 247.024319 
L 338.442886 25.793598 
L 338.44458 264.716 
L 338.743294 264.716 
L 338.743294 247.021695 
L 344.048889 247.021695 
L 344.048889 52.326613 
L 344.050644 264.716 
L 344.187027 264.716 
L 344.187027 256.191552 
L 344.267097 256.191552 
L 351.251411 256.191552 
L 351.251411 61.323885 
L 351.253212 264.716 
L 351.389275 264.716 
L 351.389275 256.209626 
L 351.469666 256.209626 
L 358.048027 256.209626 
L 358.048027 59.036023 
L 358.04982 264.716 
L 358.185928 264.716 
L 358.185928 256.206711 
L 358.266273 256.206711 
L 358.378006 256.206711 
L 358.378006 151.557462 
L 358.482719 151.557462 
L 377.31395 151.557462 
L 377.31395 151.557462 
" style="fill:none;stroke:#008000;stroke-linecap:square;stroke-width:1.5;"/>
   </g>
   <g id="patch_3">
    <path d="M 36.465625 276.812 
L 36.465625 10.7 
" style="fill:none;stroke:#000000;stroke-linecap:square;stroke-linejoin:miter;stroke-width:0.8;"/>
   </g>
   <g id="patch_4">
    <path d="M 393.585625 276.812 
L 393.585625 10.7 
" style="fill:none;stroke:#000000;stroke-linecap:square;stroke-linejoin:miter;stroke-width:0.8;"/>
   </g>
   <g id="patch_5">
    <path d="M 36.465614 276.812 
L 393.585617 276.812 
" style="fill:none;stroke:#000000;stroke-linecap:square;stroke-linejoin:miter;stroke-width:0.8;"/>
   </g>
   <g id="patch_6">
    <path d="M 36.465614 10.7 
L 393.585617 10.7 
" style="fill:none;stroke:#000000;stroke-linecap:square;stroke-linejoin:miter;stroke-width:0.8;"/>
   </g>
  </g>
 </g>
 <defs>
  <clipPath id="pdc8f73daa7">
   <rect height="266.112" width="357.12" x="36.465625" y="10.7"/>
  </clipPath>
 </defs>
</svg>
