<?xml version="1.0" encoding="utf-8" standalone="no"?>
<!DOCTYPE svg PUBLIC "-//W3C//DTD SVG 1.1//EN"
  "http://www.w3.org/Graphics/SVG/1.1/DTD/svg11.dtd">
<!-- Created with matplotlib (https://matplotlib.org/) -->
<svg height="313.36825pt" version="1.1" viewBox="0 0 404.285625 313.36825" width="404.285625pt" xmlns="http://www.w3.org/2000/svg" xmlns:xlink="http://www.w3.org/1999/xlink">
 <defs>
  <style type="text/css">
*{stroke-linecap:butt;stroke-linejoin:round;}
  </style>
 </defs>
 <g id="figure_1">
  <g id="patch_1">
   <path d="M 0 313.36825 
L 404.285625 313.36825 
L 404.285625 0 
L 0 0 
z
" style="fill:#ffffff;"/>
  </g>
  <g id="axes_1">
   <g id="patch_2">
    <path d="M 36.465625 276.812 
L 393.585625 276.812 
L 393.585625 10.7 
L 36.465625 10.7 
z
" style="fill:#ffffff;"/>
   </g>
   <g id="matplotlib.axis_1">
    <g id="xtick_1">
     <g id="line2d_1">
      <defs>
       <path d="M 0 0 
L 0 3.5 
" id="ma3de67edd1" style="stroke:#000000;stroke-width:0.8;"/>
      </defs>
      <g>
       <use style="stroke:#000000;stroke-width:0.8;" x="74.343399" xlink:href="#ma3de67edd1" y="276.812"/>
      </g>
     </g>
     <g id="text_1">
      <!-- 38 -->
      <defs>
       <path d="M 40.578125 39.3125 
Q 47.65625 37.796875 51.625 33 
Q 55.609375 28.21875 55.609375 21.1875 
Q 55.609375 10.40625 48.1875 4.484375 
Q 40.765625 -1.421875 27.09375 -1.421875 
Q 22.515625 -1.421875 17.65625 -0.515625 
Q 12.796875 0.390625 7.625 2.203125 
L 7.625 11.71875 
Q 11.71875 9.328125 16.59375 8.109375 
Q 21.484375 6.890625 26.8125 6.890625 
Q 36.078125 6.890625 40.9375 10.546875 
Q 45.796875 14.203125 45.796875 21.1875 
Q 45.796875 27.640625 41.28125 31.265625 
Q 36.765625 34.90625 28.71875 34.90625 
L 20.21875 34.90625 
L 20.21875 43.015625 
L 29.109375 43.015625 
Q 36.375 43.015625 40.234375 45.921875 
Q 44.09375 48.828125 44.09375 54.296875 
Q 44.09375 59.90625 40.109375 62.90625 
Q 36.140625 65.921875 28.71875 65.921875 
Q 24.65625 65.921875 20.015625 65.03125 
Q 15.375 64.15625 9.8125 62.3125 
L 9.8125 71.09375 
Q 15.4375 72.65625 20.34375 73.4375 
Q 25.25 74.21875 29.59375 74.21875 
Q 40.828125 74.21875 47.359375 69.109375 
Q 53.90625 64.015625 53.90625 55.328125 
Q 53.90625 49.265625 50.4375 45.09375 
Q 46.96875 40.921875 40.578125 39.3125 
z
" id="DejaVuSans-51"/>
       <path d="M 31.78125 34.625 
Q 24.75 34.625 20.71875 30.859375 
Q 16.703125 27.09375 16.703125 20.515625 
Q 16.703125 13.921875 20.71875 10.15625 
Q 24.75 6.390625 31.78125 6.390625 
Q 38.8125 6.390625 42.859375 10.171875 
Q 46.921875 13.96875 46.921875 20.515625 
Q 46.921875 27.09375 42.890625 30.859375 
Q 38.875 34.625 31.78125 34.625 
z
M 21.921875 38.8125 
Q 15.578125 40.375 12.03125 44.71875 
Q 8.5 49.078125 8.5 55.328125 
Q 8.5 64.0625 14.71875 69.140625 
Q 20.953125 74.21875 31.78125 74.21875 
Q 42.671875 74.21875 48.875 69.140625 
Q 55.078125 64.0625 55.078125 55.328125 
Q 55.078125 49.078125 51.53125 44.71875 
Q 48 40.375 41.703125 38.8125 
Q 48.828125 37.15625 52.796875 32.3125 
Q 56.78125 27.484375 56.78125 20.515625 
Q 56.78125 9.90625 50.3125 4.234375 
Q 43.84375 -1.421875 31.78125 -1.421875 
Q 19.734375 -1.421875 13.25 4.234375 
Q 6.78125 9.90625 6.78125 20.515625 
Q 6.78125 27.484375 10.78125 32.3125 
Q 14.796875 37.15625 21.921875 38.8125 
z
M 18.3125 54.390625 
Q 18.3125 48.734375 21.84375 45.5625 
Q 25.390625 42.390625 31.78125 42.390625 
Q 38.140625 42.390625 41.71875 45.5625 
Q 45.3125 48.734375 45.3125 54.390625 
Q 45.3125 60.0625 41.71875 63.234375 
Q 38.140625 66.40625 31.78125 66.40625 
Q 25.390625 66.40625 21.84375 63.234375 
Q 18.3125 60.0625 18.3125 54.390625 
z
" id="DejaVuSans-56"/>
      </defs>
      <g transform="translate(67.980899 291.410437)scale(0.1 -0.1)">
       <use xlink:href="#DejaVuSans-51"/>
       <use x="63.623047" xlink:href="#DejaVuSans-56"/>
      </g>
     </g>
    </g>
    <g id="xtick_2">
     <g id="line2d_2">
      <g>
       <use style="stroke:#000000;stroke-width:0.8;" x="117.633484" xlink:href="#ma3de67edd1" y="276.812"/>
      </g>
     </g>
     <g id="text_2">
      <!-- 40 -->
      <defs>
       <path d="M 37.796875 64.3125 
L 12.890625 25.390625 
L 37.796875 25.390625 
z
M 35.203125 72.90625 
L 47.609375 72.90625 
L 47.609375 25.390625 
L 58.015625 25.390625 
L 58.015625 17.1875 
L 47.609375 17.1875 
L 47.609375 0 
L 37.796875 0 
L 37.796875 17.1875 
L 4.890625 17.1875 
L 4.890625 26.703125 
z
" id="DejaVuSans-52"/>
       <path d="M 31.78125 66.40625 
Q 24.171875 66.40625 20.328125 58.90625 
Q 16.5 51.421875 16.5 36.375 
Q 16.5 21.390625 20.328125 13.890625 
Q 24.171875 6.390625 31.78125 6.390625 
Q 39.453125 6.390625 43.28125 13.890625 
Q 47.125 21.390625 47.125 36.375 
Q 47.125 51.421875 43.28125 58.90625 
Q 39.453125 66.40625 31.78125 66.40625 
z
M 31.78125 74.21875 
Q 44.046875 74.21875 50.515625 64.515625 
Q 56.984375 54.828125 56.984375 36.375 
Q 56.984375 17.96875 50.515625 8.265625 
Q 44.046875 -1.421875 31.78125 -1.421875 
Q 19.53125 -1.421875 13.0625 8.265625 
Q 6.59375 17.96875 6.59375 36.375 
Q 6.59375 54.828125 13.0625 64.515625 
Q 19.53125 74.21875 31.78125 74.21875 
z
" id="DejaVuSans-48"/>
      </defs>
      <g transform="translate(111.270984 291.410437)scale(0.1 -0.1)">
       <use xlink:href="#DejaVuSans-52"/>
       <use x="63.623047" xlink:href="#DejaVuSans-48"/>
      </g>
     </g>
    </g>
    <g id="xtick_3">
     <g id="line2d_3">
      <g>
       <use style="stroke:#000000;stroke-width:0.8;" x="160.923569" xlink:href="#ma3de67edd1" y="276.812"/>
      </g>
     </g>
     <g id="text_3">
      <!-- 42 -->
      <defs>
       <path d="M 19.1875 8.296875 
L 53.609375 8.296875 
L 53.609375 0 
L 7.328125 0 
L 7.328125 8.296875 
Q 12.9375 14.109375 22.625 23.890625 
Q 32.328125 33.6875 34.8125 36.53125 
Q 39.546875 41.84375 41.421875 45.53125 
Q 43.3125 49.21875 43.3125 52.78125 
Q 43.3125 58.59375 39.234375 62.25 
Q 35.15625 65.921875 28.609375 65.921875 
Q 23.96875 65.921875 18.8125 64.3125 
Q 13.671875 62.703125 7.8125 59.421875 
L 7.8125 69.390625 
Q 13.765625 71.78125 18.9375 73 
Q 24.125 74.21875 28.421875 74.21875 
Q 39.75 74.21875 46.484375 68.546875 
Q 53.21875 62.890625 53.21875 53.421875 
Q 53.21875 48.921875 51.53125 44.890625 
Q 49.859375 40.875 45.40625 35.40625 
Q 44.1875 33.984375 37.640625 27.21875 
Q 31.109375 20.453125 19.1875 8.296875 
z
" id="DejaVuSans-50"/>
      </defs>
      <g transform="translate(154.561069 291.410437)scale(0.1 -0.1)">
       <use xlink:href="#DejaVuSans-52"/>
       <use x="63.623047" xlink:href="#DejaVuSans-50"/>
      </g>
     </g>
    </g>
    <g id="xtick_4">
     <g id="line2d_4">
      <g>
       <use style="stroke:#000000;stroke-width:0.8;" x="204.213654" xlink:href="#ma3de67edd1" y="276.812"/>
      </g>
     </g>
     <g id="text_4">
      <!-- 44 -->
      <g transform="translate(197.851154 291.410437)scale(0.1 -0.1)">
       <use xlink:href="#DejaVuSans-52"/>
       <use x="63.623047" xlink:href="#DejaVuSans-52"/>
      </g>
     </g>
    </g>
    <g id="xtick_5">
     <g id="line2d_5">
      <g>
       <use style="stroke:#000000;stroke-width:0.8;" x="247.503746" xlink:href="#ma3de67edd1" y="276.812"/>
      </g>
     </g>
     <g id="text_5">
      <!-- 46 -->
      <defs>
       <path d="M 33.015625 40.375 
Q 26.375 40.375 22.484375 35.828125 
Q 18.609375 31.296875 18.609375 23.390625 
Q 18.609375 15.53125 22.484375 10.953125 
Q 26.375 6.390625 33.015625 6.390625 
Q 39.65625 6.390625 43.53125 10.953125 
Q 47.40625 15.53125 47.40625 23.390625 
Q 47.40625 31.296875 43.53125 35.828125 
Q 39.65625 40.375 33.015625 40.375 
z
M 52.59375 71.296875 
L 52.59375 62.3125 
Q 48.875 64.0625 45.09375 64.984375 
Q 41.3125 65.921875 37.59375 65.921875 
Q 27.828125 65.921875 22.671875 59.328125 
Q 17.53125 52.734375 16.796875 39.40625 
Q 19.671875 43.65625 24.015625 45.921875 
Q 28.375 48.1875 33.59375 48.1875 
Q 44.578125 48.1875 50.953125 41.515625 
Q 57.328125 34.859375 57.328125 23.390625 
Q 57.328125 12.15625 50.6875 5.359375 
Q 44.046875 -1.421875 33.015625 -1.421875 
Q 20.359375 -1.421875 13.671875 8.265625 
Q 6.984375 17.96875 6.984375 36.375 
Q 6.984375 53.65625 15.1875 63.9375 
Q 23.390625 74.21875 37.203125 74.21875 
Q 40.921875 74.21875 44.703125 73.484375 
Q 48.484375 72.75 52.59375 71.296875 
z
" id="DejaVuSans-54"/>
      </defs>
      <g transform="translate(241.141246 291.410437)scale(0.1 -0.1)">
       <use xlink:href="#DejaVuSans-52"/>
       <use x="63.623047" xlink:href="#DejaVuSans-54"/>
      </g>
     </g>
    </g>
    <g id="xtick_6">
     <g id="line2d_6">
      <g>
       <use style="stroke:#000000;stroke-width:0.8;" x="290.793831" xlink:href="#ma3de67edd1" y="276.812"/>
      </g>
     </g>
     <g id="text_6">
      <!-- 48 -->
      <g transform="translate(284.431331 291.410437)scale(0.1 -0.1)">
       <use xlink:href="#DejaVuSans-52"/>
       <use x="63.623047" xlink:href="#DejaVuSans-56"/>
      </g>
     </g>
    </g>
    <g id="xtick_7">
     <g id="line2d_7">
      <g>
       <use style="stroke:#000000;stroke-width:0.8;" x="334.083916" xlink:href="#ma3de67edd1" y="276.812"/>
      </g>
     </g>
     <g id="text_7">
      <!-- 50 -->
      <defs>
       <path d="M 10.796875 72.90625 
L 49.515625 72.90625 
L 49.515625 64.59375 
L 19.828125 64.59375 
L 19.828125 46.734375 
Q 21.96875 47.46875 24.109375 47.828125 
Q 26.265625 48.1875 28.421875 48.1875 
Q 40.625 48.1875 47.75 41.5 
Q 54.890625 34.8125 54.890625 23.390625 
Q 54.890625 11.625 47.5625 5.09375 
Q 40.234375 -1.421875 26.90625 -1.421875 
Q 22.3125 -1.421875 17.546875 -0.640625 
Q 12.796875 0.140625 7.71875 1.703125 
L 7.71875 11.625 
Q 12.109375 9.234375 16.796875 8.0625 
Q 21.484375 6.890625 26.703125 6.890625 
Q 35.15625 6.890625 40.078125 11.328125 
Q 45.015625 15.765625 45.015625 23.390625 
Q 45.015625 31 40.078125 35.4375 
Q 35.15625 39.890625 26.703125 39.890625 
Q 22.75 39.890625 18.8125 39.015625 
Q 14.890625 38.140625 10.796875 36.28125 
z
" id="DejaVuSans-53"/>
      </defs>
      <g transform="translate(327.721416 291.410437)scale(0.1 -0.1)">
       <use xlink:href="#DejaVuSans-53"/>
       <use x="63.623047" xlink:href="#DejaVuSans-48"/>
      </g>
     </g>
    </g>
    <g id="xtick_8">
     <g id="line2d_8">
      <g>
       <use style="stroke:#000000;stroke-width:0.8;" x="377.374001" xlink:href="#ma3de67edd1" y="276.812"/>
      </g>
     </g>
     <g id="text_8">
      <!-- 52 -->
      <g transform="translate(371.011501 291.410437)scale(0.1 -0.1)">
       <use xlink:href="#DejaVuSans-53"/>
       <use x="63.623047" xlink:href="#DejaVuSans-50"/>
      </g>
     </g>
    </g>
    <g id="text_9">
     <!-- +1.5961602e9 -->
     <defs>
      <path d="M 46 62.703125 
L 46 35.5 
L 73.1875 35.5 
L 73.1875 27.203125 
L 46 27.203125 
L 46 0 
L 37.796875 0 
L 37.796875 27.203125 
L 10.59375 27.203125 
L 10.59375 35.5 
L 37.796875 35.5 
L 37.796875 62.703125 
z
" id="DejaVuSans-43"/>
      <path d="M 12.40625 8.296875 
L 28.515625 8.296875 
L 28.515625 63.921875 
L 10.984375 60.40625 
L 10.984375 69.390625 
L 28.421875 72.90625 
L 38.28125 72.90625 
L 38.28125 8.296875 
L 54.390625 8.296875 
L 54.390625 0 
L 12.40625 0 
z
" id="DejaVuSans-49"/>
      <path d="M 10.6875 12.40625 
L 21 12.40625 
L 21 0 
L 10.6875 0 
z
" id="DejaVuSans-46"/>
      <path d="M 10.984375 1.515625 
L 10.984375 10.5 
Q 14.703125 8.734375 18.5 7.8125 
Q 22.3125 6.890625 25.984375 6.890625 
Q 35.75 6.890625 40.890625 13.453125 
Q 46.046875 20.015625 46.78125 33.40625 
Q 43.953125 29.203125 39.59375 26.953125 
Q 35.25 24.703125 29.984375 24.703125 
Q 19.046875 24.703125 12.671875 31.3125 
Q 6.296875 37.9375 6.296875 49.421875 
Q 6.296875 60.640625 12.9375 67.421875 
Q 19.578125 74.21875 30.609375 74.21875 
Q 43.265625 74.21875 49.921875 64.515625 
Q 56.59375 54.828125 56.59375 36.375 
Q 56.59375 19.140625 48.40625 8.859375 
Q 40.234375 -1.421875 26.421875 -1.421875 
Q 22.703125 -1.421875 18.890625 -0.6875 
Q 15.09375 0.046875 10.984375 1.515625 
z
M 30.609375 32.421875 
Q 37.25 32.421875 41.125 36.953125 
Q 45.015625 41.5 45.015625 49.421875 
Q 45.015625 57.28125 41.125 61.84375 
Q 37.25 66.40625 30.609375 66.40625 
Q 23.96875 66.40625 20.09375 61.84375 
Q 16.21875 57.28125 16.21875 49.421875 
Q 16.21875 41.5 20.09375 36.953125 
Q 23.96875 32.421875 30.609375 32.421875 
z
" id="DejaVuSans-57"/>
      <path d="M 56.203125 29.59375 
L 56.203125 25.203125 
L 14.890625 25.203125 
Q 15.484375 15.921875 20.484375 11.0625 
Q 25.484375 6.203125 34.421875 6.203125 
Q 39.59375 6.203125 44.453125 7.46875 
Q 49.3125 8.734375 54.109375 11.28125 
L 54.109375 2.78125 
Q 49.265625 0.734375 44.1875 -0.34375 
Q 39.109375 -1.421875 33.890625 -1.421875 
Q 20.796875 -1.421875 13.15625 6.1875 
Q 5.515625 13.8125 5.515625 26.8125 
Q 5.515625 40.234375 12.765625 48.109375 
Q 20.015625 56 32.328125 56 
Q 43.359375 56 49.78125 48.890625 
Q 56.203125 41.796875 56.203125 29.59375 
z
M 47.21875 32.234375 
Q 47.125 39.59375 43.09375 43.984375 
Q 39.0625 48.390625 32.421875 48.390625 
Q 24.90625 48.390625 20.390625 44.140625 
Q 15.875 39.890625 15.1875 32.171875 
z
" id="DejaVuSans-101"/>
     </defs>
     <g transform="translate(318.612188 304.088562)scale(0.1 -0.1)">
      <use xlink:href="#DejaVuSans-43"/>
      <use x="83.789062" xlink:href="#DejaVuSans-49"/>
      <use x="147.412109" xlink:href="#DejaVuSans-46"/>
      <use x="179.199219" xlink:href="#DejaVuSans-53"/>
      <use x="242.822266" xlink:href="#DejaVuSans-57"/>
      <use x="306.445312" xlink:href="#DejaVuSans-54"/>
      <use x="370.068359" xlink:href="#DejaVuSans-49"/>
      <use x="433.691406" xlink:href="#DejaVuSans-54"/>
      <use x="497.314453" xlink:href="#DejaVuSans-48"/>
      <use x="560.9375" xlink:href="#DejaVuSans-50"/>
      <use x="624.560547" xlink:href="#DejaVuSans-101"/>
      <use x="686.083984" xlink:href="#DejaVuSans-57"/>
     </g>
    </g>
   </g>
   <g id="matplotlib.axis_2">
    <g id="ytick_1">
     <g id="line2d_9">
      <defs>
       <path d="M 0 0 
L -3.5 0 
" id="m4e90d9e8f8" style="stroke:#000000;stroke-width:0.8;"/>
      </defs>
      <g>
       <use style="stroke:#000000;stroke-width:0.8;" x="36.465625" xlink:href="#m4e90d9e8f8" y="264.716"/>
      </g>
     </g>
     <g id="text_10">
      <!-- 0.00 -->
      <g transform="translate(7.2 268.515219)scale(0.1 -0.1)">
       <use xlink:href="#DejaVuSans-48"/>
       <use x="63.623047" xlink:href="#DejaVuSans-46"/>
       <use x="95.410156" xlink:href="#DejaVuSans-48"/>
       <use x="159.033203" xlink:href="#DejaVuSans-48"/>
      </g>
     </g>
    </g>
    <g id="ytick_2">
     <g id="line2d_10">
      <g>
       <use style="stroke:#000000;stroke-width:0.8;" x="36.465625" xlink:href="#m4e90d9e8f8" y="234.207213"/>
      </g>
     </g>
     <g id="text_11">
      <!-- 0.25 -->
      <g transform="translate(7.2 238.006431)scale(0.1 -0.1)">
       <use xlink:href="#DejaVuSans-48"/>
       <use x="63.623047" xlink:href="#DejaVuSans-46"/>
       <use x="95.410156" xlink:href="#DejaVuSans-50"/>
       <use x="159.033203" xlink:href="#DejaVuSans-53"/>
      </g>
     </g>
    </g>
    <g id="ytick_3">
     <g id="line2d_11">
      <g>
       <use style="stroke:#000000;stroke-width:0.8;" x="36.465625" xlink:href="#m4e90d9e8f8" y="203.698425"/>
      </g>
     </g>
     <g id="text_12">
      <!-- 0.50 -->
      <g transform="translate(7.2 207.497644)scale(0.1 -0.1)">
       <use xlink:href="#DejaVuSans-48"/>
       <use x="63.623047" xlink:href="#DejaVuSans-46"/>
       <use x="95.410156" xlink:href="#DejaVuSans-53"/>
       <use x="159.033203" xlink:href="#DejaVuSans-48"/>
      </g>
     </g>
    </g>
    <g id="ytick_4">
     <g id="line2d_12">
      <g>
       <use style="stroke:#000000;stroke-width:0.8;" x="36.465625" xlink:href="#m4e90d9e8f8" y="173.189638"/>
      </g>
     </g>
     <g id="text_13">
      <!-- 0.75 -->
      <defs>
       <path d="M 8.203125 72.90625 
L 55.078125 72.90625 
L 55.078125 68.703125 
L 28.609375 0 
L 18.3125 0 
L 43.21875 64.59375 
L 8.203125 64.59375 
z
" id="DejaVuSans-55"/>
      </defs>
      <g transform="translate(7.2 176.988857)scale(0.1 -0.1)">
       <use xlink:href="#DejaVuSans-48"/>
       <use x="63.623047" xlink:href="#DejaVuSans-46"/>
       <use x="95.410156" xlink:href="#DejaVuSans-55"/>
       <use x="159.033203" xlink:href="#DejaVuSans-53"/>
      </g>
     </g>
    </g>
    <g id="ytick_5">
     <g id="line2d_13">
      <g>
       <use style="stroke:#000000;stroke-width:0.8;" x="36.465625" xlink:href="#m4e90d9e8f8" y="142.68085"/>
      </g>
     </g>
     <g id="text_14">
      <!-- 1.00 -->
      <g transform="translate(7.2 146.480069)scale(0.1 -0.1)">
       <use xlink:href="#DejaVuSans-49"/>
       <use x="63.623047" xlink:href="#DejaVuSans-46"/>
       <use x="95.410156" xlink:href="#DejaVuSans-48"/>
       <use x="159.033203" xlink:href="#DejaVuSans-48"/>
      </g>
     </g>
    </g>
    <g id="ytick_6">
     <g id="line2d_14">
      <g>
       <use style="stroke:#000000;stroke-width:0.8;" x="36.465625" xlink:href="#m4e90d9e8f8" y="112.172063"/>
      </g>
     </g>
     <g id="text_15">
      <!-- 1.25 -->
      <g transform="translate(7.2 115.971282)scale(0.1 -0.1)">
       <use xlink:href="#DejaVuSans-49"/>
       <use x="63.623047" xlink:href="#DejaVuSans-46"/>
       <use x="95.410156" xlink:href="#DejaVuSans-50"/>
       <use x="159.033203" xlink:href="#DejaVuSans-53"/>
      </g>
     </g>
    </g>
    <g id="ytick_7">
     <g id="line2d_15">
      <g>
       <use style="stroke:#000000;stroke-width:0.8;" x="36.465625" xlink:href="#m4e90d9e8f8" y="81.663276"/>
      </g>
     </g>
     <g id="text_16">
      <!-- 1.50 -->
      <g transform="translate(7.2 85.462494)scale(0.1 -0.1)">
       <use xlink:href="#DejaVuSans-49"/>
       <use x="63.623047" xlink:href="#DejaVuSans-46"/>
       <use x="95.410156" xlink:href="#DejaVuSans-53"/>
       <use x="159.033203" xlink:href="#DejaVuSans-48"/>
      </g>
     </g>
    </g>
    <g id="ytick_8">
     <g id="line2d_16">
      <g>
       <use style="stroke:#000000;stroke-width:0.8;" x="36.465625" xlink:href="#m4e90d9e8f8" y="51.154488"/>
      </g>
     </g>
     <g id="text_17">
      <!-- 1.75 -->
      <g transform="translate(7.2 54.953707)scale(0.1 -0.1)">
       <use xlink:href="#DejaVuSans-49"/>
       <use x="63.623047" xlink:href="#DejaVuSans-46"/>
       <use x="95.410156" xlink:href="#DejaVuSans-55"/>
       <use x="159.033203" xlink:href="#DejaVuSans-53"/>
      </g>
     </g>
    </g>
    <g id="ytick_9">
     <g id="line2d_17">
      <g>
       <use style="stroke:#000000;stroke-width:0.8;" x="36.465625" xlink:href="#m4e90d9e8f8" y="20.645701"/>
      </g>
     </g>
     <g id="text_18">
      <!-- 2.00 -->
      <g transform="translate(7.2 24.44492)scale(0.1 -0.1)">
       <use xlink:href="#DejaVuSans-50"/>
       <use x="63.623047" xlink:href="#DejaVuSans-46"/>
       <use x="95.410156" xlink:href="#DejaVuSans-48"/>
       <use x="159.033203" xlink:href="#DejaVuSans-48"/>
      </g>
     </g>
    </g>
   </g>
   <g id="line2d_18">
    <path clip-path="url(#p4f616fda64)" d="M 52.698357 264.716 
L 52.914803 192.172883 
L 82.333359 192.172883 
L 82.333359 187.725403 
L 82.336678 264.716 
L 82.525269 264.716 
L 82.525269 253.237488 
L 82.553131 253.237488 
L 84.151367 253.237488 
L 84.151367 34.815883 
L 84.850311 34.815883 
L 84.850311 264.716 
L 85.127953 264.716 
L 85.127953 248.205433 
L 85.265732 248.205433 
L 85.265732 58.420345 
L 85.283211 58.420345 
L 91.550308 58.420345 
L 91.550308 264.716 
L 91.870491 264.716 
L 91.92704 34.1049 
L 93.937881 34.1049 
L 93.937881 264.716 
L 94.22963 264.716 
L 94.286453 53.408889 
L 99.749062 53.408889 
L 99.749062 264.716 
L 100.079292 264.716 
L 100.079292 245.233444 
L 100.181961 245.233444 
L 100.623093 245.233444 
L 100.624672 25.57351 
L 100.624672 264.716 
L 100.950302 264.716 
L 100.950302 245.493285 
L 101.057571 245.493285 
L 101.115189 245.493285 
L 101.115189 24.280079 
L 101.269539 24.280079 
L 101.269539 264.716 
L 101.577843 264.716 
L 101.577843 246.472866 
L 101.769966 246.472866 
L 101.769966 34.518247 
L 103.730469 34.518247 
L 103.730469 264.716 
L 104.072525 264.716 
L 104.072525 244.565322 
L 104.163376 244.565322 
L 104.210594 244.565322 
L 104.210594 23.352625 
L 104.212173 264.716 
L 107.974091 264.716 
L 107.974091 51.305835 
L 108.139122 51.305835 
L 108.139122 42.78591 
L 108.140686 264.716 
L 109.575584 264.716 
L 109.575584 182.807675 
L 109.655838 182.807675 
L 109.713737 182.807675 
L 109.713737 29.514604 
L 109.715286 264.716 
L 113.693527 264.716 
L 113.693527 43.075119 
L 113.695213 264.716 
L 113.91291 264.716 
L 113.91291 251.592993 
L 117.946915 251.592993 
L 117.946915 44.616858 
L 117.948555 264.716 
L 118.166092 264.716 
L 118.166092 251.601742 
L 123.363609 251.601742 
L 123.363609 51.175903 
L 123.36528 264.716 
L 123.528412 264.716 
L 123.528412 254.676093 
L 123.581726 254.676093 
L 127.697723 254.676093 
L 127.699379 45.072114 
L 127.699379 264.716 
L 128.268608 264.716 
L 128.268608 231.727531 
L 128.348732 231.727531 
L 129.083076 231.727531 
L 129.083076 28.447005 
L 129.084663 264.716 
L 129.410614 264.716 
L 129.410614 245.475204 
L 129.517563 245.475204 
L 129.575523 245.475204 
L 129.575523 24.061522 
L 129.690575 24.061522 
L 129.690575 264.716 
L 132.229668 264.716 
L 132.229668 120.409028 
L 132.287979 120.409028 
L 132.394905 120.409028 
L 132.394905 35.892763 
L 132.39653 264.716 
L 134.561714 264.716 
L 134.561714 141.538701 
L 134.69989 141.538701 
L 134.69989 33.632075 
L 134.701431 264.716 
L 137.300201 264.716 
L 137.300201 117.036633 
L 137.438133 117.036633 
L 137.438133 36.075278 
L 137.439674 264.716 
L 142.175652 264.716 
L 142.175652 47.347233 
L 142.177322 264.716 
L 142.394768 264.716 
L 142.394768 251.607283 
L 144.237167 251.607283 
L 144.237167 32.25912 
L 144.2388 264.716 
L 144.537346 264.716 
L 144.537346 247.024045 
L 147.624405 247.024045 
L 147.624405 39.733827 
L 147.626099 264.716 
L 147.979118 264.716 
L 147.979118 243.945611 
L 148.058998 243.945611 
L 151.769684 243.945611 
L 151.769684 44.007279 
L 151.771339 264.716 
L 151.934502 264.716 
L 151.934502 254.674635 
L 151.987793 254.674635 
L 152.153671 254.674635 
L 152.153671 131.601711 
L 152.204247 131.601711 
L 165.603333 131.601711 
L 165.603333 98.630722 
L 165.605247 264.716 
L 166.363457 264.716 
L 166.363457 221.048085 
L 166.471046 221.048085 
L 166.501587 221.048085 
L 166.501587 25.699289 
L 166.503166 264.716 
L 166.828979 264.716 
L 166.828979 245.482787 
L 166.936066 245.482787 
L 170.403175 245.482787 
L 170.403175 42.634032 
L 170.404839 264.716 
L 170.703201 264.716 
L 170.703201 247.034252 
L 173.114143 247.034252 
L 173.114143 35.92084 
L 173.115761 264.716 
L 173.441498 264.716 
L 173.441498 245.487453 
L 173.54866 245.487453 
L 175.392303 245.487453 
L 175.392303 33.480896 
L 175.393898 264.716 
L 175.692505 264.716 
L 175.692505 247.020545 
L 179.916016 247.020545 
L 179.916016 46.141488 
L 179.917664 264.716 
L 180.107864 264.716 
L 180.107864 253.1465 
L 180.134117 253.1465 
L 184.196892 253.1465 
L 184.196892 44.772082 
L 184.201004 264.716 
L 184.902168 264.716 
L 184.902168 224.271458 
L 185.040016 224.271458 
L 185.040016 25.376068 
L 185.041565 264.716 
L 185.340637 264.716 
L 185.340637 246.99459 
L 188.99585 246.99459 
L 188.998085 42.94 
L 188.998085 264.716 
L 189.29612 264.716 
L 189.29612 247.053208 
L 190.056595 247.053208 
L 190.056595 26.613584 
L 190.058174 264.716 
L 190.356728 264.716 
L 190.356728 247.023462 
L 192.740585 247.023462 
L 192.740585 35.769194 
L 192.742554 264.716 
L 193.067764 264.716 
L 193.067764 245.516907 
L 193.175453 245.516907 
L 193.827896 245.516907 
L 193.827896 26.764881 
L 193.829483 264.716 
L 194.155251 264.716 
L 194.155251 245.485703 
L 194.262383 245.485703 
L 194.617989 245.485703 
L 194.617989 25.091311 
L 194.619553 264.716 
L 194.918404 264.716 
L 194.918404 247.006839 
L 198.519554 247.006839 
L 198.521225 42.633974 
L 198.521225 264.716 
L 198.819763 264.716 
L 198.819763 247.024628 
L 199.093224 247.024628 
L 199.093224 36.556105 
L 199.170578 36.556105 
L 201.343475 36.556105 
L 201.343475 264.716 
L 201.666031 264.716 
L 201.666031 245.667096 
L 201.776375 245.667096 
L 201.803932 245.667096 
L 201.803932 27.894763 
L 202.62944 27.894763 
L 202.62944 264.716 
L 202.970192 264.716 
L 202.970192 244.639105 
L 203.06234 244.639105 
L 203.135201 244.639105 
L 203.135201 23.497171 
L 203.136765 264.716 
L 203.489662 264.716 
L 203.489662 243.952319 
L 203.569664 243.952319 
L 203.627823 243.952319 
L 203.627823 23.414307 
L 203.629356 264.716 
L 207.364494 264.716 
L 207.364494 52.819097 
L 207.502045 52.819097 
L 207.502045 42.480001 
L 207.503632 264.716 
L 211.698441 264.716 
L 211.698441 44.296139 
L 211.700104 264.716 
L 211.863426 264.716 
L 211.863426 254.665594 
L 211.916557 254.665594 
L 212.353134 254.665594 
L 212.353134 116.204375 
L 225.802872 116.204375 
L 225.802872 100.15736 
L 225.804688 264.716 
L 225.940765 264.716 
L 225.940765 256.204811 
L 226.021133 256.204811 
L 226.241287 256.204811 
L 226.241287 145.401762 
L 242.152695 145.401762 
L 242.152695 112.816091 
L 242.155243 264.716 
L 242.317657 264.716 
L 242.317657 254.717213 
L 242.371696 254.717213 
L 242.861549 254.717213 
L 242.861549 113.762889 
L 243.053696 113.762889 
L 243.055244 25.711189 
L 243.055244 264.716 
L 243.516228 264.716 
L 243.516228 237.844445 
L 243.654427 237.844445 
L 243.654427 24.023915 
L 243.655991 264.716 
L 245.578125 264.716 
L 245.578125 155.273543 
L 245.604042 155.273543 
L 245.743172 155.273543 
L 245.743172 32.413267 
L 245.74472 264.716 
L 247.369255 264.716 
L 247.369255 172.091192 
L 247.476318 172.091192 
L 247.561066 172.091192 
L 247.561066 30.886309 
L 247.562622 264.716 
L 248.970795 264.716 
L 248.970795 184.317729 
L 249.077774 184.317729 
L 249.135887 184.317729 
L 249.135887 29.515797 
L 249.137726 264.716 
L 249.679832 264.716 
L 249.679832 233.260332 
L 249.787079 233.260332 
L 250.575104 233.260332 
L 250.575104 28.749656 
L 250.576775 264.716 
L 250.875519 264.716 
L 250.875519 247.012671 
L 254.070808 247.012671 
L 254.070808 40.345122 
L 254.072433 264.716 
L 254.371414 264.716 
L 254.371414 246.999256 
L 256.321846 246.999256 
L 256.323463 33.327941 
L 256.323463 264.716 
L 256.649529 264.716 
L 256.649529 245.468788 
L 256.756363 245.468788 
L 262.306656 245.468788 
L 262.306656 54.379049 
L 262.308365 264.716 
L 262.498634 264.716 
L 262.498634 253.142709 
L 262.524818 253.142709 
L 265.80262 253.142709 
L 265.80262 40.346374 
L 265.804588 264.716 
L 265.994614 264.716 
L 265.994614 253.156415 
L 266.021034 253.156415 
L 269.487442 253.156415 
L 269.487442 41.409696 
L 269.48909 264.716 
L 269.62545 264.716 
L 269.62545 256.189355 
L 269.705544 256.189355 
L 275.770035 256.189355 
L 275.770035 56.057799 
L 275.771698 264.716 
L 276.909058 264.716 
L 276.909058 199.622117 
L 277.046783 199.622117 
L 277.046783 27.834633 
L 277.048325 264.716 
L 277.374176 264.716 
L 277.374176 245.480745 
L 277.481224 245.480745 
L 281.002365 245.480745 
L 281.002365 42.938662 
L 281.003983 264.716 
L 281.302818 264.716 
L 281.302818 247.007422 
L 281.629967 247.007422 
L 281.629967 33.315127 
L 281.653328 33.315127 
L 283.251236 33.315127 
L 283.251236 264.716 
L 283.554031 264.716 
L 283.554031 246.784034 
L 283.718666 246.784034 
L 283.718666 39.812981 
L 286.651237 39.812981 
L 286.651237 264.716 
L 286.968178 264.716 
L 286.968178 245.98468 
L 287.106194 245.98468 
L 287.106194 31.706422 
L 288.613213 31.706422 
L 288.613213 264.716 
L 288.9487 264.716 
L 288.9487 244.936566 
L 289.04612 244.936566 
L 289.113968 244.936566 
L 289.113968 23.468949 
L 289.115524 264.716 
L 289.846977 264.716 
L 289.846977 222.559888 
L 290.012047 222.559888 
L 290.012047 25.700337 
L 290.013596 264.716 
L 290.772285 264.716 
L 290.772285 221.020963 
L 290.879395 221.020963 
L 290.93737 221.020963 
L 290.93737 25.853961 
L 290.942741 264.716 
L 291.724899 264.716 
L 291.724899 219.694635 
L 291.80854 219.694635 
L 291.889923 219.694635 
L 291.889923 25.985938 
L 291.891487 264.716 
L 296.113029 264.716 
L 296.113029 44.446824 
L 296.114746 264.716 
L 296.305275 264.716 
L 296.305275 253.128127 
L 296.3312 253.128127 
L 301.611023 253.128127 
L 301.611023 51.633778 
L 301.612679 264.716 
L 301.775894 264.716 
L 301.775894 254.671718 
L 301.829132 254.671718 
L 302.536224 254.671718 
L 302.536224 100.984994 
L 302.72847 100.984994 
L 302.72847 26.936515 
L 302.730026 264.716 
L 303.136955 264.716 
L 303.136955 240.899257 
L 303.162926 240.899257 
L 303.302071 240.899257 
L 303.302071 23.870902 
L 303.303665 264.716 
L 305.793678 264.716 
L 305.793678 123.182418 
L 305.90107 123.182418 
L 305.931625 123.182418 
L 305.931625 35.462179 
L 305.933228 264.716 
L 307.179008 264.716 
L 307.179008 193.494996 
L 307.231926 193.494996 
L 307.371002 193.494996 
L 307.371002 28.751896 
L 307.372559 264.716 
L 308.294067 264.716 
L 308.294067 211.819783 
L 308.458778 211.819783 
L 308.458778 26.769856 
L 308.460358 264.716 
L 312.817429 264.716 
L 312.817429 45.210958 
L 312.819099 264.716 
L 313.009476 264.716 
L 313.009476 253.136584 
L 313.035545 253.136584 
L 316.854469 253.136584 
L 316.854469 43.397206 
L 316.85614 264.716 
L 316.99247 264.716 
L 316.99247 256.191104 
L 317.072594 256.191104 
L 322.027489 256.191104 
L 322.027489 49.801841 
L 322.02916 264.716 
L 323.085159 264.716 
L 323.085159 204.219353 
L 323.111404 204.219353 
L 323.25029 204.219353 
L 323.25029 27.530469 
L 323.251839 264.716 
L 323.577682 264.716 
L 323.577682 245.48162 
L 323.684746 245.48162 
L 327.15184 245.48162 
L 327.15184 42.633945 
L 327.153526 264.716 
L 327.452164 264.716 
L 327.452164 247.018796 
L 330.728516 247.018796 
L 330.728516 40.801543 
L 330.730156 264.716 
L 331.02906 264.716 
L 331.02906 247.003631 
L 334.792374 247.003631 
L 334.792374 43.548589 
L 334.794006 264.716 
L 335.119949 264.716 
L 335.119949 245.475788 
L 335.226906 245.475788 
L 339.234955 245.475788 
L 339.234955 45.683846 
L 339.236626 264.716 
L 339.373138 264.716 
L 339.373138 256.180606 
L 339.453079 256.180606 
L 342.433136 256.180606 
L 342.433136 38.667683 
L 342.434814 264.716 
L 342.598251 264.716 
L 342.598251 254.659178 
L 342.65126 254.659178 
L 343.710243 254.659178 
L 343.710243 80.96147 
L 343.733513 80.96147 
L 343.847923 80.96147 
L 343.847923 28.61282 
L 343.84948 264.716 
L 350.831398 264.716 
L 350.831398 60.009862 
L 350.833183 264.716 
L 351.023148 264.716 
L 351.023148 253.160206 
L 351.049637 253.160206 
L 355.382179 253.160206 
L 355.38382 46.293017 
L 355.38382 264.716 
L 355.519989 264.716 
L 355.519989 256.200145 
L 355.600273 256.200145 
L 359.202347 256.200145 
L 359.202347 42.174644 
L 359.204002 264.716 
L 359.39463 264.716 
L 359.39463 253.122878 
L 359.420456 253.122878 
L 364.997932 253.122878 
L 364.997932 53.311974 
L 364.999649 264.716 
L 365.162781 264.716 
L 365.162781 254.676093 
L 365.216095 254.676093 
L 369.494347 254.676093 
L 369.494347 45.986904 
L 369.496056 264.716 
L 369.686623 264.716 
L 369.686623 253.126086 
L 369.712509 253.126086 
L 374.288742 253.126086 
L 374.288742 47.666963 
L 374.290474 264.716 
L 375.482117 264.716 
L 375.482117 196.554182 
L 375.589172 196.554182 
L 375.619743 196.554182 
L 375.619743 28.140135 
L 375.621292 264.716 
L 375.947273 264.716 
L 375.947273 245.473455 
L 376.054192 245.473455 
L 377.352898 245.473455 
L 377.352898 245.473455 
" style="fill:none;stroke:#ff0000;stroke-linecap:square;stroke-width:1.5;"/>
   </g>
   <g id="line2d_19">
    <path clip-path="url(#p4f616fda64)" d="M 52.698357 264.716 
L 52.914803 186.071126 
L 82.039948 186.071126 
L 82.039948 264.716 
L 82.367226 264.716 
L 82.396774 30.809533 
L 82.472847 30.809533 
L 83.84301 30.809533 
L 83.84301 264.716 
L 84.834412 264.716 
L 84.834412 207.870254 
L 84.925262 207.870254 
L 84.972588 207.870254 
L 84.972588 27.014287 
L 84.974152 264.716 
L 91.576714 264.716 
L 91.576714 57.871056 
L 91.578499 264.716 
L 91.768684 264.716 
L 91.768684 253.147375 
L 91.794945 253.147375 
L 93.936195 253.147375 
L 93.936195 33.938451 
L 93.937828 264.716 
L 99.782959 264.716 
L 99.784615 53.600659 
L 99.784615 264.716 
L 99.920929 264.716 
L 99.920929 256.191979 
L 100.001068 256.191979 
L 100.626862 256.191979 
L 100.626862 122.337418 
L 100.650414 122.337418 
L 100.79184 122.337418 
L 100.79184 26.324463 
L 100.793388 264.716 
L 101.281525 264.716 
L 101.281525 236.309894 
L 101.446732 236.309894 
L 101.446732 24.329301 
L 101.44828 264.716 
L 103.749374 264.716 
L 103.749374 133.858365 
L 103.829239 133.858365 
L 103.914383 133.858365 
L 103.914383 34.54963 
L 103.915947 264.716 
L 104.214592 264.716 
L 104.214592 247.018504 
L 107.815529 247.018504 
L 107.815529 42.631617 
L 107.817123 264.716 
L 108.143112 264.716 
L 108.143112 245.473163 
L 108.250023 245.473163 
L 109.444504 245.473163 
L 109.444504 29.820892 
L 109.446106 264.716 
L 109.717552 264.716 
L 109.717552 248.555388 
L 113.56234 248.555388 
L 113.56234 43.853102 
L 113.563995 264.716 
L 113.700378 264.716 
L 113.700378 256.187897 
L 113.780441 256.187897 
L 117.815704 256.187897 
L 117.815704 44.616916 
L 117.817322 264.716 
L 117.953438 264.716 
L 117.953438 256.203353 
L 118.033775 256.203353 
L 123.205093 256.203353 
L 123.206718 51.022046 
L 123.206718 264.716 
L 123.396973 264.716 
L 123.396973 253.143584 
L 123.423164 253.143584 
L 127.566429 253.143584 
L 127.566429 45.225855 
L 127.568115 264.716 
L 127.704529 264.716 
L 127.704529 256.185855 
L 127.784561 256.185855 
L 128.924767 256.185855 
L 128.924767 93.20006 
L 129.116882 93.20006 
L 129.116882 29.377681 
L 129.118431 264.716 
L 129.417137 264.716 
L 129.417137 247.015004 
L 129.690147 247.015004 
L 129.690147 36.465769 
L 129.767784 36.465769 
L 131.924683 36.465769 
L 131.924683 264.716 
L 132.23629 264.716 
L 132.23629 246.285641 
L 132.401291 246.285641 
L 132.401291 33.800292 
L 134.25798 33.800292 
L 134.25798 264.716 
L 134.568535 264.716 
L 134.568535 246.345716 
L 134.706635 246.345716 
L 134.706635 36.04256 
L 136.989273 36.04256 
L 136.989273 264.716 
L 137.27964 264.716 
L 137.27964 247.486276 
L 137.444534 247.486276 
L 137.444534 48.24158 
L 141.883987 48.24158 
L 141.883987 264.716 
L 142.209183 264.716 
L 142.238716 32.227247 
L 142.316895 32.227247 
L 143.938484 32.227247 
L 143.938484 264.716 
L 144.2435 264.716 
L 144.2435 246.658342 
L 144.381561 246.658342 
L 144.381561 39.803652 
L 147.33654 39.803652 
L 147.33654 264.716 
L 147.631134 264.716 
L 147.631134 247.247433 
L 147.823029 247.247433 
L 147.823029 43.844115 
L 151.451447 43.844115 
L 151.451447 264.716 
L 151.803078 264.716 
L 151.83284 22.796 
L 151.834396 264.716 
L 165.471909 264.716 
L 165.471909 97.534231 
L 165.473755 264.716 
L 165.609566 264.716 
L 165.609566 256.220267 
L 165.690208 256.220267 
L 166.342896 256.220267 
L 166.342896 121.129272 
L 166.507858 121.129272 
L 166.507858 26.475992 
L 166.509399 264.716 
L 170.244522 264.716 
L 170.244522 52.819972 
L 170.409508 52.819972 
L 170.409508 42.634585 
L 170.411171 264.716 
L 172.955208 264.716 
L 172.955208 120.129065 
L 173.008568 120.129065 
L 173.120415 120.129065 
L 173.120415 35.920461 
L 173.121956 264.716 
L 175.233276 264.716 
L 175.233276 144.582723 
L 175.286461 144.582723 
L 175.398598 144.582723 
L 175.398598 33.481419 
L 175.400146 264.716 
L 179.784241 264.716 
L 179.784241 45.363302 
L 179.785965 264.716 
L 179.922348 264.716 
L 179.922348 256.188188 
L 180.002419 256.188188 
L 184.065193 256.188188 
L 184.065193 44.772053 
L 184.069252 264.716 
L 184.229477 264.716 
L 184.229477 254.84028 
L 184.285698 254.84028 
L 184.908615 254.84028 
L 184.908615 107.600125 
L 184.935051 107.600125 
L 185.046478 107.600125 
L 185.046478 26.155331 
L 185.04808 264.716 
L 188.864296 264.716 
L 188.864296 48.237609 
L 188.944183 48.237609 
L 189.001991 48.237609 
L 189.001991 42.937905 
L 189.00367 264.716 
L 189.897697 264.716 
L 189.897697 213.372706 
L 190.062729 213.372706 
L 190.062729 26.616669 
L 190.064308 264.716 
L 192.581566 264.716 
L 192.581566 121.642618 
L 192.661705 121.642618 
L 192.746597 121.642618 
L 192.746597 35.768525 
L 192.748177 264.716 
L 193.669182 264.716 
L 193.669182 211.848071 
L 193.834236 211.848071 
L 193.834236 26.768925 
L 193.835777 264.716 
L 194.486145 264.716 
L 194.486145 227.142543 
L 194.624092 227.142543 
L 194.624092 25.090234 
L 194.626167 264.716 
L 198.36068 264.716 
L 198.36068 52.854967 
L 198.525627 52.854967 
L 198.525627 42.630919 
L 198.527206 264.716 
L 198.934433 264.716 
L 198.934433 240.882342 
L 198.960106 240.882342 
L 201.344887 240.882342 
L 201.344887 36.531844 
L 201.346458 264.716 
L 201.672585 264.716 
L 201.672585 245.465581 
L 201.779358 245.465581 
L 202.649017 245.465581 
L 202.649017 27.989537 
L 202.650627 264.716 
L 202.976646 264.716 
L 202.976646 245.471122 
L 203.083527 245.471122 
L 203.168625 245.471122 
L 203.168625 23.566186 
L 203.170189 264.716 
L 203.468971 264.716 
L 203.468971 247.01063 
L 203.634102 247.01063 
L 203.634102 42.509383 
L 207.048294 42.509383 
L 207.048294 264.716 
L 207.34317 264.716 
L 207.34317 247.231393 
L 207.50824 247.231393 
L 207.50824 45.167155 
L 211.397713 45.167155 
L 211.397713 264.716 
L 211.704643 264.716 
L 211.734627 44.613901 
L 212.034874 44.613901 
L 212.034874 24.238029 
L 212.03643 264.716 
L 225.646622 264.716 
L 225.646622 97.3802 
L 225.648552 264.716 
L 225.838486 264.716 
L 225.838486 253.161956 
L 225.865005 253.161956 
L 226.084976 253.161956 
L 226.084976 111.870335 
L 241.828857 111.870335 
L 241.828857 264.716 
L 242.158997 264.716 
L 242.158997 245.238402 
L 242.261757 245.238402 
L 242.567345 245.238402 
L 242.567345 24.809347 
L 242.568977 264.716 
L 242.894669 264.716 
L 242.894669 245.489786 
L 243.001877 245.489786 
L 243.059547 245.489786 
L 243.059547 24.238295 
L 243.20639 24.238295 
L 243.20639 264.716 
L 243.522293 264.716 
L 243.522293 246.043006 
L 243.660316 246.043006 
L 243.660316 32.407391 
L 245.292854 32.407391 
L 245.292854 264.716 
L 245.611221 264.716 
L 245.611221 245.90419 
L 245.748901 245.90419 
L 245.748901 30.757929 
L 247.086792 30.757929 
L 247.086792 264.716 
L 247.402321 264.716 
L 247.402321 246.064003 
L 247.594376 246.064003 
L 247.594376 29.606491 
L 248.676552 29.606491 
L 248.676552 264.716 
L 249.003822 264.716 
L 249.003822 245.400839 
L 249.109451 245.400839 
L 249.141754 245.400839 
L 249.141754 24.691466 
L 249.394402 24.691466 
L 249.394402 264.716 
L 250.443382 264.716 
L 250.443382 204.61626 
L 250.476654 204.61626 
L 250.581429 204.61626 
L 250.581429 27.338148 
L 250.582977 264.716 
L 253.938995 264.716 
L 253.938995 74.243898 
L 254.046181 74.243898 
L 254.076973 74.243898 
L 254.076973 40.344919 
L 254.078545 264.716 
L 256.189949 264.716 
L 256.189949 144.577765 
L 256.24305 144.577765 
L 256.327728 144.577765 
L 256.327728 33.326661 
L 256.329292 264.716 
L 262.174545 264.716 
L 262.174545 53.601328 
L 262.176247 264.716 
L 262.312584 264.716 
L 262.312584 256.19023 
L 262.392693 256.19023 
L 265.67012 256.19023 
L 265.67012 40.34425 
L 265.671768 264.716 
L 265.808411 264.716 
L 265.808411 256.173315 
L 265.888214 256.173315 
L 269.328148 256.173315 
L 269.328148 41.260436 
L 269.329842 264.716 
L 269.709755 264.716 
L 269.709755 242.426225 
L 269.762749 242.426225 
L 275.637688 242.426225 
L 275.637688 56.209415 
L 275.639359 264.716 
L 275.80278 264.716 
L 275.80278 254.660053 
L 275.855804 254.660053 
L 276.914574 254.660053 
L 276.914574 80.983071 
L 276.938057 80.983071 
L 277.079735 80.983071 
L 277.081299 28.766589 
L 277.081299 264.716 
L 280.84343 264.716 
L 280.84343 51.293878 
L 281.008057 51.293878 
L 281.008057 42.784834 
L 281.009712 264.716 
L 281.49791 264.716 
L 281.49791 236.306395 
L 283.259415 236.306395 
L 283.259415 33.32957 
L 283.260986 264.716 
L 283.559685 264.716 
L 283.559685 247.015296 
L 286.673882 247.015296 
L 286.673882 39.887655 
L 286.675476 264.716 
L 286.947205 264.716 
L 286.947205 248.53964 
L 288.62709 248.53964 
L 288.62709 31.648901 
L 288.628685 264.716 
L 288.95443 264.716 
L 288.95443 245.487161 
L 289.061584 245.487161 
L 289.092445 245.487161 
L 289.092445 25.724958 
L 289.529587 25.724958 
L 289.529587 264.716 
L 289.852844 264.716 
L 289.852844 245.627435 
L 289.962486 245.627435 
L 290.018036 245.627435 
L 290.018036 25.875773 
L 290.457428 25.875773 
L 290.457428 264.716 
L 290.778023 264.716 
L 290.778023 245.778207 
L 290.970459 245.778207 
L 290.970459 26.149024 
L 291.433594 26.149024 
L 291.433594 264.716 
L 291.73037 264.716 
L 291.73037 247.123782 
L 291.868652 247.123782 
L 291.868652 45.387174 
L 295.822289 45.387174 
L 295.822289 264.716 
L 296.118988 264.716 
L 296.148697 51.575346 
L 301.308273 51.575346 
L 301.308273 264.716 
L 301.61673 264.716 
L 301.61673 246.463826 
L 302.241547 246.463826 
L 302.241547 25.907525 
L 302.243126 264.716 
L 302.569199 264.716 
L 302.569199 245.468205 
L 302.676025 245.468205 
L 302.734177 245.468205 
L 302.734177 23.973579 
L 302.833458 264.716 
L 303.142471 264.716 
L 303.142471 246.432622 
L 303.307709 246.432622 
L 303.307709 35.553763 
L 305.477959 35.553763 
L 305.477959 264.716 
L 305.799469 264.716 
L 305.799469 245.726588 
L 305.937431 245.726588 
L 305.937431 28.60655 
L 306.890038 28.60655 
L 306.890038 264.716 
L 307.211739 264.716 
L 307.211739 245.715506 
L 307.37693 245.715506 
L 307.37693 26.934385 
L 308.005814 26.934385 
L 308.005814 264.716 
L 308.299377 264.716 
L 308.299377 247.305467 
L 308.464325 247.305467 
L 308.464325 46.064464 
L 312.51458 46.064464 
L 312.51458 264.716 
L 312.82325 264.716 
L 312.852829 43.455023 
L 316.560555 43.455023 
L 316.560555 264.716 
L 316.859871 264.716 
L 316.889793 49.788908 
L 321.72982 49.788908 
L 321.72982 264.716 
L 322.033119 264.716 
L 322.033119 246.755455 
L 322.955765 246.755455 
L 322.955765 27.557586 
L 322.957352 264.716 
L 323.256004 264.716 
L 323.256004 247.018212 
L 323.420906 247.018212 
L 323.420906 42.613378 
L 326.853806 42.613378 
L 326.853806 264.716 
L 327.15728 264.716 
L 327.15728 246.745248 
L 327.295364 246.745248 
L 327.295364 40.847072 
L 330.437088 40.847072 
L 330.437088 264.716 
L 330.734314 264.716 
L 330.734314 247.09841 
L 330.89933 247.09841 
L 330.89933 43.571488 
L 334.503647 43.571488 
L 334.503647 264.716 
L 334.797913 264.716 
L 334.797913 247.265805 
L 334.963135 247.265805 
L 334.963135 45.572442 
L 338.924843 45.572442 
L 338.924843 264.716 
L 339.240616 264.716 
L 339.270187 38.623919 
L 342.113701 38.623919 
L 342.113701 264.716 
L 342.438774 264.716 
L 342.438774 245.525073 
L 342.5466 245.525073 
L 343.415161 245.525073 
L 343.415161 27.983369 
L 343.416748 264.716 
L 343.688667 264.716 
L 343.688667 248.528849 
L 343.853523 248.528849 
L 343.853523 60.77866 
L 350.535049 60.77866 
L 350.535049 264.716 
L 350.839554 264.716 
L 350.869164 46.279647 
L 355.082008 46.279647 
L 355.082008 264.716 
L 355.390175 264.716 
L 355.44693 42.259418 
L 358.91597 42.259418 
L 358.91597 264.716 
L 359.210403 264.716 
L 359.240059 53.121037 
L 364.676231 53.121037 
L 364.676231 264.716 
L 364.978645 264.716 
L 365.035454 46.162816 
L 369.202293 46.162816 
L 369.202293 264.716 
L 369.502602 264.716 
L 369.559235 47.606519 
L 373.984352 47.606519 
L 373.984352 264.716 
L 374.296715 264.716 
L 374.296715 246.243063 
L 375.327805 246.243063 
L 375.329399 28.22009 
L 375.329399 264.716 
L 375.627998 264.716 
L 375.627998 247.020545 
L 375.793159 247.020545 
L 375.793159 42.627431 
L 377.277451 42.627431 
L 377.277451 42.627431 
" style="fill:none;stroke:#0000ff;stroke-linecap:square;stroke-width:1.5;"/>
   </g>
   <g id="line2d_20">
    <path clip-path="url(#p4f616fda64)" d="M 52.698357 264.716 
L 52.914803 203.020452 
L 81.928627 203.020452 
L 81.928627 185.442574 
L 81.931984 264.716 
L 83.716805 264.716 
L 83.716805 163.033202 
L 84.558273 163.033202 
L 84.558273 35.452781 
L 84.560036 264.716 
L 84.858643 264.716 
L 84.858643 247.020545 
L 91.300499 247.020545 
L 91.300499 58.648544 
L 91.302315 264.716 
L 91.465599 264.716 
L 91.465599 254.667636 
L 91.518761 254.667636 
L 93.659943 254.667636 
L 93.659943 33.938043 
L 93.661659 264.716 
L 93.879082 264.716 
L 93.879082 251.60845 
L 99.482491 251.60845 
L 99.482491 53.463649 
L 99.484261 264.716 
L 100.188683 264.716 
L 100.188683 224.087732 
L 100.353706 224.087732 
L 100.353706 25.547615 
L 100.355392 264.716 
L 100.681091 264.716 
L 100.681091 245.489786 
L 100.7883 245.489786 
L 101.008133 245.489786 
L 101.008133 24.325839 
L 101.009827 264.716 
L 101.335663 264.716 
L 101.335663 245.481912 
L 101.442734 245.481912 
L 103.475769 245.481912 
L 103.475769 34.548728 
L 103.477585 264.716 
L 103.776131 264.716 
L 103.776131 247.023753 
L 103.940956 247.023753 
L 103.940956 42.684664 
L 107.386971 42.684664 
L 107.386971 264.716 
L 107.704475 264.716 
L 107.704475 245.952601 
L 107.869766 245.952601 
L 107.869766 29.77947 
L 109.007416 29.77947 
L 109.007416 264.716 
L 109.306519 264.716 
L 109.306519 246.992549 
L 109.444183 246.992549 
L 109.444183 43.84404 
L 113.122078 43.84404 
L 113.122078 264.716 
L 113.424423 264.716 
L 113.508377 44.677354 
L 117.384743 44.677354 
L 117.384743 264.716 
L 117.677635 264.716 
L 117.761459 51.108194 
L 122.787964 51.108194 
L 122.787964 264.716 
L 123.09417 264.716 
L 123.12384 45.122281 
L 127.12941 45.122281 
L 127.12941 264.716 
L 127.428711 264.716 
L 127.428711 246.981175 
L 127.837082 246.981175 
L 127.837082 28.409906 
L 128.506866 28.409906 
L 128.506866 264.716 
L 128.840782 264.716 
L 128.840782 245.024929 
L 128.939766 245.024929 
L 128.97879 245.024929 
L 128.97879 23.306421 
L 128.980476 264.716 
L 129.41423 264.716 
L 129.41423 239.38337 
L 131.798035 239.38337 
L 131.798035 36.531146 
L 131.799782 264.716 
L 132.125702 264.716 
L 132.125702 245.477246 
L 132.232681 245.477246 
L 134.130363 245.477246 
L 134.130363 33.785554 
L 134.132111 264.716 
L 134.430763 264.716 
L 134.430763 247.017629 
L 136.868629 247.017629 
L 136.868629 36.07426 
L 136.870369 264.716 
L 137.168549 264.716 
L 137.168549 247.04475 
L 141.771141 247.04475 
L 141.771141 48.276367 
L 141.772903 264.716 
L 143.829872 264.716 
L 143.829872 147.654157 
L 143.937408 147.654157 
L 143.967728 147.654157 
L 143.967728 33.02014 
L 143.969444 264.716 
L 147.217476 264.716 
L 147.217476 80.345939 
L 147.382309 80.345939 
L 147.382309 39.88748 
L 147.38398 264.716 
L 151.335327 264.716 
L 151.335327 42.923503 
L 151.337143 264.716 
L 151.554466 264.716 
L 151.554466 251.61399 
L 151.719658 251.61399 
L 151.719658 97.852899 
L 151.770042 97.852899 
L 165.031227 97.852899 
L 165.031227 264.716 
L 165.331322 264.716 
L 165.331322 246.936265 
L 165.929222 246.936265 
L 165.929222 25.708629 
L 165.930931 264.716 
L 166.229599 264.716 
L 166.229599 247.017046 
L 166.394737 247.017046 
L 166.394737 42.58623 
L 169.822586 42.58623 
L 169.822586 264.716 
L 170.131073 264.716 
L 170.131073 246.462368 
L 170.296333 246.462368 
L 170.296333 35.910531 
L 172.530197 35.910531 
L 172.530197 264.716 
L 172.84214 264.716 
L 172.84214 246.266976 
L 173.007065 246.266976 
L 173.007065 33.580263 
L 174.824722 33.580263 
L 174.824722 264.716 
L 175.120461 264.716 
L 175.120461 247.182691 
L 175.258385 247.182691 
L 175.258385 46.115861 
L 179.342377 46.115861 
L 179.342377 264.716 
L 179.646782 264.716 
L 179.703568 44.807043 
L 183.627808 44.807043 
L 183.627808 264.716 
L 183.927406 264.716 
L 183.927406 246.964553 
L 184.470779 246.964553 
L 184.470779 25.398413 
L 184.472839 264.716 
L 184.771194 264.716 
L 184.771194 247.034543 
L 184.936058 247.034543 
L 184.936058 42.812356 
L 188.404655 42.812356 
L 188.404655 264.716 
L 188.726685 264.716 
L 188.726685 245.696842 
L 188.837555 245.696842 
L 188.892044 245.696842 
L 188.892044 26.700941 
L 189.478745 26.700941 
L 189.478745 264.716 
L 189.787567 264.716 
L 189.787567 246.44312 
L 189.952461 246.44312 
L 189.952461 35.699821 
L 192.149254 35.699821 
L 192.149254 264.716 
L 192.471199 264.716 
L 192.471199 245.7018 
L 192.582161 245.7018 
L 192.636467 245.7018 
L 192.636467 26.765506 
L 193.234749 26.765506 
L 193.234749 264.716 
L 193.55896 264.716 
L 193.55896 245.573483 
L 193.667648 245.573483 
L 193.724106 245.573483 
L 193.724106 25.229731 
L 194.047974 25.229731 
L 194.047974 264.716 
L 194.34903 264.716 
L 194.34903 246.882022 
L 194.487183 246.882022 
L 194.487183 42.48803 
L 197.922127 42.48803 
L 197.922127 264.716 
L 198.250641 264.716 
L 198.250641 245.330265 
L 198.355026 245.330265 
L 198.388634 245.330265 
L 198.388634 23.839732 
L 198.489143 264.716 
L 201.069954 264.716 
L 201.069954 118.05121 
L 201.086548 118.05121 
L 201.234802 118.05121 
L 201.234802 36.125788 
L 201.236504 264.716 
L 202.374031 264.716 
L 202.374031 199.612493 
L 202.538803 199.612493 
L 202.538803 27.988112 
L 202.540504 264.716 
L 202.893539 264.716 
L 202.893539 243.944736 
L 202.973404 243.944736 
L 203.058464 243.944736 
L 203.058464 23.565953 
L 203.06015 264.716 
L 203.358917 264.716 
L 203.358917 247.011505 
L 206.932991 247.011505 
L 206.935379 42.480845 
L 206.935379 264.716 
L 207.23317 264.716 
L 207.23317 247.066623 
L 211.267044 247.066623 
L 211.267044 45.067721 
L 211.26889 264.716 
L 211.459419 264.716 
L 211.459419 253.128127 
L 211.485336 253.128127 
L 211.92186 253.128127 
L 211.92186 99.259813 
L 225.21286 99.259813 
L 225.21286 264.716 
L 225.5345 264.716 
L 225.563522 34.67167 
L 225.647453 34.67167 
L 225.647453 23.095916 
L 225.649132 264.716 
L 241.721809 264.716 
L 241.721809 111.263761 
L 241.724403 264.716 
L 242.292587 264.716 
L 242.292587 231.78644 
L 242.373756 231.78644 
L 242.457466 231.78644 
L 242.457466 24.778738 
L 242.459152 264.716 
L 242.784782 264.716 
L 242.784782 245.493285 
L 242.892052 245.493285 
L 243.084991 245.493285 
L 243.084991 24.174193 
L 243.086739 264.716 
L 243.385315 264.716 
L 243.385315 247.022003 
L 245.174232 247.022003 
L 245.174232 32.415071 
L 245.17601 264.716 
L 245.474419 264.716 
L 245.474419 247.031336 
L 246.965073 247.031336 
L 246.965073 30.732481 
L 246.966797 264.716 
L 247.292313 264.716 
L 247.292313 245.499993 
L 247.399704 245.499993 
L 248.56665 245.499993 
L 248.568375 29.665668 
L 248.568375 264.716 
L 248.867203 264.716 
L 248.867203 247.008297 
L 249.275436 247.008297 
L 249.275436 28.743283 
L 250.004822 28.743283 
L 250.004822 264.716 
L 250.30909 264.716 
L 250.30909 246.70092 
L 250.447472 246.70092 
L 250.447472 40.2972 
L 253.490501 40.2972 
L 253.490501 264.716 
L 253.804771 264.716 
L 253.804771 246.135452 
L 253.942741 246.135452 
L 253.942741 33.522097 
L 255.774521 33.522097 
L 255.774521 264.716 
L 256.056061 264.716 
L 256.056061 247.98467 
L 256.22139 247.98467 
L 256.22139 54.209358 
L 261.727638 54.209358 
L 261.727638 264.716 
L 262.040848 264.716 
L 262.07048 40.363053 
L 265.224922 40.363053 
L 265.224922 264.716 
L 265.536491 264.716 
L 265.565918 41.489723 
L 268.922241 41.489723 
L 268.922241 264.716 
L 269.19426 264.716 
L 269.19426 248.523017 
L 269.440491 248.523017 
L 269.440491 56.110131 
L 275.212563 56.110131 
L 275.212563 264.716 
L 275.503929 264.716 
L 275.503929 247.429701 
L 276.480591 247.429701 
L 276.480591 27.79486 
L 276.482323 264.716 
L 276.78067 264.716 
L 276.78067 247.035127 
L 276.945992 247.035127 
L 276.945992 42.793122 
L 280.410728 42.793122 
L 280.410728 264.716 
L 280.736397 264.716 
L 280.736397 245.491244 
L 280.843628 245.491244 
L 280.901314 245.491244 
L 280.901314 24.254077 
L 281.050774 24.254077 
L 281.050774 264.716 
L 282.987488 264.716 
L 282.987488 154.4494 
L 282.998825 154.4494 
L 283.125374 154.4494 
L 283.125374 32.342362 
L 283.127052 264.716 
L 286.374863 264.716 
L 286.374863 80.358771 
L 286.539894 80.358771 
L 286.539894 39.887364 
L 286.54158 264.716 
L 288.355461 264.716 
L 288.355461 161.39104 
L 288.520332 161.39104 
L 288.520332 31.801972 
L 288.522018 264.716 
L 288.820808 264.716 
L 288.820808 247.010338 
L 289.41851 247.010338 
L 289.41851 25.700133 
L 289.420296 264.716 
L 289.746002 264.716 
L 289.746002 245.488911 
L 289.853195 245.488911 
L 290.343887 245.488911 
L 290.343887 25.852942 
L 290.345589 264.716 
L 290.671501 264.716 
L 290.671501 245.477537 
L 290.778496 245.477537 
L 291.296524 245.477537 
L 291.296524 26.00709 
L 291.302147 264.716 
L 291.59668 264.716 
L 291.59668 247.25064 
L 295.712128 247.25064 
L 295.712128 45.509244 
L 295.713898 264.716 
L 295.85009 264.716 
L 295.85009 256.198687 
L 295.930344 256.198687 
L 301.182671 256.198687 
L 301.184418 51.478757 
L 301.184418 264.716 
L 301.942802 264.716 
L 301.942802 221.038461 
L 302.050224 221.038461 
L 302.134941 221.038461 
L 302.134941 26.004733 
L 302.13662 264.716 
L 302.462334 264.716 
L 302.462334 245.488911 
L 302.569519 245.488911 
L 302.708534 245.488911 
L 302.708534 23.870146 
L 302.710228 264.716 
L 303.009109 264.716 
L 303.009109 247.005089 
L 305.365723 247.005089 
L 305.365723 35.617403 
L 305.367424 264.716 
L 305.665688 264.716 
L 305.665688 247.040084 
L 306.777962 247.040084 
L 306.777962 28.598301 
L 306.779655 264.716 
L 307.105103 264.716 
L 307.105103 245.503784 
L 307.212555 245.503784 
L 307.865662 245.503784 
L 307.865662 26.768634 
L 307.867386 264.716 
L 308.192741 264.716 
L 308.192741 245.508742 
L 308.300285 245.508742 
L 312.389183 245.508742 
L 312.389183 46.139684 
L 312.391006 264.716 
L 312.527328 264.716 
L 312.527328 256.191396 
L 312.607452 256.191396 
L 316.426254 256.191396 
L 316.426254 43.396537 
L 316.427994 264.716 
L 316.618088 264.716 
L 316.618088 253.152624 
L 316.644447 253.152624 
L 321.599411 253.152624 
L 321.599411 49.802219 
L 321.601173 264.716 
L 321.76429 264.716 
L 321.76429 254.677259 
L 321.817627 254.677259 
L 322.822319 254.677259 
L 322.822319 84.228132 
L 322.899872 84.228132 
L 322.987068 84.228132 
L 322.987068 28.4594 
L 322.988754 264.716 
L 326.723793 264.716 
L 326.723793 52.82493 
L 326.888718 52.82493 
L 326.888718 42.633741 
L 326.890419 264.716 
L 330.3004 264.716 
L 330.3004 71.194336 
L 330.353622 71.194336 
L 330.465691 71.194336 
L 330.465691 40.803114 
L 330.467377 264.716 
L 334.364265 264.716 
L 334.364265 43.678576 
L 334.52951 43.678576 
L 334.52951 43.548095 
L 334.531235 264.716 
L 338.807083 264.716 
L 338.807083 44.752995 
L 338.808891 264.716 
L 338.998886 264.716 
L 338.998886 253.158165 
L 339.025345 253.158165 
L 342.005066 253.158165 
L 342.005066 38.665791 
L 342.006844 264.716 
L 343.14402 264.716 
L 343.14402 199.632032 
L 343.282028 199.632032 
L 343.282028 27.835244 
L 343.283714 264.716 
L 343.582443 264.716 
L 343.582443 247.013546 
L 350.403099 247.013546 
L 350.403099 60.784936 
L 350.404915 264.716 
L 350.568199 264.716 
L 350.568199 254.667636 
L 350.621368 254.667636 
L 354.953987 254.667636 
L 354.953987 46.293454 
L 354.955742 264.716 
L 355.17318 264.716 
L 355.17318 251.607575 
L 358.801224 251.607575 
L 358.801224 42.326581 
L 358.803032 264.716 
L 358.939125 264.716 
L 358.939125 256.204519 
L 359.019485 256.204519 
L 364.569611 256.204519 
L 364.569611 53.157768 
L 364.571373 264.716 
L 364.761848 264.716 
L 364.761848 253.131043 
L 364.787819 253.131043 
L 369.093529 253.131043 
L 369.093529 46.141721 
L 369.095245 264.716 
L 369.231476 264.716 
L 369.231476 256.196937 
L 369.311699 256.196937 
L 373.860909 256.196937 
L 373.860909 47.514561 
L 373.863365 264.716 
L 374.025589 264.716 
L 374.025589 254.72742 
L 374.079811 254.72742 
L 375.191811 254.72742 
L 375.191811 78.71751 
L 375.357018 78.71751 
L 375.357018 29.066942 
L 375.358704 264.716 
L 377.306755 264.716 
L 377.306755 264.716 
" style="fill:none;stroke:#008000;stroke-linecap:square;stroke-width:1.5;"/>
   </g>
   <g id="patch_3">
    <path d="M 36.465625 276.812 
L 36.465625 10.7 
" style="fill:none;stroke:#000000;stroke-linecap:square;stroke-linejoin:miter;stroke-width:0.8;"/>
   </g>
   <g id="patch_4">
    <path d="M 393.585625 276.812 
L 393.585625 10.7 
" style="fill:none;stroke:#000000;stroke-linecap:square;stroke-linejoin:miter;stroke-width:0.8;"/>
   </g>
   <g id="patch_5">
    <path d="M 36.465622 276.812 
L 393.585625 276.812 
" style="fill:none;stroke:#000000;stroke-linecap:square;stroke-linejoin:miter;stroke-width:0.8;"/>
   </g>
   <g id="patch_6">
    <path d="M 36.465622 10.7 
L 393.585625 10.7 
" style="fill:none;stroke:#000000;stroke-linecap:square;stroke-linejoin:miter;stroke-width:0.8;"/>
   </g>
  </g>
 </g>
 <defs>
  <clipPath id="p4f616fda64">
   <rect height="266.112" width="357.12" x="36.465625" y="10.7"/>
  </clipPath>
 </defs>
</svg>
