<?xml version="1.0" encoding="utf-8" standalone="no"?>
<!DOCTYPE svg PUBLIC "-//W3C//DTD SVG 1.1//EN"
  "http://www.w3.org/Graphics/SVG/1.1/DTD/svg11.dtd">
<!-- Created with matplotlib (https://matplotlib.org/) -->
<svg height="313.36825pt" version="1.1" viewBox="0 0 404.285625 313.36825" width="404.285625pt" xmlns="http://www.w3.org/2000/svg" xmlns:xlink="http://www.w3.org/1999/xlink">
 <defs>
  <style type="text/css">
*{stroke-linecap:butt;stroke-linejoin:round;}
  </style>
 </defs>
 <g id="figure_1">
  <g id="patch_1">
   <path d="M 0 313.36825 
L 404.285625 313.36825 
L 404.285625 0 
L 0 0 
z
" style="fill:#ffffff;"/>
  </g>
  <g id="axes_1">
   <g id="patch_2">
    <path d="M 36.465625 276.812 
L 393.585625 276.812 
L 393.585625 10.7 
L 36.465625 10.7 
z
" style="fill:#ffffff;"/>
   </g>
   <g id="matplotlib.axis_1">
    <g id="xtick_1">
     <g id="line2d_1">
      <defs>
       <path d="M 0 0 
L 0 3.5 
" id="mc82efd981d" style="stroke:#000000;stroke-width:0.8;"/>
      </defs>
      <g>
       <use style="stroke:#000000;stroke-width:0.8;" x="52.698341" xlink:href="#mc82efd981d" y="276.812"/>
      </g>
     </g>
     <g id="text_1">
      <!-- 62 -->
      <defs>
       <path d="M 33.015625 40.375 
Q 26.375 40.375 22.484375 35.828125 
Q 18.609375 31.296875 18.609375 23.390625 
Q 18.609375 15.53125 22.484375 10.953125 
Q 26.375 6.390625 33.015625 6.390625 
Q 39.65625 6.390625 43.53125 10.953125 
Q 47.40625 15.53125 47.40625 23.390625 
Q 47.40625 31.296875 43.53125 35.828125 
Q 39.65625 40.375 33.015625 40.375 
z
M 52.59375 71.296875 
L 52.59375 62.3125 
Q 48.875 64.0625 45.09375 64.984375 
Q 41.3125 65.921875 37.59375 65.921875 
Q 27.828125 65.921875 22.671875 59.328125 
Q 17.53125 52.734375 16.796875 39.40625 
Q 19.671875 43.65625 24.015625 45.921875 
Q 28.375 48.1875 33.59375 48.1875 
Q 44.578125 48.1875 50.953125 41.515625 
Q 57.328125 34.859375 57.328125 23.390625 
Q 57.328125 12.15625 50.6875 5.359375 
Q 44.046875 -1.421875 33.015625 -1.421875 
Q 20.359375 -1.421875 13.671875 8.265625 
Q 6.984375 17.96875 6.984375 36.375 
Q 6.984375 53.65625 15.1875 63.9375 
Q 23.390625 74.21875 37.203125 74.21875 
Q 40.921875 74.21875 44.703125 73.484375 
Q 48.484375 72.75 52.59375 71.296875 
z
" id="DejaVuSans-54"/>
       <path d="M 19.1875 8.296875 
L 53.609375 8.296875 
L 53.609375 0 
L 7.328125 0 
L 7.328125 8.296875 
Q 12.9375 14.109375 22.625 23.890625 
Q 32.328125 33.6875 34.8125 36.53125 
Q 39.546875 41.84375 41.421875 45.53125 
Q 43.3125 49.21875 43.3125 52.78125 
Q 43.3125 58.59375 39.234375 62.25 
Q 35.15625 65.921875 28.609375 65.921875 
Q 23.96875 65.921875 18.8125 64.3125 
Q 13.671875 62.703125 7.8125 59.421875 
L 7.8125 69.390625 
Q 13.765625 71.78125 18.9375 73 
Q 24.125 74.21875 28.421875 74.21875 
Q 39.75 74.21875 46.484375 68.546875 
Q 53.21875 62.890625 53.21875 53.421875 
Q 53.21875 48.921875 51.53125 44.890625 
Q 49.859375 40.875 45.40625 35.40625 
Q 44.1875 33.984375 37.640625 27.21875 
Q 31.109375 20.453125 19.1875 8.296875 
z
" id="DejaVuSans-50"/>
      </defs>
      <g transform="translate(46.335841 291.410437)scale(0.1 -0.1)">
       <use xlink:href="#DejaVuSans-54"/>
       <use x="63.623047" xlink:href="#DejaVuSans-50"/>
      </g>
     </g>
    </g>
    <g id="xtick_2">
     <g id="line2d_2">
      <g>
       <use style="stroke:#000000;stroke-width:0.8;" x="95.987236" xlink:href="#mc82efd981d" y="276.812"/>
      </g>
     </g>
     <g id="text_2">
      <!-- 64 -->
      <defs>
       <path d="M 37.796875 64.3125 
L 12.890625 25.390625 
L 37.796875 25.390625 
z
M 35.203125 72.90625 
L 47.609375 72.90625 
L 47.609375 25.390625 
L 58.015625 25.390625 
L 58.015625 17.1875 
L 47.609375 17.1875 
L 47.609375 0 
L 37.796875 0 
L 37.796875 17.1875 
L 4.890625 17.1875 
L 4.890625 26.703125 
z
" id="DejaVuSans-52"/>
      </defs>
      <g transform="translate(89.624736 291.410437)scale(0.1 -0.1)">
       <use xlink:href="#DejaVuSans-54"/>
       <use x="63.623047" xlink:href="#DejaVuSans-52"/>
      </g>
     </g>
    </g>
    <g id="xtick_3">
     <g id="line2d_3">
      <g>
       <use style="stroke:#000000;stroke-width:0.8;" x="139.276131" xlink:href="#mc82efd981d" y="276.812"/>
      </g>
     </g>
     <g id="text_3">
      <!-- 66 -->
      <g transform="translate(132.913631 291.410437)scale(0.1 -0.1)">
       <use xlink:href="#DejaVuSans-54"/>
       <use x="63.623047" xlink:href="#DejaVuSans-54"/>
      </g>
     </g>
    </g>
    <g id="xtick_4">
     <g id="line2d_4">
      <g>
       <use style="stroke:#000000;stroke-width:0.8;" x="182.565025" xlink:href="#mc82efd981d" y="276.812"/>
      </g>
     </g>
     <g id="text_4">
      <!-- 68 -->
      <defs>
       <path d="M 31.78125 34.625 
Q 24.75 34.625 20.71875 30.859375 
Q 16.703125 27.09375 16.703125 20.515625 
Q 16.703125 13.921875 20.71875 10.15625 
Q 24.75 6.390625 31.78125 6.390625 
Q 38.8125 6.390625 42.859375 10.171875 
Q 46.921875 13.96875 46.921875 20.515625 
Q 46.921875 27.09375 42.890625 30.859375 
Q 38.875 34.625 31.78125 34.625 
z
M 21.921875 38.8125 
Q 15.578125 40.375 12.03125 44.71875 
Q 8.5 49.078125 8.5 55.328125 
Q 8.5 64.0625 14.71875 69.140625 
Q 20.953125 74.21875 31.78125 74.21875 
Q 42.671875 74.21875 48.875 69.140625 
Q 55.078125 64.0625 55.078125 55.328125 
Q 55.078125 49.078125 51.53125 44.71875 
Q 48 40.375 41.703125 38.8125 
Q 48.828125 37.15625 52.796875 32.3125 
Q 56.78125 27.484375 56.78125 20.515625 
Q 56.78125 9.90625 50.3125 4.234375 
Q 43.84375 -1.421875 31.78125 -1.421875 
Q 19.734375 -1.421875 13.25 4.234375 
Q 6.78125 9.90625 6.78125 20.515625 
Q 6.78125 27.484375 10.78125 32.3125 
Q 14.796875 37.15625 21.921875 38.8125 
z
M 18.3125 54.390625 
Q 18.3125 48.734375 21.84375 45.5625 
Q 25.390625 42.390625 31.78125 42.390625 
Q 38.140625 42.390625 41.71875 45.5625 
Q 45.3125 48.734375 45.3125 54.390625 
Q 45.3125 60.0625 41.71875 63.234375 
Q 38.140625 66.40625 31.78125 66.40625 
Q 25.390625 66.40625 21.84375 63.234375 
Q 18.3125 60.0625 18.3125 54.390625 
z
" id="DejaVuSans-56"/>
      </defs>
      <g transform="translate(176.202525 291.410437)scale(0.1 -0.1)">
       <use xlink:href="#DejaVuSans-54"/>
       <use x="63.623047" xlink:href="#DejaVuSans-56"/>
      </g>
     </g>
    </g>
    <g id="xtick_5">
     <g id="line2d_5">
      <g>
       <use style="stroke:#000000;stroke-width:0.8;" x="225.85392" xlink:href="#mc82efd981d" y="276.812"/>
      </g>
     </g>
     <g id="text_5">
      <!-- 70 -->
      <defs>
       <path d="M 8.203125 72.90625 
L 55.078125 72.90625 
L 55.078125 68.703125 
L 28.609375 0 
L 18.3125 0 
L 43.21875 64.59375 
L 8.203125 64.59375 
z
" id="DejaVuSans-55"/>
       <path d="M 31.78125 66.40625 
Q 24.171875 66.40625 20.328125 58.90625 
Q 16.5 51.421875 16.5 36.375 
Q 16.5 21.390625 20.328125 13.890625 
Q 24.171875 6.390625 31.78125 6.390625 
Q 39.453125 6.390625 43.28125 13.890625 
Q 47.125 21.390625 47.125 36.375 
Q 47.125 51.421875 43.28125 58.90625 
Q 39.453125 66.40625 31.78125 66.40625 
z
M 31.78125 74.21875 
Q 44.046875 74.21875 50.515625 64.515625 
Q 56.984375 54.828125 56.984375 36.375 
Q 56.984375 17.96875 50.515625 8.265625 
Q 44.046875 -1.421875 31.78125 -1.421875 
Q 19.53125 -1.421875 13.0625 8.265625 
Q 6.59375 17.96875 6.59375 36.375 
Q 6.59375 54.828125 13.0625 64.515625 
Q 19.53125 74.21875 31.78125 74.21875 
z
" id="DejaVuSans-48"/>
      </defs>
      <g transform="translate(219.49142 291.410437)scale(0.1 -0.1)">
       <use xlink:href="#DejaVuSans-55"/>
       <use x="63.623047" xlink:href="#DejaVuSans-48"/>
      </g>
     </g>
    </g>
    <g id="xtick_6">
     <g id="line2d_6">
      <g>
       <use style="stroke:#000000;stroke-width:0.8;" x="269.142807" xlink:href="#mc82efd981d" y="276.812"/>
      </g>
     </g>
     <g id="text_6">
      <!-- 72 -->
      <g transform="translate(262.780307 291.410437)scale(0.1 -0.1)">
       <use xlink:href="#DejaVuSans-55"/>
       <use x="63.623047" xlink:href="#DejaVuSans-50"/>
      </g>
     </g>
    </g>
    <g id="xtick_7">
     <g id="line2d_7">
      <g>
       <use style="stroke:#000000;stroke-width:0.8;" x="312.431702" xlink:href="#mc82efd981d" y="276.812"/>
      </g>
     </g>
     <g id="text_7">
      <!-- 74 -->
      <g transform="translate(306.069202 291.410437)scale(0.1 -0.1)">
       <use xlink:href="#DejaVuSans-55"/>
       <use x="63.623047" xlink:href="#DejaVuSans-52"/>
      </g>
     </g>
    </g>
    <g id="xtick_8">
     <g id="line2d_8">
      <g>
       <use style="stroke:#000000;stroke-width:0.8;" x="355.720596" xlink:href="#mc82efd981d" y="276.812"/>
      </g>
     </g>
     <g id="text_8">
      <!-- 76 -->
      <g transform="translate(349.358096 291.410437)scale(0.1 -0.1)">
       <use xlink:href="#DejaVuSans-55"/>
       <use x="63.623047" xlink:href="#DejaVuSans-54"/>
      </g>
     </g>
    </g>
    <g id="text_9">
     <!-- +1.5961602e9 -->
     <defs>
      <path d="M 46 62.703125 
L 46 35.5 
L 73.1875 35.5 
L 73.1875 27.203125 
L 46 27.203125 
L 46 0 
L 37.796875 0 
L 37.796875 27.203125 
L 10.59375 27.203125 
L 10.59375 35.5 
L 37.796875 35.5 
L 37.796875 62.703125 
z
" id="DejaVuSans-43"/>
      <path d="M 12.40625 8.296875 
L 28.515625 8.296875 
L 28.515625 63.921875 
L 10.984375 60.40625 
L 10.984375 69.390625 
L 28.421875 72.90625 
L 38.28125 72.90625 
L 38.28125 8.296875 
L 54.390625 8.296875 
L 54.390625 0 
L 12.40625 0 
z
" id="DejaVuSans-49"/>
      <path d="M 10.6875 12.40625 
L 21 12.40625 
L 21 0 
L 10.6875 0 
z
" id="DejaVuSans-46"/>
      <path d="M 10.796875 72.90625 
L 49.515625 72.90625 
L 49.515625 64.59375 
L 19.828125 64.59375 
L 19.828125 46.734375 
Q 21.96875 47.46875 24.109375 47.828125 
Q 26.265625 48.1875 28.421875 48.1875 
Q 40.625 48.1875 47.75 41.5 
Q 54.890625 34.8125 54.890625 23.390625 
Q 54.890625 11.625 47.5625 5.09375 
Q 40.234375 -1.421875 26.90625 -1.421875 
Q 22.3125 -1.421875 17.546875 -0.640625 
Q 12.796875 0.140625 7.71875 1.703125 
L 7.71875 11.625 
Q 12.109375 9.234375 16.796875 8.0625 
Q 21.484375 6.890625 26.703125 6.890625 
Q 35.15625 6.890625 40.078125 11.328125 
Q 45.015625 15.765625 45.015625 23.390625 
Q 45.015625 31 40.078125 35.4375 
Q 35.15625 39.890625 26.703125 39.890625 
Q 22.75 39.890625 18.8125 39.015625 
Q 14.890625 38.140625 10.796875 36.28125 
z
" id="DejaVuSans-53"/>
      <path d="M 10.984375 1.515625 
L 10.984375 10.5 
Q 14.703125 8.734375 18.5 7.8125 
Q 22.3125 6.890625 25.984375 6.890625 
Q 35.75 6.890625 40.890625 13.453125 
Q 46.046875 20.015625 46.78125 33.40625 
Q 43.953125 29.203125 39.59375 26.953125 
Q 35.25 24.703125 29.984375 24.703125 
Q 19.046875 24.703125 12.671875 31.3125 
Q 6.296875 37.9375 6.296875 49.421875 
Q 6.296875 60.640625 12.9375 67.421875 
Q 19.578125 74.21875 30.609375 74.21875 
Q 43.265625 74.21875 49.921875 64.515625 
Q 56.59375 54.828125 56.59375 36.375 
Q 56.59375 19.140625 48.40625 8.859375 
Q 40.234375 -1.421875 26.421875 -1.421875 
Q 22.703125 -1.421875 18.890625 -0.6875 
Q 15.09375 0.046875 10.984375 1.515625 
z
M 30.609375 32.421875 
Q 37.25 32.421875 41.125 36.953125 
Q 45.015625 41.5 45.015625 49.421875 
Q 45.015625 57.28125 41.125 61.84375 
Q 37.25 66.40625 30.609375 66.40625 
Q 23.96875 66.40625 20.09375 61.84375 
Q 16.21875 57.28125 16.21875 49.421875 
Q 16.21875 41.5 20.09375 36.953125 
Q 23.96875 32.421875 30.609375 32.421875 
z
" id="DejaVuSans-57"/>
      <path d="M 56.203125 29.59375 
L 56.203125 25.203125 
L 14.890625 25.203125 
Q 15.484375 15.921875 20.484375 11.0625 
Q 25.484375 6.203125 34.421875 6.203125 
Q 39.59375 6.203125 44.453125 7.46875 
Q 49.3125 8.734375 54.109375 11.28125 
L 54.109375 2.78125 
Q 49.265625 0.734375 44.1875 -0.34375 
Q 39.109375 -1.421875 33.890625 -1.421875 
Q 20.796875 -1.421875 13.15625 6.1875 
Q 5.515625 13.8125 5.515625 26.8125 
Q 5.515625 40.234375 12.765625 48.109375 
Q 20.015625 56 32.328125 56 
Q 43.359375 56 49.78125 48.890625 
Q 56.203125 41.796875 56.203125 29.59375 
z
M 47.21875 32.234375 
Q 47.125 39.59375 43.09375 43.984375 
Q 39.0625 48.390625 32.421875 48.390625 
Q 24.90625 48.390625 20.390625 44.140625 
Q 15.875 39.890625 15.1875 32.171875 
z
" id="DejaVuSans-101"/>
     </defs>
     <g transform="translate(318.612188 304.088562)scale(0.1 -0.1)">
      <use xlink:href="#DejaVuSans-43"/>
      <use x="83.789062" xlink:href="#DejaVuSans-49"/>
      <use x="147.412109" xlink:href="#DejaVuSans-46"/>
      <use x="179.199219" xlink:href="#DejaVuSans-53"/>
      <use x="242.822266" xlink:href="#DejaVuSans-57"/>
      <use x="306.445312" xlink:href="#DejaVuSans-54"/>
      <use x="370.068359" xlink:href="#DejaVuSans-49"/>
      <use x="433.691406" xlink:href="#DejaVuSans-54"/>
      <use x="497.314453" xlink:href="#DejaVuSans-48"/>
      <use x="560.9375" xlink:href="#DejaVuSans-50"/>
      <use x="624.560547" xlink:href="#DejaVuSans-101"/>
      <use x="686.083984" xlink:href="#DejaVuSans-57"/>
     </g>
    </g>
   </g>
   <g id="matplotlib.axis_2">
    <g id="ytick_1">
     <g id="line2d_9">
      <defs>
       <path d="M 0 0 
L -3.5 0 
" id="m8eabd5dd0f" style="stroke:#000000;stroke-width:0.8;"/>
      </defs>
      <g>
       <use style="stroke:#000000;stroke-width:0.8;" x="36.465625" xlink:href="#m8eabd5dd0f" y="264.716"/>
      </g>
     </g>
     <g id="text_10">
      <!-- 0.00 -->
      <g transform="translate(7.2 268.515219)scale(0.1 -0.1)">
       <use xlink:href="#DejaVuSans-48"/>
       <use x="63.623047" xlink:href="#DejaVuSans-46"/>
       <use x="95.410156" xlink:href="#DejaVuSans-48"/>
       <use x="159.033203" xlink:href="#DejaVuSans-48"/>
      </g>
     </g>
    </g>
    <g id="ytick_2">
     <g id="line2d_10">
      <g>
       <use style="stroke:#000000;stroke-width:0.8;" x="36.465625" xlink:href="#m8eabd5dd0f" y="234.210526"/>
      </g>
     </g>
     <g id="text_11">
      <!-- 0.25 -->
      <g transform="translate(7.2 238.009744)scale(0.1 -0.1)">
       <use xlink:href="#DejaVuSans-48"/>
       <use x="63.623047" xlink:href="#DejaVuSans-46"/>
       <use x="95.410156" xlink:href="#DejaVuSans-50"/>
       <use x="159.033203" xlink:href="#DejaVuSans-53"/>
      </g>
     </g>
    </g>
    <g id="ytick_3">
     <g id="line2d_11">
      <g>
       <use style="stroke:#000000;stroke-width:0.8;" x="36.465625" xlink:href="#m8eabd5dd0f" y="203.705051"/>
      </g>
     </g>
     <g id="text_12">
      <!-- 0.50 -->
      <g transform="translate(7.2 207.50427)scale(0.1 -0.1)">
       <use xlink:href="#DejaVuSans-48"/>
       <use x="63.623047" xlink:href="#DejaVuSans-46"/>
       <use x="95.410156" xlink:href="#DejaVuSans-53"/>
       <use x="159.033203" xlink:href="#DejaVuSans-48"/>
      </g>
     </g>
    </g>
    <g id="ytick_4">
     <g id="line2d_12">
      <g>
       <use style="stroke:#000000;stroke-width:0.8;" x="36.465625" xlink:href="#m8eabd5dd0f" y="173.199577"/>
      </g>
     </g>
     <g id="text_13">
      <!-- 0.75 -->
      <g transform="translate(7.2 176.998796)scale(0.1 -0.1)">
       <use xlink:href="#DejaVuSans-48"/>
       <use x="63.623047" xlink:href="#DejaVuSans-46"/>
       <use x="95.410156" xlink:href="#DejaVuSans-55"/>
       <use x="159.033203" xlink:href="#DejaVuSans-53"/>
      </g>
     </g>
    </g>
    <g id="ytick_5">
     <g id="line2d_13">
      <g>
       <use style="stroke:#000000;stroke-width:0.8;" x="36.465625" xlink:href="#m8eabd5dd0f" y="142.694102"/>
      </g>
     </g>
     <g id="text_14">
      <!-- 1.00 -->
      <g transform="translate(7.2 146.493321)scale(0.1 -0.1)">
       <use xlink:href="#DejaVuSans-49"/>
       <use x="63.623047" xlink:href="#DejaVuSans-46"/>
       <use x="95.410156" xlink:href="#DejaVuSans-48"/>
       <use x="159.033203" xlink:href="#DejaVuSans-48"/>
      </g>
     </g>
    </g>
    <g id="ytick_6">
     <g id="line2d_14">
      <g>
       <use style="stroke:#000000;stroke-width:0.8;" x="36.465625" xlink:href="#m8eabd5dd0f" y="112.188628"/>
      </g>
     </g>
     <g id="text_15">
      <!-- 1.25 -->
      <g transform="translate(7.2 115.987847)scale(0.1 -0.1)">
       <use xlink:href="#DejaVuSans-49"/>
       <use x="63.623047" xlink:href="#DejaVuSans-46"/>
       <use x="95.410156" xlink:href="#DejaVuSans-50"/>
       <use x="159.033203" xlink:href="#DejaVuSans-53"/>
      </g>
     </g>
    </g>
    <g id="ytick_7">
     <g id="line2d_15">
      <g>
       <use style="stroke:#000000;stroke-width:0.8;" x="36.465625" xlink:href="#m8eabd5dd0f" y="81.683154"/>
      </g>
     </g>
     <g id="text_16">
      <!-- 1.50 -->
      <g transform="translate(7.2 85.482372)scale(0.1 -0.1)">
       <use xlink:href="#DejaVuSans-49"/>
       <use x="63.623047" xlink:href="#DejaVuSans-46"/>
       <use x="95.410156" xlink:href="#DejaVuSans-53"/>
       <use x="159.033203" xlink:href="#DejaVuSans-48"/>
      </g>
     </g>
    </g>
    <g id="ytick_8">
     <g id="line2d_16">
      <g>
       <use style="stroke:#000000;stroke-width:0.8;" x="36.465625" xlink:href="#m8eabd5dd0f" y="51.177679"/>
      </g>
     </g>
     <g id="text_17">
      <!-- 1.75 -->
      <g transform="translate(7.2 54.976898)scale(0.1 -0.1)">
       <use xlink:href="#DejaVuSans-49"/>
       <use x="63.623047" xlink:href="#DejaVuSans-46"/>
       <use x="95.410156" xlink:href="#DejaVuSans-55"/>
       <use x="159.033203" xlink:href="#DejaVuSans-53"/>
      </g>
     </g>
    </g>
    <g id="ytick_9">
     <g id="line2d_17">
      <g>
       <use style="stroke:#000000;stroke-width:0.8;" x="36.465625" xlink:href="#m8eabd5dd0f" y="20.672205"/>
      </g>
     </g>
     <g id="text_18">
      <!-- 2.00 -->
      <g transform="translate(7.2 24.471424)scale(0.1 -0.1)">
       <use xlink:href="#DejaVuSans-50"/>
       <use x="63.623047" xlink:href="#DejaVuSans-46"/>
       <use x="95.410156" xlink:href="#DejaVuSans-48"/>
       <use x="159.033203" xlink:href="#DejaVuSans-48"/>
      </g>
     </g>
    </g>
   </g>
   <g id="line2d_18">
    <path clip-path="url(#p06a9a24df7)" d="M 52.698341 264.716 
L 57.229523 264.716 
L 57.229523 46.213517 
L 57.232956 264.716 
L 57.367264 264.716 
L 57.367264 256.305753 
L 57.449402 256.305753 
L 65.378456 256.305753 
L 65.378456 66.592984 
L 65.380142 264.716 
L 65.570755 264.716 
L 65.570755 253.124137 
L 65.596588 253.124137 
L 69.469238 253.124137 
L 69.469238 43.724759 
L 69.470985 264.716 
L 69.634201 264.716 
L 69.634201 254.672226 
L 69.687431 254.672226 
L 70.610748 254.672226 
L 70.610748 88.777259 
L 70.775871 88.777259 
L 70.775871 28.028597 
L 70.77742 264.716 
L 71.536156 264.716 
L 71.536156 221.021626 
L 71.643196 221.021626 
L 71.674263 221.021626 
L 71.674263 25.728241 
L 71.675835 264.716 
L 77.818306 264.716 
L 77.818306 55.300755 
L 77.820068 264.716 
L 78.632683 264.716 
L 78.632683 217.977352 
L 78.685844 217.977352 
L 78.770882 217.977352 
L 78.770882 26.032459 
L 78.77243 264.716 
L 79.070999 264.716 
L 79.070999 247.023925 
L 82.645164 247.023925 
L 82.645164 42.505007 
L 82.64682 264.716 
L 82.972519 264.716 
L 82.972519 245.49129 
L 83.079712 245.49129 
L 85.572601 245.49129 
L 85.572601 37.166455 
L 85.574211 264.716 
L 85.900017 264.716 
L 85.900017 245.485167 
L 86.007095 245.485167 
L 88.175285 245.485167 
L 88.175285 35.33591 
L 88.17691 264.716 
L 88.475334 264.716 
L 88.475334 247.03209 
L 92.130875 247.03209 
L 92.132561 42.962948 
L 92.132561 264.716 
L 92.457932 264.716 
L 92.457932 245.509661 
L 92.565445 245.509661 
L 93.759384 245.509661 
L 93.760963 29.843519 
L 93.760963 264.716 
L 94.059555 264.716 
L 94.059555 247.02305 
L 96.686783 247.02305 
L 96.686783 37.166688 
L 96.688454 264.716 
L 97.013985 264.716 
L 97.013985 245.500621 
L 97.121338 245.500621 
L 99.803467 245.500621 
L 99.803467 38.23327 
L 99.805115 264.716 
L 100.103729 264.716 
L 100.103729 247.021592 
L 102.866257 247.021592 
L 102.866257 37.929575 
L 102.867874 264.716 
L 103.193642 264.716 
L 103.193642 245.486916 
L 103.300758 245.486916 
L 106.334648 245.486916 
L 106.336266 40.216374 
L 106.336266 264.716 
L 106.634972 264.716 
L 106.634972 247.016343 
L 108.504471 247.016343 
L 108.504471 32.895562 
L 108.506065 264.716 
L 108.832085 264.716 
L 108.832085 245.47292 
L 108.938957 245.47292 
L 109.511131 245.47292 
L 109.511131 26.338306 
L 109.512695 264.716 
L 109.811455 264.716 
L 109.811455 247.013719 
L 114.44046 247.013719 
L 114.44046 48.452779 
L 114.442146 264.716 
L 114.632378 264.716 
L 114.632378 253.146007 
L 114.658592 253.146007 
L 117.908958 253.146007 
L 117.908958 40.216578 
L 117.910591 264.716 
L 118.750252 264.716 
L 118.750252 216.449091 
L 118.776375 216.449091 
L 118.888245 216.449091 
L 118.888245 26.183768 
L 118.889801 264.716 
L 119.188492 264.716 
L 119.188492 247.016927 
L 123.060326 247.016927 
L 123.060326 44.183806 
L 123.061989 264.716 
L 123.198395 264.716 
L 123.198395 256.187656 
L 123.278435 256.187656 
L 128.801216 256.187656 
L 128.801216 53.027454 
L 128.802902 264.716 
L 128.993263 264.716 
L 128.993263 253.138717 
L 129.019348 253.138717 
L 132.026237 253.138717 
L 132.026237 38.843946 
L 132.027878 264.716 
L 132.218422 264.716 
L 132.218422 253.127928 
L 132.244324 253.127928 
L 134.872627 253.127928 
L 134.872627 36.709677 
L 134.874237 264.716 
L 135.199997 264.716 
L 135.199997 245.487791 
L 135.307129 245.487791 
L 135.364822 245.487791 
L 135.364822 24.218242 
L 135.503624 24.218242 
L 135.503624 264.716 
L 135.800285 264.716 
L 135.800285 247.131816 
L 135.9384 247.131816 
L 135.9384 45.493946 
L 139.906662 45.493946 
L 139.906662 264.716 
L 140.18898 264.716 
L 140.218536 61.374451 
L 147.126602 61.374451 
L 147.126602 264.716 
L 147.418076 264.716 
L 147.474693 53.622593 
L 152.971786 53.622593 
L 152.971786 264.716 
L 153.267334 264.716 
L 153.267334 247.194509 
L 154.081627 247.194509 
L 154.081627 26.928996 
L 154.083183 264.716 
L 154.409065 264.716 
L 154.409065 245.480501 
L 154.516068 245.480501 
L 154.573936 245.480501 
L 154.573936 24.128261 
L 154.696388 24.128261 
L 154.696388 264.716 
L 155.009735 264.716 
L 155.009735 246.189082 
L 155.174706 246.189082 
L 155.174706 32.641532 
L 156.819801 32.641532 
L 156.819801 264.716 
L 157.125404 264.716 
L 157.125404 246.626478 
L 157.317535 246.626478 
L 157.317535 36.365742 
L 159.603897 36.365742 
L 159.603897 264.716 
L 159.91745 264.716 
L 159.91745 246.177418 
L 160.055443 246.177418 
L 160.055443 34.025765 
L 161.972885 34.025765 
L 161.972885 264.716 
L 162.249901 264.716 
L 162.249901 248.241926 
L 162.658272 248.241926 
L 162.658272 43.569765 
L 166.034653 43.569765 
L 166.034653 264.716 
L 166.313377 264.716 
L 166.370216 62.276406 
L 173.414635 62.276406 
L 173.414635 264.716 
L 173.731888 264.716 
L 173.791359 22.796 
L 173.792892 264.716 
L 196.412674 264.716 
L 196.412674 148.192632 
L 196.4151 264.716 
L 196.550423 264.716 
L 196.550423 256.248892 
L 196.631546 256.248892 
L 199.231567 256.248892 
L 199.231567 36.550193 
L 199.23317 264.716 
L 199.423744 264.716 
L 199.423744 253.126178 
L 199.449608 253.126178 
L 203.457611 253.126178 
L 203.457611 44.487762 
L 203.459267 264.716 
L 203.676796 264.716 
L 203.676796 251.603458 
L 208.035515 251.603458 
L 208.037178 46.471071 
L 208.037178 264.716 
L 208.254509 264.716 
L 208.254509 251.61483 
L 211.747475 251.61483 
L 211.747475 41.58921 
L 211.7491 264.716 
L 212.04744 264.716 
L 212.04744 247.036755 
L 213.051193 247.036755 
L 213.051193 28.012829 
L 213.052818 264.716 
L 213.405594 264.716 
L 213.405594 243.96128 
L 213.48571 243.96128 
L 216.763329 243.96128 
L 216.763329 41.590432 
L 216.764946 264.716 
L 217.090744 264.716 
L 217.090744 245.485458 
L 217.19783 245.485458 
L 220.123665 245.485458 
L 220.123665 39.607182 
L 220.125328 264.716 
L 220.423714 264.716 
L 220.423714 247.034422 
L 223.456741 247.034422 
L 223.456741 39.453255 
L 223.458344 264.716 
L 223.75721 264.716 
L 223.75721 247.007304 
L 227.114685 247.007304 
L 227.114685 41.285051 
L 227.116325 264.716 
L 227.442078 264.716 
L 227.442078 245.488083 
L 227.549217 245.488083 
L 231.44886 245.488083 
L 231.44886 45.097158 
L 231.450523 264.716 
L 231.587051 264.716 
L 231.587051 256.180366 
L 231.666962 256.180366 
L 231.832932 256.180366 
L 231.832932 148.196842 
L 231.883408 148.196842 
L 248.0149 148.196842 
L 248.0149 114.054898 
L 248.016747 264.716 
L 248.910522 264.716 
L 248.910522 213.391404 
L 249.048386 213.391404 
L 249.048386 26.488131 
L 249.049942 264.716 
L 249.348625 264.716 
L 249.348625 247.017801 
L 252.97673 247.017801 
L 252.97673 42.809719 
L 252.978363 264.716 
L 253.304085 264.716 
L 253.304085 245.489832 
L 253.411247 245.489832 
L 253.468956 245.489832 
L 253.468956 24.239867 
L 253.611603 24.239867 
L 253.611603 264.716 
L 255.906876 264.716 
L 255.906876 134.197706 
L 255.992485 134.197706 
L 256.072098 134.197706 
L 256.072098 34.543407 
L 256.073654 264.716 
L 258.509705 264.716 
L 258.509705 126.243228 
L 258.674782 126.243228 
L 258.674782 35.336201 
L 258.676361 264.716 
L 259.867699 264.716 
L 259.867699 196.57733 
L 259.975029 196.57733 
L 260.005684 196.57733 
L 260.005684 28.166349 
L 260.007248 264.716 
L 265.798386 264.716 
L 265.798386 53.320093 
L 265.800125 264.716 
L 265.963402 264.716 
L 265.963402 254.669018 
L 266.016571 254.669018 
L 266.480316 254.669018 
L 266.480316 114.710375 
L 266.618011 114.710375 
L 266.618011 25.283071 
L 266.61953 264.716 
L 270.381599 264.716 
L 270.381599 51.31443 
L 270.519363 51.31443 
L 270.519363 42.65777 
L 270.520912 264.716 
L 273.065407 264.716 
L 273.065407 120.115023 
L 273.11824 120.115023 
L 273.203072 120.115023 
L 273.203072 35.793038 
L 273.204666 264.716 
L 276.912415 264.716 
L 276.912415 54.384364 
L 277.050697 54.384364 
L 277.050697 42.354425 
L 277.052254 264.716 
L 277.973045 264.716 
L 277.973045 211.86431 
L 278.138176 211.86431 
L 278.138176 26.794182 
L 278.139732 264.716 
L 282.090965 264.716 
L 282.092659 42.947529 
L 282.092659 264.716 
L 282.30999 264.716 
L 282.30999 251.614538 
L 287.426239 251.614538 
L 287.426239 50.740568 
L 287.427872 264.716 
L 287.564148 264.716 
L 287.564148 256.194655 
L 287.64431 256.194655 
L 293.924957 256.194655 
L 293.924957 57.299947 
L 293.930992 264.716 
L 294.116852 264.716 
L 294.116852 253.392989 
L 294.147438 253.392989 
L 299.44973 253.392989 
L 299.44973 51.784399 
L 299.451797 264.716 
L 299.641602 264.716 
L 299.641602 253.169918 
L 299.668243 253.169918 
L 304.703873 253.169918 
L 304.703873 50.281113 
L 304.705559 264.716 
L 304.895821 264.716 
L 304.895821 253.144257 
L 304.922005 253.144257 
L 307.117538 253.144257 
L 307.117538 34.269882 
L 307.120155 264.716 
L 307.44445 264.716 
L 307.44445 245.570605 
L 307.553047 245.570605 
L 307.771942 245.570605 
L 307.771942 24.346677 
L 307.773499 264.716 
L 308.072266 264.716 
L 308.072266 247.013136 
L 309.265297 247.013136 
L 309.265297 29.08232 
L 309.266907 264.716 
L 309.565697 264.716 
L 309.565697 247.011386 
L 309.946945 247.011386 
L 309.946945 30.307693 
L 310.976219 30.307693 
L 310.976219 264.716 
L 311.27552 264.716 
L 311.27552 246.98281 
L 311.467239 246.98281 
L 311.467239 40.6736 
L 314.524452 40.6736 
L 314.524452 264.716 
L 314.825089 264.716 
L 314.825089 246.907286 
L 314.989944 246.907286 
L 314.989944 41.283329 
L 318.180603 41.283329 
L 318.180603 264.716 
L 318.510094 264.716 
L 318.510094 245.276675 
L 318.613487 245.276675 
L 318.647842 245.276675 
L 318.647842 23.306308 
L 318.649399 264.716 
L 322.654984 264.716 
L 322.654984 43.253958 
L 322.656662 264.716 
L 322.846924 264.716 
L 322.846924 253.144257 
L 322.873108 253.144257 
L 328.395981 253.144257 
L 328.395981 53.027949 
L 328.39769 264.716 
L 328.615311 264.716 
L 328.615311 251.598209 
L 332.459526 251.598209 
L 332.459526 43.571064 
L 332.461159 264.716 
L 332.651939 264.716 
L 332.651939 253.114806 
L 332.677605 253.114806 
L 334.818771 253.114806 
L 334.818771 33.963395 
L 334.820396 264.716 
L 335.119072 264.716 
L 335.119072 247.017801 
L 339.74836 247.017801 
L 339.74836 48.453914 
L 339.749992 264.716 
L 339.940445 264.716 
L 339.940445 253.133468 
L 339.966431 253.133468 
L 344.975288 253.133468 
L 344.975288 50.130124 
L 344.976921 264.716 
L 345.194405 264.716 
L 345.194405 251.605791 
L 349.039246 251.605791 
L 349.039246 43.573799 
L 349.040878 264.716 
L 349.231209 264.716 
L 349.231209 253.140466 
L 349.257324 253.140466 
L 352.72406 253.140466 
L 352.72406 41.43636 
L 352.725708 264.716 
L 353.024284 264.716 
L 353.024284 247.023925 
L 356.003334 247.023925 
L 356.00499 39.150026 
L 356.00499 264.716 
L 356.303352 264.716 
L 356.303352 247.035589 
L 359.417542 247.035589 
L 359.417542 39.910702 
L 359.419197 264.716 
L 359.717842 264.716 
L 359.717842 247.019843 
L 359.855881 247.019843 
L 359.855881 44.152046 
L 363.584206 44.152046 
L 363.584206 264.716 
L 363.916618 264.716 
L 363.916618 245.111631 
L 364.017097 245.111631 
L 364.595993 245.111631 
L 364.595993 26.376213 
L 364.597572 264.716 
L 364.923279 264.716 
L 364.923279 245.490707 
L 365.030464 245.490707 
L 365.088394 245.490707 
L 365.088394 24.23668 
L 365.230194 24.23668 
L 365.230194 264.716 
L 365.550827 264.716 
L 365.550827 245.777056 
L 365.715889 245.777056 
L 365.715889 27.682705 
L 366.474106 27.682705 
L 366.474106 264.716 
L 366.801064 264.716 
L 366.801064 245.420141 
L 366.906998 245.420141 
L 366.965782 245.420141 
L 366.965782 23.44406 
L 366.967316 264.716 
L 367.482681 264.716 
L 367.482681 234.77393 
L 367.620552 234.77393 
L 367.622086 24.354852 
L 367.622086 264.716 
L 370.978294 264.716 
L 370.978294 74.248252 
L 371.08519 74.248252 
L 371.143059 74.248252 
L 371.143059 40.521902 
L 371.145042 264.716 
L 371.443687 264.716 
L 371.443687 247.019843 
L 375.017578 247.019843 
L 375.017578 42.503872 
L 375.019234 264.716 
L 375.344872 264.716 
L 375.344872 245.494498 
L 375.452118 245.494498 
L 377.183678 245.494498 
L 377.183678 245.494498 
" style="fill:none;stroke:#ff0000;stroke-linecap:square;stroke-width:1.5;"/>
   </g>
   <g id="line2d_19">
    <path clip-path="url(#p06a9a24df7)" d="M 52.698341 264.716 
L 52.914787 60.668271 
L 57.074409 60.668271 
L 57.074409 45.339468 
L 57.077957 264.716 
L 57.293167 264.716 
L 57.293167 251.734676 
L 57.294403 251.734676 
L 65.223213 251.734676 
L 65.223213 66.591559 
L 65.224884 264.716 
L 69.311081 264.716 
L 69.311081 43.70838 
L 69.312775 264.716 
L 70.287872 264.716 
L 70.287872 208.796125 
L 70.394997 208.796125 
L 70.479904 208.796125 
L 70.479904 27.251949 
L 70.481453 264.716 
L 70.780312 264.716 
L 70.780312 247.007595 
L 71.378014 247.007595 
L 71.378014 25.726641 
L 71.379601 264.716 
L 71.678215 264.716 
L 71.678215 247.021884 
L 77.687149 247.021884 
L 77.687149 56.231388 
L 77.688805 264.716 
L 77.825111 264.716 
L 77.825111 256.192905 
L 77.905243 256.192905 
L 78.639664 256.192905 
L 78.639664 116.213885 
L 78.77771 116.213885 
L 78.77771 26.810997 
L 78.779274 264.716 
L 82.51403 264.716 
L 82.51403 52.857853 
L 82.652084 52.857853 
L 82.652084 42.505414 
L 82.653648 264.716 
L 85.441368 264.716 
L 85.441368 106.371467 
L 85.467422 106.371467 
L 85.57946 106.371467 
L 85.57946 37.166659 
L 85.581024 264.716 
L 88.043846 264.716 
L 88.043846 124.73013 
L 88.181793 124.73013 
L 88.181793 35.334223 
L 88.18335 264.716 
L 91.972374 264.716 
L 91.972374 49.791418 
L 92.079346 49.791418 
L 92.137451 49.791418 
L 92.137451 42.963705 
L 92.139008 264.716 
L 93.601227 264.716 
L 93.601227 181.27023 
L 93.654114 181.27023 
L 93.766289 181.27023 
L 93.766289 29.846138 
L 93.767853 264.716 
L 96.555466 264.716 
L 96.555466 106.37759 
L 96.581627 106.37759 
L 96.693649 106.37759 
L 96.693649 37.166572 
L 96.69519 264.716 
L 99.672249 264.716 
L 99.672249 95.672768 
L 99.72541 95.672768 
L 99.810303 95.672768 
L 99.810303 38.233822 
L 99.811859 264.716 
L 102.735085 264.716 
L 102.735085 98.714418 
L 102.842079 98.714418 
L 102.899986 98.714418 
L 102.899986 38.081728 
L 102.90155 264.716 
L 106.203331 264.716 
L 106.203331 77.324019 
L 106.341339 77.324019 
L 106.341339 40.064193 
L 106.342903 264.716 
L 108.34594 264.716 
L 108.34594 150.710851 
L 108.511009 150.710851 
L 108.511009 32.895068 
L 108.512573 264.716 
L 109.379829 264.716 
L 109.379829 214.88963 
L 109.517731 214.88963 
L 109.517731 26.338859 
L 109.519302 264.716 
L 114.309219 264.716 
L 114.309219 47.675637 
L 114.310898 264.716 
L 114.446884 264.716 
L 114.446884 256.210984 
L 114.527336 256.210984 
L 117.777664 256.210984 
L 117.777664 40.216345 
L 117.779289 264.716 
L 117.915382 264.716 
L 117.915382 256.205152 
L 117.995735 256.205152 
L 118.756927 256.205152 
L 118.756927 114.836081 
L 118.861511 114.836081 
L 118.895126 114.836081 
L 118.895126 26.962772 
L 118.896683 264.716 
L 122.901619 264.716 
L 122.901619 43.250264 
L 122.903275 264.716 
L 123.093819 264.716 
L 123.093819 253.127928 
L 123.119713 253.127928 
L 128.669945 253.127928 
L 128.669945 53.182196 
L 128.671646 264.716 
L 128.807999 264.716 
L 128.807999 256.190281 
L 128.888092 256.190281 
L 131.867928 256.190281 
L 131.867928 38.691444 
L 131.86956 264.716 
L 134.711235 264.716 
L 134.711235 103.322527 
L 134.876366 103.322527 
L 134.876366 37.623262 
L 134.877953 264.716 
L 135.203545 264.716 
L 135.203545 245.497122 
L 135.310844 245.497122 
L 135.504189 245.497122 
L 135.504189 24.202612 
L 135.50576 264.716 
L 135.80455 264.716 
L 135.80455 247.011678 
L 139.892479 247.011678 
L 139.892479 45.402627 
L 139.894081 264.716 
L 140.084457 264.716 
L 140.084457 253.13755 
L 140.110527 253.13755 
L 147.121628 253.13755 
L 147.121628 61.417932 
L 147.123291 264.716 
L 147.286484 264.716 
L 147.286484 254.673976 
L 147.339737 254.673976 
L 152.970764 254.673976 
L 152.970764 53.637694 
L 152.972389 264.716 
L 153.947388 264.716 
L 153.947388 208.801665 
L 154.054611 208.801665 
L 154.112434 208.801665 
L 154.112434 27.099273 
L 154.113998 264.716 
L 154.439796 264.716 
L 154.439796 245.485458 
L 154.546883 245.485458 
L 154.713341 245.485458 
L 154.713341 24.05107 
L 154.714882 264.716 
L 155.01355 264.716 
L 155.01355 247.018676 
L 156.828743 247.018676 
L 156.828743 32.58922 
L 156.830383 264.716 
L 157.183449 264.716 
L 157.183449 243.944659 
L 157.263268 243.944659 
L 159.593964 243.944659 
L 159.593964 36.252085 
L 159.595619 264.716 
L 159.921341 264.716 
L 159.921341 245.489832 
L 160.028503 245.489832 
L 161.953163 245.489832 
L 161.953163 33.963016 
L 161.954742 264.716 
L 162.497025 264.716 
L 162.497025 233.252667 
L 162.604073 233.252667 
L 166.016678 233.252667 
L 166.016678 43.571617 
L 166.018333 264.716 
L 166.208801 264.716 
L 166.208801 253.132593 
L 166.234779 253.132593 
L 173.408279 253.132593 
L 173.408279 62.333466 
L 173.409996 264.716 
L 173.789742 264.716 
L 173.789742 242.437394 
L 173.842888 242.437394 
L 196.248299 242.437394 
L 196.248299 149.424516 
L 196.250778 264.716 
L 196.467476 264.716 
L 196.467476 251.650405 
L 196.467224 251.650405 
L 199.094322 251.650405 
L 199.094322 36.702841 
L 199.095909 264.716 
L 199.232323 264.716 
L 199.232323 256.187073 
L 199.312355 256.187073 
L 203.320534 256.187073 
L 203.320534 44.48878 
L 203.322205 264.716 
L 207.895554 264.716 
L 207.895554 46.45475 
L 207.897209 264.716 
L 211.604637 264.716 
L 211.604637 54.402152 
L 211.742653 54.402152 
L 211.742653 42.351137 
L 211.744217 264.716 
L 212.908775 264.716 
L 212.908775 198.090719 
L 213.073944 198.090719 
L 213.073944 28.168589 
L 213.075493 264.716 
L 216.620674 264.716 
L 216.620674 63.569966 
L 216.785515 63.569966 
L 216.785515 41.587698 
L 216.787094 264.716 
L 219.981026 264.716 
L 219.981026 83.418107 
L 220.03376 83.418107 
L 220.14576 83.418107 
L 220.14576 39.606891 
L 220.147346 264.716 
L 223.313919 264.716 
L 223.313919 84.963864 
L 223.394005 84.963864 
L 223.451927 84.963864 
L 223.451927 39.302004 
L 223.453522 264.716 
L 226.971954 264.716 
L 226.971954 65.081313 
L 227.136803 65.081313 
L 227.136803 41.436941 
L 227.138405 264.716 
L 231.279243 264.716 
L 231.279243 44.016409 
L 231.280899 264.716 
L 231.471237 264.716 
L 231.471237 253.139883 
L 231.497345 253.139883 
L 231.690285 253.139883 
L 231.690285 113.156881 
L 231.713791 113.156881 
L 247.686165 113.156881 
L 247.686165 264.716 
L 248.007454 264.716 
L 248.007454 245.740314 
L 248.740707 245.740314 
L 248.740707 26.617272 
L 248.742325 264.716 
L 249.040718 264.716 
L 249.040718 247.034422 
L 249.205879 247.034422 
L 249.205879 42.794416 
L 252.666634 42.794416 
L 252.666634 264.716 
L 252.996208 264.716 
L 252.996208 245.272009 
L 253.099518 245.272009 
L 253.161407 245.272009 
L 253.161407 23.461544 
L 253.162979 264.716 
L 253.623878 264.716 
L 253.623878 237.851154 
L 255.764015 237.851154 
L 255.764015 35.335707 
L 255.76561 264.716 
L 256.091461 264.716 
L 256.091461 245.482542 
L 256.198494 245.482542 
L 258.366867 245.482542 
L 258.366867 35.336987 
L 258.368462 264.716 
L 258.694046 264.716 
L 258.694046 245.497705 
L 258.801353 245.497705 
L 259.69796 245.497705 
L 259.699532 28.167309 
L 259.699532 264.716 
L 259.997932 264.716 
L 259.997932 247.033548 
L 265.655243 247.033548 
L 265.655243 54.247905 
L 265.656883 264.716 
L 266.172119 264.716 
L 266.172119 234.780928 
L 266.33696 234.780928 
L 266.33696 24.506161 
L 266.338531 264.716 
L 266.637413 264.716 
L 266.637413 247.006429 
L 270.211334 247.006429 
L 270.211334 42.505356 
L 270.212944 264.716 
L 270.538963 264.716 
L 270.538963 245.472628 
L 270.645828 245.472628 
L 272.895287 245.472628 
L 272.896881 35.794085 
L 272.896881 264.716 
L 273.195793 264.716 
L 273.195793 247.004971 
L 276.742676 247.004971 
L 276.742676 42.353087 
L 276.744255 264.716 
L 277.069832 264.716 
L 277.069832 245.497997 
L 277.177139 245.497997 
L 277.830177 245.497997 
L 277.830177 26.794153 
L 277.831726 264.716 
L 278.130608 264.716 
L 278.130608 247.006429 
L 281.948135 247.006429 
L 281.948135 43.878686 
L 281.949738 264.716 
L 282.112846 264.716 
L 282.112846 254.678349 
L 282.166183 254.678349 
L 287.256111 254.678349 
L 287.256111 50.587193 
L 287.257774 264.716 
L 287.448341 264.716 
L 287.448341 253.126761 
L 287.47422 253.126761 
L 293.781944 253.126761 
L 293.781944 57.452595 
L 293.783966 264.716 
L 299.303902 264.716 
L 299.303902 51.791148 
L 299.306442 264.716 
L 304.555168 264.716 
L 304.557076 50.262232 
L 304.557076 264.716 
L 306.965714 264.716 
L 306.965714 127.792192 
L 307.130798 127.792192 
L 307.130798 35.181721 
L 307.132362 264.716 
L 307.620461 264.716 
L 307.620461 236.314729 
L 307.758354 236.314729 
L 307.758354 24.201274 
L 307.759911 264.716 
L 309.086777 264.716 
L 309.086777 188.918531 
L 309.278969 188.918531 
L 309.278969 29.236014 
L 309.280533 264.716 
L 309.768669 264.716 
L 309.768669 236.312396 
L 310.988708 236.312396 
L 310.988708 30.302159 
L 310.990593 264.716 
L 311.316086 264.716 
L 311.316086 245.502663 
L 311.423485 245.502663 
L 314.53862 245.502663 
L 314.53862 40.674433 
L 314.540276 264.716 
L 314.838982 264.716 
L 314.838982 247.016343 
L 318.196442 247.016343 
L 318.196442 41.284061 
L 318.198097 264.716 
L 318.496635 264.716 
L 318.496635 247.025674 
L 318.634865 247.025674 
L 318.634865 44.211375 
L 322.373817 44.211375 
L 322.373817 264.716 
L 322.668465 264.716 
L 322.698433 52.971966 
L 328.103241 52.971966 
L 328.103241 264.716 
L 328.409592 264.716 
L 328.466675 43.491986 
L 332.151138 43.491986 
L 332.151138 264.716 
L 332.473564 264.716 
L 332.503174 34.126711 
L 332.58403 34.126711 
L 334.538094 34.126711 
L 334.538094 264.716 
L 334.832718 264.716 
L 334.943283 48.435332 
L 339.463005 48.435332 
L 339.463005 264.716 
L 339.761902 264.716 
L 339.79187 50.086882 
L 344.680695 50.086882 
L 344.680695 264.716 
L 344.989227 264.716 
L 345.018791 43.560561 
L 348.740997 43.560561 
L 348.740997 264.716 
L 349.052559 264.716 
L 349.082657 41.475764 
L 352.431381 41.475764 
L 352.431381 264.716 
L 352.737602 264.716 
L 352.737602 246.591486 
L 352.875473 246.591486 
L 352.875473 39.011466 
L 355.684738 39.011466 
L 355.684738 264.716 
L 355.989655 264.716 
L 355.989655 246.66526 
L 356.12767 246.66526 
L 356.12767 39.890009 
L 359.093826 39.890009 
L 359.093826 264.716 
L 359.431038 264.716 
L 359.431038 244.840446 
L 359.526711 244.840446 
L 359.568863 244.840446 
L 359.568863 23.350237 
L 359.57045 264.716 
L 363.575783 264.716 
L 363.575783 43.252533 
L 363.577438 264.716 
L 363.740944 264.716 
L 363.740944 254.656188 
L 363.793884 254.656188 
L 364.582367 254.656188 
L 364.582367 96.219612 
L 364.65966 96.219612 
L 364.774467 96.219612 
L 364.774467 27.42051 
L 364.776024 264.716 
L 365.237015 264.716 
L 365.237015 237.846197 
L 365.402298 237.846197 
L 365.402298 24.202845 
L 365.403847 264.716 
L 366.487144 264.716 
L 366.487144 202.681916 
L 366.652023 202.681916 
L 366.652023 27.708902 
L 366.653572 264.716 
L 366.979469 264.716 
L 366.979469 245.479918 
L 367.086464 245.479918 
L 367.306931 245.479918 
L 367.308487 24.35555 
L 367.308487 264.716 
L 367.607025 264.716 
L 367.607025 247.025966 
L 370.829208 247.025966 
L 370.829208 40.520476 
L 370.830849 264.716 
L 371.129631 264.716 
L 371.129631 247.011969 
L 371.29467 247.011969 
L 371.29467 42.531458 
L 374.708366 42.531458 
L 374.708366 264.716 
L 375.004066 264.716 
L 375.004066 247.186344 
L 375.169113 247.186344 
L 375.169113 44.627709 
L 377.305702 44.627709 
L 377.305702 44.627709 
" style="fill:none;stroke:#0000ff;stroke-linecap:square;stroke-width:1.5;"/>
   </g>
   <g id="line2d_20">
    <path clip-path="url(#p06a9a24df7)" d="M 52.698341 264.716 
L 52.914787 43.042886 
L 56.667259 43.042886 
L 56.667259 264.716 
L 56.937424 264.716 
L 57.021523 66.549012 
L 64.805153 66.549012 
L 64.805153 264.716 
L 65.113541 264.716 
L 65.143456 43.638899 
L 68.879395 43.638899 
L 68.879395 264.716 
L 69.177322 264.716 
L 69.177322 247.060375 
L 70.045959 247.060375 
L 70.045959 27.248749 
L 70.047676 264.716 
L 70.373283 264.716 
L 70.373283 245.496248 
L 70.48056 245.496248 
L 70.511116 245.496248 
L 70.511116 25.845258 
L 70.965485 25.845258 
L 70.965485 264.716 
L 71.244255 264.716 
L 71.244255 248.142783 
L 71.409424 248.142783 
L 71.409424 56.120432 
L 77.253548 56.120432 
L 77.253548 264.716 
L 77.553787 264.716 
L 77.553787 246.930031 
L 78.20546 246.930031 
L 78.20546 26.038655 
L 78.207222 264.716 
L 78.506104 264.716 
L 78.506104 247.006429 
L 78.671074 247.006429 
L 78.671074 42.468636 
L 82.073547 42.468636 
L 82.073547 264.716 
L 82.380241 264.716 
L 82.380241 246.565243 
L 82.545319 246.565243 
L 82.545319 37.158342 
L 84.998283 37.158342 
L 84.998283 264.716 
L 85.307549 264.716 
L 85.307549 246.419736 
L 85.472893 246.419736 
L 85.472893 35.394014 
L 87.609871 35.394014 
L 87.609871 264.716 
L 87.910385 264.716 
L 87.910385 246.914284 
L 88.048561 246.914284 
L 88.048561 42.874736 
L 91.548599 42.874736 
L 91.548599 264.716 
L 91.866005 264.716 
L 91.866005 245.959887 
L 92.030724 245.959887 
L 92.030724 29.900164 
L 93.185699 29.900164 
L 93.185699 264.716 
L 93.494598 264.716 
L 93.494598 246.440439 
L 93.632439 246.440439 
L 93.632439 37.196564 
L 96.116951 37.196564 
L 96.116951 264.716 
L 96.422073 264.716 
L 96.422073 246.65418 
L 96.586952 246.65418 
L 96.586952 38.238729 
L 99.233093 38.238729 
L 99.233093 264.716 
L 99.538612 264.716 
L 99.538612 246.631435 
L 99.703644 246.631435 
L 99.703644 37.956811 
L 102.299141 37.956811 
L 102.299141 264.716 
L 102.60144 264.716 
L 102.60144 246.813683 
L 102.766373 246.813683 
L 102.766373 40.153553 
L 105.754829 40.153553 
L 105.754829 264.716 
L 106.070091 264.716 
L 106.070091 246.080608 
L 106.208069 246.080608 
L 106.208069 32.862964 
L 107.917297 32.862964 
L 107.917297 264.716 
L 108.239616 264.716 
L 108.239616 245.681995 
L 108.350189 245.681995 
L 108.4049 245.681995 
L 108.4049 26.527526 
L 108.956085 26.527526 
L 108.956085 264.716 
L 109.246353 264.716 
L 109.246353 247.493396 
L 109.411209 247.493396 
L 109.411209 48.330235 
L 113.862419 48.330235 
L 113.862419 264.716 
L 114.175812 264.716 
L 114.205315 40.264695 
L 117.338181 40.264695 
L 117.338181 264.716 
L 117.64415 264.716 
L 117.64415 246.605775 
L 118.323433 246.605775 
L 118.323433 26.226621 
L 118.325134 264.716 
L 118.623741 264.716 
L 118.623741 247.022175 
L 118.761436 247.022175 
L 118.761436 44.199338 
L 122.498749 44.199338 
L 122.498749 264.716 
L 122.795723 264.716 
L 122.798409 52.932468 
L 128.221375 52.932468 
L 128.221375 264.716 
L 128.536873 264.716 
L 128.566368 38.831647 
L 131.442841 38.831647 
L 131.442841 264.716 
L 131.761497 264.716 
L 131.791542 36.658327 
L 134.278831 36.658327 
L 134.278831 264.716 
L 134.607979 264.716 
L 134.607979 245.296212 
L 134.711723 245.296212 
L 134.773033 245.296212 
L 134.773033 23.458286 
L 134.774727 264.716 
L 135.235703 264.716 
L 135.235703 237.847072 
L 135.373428 237.847072 
L 135.373428 24.047405 
L 135.375099 264.716 
L 139.624191 264.716 
L 139.624191 44.626736 
L 139.625992 264.716 
L 139.76207 264.716 
L 139.76207 256.206027 
L 139.842438 256.206027 
L 146.853302 256.206027 
L 146.853302 61.416593 
L 146.855095 264.716 
L 147.045105 264.716 
L 147.045105 253.158254 
L 147.071541 253.158254 
L 152.702591 253.158254 
L 152.702591 53.637839 
L 152.704376 264.716 
L 152.86763 264.716 
L 152.86763 254.670476 
L 152.920822 254.670476 
L 153.817207 254.670476 
L 153.817207 90.279818 
L 154.009445 90.279818 
L 154.009445 28.029586 
L 154.011139 264.716 
L 154.417709 264.716 
L 154.417709 240.92138 
L 154.444023 240.92138 
L 154.582802 240.92138 
L 154.584496 23.895019 
L 154.584496 264.716 
L 156.560753 264.716 
L 156.560753 152.22424 
L 156.725746 152.22424 
L 156.725746 32.743642 
L 156.727432 264.716 
L 159.325783 264.716 
L 159.325783 117.072207 
L 159.490532 117.072207 
L 159.490532 36.24935 
L 159.492218 264.716 
L 161.712112 264.716 
L 161.8228 33.81098 
L 161.824493 33.81098 
L 161.824493 264.716 
L 165.748688 264.716 
L 165.748688 42.795086 
L 165.750443 264.716 
L 165.88652 264.716 
L 165.88652 256.205735 
L 165.966888 256.205735 
L 173.140228 256.205735 
L 173.140228 62.332593 
L 173.141991 264.716 
L 173.277924 264.716 
L 173.277924 256.214192 
L 173.358437 256.214192 
L 173.524376 256.214192 
L 173.524376 148.57087 
L 173.574883 148.57087 
L 195.828979 148.57087 
L 195.828979 264.716 
L 196.145508 264.716 
L 196.201942 36.615045 
L 198.657219 36.615045 
L 198.657219 264.716 
L 198.96431 264.716 
L 198.994209 44.523558 
L 202.888245 44.523558 
L 202.888245 264.716 
L 203.190269 264.716 
L 203.247169 46.440739 
L 207.459167 46.440739 
L 207.459167 264.716 
L 207.76844 264.716 
L 207.825188 41.523372 
L 211.15799 41.523372 
L 211.15799 264.716 
L 211.480164 264.716 
L 211.480164 245.69016 
L 211.590881 245.69016 
L 211.618309 245.69016 
L 211.618309 28.159202 
L 212.48645 28.159202 
L 212.48645 264.716 
L 212.784393 264.716 
L 212.784393 247.059208 
L 212.97654 247.059208 
L 212.97654 41.567949 
L 216.193153 41.567949 
L 216.193153 264.716 
L 216.496239 264.716 
L 216.496239 246.768777 
L 216.661163 246.768777 
L 216.661163 39.614224 
L 219.55336 39.614224 
L 219.55336 264.716 
L 219.856667 264.716 
L 219.856667 246.756239 
L 220.021584 246.756239 
L 220.021584 39.463761 
L 222.887009 39.463761 
L 222.887009 264.716 
L 223.189804 264.716 
L 223.189804 246.785107 
L 223.327782 246.785107 
L 223.327782 41.333276 
L 226.552246 41.333276 
L 226.552246 264.716 
L 226.847458 264.716 
L 226.847458 247.213755 
L 227.012794 247.213755 
L 227.012794 44.940644 
L 230.857162 44.940644 
L 230.857162 264.716 
L 231.154716 264.716 
L 231.184708 51.00047 
L 231.268478 51.00047 
L 231.268478 22.991006 
L 231.270119 264.716 
L 247.58548 264.716 
L 247.58548 112.65105 
L 247.587845 264.716 
L 247.723679 264.716 
L 247.723679 256.219732 
L 247.804291 256.219732 
L 248.619034 256.219732 
L 248.619034 111.970894 
L 248.670067 111.970894 
L 248.784157 111.970894 
L 248.784157 27.416495 
L 248.785843 264.716 
L 252.547447 264.716 
L 252.547447 51.341257 
L 252.740067 51.341257 
L 252.740067 42.964374 
L 252.741768 264.716 
L 253.03997 264.716 
L 253.03997 247.04492 
L 253.34034 247.04492 
L 253.34034 35.280784 
L 253.391106 35.280784 
L 255.333267 35.280784 
L 255.333267 264.716 
L 255.642731 264.716 
L 255.642731 246.408363 
L 255.807564 246.408363 
L 255.807564 35.28586 
L 257.925652 35.28586 
L 257.925652 264.716 
L 258.24527 264.716 
L 258.24527 245.8345 
L 258.410278 245.8345 
L 258.410278 28.376288 
L 259.292557 28.376288 
L 259.292557 264.716 
L 259.576607 264.716 
L 259.576607 247.844479 
L 259.714691 247.844479 
L 259.714691 54.063882 
L 259.725441 54.063882 
L 265.215904 54.063882 
L 265.215904 264.716 
L 265.534309 264.716 
L 265.534309 245.903317 
L 265.888367 245.903317 
L 265.888367 24.463279 
L 265.890083 264.716 
L 266.188736 264.716 
L 266.188736 247.019551 
L 266.354004 247.019551 
L 266.354004 42.60949 
L 269.781548 42.60949 
L 269.781548 264.716 
L 270.090149 264.716 
L 270.090149 246.457352 
L 270.255333 246.457352 
L 270.255333 35.855026 
L 272.475006 35.855026 
L 272.475006 264.716 
L 272.774033 264.716 
L 272.774033 246.998556 
L 272.939064 246.998556 
L 272.939064 42.370477 
L 276.324142 42.370477 
L 276.324142 264.716 
L 276.648338 264.716 
L 276.648338 245.576145 
L 276.757034 245.576145 
L 276.786201 245.576145 
L 276.786201 26.80384 
L 277.412025 26.80384 
L 277.412025 264.716 
L 277.708794 264.716 
L 277.708794 247.125692 
L 277.873955 247.125692 
L 277.873955 43.892061 
L 281.530838 43.892061 
L 281.530838 264.716 
L 281.826668 264.716 
L 281.883743 50.640856 
L 286.846817 50.640856 
L 286.846817 264.716 
L 287.134895 264.716 
L 287.164894 57.433257 
L 293.367737 57.433257 
L 293.367737 264.716 
L 293.661957 264.716 
L 293.71785 51.798265 
L 298.889023 51.798265 
L 298.889023 264.716 
L 299.185577 264.716 
L 299.242477 50.160232 
L 304.11972 50.160232 
L 304.11972 264.716 
L 304.439713 264.716 
L 304.49646 34.244783 
L 306.527603 34.244783 
L 306.527603 264.716 
L 306.853096 264.716 
L 306.853096 245.502663 
L 306.960495 245.502663 
L 307.018074 245.502663 
L 307.018074 24.388588 
L 307.186874 24.388588 
L 307.186874 264.716 
L 307.507744 264.716 
L 307.507744 245.763934 
L 307.645584 245.763934 
L 307.645584 29.063113 
L 308.675667 29.063113 
L 308.675667 264.716 
L 309.00103 264.716 
L 309.00103 245.509953 
L 309.108551 245.509953 
L 309.166206 245.509953 
L 309.166206 24.464863 
L 309.348618 24.464863 
L 309.348618 264.716 
L 310.71125 264.716 
L 310.71125 186.897763 
L 310.876091 186.897763 
L 310.876091 29.283464 
L 310.877769 264.716 
L 314.260719 264.716 
L 314.260719 72.737488 
L 314.340881 72.737488 
L 314.398735 72.737488 
L 314.398735 40.521873 
L 314.400459 264.716 
L 317.91864 264.716 
L 317.91864 65.095602 
L 318.083748 65.095602 
L 318.083748 41.43697 
L 318.085457 264.716 
L 318.384117 264.716 
L 318.384117 247.018968 
L 322.255531 247.018968 
L 322.255531 44.181275 
L 322.257339 264.716 
L 322.393486 264.716 
L 322.393486 256.202236 
L 322.473785 256.202236 
L 327.996964 256.202236 
L 327.996964 53.029665 
L 327.998741 264.716 
L 328.134544 264.716 
L 328.134544 256.22119 
L 328.215179 256.22119 
L 332.060692 256.22119 
L 332.060692 43.571733 
L 332.062737 264.716 
L 332.198326 264.716 
L 332.198326 256.233437 
L 332.279182 256.233437 
L 334.419853 256.233437 
L 334.530716 34.585591 
L 334.532387 34.585591 
L 334.532387 264.716 
L 339.349091 264.716 
L 339.349091 47.826655 
L 339.350868 264.716 
L 339.487366 264.716 
L 339.487366 256.182407 
L 339.567314 256.182407 
L 344.576591 256.182407 
L 344.576591 50.13251 
L 344.579094 264.716 
L 344.714836 264.716 
L 344.714836 256.224981 
L 344.79554 256.224981 
L 348.612953 256.224981 
L 348.612953 43.413326 
L 348.614761 264.716 
L 352.29493 264.716 
L 352.29493 55.942368 
L 352.460144 55.942368 
L 352.460144 42.350788 
L 352.46183 264.716 
L 355.574356 264.716 
L 355.574356 88.01776 
L 355.712158 88.01776 
L 355.712158 38.996157 
L 355.713844 264.716 
L 358.988602 264.716 
L 358.988602 78.850821 
L 359.153847 78.850821 
L 359.153847 40.065444 
L 359.15554 264.716 
L 359.427124 264.716 
L 359.427124 248.548978 
L 363.298546 248.548978 
L 363.298546 44.028657 
L 363.300308 264.716 
L 364.16713 264.716 
L 364.16713 214.914124 
L 364.331917 214.914124 
L 364.331917 26.487986 
L 364.333618 264.716 
L 364.659454 264.716 
L 364.659454 245.483417 
L 364.766502 245.483417 
L 364.959816 245.483417 
L 364.959816 24.202467 
L 364.961502 264.716 
L 365.287102 264.716 
L 365.287102 245.496539 
L 365.394394 245.496539 
L 366.209892 245.496539 
L 366.209892 27.710095 
L 366.211601 264.716 
L 366.536911 264.716 
L 366.536911 245.512869 
L 366.644485 245.512869 
L 366.702179 245.512869 
L 366.702179 24.494674 
L 366.889755 24.494674 
L 366.889755 264.716 
L 367.191666 264.716 
L 367.191666 246.83497 
L 367.357025 246.83497 
L 367.357025 40.385575 
L 370.386627 40.385575 
L 370.386627 264.716 
L 370.714302 264.716 
L 370.714302 245.379609 
L 370.819519 245.379609 
L 370.879326 245.379609 
L 370.879326 23.44982 
L 370.881027 264.716 
L 374.588608 264.716 
L 374.588608 54.393695 
L 374.75386 54.393695 
L 374.75386 42.505501 
L 374.755562 264.716 
L 377.35289 264.716 
L 377.35289 264.716 
" style="fill:none;stroke:#008000;stroke-linecap:square;stroke-width:1.5;"/>
   </g>
   <g id="patch_3">
    <path d="M 36.465625 276.812 
L 36.465625 10.7 
" style="fill:none;stroke:#000000;stroke-linecap:square;stroke-linejoin:miter;stroke-width:0.8;"/>
   </g>
   <g id="patch_4">
    <path d="M 393.585625 276.812 
L 393.585625 10.7 
" style="fill:none;stroke:#000000;stroke-linecap:square;stroke-linejoin:miter;stroke-width:0.8;"/>
   </g>
   <g id="patch_5">
    <path d="M 36.465614 276.812 
L 393.585617 276.812 
" style="fill:none;stroke:#000000;stroke-linecap:square;stroke-linejoin:miter;stroke-width:0.8;"/>
   </g>
   <g id="patch_6">
    <path d="M 36.465614 10.7 
L 393.585617 10.7 
" style="fill:none;stroke:#000000;stroke-linecap:square;stroke-linejoin:miter;stroke-width:0.8;"/>
   </g>
  </g>
 </g>
 <defs>
  <clipPath id="p06a9a24df7">
   <rect height="266.112" width="357.12" x="36.465625" y="10.7"/>
  </clipPath>
 </defs>
</svg>
