<?xml version="1.0" encoding="utf-8" standalone="no"?>
<!DOCTYPE svg PUBLIC "-//W3C//DTD SVG 1.1//EN"
  "http://www.w3.org/Graphics/SVG/1.1/DTD/svg11.dtd">
<!-- Created with matplotlib (https://matplotlib.org/) -->
<svg height="313.36825pt" version="1.1" viewBox="0 0 404.285625 313.36825" width="404.285625pt" xmlns="http://www.w3.org/2000/svg" xmlns:xlink="http://www.w3.org/1999/xlink">
 <defs>
  <style type="text/css">
*{stroke-linecap:butt;stroke-linejoin:round;}
  </style>
 </defs>
 <g id="figure_1">
  <g id="patch_1">
   <path d="M 0 313.36825 
L 404.285625 313.36825 
L 404.285625 0 
L 0 0 
z
" style="fill:#ffffff;"/>
  </g>
  <g id="axes_1">
   <g id="patch_2">
    <path d="M 36.465625 276.812 
L 393.585625 276.812 
L 393.585625 10.7 
L 36.465625 10.7 
z
" style="fill:#ffffff;"/>
   </g>
   <g id="matplotlib.axis_1">
    <g id="xtick_1">
     <g id="line2d_1">
      <defs>
       <path d="M 0 0 
L 0 3.5 
" id="mcbb6aef43c" style="stroke:#000000;stroke-width:0.8;"/>
      </defs>
      <g>
       <use style="stroke:#000000;stroke-width:0.8;" x="74.347054" xlink:href="#mcbb6aef43c" y="276.812"/>
      </g>
     </g>
     <g id="text_1">
      <!-- 288 -->
      <defs>
       <path d="M 19.1875 8.296875 
L 53.609375 8.296875 
L 53.609375 0 
L 7.328125 0 
L 7.328125 8.296875 
Q 12.9375 14.109375 22.625 23.890625 
Q 32.328125 33.6875 34.8125 36.53125 
Q 39.546875 41.84375 41.421875 45.53125 
Q 43.3125 49.21875 43.3125 52.78125 
Q 43.3125 58.59375 39.234375 62.25 
Q 35.15625 65.921875 28.609375 65.921875 
Q 23.96875 65.921875 18.8125 64.3125 
Q 13.671875 62.703125 7.8125 59.421875 
L 7.8125 69.390625 
Q 13.765625 71.78125 18.9375 73 
Q 24.125 74.21875 28.421875 74.21875 
Q 39.75 74.21875 46.484375 68.546875 
Q 53.21875 62.890625 53.21875 53.421875 
Q 53.21875 48.921875 51.53125 44.890625 
Q 49.859375 40.875 45.40625 35.40625 
Q 44.1875 33.984375 37.640625 27.21875 
Q 31.109375 20.453125 19.1875 8.296875 
z
" id="DejaVuSans-50"/>
       <path d="M 31.78125 34.625 
Q 24.75 34.625 20.71875 30.859375 
Q 16.703125 27.09375 16.703125 20.515625 
Q 16.703125 13.921875 20.71875 10.15625 
Q 24.75 6.390625 31.78125 6.390625 
Q 38.8125 6.390625 42.859375 10.171875 
Q 46.921875 13.96875 46.921875 20.515625 
Q 46.921875 27.09375 42.890625 30.859375 
Q 38.875 34.625 31.78125 34.625 
z
M 21.921875 38.8125 
Q 15.578125 40.375 12.03125 44.71875 
Q 8.5 49.078125 8.5 55.328125 
Q 8.5 64.0625 14.71875 69.140625 
Q 20.953125 74.21875 31.78125 74.21875 
Q 42.671875 74.21875 48.875 69.140625 
Q 55.078125 64.0625 55.078125 55.328125 
Q 55.078125 49.078125 51.53125 44.71875 
Q 48 40.375 41.703125 38.8125 
Q 48.828125 37.15625 52.796875 32.3125 
Q 56.78125 27.484375 56.78125 20.515625 
Q 56.78125 9.90625 50.3125 4.234375 
Q 43.84375 -1.421875 31.78125 -1.421875 
Q 19.734375 -1.421875 13.25 4.234375 
Q 6.78125 9.90625 6.78125 20.515625 
Q 6.78125 27.484375 10.78125 32.3125 
Q 14.796875 37.15625 21.921875 38.8125 
z
M 18.3125 54.390625 
Q 18.3125 48.734375 21.84375 45.5625 
Q 25.390625 42.390625 31.78125 42.390625 
Q 38.140625 42.390625 41.71875 45.5625 
Q 45.3125 48.734375 45.3125 54.390625 
Q 45.3125 60.0625 41.71875 63.234375 
Q 38.140625 66.40625 31.78125 66.40625 
Q 25.390625 66.40625 21.84375 63.234375 
Q 18.3125 60.0625 18.3125 54.390625 
z
" id="DejaVuSans-56"/>
      </defs>
      <g transform="translate(64.803304 291.410437)scale(0.1 -0.1)">
       <use xlink:href="#DejaVuSans-50"/>
       <use x="63.623047" xlink:href="#DejaVuSans-56"/>
       <use x="127.246094" xlink:href="#DejaVuSans-56"/>
      </g>
     </g>
    </g>
    <g id="xtick_2">
     <g id="line2d_2">
      <g>
       <use style="stroke:#000000;stroke-width:0.8;" x="117.644463" xlink:href="#mcbb6aef43c" y="276.812"/>
      </g>
     </g>
     <g id="text_2">
      <!-- 290 -->
      <defs>
       <path d="M 10.984375 1.515625 
L 10.984375 10.5 
Q 14.703125 8.734375 18.5 7.8125 
Q 22.3125 6.890625 25.984375 6.890625 
Q 35.75 6.890625 40.890625 13.453125 
Q 46.046875 20.015625 46.78125 33.40625 
Q 43.953125 29.203125 39.59375 26.953125 
Q 35.25 24.703125 29.984375 24.703125 
Q 19.046875 24.703125 12.671875 31.3125 
Q 6.296875 37.9375 6.296875 49.421875 
Q 6.296875 60.640625 12.9375 67.421875 
Q 19.578125 74.21875 30.609375 74.21875 
Q 43.265625 74.21875 49.921875 64.515625 
Q 56.59375 54.828125 56.59375 36.375 
Q 56.59375 19.140625 48.40625 8.859375 
Q 40.234375 -1.421875 26.421875 -1.421875 
Q 22.703125 -1.421875 18.890625 -0.6875 
Q 15.09375 0.046875 10.984375 1.515625 
z
M 30.609375 32.421875 
Q 37.25 32.421875 41.125 36.953125 
Q 45.015625 41.5 45.015625 49.421875 
Q 45.015625 57.28125 41.125 61.84375 
Q 37.25 66.40625 30.609375 66.40625 
Q 23.96875 66.40625 20.09375 61.84375 
Q 16.21875 57.28125 16.21875 49.421875 
Q 16.21875 41.5 20.09375 36.953125 
Q 23.96875 32.421875 30.609375 32.421875 
z
" id="DejaVuSans-57"/>
       <path d="M 31.78125 66.40625 
Q 24.171875 66.40625 20.328125 58.90625 
Q 16.5 51.421875 16.5 36.375 
Q 16.5 21.390625 20.328125 13.890625 
Q 24.171875 6.390625 31.78125 6.390625 
Q 39.453125 6.390625 43.28125 13.890625 
Q 47.125 21.390625 47.125 36.375 
Q 47.125 51.421875 43.28125 58.90625 
Q 39.453125 66.40625 31.78125 66.40625 
z
M 31.78125 74.21875 
Q 44.046875 74.21875 50.515625 64.515625 
Q 56.984375 54.828125 56.984375 36.375 
Q 56.984375 17.96875 50.515625 8.265625 
Q 44.046875 -1.421875 31.78125 -1.421875 
Q 19.53125 -1.421875 13.0625 8.265625 
Q 6.59375 17.96875 6.59375 36.375 
Q 6.59375 54.828125 13.0625 64.515625 
Q 19.53125 74.21875 31.78125 74.21875 
z
" id="DejaVuSans-48"/>
      </defs>
      <g transform="translate(108.100713 291.410437)scale(0.1 -0.1)">
       <use xlink:href="#DejaVuSans-50"/>
       <use x="63.623047" xlink:href="#DejaVuSans-57"/>
       <use x="127.246094" xlink:href="#DejaVuSans-48"/>
      </g>
     </g>
    </g>
    <g id="xtick_3">
     <g id="line2d_3">
      <g>
       <use style="stroke:#000000;stroke-width:0.8;" x="160.941879" xlink:href="#mcbb6aef43c" y="276.812"/>
      </g>
     </g>
     <g id="text_3">
      <!-- 292 -->
      <g transform="translate(151.398129 291.410437)scale(0.1 -0.1)">
       <use xlink:href="#DejaVuSans-50"/>
       <use x="63.623047" xlink:href="#DejaVuSans-57"/>
       <use x="127.246094" xlink:href="#DejaVuSans-50"/>
      </g>
     </g>
    </g>
    <g id="xtick_4">
     <g id="line2d_4">
      <g>
       <use style="stroke:#000000;stroke-width:0.8;" x="204.239288" xlink:href="#mcbb6aef43c" y="276.812"/>
      </g>
     </g>
     <g id="text_4">
      <!-- 294 -->
      <defs>
       <path d="M 37.796875 64.3125 
L 12.890625 25.390625 
L 37.796875 25.390625 
z
M 35.203125 72.90625 
L 47.609375 72.90625 
L 47.609375 25.390625 
L 58.015625 25.390625 
L 58.015625 17.1875 
L 47.609375 17.1875 
L 47.609375 0 
L 37.796875 0 
L 37.796875 17.1875 
L 4.890625 17.1875 
L 4.890625 26.703125 
z
" id="DejaVuSans-52"/>
      </defs>
      <g transform="translate(194.695538 291.410437)scale(0.1 -0.1)">
       <use xlink:href="#DejaVuSans-50"/>
       <use x="63.623047" xlink:href="#DejaVuSans-57"/>
       <use x="127.246094" xlink:href="#DejaVuSans-52"/>
      </g>
     </g>
    </g>
    <g id="xtick_5">
     <g id="line2d_5">
      <g>
       <use style="stroke:#000000;stroke-width:0.8;" x="247.536705" xlink:href="#mcbb6aef43c" y="276.812"/>
      </g>
     </g>
     <g id="text_5">
      <!-- 296 -->
      <defs>
       <path d="M 33.015625 40.375 
Q 26.375 40.375 22.484375 35.828125 
Q 18.609375 31.296875 18.609375 23.390625 
Q 18.609375 15.53125 22.484375 10.953125 
Q 26.375 6.390625 33.015625 6.390625 
Q 39.65625 6.390625 43.53125 10.953125 
Q 47.40625 15.53125 47.40625 23.390625 
Q 47.40625 31.296875 43.53125 35.828125 
Q 39.65625 40.375 33.015625 40.375 
z
M 52.59375 71.296875 
L 52.59375 62.3125 
Q 48.875 64.0625 45.09375 64.984375 
Q 41.3125 65.921875 37.59375 65.921875 
Q 27.828125 65.921875 22.671875 59.328125 
Q 17.53125 52.734375 16.796875 39.40625 
Q 19.671875 43.65625 24.015625 45.921875 
Q 28.375 48.1875 33.59375 48.1875 
Q 44.578125 48.1875 50.953125 41.515625 
Q 57.328125 34.859375 57.328125 23.390625 
Q 57.328125 12.15625 50.6875 5.359375 
Q 44.046875 -1.421875 33.015625 -1.421875 
Q 20.359375 -1.421875 13.671875 8.265625 
Q 6.984375 17.96875 6.984375 36.375 
Q 6.984375 53.65625 15.1875 63.9375 
Q 23.390625 74.21875 37.203125 74.21875 
Q 40.921875 74.21875 44.703125 73.484375 
Q 48.484375 72.75 52.59375 71.296875 
z
" id="DejaVuSans-54"/>
      </defs>
      <g transform="translate(237.992955 291.410437)scale(0.1 -0.1)">
       <use xlink:href="#DejaVuSans-50"/>
       <use x="63.623047" xlink:href="#DejaVuSans-57"/>
       <use x="127.246094" xlink:href="#DejaVuSans-54"/>
      </g>
     </g>
    </g>
    <g id="xtick_6">
     <g id="line2d_6">
      <g>
       <use style="stroke:#000000;stroke-width:0.8;" x="290.834114" xlink:href="#mcbb6aef43c" y="276.812"/>
      </g>
     </g>
     <g id="text_6">
      <!-- 298 -->
      <g transform="translate(281.290364 291.410437)scale(0.1 -0.1)">
       <use xlink:href="#DejaVuSans-50"/>
       <use x="63.623047" xlink:href="#DejaVuSans-57"/>
       <use x="127.246094" xlink:href="#DejaVuSans-56"/>
      </g>
     </g>
    </g>
    <g id="xtick_7">
     <g id="line2d_7">
      <g>
       <use style="stroke:#000000;stroke-width:0.8;" x="334.131531" xlink:href="#mcbb6aef43c" y="276.812"/>
      </g>
     </g>
     <g id="text_7">
      <!-- 300 -->
      <defs>
       <path d="M 40.578125 39.3125 
Q 47.65625 37.796875 51.625 33 
Q 55.609375 28.21875 55.609375 21.1875 
Q 55.609375 10.40625 48.1875 4.484375 
Q 40.765625 -1.421875 27.09375 -1.421875 
Q 22.515625 -1.421875 17.65625 -0.515625 
Q 12.796875 0.390625 7.625 2.203125 
L 7.625 11.71875 
Q 11.71875 9.328125 16.59375 8.109375 
Q 21.484375 6.890625 26.8125 6.890625 
Q 36.078125 6.890625 40.9375 10.546875 
Q 45.796875 14.203125 45.796875 21.1875 
Q 45.796875 27.640625 41.28125 31.265625 
Q 36.765625 34.90625 28.71875 34.90625 
L 20.21875 34.90625 
L 20.21875 43.015625 
L 29.109375 43.015625 
Q 36.375 43.015625 40.234375 45.921875 
Q 44.09375 48.828125 44.09375 54.296875 
Q 44.09375 59.90625 40.109375 62.90625 
Q 36.140625 65.921875 28.71875 65.921875 
Q 24.65625 65.921875 20.015625 65.03125 
Q 15.375 64.15625 9.8125 62.3125 
L 9.8125 71.09375 
Q 15.4375 72.65625 20.34375 73.4375 
Q 25.25 74.21875 29.59375 74.21875 
Q 40.828125 74.21875 47.359375 69.109375 
Q 53.90625 64.015625 53.90625 55.328125 
Q 53.90625 49.265625 50.4375 45.09375 
Q 46.96875 40.921875 40.578125 39.3125 
z
" id="DejaVuSans-51"/>
      </defs>
      <g transform="translate(324.587781 291.410437)scale(0.1 -0.1)">
       <use xlink:href="#DejaVuSans-51"/>
       <use x="63.623047" xlink:href="#DejaVuSans-48"/>
       <use x="127.246094" xlink:href="#DejaVuSans-48"/>
      </g>
     </g>
    </g>
    <g id="xtick_8">
     <g id="line2d_8">
      <g>
       <use style="stroke:#000000;stroke-width:0.8;" x="377.42894" xlink:href="#mcbb6aef43c" y="276.812"/>
      </g>
     </g>
     <g id="text_8">
      <!-- 302 -->
      <g transform="translate(367.88519 291.410437)scale(0.1 -0.1)">
       <use xlink:href="#DejaVuSans-51"/>
       <use x="63.623047" xlink:href="#DejaVuSans-48"/>
       <use x="127.246094" xlink:href="#DejaVuSans-50"/>
      </g>
     </g>
    </g>
    <g id="text_9">
     <!-- +1.59616e9 -->
     <defs>
      <path d="M 46 62.703125 
L 46 35.5 
L 73.1875 35.5 
L 73.1875 27.203125 
L 46 27.203125 
L 46 0 
L 37.796875 0 
L 37.796875 27.203125 
L 10.59375 27.203125 
L 10.59375 35.5 
L 37.796875 35.5 
L 37.796875 62.703125 
z
" id="DejaVuSans-43"/>
      <path d="M 12.40625 8.296875 
L 28.515625 8.296875 
L 28.515625 63.921875 
L 10.984375 60.40625 
L 10.984375 69.390625 
L 28.421875 72.90625 
L 38.28125 72.90625 
L 38.28125 8.296875 
L 54.390625 8.296875 
L 54.390625 0 
L 12.40625 0 
z
" id="DejaVuSans-49"/>
      <path d="M 10.6875 12.40625 
L 21 12.40625 
L 21 0 
L 10.6875 0 
z
" id="DejaVuSans-46"/>
      <path d="M 10.796875 72.90625 
L 49.515625 72.90625 
L 49.515625 64.59375 
L 19.828125 64.59375 
L 19.828125 46.734375 
Q 21.96875 47.46875 24.109375 47.828125 
Q 26.265625 48.1875 28.421875 48.1875 
Q 40.625 48.1875 47.75 41.5 
Q 54.890625 34.8125 54.890625 23.390625 
Q 54.890625 11.625 47.5625 5.09375 
Q 40.234375 -1.421875 26.90625 -1.421875 
Q 22.3125 -1.421875 17.546875 -0.640625 
Q 12.796875 0.140625 7.71875 1.703125 
L 7.71875 11.625 
Q 12.109375 9.234375 16.796875 8.0625 
Q 21.484375 6.890625 26.703125 6.890625 
Q 35.15625 6.890625 40.078125 11.328125 
Q 45.015625 15.765625 45.015625 23.390625 
Q 45.015625 31 40.078125 35.4375 
Q 35.15625 39.890625 26.703125 39.890625 
Q 22.75 39.890625 18.8125 39.015625 
Q 14.890625 38.140625 10.796875 36.28125 
z
" id="DejaVuSans-53"/>
      <path d="M 56.203125 29.59375 
L 56.203125 25.203125 
L 14.890625 25.203125 
Q 15.484375 15.921875 20.484375 11.0625 
Q 25.484375 6.203125 34.421875 6.203125 
Q 39.59375 6.203125 44.453125 7.46875 
Q 49.3125 8.734375 54.109375 11.28125 
L 54.109375 2.78125 
Q 49.265625 0.734375 44.1875 -0.34375 
Q 39.109375 -1.421875 33.890625 -1.421875 
Q 20.796875 -1.421875 13.15625 6.1875 
Q 5.515625 13.8125 5.515625 26.8125 
Q 5.515625 40.234375 12.765625 48.109375 
Q 20.015625 56 32.328125 56 
Q 43.359375 56 49.78125 48.890625 
Q 56.203125 41.796875 56.203125 29.59375 
z
M 47.21875 32.234375 
Q 47.125 39.59375 43.09375 43.984375 
Q 39.0625 48.390625 32.421875 48.390625 
Q 24.90625 48.390625 20.390625 44.140625 
Q 15.875 39.890625 15.1875 32.171875 
z
" id="DejaVuSans-101"/>
     </defs>
     <g transform="translate(331.337188 304.088562)scale(0.1 -0.1)">
      <use xlink:href="#DejaVuSans-43"/>
      <use x="83.789062" xlink:href="#DejaVuSans-49"/>
      <use x="147.412109" xlink:href="#DejaVuSans-46"/>
      <use x="179.199219" xlink:href="#DejaVuSans-53"/>
      <use x="242.822266" xlink:href="#DejaVuSans-57"/>
      <use x="306.445312" xlink:href="#DejaVuSans-54"/>
      <use x="370.068359" xlink:href="#DejaVuSans-49"/>
      <use x="433.691406" xlink:href="#DejaVuSans-54"/>
      <use x="497.314453" xlink:href="#DejaVuSans-101"/>
      <use x="558.837891" xlink:href="#DejaVuSans-57"/>
     </g>
    </g>
   </g>
   <g id="matplotlib.axis_2">
    <g id="ytick_1">
     <g id="line2d_9">
      <defs>
       <path d="M 0 0 
L -3.5 0 
" id="m9011eee16c" style="stroke:#000000;stroke-width:0.8;"/>
      </defs>
      <g>
       <use style="stroke:#000000;stroke-width:0.8;" x="36.465625" xlink:href="#m9011eee16c" y="264.716"/>
      </g>
     </g>
     <g id="text_10">
      <!-- 0.00 -->
      <g transform="translate(7.2 268.515219)scale(0.1 -0.1)">
       <use xlink:href="#DejaVuSans-48"/>
       <use x="63.623047" xlink:href="#DejaVuSans-46"/>
       <use x="95.410156" xlink:href="#DejaVuSans-48"/>
       <use x="159.033203" xlink:href="#DejaVuSans-48"/>
      </g>
     </g>
    </g>
    <g id="ytick_2">
     <g id="line2d_10">
      <g>
       <use style="stroke:#000000;stroke-width:0.8;" x="36.465625" xlink:href="#m9011eee16c" y="234.219012"/>
      </g>
     </g>
     <g id="text_11">
      <!-- 0.25 -->
      <g transform="translate(7.2 238.018231)scale(0.1 -0.1)">
       <use xlink:href="#DejaVuSans-48"/>
       <use x="63.623047" xlink:href="#DejaVuSans-46"/>
       <use x="95.410156" xlink:href="#DejaVuSans-50"/>
       <use x="159.033203" xlink:href="#DejaVuSans-53"/>
      </g>
     </g>
    </g>
    <g id="ytick_3">
     <g id="line2d_11">
      <g>
       <use style="stroke:#000000;stroke-width:0.8;" x="36.465625" xlink:href="#m9011eee16c" y="203.722024"/>
      </g>
     </g>
     <g id="text_12">
      <!-- 0.50 -->
      <g transform="translate(7.2 207.521243)scale(0.1 -0.1)">
       <use xlink:href="#DejaVuSans-48"/>
       <use x="63.623047" xlink:href="#DejaVuSans-46"/>
       <use x="95.410156" xlink:href="#DejaVuSans-53"/>
       <use x="159.033203" xlink:href="#DejaVuSans-48"/>
      </g>
     </g>
    </g>
    <g id="ytick_4">
     <g id="line2d_12">
      <g>
       <use style="stroke:#000000;stroke-width:0.8;" x="36.465625" xlink:href="#m9011eee16c" y="173.225036"/>
      </g>
     </g>
     <g id="text_13">
      <!-- 0.75 -->
      <defs>
       <path d="M 8.203125 72.90625 
L 55.078125 72.90625 
L 55.078125 68.703125 
L 28.609375 0 
L 18.3125 0 
L 43.21875 64.59375 
L 8.203125 64.59375 
z
" id="DejaVuSans-55"/>
      </defs>
      <g transform="translate(7.2 177.024255)scale(0.1 -0.1)">
       <use xlink:href="#DejaVuSans-48"/>
       <use x="63.623047" xlink:href="#DejaVuSans-46"/>
       <use x="95.410156" xlink:href="#DejaVuSans-55"/>
       <use x="159.033203" xlink:href="#DejaVuSans-53"/>
      </g>
     </g>
    </g>
    <g id="ytick_5">
     <g id="line2d_13">
      <g>
       <use style="stroke:#000000;stroke-width:0.8;" x="36.465625" xlink:href="#m9011eee16c" y="142.728048"/>
      </g>
     </g>
     <g id="text_14">
      <!-- 1.00 -->
      <g transform="translate(7.2 146.527267)scale(0.1 -0.1)">
       <use xlink:href="#DejaVuSans-49"/>
       <use x="63.623047" xlink:href="#DejaVuSans-46"/>
       <use x="95.410156" xlink:href="#DejaVuSans-48"/>
       <use x="159.033203" xlink:href="#DejaVuSans-48"/>
      </g>
     </g>
    </g>
    <g id="ytick_6">
     <g id="line2d_14">
      <g>
       <use style="stroke:#000000;stroke-width:0.8;" x="36.465625" xlink:href="#m9011eee16c" y="112.23106"/>
      </g>
     </g>
     <g id="text_15">
      <!-- 1.25 -->
      <g transform="translate(7.2 116.030279)scale(0.1 -0.1)">
       <use xlink:href="#DejaVuSans-49"/>
       <use x="63.623047" xlink:href="#DejaVuSans-46"/>
       <use x="95.410156" xlink:href="#DejaVuSans-50"/>
       <use x="159.033203" xlink:href="#DejaVuSans-53"/>
      </g>
     </g>
    </g>
    <g id="ytick_7">
     <g id="line2d_15">
      <g>
       <use style="stroke:#000000;stroke-width:0.8;" x="36.465625" xlink:href="#m9011eee16c" y="81.734072"/>
      </g>
     </g>
     <g id="text_16">
      <!-- 1.50 -->
      <g transform="translate(7.2 85.533291)scale(0.1 -0.1)">
       <use xlink:href="#DejaVuSans-49"/>
       <use x="63.623047" xlink:href="#DejaVuSans-46"/>
       <use x="95.410156" xlink:href="#DejaVuSans-53"/>
       <use x="159.033203" xlink:href="#DejaVuSans-48"/>
      </g>
     </g>
    </g>
    <g id="ytick_8">
     <g id="line2d_16">
      <g>
       <use style="stroke:#000000;stroke-width:0.8;" x="36.465625" xlink:href="#m9011eee16c" y="51.237084"/>
      </g>
     </g>
     <g id="text_17">
      <!-- 1.75 -->
      <g transform="translate(7.2 55.036303)scale(0.1 -0.1)">
       <use xlink:href="#DejaVuSans-49"/>
       <use x="63.623047" xlink:href="#DejaVuSans-46"/>
       <use x="95.410156" xlink:href="#DejaVuSans-55"/>
       <use x="159.033203" xlink:href="#DejaVuSans-53"/>
      </g>
     </g>
    </g>
    <g id="ytick_9">
     <g id="line2d_17">
      <g>
       <use style="stroke:#000000;stroke-width:0.8;" x="36.465625" xlink:href="#m9011eee16c" y="20.740096"/>
      </g>
     </g>
     <g id="text_18">
      <!-- 2.00 -->
      <g transform="translate(7.2 24.539315)scale(0.1 -0.1)">
       <use xlink:href="#DejaVuSans-50"/>
       <use x="63.623047" xlink:href="#DejaVuSans-46"/>
       <use x="95.410156" xlink:href="#DejaVuSans-48"/>
       <use x="159.033203" xlink:href="#DejaVuSans-48"/>
      </g>
     </g>
    </g>
   </g>
   <g id="line2d_18">
    <path clip-path="url(#pc4a8f459e4)" d="M 52.698349 264.716 
L 52.914833 234.896723 
L 90.056816 234.896723 
L 90.060623 231.247887 
L 90.060623 264.716 
L 90.194649 264.716 
L 90.194649 256.325584 
L 90.277107 256.325584 
L 94.878853 256.325584 
L 94.878853 47.890279 
L 94.880615 264.716 
L 95.125092 264.716 
L 95.125092 250.087433 
L 97.373596 250.087433 
L 97.373596 34.787733 
L 97.375221 264.716 
L 97.592667 264.716 
L 97.592667 251.614102 
L 97.757881 251.614102 
L 97.757881 97.858142 
L 97.808189 97.858142 
L 111.06131 97.858142 
L 111.06131 264.716 
L 111.371994 264.716 
L 111.371994 246.348157 
L 111.969971 246.348157 
L 111.969971 25.860282 
L 111.971596 264.716 
L 112.297707 264.716 
L 112.297707 245.476524 
L 112.404564 245.476524 
L 112.435539 245.476524 
L 112.435539 25.611743 
L 112.836182 25.611743 
L 112.836182 264.716 
L 113.168694 264.716 
L 113.168694 245.115627 
L 113.269157 245.115627 
L 113.306862 245.115627 
L 113.306862 23.392313 
L 113.308418 264.716 
L 114.310951 264.716 
L 114.310951 207.27306 
L 114.390854 207.27306 
L 114.448677 207.27306 
L 114.448677 27.165289 
L 114.450203 264.716 
L 121.081512 264.716 
L 121.083199 58.106742 
L 121.083199 264.716 
L 121.246635 264.716 
L 121.246635 254.664817 
L 121.29969 254.664817 
L 122.141998 254.664817 
L 122.165634 93.299281 
L 128.152573 93.299281 
L 128.152573 60.575205 
L 128.155251 264.716 
L 128.344696 264.716 
L 128.344696 253.195576 
L 128.371735 253.195576 
L 131.811073 253.195576 
L 131.812721 41.340228 
L 131.812721 264.716 
L 132.00293 264.716 
L 132.00293 253.15214 
L 132.029205 253.15214 
L 135.22583 253.15214 
L 135.22583 39.972572 
L 135.227455 264.716 
L 135.418098 264.716 
L 135.418098 253.127945 
L 135.443939 253.127945 
L 138.532967 253.127945 
L 138.532967 39.366283 
L 138.534584 264.716 
L 138.724792 264.716 
L 138.724792 253.152723 
L 138.751076 253.152723 
L 141.812477 253.152723 
L 141.812477 39.210625 
L 141.814148 264.716 
L 142.112907 264.716 
L 142.112907 247.021267 
L 146.743141 247.021267 
L 146.743141 48.514426 
L 146.744812 264.716 
L 146.934929 264.716 
L 146.934929 253.157971 
L 146.961304 253.157971 
L 150.131149 253.157971 
L 150.131149 39.821684 
L 150.13279 264.716 
L 150.458504 264.716 
L 150.458504 245.499554 
L 150.565765 245.499554 
L 152.761429 245.499554 
L 152.761429 35.552153 
L 152.763054 264.716 
L 153.061638 264.716 
L 153.061638 247.03147 
L 157.853989 247.03147 
L 157.853989 49.426913 
L 157.855667 264.716 
L 158.046059 264.716 
L 158.046059 253.141937 
L 158.072151 253.141937 
L 161.485558 253.141937 
L 161.485558 41.194138 
L 161.487236 264.716 
L 161.650734 264.716 
L 161.650734 254.661319 
L 161.703728 254.661319 
L 162.870865 254.661319 
L 162.870865 74.914451 
L 163.062981 74.914451 
L 163.062981 29.61921 
L 163.064598 264.716 
L 163.417488 264.716 
L 163.417488 243.96443 
L 163.497574 243.96443 
L 163.55545 243.96443 
L 163.55545 23.506003 
L 163.557632 264.716 
L 167.292709 264.716 
L 167.292709 52.940404 
L 167.430611 52.940404 
L 167.432159 42.563887 
L 167.432159 264.716 
L 170.789192 264.716 
L 170.789192 74.291911 
L 170.89595 74.291911 
L 170.953857 74.291911 
L 170.953857 40.584475 
L 170.955429 264.716 
L 175.800827 264.716 
L 175.802559 48.043349 
L 175.802559 264.716 
L 176.046799 264.716 
L 176.046799 250.101134 
L 180.487434 250.101134 
L 180.487434 47.138831 
L 180.48909 264.716 
L 180.625595 264.716 
L 180.625595 256.185656 
L 180.705574 256.185656 
L 181.873169 256.185656 
L 181.873169 91.691835 
L 187.423271 91.691835 
L 187.423271 59.813403 
L 187.431137 264.716 
L 187.588036 264.716 
L 187.588036 255.033876 
L 187.647629 255.033876 
L 187.834579 255.033876 
L 187.834579 134.381565 
L 187.864113 134.381565 
L 207.598877 134.381565 
L 207.598877 264.716 
L 207.889343 264.716 
L 207.972923 52.884546 
L 208.02961 52.884546 
L 208.02961 23.167231 
L 208.031158 264.716 
L 230.411697 264.716 
L 230.411697 146.851838 
L 230.413635 264.716 
L 230.603706 264.716 
L 230.603706 253.160594 
L 230.630127 253.160594 
L 235.531082 253.160594 
L 235.531082 49.57629 
L 235.533142 264.716 
L 235.66954 264.716 
L 235.66954 256.191778 
L 235.749634 256.191778 
L 241.544174 256.191778 
L 241.544174 54.611549 
L 241.54586 264.716 
L 241.709244 264.716 
L 241.709244 254.667732 
L 241.762352 254.667732 
L 244.742729 254.667732 
L 244.742729 38.75409 
L 244.744331 264.716 
L 244.880638 264.716 
L 244.880638 256.197025 
L 244.960815 256.197025 
L 247.724754 256.197025 
L 247.724754 37.534444 
L 247.72641 264.716 
L 247.862717 264.716 
L 247.862717 256.196734 
L 247.942894 256.196734 
L 252.439034 256.196734 
L 252.439034 47.295187 
L 252.440674 264.716 
L 252.576965 264.716 
L 252.576965 256.197608 
L 252.657158 256.197608 
L 252.823006 256.197608 
L 252.823006 148.401888 
L 252.87365 148.401888 
L 275.096397 148.401888 
L 275.096397 264.716 
L 275.394287 264.716 
L 275.481018 22.907392 
L 275.482552 264.716 
L 298.160538 264.716 
L 298.160538 148.527902 
L 298.162361 264.716 
L 298.406837 264.716 
L 298.406837 250.087433 
L 301.467186 250.087433 
L 301.467186 39.362415 
L 301.468842 264.716 
L 301.605156 264.716 
L 301.605156 256.196442 
L 301.685326 256.196442 
L 306.91188 256.196442 
L 306.91188 51.411008 
L 306.913513 264.716 
L 307.103706 264.716 
L 307.103706 253.153307 
L 307.129997 253.153307 
L 307.295914 253.153307 
L 307.295914 114.839932 
L 307.346489 114.839932 
L 323.613159 114.839932 
L 323.613159 264.716 
L 323.94101 264.716 
L 323.970535 30.55096 
L 324.046135 30.55096 
L 325.354538 30.55096 
L 325.354538 264.716 
L 325.678268 264.716 
L 325.678268 245.611204 
L 325.787514 245.611204 
L 325.816147 245.611204 
L 325.816147 27.228405 
L 326.506218 27.228405 
L 326.506218 264.716 
L 326.793121 264.716 
L 326.793121 247.691171 
L 326.958145 247.691171 
L 326.958145 50.703421 
L 331.824036 50.703421 
L 331.824036 264.716 
L 332.129555 264.716 
L 332.159248 45.707543 
L 336.255264 45.707543 
L 336.255264 264.716 
L 336.545944 264.716 
L 336.602676 54.253513 
L 342.202881 54.253513 
L 342.202881 264.716 
L 342.507072 264.716 
L 342.507072 246.714592 
L 343.538284 246.714592 
L 343.538284 28.264963 
L 343.539879 264.716 
L 343.838509 264.716 
L 343.838509 247.028847 
L 343.976562 247.028847 
L 343.976562 44.263349 
L 347.714622 44.263349 
L 347.714622 264.716 
L 348.011574 264.716 
L 348.040985 51.538286 
L 353.180344 51.538286 
L 353.180344 264.716 
L 353.483131 264.716 
L 353.512932 47.555539 
L 357.939232 47.555539 
L 357.939232 264.716 
L 358.250885 264.716 
L 358.280617 41.537828 
L 361.630318 41.537828 
L 361.630318 264.716 
L 361.963966 264.716 
L 361.993462 26.613439 
L 362.063293 26.613439 
L 362.672653 26.613439 
L 362.672653 264.716 
L 368.788666 264.716 
L 368.788666 55.203121 
L 368.790344 264.716 
L 368.92659 264.716 
L 368.92659 256.200523 
L 369.006836 256.200523 
L 369.714775 256.200523 
L 369.714775 117.816387 
L 377.233337 117.816387 
L 377.233337 117.816387 
" style="fill:none;stroke:#ff0000;stroke-linecap:square;stroke-width:1.5;"/>
   </g>
   <g id="line2d_19">
    <path clip-path="url(#pc4a8f459e4)" d="M 52.698349 264.716 
L 52.914833 229.475036 
L 89.742218 229.475036 
L 89.742218 264.716 
L 90.042206 264.716 
L 90.098648 47.950707 
L 94.571526 47.950707 
L 94.571526 264.716 
L 94.890999 264.716 
L 94.947784 34.699704 
L 97.049217 34.699704 
L 97.049217 264.716 
L 97.385803 264.716 
L 97.442924 23.05893 
L 97.460907 264.716 
L 111.056992 264.716 
L 111.056992 97.352459 
L 111.059669 264.716 
L 111.817116 264.716 
L 111.817116 221.115114 
L 111.925613 221.115114 
L 111.982239 221.115114 
L 111.982239 25.938664 
L 111.98381 264.716 
L 112.309845 264.716 
L 112.309845 245.481188 
L 112.416786 245.481188 
L 112.853798 245.481188 
L 112.853798 25.642354 
L 112.855446 264.716 
L 113.18132 264.716 
L 113.292076 27.305477 
L 114.02092 27.305477 
L 114.02092 264.716 
L 114.296028 264.716 
L 114.296028 248.357577 
L 114.460876 248.357577 
L 114.460876 58.725353 
L 120.762352 58.725353 
L 120.762352 264.716 
L 121.093414 264.716 
L 121.150436 26.82119 
L 121.195328 26.82119 
L 121.841789 26.82119 
L 121.841789 264.716 
L 127.999428 264.716 
L 128.001846 55.437656 
L 128.001846 264.716 
L 128.164696 264.716 
L 128.164696 254.697758 
L 128.21833 254.697758 
L 131.65799 254.697758 
L 131.65799 41.34206 
L 131.659645 264.716 
L 131.796188 264.716 
L 131.796188 256.183324 
L 131.876129 256.183324 
L 135.073112 256.183324 
L 135.073112 39.974608 
L 135.074799 264.716 
L 135.237953 264.716 
L 135.237953 254.680267 
L 135.291283 254.680267 
L 138.379715 254.680267 
L 138.381386 39.36291 
L 138.381386 264.716 
L 141.656822 264.716 
L 141.656822 78.900488 
L 141.794701 78.900488 
L 141.794701 39.973736 
L 141.796272 264.716 
L 146.587196 264.716 
L 146.587196 47.736394 
L 146.588837 264.716 
L 149.972389 264.716 
L 149.972389 72.794102 
L 150.052628 72.794102 
L 150.137543 72.794102 
L 150.137543 40.736672 
L 150.139114 264.716 
L 152.629684 264.716 
L 152.629684 123.229578 
L 152.736961 123.229578 
L 152.76767 123.229578 
L 152.76767 35.551688 
L 152.769272 264.716 
L 157.722542 264.716 
L 157.722542 48.651238 
L 157.724281 264.716 
L 157.860695 264.716 
L 157.860695 256.190903 
L 157.940765 256.190903 
L 161.326889 256.190903 
L 161.326889 41.040399 
L 161.328568 264.716 
L 162.574692 264.716 
L 162.574692 193.515253 
L 162.627487 193.515253 
L 162.739578 193.515253 
L 162.739578 28.690959 
L 162.741119 264.716 
L 163.066933 264.716 
L 163.066933 245.493723 
L 163.174095 245.493723 
L 163.259003 245.493723 
L 163.259003 23.658317 
L 163.260574 264.716 
L 163.559647 264.716 
L 163.559647 247.003776 
L 167.134422 247.003776 
L 167.134422 42.568802 
L 167.136032 264.716 
L 167.434608 264.716 
L 167.434608 247.032345 
L 170.65731 247.032345 
L 170.65731 40.582061 
L 170.658913 264.716 
L 170.958031 264.716 
L 170.958031 247.001444 
L 175.669182 247.001444 
L 175.669182 48.972356 
L 175.670776 264.716 
L 175.807152 264.716 
L 175.807152 256.192944 
L 175.88726 256.192944 
L 180.329155 256.192944 
L 180.329155 46.989541 
L 180.331635 264.716 
L 180.52095 264.716 
L 180.52095 253.202864 
L 180.548119 253.202864 
L 181.714378 253.202864 
L 181.714378 58.887498 
L 187.101585 58.887498 
L 187.101585 264.716 
L 187.426865 264.716 
L 187.513596 23.061713 
L 187.521309 264.716 
L 207.595284 264.716 
L 207.595284 133.854635 
L 207.59729 264.716 
L 208.030815 264.716 
L 208.030815 239.410076 
L 230.249977 239.410076 
L 230.249977 148.38536 
L 230.251869 264.716 
L 235.367371 264.716 
L 235.367371 49.565354 
L 235.370827 264.716 
L 235.559296 264.716 
L 235.559296 253.250964 
L 235.587311 253.250964 
L 241.380157 253.250964 
L 241.380157 54.60198 
L 241.381813 264.716 
L 241.599281 264.716 
L 241.599281 251.612936 
L 244.578751 251.612936 
L 244.578751 38.754439 
L 244.58036 264.716 
L 244.770767 264.716 
L 244.770767 253.141354 
L 244.796852 253.141354 
L 247.560631 253.141354 
L 247.560631 37.533543 
L 247.562248 264.716 
L 247.752632 264.716 
L 247.752632 253.14252 
L 247.778732 253.14252 
L 252.274574 253.14252 
L 252.274574 47.293529 
L 252.276207 264.716 
L 252.655899 264.716 
L 252.655899 242.450588 
L 252.709175 242.450588 
L 275.09201 242.450588 
L 275.09201 149.304508 
L 275.094162 264.716 
L 275.500374 264.716 
L 275.500374 240.952779 
L 275.527138 240.952779 
L 298.017708 240.952779 
L 298.017708 149.911612 
L 298.019623 264.716 
L 298.155388 264.716 
L 298.155388 256.227343 
L 298.236107 256.227343 
L 301.297501 256.227343 
L 301.297501 39.210596 
L 301.2994 264.716 
L 301.489403 264.716 
L 301.489403 253.164384 
L 301.515892 253.164384 
L 306.768906 253.164384 
L 306.768906 51.560123 
L 306.770546 264.716 
L 306.906738 264.716 
L 306.906738 256.203438 
L 306.987038 256.203438 
L 307.126129 256.203438 
L 307.126129 149.976792 
L 307.203522 149.976792 
L 323.635757 149.976792 
L 323.635757 115.773573 
L 323.637627 264.716 
L 323.773598 264.716 
L 323.773598 256.215682 
L 323.854111 256.215682 
L 325.372696 256.215682 
L 325.372696 72.199147 
L 325.510887 72.199147 
L 325.510887 31.295739 
L 325.512466 264.716 
L 326.51474 264.716 
L 326.51474 207.287635 
L 326.594902 207.287635 
L 326.652946 207.287635 
L 326.652946 27.16654 
L 326.65451 264.716 
L 331.824188 264.716 
L 331.824188 49.870651 
L 331.825806 264.716 
L 332.016365 264.716 
L 332.016365 253.132609 
L 332.04229 253.132609 
L 336.240349 253.132609 
L 336.242043 45.615517 
L 336.242043 264.716 
L 342.196465 264.716 
L 342.196465 54.292554 
L 342.198097 264.716 
L 343.362564 264.716 
L 343.362564 198.127036 
L 343.527557 198.127036 
L 343.527557 28.231429 
L 343.529663 264.716 
L 343.854996 264.716 
L 343.854996 245.520543 
L 343.962631 245.520543 
L 347.7006 245.520543 
L 347.7006 44.242859 
L 347.702286 264.716 
L 347.892776 264.716 
L 347.892776 253.136399 
L 347.91877 253.136399 
L 353.172028 253.136399 
L 353.172028 51.56149 
L 353.173637 264.716 
L 353.364197 264.716 
L 353.364197 253.132609 
L 353.390121 253.132609 
L 357.940285 253.132609 
L 357.940285 47.599612 
L 357.941895 264.716 
L 358.132133 264.716 
L 358.132133 253.150683 
L 358.158379 253.150683 
L 361.6259 253.150683 
L 361.6259 41.499056 
L 361.627495 264.716 
L 362.656967 264.716 
L 362.656967 205.751055 
L 362.70993 205.751055 
L 368.639938 205.751055 
L 368.639938 60.254406 
L 368.641609 264.716 
L 368.833534 264.716 
L 368.833534 253.055357 
L 368.858093 253.055357 
L 369.566071 253.055357 
L 369.566071 83.145208 
L 377.301086 83.145208 
L 377.301086 83.145208 
" style="fill:none;stroke:#0000ff;stroke-linecap:square;stroke-width:1.5;"/>
   </g>
   <g id="line2d_20">
    <path clip-path="url(#pc4a8f459e4)" d="M 52.698349 264.716 
L 52.914833 263.360578 
L 89.629059 263.360578 
L 89.629059 228.837535 
L 89.632561 264.716 
L 89.820587 264.716 
L 89.820587 253.276035 
L 89.849052 253.276035 
L 94.450813 253.276035 
L 94.450813 47.890395 
L 94.452583 264.716 
L 94.615959 264.716 
L 94.615959 254.668024 
L 94.669067 254.668024 
L 96.945732 254.668024 
L 96.945732 34.788722 
L 96.947464 264.716 
L 97.354416 264.716 
L 97.354416 240.911092 
L 97.38044 240.911092 
L 110.77961 240.911092 
L 110.77961 98.682654 
L 110.782341 264.716 
L 110.944389 264.716 
L 110.944389 254.742943 
L 110.998825 254.742943 
L 111.704803 254.742943 
L 111.704803 101.860293 
L 111.86956 101.860293 
L 111.86956 26.866449 
L 111.871231 264.716 
L 112.576141 264.716 
L 112.576141 224.082164 
L 112.741226 224.082164 
L 112.741226 25.642441 
L 112.742966 264.716 
L 113.041595 264.716 
L 113.041595 247.028847 
L 113.883041 247.028847 
L 113.883041 27.164301 
L 113.884743 264.716 
L 114.183502 264.716 
L 114.183502 247.02185 
L 120.653694 247.02185 
L 120.653694 58.882359 
L 120.655479 264.716 
L 120.872833 264.716 
L 120.872833 251.619058 
L 121.714195 251.619058 
L 121.714195 59.729712 
L 121.737907 59.729712 
L 127.57489 59.729712 
L 127.57489 264.716 
L 127.886848 264.716 
L 127.91655 41.333076 
L 131.229492 41.333076 
L 131.229492 264.716 
L 131.545662 264.716 
L 131.548378 40.000298 
L 134.647865 40.000298 
L 134.647865 264.716 
L 134.960464 264.716 
L 135.017403 39.359841 
L 137.952339 39.359841 
L 137.952339 264.716 
L 138.267204 264.716 
L 138.29715 39.345798 
L 141.254509 39.345798 
L 141.254509 264.716 
L 141.547043 264.716 
L 141.547043 247.373127 
L 141.685104 247.373127 
L 141.685104 48.401819 
L 141.687485 48.401819 
L 146.163528 48.401819 
L 146.163528 264.716 
L 146.477669 264.716 
L 146.507248 39.857188 
L 149.556221 39.857188 
L 149.556221 264.716 
L 149.865448 264.716 
L 149.865448 246.430656 
L 150.030632 246.430656 
L 150.030632 35.538404 
L 152.182518 35.538404 
L 152.182518 264.716 
L 152.46904 264.716 
L 152.46904 247.712743 
L 152.660965 247.712743 
L 152.660965 49.442822 
L 157.276398 49.442822 
L 157.276398 264.716 
L 157.588524 264.716 
L 157.618507 41.204885 
L 160.908424 41.204885 
L 160.908424 264.716 
L 161.193245 264.716 
L 161.193245 247.808652 
L 162.305176 247.808652 
L 162.305176 28.610658 
L 162.306953 264.716 
L 162.632721 264.716 
L 162.632721 245.496056 
L 162.739929 245.496056 
L 162.824806 245.496056 
L 162.824806 23.658143 
L 162.826492 264.716 
L 163.125153 264.716 
L 163.125153 247.027098 
L 163.290558 247.027098 
L 163.290558 42.697285 
L 166.723282 42.697285 
L 166.723282 264.716 
L 167.027428 264.716 
L 167.027428 246.717216 
L 167.165382 246.717216 
L 167.165382 40.521807 
L 170.234032 40.521807 
L 170.234032 264.716 
L 170.523552 264.716 
L 170.523552 247.543664 
L 170.688622 247.543664 
L 170.688622 48.927002 
L 175.236412 48.927002 
L 175.236412 264.716 
L 175.535423 264.716 
L 175.619209 47.068691 
L 179.909149 47.068691 
L 179.909149 264.716 
L 180.222374 264.716 
L 180.251846 40.483686 
L 181.310158 40.483686 
L 181.310158 28.634623 
L 181.311867 264.716 
L 186.995529 264.716 
L 186.995529 52.766884 
L 186.997337 264.716 
L 187.404434 264.716 
L 187.404434 240.902929 
L 187.430313 240.902929 
L 207.350746 240.902929 
L 207.350746 135.429195 
L 207.353012 264.716 
L 207.48838 264.716 
L 207.48838 256.250081 
L 207.569504 256.250081 
L 207.762032 256.250081 
L 207.762032 147.473168 
L 207.785988 147.473168 
L 229.843857 147.473168 
L 229.843857 264.716 
L 230.143799 264.716 
L 230.173508 49.491722 
L 234.946297 49.491722 
L 234.946297 264.716 
L 235.23642 264.716 
L 235.293182 54.63059 
L 240.960899 54.63059 
L 240.960899 264.716 
L 241.276672 264.716 
L 241.306114 38.75399 
L 244.15786 38.75399 
L 244.15786 264.716 
L 244.475288 264.716 
L 244.504936 37.620455 
L 247.153954 37.620455 
L 247.153954 264.716 
L 247.457191 264.716 
L 247.487114 47.240399 
L 251.856941 47.240399 
L 251.856941 264.716 
L 252.143913 264.716 
L 252.23082 22.846839 
L 252.232475 264.716 
L 274.829262 264.716 
L 274.829262 148.070378 
L 274.831375 264.716 
L 274.966866 264.716 
L 274.966866 256.243085 
L 275.047859 256.243085 
L 275.213097 256.243085 
L 275.213097 148.937582 
L 275.264351 148.937582 
L 297.582314 148.937582 
L 297.582314 264.716 
L 297.892769 264.716 
L 297.976547 39.295298 
L 300.875542 39.295298 
L 300.875542 264.716 
L 301.17247 264.716 
L 301.202423 51.52491 
L 306.338921 51.52491 
L 306.338921 264.716 
L 306.644356 264.716 
L 306.703773 22.796 
L 306.705414 264.716 
L 323.34861 264.716 
L 323.34861 114.522575 
L 323.35421 264.716 
L 323.568008 264.716 
L 323.568008 251.820495 
L 323.570702 251.820495 
L 325.086113 251.820495 
L 325.086113 30.499152 
L 325.087891 264.716 
L 325.386543 264.716 
L 325.386543 247.027681 
L 326.227859 247.027681 
L 326.227859 27.163719 
L 326.22963 264.716 
L 326.528458 264.716 
L 326.528458 247.017769 
L 331.564438 247.017769 
L 331.564438 50.801083 
L 331.566223 264.716 
L 331.702209 264.716 
L 331.702209 256.214808 
L 331.782707 256.214808 
L 335.980881 256.214808 
L 335.980881 45.616186 
L 335.98304 264.716 
L 336.172707 264.716 
L 336.172707 253.18275 
L 336.199524 253.18275 
L 341.939644 253.18275 
L 341.939644 54.304885 
L 341.941429 264.716 
L 342.077332 264.716 
L 342.077332 256.219763 
L 342.157913 256.219763 
L 343.270866 256.219763 
L 343.270866 95.154087 
L 343.408714 95.154087 
L 343.408714 29.008064 
L 343.410423 264.716 
L 347.443634 264.716 
L 347.443634 43.466777 
L 347.445488 264.716 
L 347.581589 264.716 
L 347.581589 256.208394 
L 347.661972 256.208394 
L 352.91526 256.208394 
L 352.917046 51.561664 
L 352.917046 264.716 
L 353.05323 264.716 
L 353.05323 256.20373 
L 353.13353 256.20373 
L 357.683411 256.20373 
L 357.685204 47.598012 
L 357.685204 264.716 
L 357.821487 264.716 
L 357.821487 256.1979 
L 357.901688 256.1979 
L 361.341896 256.1979 
L 361.341896 41.345172 
L 361.343651 264.716 
L 361.561325 264.716 
L 361.561325 251.601567 
L 362.402687 251.601567 
L 362.402687 59.519124 
L 362.426086 59.519124 
L 368.225952 59.519124 
L 368.225952 264.716 
L 368.521881 264.716 
L 368.551857 52.200491 
L 369.122627 52.200491 
L 369.122627 25.792748 
L 369.126396 264.716 
L 377.352898 264.716 
L 377.352898 264.716 
" style="fill:none;stroke:#008000;stroke-linecap:square;stroke-width:1.5;"/>
   </g>
   <g id="patch_3">
    <path d="M 36.465625 276.812 
L 36.465625 10.7 
" style="fill:none;stroke:#000000;stroke-linecap:square;stroke-linejoin:miter;stroke-width:0.8;"/>
   </g>
   <g id="patch_4">
    <path d="M 393.585625 276.812 
L 393.585625 10.7 
" style="fill:none;stroke:#000000;stroke-linecap:square;stroke-linejoin:miter;stroke-width:0.8;"/>
   </g>
   <g id="patch_5">
    <path d="M 36.465622 276.812 
L 393.585617 276.812 
" style="fill:none;stroke:#000000;stroke-linecap:square;stroke-linejoin:miter;stroke-width:0.8;"/>
   </g>
   <g id="patch_6">
    <path d="M 36.465622 10.7 
L 393.585617 10.7 
" style="fill:none;stroke:#000000;stroke-linecap:square;stroke-linejoin:miter;stroke-width:0.8;"/>
   </g>
  </g>
 </g>
 <defs>
  <clipPath id="pc4a8f459e4">
   <rect height="266.112" width="357.12" x="36.465625" y="10.7"/>
  </clipPath>
 </defs>
</svg>
